<svg width="24" height="24" fill="none" viewBox="-2 -2 24 24" id="ach" x="277" y="145" xmlns="http://www.w3.org/2000/svg">
        <circle cx="10" cy="10" r="10" fill="#050F66"/>
        <path fill-rule="evenodd" clip-rule="evenodd" d="M9.11 5.407l-.834 1.417.012 1.974.012 1.974.123-.092c.197-.15.733-.387 1.094-.486a4.228 4.228 0 011.671-.068c.206.04.405.084.443.098.06.022.069-.18.069-1.687V6.826l-.84-1.408c-.463-.774-.858-1.412-.88-1.418-.02-.006-.412.627-.87 1.407zm-3.622 6.079L4 13.978l1.484.012a38.88 38.88 0 001.5-.004c.009-.009.01-1.136.004-2.504l-.011-2.489-1.489 2.493zm7.49.013V14H16l-.066-.098c-.037-.054-.7-1.161-1.473-2.46a168.12 168.12 0 00-1.445-2.403c-.021-.023-.038 1.08-.038 2.46zm-3.035-.237c-.767.18-1.453.856-1.615 1.592-.065.297-.065.704 0 .952L8.38 14h3.32v-2.453l-.285-.128a2.316 2.316 0 00-1.471-.157z" fill="#fff"/>
    </svg>