<svg width="24" height="24" fill="none" viewBox="-2 -2 24 24" id="ae" x="277" y="241" xmlns="http://www.w3.org/2000/svg">
        <path d="M4.32 5h.822c1.284.126 2.472.772 3.352 1.702 1.826 1.916 2.83 4.62 5.154 6.046 1.68 1.032 4.03.188 4.856-1.554.42-.008.842-.008 1.262-.006-.578 1.77-2.262 3.042-4.104 3.212h-.678c-1.134-.094-2.236-.53-3.094-1.284-1.246-1.056-2.046-2.504-3.014-3.794-.832-1.14-1.682-2.422-3.06-2.94-1.702-.638-3.782.36-4.402 2.056-.546 1.396-.102 3.128 1.118 4.022.914.708 2.188.972 3.286.56 1.22-.44 2.126-1.44 2.82-2.5.274.392.54.79.804 1.19-1.08 1.36-2.578 2.528-4.36 2.69h-.73C2.106 14.244.154 12.336 0 10.082v-.738C.146 7.094 2.072 5.164 4.32 5z" fill="#DE3F6B"/>
        <path d="M14.938 5h.682c2.266.148 4.194 2.094 4.38 4.348v1.156c-1.87.018-3.742.006-5.612.008.002-.338.002-.674 0-1.012 1.478-.004 2.954.006 4.43-.004-.104-.598-.24-1.21-.594-1.716-.864-1.32-2.69-1.86-4.15-1.288-1.164.432-2.04 1.378-2.716 2.388-.26-.374-.518-.752-.768-1.134 1.066-1.38 2.554-2.574 4.348-2.746z" fill="#DE3F6B"/>
    </svg>