<svg width="24" height="24" fill="none" viewBox="-2 -2 24 24" id="agi" x="228" y="149" xmlns="http://www.w3.org/2000/svg">
        <path d="M10 20c5.523 0 10-4.477 10-10S15.523 0 10 0 0 4.477 0 10s4.477 10 10 10z" fill="#1D0D4A"/>
        <path fill-rule="evenodd" clip-rule="evenodd" d="M12.446 10.653c.555.644.89 1.448.956 2.295a3.768 3.768 0 01-.596 2.34 5.684 5.684 0 01-1.73 1.545.179.179 0 01-.148.044.175.175 0 01-.126-.088.15.15 0 01.046-.221 4.465 4.465 0 001.32-1.59 3.071 3.071 0 00.228-1.897 2.624 2.624 0 00-.865-1.59 9.683 9.683 0 00-1.73-1.147 7.85 7.85 0 01-1.956-1.368 4.37 4.37 0 01-.729-1.06 3.824 3.824 0 01-.319-1.235 3.649 3.649 0 01.642-2.384 4.062 4.062 0 011.775-1.5.176.176 0 01.274.043.19.19 0 01-.046.22 4.874 4.874 0 00-1.28 1.634A3.09 3.09 0 007.94 6.5c.122.591.424 1.13.864 1.545.536.455 1.115.856 1.73 1.195.705.372 1.35.848 1.912 1.413zm-1.709-7.717c.01.048.04.091.08.12.365.352.696.736.987 1.148a3.676 3.676 0 01-.09 3.84.458.458 0 00.044.53.52.52 0 00.684.133c.762-.623.888-1.861.938-2.359.007-.067.012-.12.018-.158 0-.313-.047-.625-.137-.926a4.724 4.724 0 00-.364-.839 2.703 2.703 0 00-.546-.706 4.1 4.1 0 00-1.366-.927.21.21 0 00-.227 0 .204.204 0 00-.02.144zM9.52 16.81c.045-.044.045-.132-.046-.22a7.898 7.898 0 01-1.002-1.148 3.676 3.676 0 01.091-3.84.393.393 0 000-.53.52.52 0 00-.682-.132c-.762.622-.888 1.86-.938 2.358a4.02 4.02 0 01-.018.158c0 .314.047.626.137.927.094.29.216.571.364.838.141.264.326.503.546.707.388.398.852.713 1.366.926.045.044.137 0 .182-.044z" fill="#fff"/>
    </svg>