<svg width="25" height="24" fill="none" viewBox="-2 -2 25 24" id="aion" y="26" xmlns="http://www.w3.org/2000/svg">
        <circle cx="10.997" cy="10" r="10" fill="#fff"/>
        <path d="M11 16c.336 0 .664-.097.943-.278.279-.18.496-.438.625-.739.128-.3.162-.632.096-.951a1.632 1.632 0 00-.464-.844 1.713 1.713 0 00-.869-.45c-.33-.064-.67-.031-.98.093-.31.125-.576.336-.762.607a1.613 1.613 0 00.211 2.08c.318.308.75.482 1.2.482z" fill="#1C1C1C"/>
        <path d="M12.841 2h-3.69L4 15.794h3.118L11 5.407l3.873 10.387H18L12.841 2z" fill="#1C1C1C"/>
    </svg>