<svg width="24" height="24" fill="none" viewBox="-2 -2 24 24" id="alpaca" x="99" y="244" xmlns="http://www.w3.org/2000/svg">
        <circle cx="10" cy="10" r="10" fill="#fff"/>
        <path fill-rule="evenodd" clip-rule="evenodd" d="M13.196 2.004c-.356.066-.625.319-1.3 1.218-.171.23-.384.517-.47.639-.187.26-.231.315-.267.337-.048.03-.1.02-.24-.045a1.247 1.247 0 00-.375-.123 6.064 6.064 0 00-1.02-.023c-.267.027-.47.075-.707.168a1.218 1.218 0 01-.189.063c-.069 0-.108-.04-.296-.3-.584-.811-.954-1.286-1.181-1.517-.196-.2-.325-.296-.468-.35a.495.495 0 00-.229-.033c-.139-.001-.146 0-.199.032a.412.412 0 00-.189.272c-.053.2-.026.662.075 1.291.07.433.125.66.253 1.038.084.246.358.974.407 1.077.053.115.147.272.212.355.064.083.088.13.088.173 0 .016-.029.158-.064.317-.121.545-.148.753-.148 1.147 0 .224.003.298.023.454.031.239.034.546.006.84-.027.3-.019.596.024.826.025.135.032.207.037.361.007.238-.004.35-.063.661-.084.44-.086.473-.089 1.063-.001.288-.007.604-.013.703-.006.1-.016.335-.021.523-.01.36-.014.401-.052.616-.02.117-.023.165-.023.4 0 .23.004.299.028.487.015.12.027.243.027.273V15l-.119.051a.793.793 0 00-.293.195c-.146.141-.258.335-.306.533a.85.85 0 00-.022.249c0 .185.018.272.087.45.059.148.059.174.001.33-.104.283-.12.524-.05.762.032.11.063.179.139.301l.065.107-.04.125c-.152.47-.238.753-.235.764.004.013.245.14.251.132.002-.003.06-.163.129-.357.069-.195.13-.363.135-.375.01-.02.015-.018.076.033.165.138.486.257.928.346.402.081.67.093 1.06.048l.517-.059c.137-.016.34-.042.453-.059l.204-.03.171.02c.102.012.21.018.265.015.088-.006.102-.01.202-.065.127-.07.236-.098.446-.118.453-.042.829-.137 1.443-.365.555-.206.8-.314 1.08-.48.1-.059.184-.106.185-.105.002.002.044.108.094.235.104.267.283.693.358.851l.05.108.087-.054.128-.082.041-.028-.047-.119a77.443 77.443 0 00-.212-.513 62.34 62.34 0 01-.206-.502l-.043-.106.09-.103c.103-.12.178-.234.25-.383a.896.896 0 01.069-.124c.029-.03.21-.13.325-.18.06-.025.223-.086.361-.135.139-.049.277-.1.309-.113.03-.014.24-.144.464-.289.746-.482 1.403-.879 1.791-1.082.188-.098.19-.099.225-.161a9.22 9.22 0 00.22-.443l.037-.077-.027.016a2.38 2.38 0 01-.163.075c-.561.24-1.627.88-2.609 1.565-.141.099-.29.198-.332.22-.086.045-.455.19-.486.19-.024 0-.074-.042-.074-.062 0-.007-.02-.062-.045-.121-.07-.168-.168-.279-.354-.402-.082-.054-.085-.063-.09-.272-.006-.19-.022-.282-.07-.39a.483.483 0 00-.14-.175.95.95 0 00-.468-.12c-.112.003-.124-.005-.138-.093a7.588 7.588 0 01-.017-.416 5.99 5.99 0 00-.021-.43.612.612 0 01.028-.312c.051-.127.229-.322.544-.597.38-.332.749-.586 1.353-.933.832-.476 1.853-.978 3.04-1.494.269-.116 1.095-.468 1.1-.468 0 0 .005.017.008.038.003.034.004.033.005-.009 0-.025.006-.142.012-.258A2.06 2.06 0 0019 9.48a8.758 8.758 0 00-.59.252c-.021.01-.2.09-.398.174-.939.403-1.389.611-1.975.915-.733.38-1.715.95-2.064 1.2a6.596 6.596 0 00-.898.774 1.924 1.924 0 01-.16.153c-.009.015-.011-.004-.012-.097-.004-.511-.021-1.382-.03-1.482a4.554 4.554 0 00-.07-.51 2.286 2.286 0 01-.063-.587c0-.185.004-.24.022-.337.067-.353.073-.661.022-1.104a1.576 1.576 0 01-.005-.458c.045-.22.061-.532.046-.851-.017-.342-.046-.533-.15-.99a2.484 2.484 0 01-.05-.265c0-.056.02-.105.074-.172.107-.135.166-.246.293-.556.314-.768.49-1.334.587-1.896.074-.429.12-1.074.09-1.256-.027-.168-.118-.306-.235-.357a.54.54 0 00-.237-.027zm.146.279c.076.045.107.176.107.45 0 .727-.25 1.639-.748 2.72-.071.153-.206.4-.219.4a.97.97 0 01-.118-.209.298.298 0 01-.011-.24c.011-.032.07-.168.132-.302.317-.69.472-1.112.522-1.426.024-.152.017-.354-.014-.43-.041-.096-.141-.15-.228-.124-.065.02-.155.107-.346.33-.424.5-.639.804-.753 1.07a.77.77 0 01-.094.16c-.044.055-.053.073-.053.108 0 .059.011.08.1.186.174.209.4.591.536.91.178.415.301.917.36 1.463.013.13.005.153-.068.18-.026.01-.314.1-.64.2-.325.1-.601.19-.614.198a.173.173 0 00-.038.046c-.023.04-.006.084.05.125.054.04.07.068.09.16.055.25.217.43.433.483a.953.953 0 00.37 0 .528.528 0 00.291-.233c.033-.053.05-.073.062-.068.012.005.014.018.01.06-.008.062.008.466.024.621.006.059.02.17.03.246a1.06 1.06 0 010 .397c-.058.374-.049.752.029 1.244.08.509.095.905.054 1.379-.018.21-.018.54 0 .732.009.087.015.261.015.412 0 .327.015.713.038 1.022.01.131.017.31.017.395 0 .15-.002.16-.031.233-.039.095-.13.217-.358.475-.415.47-.885.936-1.476 1.462-.124.11-.242.22-.264.243-.086.096-.13.106-.224.055-.167-.091-.287-.084-.484.03-.117.068-.155.078-.209.057-.052-.02-.498-.291-.7-.426a7.217 7.217 0 01-.708-.54 12.07 12.07 0 01-1.011-.914l-.139-.142-.007-.235a32.867 32.867 0 00-.037-.853 3.43 3.43 0 01.04-.763c.053-.382.065-.552.065-.9 0-.216-.004-.365-.014-.46-.02-.19-.018-.59.004-.806.017-.173.035-.306.08-.581.056-.355.059-.687.01-1.086l-.027-.22.021-.157a6.42 6.42 0 00.061-.73.28.28 0 01.005-.073c.003 0 .026.02.052.043.069.061.196.129.282.15.09.023.305.017.413-.011.202-.053.358-.217.447-.472.04-.114.05-.123.141-.119.093.004.113-.01.113-.085 0-.056-.014-.079-.062-.097-.018-.006-.285-.08-.595-.162a9.883 9.883 0 00-.784-.195.115.115 0 01-.058-.033c-.031-.037-.03-.102.002-.365.07-.561.169-.94.362-1.39.15-.347.3-.602.497-.844a.942.942 0 00.116-.165.136.136 0 00-.042-.12c-.018-.013-.037-.015-.085-.01-.06.008-.064.007-.089-.024a4.067 4.067 0 01-.158-.277 5.89 5.89 0 00-.311-.533c-.185-.286-.365-.54-.426-.6-.17-.164-.312-.16-.383.009-.026.062-.029.08-.032.226-.005.195.01.289.077.495.027.081.09.278.14.437.155.491.258.762.393 1.041a.828.828 0 01.065.16c0 .033-.01.058-.058.14l-.035.06-.025-.026c-.038-.04-.098-.156-.22-.421-.516-1.116-.767-2.09-.727-2.82.013-.246.05-.312.177-.32.127-.009.266.055.407.185.101.094.346.375.526.603.29.369.953 1.261.976 1.316.014.031.03.087.035.125a.305.305 0 00.03.097c.042.062.139.05.244-.03.22-.167.663-.268 1.177-.269.281 0 .447.016.742.073.237.046.282.06.383.125.15.095.176.11.216.115.056.01.094-.032.123-.133.035-.124.052-.155.176-.319.064-.084.22-.292.345-.462.624-.842.985-1.267 1.17-1.376.136-.08.265-.102.34-.056zm-.491 1.065a.24.24 0 01.033.096c.01.065.008.081-.04.307-.082.387-.116.491-.25.766-.046.093-.143.305-.216.471-.125.285-.178.382-.19.344-.015-.048-.121-.191-.258-.346l-.155-.176.005-.054c.01-.11.236-.482.565-.93.085-.115.182-.25.217-.3.13-.183.234-.247.289-.178zm-5.923.017c.06.052.24.274.32.395.04.06.15.254.243.43.094.177.204.38.244.452.089.16.112.214.112.253 0 .047-.026.094-.072.131-.061.05-.122.13-.215.283-.045.075-.087.14-.093.144-.012.01-.09-.091-.17-.22-.111-.18-.226-.494-.374-1.023-.135-.478-.179-.82-.112-.866.031-.021.077-.013.117.021zm.811 4.61c.068.078.054.238-.022.27-.074.03-.155.004-.188-.06-.04-.077-.016-.212.042-.242a.213.213 0 01.08-.007c.05.003.063.009.088.039zm4.076.027c.018.012.04.04.048.062.015.036.015.042-.007.107-.02.057-.03.073-.063.091-.035.02-.042.02-.079.006-.075-.03-.108-.136-.07-.221a.115.115 0 01.171-.045zm-1.537.244a.46.46 0 00-.239.132l-.049.052-.074-.052c-.149-.104-.3-.126-.413-.06-.195.117-.308.508-.242.84.03.15.021.182-.08.296-.214.245-.287.544-.19.784.029.074.051.103.212.279a.253.253 0 01.07.128c.048.18.136.307.283.41a.898.898 0 00.525.184.704.704 0 00.234-.017.696.696 0 00.422-.277c.025-.037.072-.132.105-.212.07-.164.104-.226.171-.31a.594.594 0 00.075-.128c.024-.06.028-.086.031-.216a.878.878 0 00-.07-.42.71.71 0 00-.152-.223 1.59 1.59 0 01-.123-.153c-.017-.038-.013-.108.01-.185.026-.086.035-.265.02-.405-.026-.246-.157-.409-.36-.447a.348.348 0 00-.166 0zm.219.242c.075.038.144.15.162.26.008.056-.013.14-.086.33-.08.211-.086.24-.066.287.012.032.037.052.134.11a.616.616 0 01.247.225c.094.15.114.335.052.485-.067.162-.246.258-.402.216-.143-.039-.246-.133-.371-.34-.077-.127-.104-.154-.138-.132a.822.822 0 00-.094.143c-.079.138-.158.235-.223.273a.438.438 0 01-.418.027.376.376 0 01-.151-.168c-.023-.051-.027-.073-.027-.164 0-.093.003-.112.031-.18.037-.092.13-.212.25-.32a.545.545 0 00.098-.112c.019-.041.014-.102-.017-.204-.12-.4-.046-.696.179-.72.079-.008.146.019.247.098.085.068.142.087.181.063a.266.266 0 00.055-.074c.043-.078.064-.1.117-.12a.39.39 0 01.24.017zm-.22.334c-.04.033-.101.204-.101.284 0 .062.031.104.078.104.052 0 .077-.035.112-.157.042-.145.039-.202-.012-.233-.036-.021-.05-.021-.077.002zm-.605.033c-.044.022-.057.056-.05.134a.384.384 0 00.088.216c.05.063.093.07.134.021.024-.027.025-.036.02-.097a.436.436 0 00-.041-.149c-.056-.123-.093-.154-.151-.125zm9.291 1.255c0 .02.003.026.005.014a.077.077 0 000-.034c-.003-.008-.005.001-.005.02zm-.01.116c0 .02.003.026.006.015a.076.076 0 000-.035c-.003-.008-.006.001-.005.02zm-8.598.295a.583.583 0 00.286.083c.034 0 .062.004.062.009 0 .02-.069.165-.1.21-.109.159-.313.23-.575.2-.294-.032-.482-.156-.543-.358l-.014-.047.09-.013c.17-.026.234-.066.405-.253l.103-.114.1.117a.606.606 0 00.186.166zm8.588-.184c0 .016.002.022.005.014a.051.051 0 000-.029c-.003-.008-.005-.001-.005.015zm-.01.093c0 .016.003.022.005.014a.051.051 0 000-.029c-.002-.008-.005-.001-.005.015zm-.01.093c0 .016.003.022.005.014a.051.051 0 000-.029c-.002-.008-.005-.001-.005.015zm-.01.088c0 .013.003.016.006.007.003-.009.002-.019-.001-.023s-.006.003-.005.016zm-.01.081c0 .014.003.016.006.007.003-.008.002-.018-.001-.022s-.006.003-.005.015zm-.02.151c0 .014.003.016.006.007.003-.008.002-.018-.001-.022s-.006.003-.005.015zm-.01.07c0 .013.003.016.006.007.003-.009.002-.019 0-.023-.004-.003-.007.003-.006.016zm-.01.07c0 .013.003.016.006.006.003-.008.002-.018 0-.022-.004-.004-.006.003-.006.015zM13.13 15c.127.024.187.047.243.095.088.074.119.216.077.355-.01.033-.05.126-.09.205-.086.175-.091.214-.037.274.019.02.048.04.064.044.054.013.125-.023.18-.09.04-.048.064-.051.123-.017a.773.773 0 01.277.29c.02.043.023.07.024.156 0 .103-.001.107-.052.228-.113.268-.293.48-.58.682-.202.142-.356.217-.811.397-.662.26-1.14.4-1.473.43a1.763 1.763 0 00-.179.025c-.11.027-.148-.003-.173-.137a.624.624 0 00-.066-.185c-.033-.065-.021-.08.181-.24.103-.081.284-.234.401-.34l.385-.343c.343-.302.577-.541.86-.878.405-.485.46-.581.476-.828.005-.087.01-.112.025-.125.024-.02.03-.02.145.002zm-6.351.612c.432.539.824.899 1.654 1.522.405.303.652.464.91.596.072.036.143.08.158.096l.029.031-.007.128c-.005.1-.003.14.01.186.033.126.021.139-.15.161-.07.01-.19.02-.263.024-.074.004-.262.021-.418.038-.377.04-.672.042-.899.005a2.946 2.946 0 01-.978-.321.928.928 0 01-.358-.312 1.076 1.076 0 01-.132-.319 1.402 1.402 0 010-.341.829.829 0 01.058-.207c.004 0 .047.019.096.042.134.064.197.055.243-.034.045-.085.022-.136-.127-.29-.13-.134-.184-.2-.21-.26a.784.784 0 01.034-.627.617.617 0 01.17-.2c.07-.043.084-.037.18.082zm3.53 2.105c.07.04.147.138.173.222.037.113.025.166-.054.248a.441.441 0 01-.372.105c-.104-.014-.143-.029-.191-.072-.085-.076-.106-.201-.054-.32.066-.154.185-.226.356-.218.07.003.098.01.141.035z" fill="#000"/>
        <circle cx="10" cy="10" r="9.5" stroke="#31C77F"/>
        <path fill-rule="evenodd" clip-rule="evenodd" d="M12.905 13.51a.492.492 0 01.025-.088c.051-.127.229-.322.544-.597.38-.332.749-.586 1.353-.933.832-.476 1.853-.978 3.04-1.494.269-.116 1.095-.468 1.1-.468 0 0 .005.017.008.038.003.034.004.033.005-.009a1.874 1.874 0 01.003-.046.502.502 0 01.411.607 2.259 2.259 0 01-.046.157c-.037.11-.107.262-.18.403l.038.085.004.008c.035.078.092.204.122.327.024.098.089.424-.179.663a.524.524 0 01-.126.083.854.854 0 01.001.233l-.006.043c-.02.15-.051.397-.105.633a2.5 2.5 0 01-.126.405 1.033 1.033 0 01-.339.448.507.507 0 01-.283.548c-.069.034-.158.06-.204.074-.105.031-.236.065-.317.085a.235.235 0 00.031-.046c.036-.062.148-.287.22-.443l.037-.077-.027.016a2.451 2.451 0 01-.163.074c-.561.24-1.627.88-2.609 1.566a5.61 5.61 0 01-.332.22c-.086.045-.455.19-.486.19-.024 0-.074-.042-.074-.062a.999.999 0 00-.045-.121c-.07-.168-.168-.28-.354-.402-.082-.054-.085-.064-.09-.272-.006-.19-.022-.282-.07-.39a.483.483 0 00-.14-.175.95.95 0 00-.468-.12.469.469 0 01-.074-.002.656.656 0 01-.026-.18l-.011-.052-.002-.009c-.01-.038-.027-.11-.034-.196l-.007-.019-.001-.05a5.983 5.983 0 00-.022-.467v-.046c0-.032-.001-.084.004-.142zm.059 1.569a.513.513 0 01.236-.043l.02-.015c.07.018.113.04.154.075.088.074.119.216.077.355-.01.033-.05.126-.09.205-.086.175-.091.214-.037.274.019.02.048.04.064.044.054.013.125-.023.18-.09.04-.048.064-.051.123-.017a.772.772 0 01.277.29c.02.043.023.069.024.156 0 .103-.001.107-.052.228-.113.268-.293.48-.58.682-.202.142-.356.217-.811.397-.662.26-1.14.4-1.473.43a1.763 1.763 0 00-.179.025c-.11.027-.148-.003-.173-.137a.623.623 0 00-.066-.185c-.033-.065-.021-.08.181-.24.103-.081.284-.234.401-.34l.385-.343c.343-.302.577-.541.86-.878.405-.485.46-.581.476-.828 0-.017.002-.033.003-.046zm-5.148 1.574l-.001-.001zm-.001-.001a6.59 6.59 0 01-1.035-1.039c-.096-.12-.11-.125-.18-.082a.616.616 0 00-.17.2.784.784 0 00-.034.626c.026.06.08.127.21.261.15.154.172.205.127.29-.046.089-.11.098-.243.034a.996.996 0 00-.096-.042.83.83 0 00-.058.207c-.014.08-.014.263 0 .341.015.085.077.234.132.319a.928.928 0 00.358.312c.284.157.593.258.978.321.227.037.522.036.9-.005.155-.017.343-.034.417-.038.074-.004.192-.014.263-.024.171-.022.183-.035.15-.161a.563.563 0 01-.01-.186l.007-.128-.029-.03a.837.837 0 00-.157-.097c-.26-.132-.506-.293-.91-.597-.239-.178-.44-.335-.618-.48m-1.047 1.76l.033.023c.17.113.348.146.48.157a2.563 2.563 0 01-.513-.18zm7.358-1.647l.013-.012a.522.522 0 00.1-.133l.001-.002a.398.398 0 00.015-.029.335.335 0 00-.053.038.9.9 0 00-.069.124l-.007.014zm1.171-.625l.153-.053.01-.003c.028-.01.097-.031.146-.05a.88.88 0 00.263-.159l.006-.003.016-.01.05-.032c.095-.066.168-.14.21-.184l.003-.002a.802.802 0 01.078-.076c.039-.03.077-.06.114-.092-.215.134-.445.28-.685.434-.14.091-.275.176-.364.23zm-6.183 1.06c.286.1.554.171.797.171.027 0 .055-.001.087-.004a.781.781 0 00-.17.078c-.115.067-.154.077-.208.056a8.115 8.115 0 01-.506-.302zm1.036.155a.484.484 0 01.163.059c.095.051.138.04.224-.055l.005-.005h-.014l-.015-.002a2.274 2.274 0 00-.363.002zm1.023-.576a1.126 1.126 0 01.358-.366l.089-.064c-.141.14-.29.283-.447.43zm7.793-6.657c-.002.012-.004.005-.005-.014 0-.02.002-.028.005-.02a.076.076 0 010 .034zm-.01.117c-.002.01-.004.004-.004-.015s.002-.028.004-.02a.077.077 0 010 .035zm-.01.11c-.003.008-.005.002-.005-.014s.002-.023.005-.015a.051.051 0 010 .03zm-.01.093c-.002.008-.005.001-.005-.014 0-.016.003-.023.005-.015a.051.051 0 010 .03zm-.01.093c-.002.008-.005.002-.005-.014s.003-.023.005-.015a.051.051 0 010 .029zm-.01.08c-.002.01-.005.007-.005-.006 0-.013.002-.02.005-.016s.004.014 0 .023zm-.01.082c-.003.01-.005.006-.005-.007 0-.012.002-.02.005-.015.003.004.004.014 0 .022zm-.02.15c-.002.01-.005.007-.005-.006 0-.012.002-.02.005-.015.003.004.004.014 0 .022zm-.01.07c-.002.01-.005.007-.005-.006 0-.013.002-.02.005-.016s.004.014 0 .023zm-.01.07c-.002.01-.005.007-.005-.007 0-.012.002-.019.005-.015s.004.014 0 .022zm-8.384 6.95a.445.445 0 00-.175-.221.264.264 0 00-.14-.035c-.172-.008-.29.064-.357.218-.052.119-.03.244.054.32.048.043.087.058.19.072.146.02.29-.02.373-.105.08-.082.09-.135.054-.248zm2.458-3.68c0 .004 0 .003-.001-.002v.002z" fill="#31C77F"/>
    </svg>