<svg width="24" height="24" fill="none" viewBox="-2 -2 24 24" id="amb" x="123" y="244" xmlns="http://www.w3.org/2000/svg">
        <path d="M10 20c5.523 0 10-4.477 10-10S15.523 0 10 0 0 4.477 0 10s4.477 10 10 10z" fill="#000123"/>
        <path fill-rule="evenodd" clip-rule="evenodd" d="M17.917 9.577C17.58 9.012 15.121 5.163 10 5.163c-5.147 0-7.605 3.877-7.922 4.42A.375.375 0 002 9.815c0 .086.028.17.083.238.338.565 2.796 4.414 7.917 4.414 5.135 0 7.592-3.863 7.92-4.418a.375.375 0 00.08-.234.375.375 0 00-.083-.238zM2.81 9.815c.409.623 1.92 2.674 4.652 3.53a4.317 4.317 0 01-1.717-2.69.43.43 0 11.39-.052 3.932 3.932 0 003.092 3.09 8.842 8.842 0 001.539.002 3.954 3.954 0 001.583-.699.196.196 0 01.277.04.196.196 0 01-.04.277c-.016.01-.03.022-.045.032 2.73-.857 4.242-2.907 4.65-3.53-.413-.63-1.955-2.721-4.745-3.56a4.358 4.358 0 011.77 2.59.43.43 0 11-.377.103 3.942 3.942 0 00-3.34-3.032 8.945 8.945 0 00-1.026.003 3.88 3.88 0 00-1.763.699.187.187 0 01-.114.032.212.212 0 01-.163-.081.197.197 0 01.05-.276l.037-.027c-2.768.846-4.298 2.921-4.71 3.549zm10.124 2.937a.184.184 0 00.13.05.209.209 0 00.146-.058 4.342 4.342 0 001.098-2.413c.016-.106-.066-.203-.171-.22-.106-.016-.203.066-.22.171a3.926 3.926 0 01-.999 2.194.194.194 0 00.016.276zm-7.028-3.34h-.032c-.106-.015-.18-.113-.171-.227.13-.877.52-1.69 1.137-2.34a.194.194 0 01.277-.008.194.194 0 01.008.276 3.867 3.867 0 00-1.032 2.13.186.186 0 01-.187.17zM10 13.33a3.508 3.508 0 01-3.502-3.502A3.508 3.508 0 0110 6.325a3.508 3.508 0 013.502 3.502A3.502 3.502 0 0110 13.33zm0-6.614a3.117 3.117 0 00-3.112 3.112A3.118 3.118 0 0010 12.94a3.118 3.118 0 003.112-3.112A3.123 3.123 0 0010 6.715zm.025 1.024c.617 0 1.12.503 1.12 1.12 0 .391-.202.732-.503.935l-.001-.007c-.179.122-.39.186-.617.186a1.15 1.15 0 01-.616-.185v.006a1.11 1.11 0 01-.505-.934c0-.618.504-1.121 1.122-1.121zm-.618 2.056l-.309 1.885a.226.226 0 00.228.268h1.397a.222.222 0 00.228-.268l-.31-1.885a1.15 1.15 0 01-.617.186 1.15 1.15 0 01-.617-.186z" fill="url(#appaint0_linear)"/>
        <defs>
            <linearGradient id="appaint0_linear" x1="4.347" y1="6.09" x2="15.494" y2="14.261" gradientUnits="userSpaceOnUse">
                <stop stop-color="#8AE3FF"/>
                <stop offset=".495" stop-color="#8AE3FF"/>
                <stop offset=".892" stop-color="#8AE3FF"/>
                <stop offset="1" stop-color="#8AE3FF"/>
            </linearGradient>
        </defs>
    </svg>