<svg width="25" height="24" fill="none" viewBox="-2 -2 25 24" id="ampl" x="54" y="24" xmlns="http://www.w3.org/2000/svg">
        <g clip-path="url(#arclip0)">
            <circle cx="10.11" cy="10" r="10" fill="#fff"/>
            <path d="M3.929 15.676a5.292 5.292 0 01-.003-.528c.058-.018.117-.03.179-.039a4.52 4.52 0 00.523-.123c.047-.015.094-.032.14-.05.227-.088.427-.235.58-.423a2.71 2.71 0 00.276-.426c.111-.205.208-.42.296-.637.176-.44.353-.878.526-1.32l1.798-4.546a322.02 322.02 0 001.671-4.336l.035-.088c.203-.056.4-.114.605-.17.012.03.024.056.033.082.232.646.464 1.292.693 1.942.79 2.206 1.58 4.409 2.39 6.606.224.599.447 1.201.674 1.8.088.244.193.485.314.714.053.1.108.194.17.288.188.294.479.502.817.59.182.047.364.086.552.11l.132.02c.018.058.009.114.009.17v.18c.003.058 0 .114-.003.172l-.05.01H11.64a.105.105 0 01-.011-.033v-.476c0-.006.002-.014.005-.02a.764.764 0 01.118-.024c.19-.026.379-.062.567-.112.073-.02.15-.046.22-.076a.898.898 0 00.106-.053c.185-.103.258-.264.24-.47a1.473 1.473 0 00-.05-.276c-.037-.14-.087-.279-.134-.414a1099.56 1099.56 0 01-2.858-8.075c-.01-.03-.015-.061-.044-.088-.01.006-.024.012-.03.018a.138.138 0 00-.017.044c-.462 1.325-.952 2.64-1.44 3.953-.361.973-.722 1.948-1.057 2.929-.135.394-.265.79-.39 1.187a2.87 2.87 0 00-.11.464c-.017.106-.02.211-.008.32a.491.491 0 00.202.347.904.904 0 00.244.123c.138.05.28.085.423.109.159.029.317.053.479.076l.035.006.009.035v.461a.085.085 0 01-.006.027.222.222 0 01-.044.006h-.062l-4.097.014z" fill="#000"/>
        </g>
        <defs>
            <clipPath id="arclip0">
                <path fill="#fff" transform="translate(.13)" d="M0 0h20v20H0z"/>
            </clipPath>
        </defs>
    </svg>