<svg width="24" height="24" fill="none" viewBox="-2 -2 24 24" id="ankr" x="195" y="244" xmlns="http://www.w3.org/2000/svg">
        <path d="M10 20c5.523 0 10-4.477 10-10S15.523 0 10 0 0 4.477 0 10s4.477 10 10 10z" fill="#3776E0"/>
        <path d="M8.134 2.79a3.732 3.732 0 013.732 0l3.445 1.989a3.732 3.732 0 011.866 3.232v.915h-2.036V8.01c0-.606-.323-1.166-.848-1.469l-3.445-1.989a1.696 1.696 0 00-1.696 0L5.707 6.542a1.697 1.697 0 00-.848 1.47v.914H2.823V8.01c0-1.333.711-2.565 1.866-3.232L8.134 2.79z" fill="#fff"/>
        <path fill-rule="evenodd" clip-rule="evenodd" d="M4.859 11.408v.58c0 .607.323 1.167.848 1.47l3.3 1.906v-2.262A3.46 3.46 0 0110 6.33a3.458 3.458 0 011.043 6.755v2.248l3.25-1.876c.525-.303.848-.863.848-1.47v-.58h2.036v.58a3.732 3.732 0 01-1.866 3.233l-3.445 1.989a3.732 3.732 0 01-3.732 0l-3.445-1.989a3.732 3.732 0 01-1.866-3.232v-.581h2.036zm6.563-1.62a1.422 1.422 0 11-2.844 0 1.422 1.422 0 012.844 0z" fill="#fff"/>
    </svg>