<svg width="24" height="24" fill="none" viewBox="-2 -2 24 24" id="ar" x="219" y="244" xmlns="http://www.w3.org/2000/svg">
        <path d="M10 19.274A9.274 9.274 0 1010 .726a9.274 9.274 0 000 18.548z" fill="#fff"/>
        <path d="M11.547 13.53a1.587 1.587 0 01-.117-.318 3.743 3.743 0 01-.083-.379c-.111.12-.233.228-.365.323-.141.104-.292.194-.451.266a3.083 3.083 0 01-1.216.244 3.223 3.223 0 01-1.052-.165c-.302-.1-.58-.258-.823-.463a2.064 2.064 0 01-.73-1.598c0-.785.292-1.391.878-1.82.585-.43 1.459-.644 2.621-.645h1.067v-.439a1.082 1.082 0 00-.351-.85c-.234-.21-.572-.313-1.012-.313-.39 0-.675.082-.854.25a.87.87 0 00-.269.672H6.877c0-.312.071-.621.21-.901a2.2 2.2 0 01.613-.752 3.05 3.05 0 01.985-.512c.43-.135.88-.201 1.332-.196.425-.003.848.053 1.258.165a3.02 3.02 0 011.008.49c.288.216.52.497.675.821.167.356.25.746.242 1.14v3.195c-.005.332.02.664.075.992.042.234.117.461.221.675v.117h-1.95zM9.72 12.184a2.033 2.033 0 00.982-.248c.126-.067.242-.151.345-.25a1.32 1.32 0 00.227-.286v-1.28h-.976a2.953 2.953 0 00-.763.085 1.473 1.473 0 00-.517.237.966.966 0 00-.301.373c-.065.149-.098.31-.096.472a.839.839 0 00.278.643c.181.17.455.255.82.254z" fill="#222326"/>
        <path d="M10 19.274A9.274 9.274 0 1010 .726a9.274 9.274 0 000 18.548z" stroke="#222326" stroke-miterlimit="10"/>
    </svg>