<svg width="24" height="24" fill="none" viewBox="-2 -2 24 24" id="arata" x="243" y="244" xmlns="http://www.w3.org/2000/svg">
        <path fill-rule="evenodd" clip-rule="evenodd" d="M7.66.114c-.588.097-1.672.414-2.227.65-.921.392-2.209 1.29-2.913 2.03-.873.92-1.714 2.19-1.547 2.337.04.035.94.134 2 .22 1.06.085 2.066.185 2.234.223.175.039-.75.072-2.15.077L.599 5.66l-.145.416C.055 7.22 0 7.599 0 9.164c0 1.692.112 2.303.66 3.601.354.841 1.254 2.189 1.853 2.775l.473.464 1.089.106 1.088.106-.87.087-.872.088.478.329c.312.214.584.331.783.337.272.008.282.015.087.07-.155.043.036.092.657.171.482.06.94.129 1.016.151.115.033.183-.16.379-1.078.131-.615.26-1.207.286-1.316.04-.166.01-.197-.18-.197a.444.444 0 01-.37-.219c-.079-.12-.184-.219-.233-.219-.119 0-.503-.42-.503-.55 0-.056-.064-.011-.142.1-.202.288-.361.104-.167-.192.143-.218.14-.226-.113-.357-.291-.15-1.986-1.397-2.058-1.514-.026-.042.024-.17.111-.286l.158-.21.339.268c.186.147.712.508 1.168.803l.829.536.192-.24c.227-.285.377-.206.208.109-.159.297-.049.373.268.186a.693.693 0 01.523-.098c.143.032.261.025.262-.015 0-.04.056-.457.123-.926.123-.873.389-1.571.932-2.454.212-.346.249-.481.205-.757-.05-.309-.029-.356.25-.568.298-.228.302-.238.213-.625-.05-.216-.138-.393-.197-.393s-.279.078-.489.173c-.21.095-.49.174-.623.175-.216.002-.24-.029-.24-.3 0-.165-.041-.326-.09-.356a.163.163 0 01-.07-.159c.033-.164-.185-.497-.325-.497-.166 0-.162-.048.039-.476.107-.227.15-.46.121-.64-.045-.279-.056-.286-.496-.287-.247 0-.509-.04-.581-.086-.117-.076-.117-.085 0-.087.072 0 .25-.1.394-.221.145-.121.204-.21.132-.197-.073.013-.123-.022-.113-.077.01-.055-.121-.127-.293-.159a2.798 2.798 0 01-.528-.157c-.212-.097-.208-.103.248-.328.363-.18.51-.319.681-.64.175-.329.233-.382.296-.27.063.113.108.075.23-.198.253-.564.617-.725.617-.272 0 .174.021.167.285-.087.247-.238 1.081-.724 1.242-.724.031 0 .012.083-.042.183-.096.18-.087.182.488.12l.587-.062-.145.22-.144.22.54.095c.297.053.723.185.945.294l.405.199-.302.045-.302.044.283.238c.155.13.42.263.586.294.167.031.282.092.255.135-.026.043.04.078.146.078.179 0 .183.011.055.153-.077.085-.18.262-.23.394-.05.133-.152.241-.226.241-.222 0-.15.147.13.263.144.06.262.15.262.2 0 .051.06.16.135.241.123.137.107.152-.21.194-.404.055-.894.385-.828.559.028.072-.012.12-.101.12-.257 0-.115.304.156.335.305.035.264.224-.056.262-.183.022-.234.075-.234.243 0 .188-.029.207-.232.156-.154-.038-.213-.026-.175.035.031.051.008.113-.053.137-.072.03-.062.047.03.052.146.007.342.35.342.602 0 .082.134.523.297.98.319.892.359.93 1.017.962.241.012.27.03.135.082-.16.063-.157.072.043.121.12.03.492.082.83.117.73.075.586.137-.717.307-.779.102-.825.12-.78.296.025.103.17.894.321 1.758.213 1.216.278 1.852.287 2.82l.012 1.248.6.23c.7.267.7.267 1.585-.467 1.205-1.001 2.423-2.919 2.849-4.489.248-.916.38-2.356.294-3.203l-.072-.7-.825-.064c-1.122-.086-1.153-.116-.189-.185.454-.032.846-.08.871-.105.09-.09-.16-1.024-.46-1.718C16.293 2.795 13.918.836 10.946.22 10.205.066 8.315.005 7.66.114zm5.096 16.719c.034.286.122.328 3.095 1.44 2.237.836 3.979 1.418 4.148 1.384.094-.018-6.14-2.66-7.112-3.013-.134-.049-.155-.019-.131.189z" fill="#EB9022"/>
    </svg>