<svg width="25" height="24" fill="none" viewBox="-2 -2 25 24" id="arc" x="25" y="50" xmlns="http://www.w3.org/2000/svg">
        <g clip-path="url(#axclip0)">
            <path d="M10.5 20c5.523 0 10-4.477 10-10s-4.477-10-10-10S.5 4.477.5 10s4.477 10 10 10z" fill="#F0F0F0"/>
            <path d="M1.492 5.652A10 10 0 0110.5 0a10 10 0 019.008 5.652H1.492zM19.508 14.348A10 10 0 0110.5 20a10 10 0 01-9.008-5.652h18.016z" fill="#338AF3"/>
            <path d="M13.489 10l-1.222.575.65 1.182-1.325-.253-.168 1.34-.924-.986-.924.985-.168-1.34-1.326.254.65-1.183L7.511 10l1.221-.575-.65-1.182 1.326.253.168-1.34.924.986.924-.985.168 1.34 1.326-.254-.65 1.183 1.22.574z" fill="#FFDA44"/>
        </g>
        <defs>
            <clipPath id="axclip0">
                <path fill="#fff" transform="translate(.5)" d="M0 0h20v20H0z"/>
            </clipPath>
        </defs>
    </svg>