<svg width="24" height="24" fill="none" viewBox="-2 -2 24 24" id="arn" x="48" y="268" xmlns="http://www.w3.org/2000/svg">
        <path d="M10 20c5.523 0 10-4.477 10-10S15.523 0 10 0 0 4.477 0 10s4.477 10 10 10z" fill="#2B82BB"/>
        <path d="M7.35 8.814l2.676-4.712c.005-.008.015-.014.05 0l2.546 4.626a.61.61 0 00.016.958l-2.352 4.242a.631.631 0 00-.537-.004l-2.42-4.311a.607.607 0 00.02-.8h.001zm-.256.959l2.43 4.328a.609.609 0 00-.113.222c-1.962-.47-3.18-.76-3.657-.872a5.97 5.97 0 01-.528-.9l1.558-2.74a.64.64 0 00.31-.038zm-.337-1.177l-1.93-3.438c1.316-.698 2.947-1.064 4.897-1.096l-2.6 4.58a.63.63 0 00-.367-.046zm-.263.11a.61.61 0 00.022 1.005l-1.432 2.518a5.916 5.916 0 01-.418-1.846l-.29-4.614a.556.556 0 01.208-.467l1.91 3.404zm4.125 5.623a.608.608 0 00-.109-.222l2.386-4.304c.103.02.21.016.31-.015l1.546 2.809a6.07 6.07 0 01-.452.778l-3.68.954zm-.463.75a.62.62 0 00.467-.462l3.41-.884a6.035 6.035 0 01-1.46 1.308l-2.264 1.446a.57.57 0 01-.153.069v-1.477zm-.283 0v1.483a.574.574 0 01-.182-.075L7.427 15.04a6.04 6.04 0 01-1.404-1.24c.619.148 1.746.416 3.38.808a.62.62 0 00.47.471zm3.356-6.458a.632.632 0 00-.353-.018l-2.498-4.539c1.895.042 3.488.404 4.776 1.085L13.229 8.62zm.24.15l1.93-3.482a.556.556 0 01.225.48l-.289 4.615a5.918 5.918 0 01-.438 1.89l-1.446-2.626a.61.61 0 00.017-.877zM10 7.021a.344.344 0 00-.338.334v1.221L7.858 9.687l.193.417 1.61-.527v1.221l-.45.333v.333l.789-.222.79.222v-.333l-.452-.334v-1.22l1.583.556.22-.445-1.803-1.112V7.355a.343.343 0 00-.337-.333H10z" fill="#fff"/>
    </svg>