<svg width="24" height="24" fill="none" viewBox="-2 -2 24 24" id="asia" x="120" y="268" xmlns="http://www.w3.org/2000/svg">
        <path fill-rule="evenodd" clip-rule="evenodd" d="M7.276 1.284C4.484 2.016 2.084 3.96.896 6.45c-1.231 2.577-1.194 5.112.115 7.776 1.037 2.112 3.123 3.92 5.457 4.728 1.522.527 3.282.714 4.812.512 2.513-.332 4.22-1.16 6.008-2.913 3.385-3.32 3.628-8.386.58-12.05-1.264-1.518-3.403-2.816-5.426-3.293-1.304-.307-3.847-.27-5.166.075zm4.404.07c3.18.566 6.063 3.129 6.851 6.09.485 1.82.11 3.979-.973 5.601-3.02 4.522-10.11 5.108-14.128 1.166-2.318-2.273-2.8-5.324-1.313-8.314 1.107-2.226 3.62-4.08 6.151-4.538 1.412-.256 2.002-.257 3.412-.005zm-3.412.15c-.66.12-1.56.432-2.297.797-3.228 1.6-4.862 4.87-4.03 8.065.7 2.687 3.156 4.905 6.13 5.535 4.45.943 8.967-1.556 10.003-5.535C19.114 6.375 16.175 2.3 11.68 1.5c-1.41-.251-2-.25-3.412.005zM8.685 4.5c.215.266.298.286.577.136.272-.145.411-.123.849.135.443.261.585.283.928.14.223-.091.488-.116.59-.053.266.165 1.564.2 1.66.045.121-.197.69-.158 1.277.087.287.12.688.218.89.218.39 0 .443.094.237.419-.07.11-.2.155-.288.1-.09-.055-.162-.037-.162.04s-.206.212-.459.3c-.433.15-.445.175-.218.425.132.147.24.343.24.437 0 .328-.283.165-.652-.375-.334-.49-.38-.515-.451-.245-.062.234-.17.287-.489.24-.225-.033-.453.012-.508.1-.057.093.011.16.165.16.145 0 .558.26.918.577.503.443.609.607.457.708-.138.092-.149.162-.037.232.284.175.173.505-.239.709-.451.224-.844.09-1.361-.466-.17-.181-.365-.267-.465-.204-.12.075-.095.124.081.16.14.027.255.115.255.195s.098.243.218.363.218.38.218.577c0 .288-.133.415-.677.648l-.677.29.314.292c.39.365.395.526.018.646-.207.066-.379-.007-.577-.245-.367-.44-.366-.254.002.468.162.316.225.575.14.575-.105 0-.103.094.007.3.337.628.033.576-.512-.09-.47-.573-.516-.681-.264-.615.3.078.302.07.066-.453a4.202 4.202 0 00-.624-.946l-.385-.414-.25.382c-.138.21-.34.382-.452.382-.119 0-.201.152-.201.372 0 .205.059.336.13.292.072-.044.168.017.214.137.11.285-.052.27-.436-.04-.171-.139-.389-.497-.484-.797-.096-.3-.269-.545-.385-.545-.117 0-.25-.099-.295-.219-.127-.33-.48-.26-.627.124-.158.418-1.099.998-1.52.938a.411.411 0 01-.35-.35c-.023-.168-.269-.524-.545-.791-.544-.528-.624-.788-.283-.919.403-.154.223-.383-.302-.383-.416 0-.51-.05-.471-.255.03-.16.21-.273.483-.304.239-.027.478-.12.53-.205.126-.202.952.129 1.134.454.072.13.18.186.238.128.059-.06-.006-.232-.144-.385-.185-.204-.205-.305-.077-.384.126-.078.108-.144-.064-.24-.41-.23-.273-.453.22-.354l.456.091-.383-.302c-.222-.174-.384-.447-.384-.646 0-.19-.065-.385-.145-.434-.25-.154-.16-.533.143-.612.16-.042.257-.13.216-.195-.158-.256.278-.313.463-.06.187.257.196.255.196-.033 0-.507.339-.655 1.722-.75.193-.013.448.111.591.287zm4.631 3.484c-.305.334-.318.481-.06.694.326.272.72-.125.6-.603-.115-.458-.193-.471-.54-.091zM5.79 9.579c0 .177.361.332.593.255.092-.03-.004-.133-.213-.229-.239-.108-.38-.118-.38-.026zm7.753 1.701c.23.674.19.745-.215.378-.163-.147-.266-.442-.266-.757 0-.628.188-.48.481.38zm-.585.518c.11.288-.057.988-.254 1.063-.096.037-.365-.006-.6-.095l-.424-.162.4-.292c.22-.161.4-.385.4-.499 0-.26.38-.271.478-.015zm.358 1.408c.26 0 .473.076.473.167 0 .221-1.719.069-1.944-.173-.129-.137-.036-.156.417-.086.32.05.794.09 1.054.091z" fill="#1E1EF7"/>
        <path fill-rule="evenodd" clip-rule="evenodd" d="M11.68 1.354c3.18.566 6.063 3.129 6.851 6.09.485 1.82.11 3.979-.973 5.602-3.02 4.521-10.11 5.107-14.128 1.165-2.318-2.273-2.8-5.324-1.313-8.314 1.107-2.226 3.62-4.08 6.151-4.538 1.412-.256 2.002-.256 3.412-.005zM5.97 2.3c.739-.365 1.638-.677 2.298-.797C9.68 1.25 10.27 1.248 11.68 1.5c4.495.801 7.434 4.876 6.394 8.867-1.036 3.98-5.552 6.478-10.003 5.535-2.974-.63-5.43-2.848-6.13-5.535-.832-3.194.802-6.465 4.03-8.065z" fill="#fff"/>
        <path fill-rule="evenodd" clip-rule="evenodd" d="M8.685 4.5c.215.266.298.286.577.137.272-.146.411-.124.849.134.443.261.585.283.928.14.223-.091.488-.116.59-.053.266.165 1.564.2 1.66.045.121-.197.69-.158 1.277.087.287.12.688.218.89.218.39 0 .443.094.237.419-.07.11-.2.155-.288.1-.09-.055-.162-.037-.162.04s-.206.212-.459.3c-.433.151-.445.175-.218.426.132.146.24.342.24.436 0 .328-.283.165-.652-.375-.334-.49-.38-.515-.451-.245-.062.234-.17.287-.489.24-.225-.033-.453.012-.508.1-.057.093.011.16.165.16.145 0 .558.26.918.577.502.443.608.607.457.708-.138.092-.149.162-.037.232.284.175.173.505-.239.709-.452.224-.844.09-1.361-.466-.17-.181-.365-.267-.465-.204-.12.075-.095.124.081.16.14.027.255.115.255.195s.098.243.218.363.218.38.218.577c0 .288-.133.415-.677.648l-.677.29.313.292c.391.365.396.526.019.646-.207.066-.38-.007-.577-.245-.367-.44-.366-.254.002.468.162.316.225.576.14.576-.105 0-.103.093.007.298.337.63.033.577-.512-.089-.47-.573-.517-.681-.265-.615.301.078.303.07.067-.453a4.2 4.2 0 00-.624-.946l-.385-.414-.25.382c-.138.21-.34.382-.452.382-.119 0-.201.152-.201.372 0 .205.059.336.13.292.072-.044.168.018.214.137.11.285-.052.27-.436-.04-.171-.139-.389-.497-.484-.797-.096-.3-.269-.545-.385-.545-.117 0-.25-.099-.295-.219-.127-.33-.48-.26-.627.125-.158.417-1.099.997-1.52.937a.411.411 0 01-.35-.35c-.023-.168-.269-.524-.545-.791-.544-.528-.624-.788-.283-.919.403-.154.223-.383-.302-.383-.416 0-.51-.05-.471-.255.03-.16.21-.273.483-.304.239-.027.478-.12.53-.205.126-.202.952.129 1.134.454.072.13.18.186.238.128.059-.06-.006-.232-.144-.385-.185-.204-.205-.305-.077-.384.126-.078.108-.144-.064-.24-.411-.23-.273-.453.22-.354l.456.091-.383-.302c-.222-.174-.384-.447-.384-.646 0-.19-.066-.385-.145-.434-.25-.154-.16-.533.143-.612.16-.042.256-.13.216-.195-.158-.256.277-.313.462-.06.188.257.197.255.197-.033 0-.507.339-.655 1.721-.75.194-.013.449.111.592.288zm4.57 4.179c-.257-.214-.244-.361.06-.695.348-.38.426-.367.541.091.12.478-.274.875-.6.604zM6.383 9.834c-.232.077-.593-.078-.593-.255 0-.092.141-.082.38.026.209.096.305.198.213.23z" fill="#fff"/>
        <path d="M12.958 11.798c.11.288-.057.988-.254 1.063-.096.037-.365-.006-.6-.095l-.424-.162.4-.292c.22-.161.4-.385.4-.498 0-.26.38-.272.478-.016zM13.543 11.28c.23.674.19.745-.216.378-.162-.147-.266-.442-.266-.757 0-.628.188-.48.482.38zM13.316 13.206c.26 0 .473.076.473.167 0 .221-1.719.069-1.944-.172-.129-.138-.036-.157.417-.087.32.05.794.09 1.054.092z" fill="#fff"/>
    </svg>