<svg width="24" height="24" fill="none" viewBox="-2 -2 24 24" id="atom" x="192" y="268" xmlns="http://www.w3.org/2000/svg">
        <path d="M10 20c5.523 0 10-4.477 10-10S15.523 0 10 0 0 4.477 0 10s4.477 10 10 10z" fill="#1B1E36"/>
        <path d="M10.02 1.276c-1.079 0-1.954 3.915-1.954 8.745 0 4.83.875 8.745 1.955 8.745 1.079 0 1.954-3.916 1.954-8.745 0-4.83-.875-8.745-1.954-8.745zm.136 16.996c-.124.165-.247.041-.247.041-.497-.576-.746-1.646-.746-1.646-.87-2.798-.663-8.806-.663-8.806.41-4.77 1.152-5.897 1.405-6.147a.154.154 0 01.198-.016c.367.26.675 1.347.675 1.347.91 3.375.827 6.544.827 6.544.082 2.757-.456 5.843-.456 5.843-.414 2.346-.993 2.84-.993 2.84z" fill="#fff"/>
        <path d="M17.606 5.669c-.538-.937-4.369.252-8.56 2.656-4.192 2.403-7.148 5.11-6.61 6.047.536.936 4.368-.252 8.56-2.656 4.19-2.403 7.147-5.111 6.61-6.047zM2.93 14.244c-.206-.026-.16-.195-.16-.195.253-.718 1.056-1.466 1.056-1.466 1.996-2.147 7.31-4.957 7.31-4.957 4.34-2.02 5.689-1.935 6.031-1.84a.154.154 0 01.112.164c-.041.448-.833 1.256-.833 1.256-2.473 2.469-5.263 3.975-5.263 3.975-2.35 1.444-5.295 2.512-5.295 2.512-2.241.808-2.958.55-2.958.55z" fill="#fff"/>
        <path d="M17.587 14.403c.541-.934-2.408-3.654-6.584-6.075-4.177-2.422-8.008-3.626-8.549-2.69-.54.936 2.408 3.654 6.587 6.076 4.179 2.421 8.005 3.625 8.546 2.69zM2.813 6c-.08-.19.09-.236.09-.236.747-.14 1.797.181 1.797.181 2.857.65 7.952 3.842 7.952 3.842 3.923 2.745 4.524 3.954 4.614 4.297a.154.154 0 01-.085.18c-.41.187-1.505-.092-1.505-.092C12.3 13.266 9.6 11.607 9.6 11.607c-2.426-1.309-4.825-3.323-4.825-3.323-1.823-1.535-1.96-2.283-1.96-2.283v-.002z" fill="#fff"/>
        <path d="M10 11.029a1.029 1.029 0 100-2.058 1.029 1.029 0 000 2.058zM14.218 6.667c.33 0 .597-.277.597-.618a.607.607 0 00-.597-.617.607.607 0 00-.597.617c0 .341.268.618.597.618zM4.424 8.765c.33 0 .597-.276.597-.617a.607.607 0 00-.597-.617.607.607 0 00-.597.617c0 .341.267.617.597.617zM8.786 16.337c.33 0 .597-.276.597-.617a.607.607 0 00-.597-.617.607.607 0 00-.597.617c0 .341.267.617.597.617z" fill="#fff"/>
    </svg>