<svg width="25" height="24" fill="none" viewBox="-2 -2 25 24" id="aud" x="50" y="50" xmlns="http://www.w3.org/2000/svg">
        <g clip-path="url(#bhclip0)">
            <path d="M20.882 10c0 5.523-4.477 10-10 10-5.522 0-10-4.477-10-10 0 .002 10-9.999 10-10 5.523 0 10 4.477 10 10z" fill="#0064DC"/>
            <path d="M10.882 5.218V.001h-.001c-5.522 0-9.999 4.478-9.999 10H6.1V7.063l2.938 2.938h1.818l.026-.027V8.156L7.944 5.218h2.938z" fill="#F0F0F0"/>
            <path d="M5.941 1.304A10.048 10.048 0 002.187 5.06V10h2.608V3.913h6.087V1.304h-4.94z" fill="#D80027"/>
            <path d="M10.882 8.77L7.33 5.217H6.1L10.883 10V8.77z" fill="#D80027"/>
            <path d="M16.129 4.922l-.275-.574-.274.574-.62-.144.278.573-.498.395.62.14-.002.636.496-.398.497.398-.002-.636.62-.14-.498-.395.277-.573-.62.144zM13.301 7.826l.275.574.62-.143-.278.572.498.395-.62.14.002.636-.497-.398-.496.398.002-.636-.62-.14.498-.395-.278-.572.62.143.274-.574zM7.462 12.887l-.549-1.148-.548 1.148-1.24-.287.555 1.145-.996.79 1.24.28-.003 1.272.992-.796.993.796-.004-1.272 1.241-.28-.996-.79.555-1.145-1.24.287zM16.129 14.487l-.275-.574-.274.574-.62-.143.278.572-.498.395.62.14-.002.636.496-.398.497.398-.002-.636.62-.14-.498-.395.277-.572-.62.143zM18.084 6.957l.274.573.62-.143-.277.572.498.396-.62.14.001.635-.496-.397-.496.397.002-.636-.62-.14.498-.395-.278-.572.62.143.274-.573zM16.706 10.664L16.49 10l-.216.664h-.699l.566.41-.216.665.565-.41.565.41-.216-.664.565-.41h-.698z" fill="#F0F0F0"/>
        </g>
        <defs>
            <clipPath id="bhclip0">
                <path fill="#fff" transform="translate(.882)" d="M0 0h20v20H0z"/>
            </clipPath>
        </defs>
    </svg>