<svg width="24" height="24" fill="none" viewBox="-2 -2 24 24" id="axn" x="302" y="72" xmlns="http://www.w3.org/2000/svg">
        <path d="M10 20c5.523 0 10-4.477 10-10S15.523 0 10 0 0 4.477 0 10s4.477 10 10 10z" fill="#fff"/>
        <path d="M8.293 1.886l-2.545.318c.477.053.954.106 1.378.16.22.018.433.042.645.067.4.046.794.091 1.21.091.372.053.743.106 1.114.106.371 0 .69-.053 1.007-.106.319-.026.637-.066.955-.106.318-.04.636-.08.954-.106.477-.053.954-.106 1.484-.159-.384-.03-.736-.075-1.073-.12-.267-.034-.524-.068-.782-.092-.365-.028-.714-.07-1.057-.113-.305-.037-.605-.074-.905-.099-.106 0-.225-.013-.344-.026a3.259 3.259 0 00-.345-.027c-.292.027-.57.066-.848.106-.279.04-.557.08-.848.106zM10.095 3.795h2.333c.159 0 .318.053.424.212.106.159.106.265 0 .477-.37.53-.742 1.047-1.113 1.564-.371.516-.743 1.034-1.114 1.564-.053.08-.119.159-.185.238-.066.08-.133.16-.186.24-.159.211-.159.211-.318 0a11.783 11.783 0 01-.318-.425c-.106-.146-.212-.292-.318-.424-.318-.45-.65-.901-.98-1.352-.332-.45-.663-.901-.982-1.352-.106-.159-.159-.265-.053-.424.106-.16.213-.265.425-.265h1.696c.265-.053.477-.053.69-.053zM2.858 9.97a5.712 5.712 0 01-.026.08 6 6 0 01.053.171c.036.118.071.236.106.307.318.556.65 1.126.981 1.696.332.57.663 1.14.981 1.697.212.37.583.424.848.053l2.545-3.5c.265-.317.265-.635 0-1.007A79.732 79.732 0 017.1 7.771c-.41-.57-.822-1.14-1.246-1.697-.265-.37-.636-.37-.795.053-.188.318-.375.632-.562.944-.499.833-.99 1.654-1.453 2.502-.088.09-.14.253-.186.397zM12.693 16.306a.423.423 0 00.265-.636c-.212-.291-.437-.596-.662-.901-.226-.305-.451-.61-.663-.901L10.2 11.959c-.106-.159-.159-.159-.265 0-.45.61-.9 1.232-1.351 1.855-.45.623-.902 1.247-1.352 1.856a.967.967 0 01-.032.057c-.053.089-.109.184-.021.314.053.16.159.265.37.265h5.143z" fill="#4C598E"/>
        <path d="M.5 10.157c1.219 1.908 2.438 3.764 3.658 5.62 0-.054 0-.107-.053-.16L1.56 10.21a.338.338 0 010-.318c.291-.637.596-1.273.901-1.909.305-.636.61-1.272.901-1.909.21-.385.397-.77.592-1.17.1-.206.202-.416.31-.632-.053 0-.053.053-.053.053a207.266 207.266 0 00-2.675 4.034L.499 9.945a.161.161 0 000 .212zM15.82 15.723l.025-.052c.009 0 .014.001.015.004.003.006-.01.02-.04.048zM15.905 15.542l-.084.128h.024l.06-.128zM15.905 15.542l3.574-5.438c.092-.092.064-.145.02-.226l-.02-.04c-.61-.9-1.206-1.815-1.802-2.73-.597-.914-1.193-1.829-1.803-2.73-.033 0-.045-.02-.063-.048a.3.3 0 00-.043-.058c0 .026.013.04.026.053.014.013.027.026.027.053.424.901.861 1.816 1.299 2.73.437.915.874 1.83 1.299 2.73.053.16.053.266 0 .372-.265.556-.53 1.126-.796 1.696-.265.57-.53 1.14-.795 1.697-.159.344-.331.702-.503 1.06-.143.296-.285.591-.42.879zM5.801 17.897c.424-.053.835-.106 1.246-.16l1.246-.158c.313-.029.627-.073.932-.115.263-.037.52-.073.764-.097.106 0 .226.013.345.026.12.014.239.027.345.027.37.053.755.092 1.14.132.384.04.768.08 1.14.133.476.053.954.106 1.537.159-.53.053-1.008.106-1.485.159-.352.05-.704.088-1.05.126-.384.042-.761.083-1.123.139-.584.106-1.22.053-1.803-.053a25.64 25.64 0 00-1.06-.133c-.358-.04-.716-.08-1.06-.132-.425.053-.796 0-1.114-.053z" fill="#4C598E"/>
        <path d="M17.28 9.97l.025.08c-.017.054-.03.112-.041.171-.023.118-.047.236-.118.307-.318.556-.65 1.126-.98 1.696-.332.57-.663 1.14-.981 1.697-.212.37-.584.424-.849.053l-2.544-3.5c-.265-.317-.265-.635 0-1.007.424-.556.835-1.126 1.245-1.696.411-.57.822-1.14 1.246-1.697.266-.37.637-.37.796.053.187.318.375.632.562.944.498.833.99 1.654 1.452 2.502.089.09.14.253.186.397z" fill="#4C598E"/>
    </svg>