<svg width="24" height="24" fill="none" viewBox="-2 -2 24 24" id="axs" x="302" y="96" xmlns="http://www.w3.org/2000/svg">
        <path d="M10 20c5.523 0 10-4.477 10-10S15.523 0 10 0 0 4.477 0 10s4.477 10 10 10z" fill="url(#bppaint0_linear)"/>
        <path d="M3.542 5.739c.48-.2 2.207.682 3.011 1.148.655.447 1.83 1.264 2.325 1.613.495.349-.023.624-.223.848-.2.224-.307.283-.542.082-.236-.2-.283-.27-.53-.47-.248-.201-.389.058-.636.317-.248.26-1.178 1.096-1.46 1.425-.283.33-.43-.011-.43-.33 0-.317-.077-.4.24-.741.319-.342.884-.954 1.04-1.131.156-.177.216-.233 0-.35-.216-.116-.482-.282-.749-.415-.266-.133-.731-.482-.998.682-.266 1.165.15 3.76.466 4.358.315.598.664.368 1.49-.178l.007-.005c.832-.548 5.806-5.223 7.32-6.57 1.514-1.348 2.013-1.78 2.495-.15.483 1.63.632 6.305.55 7.27-.084.964-.034 1.63-1.93.848-1.897-.782-3.128-1.913-3.61-2.213-.483-.3-.616-.282-.167-.815.45-.532.632-.183.815-.083.183.1.832.699 1.847 1.298 1.015.598 1.364.482 1.53-.4.167-.881.05-3.377-.415-4.408-.466-1.031-1.248-.183-5.041 3.41-3.793 3.594-5.107 4.508-5.756 4.392-.649-.116-.848-2.18-1.015-4.392-.166-2.212-.233-4.79.366-5.04z" fill="#fff"/>
        <defs>
            <linearGradient id="bppaint0_linear" x1="11.012" y1="0" x2="8.7" y2="20" gradientUnits="userSpaceOnUse">
                <stop offset=".042" stop-color="#73FBFD"/>
                <stop offset=".281" stop-color="#43A0F0"/>
                <stop offset="1" stop-color="#3459DF"/>
            </linearGradient>
        </defs>
    </svg>