<svg width="25" height="24" fill="none" viewBox="-2 -2 25 24" id="azn" x="79" xmlns="http://www.w3.org/2000/svg">
        <g clip-path="url(#bqclip0)">
            <path d="M20.5 10c0-1.223-.22-2.395-.622-3.478L10.5 6.087l-9.378.435A9.979 9.979 0 00.5 10c0 1.223.22 2.395.622 3.478l9.378.435 9.378-.435A9.978 9.978 0 0020.5 10z" fill="#D80027"/>
            <path d="M10.5 20c4.3 0 7.965-2.714 9.378-6.522H1.122C2.535 17.286 6.2 20 10.5 20z" fill="#6DA544"/>
            <path d="M1.122 6.522h18.756a10.004 10.004 0 00-18.756 0z" fill="#338AF3"/>
            <path d="M10.717 12.826a2.826 2.826 0 111.345-5.312 3.478 3.478 0 100 4.973c-.4.216-.858.34-1.345.34z" fill="#F0F0F0"/>
            <path d="M12.891 8.043l.374 1.053 1.01-.48-.48 1.01 1.053.374-1.053.374.48 1.01-1.01-.48-.374 1.053-.374-1.053-1.01.48.48-1.01L10.935 10l1.052-.374-.48-1.01 1.01.48.374-1.053z" fill="#F0F0F0"/>
        </g>
        <defs>
            <clipPath id="bqclip0">
                <path fill="#fff" transform="translate(.5)" d="M0 0h20v20H0z"/>
            </clipPath>
        </defs>
    </svg>