<svg width="24" height="24" fill="none" viewBox="-2 -2 24 24" id="babydoge" x="302" y="120" xmlns="http://www.w3.org/2000/svg">
        <path d="M4.292.925a.819.819 0 00-.16-.106C3.967.727 3.952.724 3.91.777c-.041.052-.227.458-.227.495a.244.244 0 01-.029.084c-.016.03-.06.195-.096.367-.038.172-.081.362-.097.422-.1.385-.135 1.696-.064 2.393.059.568.064.576.205.296.065-.129.149-.283.186-.343a.71.71 0 01.05-.12c.012-.059.014-.136.012-.271a5.767 5.767 0 00-.026-.462c-.015-.126-.01-.196.017-.228.028-.034.033-.13.017-.358-.016-.228-.01-.33.018-.382a.599.599 0 00.046-.212c.01-.217.037-.403.063-.446A.204.204 0 004 1.902c-.005-.04.004-.09.02-.11.016-.02.04-.1.051-.177a.57.57 0 01.047-.172.479.479 0 00.05-.126l.03-.11c.003-.008.028-.07.057-.136.03-.066.046-.132.037-.146zM16.646 1.304a3.678 3.678 0 00-.15-.367c-.052-.11-.11-.197-.13-.196-.041.004-.257.13-.307.18-.033.032.007.17.104.357a.82.82 0 01.049.197c.01.077.03.148.046.157.015.01.027.057.027.107 0 .05.013.098.03.109.016.01.03.056.03.103 0 .122.034.358.058.413.023.052.031.176.05.728.007.203.03.41.051.462.03.073.03.102 0 .139-.025.03-.04.158-.04.352l-.002.305.19.358.054.101c.064.123.101.195.128.19.036-.005.052-.158.088-.525l.021-.218c.04-.384.02-1.503-.03-1.751a10.545 10.545 0 01-.064-.36c-.05-.319-.095-.541-.123-.61a5.024 5.024 0 01-.08-.231z" fill="#DF6C00"/>
        <path d="M4.292.925c.009.014-.008.08-.037.146a3.063 3.063 0 00-.057.136l-.03.11a.479.479 0 01-.05.126.57.57 0 00-.047.172.547.547 0 01-.05.177c-.017.02-.026.07-.02.11a.204.204 0 01-.016.11c-.026.043-.053.229-.063.446a.599.599 0 01-.046.212c-.029.052-.034.154-.018.382.016.228.011.324-.017.358-.027.032-.032.102-.017.228.012.099.023.307.026.462.002.135 0 .212-.012.271.251-.486 1.17-1.336 1.673-1.801.2-.186.335-.31.335-.326 0-.309-1.03-1.004-1.554-1.319zM16.462 4.35l.002-.305c0-.194.015-.323.04-.352.03-.037.03-.066 0-.14-.021-.05-.044-.258-.051-.46-.019-.553-.027-.677-.05-.729a1.769 1.769 0 01-.058-.413c0-.047-.014-.093-.03-.103-.017-.01-.03-.06-.03-.11 0-.049-.012-.097-.027-.106-.015-.009-.036-.08-.046-.157a.819.819 0 00-.049-.197c-.097-.188-.137-.325-.104-.358-.524.316-1.554 1.01-1.554 1.319 0 .016.126.13.315.3.518.467 1.505 1.358 1.642 1.81z" fill="#C64F00"/>
        <path fill-rule="evenodd" clip-rule="evenodd" d="M4.816.524c.433.148 1.009.5 1.58.968.547.446.573.466.634.466.033 0 .155-.044.271-.097a6.696 6.696 0 011.729-.53c.56-.099 1.684-.1 2.245-.001a6.67 6.67 0 011.691.507c.145.067.295.12.334.12.043 0 .173-.087.33-.223.69-.595 1.433-1.069 1.931-1.232.249-.081.298-.047.114.078-.61.415-1.105.875-1.478 1.372-.29.386-.286.403.198.778.333.259.948.892 1.225 1.263a7.418 7.418 0 011.395 3.202c.12.704.145 1.173.082 1.568l-.064.41c-.063.4-.283.94-.541 1.328-.664 1-1.962 1.737-3.679 2.09-.65.134-1.847.247-2.627.248-.573 0-1.531-.062-1.953-.128-1.053-.163-1.703-.337-2.407-.642-1.274-.553-2.157-1.474-2.453-2.56a9.375 9.375 0 00-.1-.344c-.017-.051-.04-.36-.05-.687-.018-.578.025-1.13.115-1.486.297-1.176.57-1.826 1.113-2.642.425-.64.93-1.186 1.569-1.695.301-.24.355-.324.287-.452-.21-.398-1.093-1.265-1.64-1.61-.235-.15-.17-.179.15-.07zm.748 5.588c.141-.302.42-.528.725-.588.071-.014.173-.027.225-.03.142-.004.436.08.57.165.424.267.617.853.403 1.219-.157.267-.494.42-.993.45-.497.028-.79-.088-.941-.374-.108-.203-.102-.601.01-.842zm7.194.34a1.04 1.04 0 01.835-.93 1.54 1.54 0 01.33-.01c.53.044.923.489.923 1.045 0 .34-.116.548-.39.696-.11.06-.173.067-.517.065-.338-.002-.422-.013-.622-.084-.407-.145-.59-.4-.559-.781zm-3.8 1.177c-.063-.337.254-.64.778-.744.44-.087.868-.043 1.224.126.298.142.384.261.384.532 0 .396-.307.814-.735 1-.132.058-.202.106-.196.135.01.057.396.27.6.331a.434.434 0 00.272.015c.158-.043.43-.297.541-.505.168-.313.272-.371.436-.242.112.087.105.18-.03.438a1.745 1.745 0 01-.58.629.77.77 0 00-.152.107c0 .008-.022.12-.049.251-.186.902-.9 1.502-1.56 1.31-.24-.07-.373-.158-.586-.388-.257-.278-.387-.56-.507-1.106-.012-.055-.079-.13-.186-.208a1.78 1.78 0 01-.539-.64c-.109-.213-.113-.232-.072-.318.054-.114.183-.165.29-.117.043.02.12.116.175.22.2.375.449.58.705.58.139 0 .523-.162.67-.282.084-.07.072-.166-.02-.166-.094 0-.36-.172-.52-.333-.15-.153-.31-.443-.344-.625z" fill="#FDFDFD"/>
        <path d="M4.5 9.487c-.82.051-1.41-.534-1.603-.833V7.372l.257-1.09.384-.961.577-.962.641-.897 1.026-.898.192-.256-.769-.962-.833-.64L4.115.32h.641l.706.256.64.385.513.512.385.257.833-.257.77-.256.64-.128h1.796l.64.128.77.256.833.257.385-.257.513-.512.64-.385.706-.256h.64l-.256.384-.833.641-.77.962.193.256 1.026.898.64.897.578.962.384.961.257 1.09v1.282c-.193.299-.782.884-1.603.833-2.692-.168-3.14-3.205-5.64-3.205-2.5 0-2.95 3.037-5.642 3.205z" fill="#FDA624"/>
        <path d="M4.82.32h-.64c.812.556 2.525 1.718 2.884 1.924.449.256.449-.76 3.141-.706 2.693-.054 2.693.962 3.141.706.36-.206 2.073-1.368 2.885-1.923h-.641l-.705.256-.641.385-.513.512-.385.257-.833-.257-.77-.256-.64-.128H9.308l-.641.128-.77.256-.833.257-.384-.257-.513-.512-.641-.385L4.82.32z" fill="#FBCA5F"/>
        <path d="M10.013 12.18c-4.154 0-6.389-1.86-6.987-2.821.192 1.24 1.859 3.782 6.987 3.782 6.539 0 6.966-2.5 7.244-3.782-.684.919-2.116 2.82-7.244 2.82z" fill="#DEDEDE"/>
        <path d="M10.624 9.96c.258.07.261.11.022.37-.248.269-.49.33-.757.194-.158-.081-.434-.38-.413-.447.006-.02.102-.067.213-.105.164-.056.256-.067.498-.06.164.005.36.027.437.048z" fill="#FB877E"/>
        <path d="M6.819 5.9c.098.045.179.186.179.31 0 .152-.174.313-.337.313-.24 0-.4-.23-.31-.446.08-.19.277-.264.468-.177zM13.826 5.901c.199.091.225.393.047.542a.322.322 0 01-.525-.16c-.079-.284.201-.507.478-.382z" fill="#F8F8F8"/>
        <ellipse cx="7.257" cy="4.487" rx=".769" ry=".641" fill="#FDFDFC"/>
        <ellipse cx="13.026" cy="4.487" rx=".769" ry=".641" fill="#FDFDFC"/>
        <path d="M2.792 13.082c.285.76.855 1.394 1.626 1.811.169.092.285.175.292.209.02.11-.025.193-.138.254a1.546 1.546 0 00-.291.255c-.178.194-.27.377-.4.801-.03.1-.07.18-.089.18-.1 0-.608-.478-.812-.766a2.911 2.911 0 01-.537-1.58c-.02-.38.015-.707.094-.88.026-.058.073-.178.104-.268.03-.09.065-.165.076-.165.01 0 .045.067.075.149z" fill="#EF8100"/>
        <path d="M4.244 16.09c-1.077-.462-1.667-1.923-1.731-2.885l-.193.449-.064.77.129.704.512.962 1.09.833c.192 0 .32-.806.257-.833z" fill="#DEDEDE"/>
        <path d="M10.462 13.489c.007.143-.002.196-.031.197-.183.011-.525.002-.553-.015-.034-.022-.043-.233-.014-.34.013-.05.049-.055.302-.047l.287.009.01.196z" fill="#C4C5C4"/>
        <path d="M14.822 13.3c.072.083.168.284.249.527.065.194.072.274.072.764 0 .572-.01.65-.177 1.25-.323 1.17-1.222 2.948-1.708 3.38-.26.232-.43.29-.895.304-.43.014-.578-.011-.718-.121-.18-.142-.186-.18-.198-1.217-.015-1.468-.028-1.662-.109-1.73-.088-.073-.208-.056-.28.041-.054.073-.058.169-.066 1.33l-.008 1.25H9.342l-.018-1.267c-.02-1.391-.022-1.407-.2-1.407-.15 0-.218.095-.222.305l-.025 1.321c-.02 1.1-.023 1.146-.089 1.251-.129.208-.214.235-.743.234-.445 0-.478-.005-.654-.087-.289-.134-.425-.267-.717-.705-.573-.856-1.226-2.354-1.406-3.225-.1-.487-.11-.556-.113-.892-.005-.45.071-.808.244-1.141.054-.106.112-.175.15-.181.032-.005.165.046.293.113.63.33 2.05.71 2.891.772.138.01.283.026.324.034.083.017.082.034-.025.338a1.21 1.21 0 00-.064.323c0 .328.215.75.48.94.248.178.413.233.71.234.244.001.287-.008.505-.113a1.16 1.16 0 00.579-.58c.076-.155.086-.212.086-.473 0-.246-.013-.326-.075-.464-.058-.127-.066-.173-.037-.19.022-.014.175-.034.341-.045.167-.012.373-.034.46-.05.511-.096.725-.142 1.047-.225.38-.098.425-.112.922-.29.306-.11.695-.292.724-.338.024-.038.06-.028.112.03z" fill="#FDA624"/>
        <path d="M5.654 14.68c0-.616.128-1.112.192-1.283l-.32-.32-.321.128-.192.385-.193.449v.64l.064.898.129.513.256.513.256.705.577 1.09.513.833.513.448.77.129c.298-.043.756-.128.192-.128-.706 0-2.436-4.231-2.436-5zM14.64 14.68c0-.616-.129-1.112-.193-1.283l.32-.32.321.128.192.385.193.449v.64l-.064.898-.129.513-.256.513-.256.705-.577 1.09-.513.833-.513.448-.78.129c-.3-.043-.757-.128-.193-.128.705 0 2.447-4.231 2.447-5z" fill="#EF8200"/>
        <path d="M7.897 18.718c-.82-.051-1.111.235-1.154.385l.257.384.512.193.513.064h.32l.321-.129.32-.192v-.32c-.02-.107-.268-.334-1.089-.385z" fill="#FDFCFB"/>
        <path fill-rule="evenodd" clip-rule="evenodd" d="M8.09 19.68c-.21 0-.511-.375-.83-.922-.345.079-.488.243-.517.345l-.055.192.44.384.77.129c.298-.043.756-.128.192-.128z" fill="#DBDBDB"/>
        <path d="M12.577 18.718c-.82-.051-1.111.235-1.154.385l.192.384.577.193.513.064h.32l.32-.129.321-.192v-.32c-.02-.107-.269-.334-1.09-.385z" fill="#FDFCFB"/>
        <path fill-rule="evenodd" clip-rule="evenodd" d="M12.192 19.68c.209 0 .508-.37.825-.91.474.088.633.248.65.333l.01.128-.512.448-.78.129c-.3-.043-.757-.128-.193-.128z" fill="#DBDBDB"/>
        <path d="M9.064 17.244C8.038 16.667 6.051 15 6.244 13.59l.576.064.45.128.512.128.897.129h2.949l.897-.129.513-.128.45-.128.576-.064c.192 1.41-2.115 3.392-2.564 3.654a2.371 2.371 0 01-2.436 0z" fill="#FDFDFD"/>
        <path d="M9.243 16.603c0-.642-.769-1.924-1.474-2.565h4.872c-.705.642-1.475 1.923-1.475 2.565 0 .64 0 1.858-.961 1.858-.962 0-.962-1.217-.962-1.858z" fill="#DEDEDE"/>
        <path d="M10.508 14.184c.052 0 .282.238.338.349.075.147.082.479.012.645-.15.361-.623.545-.987.384-.279-.123-.438-.357-.458-.674-.011-.16 0-.213.077-.36.163-.309.54-.48.854-.386.077.023.151.042.164.042z" fill="#FDFDFD"/>
        <circle cx="9.949" cy="14.872" fill="#F8E036" r=".769"/>
        <path fill-rule="evenodd" clip-rule="evenodd" d="M4.066.016c-.507.13-.914.95-1.123 2.26-.071.447-.081 1.973-.016 2.418.045.31.145.816.193.986a.742.742 0 01-.027.49c-.09.228-.185.648-.257 1.126-.056.366-.063.527-.05 1.072.02.842.103 1.23.396 1.863.364.787 1.07 1.51 1.947 1.997l.211.117v.193c0 .182-.009.206-.152.403-.282.386-.412.73-.47 1.24-.015.143-.042.273-.058.29-.048.048-.568-.321-.803-.57a3.007 3.007 0 01-.785-1.525c-.027-.131-.072-.264-.1-.294-.068-.076-.208-.07-.302.015-.123.111-.377.589-.482.906-.347 1.052-.212 2.095.392 3.022.163.25.704.784.966.953l.223.144.022.18c.025.215.144.704.238.983.17.501.47.901.797 1.067.327.166.45.186 1.218.202l.719.015.195.122c.184.115.403.197.736.275.422.098 1.02-.022 1.3-.262l.166-.141h1.01c.987 0 1.01 0 1.068.066.142.157.325.249.628.313.547.116 1.163.005 1.531-.276l.115-.088.722-.021c.965-.028 1.227-.102 1.576-.442.213-.208.362-.474.507-.909.179-.539.23-.845.208-1.27-.036-.707-.313-1.269-.77-1.563l-.157-.1.02-.479c.02-.508-.01-.813-.116-1.143a2.413 2.413 0 00-.379-.725c-.121-.145-.123-.151-.114-.373l.01-.225.26-.15c1.172-.673 1.928-1.672 2.174-2.872.195-.955.108-2.145-.234-3.184a.777.777 0 01-.05-.265c.201-.904.304-1.691.304-2.333 0-.71-.148-1.742-.33-2.301-.187-.576-.463-1-.745-1.15-.188-.098-.639-.097-.942.003-.535.176-1.223.589-1.857 1.113-.178.148-.342.269-.364.269-.02 0-.121-.037-.222-.083-.455-.203-1.186-.407-1.794-.5-.511-.08-1.635-.08-2.11 0-.669.11-1.171.247-1.702.462a3.35 3.35 0 01-.321.12c-.015 0-.171-.116-.347-.258C5.799.437 5.017.035 4.418.003a1.632 1.632 0 00-.352.013zm.75.508c.433.148 1.009.5 1.58.968.547.446.573.466.634.466.033 0 .155-.044.272-.097a6.696 6.696 0 011.728-.53c.56-.099 1.684-.1 2.245-.001a6.67 6.67 0 011.692.507c.144.067.294.12.333.12.043 0 .173-.087.33-.223.69-.595 1.433-1.069 1.931-1.232.25-.081.298-.047.114.078-.61.415-1.104.875-1.478 1.372-.29.386-.286.403.198.778.333.259.948.892 1.225 1.263a7.42 7.42 0 011.396 3.202c.12.704.144 1.173.082 1.568l-.065.41c-.063.4-.283.94-.54 1.328-.664 1-1.963 1.737-3.68 2.09-.65.134-1.847.247-2.627.248-.573 0-1.53-.062-1.953-.128-1.053-.163-1.703-.337-2.407-.642-1.274-.553-2.157-1.474-2.453-2.56a9.39 9.39 0 00-.1-.344c-.017-.051-.04-.36-.05-.687-.018-.578.025-1.13.115-1.486.297-1.176.57-1.826 1.113-2.642.425-.64.93-1.186 1.569-1.695.302-.24.355-.324.287-.452-.21-.398-1.093-1.265-1.64-1.61-.235-.15-.17-.179.15-.07zm-.684.295c.08.044.152.092.16.106.524.315 1.554 1.01 1.554 1.319 0 .016-.134.14-.335.326-.503.465-1.422 1.315-1.673 1.801a.356.356 0 01-.05.12c-.037.06-.12.214-.186.343-.141.28-.146.272-.205-.296-.072-.697-.036-2.008.064-2.393.016-.06.06-.25.096-.422.038-.172.081-.337.097-.367a.244.244 0 00.029-.084c0-.037.186-.443.227-.495.042-.053.057-.05.222.042zm12.364.118c.053.109.12.274.15.367.03.093.066.197.08.232.028.068.072.29.123.61.018.111.046.273.064.36.05.247.07 1.366.03 1.75l-.021.218c-.037.367-.052.52-.088.526-.027.004-.064-.068-.128-.191l-.053-.101-.191-.358c-.137-.453-1.124-1.344-1.642-1.811-.189-.17-.315-.284-.315-.3 0-.309 1.03-1.003 1.554-1.319.05-.05.266-.175.308-.179.019-.001.077.087.13.196zM6.29 5.524c-.305.06-.584.286-.725.588-.113.241-.118.639-.011.842.151.286.444.402.941.373.499-.03.836-.182.993-.45.214-.365.02-.95-.402-1.218a1.343 1.343 0 00-.57-.164 1.763 1.763 0 00-.226.029zm7.304-.003a1.04 1.04 0 00-.835.932c-.03.381.152.636.559.78.2.072.284.083.622.085.344.002.406-.006.516-.065.275-.148.391-.355.391-.696 0-.556-.393-1-.923-1.046a1.54 1.54 0 00-.33.01zm-6.774.38c.098.044.179.185.179.31 0 .151-.174.312-.337.312-.24 0-.4-.23-.31-.446.08-.19.276-.264.468-.177zm7.006 0c.2.091.226.393.048.542a.321.321 0 01-.525-.16c-.079-.284.201-.507.477-.382zm-4.09.984c-.523.104-.84.407-.778.744.034.182.194.472.345.625.16.161.426.332.519.333.092 0 .104.096.02.166-.147.12-.531.282-.67.282-.256 0-.505-.205-.705-.58-.056-.104-.132-.2-.175-.22-.107-.048-.235.003-.29.117-.041.086-.037.105.072.317.137.266.31.47.54.64.107.08.173.154.185.209.12.546.25.828.507 1.106.213.23.346.318.586.388.66.192 1.374-.408 1.56-1.31.027-.13.05-.243.05-.251 0-.008.067-.056.15-.107.224-.138.453-.386.58-.63.136-.257.143-.35.031-.437-.164-.13-.268-.071-.435.242-.111.208-.384.462-.542.505a.434.434 0 01-.272-.015c-.204-.062-.59-.274-.6-.331-.006-.03.064-.077.196-.134.428-.187.735-.605.735-1.001 0-.27-.086-.39-.384-.532-.356-.17-.785-.213-1.224-.126zm.889 3.075c.258.07.26.11.022.37-.248.269-.49.33-.758.194-.157-.081-.433-.38-.412-.447.006-.02.102-.067.213-.105.164-.056.256-.067.498-.06.163.005.36.027.437.048zm-7.832 3.122c.285.76.855 1.394 1.625 1.811.17.092.286.175.292.209.022.11-.024.193-.137.254a1.547 1.547 0 00-.291.255c-.178.194-.27.377-.4.801-.03.1-.07.18-.089.18-.1 0-.608-.478-.813-.766a2.911 2.911 0 01-.536-1.58c-.02-.38.015-.707.094-.88.026-.058.073-.178.104-.268.03-.09.065-.165.076-.165.01 0 .044.067.075.149zm12.03.219c.072.082.167.283.249.526.065.194.072.274.072.764 0 .572-.01.65-.177 1.25-.323 1.17-1.222 2.948-1.708 3.38-.26.232-.43.29-.895.304-.43.014-.578-.011-.718-.121-.18-.142-.186-.18-.198-1.217-.015-1.468-.028-1.662-.109-1.73-.088-.073-.208-.056-.28.041-.054.073-.059.169-.066 1.33l-.008 1.25H9.342l-.018-1.267c-.02-1.391-.022-1.407-.2-1.407-.15 0-.218.095-.222.305l-.025 1.321c-.02 1.1-.023 1.146-.089 1.251-.129.208-.214.235-.743.234-.445 0-.478-.005-.654-.087-.289-.134-.425-.267-.717-.705-.573-.856-1.226-2.354-1.406-3.225-.1-.487-.11-.556-.113-.892-.005-.45.071-.808.244-1.141.054-.106.112-.175.149-.181.033-.005.166.046.294.113.63.33 2.05.71 2.891.772.138.01.283.026.324.034.083.017.082.034-.025.338a1.21 1.21 0 00-.065.323c0 .328.216.75.48.94.25.178.414.233.71.234.245.001.287-.008.506-.113a1.16 1.16 0 00.579-.58c.076-.155.086-.212.086-.473 0-.246-.013-.326-.075-.464-.058-.127-.066-.173-.037-.19.022-.014.175-.034.341-.045.167-.012.373-.034.46-.05.511-.096.725-.142 1.047-.225.38-.098.425-.112.922-.29.306-.11.695-.292.724-.338.024-.038.06-.028.112.03zm-4.36.188c.007.143-.001.196-.031.197-.183.011-.525.002-.553-.015-.034-.022-.043-.233-.014-.34.014-.05.049-.055.302-.047l.287.009.01.196zm.045.695c.052 0 .282.238.339.349.075.147.081.479.012.645-.151.361-.624.545-.988.384-.278-.123-.437-.357-.458-.674-.01-.16 0-.213.078-.36.162-.309.54-.48.853-.386.078.023.152.042.164.042zm-5.634 1.728c.215.802.861 2.26 1.283 2.897.085.127.154.243.154.258 0 .043-.812.03-.985-.016-.46-.123-.663-.354-.885-1.005-.257-.756-.258-1.302 0-1.825.097-.2.297-.442.363-.442.019 0 .05.06.07.133zm10.878.087c.152.192.243.43.308.802.053.304.04.472-.076.885-.257.928-.437 1.19-.919 1.343-.165.052-.287.064-.633.064-.236 0-.43-.006-.43-.014s.076-.131.167-.274c.178-.277.494-.869.613-1.15.04-.095.114-.262.165-.372.141-.31.294-.707.416-1.083.061-.189.118-.361.126-.383.022-.064.124.006.263.182z" fill="#301F1B"/>
        <path d="M4.873 15.912c.215.802.861 2.26 1.283 2.897.084.127.153.243.153.258 0 .043-.811.03-.985-.016-.46-.123-.663-.354-.884-1.005-.258-.756-.258-1.302 0-1.825.097-.2.296-.442.362-.442.02 0 .051.06.071.133zM15.75 15.999c.153.192.244.43.31.802.052.304.038.472-.077.885-.257.928-.437 1.19-.919 1.343-.165.052-.287.064-.633.064-.236 0-.43-.006-.43-.014s.076-.131.167-.274c.178-.277.493-.869.613-1.15.04-.095.114-.262.165-.372.141-.31.294-.707.416-1.083l.125-.383c.023-.064.125.006.264.182z" fill="#EF8100"/>
        <ellipse cx="10.141" cy="7.5" rx=".833" ry=".321" fill="#5B3B37"/>
        <path d="M5.718 12.82c0 .513 2.393.898 3.59 1.026v-.513s-1.667-.128-1.924-.192c-.256-.064-1.666-.513-1.666-.32zM14.564 12.82c0 .513-2.393.898-3.59 1.026v-.513s1.667-.128 1.923-.192c.257-.064 1.667-.513 1.667-.32z" fill="#B1151F"/>
    </svg>