<svg width="24" height="24" fill="none" viewBox="-2 -2 24 24" id="bal" x="302" y="168" xmlns="http://www.w3.org/2000/svg">
        <circle cx="10" cy="10" r="10" fill="#fff"/>
        <path d="M14.808 4.263c0 .866-2.108 1.57-4.708 1.57S5.39 5.128 5.39 4.262c0-.867 2.108-1.57 4.709-1.57 2.6 0 4.708.703 4.708 1.57zM16.57 8.384c0 1.191-2.897 2.157-6.47 2.157-3.574 0-6.471-.966-6.471-2.157s2.897-2.157 6.47-2.157c3.574 0 6.471.966 6.471 2.157zM18.125 13.57c0 1.477-3.593 2.675-8.025 2.675-4.433 0-8.026-1.198-8.026-2.675 0-1.478 3.593-2.675 8.026-2.675 4.432 0 8.025 1.197 8.025 2.675z" fill="#000"/>
    </svg>