<svg width="25" height="24" fill="none" viewBox="-2 -2 25 24" id="band" x="79" y="24" xmlns="http://www.w3.org/2000/svg">
        <g clip-path="url(#buclip0)">
            <path d="M10.507 20c5.523 0 10-4.477 10-10s-4.477-10-10-10-10 4.477-10 10 4.477 10 10 10z" fill="#516AFF"/>
            <path d="M12.251 7.275l1.756 1.031V3.32L10.532 1.48 5.09 4.55v10.863l5.443 3.106 5.394-3.169V9.956L10.72 6.831 9 7.7l5.169 3.087.044 3.694-3.682 2.1-3.73-2.137.024-9.007 3.681-2.056 1.725.944.02 2.95z" fill="#fff"/>
            <path d="M10.332 10.244l1.175-.625 1.332.787-3.894 2.175V8.125l1.387.806" fill="#fff"/>
        </g>
        <defs>
            <clipPath id="buclip0">
                <path fill="#fff" transform="translate(.507)" d="M0 0h20v20H0z"/>
            </clipPath>
        </defs>
    </svg>