<svg width="24" height="24" fill="none" viewBox="-2 -2 24 24" id="bcd" x="302" y="192" xmlns="http://www.w3.org/2000/svg">
        <circle cx="10" cy="10" r="10" fill="#FCC339"/>
        <path d="M12.254 11.133a1.511 1.511 0 00-.718-.792.742.742 0 00.445-.422.812.812 0 00.025-.42s-.025-.223-.099-.422c-.149-.322-.644-.619-1.337-.693V7.59h-.62v.793h-.47V7.59h-.644v.793H7.82v.52a.743.743 0 01.545.347c.1.148.1.272.124.347l.05 1.98c0 .249-.1.472-.298.595-.247.149-.495.075-.544.075v.57H8.81v.841h.669v-.743h.47l.025.743h.62v-.817h.594c.226.002.45-.058.644-.173.47-.322.619-1.016.42-1.536zM9.529 9.176h.793c.297 0 .545.223.545.52a.529.529 0 01-.52.546h-.818V9.175zm.991 2.923H9.58v-1.164h.941a.633.633 0 01.57.545c.025.322-.223.594-.57.619z" fill="#fff"/>
        <path d="M18.988 8.36a.353.353 0 00-.059-.125l-.005-.005v-.001l-2.66-3.668c-.01-.014-.02-.024-.026-.032l-.014-.015a.351.351 0 00-.038-.032l-.012-.01-.029-.016-2.526-1.41A.357.357 0 0013.446 3H6.875a.353.353 0 00-.157.037l-2.85 1.411a.368.368 0 00-.172.182L1.124 8.178a.381.381 0 00-.034.523l8.62 10.151c.024.032.051.06.083.082.023.016.043.025.057.032l.01.005a.392.392 0 00.087.024l.019.004h.066l.02-.005a.33.33 0 00.085-.023l.012-.005.005-.003a.368.368 0 00.135-.111L18.905 8.71l.027-.028.013-.027a.39.39 0 00.026-.05l.006-.016a.32.32 0 00.02-.083l.001-.007.002-.021v-.008a.351.351 0 00-.012-.108zm-.908-.05l-3.615 1.699-.957-3.61L15.86 5.25l2.22 3.06zM6.496 6.423l-.95 3.587L1.931 8.31l2.216-3.055 2.35 1.166zm6.5-.596H6.958L4.86 4.782l2.1-1.04h6.394l1.822 1.018-2.179 1.064zm-5.786.742h5.59l1.04 3.916L10 17.838l-3.832-7.342L7.21 6.568zM5.51 10.815l2.656 5.088-5.427-6.39 2.771 1.302zM17.26 9.513l-5.427 6.39 2.656-5.088 2.77-1.302z" fill="#fff"/>
    </svg>