<svg width="24" height="24" fill="none" viewBox="-2 -2 24 24" id="bch" x="302" y="216" xmlns="http://www.w3.org/2000/svg">
        <g clip-path="url(#byclip0)">
            <path d="M10 20c5.523 0 10-4.486 10-10.019S15.523-.038 10-.038 0 4.448 0 9.982C0 15.513 4.477 20 10 20z" fill="#0AC18E"/>
            <path d="M13.351 6.683c-.508-1.15-1.68-1.393-3.115-1.155l-.46-1.775-1.088.28.454 1.769c-.284.072-.578.132-.869.213l-.454-1.76-1.087.28.46 1.775C6.96 6.376 5 6.875 5 6.875l.3 1.155s.8-.222.79-.204c.442-.115.651.105.748.313l1.266 4.863c.015.141-.01.382-.315.463.018.01-.79.202-.79.202l.118 1.347s1.94-.493 2.195-.556l.466 1.795 1.087-.28-.466-1.807c.3-.07.59-.141.872-.214l.463 1.8 1.088-.28-.467-1.793c1.675-.403 2.856-1.453 2.614-3.056-.155-.966-1.218-1.76-2.102-1.85.545-.478.82-1.176.484-2.09zm-.523 4.232c.215 1.588-2.005 1.783-2.74 1.973l-.64-2.376c.74-.19 3.016-.996 3.38.403zM11.489 7.68c.23 1.411-1.671 1.576-2.283 1.733l-.581-2.157c.614-.153 2.398-.884 2.864.424z" fill="#fff"/>
        </g>
        <defs>
            <clipPath id="byclip0">
                <path fill="#fff" d="M0 0h20v20H0z"/>
            </clipPath>
        </defs>
    </svg>