<svg width="24" height="24" fill="none" viewBox="-2 -2 24 24" id="bcpt" x="302" y="240" xmlns="http://www.w3.org/2000/svg">
        <path d="M10 20c5.523 0 10-4.477 10-10S15.523 0 10 0 0 4.477 0 10s4.477 10 10 10z" fill="#EC9562"/>
        <path d="M7.026 9.763a2.994 2.994 0 014.769-2.411l2.642-3.578a7.442 7.442 0 10-4.764 13.423l.205-4.443a2.994 2.994 0 01-2.852-2.99z" fill="#fff"/>
        <path d="M12.114 7.874c.044.041.087.084.129.129l3.456-3.236a7.61 7.61 0 00-.341-.342l-3.244 3.449zM12.445 8.603c.034.05.066.101.097.154l4.082-2.399a7.564 7.564 0 00-.258-.409l-3.921 2.654zM10.284 12.744a2.96 2.96 0 00.871-.242l1.828 4.056a7.409 7.409 0 01-2.177.603l-.521-4.417zM12.995 12.598a3.577 3.577 0 01-.892.731l1.61 2.78a6.792 6.792 0 001.692-1.387l-2.41-2.124zM13.742 12.425c.227-.27.418-.574.565-.905l2.485 1.102a6.539 6.539 0 01-.967 1.55l-2.083-1.747z" fill="#fff"/>
    </svg>