<svg width="24" height="24" fill="none" viewBox="-2 -2 24 24" id="bear" y="292" xmlns="http://www.w3.org/2000/svg">
        <circle cx="10" cy="10" r="10" fill="url(#cbpaint0_linear)"/>
        <path d="M13.643 12.05a1.025 1.025 0 01-.52-.938 2.5 2.5 0 00.003-.234c-.024-.689-.334-1.338-.872-1.828a3.065 3.065 0 00-2-.784 3.07 3.07 0 00-2.128.768c-.572.512-.887 1.198-.887 1.93 0 .05.001.101.004.15.023.376-.177.735-.52.937-.89.522-1.408 1.448-1.353 2.416.038.667.346 1.296.868 1.77a3.066 3.066 0 002.07.786c.472 0 .938-.104 1.355-.302a1.224 1.224 0 011.04 0c.456.217.97.32 1.487.299a3.065 3.065 0 001.938-.782c.522-.475.83-1.104.868-1.77.055-.969-.463-1.895-1.353-2.417zM6.477 8.388c0-.21-.068-.599-.66-1.534a14.91 14.91 0 00-.619-.9.46.46 0 00-.368-.177.46.46 0 00-.368.177c-.013.017-.313.417-.619.9-.592.935-.66 1.323-.66 1.534 0 .832.739 1.51 1.647 1.51s1.647-.678 1.647-1.51zM16.523 6.854c-.306-.483-.607-.883-.62-.9a.46.46 0 00-.367-.177.46.46 0 00-.368.177c-.013.017-.314.417-.62.9-.591.935-.66 1.323-.66 1.534 0 .832.74 1.51 1.648 1.51.908 0 1.647-.678 1.647-1.51 0-.21-.069-.599-.66-1.534zM8.106 7.144c.909 0 1.648-.678 1.648-1.51 0-.21-.069-.599-.66-1.534a14.917 14.917 0 00-.62-.9.46.46 0 00-.368-.177.46.46 0 00-.368.177c-.012.017-.313.418-.618.9-.592.935-.66 1.323-.66 1.534 0 .832.738 1.51 1.646 1.51zM12.26 7.144c.907 0 1.646-.678 1.646-1.51 0-.21-.068-.599-.66-1.534a14.884 14.884 0 00-.619-.9.46.46 0 00-.368-.177.46.46 0 00-.368.177c-.013.017-.313.418-.619.9-.592.935-.66 1.323-.66 1.534 0 .832.739 1.51 1.647 1.51z" fill="#CF8E77"/>
        <defs>
            <linearGradient id="cbpaint0_linear" x1="10" y1="0" x2="10" y2="20" gradientUnits="userSpaceOnUse">
                <stop stop-color="#FE9C01"/>
                <stop offset="1" stop-color="#FEE793"/>
            </linearGradient>
        </defs>
    </svg>