<svg width="24" height="24" fill="none" viewBox="-2 -2 24 24" id="bee" x="24" y="292" xmlns="http://www.w3.org/2000/svg">
        <path fill-rule="evenodd" clip-rule="evenodd" d="M9.407.078c-.083.034-.827.453-1.653.931-.826.479-2.262 1.308-3.192 1.843-2.855 1.642-3.007 1.734-3.174 1.91-.394.418-.39.352-.388 5.256.002 4.268.01 4.562.138 4.836.075.16.231.378.347.483.117.105 1.402.873 2.857 1.707 1.455.833 3.19 1.83 3.858 2.213 1.106.636 1.251.7 1.659.726.546.036.235.19 4.035-1.989 4.604-2.64 4.512-2.582 4.753-2.956l.21-.327-.02-4.749-.02-4.749-.192-.286c-.158-.236-.515-.473-2.02-1.34C9.727-.379 10.442.006 9.97.011c-.226.003-.48.032-.563.066zm1.259 5.042c.585.105 1.4.502 1.84.895.199.177.476.522.617.766l.257.445 1.233.002c1.343.003 1.597.057 1.988.426.263.247.386.482.447.853.063.38-.109.942-.371 1.214l-.202.209.189.2c.558.594.536 1.446-.053 2.03-.396.394-.737.469-2.126.469h-1.054l-.239.42c-.319.56-.938 1.132-1.562 1.442-.28.14-.555.254-.609.254-.093 0-.133.11-.327.891-.1.403-.216.519-.518.519-.315 0-.435-.159-.573-.763l-.122-.533-.549-.185c-.302-.103-.697-.289-.88-.414-.454-.312-.994-.9-1.186-1.293l-.16-.327-1.408-.024-1.409-.024-.356-.218c-.785-.484-.94-1.616-.314-2.28l.157-.164-.157-.166c-.535-.565-.501-1.619.07-2.147.364-.337.628-.387 2.072-.387h1.355l.22-.386c.45-.793 1.566-1.574 2.457-1.721.55-.091.779-.092 1.273-.003zm-1.438.857a5.46 5.46 0 00-.628.25c-.488.253-1.282 1.204-1.282 1.536 0 .12.035.109.26-.088a3.69 3.69 0 01.635-.415c1.408-.708 3.035-.565 4.275.376.386.292.416.247.165-.244-.26-.508-.947-1.125-1.478-1.327-.601-.229-1.411-.265-1.947-.088zM3.96 7.957c-.665.402-.635 1.218.056 1.545.21.1.431.113 1.336.082l1.084-.038v-.638c0-.35.02-.74.046-.866l.046-.228H5.361c-1.026 0-1.194.018-1.4.143zm9.721.673c.023.454.055.866.07.917.041.132 1.793.125 2.111-.009.356-.149.511-.366.55-.767.032-.329.014-.38-.226-.639l-.26-.282-1.143-.023-1.143-.023.041.826zm-4.58-.565C8.54 8.2 7.83 8.57 7.44 8.93c-.33.304-.342.33-.342.73 0 .228.015.415.033.415.018 0 .244-.159.501-.352.692-.52 1.333-.754 2.185-.798 1.115-.057 2.058.252 2.805.92l.355.316V9.14l-.375-.297c-.97-.766-2.31-1.064-3.5-.778zm.343 2.011a4.04 4.04 0 00-2.045.987l-.282.252.07.383c.039.211.08.394.093.407.013.012.238-.124.501-.303.799-.543 1.193-.66 2.219-.665 1.063-.004 1.627.156 2.315.659.242.177.47.322.505.322.072 0 .156-.353.156-.66 0-.379-1.057-1.096-1.91-1.296-.515-.12-1.174-.155-1.622-.086zm-5.526.28c-.32.209-.416.386-.419.766-.002.307.031.387.248.602l.25.248H5.26c1.123 0 1.26-.013 1.22-.115-.025-.064-.045-.457-.045-.875v-.76H5.28c-.996 0-1.186.019-1.36.133zm9.776.723c-.02.471-.022.881-.005.912.058.104 1.92.061 2.19-.05.482-.2.693-.838.425-1.288-.214-.359-.481-.432-1.585-.432h-.99l-.035.858zM9.52 12.266a4.306 4.306 0 00-1.448.487c-.377.218-.35.313.202.716 1.205.878 2.844.78 3.86-.228.142-.14.241-.281.222-.313-.02-.032-.244-.157-.498-.28-.729-.35-1.605-.493-2.338-.382z" fill="#161616"/>
        <path fill-rule="evenodd" clip-rule="evenodd" d="M10.666 5.12c.585.105 1.4.502 1.84.895.199.177.476.522.617.766l.257.445 1.233.002c1.343.003 1.597.057 1.988.426.263.247.386.482.447.853.063.38-.109.942-.371 1.214l-.202.209.189.2c.558.594.536 1.446-.053 2.03-.396.394-.737.469-2.126.469h-1.054l-.239.42c-.319.56-.938 1.132-1.562 1.442-.28.14-.555.254-.609.254-.093 0-.133.11-.327.891-.1.403-.216.519-.518.519-.315 0-.435-.159-.573-.763l-.122-.533-.549-.185c-.302-.103-.697-.289-.88-.414-.454-.312-.994-.9-1.186-1.293l-.16-.327-1.408-.024-1.409-.024-.356-.218c-.785-.484-.94-1.616-.314-2.28l.157-.164-.157-.166c-.535-.565-.501-1.619.07-2.147.364-.337.628-.387 2.072-.387h1.355l.22-.386c.45-.793 1.566-1.574 2.457-1.721.55-.091.779-.092 1.273-.003zM8.6 6.227a5.46 5.46 0 01.628-.25c.536-.177 1.346-.14 1.947.088.531.202 1.219.82 1.478 1.327.25.491.22.536-.165.244-1.24-.941-2.867-1.084-4.275-.376a3.69 3.69 0 00-.635.415c-.225.197-.26.208-.26.088 0-.332.794-1.283 1.282-1.536zM4.016 9.502c-.691-.327-.721-1.143-.056-1.545.207-.125.375-.143 1.401-.143h1.167l-.046.228c-.025.125-.046.515-.046.866v.638l-1.084.038c-.905.03-1.125.017-1.336-.082zm9.735.045c-.015-.05-.047-.463-.07-.917l-.041-.826 1.143.023 1.144.023.26.282c.239.26.257.31.225.64-.039.4-.194.617-.55.766-.318.134-2.07.141-2.11.009zM7.44 8.93c.39-.361 1.1-.731 1.662-.866 1.19-.286 2.53.012 3.5.778l.375.297v1.022l-.355-.317c-.747-.667-1.69-.976-2.805-.919-.852.044-1.493.278-2.185.798-.257.193-.483.351-.5.351-.019 0-.034-.186-.034-.414 0-.4.013-.426.342-.73zm-.04 2.132a4.04 4.04 0 012.045-.987c.448-.07 1.107-.034 1.621.086.854.2 1.91.917 1.91 1.296 0 .307-.083.66-.155.66-.036 0-.263-.145-.505-.322-.688-.503-1.252-.663-2.315-.659-1.026.004-1.42.122-2.219.665-.263.18-.488.315-.501.303a2.703 2.703 0 01-.093-.407l-.07-.383.282-.252zm-3.9.06c.003-.381.1-.558.42-.768.174-.114.364-.133 1.36-.133h1.157v.76c0 .418.02.811.045.875.04.102-.097.115-1.22.115H3.997l-.25-.248c-.217-.215-.25-.295-.248-.602zm10.19.868c-.017-.03-.015-.44.005-.912l.035-.858h.99c1.104 0 1.371.073 1.585.432.268.45.057 1.087-.425 1.287-.27.112-2.132.155-2.19.05zm-5.617.762a4.306 4.306 0 011.448-.487c.733-.11 1.61.033 2.338.383.254.122.478.247.498.279.02.031-.08.172-.222.313-1.016 1.009-2.655 1.106-3.86.228-.552-.403-.579-.498-.202-.716z" fill="#161616"/>
        <path fill-rule="evenodd" clip-rule="evenodd" d="M9.469 1.173c-.074.03-.732.403-1.461.83l-2.82 1.64c-2.524 1.461-2.659 1.543-2.806 1.7-.349.372-.344.313-.343 4.678.002 3.798.01 4.06.122 4.304.066.143.204.337.307.43.103.094 1.239.777 2.524 1.52 1.286.741 2.82 1.628 3.41 1.969.977.566 1.106.623 1.466.647.482.032.207.168 3.566-1.771 4.069-2.35 3.987-2.298 4.2-2.631l.186-.291-.018-4.227-.017-4.227-.17-.255c-.14-.21-.456-.42-1.786-1.193C9.752.768 10.383 1.11 9.966 1.115c-.2.002-.424.028-.497.058zm1.112 4.488c.517.094 1.237.447 1.627.797.175.157.42.464.545.682l.226.396 1.09.001c1.187.003 1.411.05 1.757.38.232.22.34.429.395.759.055.338-.096.838-.328 1.08l-.178.186.167.179c.493.528.473 1.287-.047 1.807-.35.35-.652.417-1.879.417h-.932l-.21.373c-.282.499-.829 1.008-1.38 1.284-.25.124-.491.226-.539.226-.082 0-.118.098-.29.793-.088.359-.19.462-.457.462-.279 0-.384-.141-.506-.679l-.108-.474-.485-.166a3.862 3.862 0 01-.777-.367c-.402-.279-.88-.802-1.049-1.151l-.141-.292-1.245-.02-1.245-.022-.314-.195c-.694-.43-.832-1.438-.278-2.028l.138-.147L4 9.795c-.473-.504-.443-1.441.062-1.912.321-.3.555-.344 1.831-.344H7.09l.194-.343c.399-.706 1.384-1.401 2.172-1.533.486-.08.688-.081 1.125-.002zm-1.27.763a4.807 4.807 0 00-.556.223c-.43.225-1.133 1.071-1.133 1.366 0 .108.031.097.23-.077.126-.111.38-.278.562-.37 1.243-.63 2.681-.503 3.778.334.34.26.367.22.145-.217-.23-.451-.837-1-1.306-1.18-.532-.204-1.247-.237-1.72-.079zM4.655 8.186c-.588.358-.562 1.085.05 1.375.186.089.38.1 1.18.073l.958-.033v-.568c0-.313.018-.66.04-.771l.041-.203h-1.03c-.908 0-1.056.016-1.239.127zm8.59.599c.021.404.049.771.063.816.036.118 1.584.112 1.865-.007.314-.133.451-.326.486-.683.028-.293.012-.338-.2-.569l-.229-.25-1.01-.021-1.01-.021.036.735zm-4.047-.503c-.496.12-1.123.45-1.468.77-.291.272-.303.296-.303.651 0 .203.014.369.03.369.015 0 .215-.141.442-.313.612-.463 1.178-.671 1.931-.71.985-.05 1.818.224 2.479.818l.313.282v-.91l-.33-.264c-.857-.682-2.043-.948-3.094-.693zm.303 1.79a3.56 3.56 0 00-1.807.878l-.249.225.062.341c.034.188.07.35.082.362.01.011.21-.11.443-.27.705-.482 1.054-.588 1.96-.591.94-.004 1.438.139 2.046.586.214.158.415.287.447.287.064 0 .137-.315.137-.587 0-.338-.933-.976-1.688-1.154-.454-.107-1.036-.138-1.433-.076zm-4.883.249c-.283.186-.368.344-.37.683-.002.273.027.344.218.535l.221.221h1.118c.992 0 1.112-.011 1.077-.103-.021-.056-.039-.407-.039-.779v-.676H5.82c-.88 0-1.047.017-1.202.119zm8.639.644c-.018.42-.02.785-.005.811.052.094 1.697.056 1.936-.044.426-.178.612-.745.375-1.146-.188-.32-.425-.384-1.4-.384h-.875l-.031.763zm-3.688 1.057c-.46.07-.931.23-1.28.433-.333.194-.31.279.178.637 1.065.781 2.513.695 3.412-.203.125-.125.213-.25.195-.278-.017-.028-.215-.14-.44-.249-.644-.312-1.418-.439-2.065-.34z" fill="#414042"/>
        <mask id="cca" fill="#fff">
            <path fill-rule="evenodd" clip-rule="evenodd" d="M10.581 5.661c.517.094 1.237.447 1.627.797.175.157.42.464.545.682l.226.396 1.09.001c1.188.003 1.412.05 1.757.38.232.22.34.429.395.759.055.338-.096.838-.328 1.08l-.178.186.167.178c.493.53.473 1.288-.047 1.808-.35.35-.652.416-1.879.416h-.932l-.21.374c-.282.499-.829 1.008-1.38 1.284-.25.124-.491.226-.539.226-.082 0-.118.098-.29.793-.088.359-.19.462-.457.462-.279 0-.384-.141-.506-.679l-.108-.474-.485-.166a3.868 3.868 0 01-.777-.367c-.402-.279-.879-.802-1.049-1.152l-.141-.29-1.245-.022-1.245-.02-.314-.196c-.694-.43-.832-1.438-.278-2.028l.139-.147L4 9.795c-.473-.504-.443-1.441.062-1.912.322-.3.555-.344 1.831-.344h1.198l.193-.343c.399-.706 1.384-1.401 2.172-1.533.486-.08.689-.081 1.125-.002zm-1.825.985c.108-.056.358-.157.555-.222.473-.158 1.188-.125 1.72.078.47.18 1.077.73 1.306 1.181.222.437.195.477-.145.217-1.097-.837-2.535-.964-3.778-.334a3.259 3.259 0 00-.562.37c-.199.174-.23.185-.23.077 0-.295.702-1.141 1.134-1.367zM4.705 9.561c-.612-.29-.638-1.017-.05-1.375.183-.112.331-.127 1.239-.127h1.03l-.04.203c-.023.111-.04.458-.04.77v.569l-.959.033c-.8.028-.994.016-1.18-.073zm8.603.04a9.613 9.613 0 01-.062-.816l-.037-.735 1.01.02 1.011.021.23.251c.211.231.227.276.199.569-.034.357-.172.55-.486.683-.281.119-1.83.125-1.865.007zM7.73 9.053c.345-.322.972-.65 1.468-.771 1.051-.255 2.237.011 3.093.693l.331.264v.91l-.313-.282c-.66-.594-1.494-.869-2.479-.818-.753.039-1.319.247-1.93.71a4.566 4.566 0 01-.443.313c-.016 0-.03-.166-.03-.369 0-.355.012-.38.303-.65zm-.036 1.897a3.56 3.56 0 011.807-.877c.397-.062.979-.031 1.433.076.755.178 1.688.816 1.688 1.154 0 .272-.073.587-.137.587-.032 0-.232-.13-.447-.287-.608-.447-1.106-.59-2.045-.586-.907.003-1.255.109-1.961.592-.233.16-.432.28-.443.269a2.414 2.414 0 01-.082-.362l-.062-.341.249-.225zm-3.446.054c.002-.34.087-.497.37-.683.155-.102.322-.118 1.202-.119h1.023v.676c0 .372.018.723.04.78.035.09-.086.102-1.078.102H4.687l-.22-.22c-.192-.192-.221-.263-.22-.536zm9.004.772c-.014-.026-.013-.392.005-.811l.031-.763h.875c.975 0 1.212.065 1.4.384.237.4.051.967-.375 1.146-.239.1-1.884.138-1.936.044zm-4.963.68c.349-.204.82-.364 1.28-.434.647-.099 1.421.028 2.065.34.225.109.423.22.44.249.018.028-.07.153-.195.278-.899.898-2.347.984-3.412.203-.488-.358-.511-.443-.178-.637z"/>
        </mask>
        <path fill-rule="evenodd" clip-rule="evenodd" d="M10.581 5.661c.517.094 1.237.447 1.627.797.175.157.42.464.545.682l.226.396 1.09.001c1.188.003 1.412.05 1.757.38.232.22.34.429.395.759.055.338-.096.838-.328 1.08l-.178.186.167.178c.493.53.473 1.288-.047 1.808-.35.35-.652.416-1.879.416h-.932l-.21.374c-.282.499-.829 1.008-1.38 1.284-.25.124-.491.226-.539.226-.082 0-.118.098-.29.793-.088.359-.19.462-.457.462-.279 0-.384-.141-.506-.679l-.108-.474-.485-.166a3.868 3.868 0 01-.777-.367c-.402-.279-.879-.802-1.049-1.152l-.141-.29-1.245-.022-1.245-.02-.314-.196c-.694-.43-.832-1.438-.278-2.028l.139-.147L4 9.795c-.473-.504-.443-1.441.062-1.912.322-.3.555-.344 1.831-.344h1.198l.193-.343c.399-.706 1.384-1.401 2.172-1.533.486-.08.689-.081 1.125-.002zm-1.825.985c.108-.056.358-.157.555-.222.473-.158 1.188-.125 1.72.078.47.18 1.077.73 1.306 1.181.222.437.195.477-.145.217-1.097-.837-2.535-.964-3.778-.334a3.259 3.259 0 00-.562.37c-.199.174-.23.185-.23.077 0-.295.702-1.141 1.134-1.367zM4.705 9.561c-.612-.29-.638-1.017-.05-1.375.183-.112.331-.127 1.239-.127h1.03l-.04.203c-.023.111-.04.458-.04.77v.569l-.959.033c-.8.028-.994.016-1.18-.073zm8.603.04a9.613 9.613 0 01-.062-.816l-.037-.735 1.01.02 1.011.021.23.251c.211.231.227.276.199.569-.034.357-.172.55-.486.683-.281.119-1.83.125-1.865.007zM7.73 9.053c.345-.322.972-.65 1.468-.771 1.051-.255 2.237.011 3.093.693l.331.264v.91l-.313-.282c-.66-.594-1.494-.869-2.479-.818-.753.039-1.319.247-1.93.71a4.566 4.566 0 01-.443.313c-.016 0-.03-.166-.03-.369 0-.355.012-.38.303-.65zm-.036 1.897a3.56 3.56 0 011.807-.877c.397-.062.979-.031 1.433.076.755.178 1.688.816 1.688 1.154 0 .272-.073.587-.137.587-.032 0-.232-.13-.447-.287-.608-.447-1.106-.59-2.045-.586-.907.003-1.255.109-1.961.592-.233.16-.432.28-.443.269a2.414 2.414 0 01-.082-.362l-.062-.341.249-.225zm-3.446.054c.002-.34.087-.497.37-.683.155-.102.322-.118 1.202-.119h1.023v.676c0 .372.018.723.04.78.035.09-.086.102-1.078.102H4.687l-.22-.22c-.192-.192-.221-.263-.22-.536zm9.004.772c-.014-.026-.013-.392.005-.811l.031-.763h.875c.975 0 1.212.065 1.4.384.237.4.051.967-.375 1.146-.239.1-1.884.138-1.936.044zm-4.963.68c.349-.204.82-.364 1.28-.434.647-.099 1.421.028 2.065.34.225.109.423.22.44.249.018.028-.07.153-.195.278-.899.898-2.347.984-3.412.203-.488-.358-.511-.443-.178-.637z" fill="#FFC316" stroke="#000" stroke-width=".2" mask="url(#cca)"/>
    </svg>