<svg width="24" height="24" fill="none" viewBox="-2 -2 24 24" id="belt" x="72" y="292" xmlns="http://www.w3.org/2000/svg">
        <circle cx="10" cy="10" r="10" fill="url(#cepaint0_linear)"/>
        <path fill-rule="evenodd" clip-rule="evenodd" d="M11.17 4a3.6 3.6 0 012.682 6 3.6 3.6 0 01-2.566 5.998l-.117.002H6.48a.507.507 0 01-.504-.452l-.003-.055V11.56h2.4v1.815c0 .11.08.202.185.221l.04.004h2.572a1.2 1.2 0 00.079-2.398l-.079-.002H8.732V8.8h2.437a1.2 1.2 0 00.079-2.398l-.079-.002H8.597a.224.224 0 00-.22.184l-.005.041V8.44h-2.4V4.507c0-.261.198-.476.452-.504L6.479 4h4.69zM8.187 8.8c.089 0 .163.063.18.147l.004.038v2.03a.185.185 0 01-.148.181l-.036.004h-2.03a.184.184 0 01-.182-.147l-.004-.037V8.985c0-.09.064-.164.148-.181l.037-.004h2.03zm-2.576 0v2.399h-.476C4.26 11.14 4 10 4 10s.24-1.058 1.04-1.188l.096-.012h.476zm2.162.506H6.57a.092.092 0 00-.088.068l-.004.024v1.203c0 .042.029.078.067.089l.025.003h1.203a.093.093 0 00.09-.067l.002-.025v-.348h-.509a.253.253 0 01-.045-.503l.045-.003h.51v-.349a.092.092 0 00-.092-.092zm2.952.39a.303.303 0 100 .606.303.303 0 000-.606zm-1.102 0a.303.303 0 100 .607.303.303 0 000-.607z" fill="#fff"/>
        <defs>
            <linearGradient id="cepaint0_linear" x1="3" y1="3" x2="17.5" y2="16" gradientUnits="userSpaceOnUse">
                <stop stop-color="#FDD088"/>
                <stop offset="1" stop-color="#FFC05B"/>
            </linearGradient>
        </defs>
    </svg>