<svg width="24" height="24" fill="none" viewBox="-2 -2 24 24" id="bin" x="120" y="292" xmlns="http://www.w3.org/2000/svg">
        <circle cx="10" cy="10" r="10" fill="url(#chpaint0_radial)"/>
        <path d="M2.451 13.5V6.39h2.49c.863 0 1.517.167 1.963.499.446.328.67.812.67 1.45 0 .348-.09.656-.27.923a1.556 1.556 0 01-.746.58c.364.092.65.276.859.553.212.276.317.615.317 1.015 0 .684-.218 1.201-.654 1.553-.436.352-1.058.53-1.865.537H2.45zm1.465-3.096v1.92h1.255c.345 0 .614-.082.806-.245.195-.166.293-.394.293-.684 0-.65-.337-.98-1.011-.99H3.916zm0-1.035H5c.739-.013 1.108-.307 1.108-.884 0-.322-.094-.553-.283-.693-.185-.143-.48-.215-.884-.215H3.916V9.37zm6.48 4.131H8.93V6.39h1.465v7.11zm7.143 0h-1.465l-2.851-4.678V13.5h-1.465V6.39h1.465l2.856 4.688V6.391h1.46V13.5z" fill="#593E74"/>
        <path d="M1.951 13V5.89h2.49c.863 0 1.517.167 1.963.499.446.328.67.812.67 1.45 0 .348-.09.656-.27.923a1.556 1.556 0 01-.746.58c.364.092.65.276.859.553.212.276.317.615.317 1.015 0 .684-.218 1.201-.654 1.553-.436.352-1.058.53-1.865.537H1.95zm1.465-3.096v1.92h1.255c.345 0 .614-.082.806-.245.195-.166.293-.394.293-.684 0-.65-.337-.98-1.011-.99H3.416zm0-1.035H4.5c.739-.013 1.108-.307 1.108-.884 0-.322-.094-.553-.283-.693-.185-.143-.48-.215-.884-.215H3.416V8.87zM9.896 13H8.43V5.89h1.465V13zm7.143 0h-1.465l-2.851-4.678V13h-1.465V5.89h1.465l2.856 4.688V5.891h1.46V13z" fill="#F1C255"/>
        <defs>
            <radialGradient id="chpaint0_radial" cx="0" cy="0" r="1" gradientUnits="userSpaceOnUse" gradientTransform="matrix(0 10 -10 0 10 10)">
                <stop stop-color="#F9A700"/>
                <stop offset="1" stop-color="#D90000"/>
            </radialGradient>
        </defs>
    </svg>