<svg width="25" height="24" fill="none" viewBox="-2 -2 25 24" id="blz" x="49" y="75" xmlns="http://www.w3.org/2000/svg">
        <circle cx="10.239" cy="10" r="10" fill="#154181"/>
        <path fill-rule="evenodd" clip-rule="evenodd" d="M11.07 5.068a1.21 1.21 0 00.356-.856V4.21a1.21 1.21 0 10-.356.858zM5.31 6.776a1.21 1.21 0 111.709-1.713A1.21 1.21 0 015.31 6.776h-.002zm8.16-1.605a1.211 1.211 0 11-.002.003h.001V5.17zm-8.282 7.862a1.21 1.21 0 11-.004.004l.004-.004zm2.83.346l-1.277-1.277 1.167-1.174a2.306 2.306 0 001.28 1.28l-1.17 1.171zm4.467-4.403l1.17-1.17-1.277-1.278-1.17 1.17a2.303 2.303 0 011.277 1.278zm.612 5.089c.047.235.162.45.331.62l.002.001a1.207 1.207 0 001.71-.001 1.21 1.21 0 10-2.043-.62zm.462-2.014l-1.277 1.277-1.174-1.167a2.306 2.306 0 001.28-1.28l1.171 1.17zM9.286 7.63l-1.17-1.17L6.838 7.74l1.17 1.17a2.303 2.303 0 011.278-1.277zm2.14 8.157a1.211 1.211 0 110-.002v.002zM9.89 6.058h.763V7.56a2.23 2.23 0 00-.763 0v-1.5zm.763 6.449c-.252.044-.51.044-.763 0v1.5h.763v-1.5zm4.066-1.982c.227.227.535.355.856.355h.002a1.211 1.211 0 10-.858-.355zm-10.269.561a1.212 1.212 0 110-2.425 1.212 1.212 0 010 2.425zm9.544-.83h-1.5v-.002c.043-.252.043-.51 0-.762h1.5v.763zm-6.164 0a2.23 2.23 0 010-.763h-1.5v.762h1.5zm3.775.662a1.718 1.718 0 10-2.858-1.91 1.718 1.718 0 002.858 1.91z" fill="#fff"/>
    </svg>