<svg width="24" height="24" fill="none" viewBox="-2 -2 24 24" id="bnb" x="192" y="292" xmlns="http://www.w3.org/2000/svg">
        <circle cx="10" cy="10" r="10" fill="#FFC331"/>
        <path fill-rule="evenodd" clip-rule="evenodd" d="M6.82 8.697L10 5.516l3.18 3.18 1.85-1.848L10 1.818l-5.03 5.03 1.85 1.849zm-3.155-.54L1.82 10.002l1.846 1.847 1.847-1.847-1.847-1.847zM10 14.488l-3.18-3.18-1.85 1.848 5.03 5.03 5.03-5.03-1.85-1.849L10 14.49zm6.335-6.332l-1.847 1.847 1.847 1.846 1.847-1.846-1.847-1.847zm-6.334-.03l1.875 1.875L10 11.877l-1.875-1.875.323-.336.168-.155 1.384-1.383z" fill="#fff"/>
    </svg>