<svg width="24" height="24" fill="none" viewBox="-2 -2 24 24" id="bnbmainnet" x="240" y="292" xmlns="http://www.w3.org/2000/svg">
        <circle cx="10" cy="10" r="10" fill="#FFC331"/>
        <g clip-path="url(#cnclip0)">
            <g clip-path="url(#cnclip1)" fill="#fff">
                <path d="M14.353 12.754v-1.682l-1.364.762v1.65l1.364-.73zM8.642 16.053v1.713l1.397.762 1.364-.761v-1.714l-1.364.73-1.397-.73zM15.845 13.452l-2.856 1.713v1.713l4.22-2.538V9.454l-1.364.73v3.268zM14.385 9.359V7.772l-1.428-.793-2.855 1.714L7.278 7.01l-1.428.825v1.586l2.792 1.65v3.268l1.396.761 1.396-.761v-3.173l2.951-1.808zM10.007 6.947l1.428-.856-1.365-.825-1.428.857 1.365.824zM15.908 5.203l-1.46.888 1.428.825V8.47l1.46-.888V6.027l-1.428-.824z"/>
                <path d="M9.912 3.648l2.95 1.586 1.46-.92-4.347-2.316-1.047.635-.412.253-2.729 1.65 1.333.793 2.792-1.681zM5.755 12.754l1.428.856v-1.586l-1.428-.857v1.587zM4.391 6.947l1.396-.825-1.46-.888L2.9 6.06v1.555l1.491.888V6.947zM4.36 10.31l-1.492-.888v4.95l1.079.634.412.254 2.76 1.618v-1.555l-2.76-1.681v-3.331z"/>
            </g>
        </g>
        <defs>
            <clipPath id="cnclip0">
                <path fill="#fff" transform="translate(1.998 1.998)" d="M0 0h16.53v16.53H0z"/>
            </clipPath>
            <clipPath id="cnclip1">
                <path fill="#fff" transform="translate(2.868 1.998)" d="M0 0h14.468v16.53H0z"/>
            </clipPath>
        </defs>
    </svg>