<svg width="24" height="24" fill="none" viewBox="-2 -2 24 24" id="bnt" x="288" y="292" xmlns="http://www.w3.org/2000/svg">
        <path d="M10 20c5.523 0 10-4.477 10-10S15.523 0 10 0 0 4.477 0 10s4.477 10 10 10z" fill="#0F59D1"/>
        <path d="M9.95 3.675L7.126 5.329 9.95 6.984l2.877-1.655L9.95 3.675zm.464 8.834v3.31l3.836-2.189v-3.31l-3.836 2.189zm2.877-6.139v3.31l-2.877 1.655v-3.31L13.29 6.37zM6.365 9.68l2.877 1.655v-3.31L6.365 6.37v3.31zm0 4.484l2.877 1.654v-3.31l-2.877-1.654v3.31z" fill="#fff"/>
    </svg>