<svg width="24" height="24" fill="none" viewBox="-2 -2 24 24" id="bob" x="326" xmlns="http://www.w3.org/2000/svg">
        <g clip-path="url(#cqclip0)">
            <path d="M20 10c0-1.223-.22-2.395-.622-3.478L10 6.087l-9.378.435A9.978 9.978 0 000 10c0 1.223.22 2.395.622 3.478l9.378.435 9.378-.435A9.978 9.978 0 0020 10z" fill="#FFDA44"/>
            <path d="M10 20c4.3 0 7.965-2.714 9.378-6.522H.622A10.004 10.004 0 0010 20z" fill="#436927"/>
            <path d="M.622 6.522h18.756a10.004 10.004 0 00-18.756 0z" fill="#D80027"/>
        </g>
        <defs>
            <clipPath id="cqclip0">
                <path fill="#fff" d="M0 0h20v20H0z"/>
            </clipPath>
        </defs>
    </svg>