<svg width="24" height="24" fill="none" viewBox="-2 -2 24 24" id="brd" x="326" y="48" xmlns="http://www.w3.org/2000/svg">
        <path d="M10 20c5.523 0 10-4.477 10-10S15.523 0 10 0 0 4.477 0 10s4.477 10 10 10z" fill="url(#cspaint0_linear)"/>
        <path d="M5 5.65c0-.36.295-.65.659-.65H10.4c2.798 0 3.785.33 4.465 1a2.144 2.144 0 01.612 1.63c0 1.156-.623 1.94-2.304 2.285 1.623.284 2.448.944 2.448 2.271a2.253 2.253 0 01-.638 1.685c-.665.656-1.753 1.129-4.68 1.129H5.66A.654.654 0 015 14.35v-8.7zm3.6 3.726c0-.24.197-.433.44-.433h1.527c.871 0 1.523-.043 1.825-.355a.738.738 0 00.202-.557.703.703 0 00-.188-.547c-.306-.301-.957-.355-1.84-.355H7.726v5.77h2.813c.957 0 1.666-.07 1.998-.4a.763.763 0 00.216-.587.806.806 0 00-.216-.6c-.335-.329-1.044-.354-1.998-.354H9.05a.442.442 0 01-.42-.274.429.429 0 01-.03-.173V9.376z" fill="#fff"/>
        <defs>
            <linearGradient id="cspaint0_linear" x1="2.5" y1="17" x2="18" y2="3.5" gradientUnits="userSpaceOnUse">
                <stop stop-color="#FE5D86"/>
                <stop offset="1" stop-color="#FB9E3E"/>
            </linearGradient>
        </defs>
    </svg>