<svg width="24" height="24" fill="none" viewBox="-2 -2 24 24" id="brg" x="326" y="72" xmlns="http://www.w3.org/2000/svg">
        <circle cx="10" cy="10" r="10" fill="#0E2336"/>
        <circle cx="10" cy="10" r="9.75" stroke="#EDC128" stroke-width=".5"/>
        <path d="M6.403 16V3.914h3.951c1.312 0 2.297.271 2.955.814.664.542.996 1.344.996 2.407 0 .564-.16 1.065-.481 1.502-.321.432-.758.767-1.312 1.005.653.182 1.168.53 1.544 1.046.382.509.573 1.117.573 1.826 0 1.084-.351 1.937-1.054 2.556-.703.62-1.696.93-2.98.93H6.403zm1.594-5.653v4.35h2.63c.742 0 1.326-.191 1.752-.573.432-.387.648-.919.648-1.594 0-1.455-.791-2.183-2.374-2.183H7.997zm0-1.278h2.407c.697 0 1.253-.174 1.668-.523.42-.349.631-.822.631-1.42 0-.664-.194-1.145-.58-1.444-.388-.304-.978-.456-1.769-.456H7.997v3.843z" fill="#EDC128"/>
    </svg>