<svg width="24" height="24" fill="none" viewBox="-2 -2 24 24" id="bsv" x="326" y="144" xmlns="http://www.w3.org/2000/svg">
        <g clip-path="url(#cxclip0)">
            <path d="M20 10.048c0 5.548-4.478 10.046-10.002 10.047-5.521 0-9.999-4.5-9.998-10.048C-.002 4.498 4.476 0 10 0c5.522 0 10 4.499 10 10.048z" fill="#EAB300"/>
            <path d="M13.934 7.587C13.805 6.24 12.65 5.79 11.188 5.66V3.794h-1.13v1.817c-.297 0-.601.006-.903.013v-1.83h-1.13L8.024 5.66c-.245.005-.486.01-.72.01v-.006l-1.56-.001v1.214s.835-.016.821-.001c.459 0 .607.267.65.497V9.5c.033 0 .073.002.12.008h-.12v2.98c-.02.145-.105.376-.425.376.014.013-.822 0-.822 0l-.225 1.357h1.473c.273 0 .543.005.807.007v1.888h1.13v-1.868c.31.006.61.009.904.009l-.001 1.859h1.13v-1.884c1.902-.11 3.234-.591 3.399-2.385.133-1.445-.543-2.09-1.622-2.35.657-.335 1.067-.926.971-1.91zm-1.582 4.036c0 1.411-2.405 1.251-3.172 1.251v-2.502c.767.001 3.172-.22 3.172 1.251zm-.527-3.53c0 1.284-2.007 1.134-2.645 1.135V6.96c.64 0 2.646-.205 2.645 1.134z" fill="#fff"/>
        </g>
        <defs>
            <clipPath id="cxclip0">
                <path fill="#fff" d="M0 0h20v20H0z"/>
            </clipPath>
        </defs>
    </svg>