<svg width="24" height="24" fill="none" viewBox="-2 -2 24 24" id="bsw" x="326" y="168" xmlns="http://www.w3.org/2000/svg">
        <path d="M9.846 19.692c5.438 0 9.846-4.408 9.846-9.846S15.284 0 9.846 0 0 4.408 0 9.846s4.408 9.846 9.846 9.846z" fill="#fff"/>
        <path d="M17.473 3.704c-.683.135-1.334.326-1.87.445-1.223.274-2.366 1.211-2.617 2.926-.222 1.533.294 2.192.068 3.974-.397 3.113-3.383 4.185-4.776 4.836-.806.373-2.763 1.23-4.272 1.886a9.844 9.844 0 0015.686-7.925c0-2.318-.802-4.45-2.144-6.13a2.862 2.862 0 00-.075-.012z" fill="url(#cypaint0_linear_2140_2528)"/>
        <path d="M8.738 8.401c.759-1.64.485-1.644 1.06-3.184.727-1.953 2.986-1.398 3.61-1.314 1.028.139 1.298-.227 3.465-.576.108-.016.21-.032.314-.044A9.828 9.828 0 009.847 0 9.84 9.84 0 00.96 5.602c3.247.806 6.753 2.557 7.777 2.799zM6.587 1.715c.285.044 1.675 1.77 1.937 6.206 0 0-1.787-.43-2.172-1.35-.317-.759.096-1.755.235-4.856zm10.945 1.981c.005.008.012.012.016.02-.023-.004-.051-.004-.075-.008.02-.008.04-.008.06-.012zM0 9.846c0-.786.091-1.548.266-2.279.357.298.738.628 1.143 1.005 2.565 2.378 6.738 4.256 8.258 2.509.004.004.008.004.008.008-.278.365-1.338 1.52-3.362 1.163l-3.2 4.776A9.818 9.818 0 010 9.846z" fill="url(#cypaint1_linear_2140_2528)"/>
        <defs>
            <linearGradient id="cypaint0_linear_2140_2528" x1="15.759" y1="6.283" x2="13.436" y2="19.08" gradientUnits="userSpaceOnUse">
                <stop stop-color="#FF496A"/>
                <stop offset="1" stop-color="#E42648"/>
            </linearGradient>
            <linearGradient id="cypaint1_linear_2140_2528" x1="4.752" y1="14.504" x2="9.888" y2="0" gradientUnits="userSpaceOnUse">
                <stop offset=".002" stop-color="#1158F1"/>
                <stop offset="1" stop-color="#119BED"/>
            </linearGradient>
        </defs>
    </svg>