<svg width="24" height="24" fill="none" viewBox="-2 -2 24 24" id="btg" x="326" y="240" xmlns="http://www.w3.org/2000/svg">
        <path d="M10 18.76A8.76 8.76 0 1010 1.24a8.76 8.76 0 000 17.522z" fill="#fff"/>
        <path d="M10 0C4.478 0 0 4.478 0 10s4.478 10 10 10 10-4.478 10-10S15.522 0 10 0zm0 17.698a7.699 7.699 0 11.001-15.397A7.699 7.699 0 0110 17.698z" fill="url(#dbpaint0_linear)"/>
        <path d="M6.666 13.42l.385-.769h4.615c.636 0 1.153-.517 1.153-1.153 0-.635-.518-1.153-1.153-1.153H7.82v-.768h3.847a1.922 1.922 0 010 3.843h-5z" fill="#132365"/>
        <path d="M11.666 13.631H6.321l.6-1.196h4.75a.944.944 0 00.94-.941.944.944 0 00-.94-.941H7.607V9.357h4.058a2.14 2.14 0 012.138 2.137 2.14 2.14 0 01-2.138 2.137zm-4.654-.427h4.654c.942 0 1.71-.769 1.71-1.71s-.768-1.71-1.71-1.71h-3.63v.341h3.63a1.37 1.37 0 011.37 1.369 1.37 1.37 0 01-1.37 1.369H7.184l-.172.34z" fill="#132365"/>
        <path d="M6.666 6.455l.385.768h4.101c.636 0 1.153.518 1.153 1.153 0 .636-.517 1.153-1.152 1.153h-2.95v.769h2.95a1.922 1.922 0 000-3.843H6.665z" fill="#132365"/>
        <path d="M11.153 10.514H7.992V9.317h3.16a.944.944 0 00.942-.94.944.944 0 00-.941-.942H6.917l-.6-1.196h4.832a2.14 2.14 0 012.137 2.137 2.134 2.134 0 01-2.133 2.138zm-2.734-.428h2.734c.94 0 1.71-.769 1.71-1.71 0-.94-.765-1.71-1.71-1.71H7.012l.172.342h3.969a1.37 1.37 0 010 2.737H8.419v.341z" fill="#132365"/>
        <path d="M8.588 6.494h-.769v6.922h.769V6.494z" fill="#132365"/>
        <path d="M8.804 13.631H7.608V6.282h1.196v7.35zm-.769-.427h.341V6.71h-.34v6.494z" fill="#132365"/>
        <path d="M9.53 5.298h-.77v1.537h.77V5.298z" fill="#132365"/>
        <path d="M9.635 6.945h-.984V5.192h.984v1.753zm-.769-.216h.557V5.404h-.557v1.325zM11.196 5.298h-.769v1.537h.769V5.298z" fill="#132365"/>
        <path d="M11.302 6.945h-.985V5.192h.985v1.753zm-.769-.216h.557V5.404h-.557v1.325zM9.53 12.992h-.77v1.537h.77v-1.537z" fill="#132365"/>
        <path d="M9.635 14.635h-.984v-1.753h.984v1.753zm-.769-.212h.557v-1.325h-.557v1.325zM11.196 12.992h-.769v1.537h.769v-1.537z" fill="#132365"/>
        <path d="M11.302 14.635h-.985v-1.753h.985v1.753zm-.769-.212h.557v-1.325h-.557v1.325z" fill="#132365"/>
        <path d="M10 16.816A6.823 6.823 0 013.184 10 6.823 6.823 0 0110 3.184 6.823 6.823 0 0116.816 10c0 3.757-3.06 6.816-6.816 6.816zm0-12.95A6.142 6.142 0 003.867 10 6.142 6.142 0 0010 16.133 6.142 6.142 0 0016.133 10 6.142 6.142 0 0010 3.867z" fill="#132365"/>
        <defs>
            <linearGradient id="dbpaint0_linear" x1="4.649" y1="1.901" x2="16.635" y2="20.041" gradientUnits="userSpaceOnUse">
                <stop offset=".005" stop-color="#F1D200"/>
                <stop offset="1" stop-color="#D27D00"/>
            </linearGradient>
        </defs>
    </svg>