<svg width="24" height="24" fill="none" viewBox="-2 -2 24 24" id="byr" x="72" y="316" xmlns="http://www.w3.org/2000/svg">
        <g clip-path="url(#dhclip0)">
            <path d="M10 20c5.523 0 10-4.477 10-10S15.523 0 10 0 0 4.477 0 10s4.477 10 10 10z" fill="#FCFCFC"/>
            <path d="M6.087 12.609v6.596A9.967 9.967 0 0010 20c4.3 0 7.965-2.714 9.378-6.522l-13.291-.87z" fill="#6DA544"/>
            <path d="M20 10c0 1.223-.22 2.395-.622 3.478H6.087V.795A9.969 9.969 0 0110 0c5.523 0 10 4.477 10 10zM4.91 1.392l.307.55-1.087 1.97-.767-1.392A10.07 10.07 0 014.91 1.39zM1.957 9.275L.87 7.303l1.087-1.94 1.086 1.94 1.087-1.94 1.087 1.94L4.13 9.275 3.043 7.303 1.957 9.275zm0 1.45l1.086 1.94 1.087-1.94 1.087 1.94-1.087 1.973-1.087-1.972-1.086 1.972L.87 12.666l1.087-1.941zm2.173 5.362l-.775 1.385c.477.424.994.803 1.546 1.131l.317-.575-1.087-1.941z" fill="#A2001D"/>
        </g>
        <defs>
            <clipPath id="dhclip0">
                <path fill="#fff" d="M0 0h20v20H0z"/>
            </clipPath>
        </defs>
    </svg>