<svg width="25" height="24" fill="none" viewBox="-2 -2 25 24" id="cad" x="104" xmlns="http://www.w3.org/2000/svg">
        <g clip-path="url(#dkclip0)">
            <path d="M10.882 20c5.523 0 10-4.477 10-10s-4.477-10-10-10-10 4.477-10 10 4.477 10 10 10z" fill="#F0F0F0"/>
            <path d="M20.882 10A10 10 0 0015.23.992v18.016A10 10 0 0020.882 10zM.882 10a10 10 0 005.653 9.008V.992A10 10 0 00.882 10zM12.621 11.304l1.74-.87-.87-.434v-.87l-1.74.87.87-1.74h-.87l-.869-1.304-.87 1.305h-.869l.87 1.739-1.74-.87V10l-.869.435 1.74.87-.436.869h1.74v1.304h.869v-1.304h1.74l-.436-.87z" fill="#D80027"/>
        </g>
        <defs>
            <clipPath id="dkclip0">
                <path fill="#fff" transform="translate(.882)" d="M0 0h20v20H0z"/>
            </clipPath>
        </defs>
    </svg>