<svg width="25" height="24" fill="none" viewBox="-2 -2 25 24" id="cake" x="104" y="24" xmlns="http://www.w3.org/2000/svg">
        <g clip-path="url(#dlclip0)">
            <path d="M10.715 20c5.523 0 10-4.477 10-10s-4.477-10-10-10-10 4.477-10 10 4.477 10 10 10z" fill="#72C4C2"/>
            <path fill-rule="evenodd" clip-rule="evenodd" d="M4.248 11.338l-.002.121c0 .154.012.306.036.456h-.036v.236c0 .114.006.228.02.341.264 2.2 3.05 3.93 6.449 3.93s6.185-1.73 6.449-3.93c.013-.113.02-.227.02-.341v-.236h-.036a2.863 2.863 0 00.033-.577c-.097-2.303-2.955-4.15-6.466-4.15s-6.37 1.847-6.467 4.15zm-.531 0c.048-1.406.926-2.586 2.148-3.393 1.266-.837 2.982-1.335 4.85-1.335 1.866 0 3.582.499 4.85 1.335 1.221.807 2.1 1.987 2.147 3.393h.003v.813c0 1.459-.893 2.684-2.15 3.514C14.298 16.5 12.582 17 10.715 17c-1.867 0-3.583-.499-4.85-1.335-1.257-.83-2.15-2.056-2.15-3.514v-.813h.002z" fill="#606063"/>
            <path d="M17.184 12.15c0 2.36-2.896 4.273-6.47 4.273-3.572 0-6.468-1.913-6.468-4.272v-.677h12.938v.677z" fill="#BEBEBE"/>
            <path d="M17.184 11.46c0 2.359-2.896 4.272-6.47 4.272-3.572 0-6.468-1.913-6.468-4.272 0-2.36 2.896-4.272 6.469-4.272 3.573 0 6.47 1.912 6.47 4.272z" fill="#FAF9FA"/>
            <path fill-rule="evenodd" clip-rule="evenodd" d="M5.241 10.253v.008c0 .192.026.383.076.569H5.24v.25c0 .11.008.22.025.327.246 1.625 2.31 2.892 4.819 2.892s4.572-1.268 4.819-2.892c.016-.108.025-.217.025-.327v-.25h-.076c.049-.18.074-.367.076-.553v-.025c-.007-1.774-2.173-3.21-4.844-3.21-2.67 0-4.837 1.436-4.843 3.21zm-.53 0v.827c0 1.166.708 2.129 1.672 2.77.973.646 2.283 1.027 3.702 1.027 1.418 0 2.728-.38 3.701-1.027.964-.641 1.673-1.603 1.673-2.77v-.82c0-1.165-.709-2.128-1.673-2.768-.973-.647-2.283-1.028-3.701-1.028-1.42 0-2.73.381-3.702 1.028-.962.639-1.67 1.598-1.673 2.76z" fill="#633001"/>
            <path d="M14.928 11.08c0 1.778-2.169 3.22-4.844 3.22-2.675 0-4.843-1.442-4.843-3.22v-.755h9.687v.755z" fill="#FEDC90"/>
            <path d="M14.928 10.26c0 1.778-2.169 3.22-4.844 3.22-2.675 0-4.843-1.441-4.843-3.22 0-1.778 2.17-3.219 4.843-3.219s4.844 1.441 4.844 3.22z" fill="#D1884F"/>
            <path fill-rule="evenodd" clip-rule="evenodd" d="M6.7 8.52v.009c0 .192.026.383.076.569h-.075v.25c0 .11.008.22.024.327.247 1.624 2.31 2.892 4.82 2.892 2.508 0 4.572-1.268 4.818-2.892.017-.108.025-.217.025-.327v-.25h-.075c.048-.18.074-.365.075-.554V8.52c-.006-1.774-2.173-3.21-4.843-3.21-2.671 0-4.837 1.436-4.844 3.21zm-.53 0v.828c0 1.166.709 2.128 1.673 2.77.972.646 2.283 1.027 3.701 1.027 1.42 0 2.73-.38 3.702-1.028.964-.64 1.673-1.602 1.673-2.769v-.82c0-1.165-.71-2.128-1.673-2.769-.973-.646-2.283-1.027-3.702-1.027-1.418 0-2.729.381-3.702 1.027-.96.64-1.669 1.599-1.672 2.762z" fill="#633001"/>
            <path d="M16.388 9.348c0 1.778-2.169 3.22-4.844 3.22-2.675 0-4.843-1.442-4.843-3.22v-.755h9.687v.755z" fill="#FEDC90"/>
            <path d="M16.388 8.529c0 1.778-2.169 3.219-4.844 3.219-2.675 0-4.843-1.441-4.843-3.22 0-1.777 2.168-3.219 4.843-3.219 2.676 0 4.844 1.442 4.844 3.22z" fill="#D1884F"/>
            <path fill-rule="evenodd" clip-rule="evenodd" d="M5.241 6.789v.008c0 .192.026.383.076.569H5.24v.25c0 .11.008.22.025.327.246 1.625 2.31 2.892 4.819 2.892s4.572-1.268 4.819-2.892c.016-.108.025-.217.025-.327v-.25h-.076c.049-.18.074-.366.076-.553v-.024c-.008-1.775-2.173-3.211-4.844-3.211-2.671 0-4.838 1.436-4.844 3.21zm-.53 0v.827c0 1.166.708 2.129 1.672 2.77.973.646 2.283 1.027 3.702 1.027 1.418 0 2.728-.38 3.701-1.027.964-.64 1.673-1.603 1.673-2.77v-.82c0-1.165-.709-2.128-1.673-2.769C12.814 3.381 11.504 3 10.085 3s-2.73.381-3.702 1.028c-.961.639-1.67 1.598-1.673 2.76z" fill="#633001"/>
            <path d="M14.928 7.616c0 1.778-2.169 3.22-4.844 3.22-2.675 0-4.843-1.442-4.843-3.22v-.755h9.687v.755z" fill="#FEDC90"/>
            <path d="M14.928 6.797c0 1.778-2.169 3.219-4.844 3.219-2.675 0-4.843-1.441-4.843-3.22 0-1.777 2.17-3.218 4.843-3.218s4.844 1.44 4.844 3.219z" fill="#D1884F"/>
            <path fill-rule="evenodd" clip-rule="evenodd" d="M6.386 6.997c0 .594.397 1.125 1.023 1.483l-.434.817v2.066c0 .274.204.495.455.495.252 0 .455-.221.455-.495V9.72l.467-.878c.298.068.618.106.951.106 1.61 0 2.917-.874 2.917-1.95 0-1.078-1.309-1.951-2.917-1.951-1.608 0-2.917.873-2.917 1.95z" fill="url(#dlpaint0_linear)"/>
            <path fill-rule="evenodd" clip-rule="evenodd" d="M7.409 8.48l-.2-.125c-.509-.352-.822-.83-.822-1.358 0-1.077 1.306-1.95 2.916-1.95 1.611 0 2.917.873 2.917 1.95s-1.306 1.95-2.917 1.95c-.32 0-.64-.035-.951-.106l-.467.879v1.643c0 .274-.203.495-.455.495-.251 0-.455-.222-.455-.495V9.296l.434-.816zm-.898.825v2.058c0 .552.411 1 .92 1 .507 0 .919-.448.919-1V9.855l.242-.456c.235.036.473.054.711.053.875 0 1.693-.236 2.306-.646.604-.404 1.075-1.03 1.075-1.809 0-.78-.47-1.405-1.075-1.81-.612-.409-1.429-.646-2.306-.646s-1.693.237-2.306.646c-.604.405-1.075 1.03-1.075 1.81 0 .684.36 1.247.861 1.651l-.207.39a.434.434 0 00-.046.115.473.473 0 00-.019.152z" fill="#633001"/>
            <path d="M7.298 6.175c0 .558.654 1.011 1.46 1.011.806 0 1.46-.452 1.46-1.01 0-.559-.654-1.011-1.46-1.011-.806 0-1.46.452-1.46 1.01z" fill="#9E7200"/>
            <path d="M7.298 5.742h2.92v.433h-2.92v-.433z" fill="#9E7200"/>
            <path d="M7.298 5.742c0 .558.654 1.01 1.46 1.01.806 0 1.46-.452 1.46-1.01s-.654-1.01-1.46-1.01c-.806 0-1.46.452-1.46 1.01z" fill="#F0B90B"/>
            <path d="M8.204 5.62l.41-.284a.247.247 0 01.286 0l.411.285a.151.151 0 010 .243l-.411.285a.247.247 0 01-.285 0l-.411-.285a.151.151 0 010-.243z" fill="#9E7200"/>
            <path fill-rule="evenodd" clip-rule="evenodd" d="M7.476 4.602c.35-.242.804-.375 1.281-.375.478 0 .932.133 1.282.375.344.238.643.629.643 1.14v.433c0 .512-.3.903-.643 1.14-.35.243-.804.376-1.282.376-.477 0-.931-.133-1.281-.375-.344-.238-.643-.629-.643-1.14v-.434c0-.512.3-.902.643-1.14zm1.281.13c-.806 0-1.46.452-1.46 1.01v.434c0 .558.654 1.01 1.46 1.01.806 0 1.46-.452 1.46-1.01v-.433c0-.558-.654-1.011-1.46-1.011z" fill="#633001"/>
        </g>
        <defs>
            <linearGradient id="dlpaint0_linear" x1="9.335" y1="5.112" x2="9.335" y2="11.807" gradientUnits="userSpaceOnUse">
                <stop stop-color="#9F4A08"/>
                <stop offset=".37" stop-color="#7D3900"/>
                <stop offset="1" stop-color="#8D4104"/>
            </linearGradient>
            <clipPath id="dlclip0">
                <path fill="#fff" transform="translate(.869)" d="M0 0h20v20H0z"/>
            </clipPath>
        </defs>
    </svg>