<svg width="25" height="24" fill="none" viewBox="-2 -2 25 24" id="caps" x="104" y="48" xmlns="http://www.w3.org/2000/svg">
        <circle cx="10" cy="10" r="10" fill="#fff"/>
        <path d="M10 0C4.476 0 0 4.476 0 10c0 4.381 2.857 8.286 6.952 9.524.19 0 .381 0 .572-.095h.095c.667-.286 1.143-.953 1.143-1.62v-6.285H6.667a1.26 1.26 0 01-1.238-1.238 1.26 1.26 0 011.238-1.238h6.666a1.26 1.26 0 011.238 1.238 1.26 1.26 0 01-1.238 1.238h-2.095v6.286c0 .761.476 1.428 1.238 1.714.095 0 .19.095.381.095h.19c5.239-1.714 8.191-7.333 6.477-12.571C18.19 2.858 14.38 0 10 0zM2.952 11.619a1.26 1.26 0 01-1.238-1.238 1.26 1.26 0 011.238-1.238A1.26 1.26 0 014.19 10.38a1.26 1.26 0 01-1.238 1.238zM10 7.239a2.358 2.358 0 01-2.381-2.382A2.358 2.358 0 0110 2.477a2.358 2.358 0 012.381 2.38A2.358 2.358 0 0110 7.238zm7.143 4.38a1.26 1.26 0 01-1.238-1.238 1.26 1.26 0 011.238-1.238 1.26 1.26 0 011.238 1.238c-.095.667-.572 1.238-1.238 1.238z" fill="#000"/>
    </svg>