<svg width="24" height="24" fill="none" viewBox="-2 -2 24 24" id="celr" x="168" y="316" xmlns="http://www.w3.org/2000/svg">
        <circle cx="10" cy="10" r="10" fill="#fff"/>
        <path fill-rule="evenodd" clip-rule="evenodd" d="M15.924 14.438C14.16 16.165 12.638 17 10.132 17c-4.173 0-7.054-2.915-7.054-7.019C3.078 5.766 6.345 3 10.172 3a7.67 7.67 0 015.81 2.674l-1.785 1.708c-1.207-1.282-2.524-1.95-4.084-1.95-2.503 0-4.547 1.931-4.547 4.55 0 2.748 1.968 4.586 4.603 4.586 1.652 0 2.766-.668 4.028-1.931l1.727 1.801z" fill="#000"/>
    </svg>