<svg width="24" height="24" fill="none" viewBox="-2 -2 24 24" id="chess" x="192" y="316" xmlns="http://www.w3.org/2000/svg">
        <circle cx="10" cy="10" r="10" fill="#000"/>
        <g clip-path="url(#drclip0)">
            <path fill-rule="evenodd" clip-rule="evenodd" d="M4.18 9.303L6.73 6.755 9.97 9.998l3.27-3.27 2.574 2.575a.982.982 0 010 1.389l-2.57 2.57L9.98 9.998l-3.247 3.246-2.552-2.552a.982.982 0 010-1.389zM8.673 3.55a1.875 1.875 0 012.651 0l5.123 5.123c.732.732.732 1.92 0 2.651l-5.123 5.123a1.875 1.875 0 01-2.651 0l-5.123-5.123a1.875 1.875 0 010-2.651l5.123-5.123z" fill="#fff"/>
        </g>
        <defs>
            <clipPath id="drclip0">
                <path fill="#fff" transform="translate(3 3)" d="M0 0h14v14H0z"/>
            </clipPath>
        </defs>
    </svg>