<svg width="24" height="24" fill="none" viewBox="-2 -2 24 24" id="chsb" x="240" y="316" xmlns="http://www.w3.org/2000/svg">
        <path d="M10 20c5.523 0 10-4.477 10-10S15.523 0 10 0 0 4.477 0 10s4.477 10 10 10z" fill="#01C38D"/>
        <path d="M11.73 2.888l-1.19.662v5.625l.65.362V5.254l2.233 1.241h.002l.433.24.362-.2v-.338l-3.03-1.683v-.586l.54-.3 3.139 1.745v1.554l-1.506.833-.051-.025a.647.647 0 00-.933.578.649.649 0 001.294.066l.005-.055 1.52-.841 1.411.784v3.47l-1.412.784L9.46 9.33V3.55l-1.191-.662-3.788 2.107v1.923l-1.74.967v4.226l1.74.967v1.927l3.788 2.107 1.191-.663v-5.636l-.65-.362v4.295l-2.669-1.48-.362.2v.337l3.03 1.683v.585l-.54.301-3.138-1.745v-1.554l1.506-.833.051.025a.649.649 0 00.933-.579.648.648 0 00-1.294-.065l-.005.055-1.521.841-1.41-.784v-3.47l1.412-.784 5.737 3.191v5.78l1.19.662 3.79-2.107v-1.923l1.74-.966V7.889l-1.74-.967V4.995l-3.79-2.107zm-6.6 2.485L8.27 3.628l.54.3v.586L5.132 6.557V5.373zm.338 1.736L8.81 5.253v3.715L5.468 7.109zm5.722 3.923l3.342 1.859-3.342 1.856v-3.715zm0 5.04v-.586l3.679-2.043v1.184l-3.138 1.745-.54-.3z" fill="#fff"/>
    </svg>