<svg width="24" height="24" fill="none" viewBox="-2 -2 24 24" id="chz" x="264" y="316" xmlns="http://www.w3.org/2000/svg">
        <circle cx="10" cy="10" r="10" fill="#BA272D"/>
        <path fill-rule="evenodd" clip-rule="evenodd" d="M4.824 5.993c.067 0 .134-.006.198-.017l1.6 3.778a1.17 1.17 0 00.88 2.078l1.771 4.184a1.17 1.17 0 101.603 0l1.77-4.183a1.17 1.17 0 00.876-2.069l1.598-3.773.056.002A1.17 1.17 0 1014.12 4.32H5.88a1.17 1.17 0 10-1.056 1.673zM7.715 9.56a1.162 1.162 0 00-.05-.016L6.32 6.367l2.896 2.111-1.5 1.083zm.662 1.665a1.165 1.165 0 00.083-.917l1.643-1.185 1.58 1.152a1.166 1.166 0 00.08.969l-1.688 3.99-1.698-4.009zm5.41-4.758L12.485 9.54l-.032.008-1.462-1.065 2.794-2.015zM6.712 5.363h6.823l-3.43 2.474-3.393-2.474z" fill="#fff"/>
    </svg>