<svg width="25" height="25" fill="none" viewBox="-2 -2 25 25" id="clo" x="129" xmlns="http://www.w3.org/2000/svg">
        <circle cx="10.812" cy="10.14" r="10" fill="#fff"/>
        <path d="M6.125 2.73V8.98c0 .214.168.386.373.385l2.743-.012c.285-.002.462-.322.32-.578l-.356-.639a.546.546 0 00-.76-.211l-.039.022a.54.54 0 01-.752-.209.59.59 0 01-.045-.467l.57-1.77a.555.555 0 01.64-.384l1.765.372a.552.552 0 01.367.274.583.583 0 01-.201.78l-.038.023a.59.59 0 00-.204.79l.35.629a.365.365 0 00.642.001l1.371-2.438a.393.393 0 00-.135-.528L7.518 1.895c-.619-.37-1.393.093-1.393.835zM19.598 9.136L14.38 6.01a.364.364 0 00-.509.142l-1.36 2.47c-.142.258.037.577.322.577h.897a.379.379 0 00.371-.385V8.39c0-.213.166-.385.371-.385h.26c.107 0 .208.047.279.13l1.355 1.588a.396.396 0 010 .51l-1.355 1.591a.366.366 0 01-.279.13h-.26a.379.379 0 01-.37-.385v-.424a.379.379 0 00-.372-.385h-.886c-.285 0-.464.32-.323.576l1.35 2.451c.102.186.33.25.508.143l5.219-3.126c.619-.37.619-1.298 0-1.668z" fill="#34C88A"/>
        <path d="M7.515 18.032l5.219-3.125a.393.393 0 00.135-.528l-1.382-2.458a.365.365 0 00-.642.002l-.449.805a.393.393 0 00.136.527l.354.211a.393.393 0 01.136.527l-.13.233a.372.372 0 01-.247.185l-2.004.424a.37.37 0 01-.427-.255l-.65-2.014a.398.398 0 01.031-.315l.13-.233a.364.364 0 01.508-.141l.353.212a.364.364 0 00.508-.141l.443-.796c.142-.256-.035-.577-.32-.578l-2.721-.013a.379.379 0 00-.373.386v6.251c0 .742.773 1.205 1.392.834z" fill="#163F59"/>
    </svg>