<svg width="25" height="24" fill="none" viewBox="-2 -2 25 24" id="clp" x="129" y="25" xmlns="http://www.w3.org/2000/svg">
        <g clip-path="url(#dxclip0)">
            <path d="M10.5 20c5.523 0 10-4.477 10-10s-4.477-10-10-10S.5 4.477.5 10s4.477 10 10 10z" fill="#F0F0F0"/>
            <path d="M20.5 10c0 5.523-4.477 10-10 10S.5 15.523.5 10s10 0 10 0h10z" fill="#D80027"/>
            <path d="M.5 10c0-5.523 4.477-10 10-10v10H.5z" fill="#0052B4"/>
            <path d="M6.453 3.478L7.1 5.471h2.096L7.5 6.703l.648 1.993-1.695-1.232-1.696 1.232.648-1.993L3.71 5.47h2.095l.648-1.993z" fill="#F0F0F0"/>
        </g>
        <defs>
            <clipPath id="dxclip0">
                <path fill="#fff" transform="translate(.5)" d="M0 0h20v20H0z"/>
            </clipPath>
        </defs>
    </svg>