<svg width="24" height="24" fill="none" viewBox="-2 -2 24 24" id="cmt" x="288" y="316" xmlns="http://www.w3.org/2000/svg">
        <circle cx="10" cy="10" r="10" fill="url(#dypaint0_linear)"/>
        <path fill-rule="evenodd" clip-rule="evenodd" d="M2.901 10.224a7.362 7.362 0 017.362-7.361c1.261 0 2.347.226 3.288.713.942.487 1.715 1.223 2.368 2.206.643.968.38 2.273-.588 2.916-1.011.672-2.115.233-2.87-.53-.348-.354-.625-.62-.95-.806-.314-.179-.692-.293-1.248-.293a3.155 3.155 0 00-3.155 3.155c0 .937.169 1.802.598 2.498.423.685 1.12 1.241 2.252 1.53 1.012.257 2.02.338 2.912.252.22-.475.36-.97.463-1.412.043-.186.079-.36.112-.519l.023-.112c.038-.181.076-.357.12-.49.16-.498.45-.96.846-1.26.407-.308.927-.441 1.482-.25.588.2.927.724.957 1.352.03.615-.23 1.325-.782 2.02-.595.746-1.571 1.188-2.672 1.37a8.253 8.253 0 01-.053.008c-.58 1.024-1.567 1.932-3.287 2.04-3.668.23-7.178-2.958-7.178-7.027zm9.493 5.075a9.646 9.646 0 01-2.625-.306c-1.305-.333-2.177-.999-2.714-1.87-.53-.859-.712-1.881-.712-2.899a3.92 3.92 0 013.92-3.92c.674 0 1.185.142 1.626.394.43.245.774.584 1.117.932.63.637 1.33.811 1.902.431.615-.41.783-1.24.374-1.856-.595-.894-1.275-1.532-2.082-1.95-.809-.418-1.768-.627-2.937-.627a6.597 6.597 0 00-6.597 6.596c0 3.64 3.15 6.464 6.365 6.263 1.137-.07 1.87-.553 2.363-1.188zm1.366-.948c.771-.196 1.37-.539 1.732-.995.475-.596.635-1.129.617-1.506-.018-.364-.193-.581-.441-.666-.282-.097-.54-.039-.772.137-.243.184-.456.5-.581.886-.028.087-.058.22-.098.41l-.022.107c-.033.16-.072.345-.117.541-.076.33-.176.703-.318 1.086z" fill="#fff"/>
        <defs>
            <linearGradient id="dypaint0_linear" x1="24.75" y1="1.375" x2="-2.875" y2="20" gradientUnits="userSpaceOnUse">
                <stop stop-color="#9848C3"/>
                <stop offset=".536" stop-color="#3D97D7"/>
                <stop offset=".969" stop-color="#9EFCFF"/>
            </linearGradient>
        </defs>
    </svg>