<svg width="25" height="25" fill="none" viewBox="-2 -2 25 25" id="comp" x="129" y="73" xmlns="http://www.w3.org/2000/svg">
        <circle cx="10.337" cy="10.165" r="10" fill="#fff"/>
        <path fill-rule="evenodd" clip-rule="evenodd" d="M4.423 14.869a1.412 1.412 0 01-.676-1.204v-2.738a.587.587 0 01.885-.507l6.181 3.603c.361.211.584.597.584 1.016v2.838a.706.706 0 01-1.074.603l-5.9-3.611zm9.213-5.2c.36.212.584.597.584 1.016v5.758c0 .17-.092.327-.24.41l-1.353.761a.276.276 0 01-.055.023V14.44c0-.413-.217-.797-.572-1.01l-5.428-3.248V6.573a.587.587 0 01.885-.507l6.179 3.603zm2.704-4.252c.363.21.586.599.586 1.018v8.41a.472.472 0 01-.247.413l-1.282.693v-5.855c0-.414-.217-.796-.57-1.009L9.277 5.759V2.336a.59.59 0 01.883-.51l6.18 3.59z" fill="#000"/>
    </svg>