<svg width="24" height="24" fill="none" viewBox="-4 -4 36 36" id="cpd" x="432" y="508" xmlns="http://www.w3.org/2000/svg">
        <circle cx="125" cy="125" r="125" fill="#fff"/>
        <rect width="32" height="32" rx="16" fill="#1F2EFF"/><path d="M15.974 8.5a3.563 3.563 0 00-2.493 6.082A3.569 3.569 0 0016 15.632a7.289 7.289 0 001.5-.159v3.801c-.45.059-.9.094-1.5.1a7.324 7.324 0 01-6.975-5.1c-.023-.097-.073-.142-.158-.15-.082 0-.142.067-.166.15A7.501 7.501 0 0017.5 23.35v3.8A11.25 11.25 0 1115.956 4.75c.547 0 1.047.034 1.544.1v3.802a7.5 7.5 0 00-1.526-.152z" fill="#fff"/>
    </svg>