<svg width="24" height="24" fill="none" viewBox="250 250 650 650" id="csc" x="408" y="508" xmlns="http://www.w3.org/2000/svg">
        <circle fill="#fff" cx="600" cy="600" r="300"/>
        <g>
            <path fill="#105434" d="M600,299.996c-165.422,0-299.996,134.58-299.996,300c0,165.434,134.574,300.006,299.996,300.006   c165.424,0,299.996-134.572,299.996-300.006C899.996,434.576,765.424,299.996,600,299.996z M787.906,414.223l17.846-18.75   c34.994,35.209,61.047,79.314,74.42,128.588l-25.314,6.109c-10.271,2.471-22.986-2.975-28.273-12.131l-42.307-73.27   C778.996,435.619,780.635,421.877,787.906,414.223z M600,309.754c25.68,0,50.582,3.354,74.309,9.643l-7.367,24.986   c-2.988,10.125-14.068,18.416-24.629,18.416h-84.619c-10.564,0-21.646-8.291-24.635-18.416l-7.369-24.986   C549.422,313.107,574.33,309.754,600,309.754z M394.27,395.463l17.83,18.746c7.283,7.668,8.912,21.41,3.633,30.545l-42.311,73.285   c-5.273,9.143-17.99,14.588-28.266,12.131l-25.318-6.123C333.207,474.773,359.27,430.666,394.27,395.463z M412.1,785.791   l-17.838,18.756c-35.004-35.217-61.055-79.318-74.432-128.596l25.332-6.125c10.27-2.469,22.986,2.996,28.266,12.135l42.305,73.285   C421.018,764.381,419.383,778.123,412.1,785.791z M600,890.246c-25.672,0-50.578-3.354-74.311-9.643l7.369-24.986   c2.988-10.127,14.07-18.414,24.635-18.414h84.619c10.561,0,21.641,8.287,24.629,18.414l7.367,24.986   C650.582,886.893,625.68,890.246,600,890.246z M600,817.506c-120.125,0-217.5-97.385-217.5-217.51   c0-120.117,97.375-217.49,217.5-217.49c120.096,0,217.498,97.373,217.498,217.49C817.498,720.121,720.096,817.506,600,817.506z    M805.746,804.533l-17.84-18.742c-7.271-7.668-8.918-21.41-3.639-30.545l42.316-73.285c5.279-9.139,17.994-14.604,28.26-12.135   l25.328,6.121C866.793,725.223,840.74,769.33,805.746,804.533z"/>
            <path fill="#105434" d="M600,400.361c-110.25,0-199.641,89.375-199.641,199.629c0,110.256,89.391,199.65,199.641,199.65   c110.236,0,199.635-89.395,199.635-199.65C799.635,489.736,710.236,400.361,600,400.361z M713.029,693.967   c-1.299,2.379-4.545,3.891-7.201,3.402l-90.486-17.52c-2.674-0.563-3.553,0.854-2.057,3.137l47.754,69.469   c1.566,2.256,0.584,4.059-2.102,4.059H541.459c-2.701,0-3.672-1.803-2.146-4.059l47.76-69.469c1.525-2.283,0.588-3.699-2.045-3.137   l-88.9,17.205c-2.672,0.492-5.982-1.021-7.336-3.34l-35.814-61.709c-1.342-2.35-1.084-5.975,0.619-8.129l143.469-178.83   c1.707-2.074,4.467-2.074,6.195,0L746.367,623.33c1.684,2.172,2.027,5.818,0.725,8.221L713.029,693.967z"/>
        </g>
    </svg>