<svg width="24" height="24" fill="none" viewBox="-2 -2 24 24" id="cvc" x="350" y="120" xmlns="http://www.w3.org/2000/svg">
        <path d="M11.145 10.778a2.345 2.345 0 001.31-2.106 2.34 2.34 0 00-2.335-2.343 2.34 2.34 0 00-2.336 2.343 2.343 2.343 0 001.311 2.106v2.894h2.05v-2.894zM10.12 17.5c-4.123 0-7.476-3.364-7.476-7.5s3.354-7.5 7.476-7.5c3.364 0 6.216 2.24 7.152 5.312h2.576C18.854 3.342 14.876 0 10.12 0 4.615 0 .152 4.477.152 10s4.463 10 9.968 10c4.756 0 8.734-3.342 9.728-7.812h-2.576c-.937 3.072-3.788 5.312-7.152 5.312z" fill="#3AB03E"/>
    </svg>