<svg width="24" height="24" fill="none" viewBox="-2 -2 24 24" id="dai" x="350" y="144" xmlns="http://www.w3.org/2000/svg">
        <path d="M10 0c5.523 0 10 4.478 10 10 0 5.523-4.477 10-10 10-5.522 0-10-4.477-10-10C0 4.478 4.478 0 10 0z" fill="#F5AC37"/>
        <path d="M10.365 10.701h3.8c.081 0 .12 0 .125-.106a7.252 7.252 0 000-1.162c0-.075-.037-.106-.118-.106H6.609c-.093 0-.119.03-.119.119v1.112c0 .143 0 .143.15.143h3.725zm3.501-2.674a.122.122 0 000-.088 2.475 2.475 0 00-.226-.393 3.189 3.189 0 00-.463-.582c-.083-.106-.18-.2-.287-.281a4.492 4.492 0 00-1.875-.95 4.662 4.662 0 00-1.063-.112H6.596c-.093 0-.106.037-.106.118v2.219c0 .093 0 .119.119.119h7.212s.063-.013.075-.05h-.03zm0 3.975a1.459 1.459 0 00-.32 0h-6.93c-.094 0-.126 0-.126.125v2.169c0 .1 0 .125.126.125h3.2c.153.011.305 0 .455-.031a4.765 4.765 0 001.357-.3c.159-.055.312-.127.456-.213h.044a4.06 4.06 0 001.743-1.755s.044-.095-.005-.12zm-8.632 3.543V12.09c0-.081 0-.093-.1-.093H3.779c-.075 0-.106 0-.106-.1v-1.188h1.45c.081 0 .112 0 .112-.106V9.427c0-.075 0-.094-.1-.094H3.779c-.075 0-.106 0-.106-.1v-1.1c0-.068 0-.087.1-.087h1.344c.093 0 .118 0 .118-.118v-3.37c0-.099 0-.124.126-.124h4.687c.34.013.678.05 1.012.112a6.11 6.11 0 011.957.725c.4.237.77.522 1.1.85.247.257.47.535.668.832.197.3.36.62.488.956.016.087.1.146.187.131h1.119c.143 0 .143 0 .15.138v1.025c0 .1-.038.125-.138.125h-.863c-.087 0-.112 0-.106.113.034.38.034.762 0 1.143 0 .106 0 .119.12.119h.986c.044.056 0 .112 0 .17.006.072.006.145 0 .217v.757c0 .106-.03.138-.125.138h-1.181a.156.156 0 00-.182.118 4.997 4.997 0 01-1.312 1.913 7.546 7.546 0 01-.669.537c-.25.144-.494.294-.75.413a6.762 6.762 0 01-1.475.468 7.695 7.695 0 01-1.463.119H5.233v-.006l.001-.002z" fill="#FEFEFD"/>
    </svg>