<svg width="24" height="24" fill="none" viewBox="-2 -2 24 24" id="dash" x="350" y="192" xmlns="http://www.w3.org/2000/svg">
        <path d="M20 10.001c-.003 5.521-4.458 9.971-9.987 9.999C4.564 20.027-.116 15.564.003 9.776.112 4.34 4.555-.003 9.99 0 15.521.003 20.003 4.477 20 10.001z" fill="#048EE2"/>
        <path d="M6 14.987l.36-2.084h.58c1.26-.005 2.52.024 3.776-.027.96-.04 1.807-.39 2.313-1.337.248-.465.35-.98.46-1.492.087-.406.141-.817.126-1.235-.032-.856-.45-1.385-1.246-1.585a4.572 4.572 0 00-1.125-.126H7.6c-.078 0-.156-.007-.277-.013l.354-2.084h.441c1.461.003 2.923-.02 4.384.017.96.024 1.884.24 2.631.953.522.497.79 1.144.839 1.854.137 1.989-.204 3.864-1.409 5.473-.738.985-1.755 1.466-2.92 1.635-.474.069-.949.062-1.424.063-1.32.002-2.64 0-3.96 0-.079 0-.157-.007-.259-.012z" fill="#fff"/>
        <path d="M10 9.002c-.118.47-.17.922-.357 1.332-.21.457-.613.655-1.096.659-1.49.012-2.98.005-4.471.005-.015 0-.03-.014-.076-.036.106-.523.157-1.073.476-1.532.202-.292.536-.42.88-.422C6.89 8.995 8.425 9.002 10 9.002z" fill="#fff"/>
    </svg>