<svg width="24" height="24" fill="none" viewBox="-2 -2 24 24" id="derc" x="350" y="288" xmlns="http://www.w3.org/2000/svg">
        <g clip-path="url(#etclip0)">
            <mask id="eta" style="mask-type:alpha" maskUnits="userSpaceOnUse" x="1" y="0" width="20" height="20">
                <path d="M21 0H1v20h20V0z" fill="#C4C4C4"/>
            </mask>
            <g mask="url(#eta)">
                <path fill-rule="evenodd" clip-rule="evenodd" d="M4.734 15.167l3.453 2.135a3.717 3.717 0 003.937-.016l3.346-2.108c.566-.357.91-.979.91-1.648v-9.3a.249.249 0 00-.114-.209 11.3 11.3 0 00-12.342 0 .249.249 0 00-.113.208v9.282c0 .675.35 1.301.923 1.656zm-1.68-12.48c-.522.34-.836.92-.836 1.542v9.282a3.54 3.54 0 001.678 3.011l3.454 2.135a5.31 5.31 0 005.623-.023l3.346-2.108a3.54 3.54 0 001.654-2.996v-9.3c0-.623-.315-1.204-.836-1.544a12.893 12.893 0 00-14.084 0z" fill="#000"/>
                <mask id="etb" style="mask-type:alpha" maskUnits="userSpaceOnUse" x="-5" y="3" width="20" height="20">
                    <path d="M13.575 4.788c-.057-.107-.14-.24-.153-.333-.009-.066-.025-.132-.054-.158-.065-.06-.297.253-.291.269.006.016-.73-.594-1.067-.727-.32-.126-.124-.478-1.567-.257-.12.018-.259-.05-.348-.12a.613.613 0 00-.18-.095c-.242-.082-.503-.245-.865.251-.306.419-.449.43-.791.359-.118-.025-.137.014-.038.083.09.062.192.128.251.143.092.024.088.183-.06.173-.12-.007-.284-.133-.4-.168a1.239 1.239 0 00-.692.007c-.116.036-.1.072.02.09.159.022.339.113.294.42-.07.472-.818.38-1-.184-.037-.115-.044-.117-.043.004 0 .252.022.652.145.814.184.245.254.65-.377.872-.533.189-1.016.406-1.271.723-.077.094-.041.122.063.06.192-.113.476-.218.521.117.063.465-.988 1.82-1.666 2.222-.104.062-.292.12-.401.171-.419.198-.408.469-1.356.858-1.02.418-2.369 1.713-2.763 2.89-.038.114-.158.232-.26.296-.215.134-.54.472-.65 1.307-.172 1.287-2.405 1.373-1.452-.432.91-1.726 1.803-.712 2.163-2.176.029-.117.025-.117-.027-.008-.124.263-.443.692-1.22.75-1.133.086-1.996 1.192-2.057 1.944-.054.668.186 1.435.605 1.867.085.087.081.208-.04.216-.155.012-.379-.062-.599-.454-.058-.105-.07-.102-.028.012.227.61 1.036 2.237 2.707.31.08-.092.198-.25.288-.233.037.006.071.04.087.128.026.135-.062.289-.148.402-.073.096-.067.104.03.033.296-.22.883-.646 1.07-.718.118-.045.25-.081.358-.107a.458.458 0 01.373.104c.145.134.349.314.437.35.144.058.275.93-.083 1.22-.358.291-.41.789-.207 1.1.204.31.109.6.204.977.095.376.834.118 1.07.61.237.492.433 1.606.814 1.557.353-.045.688.052 1.466-.251a.193.193 0 00.101-.277c-.107-.19-.288-.473-.49-.624-.323-.24-.997-.068-1.679-1.47-.681-1.402.17-1.302.569-1.94.4-.638 1.642-1.83 1.316-2.652-.319-.801 1.994-.194 4.157-2.144a.271.271 0 01.331-.015c.111.08.254.167.362.183.18.027.774.606.492.91-.082.089-.277.147-.39.188-.659.239-1.582.586-1.564.918.02.368-.37.238-.317.63.01.071.018.128.026.171.016.094.147.16.267.145.122-.015.288-.052.479-.137.316-.14.604-.217.868-.251.12-.016.317-.018.436-.038.116-.02.2-.06.27-.148.075-.095.105-.091.155.019a.34.34 0 00.228.203c.269.068.361-.356.747-.395.386-.038.462-.443.998-.66.536-.217.164-.998.702-2.004.537-1.007-.388-1.174-.7-1.322-.279-.132-.62-.22-1.028-.65-.084-.087-.09-.244-.038-.353.135-.28.315-.844.034-1.49-.324-.744-.266-1.043-.111-1.29.063-.103.174-.093.221.018.033.079.066.175.089.277.026.118.028.315.051.434.064.326.215.738.09.976-.153.296-.074.502.03.523.055.01.063.095.077.177.02.111.185.21.288.273.174.107.437.197.783-.217.078-.093.186-.256.25-.358.359-.572.106-.438.248-.97.03-.117.097-.3.137-.415.17-.484.269-.729.402-.857.088-.083.3-.114.334-.21.034-.097.002-.284.121-.263.069.012.156.073.256.24.204.34-.054.55-.238.465-.11-.05-.126-.065-.076.045.074.162.242.333.618.156.455-.214.225-.835.069-1.153-.054-.108-.1-.291-.12-.41a.765.765 0 00-.288-.497c-.278-.201-.207-.717-.375-1.03z" fill="#000"/>
                </mask>
                <g mask="url(#etb)">
                    <path d="M3.014 14.225l1.859 2.39.885.619 2.301.974h3.806l4.957-3.452.177-10.533-2.744-2.213-6.196-.354L3.014 3.78v10.445z" fill="#000" stroke="#000" stroke-width=".611"/>
                </g>
            </g>
        </g>
        <defs>
            <clipPath id="etclip0">
                <path fill="#fff" d="M0 0h20v20H0z"/>
            </clipPath>
        </defs>
    </svg>