<svg width="24" height="24" fill="none" viewBox="-2 -2 24 24" id="dgb" x="350" y="312" xmlns="http://www.w3.org/2000/svg">
        <g clip-path="url(#euclip0)">
            <path d="M10 20.063c5.523 0 10-4.478 10-10 0-5.523-4.477-10-10-10s-10 4.477-10 10c0 5.522 4.477 10 10 10z" fill="#286BCB"/>
            <path d="M4.873 7.624h6.46s2.231-.02.689 2.855c0 0-1.126 2.251-3.919 2.21l1.505-3.844a.304.304 0 00-.275-.417l-1.98-.033-2.501 6.086s.834.083 1.292.042l-.25.625h1.18a.16.16 0 00.15-.104l.212-.563.5-.042-.291.709h1.15a.209.209 0 00.196-.133l.321-.826s3.502-.583 5.086-3.418c0 0 2.125-3.293-.375-4.46a4.836 4.836 0 00-1.543-.417l.292-.721a.142.142 0 00-.063-.179.142.142 0 00-.066-.017h-1.08l-.333.875h-.459l.259-.679a.146.146 0 00-.134-.196H9.812l-.333.875H6.11a.5.5 0 00-.442.263l-.796 1.509z" fill="#fff"/>
        </g>
        <defs>
            <clipPath id="euclip0">
                <path fill="#fff" d="M0 0h20v20H0z"/>
            </clipPath>
        </defs>
    </svg>