<svg width="25" height="24" fill="none" viewBox="-2 -2 25 24" id="dkk" y="124" xmlns="http://www.w3.org/2000/svg">
        <g clip-path="url(#exclip0)">
            <path d="M10.5 20c5.523 0 10-4.477 10-10s-4.477-10-10-10S.5 4.477.5 10s4.477 10 10 10z" fill="#F0F0F0"/>
            <path d="M20.415 8.696H8.326V.238C9.026.083 9.753 0 10.5 0c5.08 0 9.276 3.79 9.915 8.696zM5.717 1.216v7.48H.585a10.006 10.006 0 015.132-7.48zM5.717 11.304H.585a10.006 10.006 0 005.132 7.48v-7.48zM8.326 19.762v-8.458h12.09C19.775 16.211 15.58 20 10.5 20c-.747 0-1.474-.083-2.174-.238z" fill="#D80027"/>
        </g>
        <defs>
            <clipPath id="exclip0">
                <path fill="#fff" transform="translate(.5)" d="M0 0h20v20H0z"/>
            </clipPath>
        </defs>
    </svg>