<svg width="24" height="24" fill="none" viewBox="-2 -2 24 24" id="dlt" x="48" y="340" xmlns="http://www.w3.org/2000/svg">
        <circle cx="10" cy="10" r="10" fill="#1A325F"/>
        <path d="M9.642 4.735l-4.404 9.182h7.31a.53.53 0 01.488.32l.007.019a.443.443 0 01-.022.394.696.696 0 01-.604.35h-7.77a.607.607 0 01-.336-.102l-.041-.027a.608.608 0 01-.21-.77L9.256 3.408a.88.88 0 01.227-.29.51.51 0 01.645-.006.348.348 0 01.097.12L15.495 14a.66.66 0 01.043.47.411.411 0 01-.397.3h-.06a.634.634 0 01-.574-.365L9.96 4.737a.176.176 0 00-.32-.002z" fill="#fff"/>
    </svg>