<svg width="24" height="24" fill="none" viewBox="-2 -2 24 24" id="dmg" x="72" y="340" xmlns="http://www.w3.org/2000/svg">
        <path d="M10 20c5.523 0 10-4.477 10-10S15.523 0 10 0 0 4.477 0 10s4.477 10 10 10z" fill="#fff"/>
        <path d="M9.772 3.62c-.103.044-.12.111-.032.143.032.011.08.094.107.177a.45.45 0 00.1.197c.063.055.07.272.007.272-.024 0-.135-.102-.246-.225-.503-.555-.515-.563-.737-.563-.23 0-.281.055-.19.205a.72.72 0 01.083.205.767.767 0 00.115.236c.048.067.107.178.13.245l.044.126-.182-.08c-.1-.043-.21-.102-.246-.133-.087-.079-.099-.071-.253.083-.163.157-.167.189-.06.323.044.055.08.13.08.165 0 .036.079.225.182.414.099.193.17.375.158.402-.04.099-.222.063-1.015-.205-.099-.031-.3-.09-.456-.13-.15-.043-.329-.094-.396-.118a15.44 15.44 0 00-.773-.24c-.341-.099-.61-.186-.852-.276a1.964 1.964 0 00-.337-.103 1.539 1.539 0 01-.278-.094 1.86 1.86 0 00-.337-.115.893.893 0 01-.258-.102c-.055-.048-.095-.044-.293.035-.293.118-.313.142-.273.304.043.153.25.291.507.335.087.012.234.055.325.094.095.04.254.087.357.103.222.031.34.083.31.138-.04.059-.627.04-.956-.032-.262-.055-.333-.059-.547-.012a7.35 7.35 0 01-.4.075c-.171.028-.243.142-.112.19.04.011.107.063.15.11.088.098.524.24.841.28.274.031.448.094.448.153 0 .08-.107.103-.602.119-.543.015-.682.05-.698.173-.008.051 0 .106.02.126.016.016.265.06.547.095.559.067.813.122.813.173 0 .06-.127.09-.448.11-.17.012-.318.04-.33.056-.011.02.048.098.127.181.143.138.159.146.476.162.416.023.444.047.38.358-.063.304-.063.316.056.359.06.024.15.079.21.122.056.044.218.166.357.272.139.11.266.197.282.197.035 0 .487.359.622.489.052.051.266.181.476.288.559.28.876.59 1.447 1.427.051.07.162.212.253.315.088.098.274.323.413.496.139.174.313.379.388.458.187.2.563.71.563.764 0 .024.044.103.1.178.178.24.158.276-.326.67-.246.2-.257.205-.71.28-.253.039-.646.086-.872.098-.23.016-.424.043-.44.063-.011.024-.004.079.02.122.064.126.127.477.127.678 0 .19.012.205.472.777.277.346.36.362.678.15.055-.04.198-.135.317-.213l.317-.21c.056-.035.222-.145.369-.24l.27-.177.447.027c.246.016.512.044.583.064.075.023.293.05.484.067.32.023.353.015.428-.06.155-.165.274-.066.274.221 0 .185.047.233.3.296.155.04.21.079.314.224.067.099.15.178.178.178.032 0 .076-.071.1-.166.079-.315.285-.425.396-.209.048.091.087.119.178.119.143 0 .187-.063.103-.154a.543.543 0 01-.09-.209.803.803 0 00-.163-.284c-.123-.138-.14-.142-.405-.142-.226 0-.293-.015-.357-.079-.221-.22-.02-.303.825-.334.317-.016.845-.166.904-.26.012-.02.047-.036.083-.036.064 0 .206-.083.738-.422.146-.09.384-.248.535-.339a54.3 54.3 0 00.5-.327c.126-.083.269-.177.317-.201.122-.075.356-.063.46.02.083.067.087.09.055.268a.664.664 0 00.028.382c.103.3.134.307.313.106.146-.169.154-.189.158-.445 0-.268.036-.355.246-.599.052-.06.067-.165.076-.45l.007-.37-.194-.213a1.66 1.66 0 00-.531-.374c-.294-.146-.38-.17-.65-.181a3.973 3.973 0 00-.742.05c-.717.115-.931.056-1.022-.295-.032-.134-.12-.768-.219-1.655-.055-.485-.023-.398-.515-1.32a3.113 3.113 0 00-.293-.438 6.57 6.57 0 01-.286-.355c-.075-.106-.162-.217-.19-.252a16.69 16.69 0 01-.452-.591c-.52-.69-.622-.808-.872-.993a10.58 10.58 0 01-.706-.584 3.007 3.007 0 00-.218-.177 23.551 23.551 0 01-1.137-.938c-.131-.11-.226-.126-.377-.067z" fill="#327CCB"/>
    </svg>