<svg width="24" height="24" fill="none" viewBox="-2 -2 24 24" id="dnt" x="96" y="340" xmlns="http://www.w3.org/2000/svg">
        <path d="M19.181 8.116a6.269 6.269 0 00-.713-1.868c-.693-1.154-2.204-2.833-4.093-4.155 0 0-1.427-.924-2.099-1.239C9.821-.279 7.071-.51 4.72 1.568.774 5.073-1.198 9.963.774 14.833c.042.105 1.134 3.085 7.682 5.079 2.876.084 4.555-.084 6.402-1.154 2.413-1.386 3.82-3.904 4.323-6.465.147-.776.168-3.4 0-4.177z" fill="#04FFCC"/>
        <path d="M11.544 1.211v4.68l-5.415-.335-2.225 2.812-.273 5.31 1.847 1.973 2.77 1.386 3.632.398 3.945-1.007v-9.76l-.755-4.05S12.95.958 11.565.56" fill="#7DF8FB"/>
        <path d="M17.88 12.818c-.755-.042-.336-1.239-.671-2.603-.4-1.511.188-2.56.965-2.518.364.057.71.2 1.007.42a6.269 6.269 0 00-.713-1.869c-.693-1.154-2.204-2.833-4.093-4.155v12.656a1.278 1.278 0 01-2.435.545 4.98 4.98 0 11-.125-8.542V1.841a1.234 1.234 0 01.461-.987C9.821-.279 7.071-.51 4.72 1.568.774 5.073-1.198 9.963.774 14.833c.042.105.084.21.126.293.057-.118.136-.224.231-.314 1.029-1.05 2.162 1.091 4.576 2.33 1.532.776 2.413 1.804 2.75 2.77 2.245.273 4.554-.084 6.4-1.154 2.415-1.386 3.82-3.904 4.324-6.465-.362.317-.82.502-1.3.525zM9.655 2.869c.566-.02 1.091.65 1.112.966.021.314-.483.189-1.028.377-.609.21-1.05.021-1.07-.293-.022-.315.396-1.029.986-1.05z" fill="#2C398F"/>
        <path d="M8.414 12.902c1.218.692 2.687.42 2.96-1.134.147-.902.063-2.308-.735-2.75-2.644-1.51-4.87 2.372-2.225 3.884z" fill="#2C398F"/>
    </svg>