<svg width="24" height="24" fill="none" viewBox="-2 -2 24 24" id="dock" x="144" y="340" xmlns="http://www.w3.org/2000/svg">
        <path d="M10 20c5.523 0 10-4.477 10-10S15.523 0 10 0 0 4.477 0 10s4.477 10 10 10z" fill="#1676CF"/>
        <path d="M9.957 6.732l-1.018-1.02a.715.715 0 11.989-1.034l.023.023 2.273 2.273c.28.28.28.731 0 1.01l-2.275 2.273a.714.714 0 01-1.01-1.01l1.067-1.067a3.56 3.56 0 102.94 3.519v-7.86a.714.714 0 111.429 0v7.955A4.999 4.999 0 119.956 6.73v.003z" fill="#fff"/>
    </svg>