<svg width="24" height="25" fill="none" viewBox="-2 -2 24 25" id="doge" x="154" xmlns="http://www.w3.org/2000/svg">
        <circle cx="10" cy="10.874" r="10" fill="#BFA64A"/>
        <path d="M6.228 5.41h3.99c1.636 0 2.91.475 3.824 1.424.914.95 1.37 2.287 1.37 4.014 0 1.731-.456 3.079-1.37 4.043-.914.964-2.188 1.446-3.824 1.446h-3.99V5.411zM8.18 7.062v7.626h1.833c1.1 0 1.943-.329 2.529-.985.585-.656.878-1.605.878-2.847 0-1.222-.295-2.158-.886-2.81-.59-.655-1.43-.984-2.521-.984H8.18z" fill="#fff"/>
        <path d="M11.66 9.892v1.964H4.75V9.892h6.91z" fill="#fff"/>
    </svg>