<svg width="25" height="24" fill="none" viewBox="-2 -2 25 24" id="dop" x="25" y="124" xmlns="http://www.w3.org/2000/svg">
        <g clip-path="url(#ffclip0)">
            <path d="M10.5 20c5.523 0 10-4.477 10-10s-4.477-10-10-10S.5 4.477.5 10s4.477 10 10 10z" fill="#F0F0F0"/>
            <path d="M13.109 10a2.609 2.609 0 11-5.218 0c0-1.44 2.61-2.609 2.61-2.609S13.108 8.56 13.108 10z" fill="#496E2D"/>
            <path d="M7.891.344A10.017 10.017 0 00.844 7.391h7.047V.344zM13.109 19.655a10.018 10.018 0 007.046-7.046H13.11v7.046zM10.5 7.391A2.609 2.609 0 007.891 10h5.218A2.609 2.609 0 0010.5 7.391z" fill="#0052B4"/>
            <path d="M.844 12.609a10.018 10.018 0 007.047 7.047v-7.047H.844zM20.156 7.391A10.017 10.017 0 0013.109.344v7.047h7.047zM9.033 8.696v1.63a1.467 1.467 0 002.934 0v-1.63H9.033z" fill="#D80027"/>
        </g>
        <defs>
            <clipPath id="ffclip0">
                <path fill="#fff" transform="translate(.5)" d="M0 0h20v20H0z"/>
            </clipPath>
        </defs>
    </svg>