<svg width="24" height="24" fill="none" viewBox="-2 -2 24 24" id="dot" x="192" y="340" xmlns="http://www.w3.org/2000/svg">
        <circle cx="10.337" cy="10" r="10" fill="#fff"/>
        <path d="M10.55 2a5.666 5.666 0 00-3.918 1.579A5.303 5.303 0 005 7.369c0 .594.099 1.183.292 1.746.07.184.21.335.391.423.181.088.39.105.584.048a.781.781 0 00.43-.38.742.742 0 00.044-.563 3.413 3.413 0 01-.216-1.368 3.79 3.79 0 01.714-2.096 3.983 3.983 0 011.782-1.378 4.13 4.13 0 012.271-.213 4.05 4.05 0 012.022 1.021 3.843 3.843 0 011.118 1.924c.172.733.12 1.498-.15 2.203a3.889 3.889 0 01-1.37 1.766 4.087 4.087 0 01-2.143.755s-.776.048-1.166.095c-.143.02-.285.046-.425.08a.053.053 0 01-.035.01.053.053 0 01-.033-.014.05.05 0 01-.005-.066l.122-.637.73-3.204a.716.716 0 00-.105-.553.76.76 0 00-.479-.32.781.781 0 00-.572.103.736.736 0 00-.33.464s-1.74 7.822-1.74 7.893a.691.691 0 00.096.557.753.753 0 00.485.315.766.766 0 00.576-.096.732.732 0 00.326-.47c.024-.094.243-1.132.243-1.132.081-.382.28-.73.573-.999a1.996 1.996 0 011.06-.503c.167-.024.874-.07.874-.07a5.612 5.612 0 003.657-1.803 5.262 5.262 0 001.375-3.742 5.288 5.288 0 00-1.66-3.632A5.641 5.641 0 0010.55 2z" fill="#1E1E1E"/>
        <path d="M15.202 14.02a1.006 1.006 0 00-1.03.422.994.994 0 00-.15.36.979.979 0 00.423 1.028c.11.072.234.122.364.146a.979.979 0 001.034-.418.965.965 0 00.142-.364 1.024 1.024 0 00-.157-.742 1.034 1.034 0 00-.626-.432z" fill="#E6007A"/>
    </svg>