<svg width="25" height="24" fill="none" viewBox="-2 -2 25 24" id="dpi" x="50" y="124" xmlns="http://www.w3.org/2000/svg">
        <g clip-path="url(#fhclip0)">
            <circle cx="10.11" cy="10" r="10" fill="#7957DE"/>
            <path d="M11.274 19.933l-.082-.022-5.42-5.42 1.851-6.985 5.116-1.22 6.646 7.46a10.01 10.01 0 01-8.11 6.187z" fill="#361D67"/>
            <path d="M10.444 15.918c2.935 0 4.675-1.815 4.675-4.825 0-3.001-1.74-4.807-4.61-4.807H7.18v9.633h3.265zm-1.52-1.51V7.796h1.487c1.957 0 2.49.918 2.49 3.124 0 2.215-.9 2.772-2.908 2.772l-1.068.718z" fill="#9479E5"/>
            <path d="M9.004 14.458c2.935 0 4.675-1.816 4.675-4.826 0-3-1.74-4.807-4.61-4.807H5.74v9.633h3.265zm-1.52-1.51V6.335h1.487c1.957 0 2.977 1.091 2.977 3.297 0 2.215-1.02 3.316-3.029 3.316H7.485z" fill="#fff"/>
        </g>
        <defs>
            <clipPath id="fhclip0">
                <path fill="#fff" transform="translate(.13)" d="M0 0h20v20H0z"/>
            </clipPath>
        </defs>
    </svg>