<svg width="24" height="24" fill="none" viewBox="-2 -2 24 24" id="dusk" x="216" y="340" xmlns="http://www.w3.org/2000/svg">
        <circle cx="10" cy="10" r="10" fill="#fff"/>
        <path d="M16.37 11.118h-1.815a7.461 7.461 0 000-2.238h1.815a.348.348 0 000-.696h-1.955a7.355 7.355 0 00-1.94-3.418 7.378 7.378 0 00-5.962-2.131.054.054 0 00-.047.06.054.054 0 00.047.046 7.303 7.303 0 016.35 5.444H7.669a.348.348 0 000 .697h5.335a7.377 7.377 0 010 2.236H7.67a.348.348 0 000 .697h5.194a7.304 7.304 0 01-6.35 5.444.054.054 0 00-.048.058.054.054 0 00.048.048 7.377 7.377 0 005.962-2.131 7.369 7.369 0 001.94-3.42h1.955a.348.348 0 000-.696z" fill="#3B218C"/>
    </svg>