<svg width="24" height="24" fill="none" viewBox="-2 -2 24 24" id="egld" x="264" y="340" xmlns="http://www.w3.org/2000/svg">
        <circle cx="10" cy="10" r="10" fill="#fff"/>
        <path d="M7.563 6.02a4.514 4.514 0 012.485-.743c.884 0 1.72.24 2.484.744l1.601-1.583C12.891 3.48 11.53 3 10.048 3c-1.481 0-2.843.48-4.062 1.414l1.577 1.607zM14.3 5.805a.273.273 0 01-.071-.192c0-.072.024-.144.071-.192a.323.323 0 01.406 0c.048.048.096.12.096.192a.218.218 0 01-.095.192.27.27 0 01-.192.072c-.095 0-.167-.024-.215-.072zM13.584 6.548a.273.273 0 01-.072-.192c0-.072.024-.144.072-.192.095-.096.262-.096.382 0 .048.048.072.12.072.192a.272.272 0 01-.072.192.27.27 0 01-.191.072c-.072 0-.12-.024-.191-.072zM12.747 7.1c0 .071.024.143.072.191a.27.27 0 00.191.072.27.27 0 00.191-.072.273.273 0 00.072-.192.273.273 0 00-.072-.191c-.12-.096-.286-.096-.382 0a.273.273 0 00-.072.191zM12.079 8.034a.273.273 0 01-.072-.192c0-.071.024-.143.072-.191a.323.323 0 01.406 0c.047.048.071.12.071.191a.273.273 0 01-.071.192.27.27 0 01-.191.072c-.072 0-.168-.024-.216-.072zM11.29 8.586c0 .072.024.143.072.191.071.048.12.072.19.072a.27.27 0 00.192-.072.273.273 0 00.072-.191.273.273 0 00-.072-.192c-.12-.096-.287-.096-.382 0a.273.273 0 00-.072.192zM10.526 9.329c0-.072.024-.144.071-.192.096-.096.263-.096.383 0 .047.048.071.12.071.192a.273.273 0 01-.072.192.27.27 0 01-.19.071.27.27 0 01-.192-.071.273.273 0 01-.071-.192zM9.068 10.791c0 .072.024.144.072.192.072.048.12.072.191.072a.27.27 0 00.191-.072.273.273 0 00.072-.192.273.273 0 00-.072-.192c-.12-.096-.287-.096-.382 0a.273.273 0 00-.072.192zM8.375 11.726a.273.273 0 01-.071-.192c0-.072.024-.144.071-.192a.323.323 0 01.407 0c.047.048.071.12.071.192a.273.273 0 01-.071.192.27.27 0 01-.192.072.332.332 0 01-.215-.072zM7.587 12.277c0 .072.024.144.072.192.071.048.12.072.19.072a.271.271 0 00.192-.072.273.273 0 00.072-.192.273.273 0 00-.072-.191c-.12-.096-.287-.096-.382 0a.273.273 0 00-.072.191zM6.942 13.212a.273.273 0 01-.072-.191c0-.072.024-.144.072-.192.096-.096.263-.096.382 0 .048.048.072.12.072.191a.273.273 0 01-.072.192.27.27 0 01-.19.072.27.27 0 01-.192-.072zM6.058 13.764c0 .072.048.144.096.192a.385.385 0 00.215.071.27.27 0 00.19-.071.273.273 0 00.072-.192.273.273 0 00-.071-.192.323.323 0 00-.406 0 .218.218 0 00-.096.192zM5.437 14.699c-.048-.072-.072-.12-.072-.192 0-.072.024-.144.072-.192.095-.096.263-.096.382 0 .048.048.072.12.072.192a.273.273 0 01-.072.192.27.27 0 01-.191.072c-.072 0-.12-.024-.191-.072zM5.89 5.613a.273.273 0 01-.07.192.27.27 0 01-.192.072.27.27 0 01-.191-.072.273.273 0 01-.072-.192c0-.072.024-.144.072-.192.12-.096.287-.096.382 0 .048.048.072.12.072.192zM6.56 6.548a.273.273 0 00.071-.192.273.273 0 00-.071-.192.323.323 0 00-.406 0 .273.273 0 00-.072.192c0 .072.024.144.072.192a.27.27 0 00.19.072c.096 0 .168-.024.216-.072zM7.372 7.1a.273.273 0 01-.072.191.27.27 0 01-.19.072.27.27 0 01-.192-.072.273.273 0 01-.072-.192c0-.072.024-.144.072-.191.12-.096.287-.096.382 0 .048.047.072.12.072.191zM8.041 8.034a.273.273 0 00.072-.192.273.273 0 00-.072-.191c-.096-.096-.263-.096-.382 0a.273.273 0 00-.072.191c0 .072.024.144.072.192a.27.27 0 00.19.072.27.27 0 00.192-.072zM8.877 8.586c0 .072-.048.143-.095.191-.048.048-.144.072-.215.072a.27.27 0 01-.192-.072.273.273 0 01-.071-.191c0-.072.024-.144.071-.192.12-.096.311-.096.407 0 .071.048.095.12.095.192zM9.594 9.329a.273.273 0 00-.072-.192c-.095-.096-.263-.096-.382 0a.273.273 0 00-.072.192c0 .072.024.144.072.192a.27.27 0 00.191.071.27.27 0 00.191-.071.273.273 0 00.072-.192zM10.334 10.072a.273.273 0 01-.071.192.271.271 0 01-.191.072.271.271 0 01-.191-.072.273.273 0 01-.072-.192c0-.072.024-.144.072-.192.119-.096.286-.096.382 0 .048.048.071.12.071.192zM11.003 10.983a.273.273 0 00.072-.192.273.273 0 00-.072-.192.323.323 0 00-.406 0c-.047.048-.095.12-.095.192 0 .072.024.144.095.192a.27.27 0 00.191.072c.096 0 .168-.024.215-.072zM11.816 11.534a.273.273 0 01-.072.192.27.27 0 01-.191.072.27.27 0 01-.191-.072.273.273 0 01-.072-.192c0-.072.024-.144.072-.192.12-.095.286-.095.382 0 .048.048.072.12.072.192zM12.485 12.47a.273.273 0 00.071-.193.273.273 0 00-.071-.191c-.096-.096-.263-.096-.383 0a.273.273 0 00-.071.191c0 .072.024.144.071.192a.27.27 0 00.191.072.27.27 0 00.192-.072zM13.25 13.02a.273.273 0 01-.072.192c-.048.048-.096.072-.192.072a.27.27 0 01-.19-.072.273.273 0 01-.072-.191c0-.072.023-.144.071-.192.12-.096.287-.096.383 0 .047.048.071.12.071.191zM13.966 13.956a.272.272 0 00.072-.192.272.272 0 00-.072-.192c-.096-.096-.263-.096-.382 0a.273.273 0 00-.072.192c0 .072.024.144.072.192.047.047.12.071.19.071a.27.27 0 00.192-.071zM14.778 14.507a.273.273 0 01-.072.192.27.27 0 01-.19.072.27.27 0 01-.192-.072.218.218 0 01-.095-.192c0-.072.024-.144.071-.192a.323.323 0 01.406 0c.048.048.072.12.072.192zM5.246 10.048c-.024.887.239 1.726.74 2.493L4.41 14.123A6.45 6.45 0 013 10.048c0-1.486.478-2.853 1.41-4.075l1.576 1.582c-.477.767-.74 1.582-.74 2.493zM15.758 14.627c.62 0 1.099.503 1.099 1.102a1.098 1.098 0 11-2.198 0c-.024-.599.477-1.102 1.099-1.102zM5.485 15.73c0-.6-.502-1.103-1.1-1.103-.597 0-1.098.503-1.098 1.102 0 .6.501 1.103 1.099 1.103.62 0 1.099-.503 1.099-1.103zM15.781 3.24c.598 0 1.076.503 1.076 1.102 0 .624-.478 1.103-1.1 1.103a1.113 1.113 0 01-1.098-1.103c.023-.599.501-1.102 1.122-1.102zM5.46 4.342c0-.623-.477-1.102-1.098-1.102-.598 0-1.1.48-1.1 1.102 0 .624.502 1.103 1.1 1.103.597 0 1.099-.503 1.099-1.103zM12.437 13.98c-.74.479-1.577.743-2.485.743-.884 0-1.72-.24-2.484-.744l-1.601 1.583C7.109 16.52 8.47 17 9.952 17c1.481 0 2.843-.48 4.062-1.414l-1.577-1.607zM14.754 9.952c.024-.887-.239-1.726-.74-2.493l1.577-1.582A6.45 6.45 0 0117 9.952c0 1.486-.478 2.853-1.41 4.075l-1.576-1.582c.478-.767.74-1.582.74-2.493z" fill="#000"/>
    </svg>