<svg width="24" height="24" fill="none" viewBox="-2 -2 24 24" id="elf" x="312" y="340" xmlns="http://www.w3.org/2000/svg">
        <circle cx="10" cy="10" r="10" fill="#923FD6"/>
        <path d="M13.486 12.393a2.513 2.513 0 100-5.026 2.513 2.513 0 000 5.026zM10.31 6.423a1.212 1.212 0 100-2.423 1.212 1.212 0 000 2.423zM10.31 15.765a1.212 1.212 0 100-2.423 1.212 1.212 0 000 2.423zM9.755 11.694a.76.76 0 10-.412-1.134v.006a.333.333 0 00-.053.101c-.836 1.475-2.513.49-2.513.49a1.826 1.826 0 10-.937 3.396c.704 0 1.319-.4 1.617-.985v-.006a1.92 1.92 0 00.132-.322c.871-2 2.166-1.546 2.166-1.546zm-.43-2.68a.827.827 0 00.138.185.75.75 0 001.068 0 .75.75 0 000-1.068.745.745 0 00-.692-.203h-.006a.416.416 0 00-.113.035c-1.636.454-2.125-1.432-2.125-1.432a1.81 1.81 0 00-.478-.842A1.821 1.821 0 104.54 8.262c.5.501 1.211.65 1.844.448h.006c.107-.036.215-.084.322-.138 2.024-.8 2.615.442 2.615.442z" fill="#fff"/>
    </svg>