<svg width="24" height="24" fill="none" viewBox="-2 -2 24 24" id="eng" x="374" xmlns="http://www.w3.org/2000/svg">
        <circle cx="10" cy="10" r="10" fill="#fff"/>
        <g clip-path="url(#foclip0)">
            <path d="M10.009 5.777l3.535 2.132-3.535 2.022-3.695-2.022 3.695-2.132z" fill="#EA259E"/>
            <path d="M6.314 7.986L10.009 10l-.021 4.112-3.674-1.945V7.986z" fill="#014C99"/>
            <path d="M10.009 10l3.577-2.014.104 4.181-3.633 2.021L10.01 10z" fill="#08B0F9"/>
            <path d="M17.357 5.52l-.055-.035-3.529-2.021-3.695-2.118-.048-.028-.042.02a1.41 1.41 0 00-.201.09L6.564 3.312 2.577 5.645c-.167.076-.16.25-.16.354v.077l-.007 5.917-.007 2.195c-.007.132.049.25.146.292l4.584 2.605 2.71 1.542a.34.34 0 00.173.055.201.201 0 00.132-.041l3.917-2.258 3.334-1.917c.125-.055.201-.18.18-.298l.014-8.315c.021-.194-.138-.284-.236-.333zm-7.355.528l3.23 1.875-3.223 1.855L8.91 9.16 6.744 7.93l3.258-1.882zm3.667 1.618l-3.5-2.035a.277.277 0 00-.32-.007L6.307 7.68 3.084 5.853l2.25-1.312 4.675-2.73 4.3 2.466 2.625 1.507-3.265 1.882zM2.862 6.236l3.209 1.82.062 4a.296.296 0 00.153.285l2.132 1.222 1.369.785v3.744l-6.94-3.945.015-7.912zm3.653 2.07l3.278 1.854-.006 3.681-3.21-1.84-.062-3.696zm3.716 6.049l1.368-.792 2.112-1.208.02-.014a.344.344 0 00.126-.104l.02-.028v-.035l-.006-2.653V8.062l3.278-1.896v3.23l-.007 4.709-4.397 2.528-2.52 1.452.006-3.73zm0-.507V10.16l3.23-1.862v3.695l-3.23 1.855z" fill="#2F2F2F"/>
            <path d="M9.912 2.242a.298.298 0 00-.223.16c-.041.097-.034.2.014.27a.294.294 0 00.306.125.26.26 0 00.23-.201.264.264 0 00-.063-.264.285.285 0 00-.264-.09zm.187 1.215a.3.3 0 00-.305.007.292.292 0 00-.14.215.28.28 0 00.09.23.278.278 0 00.202.076.32.32 0 00.125-.028.267.267 0 00.174-.25c.007-.097-.055-.194-.146-.25zm.007 1.195a.302.302 0 00-.306-.014.267.267 0 00-.145.222c-.007.097.034.202.11.25a.285.285 0 00.181.056.32.32 0 00.244-.12.27.27 0 00-.084-.394zM5.39 12.438a.277.277 0 00-.201.215.284.284 0 00.09.278.274.274 0 00.236.056.27.27 0 00.194-.16.267.267 0 00-.048-.306.257.257 0 00-.271-.083zm8.974.563a.245.245 0 00.07-.014c.09-.021.166-.084.187-.153a.3.3 0 00-.049-.32.27.27 0 00-.284-.076.288.288 0 00-.097.493.22.22 0 00.173.07zm-9.988.034a.27.27 0 00-.18.243.277.277 0 00.131.278c.042.027.09.041.14.042.04-.001.08-.01.117-.028.09-.042.153-.125.16-.201a.3.3 0 00-.104-.285.25.25 0 00-.264-.049zm10.974.556a.27.27 0 00.097-.014c.098-.035.167-.118.174-.201a.278.278 0 00-.083-.285.264.264 0 00-.278-.056.3.3 0 00-.083.5c.05.038.11.057.173.056zm-11.738.063a.257.257 0 00-.264 0 .275.275 0 00-.146.25c0 .11.056.208.146.25a.245.245 0 00.125.034.285.285 0 00.153-.041.298.298 0 00.132-.257.29.29 0 00-.146-.244v.007zm12.565.472a.25.25 0 00.166.062.27.27 0 00.105-.02.291.291 0 00.173-.223.276.276 0 00-.125-.285.251.251 0 00-.285-.007.29.29 0 00-.138.237.265.265 0 00.104.236z" fill="#2F2F2F"/>
        </g>
        <defs>
            <clipPath id="foclip0">
                <path fill="#fff" transform="translate(2.403 1.318)" d="M0 0h15.19v17.364H0z"/>
            </clipPath>
        </defs>
    </svg>