<svg width="24" height="24" fill="none" viewBox="-2 -2 24 24" id="enj" x="374" y="24" xmlns="http://www.w3.org/2000/svg">
        <path d="M10 20c5.523 0 10-4.477 10-10S15.523 0 10 0 0 4.477 0 10s4.477 10 10 10z" fill="#7866D5"/>
        <path d="M10.844 15.493c-1.01 0-2.018-.008-3.02-.027a10.407 10.407 0 01-1.895-.22c-1.53-.317-2.33-1.14-2.588-2.67-.04-.235-.066-.475-.091-.705a22.65 22.65 0 00-.036-.308l-.001-.03.001-2.65.026-.249c.018-.176.036-.351.056-.525.202-1.728 1.015-2.629 2.716-3.007.446-.098.896-.14 1.332-.179.142-.013.283-.025.424-.04l.027-.002h6.276l.015.001c.105.013.21.024.316.034.238.024.483.05.727.097.806.157 1.116.611.978 1.43a.809.809 0 01-.701.698c-.165.027-.343.04-.518.036-2.19.007-4.386.012-6.581.016-.313.003-.631.032-.941.085-.977.161-1.299.51-1.376 1.494-.007.088-.014.175-.016.236.061.004.15.004.237.004h9.003c.185 0 .365.05.525.144.482.31.441.776.412 1.118l-.012.138c-.024.4-.275.669-.707.752a2.492 2.492 0 01-.443.031H5.967c.002.013.002.027.003.04l.002.017c.01.293.047.578.107.855.111.443.375.71.828.838.605.17 1.228.196 1.757.199 1.668.011 3.365.01 5.006.008h1.415c.21 0 .644 0 .9.404.166.265.216.576.146.876a1.147 1.147 0 01-.752.83c-.522.168-1.056.199-1.51.207-1.007.016-2.016.024-3.025.024z" fill="#fff"/>
    </svg>