<svg width="24" height="24" fill="none" viewBox="-2 -2 24 24" id="ens" x="374" y="48" xmlns="http://www.w3.org/2000/svg">
        <circle cx="10" cy="10" r="10" fill="url(#fqpaint0_linear_2140_2572)"/>
        <path d="M5.667 8.76c.129.274.447.817.447.817L9.79 3.5 6.202 6.005c-.214.143-.389.336-.51.562a2.6 2.6 0 00-.025 2.192zM4.21 10.76a4.09 4.09 0 001.607 2.973L9.785 16.5s-2.483-3.578-4.577-7.138a3.596 3.596 0 01-.42-1.214c-.03-.194-.03-.39 0-.583-.055.1-.161.308-.161.308a4.713 4.713 0 00-.429 1.373 8.396 8.396 0 00.013 1.514zM14.334 11.24c-.128-.274-.446-.817-.446-.817L10.212 16.5l3.588-2.504c.213-.142.389-.335.51-.562a2.6 2.6 0 00.024-2.193zM15.791 9.24a4.091 4.091 0 00-1.606-2.973L10.217 3.5s2.481 3.578 4.577 7.138c.211.377.353.788.419 1.214.03.194.03.39 0 .583.054-.1.16-.308.16-.308.213-.433.357-.896.43-1.373a8.4 8.4 0 00-.012-1.514z" fill="#fff"/>
        <path style="mix-blend-mode:color" d="M5.692 6.567c.121-.226.296-.42.51-.562L9.79 3.5 6.114 9.578s-.321-.542-.447-.817a2.6 2.6 0 01.025-2.194zM4.21 10.76a4.09 4.09 0 001.606 2.973L9.785 16.5s-2.483-3.578-4.577-7.138a3.596 3.596 0 01-.42-1.214c-.03-.194-.03-.39 0-.583-.055.1-.161.308-.161.308a4.713 4.713 0 00-.429 1.373 8.396 8.396 0 00.013 1.514zm10.117.482c-.128-.274-.446-.817-.446-.817l-3.67 6.075 3.588-2.504c.214-.142.389-.335.51-.562a2.601 2.601 0 00.025-2.193l-.007.001zm1.457-2a4.09 4.09 0 00-1.606-2.973L10.217 3.5s2.481 3.578 4.577 7.138c.211.377.353.788.42 1.214.028.194.028.39 0 .583.054-.1.16-.308.16-.308.212-.433.357-.896.428-1.373a8.4 8.4 0 00-.01-1.514l-.007.001z" fill="#fff"/>
        <defs>
            <linearGradient id="fqpaint0_linear_2140_2572" x1="4" y1="2" x2="15.5" y2="18.5" gradientUnits="userSpaceOnUse">
                <stop stop-color="#8098FA"/>
                <stop offset="1" stop-color="#4DB5F2"/>
            </linearGradient>
        </defs>
    </svg>