<svg width="25" height="24" fill="none" viewBox="-2 -2 25 24" id="eur" x="100" y="124" xmlns="http://www.w3.org/2000/svg">
        <g clip-path="url(#fvclip0)">
            <path d="M10.882 20c5.523 0 10-4.477 10-10s-4.477-10-10-10-10 4.477-10 10 4.477 10 10 10z" fill="#0064DC"/>
            <path d="M10.882 3.913l.324.996h1.048l-.848.616.324.997-.848-.616-.847.616.323-.997-.847-.616h1.048l.323-.996zM6.578 5.696l.934.475.74-.74-.163 1.034.933.476-1.035.164-.164 1.035-.475-.934-1.035.164.74-.74-.475-.934zM4.795 10l.997-.324V8.628l.616.848.996-.324-.616.848.616.848-.996-.324-.616.848v-1.048L4.795 10zM6.578 14.304l.476-.934-.741-.74 1.035.164.475-.934.164 1.035 1.035.164-.933.476.164 1.034-.741-.74-.934.475zM10.882 16.087l-.323-.996H9.51l.848-.616-.324-.997.847.616.848-.616-.324.997.848.616h-1.048l-.324.996zM15.187 14.304l-.934-.476-.74.741.163-1.035-.934-.475 1.035-.164.164-1.035.476.934 1.035-.164-.741.74.476.934zM16.97 10l-.997.324v1.047l-.616-.847-.996.324.615-.848-.615-.848.996.324.616-.848v1.048l.996.324zM15.187 5.696l-.476.933.74.741-1.034-.164-.476.934-.164-1.035-1.034-.164.933-.476-.164-1.034.741.74.934-.475z" fill="#FFDA44"/>
        </g>
        <defs>
            <clipPath id="fvclip0">
                <path fill="#fff" transform="translate(.882)" d="M0 0h20v20H0z"/>
            </clipPath>
        </defs>
    </svg>