<svg width="32" height="32" id="eurs" fill="none" xmlns="http://www.w3.org/2000/svg" viewBox="0 0 32 32"><path d="M0 16C0 7.163 7.163 0 16 0s16 7.163 16 16-7.163 16-16 16S0 24.837 0 16z" fill="url(#EURS_svg__paint0_linear_1309_160)"/><path d="M20.637 19.874c-.538 0-.762.313-1.165.604-.896.695-1.702.986-2.755.986-1.904 0-3.383-1.03-4.1-2.755h3.876c.515 0 .94-.403.94-.919a.932.932 0 00-.94-.94h-4.346c-.022-.27-.045-.56-.045-.852 0-.268.023-.515.045-.761h5.309c.538 0 .94-.403.94-.941 0-.515-.402-.918-.94-.918h-4.883c.717-1.77 2.195-2.845 4.144-2.845 1.075 0 1.904.291 2.755.985.403.292.627.605 1.165.605.56 0 1.008-.493 1.008-1.075 0-.314-.112-.582-.426-.896C20.1 9.01 18.464 8.36 16.627 8.36c-3.248 0-5.734 1.971-6.63 5.018H8.563a.927.927 0 00-.94.918c0 .538.425.94.94.94h1.098c-.023.247-.023.494-.023.762 0 .292.023.583.045.852H8.541a.919.919 0 00-.941.94c0 .516.403.919.94.919h1.502c.918 2.979 3.404 4.928 6.585 4.928 1.837 0 3.472-.65 4.592-1.792.314-.314.426-.583.426-.896 0-.583-.448-1.075-1.008-1.075z" fill="#fff"/><defs><linearGradient id="EURS_svg__paint0_linear_1309_160" x1="27.304" y1="4.696" x2="4.686" y2="27.314" gradientUnits="userSpaceOnUse"><stop stop-color="#B742EE"/><stop offset="0.393" stop-color="#144BFF"/><stop offset="1" stop-color="#15BCFF"/></linearGradient></defs></svg>