<svg width="24" height="24" fill="none" viewBox="-2 -2 24 24" id="eut" x="374" y="144" xmlns="http://www.w3.org/2000/svg">
        <circle cx="10" cy="10" r="10" fill="#fff"/>
        <path d="M9.712 5.431c.27-1.031.644-1.403 3.274-3.25.142-.1.277-.181.3-.181.024 0 .035.678.025 1.506-.019 1.473-.022 1.514-.152 1.854a4.77 4.77 0 01-.307.634c-.308.508-.475.65-2.44 2.075l-.772.56-.014-1.409c-.012-1.255-.003-1.45.086-1.789zM3.96 9.229c-.297-.682-.32-.901-.32-3.034V4.257l.219.162c.12.09.562.41.98.713 1.284.927 2.315 1.715 2.596 1.981.312.296.63.745.803 1.13.36.803.397 1.11.397 3.265 0 .974-.019 1.77-.042 1.77-.023 0-.254-.156-.511-.347a75.944 75.944 0 00-.866-.631c-1.45-1.038-1.983-1.446-2.384-1.828a3.393 3.393 0 01-.873-1.243zM15.531 6.469c.074-.049.273-.192.443-.319a2.52 2.52 0 01.348-.233c.02-.002.038 1.069.038 2.379 0 2.57-.028 2.946-.283 3.772a5.363 5.363 0 01-1.461 2.299c-.188.172-.616.513-.952.758l-1.527 1.114c-.232.17-.488.356-.57.412-.08.057-.52.377-.978.712-.458.335-.865.622-.904.637-.112.043-.103-4.666.01-5.314.13-.747.398-1.426.841-2.137.33-.53 1.182-1.308 2.4-2.19a191.336 191.336 0 002.132-1.556c.181-.135.39-.285.463-.334z" fill="#438E87"/>
    </svg>