<svg width="24" height="24" fill="none" viewBox="-2 -2 24 24" id="evx" x="374" y="192" xmlns="http://www.w3.org/2000/svg">
        <path d="M10 20c5.523 0 10-4.477 10-10S15.523 0 10 0 0 4.477 0 10s4.477 10 10 10z" fill="#044AAC"/>
        <path fill-rule="evenodd" clip-rule="evenodd" d="M6.301 10.756l-1.636 1.638-.769.768A6.836 6.836 0 013.125 10 6.883 6.883 0 0110 3.125 6.883 6.883 0 0116.875 10 6.883 6.883 0 0110 16.875a6.839 6.839 0 01-4.742-1.901l.726-.727 5.261-5.26a1.013 1.013 0 011.687-.67c.185.167.303.398.328.647l2.421 2.422A5.854 5.854 0 0010 4.153a5.854 5.854 0 00-5.7 7.153L5.853 9.75a1.013 1.013 0 011.649-.617c.182.153.304.364.346.598l.99.988-.727.727-.696-.697a1.006 1.006 0 01-1.115.007zm5.443-.816l-4.948 4.949c.95.626 2.065.96 3.204.959a5.855 5.855 0 005.304-3.387l-2.528-2.529a1.006 1.006 0 01-1.032.008zm.528-1.322a.455.455 0 10-.033.909.455.455 0 00.033-.91zm-5.413.829a.455.455 0 100 .91.455.455 0 000-.91z" fill="#fff"/>
    </svg>