<svg width="25" height="24" fill="none" viewBox="-2 -2 25 24" id="farm" x="125" y="124" xmlns="http://www.w3.org/2000/svg">
        <g clip-path="url(#fzclip0)">
            <circle cx="10.11" cy="10" r="10" fill="#9FC7FF"/>
            <path d="M10.11 20c5.523 0 10-4.477 10-10h-20c0 5.523 4.478 10 10 10z" fill="#FFE3A0"/>
            <path d="M12.1 3.052a19.02 19.02 0 012.199.03c.066-.05.069-.098.024-.171-.055-.089-.141-.123-.225-.155-.632-.242-1.293-.23-1.95-.17-.48.044-.958.12-1.435.197l-.269.042a6.637 6.637 0 00-.88.18c-.092.028-.171.08-.16.197.191.058.383.059.58.026.204-.034.41-.054.616-.07l.244-.02c.419-.033.837-.066 1.256-.086z" fill="#EFBB08"/>
            <path fill-rule="evenodd" clip-rule="evenodd" d="M8.721 6.81c.027.03.023.066.019.1a.704.704 0 00-.002.019c-.032.327-.03.656-.028.984a20.67 20.67 0 01-.003.532c-.007.446-.014.89-.082 1.332a.58.58 0 00.026.22l.02.083c.018.094.016.154-.109.167-.391.039-.742.199-1.092.359l-.231.104c-.098.043-.153.081-.032.18.181.147.32.33.45.53.052.08.11.157.169.235.092.12.184.243.255.38a4.757 4.757 0 01.43 1.1c.021.088.05.205-.053.24-.095.033-.188-.055-.24-.153l-.134-.256c-.101-.195-.202-.39-.312-.58a3.18 3.18 0 00-1.754-1.464 4.278 4.278 0 00-2.293-.142.342.342 0 01-.034.004c-.05.005-.11.01-.108.078.002.068.064.069.117.069h.018c.061.001.107.028.103.089a.385.385 0 00.008.083c.01.065.021.132-.043.16a2.473 2.473 0 00-.498.331c-.097.077-.195.154-.299.22l-.032-.258a9.253 9.253 0 01-.082-.902c-.012-.236-.024-.47-.051-.705-.025-.21.043-.298.241-.346.265-.063.501-.192.733-.33.12-.072.155-.19.154-.32-.002-.18-.007-.362-.018-.542-.006-.113-.088-.136-.237-.09a9.83 9.83 0 01-.623.176c-.06.017-.134.038-.17-.036-.041-.087-.02-.174.045-.259.22-.286.521-.422.86-.51.212-.055.422-.116.632-.178.227-.067.454-.134.684-.192a13.69 13.69 0 012.007-.374c.13-.017.26-.033.39-.047.057-.006.104-.031.15-.057l.034-.018c.082.101.292.107.427.012.166.04.329.013.492-.013l.096-.016zM4.182 8.726c-.001.054-.002.107.003.16.01.104.066.16.179.14l.512-.09c.359-.063.718-.127 1.076-.194a37.197 37.197 0 012.19-.357c.15-.02.2-.083.19-.22l-.01-.112a3.202 3.202 0 01-.015-.258v-.009c0-.19 0-.199-.194-.179-.587.063-1.17.151-1.75.25-.623.107-1.24.239-1.854.384-.32.077-.32.086-.325.407v.006l-.002.072z" fill="#EFBB08"/>
            <path d="M17.75 10.08c-.087.011-.115-.046-.11-.113.008-.11-.049-.181-.113-.26l-.008-.01c-.3-.372-.635-.709-.984-1.032-.343-.317-.73-.577-1.173-.726a2.747 2.747 0 00-.489-.1 3.867 3.867 0 01-.358-.063 2.146 2.146 0 00-.674-.052c-.548.04-1.096.114-1.607.323-.514.21-1.014.45-1.411.863a4.597 4.597 0 00-.693.938 2.142 2.142 0 01-.223.333c-.104.125-.234.121-.366.11-.112-.009-.085-.104-.064-.167.141-.425.31-.836.507-1.24.25-.505.638-.878 1.08-1.19.406-.289.876-.464 1.361-.6.159-.044.32-.076.48-.109.12-.024.24-.048.358-.077.266-.065.555-.078.835-.03.17.028.338.022.508.016l.032-.001c.061.076.137.104.237.117.486.064.94.239 1.378.448l.101.048c.246.117.493.234.714.396l.005.004c.048.035.093.068.087.128-.019.21.062.389.142.568.034.074.067.149.093.226.1.292.195.585.278.883.01.034.022.068.036.101.033.085.067.17.04.268z" fill="#EFBB08"/>
            <path d="M13.769 14.259c-1.242-.058-2.191-.85-2.207-2.143-.014-1.277.962-2.217 2.203-2.21 1.294.007 2.174.938 2.203 2.207.029 1.246-1.003 2.116-2.2 2.146zM3.457 13.585c-.002.84.665 1.51 1.504 1.513.865.002 1.537-.637 1.54-1.469a1.549 1.549 0 00-1.52-1.546c-.799-.005-1.522.673-1.524 1.502z" fill="#EFBB08"/>
            <path d="M14.583 12.073a.806.806 0 11-1.613 0 .806.806 0 011.613 0zM4.94 14.192a.553.553 0 100-1.107.553.553 0 000 1.107z" fill="#262624"/>
            <path fill-rule="evenodd" clip-rule="evenodd" d="M14.298 3.082c-.068.141-.034.28-.002.417.013.053.025.105.032.158.052.419.09.84.129 1.26a90.36 90.36 0 00.13 1.339c.02.181.038.363.056.545a.32.32 0 01-.002.064l-.002.027-.033.002c-.169.006-.338.012-.507-.017a2.088 2.088 0 00-.835.03 8.969 8.969 0 01-.358.078c-.16.032-.322.064-.48.109-.485.136-.955.31-1.361.599-.442.312-.831.686-1.08 1.191a9.791 9.791 0 00-.507 1.24c-.021.062-.048.157.063.167.132.01.263.014.367-.111a2.17 2.17 0 00.222-.333 4.58 4.58 0 01.693-.937c.397-.413.897-.653 1.411-.863.512-.21 1.06-.283 1.608-.324.225-.017.45-.002.674.053.117.028.237.045.358.062.166.024.332.048.489.1.442.15.83.41 1.172.727.35.323.684.66.984 1.03l.009.01c.064.08.12.15.112.262-.005.066.024.124.11.112-.007.118-.072.15-.18.123l-.018-.005c-.036-.01-.074-.02-.098.015-.029.042.002.069.03.093l.022.02a.801.801 0 01.163.33c.043.153.094.303.146.453l.061.18c.032.094.017.152-.095.18-.258.068-.254.077-.16.33l.004.012c.13.35.218.711.273 1.08.012.08-.013.155-.038.228l-.015.044c-.032.1-.065.201-.099.301l-.098.302c-.063.196-.143.238-.32.133-.125-.076-.17-.022-.201.083l-.044.15c-.054.188-.108.376-.183.558a1.67 1.67 0 01-.588.756c-.136.095-.27.202-.398.31-.107.088-.176.054-.235-.053l-.012-.023a.25.25 0 00-.016-.032c-.114-.18-.124-.178-.287-.029-.15.138-.325.242-.499.347a8.019 8.019 0 00-.209.128l-.005.004a.887.887 0 00-.105.073c-.125.107-.257.182-.433.172-.148-.007-.297-.006-.446-.004h-.223c-.183 0-.223-.043-.213-.22.011-.201.002-.211-.199-.201-.275.014-.55.018-.824-.013-.206-.024-.405-.074-.563-.22-.084-.078-.184-.132-.283-.186-.097-.053-.194-.105-.278-.18-.147-.133-.163-.152-.039-.295.088-.1.077-.158-.037-.23a4.225 4.225 0 01-.805-.654c-.095-.098-.184-.194-.22-.332-.02-.082-.066-.14-.175-.139-.485.003-.97.002-1.456 0H8.35l-.52-.001c-.224 0-.228.013-.26.23-.117.82-.508 1.473-1.213 1.928-.694.448-1.437.525-2.218.283a2.357 2.357 0 01-.916-.54c-.753-.704-1.018-1.563-.778-2.572.085-.352.236-.67.464-.953a.33.33 0 00.08-.228c.105-.067.203-.144.3-.221.156-.123.313-.246.497-.33.064-.029.053-.095.042-.16a.384.384 0 01-.007-.083c.004-.062-.042-.089-.104-.09H3.7c-.053 0-.114 0-.116-.068-.002-.068.057-.073.106-.078a.332.332 0 00.036-.004 4.273 4.273 0 012.293.142c.771.269 1.348.764 1.754 1.464.106.185.204.374.303.563l.142.273c.052.097.145.185.24.153.105-.035.075-.153.053-.241l-.005-.022a4.779 4.779 0 00-.425-1.078 2.685 2.685 0 00-.253-.377 4.045 4.045 0 01-.17-.238c-.131-.2-.27-.383-.45-.53-.121-.098-.067-.137.031-.18l.234-.105c.35-.16.7-.319 1.09-.358.125-.012.126-.073.108-.166L8.652 10c-.018-.075-.037-.152-.026-.223.067-.442.075-.886.082-1.331l.001-.075c.003-.153.002-.306.001-.459a9.603 9.603 0 01.029-.984c0-.006 0-.012.002-.019.004-.034.008-.07-.02-.1.075-.019.085-.076.095-.141A9.458 9.458 0 019.2 5.093c.121-.35.247-.699.408-1.033.048-.1.055-.195-.096-.214-.036-.004-.076-.017-.089-.054-.012-.036-.026-.072-.04-.108-.065-.158-.129-.316.022-.48.19.057.383.058.58.025.204-.034.41-.054.616-.07l.178-.014c.44-.035.88-.07 1.322-.092a18.745 18.745 0 012.198.029zm-.53 11.177c1.196-.03 2.229-.9 2.2-2.146-.029-1.27-.909-2.2-2.203-2.207-1.242-.007-2.217.933-2.203 2.21.015 1.293.965 2.085 2.207 2.143zm-8.807.839c.865.002 1.537-.638 1.54-1.47a1.549 1.549 0 00-1.52-1.545c-.799-.006-1.522.673-1.524 1.501a1.5 1.5 0 001.504 1.514z" fill="#262624"/>
            <path d="M8.133 6.84c-.135.095-.345.089-.427-.012L7.7 6.762c-.004-.045-.009-.09-.01-.134l-.002-.814c-.002-.407-.003-.814-.006-1.22-.002-.249-.049-.48-.244-.664-.12-.114-.107-.218.004-.321.119-.11.206-.037.291.049.26.262.394.575.394.946 0 .559.002 1.118.004 1.676v.004l.002.556zM4.184 8.648v.006l-.002.073c-.001.053-.002.107.003.16.01.103.066.16.179.14l.5-.089h.001c.362-.063.725-.127 1.087-.196a37.28 37.28 0 012.19-.356c.15-.02.2-.083.19-.22l-.01-.112a3.202 3.202 0 01-.015-.258v-.01c0-.19 0-.199-.194-.178-.587.062-1.169.15-1.75.25-.622.106-1.24.238-1.854.384-.32.075-.32.085-.325.406z" fill="#262624"/>
            <path d="M9.517 8.028s-.25-2.12.904-4.254c0 0 1.386-.28 3.287-.109l.203 2.587c0-.001-2.54-.36-4.394 1.776z" fill="#4988E2"/>
        </g>
        <defs>
            <clipPath id="fzclip0">
                <path fill="#fff" transform="translate(.13)" d="M0 0h20v20H0z"/>
            </clipPath>
        </defs>
    </svg>