<svg width="24" height="24" fill="none" viewBox="-2 -2 24 24" id="fei" x="374" y="264" xmlns="http://www.w3.org/2000/svg">
        <rect width="20" height="20" rx="4" fill="#22996E"/>
        <path d="M10 15H4.29c-.815 0-1.28-.816-.815-1.514l3.262-5.127c.233-.35.583-.582 1.049-.582h4.427c.466 0 .816.233 1.049.582l3.262 5.127c.466.698 0 1.514-.816 1.514H10zM10.582 3.35l1.398 2.097c.233.466 0 1.048-.583 1.048H8.601c-.583 0-.816-.582-.583-1.048L9.417 3.35c.349-.466.932-.466 1.165 0z" fill="#fff"/>
    </svg>