<svg width="24" height="24" fill="none" viewBox="-2 -2 24 24" id="fet" x="374" y="288" xmlns="http://www.w3.org/2000/svg">
        <path fill="#fff" d="M0 0h20v20H0z"/>
        <path d="M0 0v20h20V0H0zm6.992 2.32h1.87v1.92h-1.87V2.32zm-4.716 0h1.952v1.92H2.276V2.32zm1.87 4.64v1.92h-1.95V6.96h1.95zM3.66 17.52h-.813v-.72h.731v.72h.082zm.569-3.84H2.276v-1.84h1.952v1.84zm4.146 3.84h-.732v-.72h.732v.72zm0-4.48h-.732v-.72h.732v.72zm.57-4.08H6.991V7.04h1.951v1.92zm4.145 8.56h-.731v-.72h.731v.72zm0-4.48h-.731v-.72h.731v.72zm0-4.72h-.731V7.6h.731v.72zm.65-4.08h-1.95V2.32h1.95v1.92zm4.147 13.28h-.732v-.72h.732v.72zm0-4.48h-.732v-.72h.732v.72zm0-4.72h-.732V7.6h.732v.72zm0-4.64h-.732v-.72h.732v.72z" fill="#202944"/>
    </svg>