<svg width="24" height="24" fill="none" viewBox="-2 -2 24 24" id="fio" x="374" y="336" xmlns="http://www.w3.org/2000/svg">
        <circle cx="10" cy="10" r="10" fill="#080F25"/>
        <path d="M6.834 10.361l3.556 1.778v5a.275.275 0 01-.407.242L7.12 15.809a.55.55 0 01-.285-.482v-4.966z" fill="#5453BF"/>
        <path d="M13.166 2.84a.275.275 0 00-.398-.245L6.834 5.562v4.149l6.186-3.263a.275.275 0 00.146-.243V2.841z" fill="#3955B2"/>
        <path d="M6.834 5.504l6.028 3.014a.55.55 0 01.304.491v3.586c0 .206-.22.339-.403.242L6.834 9.712V5.504z" fill="#6EAFDF"/>
    </svg>