<svg width="25" height="24" fill="none" viewBox="-2 -2 25 24" id="firo" y="148" xmlns="http://www.w3.org/2000/svg">
        <path d="M10.797 20c5.523 0 10-4.477 10-10s-4.477-10-10-10-10 4.477-10 10 4.477 10 10 10z" fill="#FEFEFE"/>
        <path d="M7.22 14.046a.618.618 0 01-.553.334v.007H1.805a9.93 9.93 0 01-1.008-4.38C.797 4.476 5.28 0 10.803 0a9.965 9.965 0 017.264 3.128h-4.708a.626.626 0 00-.552.334l-2.794 5.292H6.416a.624.624 0 00-.623.623v1.252c0 .34.277.623.623.623H8.69l-1.47 2.794z" fill="#9B1C2E"/>
        <path d="M14.374 5.954a.619.619 0 01.552-.334v-.007h4.862a9.93 9.93 0 011.009 4.38C20.797 15.524 16.314 20 10.79 20a9.965 9.965 0 01-7.264-3.128h4.708a.626.626 0 00.552-.334l2.794-5.292h3.597c.34 0 .623-.276.623-.623V9.371a.624.624 0 00-.623-.623h-2.274l1.471-2.794z" fill="#9B1C2E"/>
    </svg>