<svg width="24" height="24" fill="none" viewBox="-2 -2 24 24" id="flokibsc" x="24" y="364" xmlns="http://www.w3.org/2000/svg">
        <circle cx="10" cy="10" r="10" fill="url(#gia)"/>
        <circle cx="10" cy="10" r="9" fill="#FCE7D0"/>
        <path fill-rule="evenodd" clip-rule="evenodd" d="M12.34 10.74c.347.056.822.183 1.058.282.368.154.456.168.63.102l.018-.007.015-.005c.107-.04.165-.063.208-.045.05.02.081.095.148.26l.017.04c.682 1.673.595 2.603-.335 3.555-.86.882-2.163 1.314-3.967 1.314-1.806 0-3.157-.457-4.001-1.353-.697-.74-.895-1.489-.643-2.43.076-.28.208-.69.293-.908.132-.336.179-.393.304-.378.08.01.278-.04.439-.112.362-.163 1.169-.337 1.914-.412.821-.084 3.16-.026 3.902.096zm-4.462.875c0-.139.062-.297.167-.428.338-.42.8-.162.8.446 0 .52-.287.88-.628.786-.193-.052-.639.516-.768.979-.087.316-.092.441-.027.806.104.595.041.6-.088.007-.166-.762-.05-1.305.384-1.808l.24-.277h-.205c-.224 0-.514.134-.644.299-.046.058-.115.105-.154.105-.15 0 .452-.547.68-.619.216-.068.243-.1.243-.296zm4.153.82c-.495.13-.848-.876-.453-1.29.315-.328.753-.099.84.44.038.23.067.263.267.302.213.042.732.456.732.584 0 .033-.12-.031-.267-.143-.187-.141-.342-.202-.516-.202-.292 0-.307.054-.078.274.416.4.571 1.248.352 1.916-.074.222-.12.328-.102.236.16-.868.06-1.375-.371-1.864-.202-.229-.289-.283-.404-.253zm-2.254.883c-.377-.188-.468-.604-.148-.676.302-.069 1.027.003 1.13.111.092.096.092.122-.006.277a.948.948 0 01-.3.275c-.217.118-.236.207-.092.423.075.112.165.15.358.15.233 0 .266-.022.351-.236.098-.245.286-.323.286-.118 0 .176-.242.556-.353.556-.054 0-.098.03-.098.068 0 .038-.062.206-.137.374-.144.32-.383.502-.66.502-.23 0-.54-.304-.63-.616-.05-.177-.137-.302-.252-.364-.251-.136-.398-.638-.186-.638.033 0 .102.106.154.236.084.21.121.236.334.236.258 0 .475-.153.475-.335 0-.062-.101-.163-.226-.225z" fill="#FAFBFB"/>
        <path d="M6.849 12.934c-.386-.323-1.149-.247-1.481-.168l.58-1.887.901-.236 1.288-.337h2.673l1.9.135 1.45.37.354.169.515 1.786c-.333-.079-1.224-.155-1.61.168-.484.405-.484.472-.709.472-.225 0-1.32-1.213-2.576-1.213s-2.351 1.213-2.576 1.213c-.226 0-.226-.067-.709-.472z" fill="#F6A428"/>
        <ellipse cx="8.524" cy="11.587" rx=".258" ry=".27" fill="#fff"/>
        <ellipse cx="11.744" cy="11.587" rx=".258" ry=".27" fill="#fff"/>
        <path fill-rule="evenodd" clip-rule="evenodd" d="M4.653 3.697c-.286.199-.665.668-.852 1.053-.292.603-.392 1.799-.21 2.515.227.888.883 1.777 1.668 2.257l.426.261-.127.17c-.174.231-.176.774-.004.954.122.128.12.14-.125.868-.385 1.145-.396 1.71-.05 2.493.203.458.955 1.215 1.503 1.512 1.891 1.027 5.157.943 6.814-.176.467-.315 1.05-.98 1.24-1.418.324-.739.275-1.456-.183-2.7-.173-.47-.197-.617-.193-1.173.004-.481.028-.649.1-.69.32-.188.903-.715 1.126-1.017.593-.806.747-1.341.708-2.458-.032-.912-.153-1.324-.55-1.87-.262-.361-.74-.778-.893-.778-.052 0-.168.077-.258.17-.145.154-.157.202-.11.456.03.156.054.542.054.857 0 .501-.021.611-.175.883-.239.426-.84.985-1.306 1.216-.213.106-.426.192-.475.192-.049 0-.262-.121-.474-.27-.363-.253-1.075-.539-1.344-.539-.088 0-.122-.048-.122-.171a.588.588 0 00-.159-.337c-.137-.144-.216-.166-.608-.166-.537 0-.77.094-.818.332a6.25 6.25 0 01-.055.241c-.01.037-.19.109-.397.159a3.54 3.54 0 00-1.228.59c-.113.088-.26.16-.328.16-.235 0-.898-.406-1.289-.79-.63-.62-.782-1.165-.636-2.275.04-.304.032-.432-.033-.516-.158-.206-.335-.204-.637.005zm.25.561c-.102.462-.035 1.322.132 1.682.3.65 1.14 1.417 1.826 1.67.201.073.35.17.363.238.129.241-.71 1.379-1.307 1.506a.136.136 0 01-.052.009c-.156 0-.881-.548-1.17-.885-1.033-1.202-1.062-3.052-.065-4.167.166-.187.31-.34.32-.34.008 0-.013.13-.047.287zm10.624.167c.723.962.802 2.445.19 3.537-.304.544-1.376 1.466-1.607 1.384-.246.04-1.271-.893-1.308-1.412-.085-.09.066-.236.31-.305.686-.193 1.74-1.191 1.953-1.85.121-.372.158-1.206.07-1.558-.043-.172-.036-.183.077-.12.068.04.21.185.315.324zm-5.21 1.83c.092.062.27 1.511.256 2.097l-.006.303c-.272.108-.916.101-1.088-.061-.054.035-.064-.06-.035-.35l.116-1.186c.06-.62.098-.795.18-.818.185-.052.487-.044.577.016zm1.816 3.096c1.145.28 2.057.748 2.057 1.055 0 .089-.027.18-.06.2-.02.013-.041.003-.06-.021-2.638-.78-5.226-.802-8.087.046-.007.008-.019.012-.034.012-.037 0-.068-.103-.068-.228 0-.217.026-.242.5-.499.53-.286 1.22-.513 2.012-.66.745-.138 3.023-.08 3.74.095zm.207 1.388c.346.057.822.184 1.058.283.368.154.456.168.63.102l.018-.007.014-.005c.107-.04.165-.063.208-.045.051.02.082.095.148.26l.017.04c.683 1.673.595 2.603-.334 3.555-.86.882-2.163 1.314-3.967 1.314-1.806 0-3.157-.457-4.001-1.353-.697-.74-.895-1.489-.643-2.43.076-.281.208-.69.293-.908.132-.336.179-.393.303-.378.082.01.28-.04.44-.112.362-.163 1.168-.337 1.914-.412.82-.084 3.16-.026 3.902.096zm-4.295.448a.715.715 0 00-.167.428c0 .196-.027.228-.243.296-.228.072-.83.62-.68.62.038 0 .107-.048.153-.106.13-.165.421-.3.645-.3h.204l-.239.278c-.434.503-.55 1.046-.384 1.808.129.593.192.588.087-.007-.064-.365-.06-.49.028-.806.129-.463.575-1.031.768-.979.34.094.627-.265.627-.786 0-.608-.462-.865-.8-.445zm3.533-.041c-.395.413-.042 1.42.453 1.29.115-.03.202.023.403.252.432.49.533.996.372 1.864-.018.092.028-.014.101-.236.22-.668.065-1.516-.35-1.916-.23-.22-.215-.274.077-.274.174 0 .329.06.515.202.148.112.268.176.268.143 0-.128-.52-.542-.732-.584-.2-.04-.23-.072-.267-.303-.087-.538-.526-.767-.84-.438zm-2.94.414c.01.076-.022.175-.072.219-.125.108-.264-.067-.205-.26.054-.18.25-.15.277.04zm3.265.061c0 .223-.135.274-.245.093-.089-.148-.007-.345.132-.317.078.016.113.086.113.224zm-2.274 1.02c-.32.073-.23.489.148.677.124.062.226.163.226.225 0 .182-.217.335-.475.335-.213 0-.25-.026-.334-.236-.052-.13-.121-.236-.154-.236-.212 0-.066.502.186.638.114.062.201.187.252.364.089.312.4.616.63.616.277 0 .516-.182.66-.502.075-.168.137-.336.137-.374 0-.037.044-.068.098-.068.111 0 .352-.38.352-.556.001-.205-.187-.127-.285.118-.085.214-.118.236-.351.236-.193 0-.283-.038-.358-.15-.144-.216-.125-.305.092-.423a.95.95 0 00.3-.275c.098-.155.098-.18.006-.277-.103-.108-.828-.18-1.13-.111zm.724.151c.02.033-.022.075-.093.095-.156.043-.386-.014-.386-.095 0-.078.433-.078.479 0z" fill="#161617"/>
        <path d="M14.19 10.406c0-.307-.912-.775-2.057-1.055-.717-.175-2.995-.233-3.74-.095-.791.147-1.483.373-2.013.66-.473.257-.499.282-.499.499 0 .125.031.228.069.228l.033-.012c.01-.012.01-.03-.002-.05-.02-.035-.006-.083.031-.108.048-.03.048-.07-.002-.134-.056-.07-.008-.13.225-.272.287-.176.3-.178.387-.056.086.12.089.12.055-.018-.026-.109.002-.158.108-.193.133-.044.212.012.272.192.01.03.26.008.554-.05 1.359-.27 3.142-.282 4.58-.031l.74.129.104-.145c.138-.19.42-.125.317.074-.101.2-.072.25.05.086l.112-.15.257.156c.142.086.25.194.24.241a.4.4 0 00.058.283l.061.021c.033-.02.06-.111.06-.2z" fill="#939598"/>
        <path d="M14.01 10.302c.01-.047-.097-.155-.239-.24l-.258-.156-.11.15c-.123.164-.152.112-.05-.087.101-.199-.18-.265-.318-.074l-.104.145-.74-.13c-1.438-.25-3.221-.238-4.58.031-.294.059-.543.081-.554.05-.06-.18-.14-.235-.272-.191-.107.035-.134.084-.108.193.033.138.03.139-.055.018-.087-.122-.1-.12-.387.056-.233.143-.282.202-.226.272.05.063.051.103.003.134-.038.025-.052.073-.031.107.012.021.012.04.002.05 2.86-.847 5.449-.825 8.086-.045a.4.4 0 01-.059-.283zm-3.443-1.647l-.052-.303a4.794 4.794 0 01-.056-.602l-.005-.3-.18.182c-.222.222-.299.225-.494.021-.085-.09-.123-.129-.146-.121-.018.006-.027.041-.043.104a3.09 3.09 0 00-.038.527c0 .214-.033.404-.074.43.172.163.816.17 1.088.062z" fill="#58595B"/>
        <path d="M10.317 6.256c.092.06.27 1.51.257 2.096l-.007.303-.052-.303a4.794 4.794 0 01-.056-.602l-.005-.3-.18.182c-.222.222-.298.225-.494.02-.085-.089-.123-.128-.146-.12-.018.006-.027.041-.043.104a3.09 3.09 0 00-.038.527c0 .214-.033.404-.074.43-.054.036-.064-.059-.035-.349l.116-1.186c.06-.62.099-.795.18-.818.185-.052.487-.044.577.016z" fill="#939598"/>
        <path d="M5.035 5.94c-.167-.36-.235-1.22-.133-1.682.035-.157.056-.286.047-.286a4.55 4.55 0 00-.32.339c-.996 1.115-.967 2.965.065 4.167.29.337 1.014.885 1.17.885a.543.543 0 00.053-.009c.066-.028.012-.116-.116-.152-.206-.057-.94-.698-1.184-1.034-.382-.524-.502-.964-.5-1.838.001-.575.03-.844.11-1.044.094-.229.105-.24.076-.068-.21 1.26 0 2.23.632 2.915.356.386.444.366.114-.026-.145-.172-.263-.343-.263-.38 0-.037.058.01.13.105.07.094.257.236.414.316.265.134.299.137.477.04.207-.111.31-.398.233-.651-.024-.08-.019-.132.011-.117 1.084.548 1.204.592 1.172.428-.013-.067-.16-.165-.362-.239-.686-.252-1.526-1.02-1.826-1.67zm10.682 2.022c.612-1.092.533-2.575-.19-3.537-.105-.14-.247-.285-.315-.323-.114-.064-.12-.053-.077.119.088.352.05 1.186-.07 1.558-.213.659-1.268 1.657-1.952 1.85-.245.068-.396.216-.311.304.048.05.742-.238 1.001-.417l.226-.155-.022.312c-.016.236.007.338.097.422.246.23.518.181.898-.164.326-.296.324-.284-.044.218l-.221.302.207-.153c.259-.192.428-.439.641-.937.2-.468.28-1.496.156-2.013-.042-.173-.062-.329-.045-.347.04-.042.162.437.241.947.084.544-.022 1.245-.268 1.773-.217.468-.914 1.206-1.366 1.449-.151.08-.238.16-.193.176.231.082 1.303-.84 1.607-1.384z" fill="#F7941D"/>
        <path d="M14.11 9.346c-.045-.016.042-.096.193-.176.452-.243 1.149-.981 1.367-1.45.245-.527.35-1.228.267-1.772-.078-.51-.2-.99-.24-.947-.018.018.003.174.044.347.125.517.045 1.545-.156 2.013-.213.498-.382.745-.641.937l-.207.153.222-.302c.367-.503.37-.514.043-.218-.38.345-.651.394-.898.164-.09-.084-.113-.186-.096-.422l.02-.312-.225.155c-.259.179-.953.468-1 .417.036.52 1.062 1.453 1.307 1.413zM7.223 7.848c.033.164-.088.12-1.172-.428-.03-.015-.035.038-.01.117.076.253-.027.54-.234.652-.178.096-.212.093-.477-.041a1.417 1.417 0 01-.415-.316c-.07-.095-.129-.142-.129-.105 0 .037.119.208.263.38.33.392.242.412-.114.026-.632-.685-.843-1.656-.632-2.915.029-.171.018-.161-.075.068-.081.2-.11.47-.11 1.044-.002.874.117 1.314.499 1.838.245.336.978.977 1.184 1.034.128.036.182.124.116.152.597-.127 1.436-1.265 1.306-1.506z" fill="#AD5A00"/>
        <path d="M10.037 13.979c-.186.097-.418.1-.418.168s.096.674.515.674c.419 0 .515-.606.515-.674 0-.067-.233-.071-.418-.168l-.097-.068-.097.068z" fill="#F72F80"/>
        <path fill="#161617" d="M10.069 13.9h.129v.539h-.129z"/>
        <path d="M8.849 8.655c.103-.215.15-1.258.16-1.752-.461.146-1.425.429-1.384.64.096.506-.161 1.34-.129 1.314.097-.075 1.32-.134 1.353-.202zm2.412 0c-.103-.215-.15-1.258-.16-1.752.46.146 1.424.429 1.384.64-.096.506.161 1.34.129 1.314-.097-.075-1.32-.134-1.353-.202z" fill="#302F2F"/>
        <ellipse rx=".323" ry=".47" transform="matrix(.95165 .30718 -.28282 .95917 8.397 7.678)" fill="#58595B"/>
        <ellipse rx=".323" ry=".47" transform="matrix(-.95165 .30718 .28282 .95917 11.712 7.678)" fill="#58595B"/>
        <defs>
            <linearGradient id="gia" x1="10" y1="0" x2="10" y2="20" gradientUnits="userSpaceOnUse">
                <stop stop-color="#5109AD"/>
                <stop offset="1" stop-color="#A617C3"/>
            </linearGradient>
        </defs>
    </svg>