<svg width="24" height="24" fill="none" viewBox="-2 -2 24 24" id="flow" x="48" y="364" xmlns="http://www.w3.org/2000/svg">
        <path d="M10 20c5.523 0 10-4.477 10-10S15.523 0 10 0 0 4.477 0 10s4.477 10 10 10z" fill="#00EF8B"/>
        <path d="M14.38 8.44h-2.82v2.82h2.82V8.44zM8.74 12.32c0 .58-.48 1.06-1.06 1.06-.58 0-1.06-.48-1.06-1.06 0-.58.48-1.06 1.06-1.06h1.06V8.44H7.68c-2.14 0-3.88 1.74-3.88 3.88 0 2.14 1.74 3.88 3.88 3.88 2.14 0 3.88-1.74 3.88-3.88v-1.06H8.74v1.06zM12.62 7.02h3.18V4.2h-3.18c-2.14 0-3.88 1.74-3.88 3.88v.36h2.82v-.36c0-.58.48-1.06 1.06-1.06z" fill="#fff"/>
        <path d="M11.56 8.44H8.74v2.82h2.82V8.44z" fill="#16FF99"/>
    </svg>