<svg width="24" height="24" fill="none" viewBox="-2 -2 24 24" id="front" x="72" y="364" xmlns="http://www.w3.org/2000/svg">
        <circle cx="10" cy="10" r="10" fill="#422E2A"/>
        <path fill-rule="evenodd" clip-rule="evenodd" d="M15.475 3.43H6v13.5h1.149v-4.595h4.021l.575-1.15h-4.4c.278-.572.641-1.273 1.023-1.885.258-.411.51-.76.738-.998.114-.12.208-.196.28-.24a.33.33 0 01.071-.036c.262.003.392.13.69.503l.026.032c.274.344.719.901 1.572.901.56 0 .99-.385 1.283-.744.314-.383.598-.89.85-1.412.349-.723.675-1.565.949-2.269.118-.304.226-.582.321-.813l.327-.794zm-8.08 5.261c-.084.133-.166.27-.246.407V4.58h6.623l-.04.102c-.266.685-.56 1.444-.889 2.126-.239.495-.476.905-.704 1.183-.247.302-.38.323-.394.323-.269 0-.398-.124-.7-.502l-.027-.033c-.274-.344-.718-.9-1.571-.9-.259 0-.486.095-.666.207a2.632 2.632 0 00-.505.423c-.307.32-.608.745-.882 1.183z" fill="#fff"/>
    </svg>