<svg width="24" height="24" fill="none" viewBox="-2 -2 24 24" id="ftmmainnet" x="120" y="364" xmlns="http://www.w3.org/2000/svg">
        <path d="M10 20c5.523 0 10-4.477 10-10S15.523 0 10 0 0 4.477 0 10s4.477 10 10 10z" fill="#1A69FF"/>
        <path fill-rule="evenodd" clip-rule="evenodd" d="M10.753 2.425a1.562 1.562 0 00-.718-.163c-.236 0-.496.047-.717.163l-3.74 1.977c-.182.095-.383.27-.436.528a.447.447 0 00-.042.189v9.759a.45.45 0 00.01.098.449.449 0 00.233.445l3.97 2.151.005.003c.22.117.481.163.717.163s.497-.046.718-.163l3.98-2.22a.448.448 0 00.23-.392.448.448 0 00.008-.085v-9.76a.447.447 0 00-.042-.19c-.054-.257-.255-.43-.436-.526l-3.74-1.977zm-1.016.794a.679.679 0 01.298-.06c.132 0 .24.029.299.06l3.497 1.848-3.497 1.848a.679.679 0 01-.299.059.679.679 0 01-.298-.06L6.239 5.068l3.498-1.848zm4.336 7.557v3.92l-3.743 2.087a.688.688 0 01-.295.057.681.681 0 01-.297-.058l-3.74-2.027v-3.979l3.32 1.755c.22.116.481.163.717.163s.497-.047.718-.164l3.32-1.754zm-2.885-3.298l2.885-1.524v3.048l-2.885-1.524zm-5.19 1.524l2.884-1.524-2.885-1.524v3.048zm3.589-.881L6.239 9.889l3.348 1.769V8.12zm.897 3.537l3.347-1.769-3.347-1.768v3.537z" fill="#fff"/>
        <path d="M15.17 2.973a.449.449 0 00-.464.768l.054.032c.364.22.532.322.644.467.094.122.178.323.178.835a.449.449 0 10.898 0c0-.597-.096-1.033-.365-1.383-.221-.286-.54-.477-.842-.658h-.002l-.1-.061zM5.446 16.71a.449.449 0 01-.617.15l-.101-.06c-.302-.181-.622-.372-.843-.659-.269-.35-.364-.785-.364-1.382a.449.449 0 01.897 0c0 .511.084.713.178.834.112.146.28.247.644.468l.054.032c.212.129.28.404.152.616z" fill="#fff"/>
    </svg>