<svg width="24" height="24" fill="none" viewBox="-2 -2 24 24" id="fun" x="168" y="364" xmlns="http://www.w3.org/2000/svg">
        <path d="M10 20c5.523 0 10-4.477 10-10S15.523 0 10 0 0 4.477 0 10s4.477 10 10 10z" fill="#ED1968"/>
        <path d="M7.938 16.81a6.048 6.048 0 01-2.187-1.124 7.223 7.223 0 01-1.625-1.75 7.018 7.018 0 01-1-2.313 6.937 6.937 0 010-3 8.193 8.193 0 01.937-2.375 6.45 6.45 0 012.625-2.375 6.774 6.774 0 011.188-.5c.625.75 1.25 1.563 1.875 2.375.062.125.187.188.25.313a4.812 4.812 0 00-1.813.437c-.504.263-.95.625-1.312 1.063-.357.471-.632 1-.813 1.562a3.856 3.856 0 00.063 2.063L8.813 9.06c.625.812 1.25 1.562 1.875 2.374-.875.688-1.812 1.375-2.687 2.125.875 1.125 1.812 2.313 2.687 3.5-.924.11-1.86.025-2.75-.25zm5.956-7.57a3.881 3.881 0 00-.081-.304c-.084.066-1.944 1.487-2.688 2.124-.624-.812-1.25-1.562-1.874-2.374.875-.688 1.812-1.375 2.687-2.125-.875-1.125-1.75-2.25-2.687-3.438 0-.062-.063-.062-.063-.125h.875c1.603.015 3.15.59 4.375 1.625a6.747 6.747 0 011.5 1.75c.466.716.765 1.528.875 2.375a7.716 7.716 0 01-.063 2.938 6.174 6.174 0 01-1 2.25 6.704 6.704 0 01-1.562 1.687 5.48 5.48 0 01-2.063 1.125 43.599 43.599 0 01-1.562-2 4.77 4.77 0 01-.5-.688 3.85 3.85 0 003.063-1.5c.36-.46.615-.993.75-1.562.116-.474.122-1.06.018-1.759zm-2.952 5.232c.432.59.88 1.167 1.344 1.732a5.09 5.09 0 001.618-.954 6.28 6.28 0 001.465-1.587c.444-.623.758-1.33.923-2.076a7.298 7.298 0 00.057-2.779 5.245 5.245 0 00-.813-2.195 6.288 6.288 0 00-1.4-1.632 6.404 6.404 0 00-4.017-1.514c.579.738 1.166 1.49 2.189 2.806l.275.353-.34.29c-.444.378-.898.745-1.361 1.1l-.974.752c.164.21.355.448.646.813.288.359.478.598.643.808.29-.24.606-.49.985-.785.061-.047 1.06-.816 1.342-1.037l.535-.42.202.65a4.32 4.32 0 01.07 2.308 4.509 4.509 0 01-.834 1.742 4.32 4.32 0 01-2.577 1.6l.022.025z" fill="#fff"/>
    </svg>