<svg width="24" height="24" fill="none" viewBox="-2 -2 24 24" id="fuse" x="192" y="364" xmlns="http://www.w3.org/2000/svg">
        <circle cx="10" cy="10" r="10" fill="#0E2336"/>
        <path d="M10.093 13.356a4.294 4.294 0 01-1.615-.317l-2.7-1.094-1.349.6a.724.724 0 00.021 1.332l4.221 1.842a3.801 3.801 0 002.86.003l4.24-1.837a.848.848 0 000-1.573l-1.126-.457L11.7 13.04a4.294 4.294 0 01-1.607.316z" fill="#B3FCA7"/>
        <path d="M15.773 8.827l-1.434-.58-2.638 1.061a4.3 4.3 0 01-1.605.313 4.294 4.294 0 01-1.616-.317l-2.408-.976-1.64.73a.724.724 0 00.02 1.332l2.517 1.025 1.86.773c.81.33 1.716.331 2.527.003l2.05-.835 2.367-.958a.848.848 0 000-1.571z" fill="#B3FCA7"/>
        <path d="M15.774 5.086l-4.724-1.91a2.402 2.402 0 00-1.88.032L4.432 5.315a.724.724 0 00.02 1.332l2.816 1.147 1.56.657c.81.33 1.716.332 2.527.004l1.735-.715 2.682-1.087a.848.848 0 00.002-1.567z" fill="#B3FCA7"/>
    </svg>