<svg width="25" height="24" fill="none" viewBox="-2 -2 25 24" id="gbp" x="25" y="148" xmlns="http://www.w3.org/2000/svg">
        <g clip-path="url(#grclip0)">
            <path d="M10.882 20c5.523 0 10-4.477 10-10s-4.477-10-10-10-10 4.477-10 10 4.477 10 10 10z" fill="#F0F0F0"/>
            <path d="M2.95 3.912a9.963 9.963 0 00-1.723 3.48h5.202l-3.48-3.48zM20.538 7.391a9.962 9.962 0 00-1.723-3.48l-3.48 3.48h5.203zM1.227 12.609a9.964 9.964 0 001.722 3.48l3.48-3.48H1.227zM16.97 2.067A9.964 9.964 0 0013.49.345v5.202l3.48-3.48zM4.794 17.933a9.966 9.966 0 003.48 1.723v-5.203l-3.48 3.48zM8.274.345a9.965 9.965 0 00-3.48 1.722l3.48 3.48V.345zM13.49 19.656a9.966 9.966 0 003.48-1.723l-3.48-3.48v5.203zM15.335 12.609l3.48 3.48a9.963 9.963 0 001.723-3.48h-5.203z" fill="#0052B4"/>
            <path d="M20.798 8.696h-8.611V.085a10.1 10.1 0 00-2.609 0v8.61H.967a10.1 10.1 0 000 2.61h8.61v8.61a10.114 10.114 0 002.61 0v-8.61h8.61a10.115 10.115 0 000-2.61z" fill="#D80027"/>
            <path d="M13.491 12.609l4.462 4.462c.206-.205.402-.42.588-.642l-3.82-3.82h-1.23zM8.274 12.609v1.23l-3.82 3.82a10.032 10.032 0 01-.643-.588l4.463-4.462zM8.274 7.391L3.81 2.93c-.205.205-.4.42-.587.642l3.82 3.82h1.23zM17.953 2.929L13.491 7.39v-1.23l3.82-3.82c.223.187.437.383.642.588z" fill="#D80027"/>
        </g>
        <defs>
            <clipPath id="grclip0">
                <path fill="#fff" transform="translate(.882)" d="M0 0h20v20H0z"/>
            </clipPath>
        </defs>
    </svg>