<svg width="25" height="24" fill="none" viewBox="-2 -2 25 24" id="gel" x="50" y="148" xmlns="http://www.w3.org/2000/svg">
        <g clip-path="url(#gsclip0)">
            <path d="M10.5 20c5.523 0 10-4.477 10-10s-4.477-10-10-10S.5 4.477.5 10s4.477 10 10 10z" fill="#F0F0F0"/>
            <path d="M20.415 8.696h-8.61V.085a10.1 10.1 0 00-2.61 0v8.61H.586a10.1 10.1 0 000 2.61h8.61v8.61a10.115 10.115 0 002.61 0v-8.61h8.61a10.115 10.115 0 000-2.61z" fill="#D80027"/>
            <path d="M6.587 4.783V3.478H5.283v1.305H3.978v1.304h1.305v1.304h1.304V6.087h1.304V4.783H6.587zM15.717 4.783V3.478h-1.304v1.305H13.11v1.304h1.304v1.304h1.304V6.087h1.305V4.783h-1.305zM6.587 13.913V12.61H5.283v1.304H3.978v1.304h1.305v1.305h1.304v-1.305h1.304v-1.304H6.587zM15.717 13.913V12.61h-1.304v1.304H13.11v1.304h1.304v1.305h1.304v-1.305h1.305v-1.304h-1.305z" fill="#D80027"/>
        </g>
        <defs>
            <clipPath id="gsclip0">
                <path fill="#fff" transform="translate(.5)" d="M0 0h20v20H0z"/>
            </clipPath>
        </defs>
    </svg>