<svg width="25" height="24" fill="none" viewBox="-2 -2 25 24" id="geth" x="75" y="148" xmlns="http://www.w3.org/2000/svg">
        <g clip-path="url(#gtclip0)">
            <path d="M10.962 20c5.523 0 10-4.477 10-10s-4.477-10-10-10-10 4.477-10 10 4.477 10 10 10z" fill="#7190EB"/>
            <path d="M17.282 4.817a.116.116 0 00-.023-.06.106.106 0 00-.053-.033l-6.22-1.563a.095.095 0 00-.048 0L4.72 4.724a.106.106 0 00-.053.033.11.11 0 00-.024.059c-.01.105-.763 10.71 6.286 13.18a.09.09 0 00.064 0c7.05-2.468 6.297-13.073 6.29-13.178zM10.956 6.02l2.682 4.539-2.682 1.57-2.67-1.57 2.67-4.54zm0 9.129L8.161 11.2l2.795 1.666 2.805-1.666-2.805 3.948z" fill="#fff"/>
        </g>
        <defs>
            <clipPath id="gtclip0">
                <path fill="#fff" transform="translate(.962)" d="M0 0h20v20H0z"/>
            </clipPath>
        </defs>
    </svg>