<svg width="24" height="24" fill="none" viewBox="-2 -2 24 24" id="gnt" x="240" y="364" xmlns="http://www.w3.org/2000/svg">
        <path d="M10 20c5.523 0 10-4.477 10-10S15.523 0 10 0 0 4.477 0 10s4.477 10 10 10z" fill="#2C36ED"/>
        <path d="M12.812 3.305l.752.752L12.14 5.52c.3.456.46.994.46 1.55a2.78 2.78 0 01-.785 1.956c-.372.393-.856.66-1.386.766v1.275c.527.109 1.01.375 1.383.762.51.525.794 1.229.789 1.96a2.782 2.782 0 01-.789 1.96 2.664 2.664 0 01-1.919.813 2.651 2.651 0 01-1.918-.813 2.796 2.796 0 01-.788-1.96c0-.737.28-1.437.786-1.957.371-.392.856-.66 1.385-.766V9.791a2.671 2.671 0 01-1.383-.762 2.796 2.796 0 01-.788-1.96c0-.738.28-1.437.788-1.96a2.664 2.664 0 011.919-.814c.537 0 1.054.164 1.497.468l1.42-1.458zm-2.917 8.786a1.581 1.581 0 00-1.16.493 1.72 1.72 0 00-.485 1.205c0 .454.172.877.484 1.205a1.612 1.612 0 002.321 0c.313-.323.486-.755.484-1.205 0-.453-.171-.876-.486-1.207a1.581 1.581 0 00-1.158-.491zm1.158-3.807c.314-.323.488-.756.486-1.207a1.687 1.687 0 00-1.014-1.57 1.611 1.611 0 00-1.79.365 1.72 1.72 0 00-.485 1.205c0 .454.172.877.484 1.205a1.613 1.613 0 002.32.002z" fill="#fff"/>
    </svg>