<svg width="24" height="25" fill="none" viewBox="-2 -2 24 25" id="gny" x="154" y="25" xmlns="http://www.w3.org/2000/svg">
        <path d="M10 20.226c5.523 0 10-4.477 10-10s-4.477-10-10-10-10 4.477-10 10 4.477 10 10 10z" fill="#fff"/>
        <path d="M4.363 7.343L2.88 8.685l.619.683.828-.75.589.597v2.683h.921v-3.06L4.363 7.342z" fill="#8D9A9D"/>
        <path d="M2.729 11.099v3.256H7.6v-.921h-3.95v-2.335h-.922z" fill="#8D9A9D"/>
        <path fill-rule="evenodd" clip-rule="evenodd" d="M7.541 2.276l-.986 1.006h-.977l-1.19 1.07-.417 1.403-1.807.623L.936 8.691v4.488l1.225 2.38 2.588.884-.1.074 1.229 1.625H7.94L9.388 16.2V2.583L7.54 2.276zm-1.61 1.927h.576l.6.86.756-.526-.519-.744.52-.53.602.1v7.662l-.771-.527.267-2.085-1.24-2.076-.79.472 1.076 1.803-.299 2.328 1.757 1.2v3.755l-.988 1.326H6.336l-.538-.713h1.11v-.921H5.094l-2.283-.78-.954-1.851V8.92l.95-1.789 1.912-.659.479-1.609.733-.66z" fill="#8D9A9D"/>
        <path d="M15.43 7.343l1.483 1.342-.619.683-.828-.75-.589.597v2.683h-.921v-3.06l1.475-1.495z" fill="#8D9A9D"/>
        <path d="M17.064 11.099v3.256h-4.872v-.921h3.95v-2.335h.922z" fill="#8D9A9D"/>
        <path fill-rule="evenodd" clip-rule="evenodd" d="M12.252 2.276l.986 1.006h.977l1.19 1.07.417 1.403 1.807.623 1.228 2.313v4.488l-1.225 2.38-2.588.884.1.074-1.229 1.625h-2.062L10.405 16.2V2.583l1.847-.307zm1.61 1.927h-.576l-.6.86-.756-.526.519-.744-.52-.53-.602.1v7.662l.771-.527-.267-2.085 1.24-2.076.79.472-1.076 1.803.299 2.328-1.757 1.2v3.755l.988 1.326h1.142l.538-.713h-1.11v-.921h1.814l2.283-.78.954-1.851V8.92l-.95-1.789-1.912-.659-.479-1.609-.733-.66z" fill="#8D9A9D"/>
    </svg>