<svg width="24" height="25" fill="none" viewBox="-2 -2 24 25" id="go" x="154" y="50" xmlns="http://www.w3.org/2000/svg">
        <circle cx="10" cy="10" r="10" fill="#fff"/>
        <path d="M14.29 6.796c-.447.54-1.255.62-1.802.18a4.106 4.106 0 00-2.6-.914c-2.267 0-4.112 1.82-4.112 4.056 0 2.236 1.845 4.057 4.112 4.057 1.82 0 3.37-1.174 3.908-2.794H9.888a1.27 1.27 0 01-1.28-1.263 1.27 1.27 0 011.28-1.263h5.393c.619 0 1.136.434 1.254 1.008a6.531 6.531 0 00-2.234-4.65 1.25 1.25 0 01-.012 1.583z" fill="#27357B"/>
        <path d="M9.874 1.025a1.27 1.27 0 00-1.28 1.262c0 .648.496 1.18 1.131 1.254.054-.002.107-.005.163-.005a6.74 6.74 0 014.22 1.483c.072.058.135.124.19.193a6.522 6.522 0 012.235 4.651c.016.083.026.168.026.255 0 3.292-2.463 6.026-5.668 6.506-.332.05-.672.076-1.019.076a1.27 1.27 0 00-1.28 1.263 1.27 1.27 0 001.28 1.262c5.088 0 9.228-4.084 9.228-9.102 0-5.019-4.138-9.098-9.226-9.098z" fill="#27357B"/>
        <path d="M16.561 10.118a1.275 1.275 0 00-1.28-1.263H9.888a1.27 1.27 0 00-1.28 1.263 1.27 1.27 0 001.28 1.263h3.908a4.115 4.115 0 01-3.908 2.794c-2.267 0-4.112-1.82-4.112-4.057 0-2.236 1.845-4.056 4.112-4.056a4.1 4.1 0 012.6.913c.547.441 1.355.36 1.801-.179.39-.468.377-1.13.01-1.584a1.251 1.251 0 00-.191-.193 6.74 6.74 0 00-4.22-1.483c-.053 0-.107.003-.163.005-3.602.085-6.51 3.003-6.51 6.577 0 1.148.3 2.227.827 3.168a.776.776 0 01.06.106 6.693 6.693 0 006.792 3.232c3.205-.477 5.667-3.214 5.667-6.506z" fill="#fff"/>
        <path d="M5.902 4.351A1.09 1.09 0 007 3.268c0-.6-.491-1.084-1.098-1.084a1.09 1.09 0 00-1.099 1.084c0 .599.491 1.083 1.099 1.083zM3.23 7.308A1.089 1.089 0 004.25 6.15a1.094 1.094 0 00-1.174-1.004c-.605.043-1.061.56-1.018 1.158a1.094 1.094 0 001.174 1.004zM3.097 9.985c0-.6-.491-1.084-1.099-1.084A1.09 1.09 0 00.9 9.985c0 .6.49 1.084 1.098 1.084a1.09 1.09 0 001.099-1.084zM3.141 12.82a1.09 1.09 0 00-1.099 1.084c0 .599.492 1.083 1.099 1.083a1.09 1.09 0 001.099-1.083c0-.186-.052-.36-.138-.512a.955.955 0 00-.06-.106c-.2-.28-.529-.466-.901-.466zM5.93 15.697a1.09 1.09 0 00-1.1 1.083c0 .6.492 1.084 1.1 1.084a1.09 1.09 0 001.098-1.084 1.09 1.09 0 00-1.099-1.084z" fill="#1D8BCC"/>
    </svg>