<svg width="24" height="24" fill="none" viewBox="-2 -2 24 24" id="grs" x="264" y="364" xmlns="http://www.w3.org/2000/svg">
        <circle cx="10" cy="10" r="10" fill="url(#gxpaint0_linear)"/>
        <path d="M10 19a9 9 0 100-18 9 9 0 000 18z" fill="url(#gxpaint1_linear)"/>
        <path fill-rule="evenodd" clip-rule="evenodd" d="M14.289 17.914l.047-.035a.852.852 0 00-.58-.421 6.403 6.403 0 00-1.031-.18c-.77-.056-1.543-.069-2.313-.116-.859-.052-1.716-.124-2.575-.18-.075-.006-.182.022-.225.075-.225.276-.443.56-.645.852-.1.143-.16.312-.238.467l.06.034a8.963 8.963 0 01-.99-.449c.059.011.135.002.164-.026.352-.353.693-.717 1.035-1.077-.256-.205-.506-.386-.734-.592-.212-.192-.301-.447-.283-.74.029-.448.225-.83.513-1.15.342-.379.725-.72 1.09-1.077.045-.043.092-.083.134-.121-.014-.025-.016-.032-.02-.035l-.107-.062c-1.174-.677-1.76-1.706-1.775-3.049-.013-1.15.476-2.08 1.342-2.815.843-.716 1.837-.968 2.928-.943.807.018 1.561.197 2.264.598.04.022.138-.004.174-.042.333-.348.67-.693.981-1.06.387-.456.714-.95.85-1.548.106-.466.06-.903-.277-1.267-.495-.534-1.348-.462-1.783.146-.085.12-.135.265-.219.387-.03.045-.11.058-.167.086-.013-.05-.045-.103-.037-.15.019-.128.044-.258.086-.38.213-.613.61-1.032 1.277-1.125.216-.03.441-.005.667-.005-.011-.015-.015-.028-.024-.032a2.202 2.202 0 00-.128-.064 8.953 8.953 0 011.073.582c.005.049.002.062.007.069.497.612.434 1.262.12 1.923-.265.56-.652 1.034-1.07 1.485-.382.413-.767.824-1.152 1.237.016.01.025.022.034.022.588 0 1.177.009 1.766-.004.307-.005.58-.107.77-.379.035-.052.133-.062.203-.091l.04.055c-.164.47-.325.94-.497 1.407-.014.04-.101.071-.156.074-.208.009-.416.003-.625.003h-.748l.085.17c.405.792.513 1.633.308 2.491-.302 1.266-1.13 2.083-2.334 2.509-.984.347-1.993.335-3.002.094-.09-.022-.228-.04-.276.008-.217.217-.447.436-.603.696-.322.535-.135.908.48 1.037l.017.002c.603.047 1.205.104 1.809.138.853.046 1.708.065 2.562.116.517.031 1.027.122 1.493.369.6.317 1.024.784 1.21 1.466l.132-.094c-.35.263-.72.5-1.108.71zm-2.728.95c-.546.096-1.1.141-1.654.136.554-.006 1.106-.051 1.654-.136zM19 10.028V10c0-.776-.099-1.53-.283-2.248.183.745.278 1.51.283 2.276zM16.907 4.23a9.05 9.05 0 00-1.794-1.637c.685.495 1.285 1.04 1.795 1.637zM5.672 17.891a9.005 9.005 0 01-1.263-.84c.4.305.838.566 1.263.84zM1 10.017zm1.64-5.199c.353-.49.75-.949 1.187-1.367A9.05 9.05 0 002.64 4.818zm4.622-3.394A9.559 9.559 0 0110 1c-.93 0-1.853.142-2.738.424zm4.744 8.945l-.034-.009c-.02-.272-.03-.545-.06-.816-.066-.628-.245-1.221-.59-1.755-.512-.792-1.367-1.112-2.187-.795-.674.26-1.03.795-1.192 1.476-.153.644-.14 1.297-.063 1.948.075.618.252 1.207.608 1.731.458.672 1.096.966 1.89.833.754-.125 1.227-.612 1.42-1.337.11-.415.141-.85.208-1.276z" fill="#fff"/>
        <defs>
            <linearGradient id="gxpaint0_linear" x1="18.5" y1="15" x2="1.5" y2="4.5" gradientUnits="userSpaceOnUse">
                <stop stop-color="#66A4BF"/>
                <stop offset="1" stop-color="#66C4DC"/>
            </linearGradient>
            <linearGradient id="gxpaint1_linear" x1="16.75" y1="15.4" x2="3.25" y2="4.15" gradientUnits="userSpaceOnUse">
                <stop stop-color="#006895"/>
                <stop offset="1" stop-color="#009BC2"/>
            </linearGradient>
        </defs>
    </svg>