<svg width="24" height="24" fill="none" viewBox="-2 -2 24 24" id="grt" x="288" y="364" xmlns="http://www.w3.org/2000/svg">
        <g clip-path="url(#gyclip0)">
            <path d="M10.042 19.98c5.523 0 10-4.478 10-10 0-5.524-4.477-10-10-10s-10 4.476-10 10c0 5.522 4.477 10 10 10z" fill="#6747ED"/>
            <path fill-rule="evenodd" clip-rule="evenodd" d="M9.896 11.27a2.659 2.659 0 01-2.667-2.666 2.659 2.659 0 012.667-2.667 2.659 2.659 0 012.666 2.667 2.658 2.658 0 01-2.666 2.667zm0-6.666a4.001 4.001 0 010 8 4.001 4.001 0 010-8zm3.812 8.209c.271.27.271.687 0 .937l-2.666 2.667c-.271.27-.688.27-.938 0-.27-.271-.27-.688 0-.938l2.667-2.666c.25-.271.687-.271.937 0zM15.25 5.27a.658.658 0 01-.667.666.658.658 0 01-.666-.666c0-.375.291-.667.666-.667.354 0 .667.292.667.667z" fill="#fff"/>
        </g>
        <defs>
            <clipPath id="gyclip0">
                <path fill="#fff" d="M0 0h20v20H0z"/>
            </clipPath>
        </defs>
    </svg>