<svg width="24" height="24" fill="none" viewBox="-2 -2 24 24" id="gspi" x="312" y="364" xmlns="http://www.w3.org/2000/svg">
        <circle cx="10" cy="10" r="10" fill="#fff"/>
        <path fill-rule="evenodd" clip-rule="evenodd" d="M9.049.047C8.31.149 7.073.435 6.607.61 3.19 1.893.79 4.726.157 8.22c-.49 2.718.182 5.599 1.815 7.771 2.96 3.939 8.279 5.14 12.67 2.864a9.98 9.98 0 005.355-9.063c-.098-3.997-2.506-7.486-6.234-9.032-1.37-.568-3.47-.886-4.714-.713zm2.626 1.077c1.391.278 2.186.592 3.221 1.27 1.35.884 1.791 1.465 1.788 2.354-.002.462-.034.582-.227.844-.123.167-.492.71-.818 1.205-.875 1.33-.465 1.228-4.898 1.228H7.078v4.337H13.111v-1.044h-1.7c-1.945 0-2.066-.034-2.403-.667-.223-.42-.18-.81.134-1.181.4-.475.44-.481 3.044-.481 2.656 0 2.69.006 3.055.541l.203.299v4.102l-.209.307c-.37.545-.258.533-5.16.533-4.136 0-4.424-.009-4.685-.149a1.59 1.59 0 01-.441-.367c-.158-.211-.164-.341-.185-3.967-.024-4.186-.033-4.111.536-4.49l.273-.182 4.192-.003 4.19-.003.437-.641c.42-.618.43-.646.281-.762a7.612 7.612 0 00-2.763-1.383c-.646-.171-.957-.206-1.936-.212-1.366-.009-1.889.1-3.027.633-2.178 1.018-3.527 2.59-4.15 4.834-.146.53-.174.844-.175 1.994-.002 1.286.011 1.405.225 2.048.701 2.104 1.992 3.653 3.805 4.566 1.18.594 2.928.898 4.22.735 2.563-.323 4.69-1.834 5.826-4.137.734-1.489.951-2.732.729-4.176a11.51 11.51 0 00-.344-1.51c-.178-.54-.193-.66-.109-.863.197-.473.815-.663 1.214-.371.22.16.445.7.678 1.62.192.757.224 1.043.224 2.008 0 .993-.029 1.24-.25 2.111-.861 3.406-3.423 5.953-6.774 6.736-2.105.492-4.31.234-6.152-.72-1.628-.845-3.048-2.252-3.968-3.933C.714 11.935.625 8.666 1.731 6.286c.778-1.674 2.1-3.15 3.645-4.066C7.226 1.123 9.6.71 11.675 1.124zm.615 3.595c.027.663-.056.838-.378.8-.183-.021-.212-.066-.233-.365l-.025-.342H8.616l-.025.302c-.024.292-.035.301-.367.325l-.342.025V4.83c0-.348.025-.658.055-.688.03-.03 1.017-.045 2.192-.034l2.138.022.023.59z" fill="#0A95A8"/>
    </svg>