<svg width="25" height="24" fill="none" viewBox="-2 -2 25 24" id="gt" x="100" y="148" xmlns="http://www.w3.org/2000/svg">
        <g clip-path="url(#haclip0)">
            <path d="M19.832 5.3L13.79 8.475v3.682l2.078-1.106v2.135l-5.856 3.38-4.706-2.717a2.3 2.3 0 01-1.15-1.992V6.423L9.013 3.62a1.998 1.998 0 011.997 0l4.857 2.804 2.973-1.717L11.274.337a2.53 2.53 0 00-2.526 0l-7.565 4.37v8.863c0 .825.44 1.586 1.154 1.999L10.012 20l7.665-4.425a2.329 2.329 0 001.164-2.017V9.47l.99-.526V5.3z" fill="#D35756"/>
        </g>
        <defs>
            <clipPath id="haclip0">
                <path fill="#fff" transform="translate(.507)" d="M0 0h20v20H0z"/>
            </clipPath>
        </defs>
    </svg>