<svg width="24" height="24" fill="none" viewBox="-2 -2 24 24" id="gto" x="336" y="364" xmlns="http://www.w3.org/2000/svg">
        <path d="M10 20c5.523 0 10-4.477 10-10S15.523 0 10 0 0 4.477 0 10s4.477 10 10 10z" fill="#7F27FF"/>
        <path d="M9.61 8.75H5.013v4.514c-.005.462.18.906.512 1.232.332.326.786.508 1.256.504h2.83L9.61 8.75zm.106-2.362h.495c.49-.844.939-1.417 1.36-1.727.52-.384 1.053-.387 1.47.023.39.383.464.863.207 1.325a1.837 1.837 0 01-.29.38h1.818c.425 0 .849.348.849.832a.854.854 0 01-.849.834h-4.458V6.944H9.61v1.111H5.224c-.424 0-.849-.349-.849-.834 0-.416.356-.833.849-.833H7.06a2.06 2.06 0 01-.305-.357c-.304-.465-.267-.957.13-1.347.417-.41.95-.406 1.47-.023.421.31.87.884 1.36 1.727zm-.822 0c-.362-.577-.686-.969-.962-1.172-.256-.187-.396-.189-.546-.041-.155.152-.164.282-.035.48.148.225.458.48.906.733h.637zm2.14 0h.762c.427-.245.708-.492.83-.712.107-.19.085-.335-.084-.5-.15-.149-.29-.148-.546.04-.277.203-.601.595-.962 1.172zm-.716 2.361h4.598v4.515a1.704 1.704 0 01-.513 1.232c-.335.328-.787.51-1.256.504h-2.83V8.75z" fill="#fff"/>
    </svg>