<svg width="24" height="24" fill="none" viewBox="-2 -2 24 24" id="gvt" x="398" y="24" xmlns="http://www.w3.org/2000/svg">
        <path d="M10 20c5.523 0 10-4.477 10-10S15.523 0 10 0 0 4.477 0 10s4.477 10 10 10z" fill="#030125"/>
        <path fill-rule="evenodd" clip-rule="evenodd" d="M17.56 8.654c0 4.201-3.392 7.619-7.56 7.619-4.168 0-7.56-3.418-7.56-7.619 0-.314.02-.623.057-.927h1.358a6.325 6.325 0 00-.068.927c0 3.453 2.787 6.262 6.213 6.262 3.269 0 5.956-2.557 6.196-5.79h-9.61c.229 1.692 1.672 3.001 3.414 3.001a3.448 3.448 0 003.084-1.924h1.455c-.642 1.905-2.435 3.28-4.54 3.28-2.641 0-4.79-2.166-4.79-4.829 0-.317.03-.626.088-.927h12.206c.037.304.056.613.056.927z" fill="#16B9AD"/>
    </svg>