<svg width="24" height="24" fill="none" viewBox="-2 -2 24 24" id="hc" x="398" y="72" xmlns="http://www.w3.org/2000/svg">
        <circle cx="10" cy="10" r="10" fill="#883AD0"/>
        <path d="M6.659 5h2.77c-.333.525-.537 1.105-.524 1.733.824.008 1.65.008 2.475 0A2.886 2.886 0 0010.861 5h2.79c-.191.4-.518.772-.487 1.242-.012 2.102.005 4.206-.002 6.308.274 0 .55 0 .827.002.202-.399.381-.805.525-1.227.829.02 1.662-.023 2.486.086-.816.7-1.242 1.695-1.774 2.602-2.108.004-4.217-.006-6.328.006-.099.765.376 1.292.926 1.733H6.262c.31-.407.934-.668.869-1.265.02-2.032 0-4.067.006-6.101h1.808v1.252h2.397V8.202H6.336l-1.244 2.174c.413.725.828 1.45 1.246 2.174h.616v1.463H5.07c-.688-1.215-1.4-2.414-2.071-3.637v-.002c.673-1.22 1.388-2.42 2.07-3.635.703 0 1.405 0 2.107-.006A3.005 3.005 0 006.66 5zm2.286 6.114v1.436h2.397v-1.436H8.945z" fill="#fff"/>
        <path d="M13.346 6.74h1.877c.514.822.868 1.77 1.61 2.428l.058.196c-.793.104-1.596.024-2.396.063-.101-.438-.302-.84-.523-1.227l-.626.002V6.74zM11.408 14.197c.554.002 1.111 0 1.666-.003-.013.704.483 1.141.97 1.558h-3.587c.46-.434.997-.845.95-1.556z" fill="#fff"/>
    </svg>