<svg width="25" height="24" fill="none" viewBox="-2 -2 25 24" id="hez" x="125" y="148" xmlns="http://www.w3.org/2000/svg">
        <g clip-path="url(#hjclip0)">
            <circle cx="10.11" cy="10" r="10" fill="#E75A2B"/>
            <path d="M8.056 6.224H5.91a.565.565 0 00-.556.467L3.91 14.842a.565.565 0 00.556.663h2.146a.565.565 0 00.556-.466l.435-2.452a.226.226 0 01.223-.187h1.379a.226.226 0 01.222.266l-.386 2.176a.565.565 0 00.556.663h2.146a.565.565 0 00.557-.466l1.443-8.151a.565.565 0 00-.556-.664H11.04a.565.565 0 00-.556.466l-.423 2.374a.226.226 0 01-.222.187H8.46a.226.226 0 01-.222-.266l.374-2.097a.565.565 0 00-.556-.664zM15.015 10.57a.379.379 0 00-.412-.51l-.625.092-.117.66.187-.028a.127.127 0 01.135.174l-.143.345a.127.127 0 01-.095.076l-.19.034-.117.66.607-.108a.38.38 0 00.288-.239l.482-1.155z" fill="#fff"/>
            <path d="M13.88 5.613a1.361 1.361 0 00-.693-.189h-.683l.047-.226c.04-.228.23-.4.46-.418l3.697-.284a.507.507 0 01.513.686l-.653 1.634a.507.507 0 01-.409.322l-1.686.216.058-.327a1.36 1.36 0 00-.018-.565l1.046-.144a.253.253 0 00.199-.151l.204-.477a.169.169 0 00-.169-.235l-1.913.158zM14.054 9.723l1.173-.17a.38.38 0 00.302-.24l.464-1.165a.379.379 0 00-.402-.512l-1.194.149-.11.625.538-.067a.126.126 0 01.132.174l-.15.365a.126.126 0 01-.1.076l-.531.077-.122.688z" fill="#fff"/>
        </g>
        <defs>
            <clipPath id="hjclip0">
                <path fill="#fff" transform="translate(.13)" d="M0 0h20v20H0z"/>
            </clipPath>
        </defs>
    </svg>