<svg width="25" height="24" fill="none" viewBox="-2 -2 25 24" id="hkd" x="150" y="148" xmlns="http://www.w3.org/2000/svg">
        <g clip-path="url(#hkclip0)">
            <path d="M10.5 20c5.523 0 10-4.477 10-10s-4.477-10-10-10S.5 4.477.5 10s4.477 10 10 10z" fill="#D80027"/>
            <path d="M11.532 7.565c-.227.945-.631.765-.83 1.59a2.174 2.174 0 011.017-4.228c-.396 1.649.016 1.793-.187 2.638zM8.503 8.266c.829.508.533.836 1.255 1.28a2.174 2.174 0 11-3.706-2.273c1.446.886 1.71.538 2.451.993zM8.233 11.363c.74-.631.96-.248 1.605-.798a2.174 2.174 0 01-3.307 2.822c1.29-1.1 1.04-1.46 1.702-2.024zM11.095 12.577c-.371-.899.061-.99-.263-1.773a2.174 2.174 0 011.663 4.017c-.649-1.567-1.067-1.44-1.4-2.244zM13.134 10.23c-.969.076-.922-.364-1.767-.298a2.174 2.174 0 014.334-.34c-1.69.133-1.7.57-2.567.637z" fill="#F0F0F0"/>
        </g>
        <defs>
            <clipPath id="hkclip0">
                <path fill="#fff" transform="translate(.5)" d="M0 0h20v20H0z"/>
            </clipPath>
        </defs>
    </svg>