<svg width="24" height="24" fill="none" viewBox="-2 -2 24 24" id="hnt" x="398" y="142" xmlns="http://www.w3.org/2000/svg">
        <g clip-path="url(#hlclip0)">
            <circle cx="10" cy="10" r="10" fill="#fff"/>
            <path d="M12.66 5.202a1.496 1.496 0 012.113 0 1.496 1.496 0 01-1.268 2.535.215.215 0 00-.068 0 .769.769 0 00-.798 1.086c.5 1.083.27 2.379-.576 3.224a2.873 2.873 0 01-3.224.575.766.766 0 00-.593-.021.76.76 0 00-.43.397.796.796 0 00-.071.38.263.263 0 000 .075 1.496 1.496 0 01-2.532 1.303 1.5 1.5 0 010-2.116c.337-.338.8-.49 1.268-.423h.025a.738.738 0 00.476-.053.777.777 0 00.397-.426.759.759 0 00-.021-.596 2.872 2.872 0 01.575-3.224 2.873 2.873 0 013.225-.576.774.774 0 001.022-.372.802.802 0 00.06-.462v-.003a1.501 1.501 0 01.42-1.303zm-1.477 5.964a1.654 1.654 0 10-2.34-2.34 1.654 1.654 0 002.34 2.34zM10 0c5.522 0 10 4.477 10 9.998C20 15.52 15.526 20 10 20S0 15.523 0 9.998C0 4.474 4.478 0 10 0zm5.33 7.871a2.261 2.261 0 10-3.817-2.045 4.418 4.418 0 00-4.666 1.005 4.412 4.412 0 00-1.002 4.67 2.261 2.261 0 00-1.161.62 2.261 2.261 0 103.821 2.03 4.414 4.414 0 004.652-1.008 4.421 4.421 0 001.012-4.647c.423-.088.831-.294 1.161-.625z" fill="#474DFF"/>
        </g>
        <defs>
            <clipPath id="hlclip0">
                <path fill="#fff" d="M0 0h20v20H0z"/>
            </clipPath>
        </defs>
    </svg>