<svg width="24" height="24" fill="none" viewBox="-2 -2 24 24" id="hogebsc" x="398" y="190" xmlns="http://www.w3.org/2000/svg">
        <ellipse cx="10.002" cy="10.01" rx="9.32" ry="9.34" fill="#242424"/>
        <path fill-rule="evenodd" clip-rule="evenodd" d="M9.304.017A10.49 10.49 0 005.6 1.023c-.567.269-1.228.68-1.815 1.13-.438.336-1.402 1.318-1.735 1.767C.794 5.613.207 7.124.023 9.135c-.046.505-.02 1.635.052 2.159.455 3.36 2.483 6.18 5.558 7.726.742.373 1.528.625 2.471.792.784.139 1.066.168 1.758.184 1.262.03 2.245-.126 3.502-.557 1.519-.521 2.443-1.123 3.707-2.414.508-.518.915-.994 1.193-1.393a9.674 9.674 0 001.146-2.197c.417-1.163.59-2.16.59-3.393 0-1.481-.238-2.664-.8-3.991-.623-1.468-1.699-2.875-2.98-3.898C14.779 1.001 13.092.305 11.138.055A12.874 12.874 0 009.304.017zm1.63.694c.981.121 1.674.293 2.504.619a9.457 9.457 0 013.97 2.996 9.294 9.294 0 011.746 3.823c.142.72.205 1.616.164 2.341a8.557 8.557 0 01-.448 2.401c-.4 1.206-.886 2.066-1.757 3.114-1.132 1.36-2.314 2.195-3.94 2.785a9.397 9.397 0 01-2.112.495 10.36 10.36 0 01-2.132-.013c-1.232-.167-2.131-.43-3.07-.9a9.587 9.587 0 01-4.457-4.706C.641 11.949.442 10.01.83 8.075c.241-1.203.969-2.712 1.867-3.871.29-.375 1.006-1.099 1.413-1.429a9.315 9.315 0 012.125-1.284C7.24 1.058 8.114.82 9.078.713c.466-.05 1.458-.052 1.856-.002zm-1.69 2.704A6.01 6.01 0 007.64 3.9c-.175.079-.317.156-.315.17.002.018.324.025.923.02.683-.007 1.032.002 1.355.034 1.382.135 2.634.485 3.214.9.093.067.266.223.383.348.451.48.69.92.858 1.571.023.088.062.14.169.225a.614.614 0 00.176.111c.031 0 .038-.122.038-.678 0-.373.013-.78.03-.902.029-.217.028-.228-.037-.326-.2-.303-.629-.7-1.083-1.003a6.444 6.444 0 00-2.275-.918c-.391-.075-1.445-.096-1.832-.037zm-1.658.806c-.01.016.016.093.056.172.304.584 1.421 2.674 1.472 2.753.048.075.135.138.355.254.258.137.602.36.958.623.064.047.123.078.133.069.009-.01-.48-.887-1.088-1.951L8.367 4.207 7.986 4.2c-.249-.005-.388.002-.4.021zm.947.022c.008.027.232.43.5.894l1.15 2.006c.366.638.691 1.19.724 1.225.091.1.487.386.513.37.012-.008.006-.047-.015-.088-.143-.276-2.563-4.395-2.599-4.422a.35.35 0 00-.165-.034c-.103 0-.119.007-.108.049zm-2.594.173c-.597.137-1.067.346-1.086.481-.006.037.04.15.112.273.066.117.251.458.41.76.16.301.307.57.327.597.033.045.09.05.62.056.768.007.987.066 1.105.294.035.069.051.075.202.075.118 0 .168-.011.179-.04.008-.022-.238-.485-.563-1.058l-.713-1.258-.135-.239-.114.003a2.304 2.304 0 00-.344.056zm4.36-.01c0 .011.04.082.09.157.05.074.684 1.07 1.408 2.211.724 1.142 1.344 2.105 1.378 2.14l.061.066.12-.058a.824.824 0 00.198-.14l.078-.081-.13-.212c-.61-.99-2.537-3.995-2.573-4.01-.153-.064-.63-.12-.63-.073zm4.51 1.378c-.01.064-.013.927-.008 1.919.009 2.068.013 2.002-.243 3.523-.132.78-.154.963-.165 1.371-.021.767.06.982.447 1.173.205.101.22.104.5.104s.295-.003.501-.104c.407-.202.78-.64 1.094-1.288.518-1.067.696-2.19.478-3.021-.15-.57-.734-1.629-1.378-2.497-.465-.628-1.067-1.296-1.168-1.296-.028 0-.047.038-.058.116zm-8.994.994c-.498.074-.804.174-.843.274-.036.095.144.814.192.767a.76.76 0 00-.031-.199 1.974 1.974 0 01-.046-.323c-.003-.122.006-.144.085-.21.164-.138.521-.202 1.293-.233.326-.013.45-.027.429-.048-.03-.03-.915-.053-1.079-.028zm1.58.55a1.22 1.22 0 00-.127.229c-.23.488-.6.905-.958 1.077a.694.694 0 01-.385.092c-.49-.001-.789-.321-1.068-1.146l-.05-.15-.16-.009c-.415-.021-.965.273-1.299.694-.448.565-.69 1.302-.79 2.4-.172 1.902.409 3.682 1.36 4.172.172.088.357.134.357.088 0-.008-.042-.158-.093-.334a9.845 9.845 0 01-.28-1.17c-.069-.374-.075-.461-.074-1.076 0-.606.006-.69.061-.888.241-.868.79-1.343 1.623-1.402l.249-.018.018-.319c.011-.187.035-.35.058-.393.036-.069.04-.052.054.237.02.403.047.482.179.504 1.192.203 1.934.75 2.791 2.06.113.173.422.696.687 1.161.665 1.168.88 1.485 1.252 1.858.339.339.534.46.903.561.46.127.931.063 1.348-.182.344-.202.747-.648 1.052-1.165.17-.289.184-.387.082-.588-.091-.18-.128-.332-.154-.634-.032-.372.01-.792.178-1.789.197-1.171.266-1.697.231-1.762-.033-.063-.545-.354-.621-.354a.709.709 0 00-.214.094c-.507.299-1.34.348-1.918.112-.267-.108-.506-.263-1.116-.722a28.665 28.665 0 00-.75-.549c-.738-.5-1.352-.71-2.061-.71-.185 0-.35.01-.366.02zm.71.255c.026.08-.052.157-.117.116-.06-.038-.077-.12-.03-.15.065-.04.129-.026.147.034zm-3.562.067c.01.068-.06.134-.117.111-.042-.016-.057-.129-.022-.164.038-.039.13-.003.139.053zm-.54.217c.027.032.027.049 0 .081-.019.023-.05.041-.068.041-.019 0-.05-.018-.068-.04-.027-.033-.027-.05 0-.082.018-.023.049-.041.068-.041.019 0 .05.018.068.04zm3.717.101c.037.06-.038.147-.104.122-.043-.017-.06-.13-.024-.165.03-.03.095-.008.128.043zm1.051.143a.122.122 0 01.023.089c-.012.065-.129.065-.169 0-.024-.04-.02-.058.023-.09.066-.048.082-.048.123.001zm-4.074.06c.05.049.045.089-.017.128-.096.06-.18-.06-.1-.14.044-.044.065-.042.117.011zm-.64.16c0 .085-.07.118-.128.06-.058-.058-.025-.128.06-.128.055 0 .068.013.068.069zm.355.216c0 .053-.074.107-.123.088-.048-.019-.054-.103-.01-.147.039-.039.133.004.133.059zm3.39.026c.024.037.019.056-.022.087-.088.065-.17-.041-.092-.12.04-.04.076-.03.115.033zm.52.072c0 .05-.016.07-.06.077-.038.005-.069-.009-.079-.034-.027-.071.011-.13.078-.12.045.006.062.027.062.077zm-2.881 1.61a1.346 1.346 0 00-.613.217c-.3.194-.496.506-.611.973-.085.343-.083 1.061.003 1.61.077.492.275 1.276.374 1.478.15.307.412.531 1.084.926.776.456 1.481.69 2.467.82.456.06 1.281.04 1.674-.04.498-.102 1.249-.353 1.347-.45.03-.03-.004-.063-.195-.19-.42-.28-.869-.815-1.319-1.574-.076-.128-.282-.49-.459-.806-.615-1.099-.989-1.642-1.42-2.067-.263-.26-.4-.37-.65-.52-.476-.287-1.167-.441-1.682-.376z" fill="#F3F3F3"/>
        <mask id="hna" style="mask-type:alpha" maskUnits="userSpaceOnUse" x="0" y="0" width="20" height="20">
            <path fill-rule="evenodd" clip-rule="evenodd" d="M9.304.017A10.49 10.49 0 005.6 1.023c-.567.269-1.228.68-1.815 1.13-.438.336-1.402 1.318-1.735 1.767C.794 5.613.207 7.124.023 9.135c-.046.505-.02 1.635.052 2.159.455 3.36 2.483 6.18 5.558 7.726.742.373 1.528.625 2.471.792.784.139 1.066.168 1.758.184 1.262.03 2.245-.126 3.502-.557 1.519-.521 2.443-1.123 3.707-2.414.508-.518.915-.994 1.193-1.393a9.674 9.674 0 001.146-2.197c.417-1.163.59-2.16.59-3.393 0-1.481-.238-2.664-.8-3.991-.623-1.468-1.699-2.875-2.98-3.898C14.779 1.001 13.092.305 11.138.055A12.874 12.874 0 009.304.017zm1.63.694c.981.121 1.674.293 2.504.619a9.457 9.457 0 013.97 2.996 9.294 9.294 0 011.746 3.823c.142.72.205 1.616.164 2.341a8.557 8.557 0 01-.448 2.401c-.4 1.206-.886 2.066-1.757 3.114-1.132 1.36-2.314 2.195-3.94 2.785a9.397 9.397 0 01-2.112.495 10.36 10.36 0 01-2.132-.013c-1.232-.167-2.131-.43-3.07-.9a9.587 9.587 0 01-4.457-4.706C.641 11.949.442 10.01.83 8.075c.241-1.203.969-2.712 1.867-3.871.29-.375 1.006-1.099 1.413-1.429a9.315 9.315 0 012.125-1.284C7.24 1.058 8.114.82 9.078.713c.466-.05 1.458-.052 1.856-.002zm-1.69 2.704A6.01 6.01 0 007.64 3.9c-.175.079-.317.156-.315.17.002.018.324.025.923.02.683-.007 1.032.002 1.355.034 1.382.135 2.634.485 3.214.9.093.067.266.223.383.348.451.48.69.92.858 1.571.023.088.062.14.169.225a.614.614 0 00.176.111c.031 0 .038-.122.038-.678 0-.373.013-.78.03-.902.029-.217.028-.228-.037-.326-.2-.303-.629-.7-1.083-1.003a6.444 6.444 0 00-2.275-.918c-.391-.075-1.445-.096-1.832-.037zm-1.658.806c-.01.016.016.093.056.172.304.584 1.421 2.674 1.472 2.753.048.075.135.138.355.254.258.137.602.36.958.623.064.047.123.078.133.069.009-.01-.48-.887-1.088-1.951L8.367 4.207 7.986 4.2c-.249-.005-.388.002-.4.021zm.947.022c.008.027.232.43.5.894l1.15 2.006c.366.638.691 1.19.724 1.225.091.1.487.386.513.37.012-.008.006-.047-.015-.088-.143-.276-2.563-4.395-2.599-4.422a.35.35 0 00-.165-.034c-.103 0-.119.007-.108.049zm-2.594.173c-.597.137-1.067.346-1.086.481-.006.037.04.15.112.273.066.117.251.458.41.76.16.301.307.57.327.597.033.045.09.05.62.056.768.007.987.066 1.105.294.035.069.051.075.202.075.118 0 .168-.011.179-.04.008-.022-.238-.485-.563-1.058l-.713-1.258-.135-.239-.114.003a2.304 2.304 0 00-.344.056zm4.36-.01c0 .011.04.082.09.157.05.074.684 1.07 1.408 2.211.724 1.142 1.344 2.105 1.378 2.14l.061.066.12-.058a.824.824 0 00.198-.14l.078-.081-.13-.212c-.61-.99-2.537-3.995-2.573-4.01-.153-.064-.63-.12-.63-.073zm4.51 1.378c-.01.064-.013.927-.008 1.919.009 2.068.013 2.002-.243 3.523-.132.78-.154.963-.165 1.371-.021.767.06.982.447 1.173.205.101.22.104.5.104s.295-.003.501-.104c.407-.202.78-.64 1.094-1.288.518-1.067.696-2.19.478-3.021-.15-.57-.734-1.629-1.378-2.497-.465-.628-1.067-1.296-1.168-1.296-.028 0-.047.038-.058.116zm-8.994.994c-.498.074-.804.174-.843.274-.036.095.144.814.192.767a.76.76 0 00-.031-.199 1.974 1.974 0 01-.046-.323c-.003-.122.006-.144.085-.21.164-.138.521-.202 1.293-.233.326-.013.45-.027.429-.048-.03-.03-.915-.053-1.079-.028zm1.58.55a1.22 1.22 0 00-.127.229c-.23.488-.6.905-.958 1.077a.694.694 0 01-.385.092c-.49-.001-.789-.321-1.068-1.146l-.05-.15-.16-.009c-.415-.021-.965.273-1.299.694-.448.565-.69 1.302-.79 2.4-.172 1.902.409 3.682 1.36 4.172.172.088.357.134.357.088 0-.008-.042-.158-.093-.334a9.845 9.845 0 01-.28-1.17c-.069-.374-.075-.461-.074-1.076 0-.606.006-.69.061-.888.241-.868.79-1.343 1.623-1.402l.249-.018.018-.319c.011-.187.035-.35.058-.393.036-.069.04-.052.054.237.02.403.047.482.179.504 1.192.203 1.934.75 2.791 2.06.113.173.422.696.687 1.161.665 1.168.88 1.485 1.252 1.858.339.339.534.46.903.561.46.127.931.063 1.348-.182.344-.202.747-.648 1.052-1.165.17-.289.184-.387.082-.588-.091-.18-.128-.332-.154-.634-.032-.372.01-.792.178-1.789.197-1.171.266-1.697.231-1.762-.033-.063-.545-.354-.621-.354a.709.709 0 00-.214.094c-.507.299-1.34.348-1.918.112-.267-.108-.506-.263-1.116-.722a28.665 28.665 0 00-.75-.549c-.738-.5-1.352-.71-2.061-.71-.185 0-.35.01-.366.02zm.71.255c.026.08-.052.157-.117.116-.06-.038-.077-.12-.03-.15.065-.04.129-.026.147.034zm-3.562.067c.01.068-.06.134-.117.111-.042-.016-.057-.129-.022-.164.038-.039.13-.003.139.053zm-.54.217c.027.032.027.049 0 .081-.019.023-.05.041-.068.041-.019 0-.05-.018-.068-.04-.027-.033-.027-.05 0-.082.018-.023.049-.041.068-.041.019 0 .05.018.068.04zm3.717.101c.037.06-.038.147-.104.122-.043-.017-.06-.13-.024-.165.03-.03.095-.008.128.043zm1.051.143a.122.122 0 01.023.089c-.012.065-.129.065-.169 0-.024-.04-.02-.058.023-.09.066-.048.082-.048.123.001zm-4.074.06c.05.049.045.089-.017.128-.096.06-.18-.06-.1-.14.044-.044.065-.042.117.011zm-.64.16c0 .085-.07.118-.128.06-.058-.058-.025-.128.06-.128.055 0 .068.013.068.069zm.355.216c0 .053-.074.107-.123.088-.048-.019-.054-.103-.01-.147.039-.039.133.004.133.059zm3.39.026c.024.037.019.056-.022.087-.088.065-.17-.041-.092-.12.04-.04.076-.03.115.033zm.52.072c0 .05-.016.07-.06.077-.038.005-.069-.009-.079-.034-.027-.071.011-.13.078-.12.045.006.062.027.062.077zm-2.881 1.61a1.346 1.346 0 00-.613.217c-.3.194-.496.506-.611.973-.085.343-.083 1.061.003 1.61.077.492.275 1.276.374 1.478.15.307.412.531 1.084.926.776.456 1.481.69 2.467.82.456.06 1.281.04 1.674-.04.498-.102 1.249-.353 1.347-.45.03-.03-.004-.063-.195-.19-.42-.28-.869-.815-1.319-1.574-.076-.128-.282-.49-.459-.806-.615-1.099-.989-1.642-1.42-2.067-.263-.26-.4-.37-.65-.52-.476-.287-1.167-.441-1.682-.376z" fill="#C4C4C4"/>
        </mask>
        <g mask="url(#hna)">
            <path d="M2.93 13.624c.083.112.292.318.47.246.224-.09-.156-2.125 0-2.505.157-.38.336-2.215 2.327-2.305 1.991-.09 2.908 1.186 3.982 2.618 1.074 1.432 1.924 1.946 2.528 1.946.604 0 1.298-.403 1.477-1.14.179-.74.425-2.753.447-2.864.018-.09-.455-.35-.693-.47l.246-.336.581-.201.157.447.067.694-.067.872-.29 1.276v1.319l.133-.738c.418-.045 1.352-.318 1.745-1.051.493-.918.739-1.03 1.03-2.73.232-1.36 1.26.716 1.744 1.924l-.827 2.484-1.03 1.23-2.102-.09-.202-.402-.492-.627.291.627.403 1.163-.336 1.342-5.168 1.343-2.729-.135-2.148-.76-1.342-1.745-.537-1.275.336-.157z" fill="#C4C4C4"/>
        </g>
    </svg>