<svg width="24" height="24" fill="none" viewBox="-2 -2 24 24" id="hot" x="398" y="214" xmlns="http://www.w3.org/2000/svg">
        <circle cx="10" cy="10" r="10" fill="#8834FF"/>
        <path d="M4.314 5.73c-.182.015-.322.044-.314.065.073.173.521 1.188.527 1.194.006.007.11.014.233.019.543.02.973.126 1.437.356.334.164.581.341.838.597a2.902 2.902 0 01.8 1.432c0 .01-.082.013-.447.013-.248 0-.46.004-.473.009-.02.007-.07.117-.283.604-.143.328-.261.604-.263.613-.007.026.078.05.293.082.044.007.307.014.618.018l.542.006-.032.112c-.366 1.24-1.5 2.106-2.89 2.21a4.67 4.67 0 01-.229.01h-.087l-.267.616c-.23.526-.266.616-.25.621.07.025.224.035.584.035.459 0 .683-.02 1.061-.098 1.547-.318 2.832-1.302 3.414-2.617.112-.253.244-.67.268-.844l.007-.05h1.16l.005.022c.083.41.174.688.331 1.014.473.984 1.359 1.788 2.457 2.229a5.28 5.28 0 002.097.376c.3-.009.54-.043.527-.074-.01-.027-.518-1.194-.521-1.197-.004-.003-.109-.007-.236-.012a3.608 3.608 0 01-2.22-.82 3.033 3.033 0 01-.984-1.504l-.007-.033.437-.003c.24-.002.444-.007.452-.011.014-.008.536-1.193.536-1.216 0-.015-.132-.054-.251-.074-.088-.014-.2-.018-.643-.021l-.538-.005.02-.073c.298-1.055 1.213-1.893 2.392-2.19.26-.066.514-.1.842-.113.196-.008.22-.011.233-.027.008-.012.129-.282.268-.602.17-.39.249-.584.242-.589a1.511 1.511 0 00-.278-.049 6.785 6.785 0 00-.85.004c-1.203.108-2.287.593-3.1 1.385a4.147 4.147 0 00-1.2 2.181l-.013.075H9.42l-.005-.024-.026-.13c-.169-.836-.644-1.65-1.316-2.25a5.053 5.053 0 00-2.768-1.24 5.706 5.706 0 00-.99-.031z" fill="#fff"/>
    </svg>