<svg width="24" height="24" fill="none" viewBox="-2 -2 24 24" id="hpb" x="398" y="238" xmlns="http://www.w3.org/2000/svg">
        <path d="M1.551 9.369a11.935 11.935 0 01-.186-3.13c.035-.532.115-1.075.39-1.528.259-.427.668-.738 1.103-.951 1.92-.942 4.347-.747 6.222.204a7.603 7.603 0 013.405 3.485c-1.298-1.04-2.987-1.574-4.65-1.52-1.661.053-3.297.693-4.577 1.75-.622.516-1.164 1.12-1.707 1.725.01-.017 0-.026 0-.035z" fill="url(#hpa)"/>
        <path d="M5.258 17.111a12.181 12.181 0 01-2.8-1.413c-.436-.302-.871-.64-1.129-1.102-.24-.436-.302-.943-.267-1.431.152-2.134 1.547-4.134 3.307-5.28a7.643 7.643 0 014.729-1.192C7.542 7.29 6.236 8.48 5.445 9.938c-.791 1.458-1.058 3.2-.791 4.835.133.8.382 1.574.63 2.347 0 0-.008 0-.026-.009z" fill="url(#hpb)"/>
        <path d="M13.827 17.778a11.753 11.753 0 01-2.595 1.769c-.471.24-.978.453-1.512.453-.488 0-.968-.195-1.386-.462-1.796-1.174-2.871-3.351-3.014-5.45a7.616 7.616 0 011.245-4.71c-.231 1.644.178 3.369 1.075 4.764.898 1.396 2.285 2.471 3.85 3.031.764.276 1.564.427 2.355.578 0 .009-.009.018-.018.027z" fill="url(#hpc)"/>
        <path d="M18.805 10.764c.195 1.032.249 2.09.178 3.13-.036.533-.125 1.075-.4 1.528-.258.418-.667.73-1.112.942-1.928.934-4.346.72-6.222-.24a7.603 7.603 0 01-3.386-3.502c1.288 1.05 2.977 1.591 4.64 1.547 1.662-.045 3.297-.676 4.586-1.734.631-.515 1.174-1.12 1.716-1.715-.01.018-.01.035 0 .044z" fill="url(#hpd)"/>
        <path d="M15.01 2.871c.995.338 1.946.8 2.817 1.378.445.293.88.631 1.138 1.093.24.427.311.943.284 1.431-.133 2.143-1.493 4.152-3.253 5.316a7.615 7.615 0 01-4.711 1.244c1.547-.613 2.844-1.813 3.618-3.289.773-1.475 1.022-3.208.737-4.844-.142-.8-.4-1.573-.657-2.338 0 0 .009.01.026.01z" fill="url(#hpe)"/>
        <path d="M6.547 2.249A12.25 12.25 0 019.16.516c.48-.232.987-.436 1.52-.427.49.009.97.204 1.378.48C13.836 1.76 14.876 3.956 15 6.062a7.58 7.58 0 01-1.306 4.694c.249-1.645-.134-3.37-1.014-4.783A7.643 7.643 0 008.876 2.89c-.756-.285-1.556-.445-2.347-.613 0-.01.01-.018.018-.027z" fill="url(#hpf)"/>
        <defs>
            <linearGradient id="hpa" x1="11.304" y1="4.48" x2="4.687" y2="10.798" gradientUnits="userSpaceOnUse">
                <stop stop-color="#F0FBFC"/>
                <stop offset="1" stop-color="#B0E7ED"/>
            </linearGradient>
            <linearGradient id="hpb" x1="8.629" y1="6.415" x2="-1.951" y2="17.737" gradientUnits="userSpaceOnUse">
                <stop offset=".231" stop-color="#0DF9FF"/>
                <stop offset=".917" stop-color="#252369"/>
            </linearGradient>
            <linearGradient id="hpc" x1="4.639" y1="11.928" x2="13.452" y2="14.37" gradientUnits="userSpaceOnUse">
                <stop stop-color="#F0FBFC"/>
                <stop offset="1" stop-color="#B0E7ED"/>
            </linearGradient>
            <linearGradient id="hpd" x1="22.852" y1="14.871" x2="6.594" y2="6.671" gradientUnits="userSpaceOnUse">
                <stop offset=".227" stop-color="#0DF9FF"/>
                <stop offset=".881" stop-color="#252369"/>
            </linearGradient>
            <linearGradient id="hpe" x1="14.456" y1="13.758" x2="12.229" y2="4.887" gradientUnits="userSpaceOnUse">
                <stop stop-color="#F0FBFC"/>
                <stop offset="1" stop-color="#B0E7ED"/>
            </linearGradient>
            <linearGradient id="hpf" x1="14.509" y1="6.733" x2="2.186" y2="6.336" gradientUnits="userSpaceOnUse">
                <stop offset=".09" stop-color="#0DF9FF"/>
                <stop offset="1" stop-color="#252369"/>
            </linearGradient>
        </defs>
    </svg>