<svg width="24" height="24" fill="none" viewBox="-2 -2 24 24" id="hrk" x="398" y="262" xmlns="http://www.w3.org/2000/svg">
        <g clip-path="url(#hqclip0)">
            <path d="M20 10c0-1.223-.22-2.395-.622-3.478L10 6.087l-9.378.435A9.979 9.979 0 000 10c0 1.223.22 2.395.622 3.478l9.378.435 9.378-.435A9.978 9.978 0 0020 10z" fill="#F0F0F0"/>
            <path d="M10 20c4.3 0 7.965-2.714 9.378-6.522H.622A10.004 10.004 0 0010 20z" fill="#0052B4"/>
            <path d="M.622 6.522h18.756a10.004 10.004 0 00-18.756 0z" fill="#D80027"/>
            <path d="M12.609 6.957h-1.74l.29-2.174 1.16-.87 1.16.87v1.739l-.87.435zm-5.218 0h1.74l-.29-2.174-1.16-.87-1.16.87v1.739l.87.435z" fill="#338AF3"/>
            <path d="M11.16 6.957H8.84V4.783l1.16-.87 1.16.87v2.174z" fill="#0052B4"/>
            <path d="M6.522 6.522v4.782c0 1.14.55 2.152 1.398 2.787l.609-.152.768.772a3.48 3.48 0 001.402.001l.877-.73.504.107a3.474 3.474 0 001.398-2.785V6.522H6.522z" fill="#F0F0F0"/>
            <path d="M7.913 6.522H6.522v1.391h1.391V6.522zm2.783 0H9.304v1.391h1.392V6.522zm2.782 0h-1.391v1.391h1.391V6.522zM9.304 7.913h-1.39v1.391h1.39V7.913zm2.783 0h-1.391v1.391h1.39V7.913zM7.913 9.304H6.522v1.391h1.391V9.304zm1.391 1.391h-1.39v1.391h1.39v-1.39zm1.392-1.391H9.304v1.391h1.392V9.304zm2.782 0h-1.391v1.391h1.391V9.304zm-1.391 1.391h-1.391v1.391h1.39v-1.39zm-1.391 1.391H9.304v1.392h1.392v-1.392zm-2.783.001H6.61c.12.517.354.99.676 1.391h.626v-1.391zm4.174 1.391h.626c.321-.4.556-.874.675-1.391h-1.301v1.391zm-4.174 0v.607a3.48 3.48 0 001.391.628v-1.235h-1.39zm2.783 0v1.235a3.463 3.463 0 001.39-.628v-.607h-1.39z" fill="#D80027"/>
        </g>
        <defs>
            <clipPath id="hqclip0">
                <path fill="#fff" d="M0 0h20v20H0z"/>
            </clipPath>
        </defs>
    </svg>