<svg width="24" height="24" fill="none" viewBox="-2 -2 24 24" id="ht" x="398" y="286" xmlns="http://www.w3.org/2000/svg">
        <circle cx="10" cy="10" r="10" fill="#0B0B37"/>
        <path d="M11.792 6.414c0-2.316-1.136-4.282-1.966-4.893 0 0-.044-.044-.044.043C9.695 6.021 7.467 7.2 6.2 8.817c-2.884 3.757-.219 7.82 2.533 8.606 1.53.437-.349-.742-.611-3.233-.306-3.014 3.67-5.286 3.67-7.776z" fill="#fff"/>
        <path d="M13.102 7.943h-.043c-.044.568-.612 1.747-1.355 2.84-2.446 3.713-1.048 5.504-.262 6.466.437.567 0 0 1.136-.569 1.398-.873 2.316-2.315 2.447-3.975.218-2.621-1.355-4.282-1.923-4.762z" fill="#2EA7E0"/>
    </svg>