<svg width="25" height="24" fill="none" viewBox="-2 -2 25 24" id="huf" x="178" xmlns="http://www.w3.org/2000/svg">
        <g clip-path="url(#hsclip0)">
            <path d="M1.504 6.522A9.978 9.978 0 00.882 10c0 1.223.22 2.395.622 3.478l9.378.87 9.378-.87A9.978 9.978 0 0020.882 10c0-1.223-.22-2.395-.622-3.478l-9.378-.87-9.378.87z" fill="#F0F0F0"/>
            <path d="M10.882 0c-4.3 0-7.965 2.714-9.378 6.522H20.26A10.004 10.004 0 0010.882 0z" fill="#D80027"/>
            <path d="M10.882 20c4.3 0 7.965-2.714 9.378-6.522H1.504A10.003 10.003 0 0010.882 20z" fill="#6DA544"/>
        </g>
        <defs>
            <clipPath id="hsclip0">
                <path fill="#fff" transform="translate(.882)" d="M0 0h20v20H0z"/>
            </clipPath>
        </defs>
    </svg>