<svg width="24" height="24" fill="none" viewBox="-2 -2 24 24" id="husd" x="398" y="310" xmlns="http://www.w3.org/2000/svg">
        <path d="M10 20c5.523 0 10-4.477 10-10S15.523 0 10 0 0 4.477 0 10s4.477 10 10 10z" fill="#1C61EE"/>
        <path d="M8.223 15.127H6.27v-3.173c1.073 0 1.94.867 1.94 1.94v1.233h.014zM11.778 9.016l-2.835.014a.727.727 0 01-.734-.734V4.873h-1.94v4.143c0 1.072.867 1.939 1.94 1.939h2.835c.411 0 .734.323.734.734v3.423h1.94V10.97a1.922 1.922 0 00-1.94-1.954zM11.778 4.873h1.94V8.06a1.937 1.937 0 01-1.94-1.94V4.874z" fill="#F2F2F2"/>
    </svg>