<svg width="24" height="24" fill="none" viewBox="-2 -2 24 24" id="icp" x="398" y="334" xmlns="http://www.w3.org/2000/svg">
        <path d="M10 20c5.523 0 10-4.477 10-10S15.523 0 10 0 0 4.477 0 10s4.477 10 10 10z" fill="#fff"/>
        <path fill-rule="evenodd" clip-rule="evenodd" d="M3.284 7.839c-.444.38-.8 1.006-.8 2.054 0 1.045.367 1.743.844 2.185.492.456 1.158.691 1.818.691.209 0 .496-.082.873-.303.373-.22.772-.539 1.19-.927.416-.386.827-.817 1.226-1.247a157.924 157.924 0 00.341-.369l-.015-.016c-.474-.51-.986-1.062-1.557-1.563C6.37 7.61 5.67 7.23 5.146 7.23c-.729 0-1.394.208-1.862.608zm6.746.755c-.468-.503-1.036-1.104-1.622-1.619C7.55 6.22 6.4 5.408 5.146 5.408c-1.05 0-2.171.298-3.046 1.045C1.2 7.221.66 8.381.66 9.893c0 1.515.553 2.71 1.43 3.523.86.797 1.982 1.176 3.056 1.176.658 0 1.27-.245 1.797-.555.533-.313 1.042-.73 1.507-1.162.467-.434.916-.907 1.32-1.342l.23-.248.093.109c.52.612 1.057 1.243 1.584 1.738.84.788 1.856 1.442 3.192 1.46 2.614.034 4.47-2.167 4.47-4.699 0-1.256-.416-2.39-1.223-3.215-.81-.826-1.942-1.27-3.235-1.27-1.41 0-2.457.691-3.268 1.454-.403.38-.77.797-1.1 1.178l-.1.116c-.133.153-.26.3-.383.438zm1.232 1.358l.323.38c.468.553.881 1.04 1.34 1.47.68.639 1.277.958 1.968.967 1.44.02 2.624-1.194 2.624-2.876 0-.85-.277-1.504-.704-1.94-.424-.433-1.065-.722-1.932-.722-.75 0-1.37.349-2.02.959-.327.308-.639.66-.97 1.044l-.103.118c-.169.196-.345.4-.526.6z" fill="url(#hupaint0_linear)"/>
        <path fill-rule="evenodd" clip-rule="evenodd" d="M.74 8.932c.18-1.05.662-1.883 1.36-2.479.875-.747 1.996-1.045 3.046-1.045 1.254 0 2.403.812 3.262 1.567.644.566 1.267 1.236 1.76 1.766.181.196.345.372.486.518l.012.012.012.013c.335.373.63.722.907 1.048.468.553.881 1.04 1.34 1.47.68.639 1.707.967 2.374 1.085.666.117 2.772.067 3.913-1.858-.46 2.02-2.13 3.592-4.343 3.563-1.336-.018-2.352-.672-3.192-1.46-.527-.495-1.063-1.126-1.584-1.738a44.183 44.183 0 00-.76-.879c-.184-.19-.375-.396-.571-.608-.474-.51-.987-1.062-1.557-1.563C6.37 7.61 5.519 7.32 5.145 7.23 4.774 7.14 2.378 6.305.74 8.932z" fill="#53A9DD"/>
        <defs>
            <linearGradient id="hupaint0_linear" x1="1.915" y1="8.07" x2="18.149" y2="12.987" gradientUnits="userSpaceOnUse">
                <stop stop-color="#4B2D80"/>
                <stop offset=".345" stop-color="#DA3B78"/>
                <stop offset=".734" stop-color="#E06337"/>
                <stop offset="1" stop-color="#F1B254"/>
            </linearGradient>
        </defs>
    </svg>