<svg width="24" height="24" fill="none" viewBox="-2 -2 24 24" id="icx" x="398" y="358" xmlns="http://www.w3.org/2000/svg">
        <circle cx="10" cy="10" r="10" fill="#18A0B1"/>
        <path d="M14.966 6.069a1.035 1.035 0 100-2.07 1.035 1.035 0 000 2.07zM7.012 11.775a3.464 3.464 0 014.743-4.742l.827-.827-.041-.034a4.61 4.61 0 00-6.356 6.43l.827-.827zM12.988 8.27a3.463 3.463 0 01-4.742 4.742l-.828.828a4.605 4.605 0 006.397-6.397l-.827.827zM5.034 16a1.035 1.035 0 100-2.069 1.035 1.035 0 000 2.069z" fill="#fff"/>
    </svg>