<svg width="25" height="24" fill="none" viewBox="-2 -2 25 24" id="ils" x="178" y="48" xmlns="http://www.w3.org/2000/svg">
        <g clip-path="url(#hxclip0)">
            <path d="M10.882 20c5.523 0 10-4.477 10-10s-4.477-10-10-10-10 4.477-10 10 4.477 10 10 10z" fill="#F0F0F0"/>
            <path d="M14.648 7.826h-2.51l-1.256-2.174-1.255 2.174h-2.51L8.372 10l-1.255 2.174h2.51l1.255 2.174 1.255-2.174h2.51L13.393 10l1.256-2.174zM12.424 10l-.77 1.335H10.11L9.341 10l.77-1.335h1.542L12.424 10zm-1.542-2.67l.287.496h-.574l.287-.497zM8.57 8.664h.574l-.287.497-.287-.497zm0 2.67l.287-.497.287.498H8.57zm2.313 1.336l-.287-.497h.574l-.287.497zm2.313-1.335h-.574l.287-.498.287.498zm-.574-2.671h.574l-.287.497-.287-.497zM17.107 2.174H4.657A10.05 10.05 0 002.35 4.783h17.065a10.051 10.051 0 00-2.308-2.61zM4.657 17.826h12.45a10.052 10.052 0 002.308-2.609H2.35a10.053 10.053 0 002.307 2.61z" fill="#0052B4"/>
        </g>
        <defs>
            <clipPath id="hxclip0">
                <path fill="#fff" transform="translate(.882)" d="M0 0h20v20H0z"/>
            </clipPath>
        </defs>
    </svg>