<svg width="25" height="24" fill="none" viewBox="-2 -2 25 24" id="inr" x="178" y="72" xmlns="http://www.w3.org/2000/svg">
        <g clip-path="url(#hzclip0)">
            <path d="M10.5 20c5.523 0 10-4.477 10-10s-4.477-10-10-10S.5 4.477.5 10s4.477 10 10 10z" fill="#F0F0F0"/>
            <path d="M10.5 0a10 10 0 00-9.008 5.652h18.016A10 10 0 0010.5 0z" fill="#FF9811"/>
            <path d="M10.5 20a10 10 0 009.008-5.652H1.492A10 10 0 0010.5 20z" fill="#6DA544"/>
            <path d="M10.5 13.478a3.478 3.478 0 100-6.956 3.478 3.478 0 000 6.956z" fill="#0052B4"/>
            <path d="M10.5 12.174a2.174 2.174 0 100-4.348 2.174 2.174 0 000 4.348z" fill="#F0F0F0"/>
            <path d="M10.5 7.317l.67 1.521 1.653-.18L11.841 10l.982 1.341-1.652-.18-.671 1.522-.67-1.521-1.653.18L9.159 10l-.982-1.341 1.652.18.67-1.522z" fill="#0052B4"/>
        </g>
        <defs>
            <clipPath id="hzclip0">
                <path fill="#fff" transform="translate(.5)" d="M0 0h20v20H0z"/>
            </clipPath>
        </defs>
    </svg>