<svg width="24" height="24" fill="none" viewBox="-2 -2 24 24" id="iost" x="24" y="388" xmlns="http://www.w3.org/2000/svg">
        <path d="M11.111 2.257H8.16L3.993 3.75c-.3 1.377-.937 4.326-1.076 5.104-.14.778.058 4.283.173 5.938l7.466 4.236 7.048-5.486-.278-6.598-.729-1.77-5.486-2.917z" fill="#fff"/>
        <path d="M10 0L1.111 5v10L10 20l8.889-5V5L10 0zm.182 16.197l-6.823-3.791.028-1.844 6.79 3.788 3.276-1.84-2.197-1.236-.822.462-1.54-.862.825-.466L8.641 9.8l-.652.37-1.545-.863.656-.37-3.48-1.959 6.558-3.687 6.186 3.437-1.659.94-4.527-2.53-3.275 1.84L8.736 8.01l.936-.531 1.545.862-.944.531 1.078.608.766-.435 1.545.863-.774.438 3.84 2.16-6.546 3.691z" fill="#000"/>
    </svg>