<svg width="24" height="24" fill="none" viewBox="-2 -2 24 24" id="iota" x="48" y="388" xmlns="http://www.w3.org/2000/svg">
        <circle cx="10" cy="10" r="10" fill="#000"/>
        <path d="M12.909 4.624c.458 0 .83-.365.83-.812a.822.822 0 00-.83-.812.825.825 0 00-.83.814c0 .448.372.81.83.81zm.245 2.11a.722.722 0 00.499-.203.67.67 0 00.204-.484.696.696 0 00-.703-.688.695.695 0 00-.703.688c0 .38.314.687.703.687zm1.93.27a.694.694 0 00.7-.687.694.694 0 00-.7-.686c-.387 0-.702.307-.702.686 0 .38.315.686.701.686zm-.232 1.805c.33 0 .6-.263.6-.586a.593.593 0 00-.6-.586c-.332 0-.6.263-.6.586 0 .323.268.586.6.586zm1.544.586a.597.597 0 00.604-.59c0-.326-.27-.59-.604-.59a.627.627 0 00-.428.174.587.587 0 00-.175.415c0 .326.27.59.603.59zm-3.486-.83a.638.638 0 00.436-.177.594.594 0 00.179-.422v-.002c0-.331-.274-.6-.615-.6a.607.607 0 00-.614.6c0 .33.274.6.614.6zM12.353 10a.509.509 0 00.515-.502.49.49 0 00-.148-.354.527.527 0 00-.365-.149h-.002a.509.509 0 00-.515.503c0 .277.23.502.515.502zm1.933.254a.53.53 0 00.362-.147.492.492 0 00.148-.352c0-.277-.228-.501-.51-.501a.505.505 0 00-.475.69.494.494 0 00.274.27c.062.026.128.04.196.04h.005zm1.54.584a.51.51 0 00.515-.505.51.51 0 00-.515-.504.51.51 0 00-.515.504.49.49 0 00.148.355.528.528 0 00.365.15h.002zm-.76 1.09a.43.43 0 00.434-.426.43.43 0 00-.435-.425.43.43 0 00-.435.425.43.43 0 00.435.426zm-1.549-.574a.441.441 0 00.446-.436.44.44 0 00-.445-.436.44.44 0 00-.446.436c0 .24.2.436.446.436zm-1.93-.267a.456.456 0 00.313-.128.423.423 0 000-.606.456.456 0 00-.312-.129.456.456 0 00-.312.129.424.424 0 000 .605c.082.081.194.128.31.13h.002zm1.074 1.025a.38.38 0 00.384-.375.364.364 0 00-.11-.263.392.392 0 00-.271-.111h-.003a.38.38 0 00-.384.374.363.363 0 00.109.263c.071.07.168.11.27.112h.005zm1.547.583a.384.384 0 00.388-.378.383.383 0 00-.388-.378.4.4 0 00-.278.11.371.371 0 000 .535.4.4 0 00.278.111zm-.872.438a.303.303 0 00.306-.299.292.292 0 00-.088-.21.315.315 0 00-.218-.089.303.303 0 00-.306.3c0 .078.032.153.09.21a.315.315 0 00.216.088zm-.825.235a.287.287 0 00.196-.08.267.267 0 00.08-.19c0-.151-.125-.271-.277-.271a.287.287 0 00-.196.08.267.267 0 00-.08.19.261.261 0 00.077.19c.051.05.12.08.194.081h.005zm-.724-.779c.182 0 .33-.144.33-.321a.326.326 0 00-.33-.322.326.326 0 00-.33.322c0 .084.035.166.097.226s.146.095.233.095zm-1.06-.737a.38.38 0 00.383-.375.378.378 0 00-.384-.374.38.38 0 00-.384.374c0 .1.04.194.112.264.072.07.17.11.272.11zm3.146 4.69a.817.817 0 00.825-.809.817.817 0 00-.825-.808.817.817 0 00-.826.808c0 .446.37.808.826.808zm-2.098-1.023c.38 0 .689-.302.689-.674a.681.681 0 00-.689-.673.681.681 0 00-.688.673.68.68 0 00.688.674zM10.577 17a.686.686 0 00.694-.68c0-.374-.31-.68-.694-.68a.686.686 0 00-.694.68.662.662 0 00.2.479c.13.127.308.2.494.201zm-.36-2.728a.627.627 0 00.427-.174.582.582 0 00.13-.638.581.581 0 00-.326-.319.625.625 0 00-.232-.046.624.624 0 00-.427.175.582.582 0 00-.175.414c0 .324.271.588.602.588zm-1.196 1.5c.331 0 .6-.262.6-.585a.593.593 0 00-.6-.586c-.331 0-.6.262-.6.586a.57.57 0 00.172.412c.112.11.265.172.424.174h.004zm-1.289 1.02a.591.591 0 00.598-.585.591.591 0 00-.598-.585.591.591 0 00-.597.585c0 .322.268.584.597.584zM6.66 15.465a.525.525 0 00.362-.148.488.488 0 00.149-.351.505.505 0 00-.511-.499.527.527 0 00-.36.149.49.49 0 000 .7.527.527 0 00.36.149zm1.29-1.023a.524.524 0 00.363-.148.487.487 0 00.148-.35.504.504 0 00-.51-.5.527.527 0 00-.361.149.49.49 0 00-.002.7.527.527 0 00.361.149h.002zm1.205-1.5a.53.53 0 00.363-.148.493.493 0 00.148-.351v-.002c0-.276-.228-.5-.51-.5a.53.53 0 00-.363.147.496.496 0 00-.148.352v.001c0 .277.228.5.51.5zm-1.842.206a.438.438 0 00.443-.433.438.438 0 00-.443-.433.438.438 0 00-.444.433c0 .24.199.433.444.433zm-1.284 1.02a.457.457 0 00.311-.127.424.424 0 00.128-.302v-.001a.417.417 0 00-.126-.302.45.45 0 00-.31-.127h-.003a.455.455 0 00-.312.126.424.424 0 00-.128.302.413.413 0 00.128.303.443.443 0 00.312.127zm-.296-1.195a.39.39 0 00.27-.11.362.362 0 00.11-.26.375.375 0 00-.38-.37.376.376 0 00-.38.37c0 .205.171.37.38.37zm-.01-1.048a.336.336 0 00.23-.095.315.315 0 00.095-.224.323.323 0 00-.325-.32.322.322 0 00-.326.32c0 .177.146.32.326.32zm.178-.871a.273.273 0 00.277-.27.275.275 0 00-.277-.271.273.273 0 00-.276.27c0 .149.122.271.276.271zm1.108-.146c.181 0 .33-.145.33-.322a.326.326 0 00-.33-.321.326.326 0 00-.33.322c0 .084.034.166.096.226a.34.34 0 00.234.095zm1.215-.456a.38.38 0 00.384-.375.364.364 0 00-.11-.263.392.392 0 00-.271-.11h-.003a.38.38 0 00-.384.373.36.36 0 00.11.264.387.387 0 00.272.11h.002zm.29 1.188a.444.444 0 00.307-.124.413.413 0 000-.594.444.444 0 00-.617 0 .413.413 0 000 .594.444.444 0 00.307.124h.002zm-1.49.316c.211 0 .38-.166.38-.372a.377.377 0 00-.526-.344.382.382 0 00-.205.2.357.357 0 00-.029.142v.002a.356.356 0 00.108.261.382.382 0 00.268.111h.004zm-4.2-.552c.453 0 .823-.36.823-.804a.815.815 0 00-.824-.804A.815.815 0 002 10.6c0 .444.37.804.823.804zm1.868-1.436c.39 0 .705-.31.705-.69 0-.38-.317-.69-.705-.69a.723.723 0 00-.5.203.672.672 0 00-.205.486c0 .384.317.691.705.691zM3.963 8.2c.388 0 .7-.307.7-.686a.694.694 0 00-.7-.687.729.729 0 00-.498.203.679.679 0 00-.203.482v.002c-.002.18.07.353.201.482s.31.202.496.204h.004zm1.802-.84a.596.596 0 00.601-.588.595.595 0 00-.601-.588.595.595 0 00-.602.588c0 .326.27.589.602.589zM6.5 9.127a.597.597 0 00.604-.59c0-.326-.27-.59-.604-.59a.597.597 0 00-.604.59c0 .326.27.59.604.59zm1.64-.367a.527.527 0 00.364-.149.49.49 0 00.149-.353.48.48 0 00-.145-.352.514.514 0 00-.36-.15.53.53 0 00-.366.139.495.495 0 00-.156.347v.016a.488.488 0 00.147.353.525.525 0 00.363.15h.003zm1.416.005A.438.438 0 0010 8.332a.438.438 0 00-.443-.431.456.456 0 00-.317.126.424.424 0 000 .61c.084.081.198.127.317.127zm1.17.26a.37.37 0 00.374-.365.369.369 0 00-.374-.364c-.1 0-.195.04-.265.108a.356.356 0 00-.109.256c.002.2.169.365.374.365zm.152-1.33c.087 0 .17-.034.231-.094a.31.31 0 00.095-.223.322.322 0 00-.326-.318.322.322 0 00-.325.318.31.31 0 00.095.223c.06.06.144.094.23.094zm-.9-.435c.1 0 .195-.038.265-.106a.355.355 0 000-.51.382.382 0 00-.53 0 .355.355 0 00-.001.51c.07.068.165.106.264.106h.002zm-1.156-.264c.117 0 .23-.046.311-.127a.42.42 0 00.128-.302.433.433 0 00-.44-.43.435.435 0 00-.439.43.412.412 0 00.127.302.443.443 0 00.312.127zm-1.414.002a.509.509 0 00.515-.503.509.509 0 00-.515-.502.509.509 0 00-.515.502c0 .133.053.26.15.354a.53.53 0 00.365.15zM5.505 5.74a.575.575 0 00.582-.57.577.577 0 00-.582-.57.575.575 0 00-.583.57c0 .315.262.57.583.57zm1.639-.345a.509.509 0 00.515-.503.509.509 0 00-.515-.503.509.509 0 00-.515.503c0 .277.23.503.515.503zm1.415.006a.438.438 0 00.444-.433.438.438 0 00-.444-.434.46.46 0 00-.314.128.429.429 0 00-.13.304v.002c0 .114.047.223.13.304a.456.456 0 00.314.129zm1.162.258a.369.369 0 00.374-.365.369.369 0 00-.374-.364c-.1 0-.196.038-.267.107a.358.358 0 000 .515c.07.069.167.107.267.107zm.893.447a.342.342 0 00.236-.097.318.318 0 00.097-.23.33.33 0 00-.333-.325.33.33 0 00-.334.326c0 .18.15.326.334.326zm.654.512a.285.285 0 00.195-.079.266.266 0 00.08-.189.258.258 0 00-.08-.19.278.278 0 00-.194-.079.285.285 0 00-.195.08.266.266 0 00-.08.188.255.255 0 00.077.189.276.276 0 00.193.08h.004z" fill="#fff"/>
    </svg>