<svg width="24" height="24" fill="none" viewBox="-2 -2 24 24" id="iotx" x="72" y="388" xmlns="http://www.w3.org/2000/svg">
        <path d="M10 20c5.523 0 10-4.477 10-10S15.523 0 10 0 0 4.477 0 10s4.477 10 10 10z" fill="#00D4D5"/>
        <path d="M10.324 3.125v3.41l2.962-1.703-2.962-1.707z" fill="#fff"/>
        <path opacity=".9" d="M13.286 4.832v3.411l2.96-1.707-2.96-1.704z" fill="#fff"/>
        <path opacity=".8" d="M10.324 6.536v3.41l2.962-1.703-2.962-1.707zm2.962 1.708v3.41l2.96-1.708-2.96-1.702zM10.324 9.946v3.41l2.962-1.702-2.962-1.708z" fill="#fff"/>
        <path d="M13.286 11.654v3.41l2.96-1.707-2.96-1.703z" fill="#fff"/>
        <path opacity=".4" d="M2.67 6.42v3.411l2.962-1.707L2.67 6.42z" fill="#fff"/>
        <path opacity=".2" d="M6.406 7.689v3.41l2.957-1.703L6.406 7.69z" fill="#fff"/>
        <path opacity=".3" d="M4.211 9.846v3.41l2.96-1.707-2.96-1.703z" fill="#fff"/>
        <path opacity=".9" d="M6.163 12.42v3.41l2.956-1.707-2.956-1.704z" fill="#fff"/>
        <path opacity=".7" d="M10.3 13.887V17.3l2.956-1.708-2.956-1.704z" fill="#fff"/>
        <path opacity=".9" d="M6.9 6.004v3.412l2.956-1.704-2.957-1.708z" fill="#fff"/>
        <path opacity=".8" d="M10.324 3.125v3.41l-2.96-1.703 2.96-1.707z" fill="#fff"/>
        <path opacity=".6" d="M6.9 4.575v3.41L3.937 6.278l2.961-1.703zM9.86 6.263v3.41L6.9 7.967l2.96-1.704z" fill="#fff"/>
        <path opacity=".95" d="M6.392 7.689v3.41l-2.96-1.703 2.96-1.707z" fill="#fff"/>
        <path opacity=".6" d="M10.324 9.946v3.41l-2.956-1.702 2.956-1.708z" fill="#fff"/>
        <path opacity=".55" d="M4.211 10.74v3.411L1.25 12.443l2.961-1.702z" fill="#fff"/>
        <path d="M16.246 6.536v3.41l-2.96-1.703 2.96-1.707z" fill="#fff"/>
        <path opacity=".95" d="M13.286 8.244v3.41l-2.962-1.708 2.962-1.702z" fill="#fff"/>
        <path opacity=".9" d="M16.246 9.946v3.41l-2.96-1.702 2.96-1.708z" fill="#fff"/>
        <path opacity=".7" d="M13.286 11.654v3.41l-2.962-1.707 2.962-1.703z" fill="#fff"/>
        <path opacity=".4" d="M9.669 13.075v3.41l-2.96-1.702 2.96-1.708z" fill="#fff"/>
        <path d="M13.286 4.832v3.411l-2.962-1.707 2.962-1.704z" fill="#fff"/>
    </svg>