<svg width="24" height="24" fill="none" viewBox="-2 -2 24 24" id="juld" x="144" y="388" xmlns="http://www.w3.org/2000/svg">
        <path d="M1.18 14.333c-.04.82.77.992 1.18.975l1.026.564-1.026.513c-2-.103-1.128-3.077-1.18-2.052z" fill="url(#igpaint0_linear_2300_3503)" stroke="#fff" stroke-width=".1"/>
        <path d="M.155 15.77c.564 1.127 1.949.427 2.359.41l.718.769-.718.513c-2.718.205-2.45-1.875-2.359-1.693z" fill="url(#igpaint1_linear_2300_3503)" stroke="#fff" stroke-width=".1"/>
        <path d="M2.616 16.846c.082-.246-.068-.718-.154-.923l.154-.513 2.462-1.846 2.41-.77c.718.155 2.103.862 1.898 2.463-.206 1.6-1.35 2.17-1.898 2.256L5.54 17c-.598.393-2.05 1.089-2.718 1.128-.512.03-.923-.279-1.282-.256-.82.051-.769.872-.769.256 0-.615.513-.666 1.23-.769.719-.103.514-.205.616-.513z" fill="url(#igpaint2_linear_2300_3503)" stroke="#fff" stroke-width=".1"/>
        <path d="M4.206 17.82c.534-.41 2.171-.307 2.923-.205.428-.82 1.081-2.213.052-1.538-1.488.974-1.231.461-2.36.718-.982.223-1.692 1.795-1.179 1.846.154-.154.03-.41.564-.82z" fill="url(#igpaint3_linear_2300_3503)" stroke="#fff" stroke-width=".1"/>
        <path d="M7.13 16.026c.04 1.19-.804 1.282-1.232 1.18 1.847 1.179 2.206-.462 2.41-1.18.133-.462-.46-.975-.204-1.95L8 12.59l-1.077-.103c-.034.12-.133.575-.256 1.436-.044.308.41.616.461 2.103z" fill="url(#igpaint4_linear_2300_3503)" stroke="#fff" stroke-width=".1"/>
        <path d="M3.232 16.385c-.041-.575.222-.787.359-.82l.513-.463c.495.206 1.323.647.666.77-.656.123-.854.974-.871 1.384-.206-.05-.626-.297-.667-.871z" fill="url(#igpaint5_linear_2300_3503)" stroke="#fff" stroke-width=".1"/>
        <path d="M2.462 15.923c-.21-1.435.599-1.897 1.026-1.949l1.282-.82c.615-.034 1.877.102 2 .923.154 1.026-1.228 1.743-1.795 1.743-.512 0-1.333-.307-1.64-.307-.616 0-.865.461-.873.41z" fill="url(#igpaint6_linear_2300_3503)" stroke="#fff" stroke-width=".1"/>
        <path d="M5.59 8.641C5.51 6.467 6.993 5.547 7.745 5.36l.308.923.77 1.795-.77 1.641-.666 2.615c0 .82-.975 2.257-2.257 2.308-1.282.051-1.948-.974-2-2.051-.058-1.231 1.343-2.872 1.23-2.308-.409 2.052.36 2.257.77 2.205.41-.051.897-.359.923-1.128.036-1.077-.4-1.077-.461-2.718z" fill="url(#igpaint7_linear_2300_3503)" stroke="#fff" stroke-width=".1"/>
        <path d="M7.335 11.461c-.205-1.928.598-2.41 1.025-2.41.342.94 1.016 3.016.975 3.795-.052.974.82 2.051.82 2.615 0 .452-.342.872-.513 1.026.103-1.128-.871-1.949-1.538-2.41-.667-.462-.644-1.436-.77-2.616z" fill="url(#igpaint8_linear_2300_3503)" stroke="#fff" stroke-width=".1"/>
        <path d="M10.412 9.667c.45-.452.666-1.487.718-1.949l-.257-1.282-1.18-.103-.358 1.18c-.29.991-.882 3.18-.923 4C8.36 12.539 9.335 13 9.899 13c.451 0 .94-.444 1.128-.667-1.077.257-1.333-.769-1.333-.923 0-.153.154-1.18.718-1.743z" fill="url(#igpaint9_linear_2300_3503)" stroke="#fff" stroke-width=".1"/>
        <path d="M7.642 6.282c.205-3.61 3.436-3.521 5.026-3.026-.017.496-.175 1.488-.667 1.488-.615 0-.923.615-.923 1.025 0 .328.24.479.359.513.923.154 1.23 1.23 1.18 1.692-.042.37-.223.77-.308.923.051-.324-.02-.974-.718-.974S10.069 7.308 9.745 7c.102 3.026-.718 4.051-1.744 4.82.171-.17.523-.748.564-1.692.041-.943-.82-2.359-.923-3.846z" fill="url(#igpaint10_linear_2300_3503)"/>
        <path d="M9.745 7c.102 3.026-.718 4.051-1.744 4.82.171-.17.523-.748.564-1.692.041-.943-.82-2.359-.923-3.846.205-3.61 3.436-3.521 5.026-3.026-.017.496-.175 1.488-.667 1.488-.615 0-.923.615-.923 1.025 0 .328.24.479.359.513.923.154 1.23 1.23 1.18 1.692-.042.37-.223.77-.308.923.051-.324-.02-.974-.718-.974S10.069 7.308 9.745 7zm0 0c-.103-.513-.113-1.682.666-2.256" stroke="#fff" stroke-width=".1"/>
        <path d="M11.172 8.259h0a1.3 1.3 0 01-.071.23c-.037.096-.087.21-.145.335-.116.251-.268.547-.428.827h0c-.644 1.126-.759 1.508-.636 1.973.07.27.26.467.47.554.212.088.441.065.603-.097h0a.546.546 0 01.156-.117c.041-.018.099-.028.137.016.017.02.023.044.024.067a.229.229 0 01-.011.073.67.67 0 01-.095.18h0c-.28.399-.718.662-1.219.733l-.007-.05.007.05c-.158.023-.27.05-.347.093a.214.214 0 00-.12.17c-.011.083.007.2.061.365.054.165.141.373.26.637.101.224.193.454.26.644.034.095.06.18.08.25.018.07.03.128.03.167 0 .06.002.09.01.11a.038.038 0 00.013.018c.007.004.017.01.035.014a.8.8 0 00.199.005c.098-.006.228-.018.4-.035m.334-7.212l-.333 7.212m.333-7.212c.014-.09.025-.152.038-.198.013-.046.025-.06.033-.067.008-.004.023-.01.066-.001.042.008.098.026.177.053.442.148.647.362.647.61 0 .082.009.149.028.196.02.047.056.09.115.086.049-.004.092-.04.128-.085a.917.917 0 00.115-.196m-1.347-.398l1.347.398m-1.68 6.814c.389-.039.998-.154 1.35-.255m-1.35.255l1.35-.255m.33-6.56c.37-.81-.006-1.877-.829-2.389m.83 2.39l.757-4.897M11.69 6.267s0 0 0 0l-.026.043.026-.043zm0 0c-.22-.136-.338-.222-.404-.305-.062-.079-.079-.159-.079-.295 0-.167.047-.303.143-.418.097-.115.248-.212.463-.294m0 0c.116-.044.22-.134.333-.288.114-.154.24-.376.397-.692.233-.467.544-1.043.692-1.28m-1.422 2.26l-.018-.047.018.047s0 0 0 0zm1.421-2.26s0 0 0 0l-.042-.026.043.027zm0 0c.064-.102.113-.178.15-.232a.71.71 0 01.07-.083.516.516 0 01.046.102h0c.021.057.056.22.095.443.039.22.08.493.115.765h0l.122.939-.441.03h0a17.505 17.505 0 01-.426.025l.022-.07a20.698 20.698 0 01.29-.854m0 0c.021-.056.04-.098.056-.128a.148.148 0 01.039-.051c.006-.004.01-.005.018-.003.012.004.03.014.056.035l-.169.147zm-1.074 11.504l-.014-.048c.334-.097.737-.25 1.057-.393.16-.072.297-.14.394-.197a.898.898 0 00.13-.092 1.425 1.425 0 00-.066-.117 4.487 4.487 0 00-.181-.265s0 0 0 0l.04-.03c-.415-.562-.59-1.321-.514-2.233l-.846 3.375zm0 0l-.014-.048m.014.048l-.014-.048m1.376-11.877h0a.84.84 0 01.079.154.23.23 0 01.017.12.083.083 0 01-.035.054.087.087 0 01-.063.011l.002-.34zm0 0c-.037-.058-.08-.11-.144-.116a.162.162 0 00-.088.022.538.538 0 00-.089.062l.32.032zm.792 2.11a.807.807 0 01-.07-.278c0-.017-.014-.045-.074-.077a.879.879 0 00-.255-.074 3.205 3.205 0 00-.852-.002c-.173.02-.304.027-.394.017a.292.292 0 01-.113-.032.104.104 0 01-.056-.09c0-.035.01-.084.025-.14.015-.056.037-.123.063-.198.053-.149.125-.327.2-.502a7.69 7.69 0 01.23-.484c.036-.069.07-.129.1-.176l1.196 2.036zm0 0c.043.106.103.224.172.34m-.172-.34l.172.34m0 0c.137.23.312.462.464.581l-.464-.58zm-.982-3.325c.047.126.142.674.213 1.22l-.213-1.22zm-.87 8.495l.385.175 2.214-4.607a.548.548 0 00.273.031h0c.075-.014.12-.01.145 0 .01.005.017.01.02.018.005.007.008.019.008.038 0 .18.104.385.26.57.157.187.374.36.612.476.261.127.745.454 1.072.727l.032-.039-.032.039.6.498h0l.006.004c.29.17.718.462 1.057.788.17.163.315.332.41.497.096.165.138.32.11.457-.06.298-.215.592-.388.84-.173.247-.361.444-.48.55h0l-.002.002c-.082.082-.116.103-.17.098a.443.443 0 01-.132-.044 4.037 4.037 0 01-.234-.121 2.107 2.107 0 00-.317-.146.603.603 0 00-.11-.028.163.163 0 00-.086.007.08.08 0 00-.038.033.082.082 0 00-.01.049.176.176 0 00.036.082c.037.053.107.12.208.202l.031-.04-.031.04c.094.075.16.133.201.179.02.023.032.04.039.053l.004.013a.034.034 0 01-.008.005.202.202 0 01-.057.017c-.057.01-.142.015-.258.015v0h-.005c-.209.02-.435-.089-.637-.242a2.439 2.439 0 01-.464-.467l-.008-.01-.012-.006-.455-.201a4.202 4.202 0 00-.687-.192 12.559 12.559 0 00-.994-.17c-.667-.087-1.39-.205-1.609-.263h0c-.237-.063-.495-.226-.706-.428-.21-.203-.366-.438-.406-.638h0a.92.92 0 00-.073-.229.347.347 0 00-.047-.073.148.148 0 00-.061-.044.091.091 0 00-.079.008.132.132 0 00-.05.06.506.506 0 00-.032.203c0 .202.126.454.303.676.177.225.414.43.651.538z" fill="url(#igpaint11_linear_2300_3503)" stroke="#fff" stroke-width=".1"/>
        <path d="M15.642 4.128c-.328-.328-1.23-.41-1.641-.41v1.128c.547.137 1.682.636 1.846 1.539.164.902.752 1.128 1.026 1.128-.37-.164-.36-1.504-.308-2.154-.17-.273-.595-.903-.923-1.23z" fill="url(#igpaint12_linear_2300_3503)" stroke="#fff" stroke-width=".1"/>
        <path fill-rule="evenodd" clip-rule="evenodd" d="M16.82 3.364c-.339.27-.683.548-1.012.815-.153.37.127 1.385.287 1.847a83.43 83.43 0 001.751-2.196c.894-1.163 1.683-2.266 1.487-2.266-.136 0-.732.42-1.487.997-.321.246-.67.52-1.026.803z" fill="url(#igpaint13_linear_2300_3503)"/>
        <path d="M14.564 5.205c0 .513.974 1.385 1.128 1.282.028-.018.178-.191.403-.461-.16-.462-.44-1.477-.287-1.847-.464.378-.898.737-1.244 1.026z" fill="url(#igpaint14_linear_2300_3503)"/>
        <path d="M16.095 6.026c-.225.27-.375.443-.403.461-.154.103-1.128-.77-1.128-1.282.346-.29.78-.648 1.244-1.026m.287 1.847c-.16-.462-.44-1.477-.287-1.847m.287 1.847c.231-.279.542-.66.88-1.084m-1.167-.763c.329-.267.673-.545 1.012-.815m.154 1.578c-.102-.422-.277-1.328-.154-1.578m.154 1.578c.282-.353.582-.736.872-1.113m-1.026-.465a68.95 68.95 0 011.026-.803m0 1.268c.894-1.162 1.683-2.265 1.487-2.265-.136 0-.732.42-1.487.997m0 1.268V2.561" stroke="#fff" stroke-width=".1"/>
        <path d="M14.77 8.487L13.435 6.95l1.795.666.974 1.693-1.436-.82z" fill="url(#igpaint15_linear_2300_3503)"/>
        <path d="M15.128 7.513c-.287-.041-.564.12-.667.205.206.328.77.444 1.026.461 0-.205-.072-.625-.359-.666z" fill="#4C47BF"/>
        <path d="M18.872 10.385c-.12.222-.236.707.256.871M14.615 7.667l.051.205m.154.051l.154-.051" stroke="#fff" stroke-width=".1"/>
        <path d="M3.796 1.054c0 .045.05.267.112.493.174.642.883 1.282 1.42 1.282.206 0 .21.05.213 2.436L5.543 7.7l.25-.607c.287-.699.897-1.369 1.536-1.688.526-.263.565-.374.567-1.628l.001-.95 1.77.003c1.157 0 1.981.051 2.383.146l.036.008c.32.075.47.11.58.059.099-.048.163-.166.286-.392l.016-.028c.218-.401.556-.67.683-.544.06.06.162.425.228.813l.121.705.462.033c.253.018.642.12.862.226l.402.193.48-.382c.357-.284.45-.412.363-.494-.768-.717-2.204-1.5-3.492-1.904-.681-.213-.937-.226-5-.262-2.355-.02-4.282 0-4.281.046z" fill="#4C47BF"/>
        <path fill-rule="evenodd" clip-rule="evenodd" d="M16.62 6.07c-.004-.677.015-.734.418-1.257.233-.302.452-.548.487-.548.081 0 .655.857.889 1.327.349.7.665 1.804.774 2.7.061.502.09.934.064.96-.092.092-2.381-1.914-2.504-2.193-.068-.155-.125-.6-.128-.99zm-3.56 9.113c1.1-.44 2.347-1.658 2.955-2.885.363-.733.417-.738 1.113-.084.552.516.71.581 1.126.462l.317-.091-.33.6c-.781 1.421-2.055 2.642-3.531 3.385-1.557.784-2.258.922-4.966.985-2.068.048-2.183.041-1.851-.11.607-.278.974-.623 1.238-1.164.306-.628.454-.675.38-.119-.03.226-.018.41.028.41.107 0 .615-.6.615-.725 0-.052.181-.095.403-.095.587 0 1.733-.26 2.504-.569z" fill="#4C47BF"/>
        <defs>
            <linearGradient id="igpaint0_linear_2300_3503" x1="3.216" y1="14.97" x2="2.045" y2="16.671" gradientUnits="userSpaceOnUse">
                <stop stop-color="#4F86B2"/>
                <stop offset="1" stop-color="#6FECA4"/>
            </linearGradient>
            <linearGradient id="igpaint1_linear_2300_3503" x1="3.006" y1="16.403" x2="2.36" y2="18.051" gradientUnits="userSpaceOnUse">
                <stop stop-color="#4F86B2"/>
                <stop offset="1" stop-color="#6FECA4"/>
            </linearGradient>
            <linearGradient id="igpaint2_linear_2300_3503" x1="8.782" y1="14.884" x2="6.446" y2="19.962" gradientUnits="userSpaceOnUse">
                <stop stop-color="#4F86B2"/>
                <stop offset="1" stop-color="#6FECA4"/>
            </linearGradient>
            <linearGradient id="igpaint3_linear_2300_3503" x1="7.423" y1="16.928" x2="6.271" y2="19.433" gradientUnits="userSpaceOnUse">
                <stop stop-color="#4F86B2"/>
                <stop offset="1" stop-color="#6FECA4"/>
            </linearGradient>
            <linearGradient id="igpaint4_linear_2300_3503" x1="8.153" y1="14.415" x2="5.538" y2="16.148" gradientUnits="userSpaceOnUse">
                <stop stop-color="#4F86B2"/>
                <stop offset="1" stop-color="#6FECA4"/>
            </linearGradient>
            <linearGradient id="igpaint5_linear_2300_3503" x1="4.884" y1="15.912" x2="3.706" y2="17.279" gradientUnits="userSpaceOnUse">
                <stop stop-color="#4F86B2"/>
                <stop offset="1" stop-color="#6FECA4"/>
            </linearGradient>
            <linearGradient id="igpaint6_linear_2300_3503" x1="6.467" y1="14.193" x2="5.307" y2="16.738" gradientUnits="userSpaceOnUse">
                <stop stop-color="#4F86B2"/>
                <stop offset="1" stop-color="#6FECA4"/>
            </linearGradient>
            <linearGradient id="igpaint7_linear_2300_3503" x1="8.41" y1="8.846" x2="3.333" y2="13.205" gradientUnits="userSpaceOnUse">
                <stop stop-color="#4F86B2"/>
                <stop offset="1" stop-color="#6FECA4"/>
            </linearGradient>
            <linearGradient id="igpaint8_linear_2300_3503" x1="9.949" y1="11.844" x2="6.519" y2="13.687" gradientUnits="userSpaceOnUse">
                <stop stop-color="#4F86B2"/>
                <stop offset="1" stop-color="#6FECA4"/>
            </linearGradient>
            <linearGradient id="igpaint9_linear_2300_3503" x1="9.77" y1="6.333" x2="8.667" y2="12.231" gradientUnits="userSpaceOnUse">
                <stop stop-color="#518DB2"/>
                <stop offset="1" stop-color="#68D5A7"/>
            </linearGradient>
            <linearGradient id="igpaint10_linear_2300_3503" x1="11.282" y1="3.923" x2="8.461" y2="11.513" gradientUnits="userSpaceOnUse">
                <stop stop-color="#486FB6"/>
                <stop offset="1" stop-color="#6DE5A5"/>
            </linearGradient>
            <linearGradient id="igpaint11_linear_2300_3503" x1="19.538" y1="10.128" x2="10.461" y2="11.513" gradientUnits="userSpaceOnUse">
                <stop stop-color="#C150E1"/>
                <stop offset="1" stop-color="#6559C3"/>
            </linearGradient>
            <linearGradient id="igpaint12_linear_2300_3503" x1="14.051" y1="4.026" x2="16.205" y2="7.564" gradientUnits="userSpaceOnUse">
                <stop stop-color="#6ADBA7"/>
                <stop offset="1" stop-color="#5CAFAD"/>
            </linearGradient>
            <linearGradient id="igpaint13_linear_2300_3503" x1="19.384" y1="1.615" x2="15.179" y2="6.077" gradientUnits="userSpaceOnUse">
                <stop stop-color="#984CD5"/>
                <stop offset="1" stop-color="#C74FE3"/>
            </linearGradient>
            <linearGradient id="igpaint14_linear_2300_3503" x1="19.384" y1="1.615" x2="15.179" y2="6.077" gradientUnits="userSpaceOnUse">
                <stop stop-color="#984CD5"/>
                <stop offset="1" stop-color="#C74FE3"/>
            </linearGradient>
            <linearGradient id="igpaint15_linear_2300_3503" x1="13.59" y1="6.897" x2="16.308" y2="9.256" gradientUnits="userSpaceOnUse">
                <stop stop-color="#505CBC"/>
                <stop offset="1" stop-color="#BE50E0"/>
            </linearGradient>
        </defs>
    </svg>