<svg width="24" height="24" fill="none" viewBox="-2 -2 24 24" id="keanu" x="192" y="388" xmlns="http://www.w3.org/2000/svg">
        <path d="M20 10c0 5.523-4.477 10-10 10S0 15.523 0 10 4.477 0 10 0s10 4.477 10 10z" fill="url(#iipaint0_linear)"/>
        <path fill-rule="evenodd" clip-rule="evenodd" d="M10 19.5a9.5 9.5 0 100-19 9.5 9.5 0 000 19zm0 .5c5.523 0 10-4.477 10-10S15.523 0 10 0 0 4.477 0 10s4.477 10 10 10z" fill="#000"/>
        <path d="M11.643 4.857c-.572 0-.857.572-1.429.572-.571 0-.857-.572-1.428-.572-.572 0-1.143.286-1.143.286s-1.6-1.6-1.143-2.286c-1.333.286-3.714 1.6-2.572 4.572-.476 1.904-1.314 5.885-.857 6.571.572.857 2.286 2.571 3.143 3.143.857.571 2 2.571 4.286 2.571 2.286 0 2.857-2 3.714-2.571.857-.572 2.572-2.286 3.143-3.143.457-.686-.38-4.667-.857-6.571 1.143-2.972-1.238-4.286-2.571-4.572.457.686-1.143 2.286-1.143 2.286s-.572-.286-1.143-.286z" fill="#727670"/>
        <path fill-rule="evenodd" clip-rule="evenodd" d="M7.05 2.484l-.342.512c-.048.072-.064.203.014.425.074.215.216.457.382.692a7.076 7.076 0 00.598.73 3.66 3.66 0 01.219-.08c.227-.076.541-.156.865-.156.362 0 .632.18.836.317l.017.01c.222.15.376.245.575.245.2 0 .354-.096.576-.244l.017-.011c.204-.137.474-.317.836-.317.323 0 .638.08.865.156.084.028.158.056.218.08a7.485 7.485 0 00.598-.73c.167-.235.308-.477.383-.692.077-.222.062-.353.014-.425l-.342-.512.602.129c.702.15 1.688.57 2.353 1.362.67.797.991 1.94.428 3.469.237.958.556 2.394.764 3.688.106.663.185 1.296.207 1.809.011.256.008.49-.013.686-.021.187-.063.374-.155.512-.3.45-.886 1.107-1.495 1.716-.61.61-1.267 1.196-1.717 1.496-.176.117-.35.318-.562.589l-.121.156c-.175.225-.37.479-.595.718-.567.605-1.343 1.15-2.575 1.15-1.224 0-2.136-.538-2.84-1.13-.329-.277-.616-.57-.867-.825l-.047-.048c-.269-.273-.482-.484-.67-.61-.45-.3-1.108-.886-1.717-1.496-.61-.61-1.196-1.266-1.496-1.716-.091-.138-.133-.325-.154-.512a4.573 4.573 0 01-.013-.686c.022-.514.1-1.146.207-1.81.208-1.293.527-2.73.764-3.687-.564-1.528-.243-2.672.427-3.47.666-.79 1.651-1.21 2.354-1.361l.601-.13zm5.624 2.882l-.004-.001-.016-.008a3.102 3.102 0 00-.305-.12 2.32 2.32 0 00-.706-.13c-.2 0-.353.096-.576.244l-.017.011c-.204.136-.474.317-.836.317s-.631-.18-.836-.317l-.017-.011c-.222-.148-.376-.244-.575-.244-.248 0-.505.063-.707.13a3.113 3.113 0 00-.305.12l-.016.008-.003.001-.162.081-.127-.127.177-.177-.177.177-.002-.002-.004-.004-.014-.015a5.662 5.662 0 01-.233-.25 7.57 7.57 0 01-.517-.648 3.46 3.46 0 01-.446-.815 1.402 1.402 0 01-.08-.38c-.57.186-1.23.54-1.693 1.09-.557.662-.856 1.637-.315 3.043l.028.074-.019.076a48.1 48.1 0 00-.774 3.722c-.106.656-.18 1.266-.202 1.752a4.09 4.09 0 00.01.608c.02.169.052.256.074.29.272.407.829 1.036 1.433 1.64.605.606 1.234 1.162 1.64 1.434.241.16.492.413.75.675l.045.046c.253.257.525.534.835.796.654.55 1.456 1.012 2.518 1.012 1.054 0 1.706-.454 2.21-.992.207-.22.385-.45.558-.674l.13-.166c.207-.266.426-.529.678-.697.407-.272 1.035-.828 1.64-1.433.605-.605 1.162-1.234 1.433-1.64.023-.035.055-.122.074-.29.018-.161.021-.366.01-.61a16.041 16.041 0 00-.201-1.75 48.085 48.085 0 00-.774-3.723l-.02-.076.029-.074c.54-1.406.242-2.38-.315-3.042-.464-.551-1.123-.905-1.693-1.091a1.4 1.4 0 01-.08.38 3.46 3.46 0 01-.446.815 7.569 7.569 0 01-.75.898l-.015.015-.004.004v.001l-.178-.176.177.176-.128.128-.161-.08z" fill="#000"/>
        <path d="M8.5 11.385c-.476-.762-1.714-1.886-2.857-.286.38.572 1.486 1.429 2.857.286zM11.928 11.385c.477-.762 1.715-1.886 2.858-.286-.381.572-1.486 1.429-2.857.286zM10.388 14.785c.492-.32 1.54-1.612 1.54-1.969 0-.408-.89-.816-1.714-.816-1.028 0-1.714.408-1.714.816 0 .356 1.044 1.644 1.538 1.967-.606.633-1.977 1.305-3.824.074.096.572.572 1.772 1.715 2 0 .762.457 2.286 2.285 2.286 1.829 0 2.286-1.524 2.286-2.286.476-.19 1.486-.857 1.714-2-.73.64-2.475 1.47-3.826-.072z" fill="#000"/>
        <path d="M7.071 11.429a.286.286 0 100-.572.286.286 0 000 .572zM13.357 11.429a.286.286 0 110-.572.286.286 0 010 .572z" fill="#fff"/>
        <path d="M8.5 16.19a.19.19 0 01.19-.19h3.048a.19.19 0 01.19.19v.953a1.714 1.714 0 01-3.429 0v-.953z" fill="#DDBFAE"/>
        <path d="M8.214 9.616c.19-.095.686-.457 0-1.143-.571-.571-2-.571-2-.285 0 .16.18.23.39.312.162.063.342.134.468.26.047.047.104.136.171.24.217.338.535.834.971.616zM12.28 9.616c-.19-.095-.685-.457 0-1.143.572-.571 2-.571 2-.285 0 .16-.18.23-.389.312-.162.063-.343.134-.468.26a1.666 1.666 0 00-.172.24c-.216.338-.535.834-.97.616z" fill="#595D57"/>
        <defs>
            <linearGradient id="iipaint0_linear" x1="10" y1="0" x2="10" y2="20" gradientUnits="userSpaceOnUse">
                <stop stop-color="#84D1EE"/>
                <stop offset="1" stop-color="#C282E1"/>
            </linearGradient>
        </defs>
    </svg>