<svg width="24" height="24" fill="none" viewBox="300 200 900 500" id="kgs" x="480" y="508" xmlns="http://www.w3.org/2000/svg">
        <defs>
            <style>
                .cls-1-kgs,.cls-5-kgs{fill:none;}.cls-2-kgs{clip-path:url(#clip-path-kgs);}.cls-3-kgs{fill:#ea1e30;}.cls-4-kgs{fill:#fddf11;}.cls-5-kgs{stroke:#000;stroke-width:0.04px;}
            </style>
            <clipPath id="clip-path-kgs">
                <circle class="cls-1-kgs" cx="750" cy="500" r="387.99"/>
            </clipPath>
        </defs>
        <g class="cls-2-kgs">
            <rect class="cls-3-kgs" width="1500" height="1000"/>
            <path class="cls-4-kgs" d="M760.51,366.52c.31-23.19,20.86-39.14,21.73-70,14.74,18.5-9.62,53.19-1,73.32C785.19,347,808,334.41,813.68,304c11.67,20.59-17.83,51-12.44,72.27,7.46-22,31.92-30.78,42.31-59.9C851.85,338.56,818,364,820,385.84c10.79-20.53,36.34-25.41,51.14-52.55,4.75,23.19-32.72,43-34.13,64.91,13.88-18.59,39.87-19.42,58.75-43.91,1,23.65-39.06,37.4-43.89,58.79,16.61-16.19,42.42-12.94,64.89-34.17-2.67,23.51-44.43,30.81-52.54,51.16,19-13.39,43.92-6.14,69.43-23.59-6.32,22.81-48.7,23.49-59.89,42.31,20.8-10.26,44.33.81,72.27-12.44-9.8,21.54-51.78,15.59-65.78,32.42,22.13-6.88,43.66,7.74,73.33-1-13,19.75-53.58,7.29-70,21.74,22.94-3.35,41.9,14.44,72.56,10.47-16,17.46-54.06-1.18-72.58,10.51,23.19.3,39.14,20.86,70,21.73-18.51,14.75-53.2-9.63-73.32-1,22.85,3.93,35.39,26.72,65.77,32.42-20.58,11.67-51-17.83-72.27-12.44,22,7.46,30.78,31.93,59.9,42.31C911.44,601.86,886,568,864.16,570c20.53,10.79,25.41,36.34,52.55,51.14-23.19,4.75-43-32.72-64.9-34.13,18.59,13.86,19.41,39.87,43.9,58.74-23.65,1-37.39-39.06-58.78-43.88,16.18,16.6,12.93,42.41,34.16,64.88-23.51-2.66-30.81-44.43-51.16-52.54,13.39,19,6.14,43.92,23.59,69.44-22.81-6.33-23.49-48.71-42.31-59.89,10.26,20.79-.81,44.32,12.44,72.26-21.54-9.8-15.58-51.78-32.42-65.78,6.88,22.12-7.74,43.67,1,73.32-19.75-13-7.29-53.57-21.74-70,3.36,22.94-14.44,41.9-10.47,72.56-17.46-16,1.18-54.06-10.51-72.58-.31,23.19-20.85,39.14-21.73,70-14.74-18.5,9.63-53.19,1-73.32-3.93,22.86-26.72,35.4-32.42,65.78-11.67-20.58,17.83-51,12.44-72.27-7.46,22-31.93,30.78-42.31,59.9C648.15,661.44,682,636,680,614.16c-10.79,20.53-36.33,25.41-51.14,52.55-4.75-23.19,32.72-43,34.13-64.9-13.87,18.58-39.87,19.41-58.75,43.9-1-23.64,39.06-37.39,43.89-58.79-16.61,16.19-42.42,12.94-64.89,34.17,2.66-23.51,44.43-30.81,52.54-51.16-19,13.39-43.92,6.14-69.43,23.59,6.32-22.81,48.7-23.48,59.89-42.31-20.8,10.26-44.33-.81-72.26,12.45,9.8-21.55,51.77-15.59,65.77-32.43-22.12,6.88-43.66-7.74-73.32,1,13-19.75,53.57-7.29,70-21.74C593.56,513.83,574.6,496,543.94,500c16-17.46,54.06,1.18,72.58-10.51-23.19-.3-39.14-20.86-70-21.73,18.5-14.74,53.19,9.63,73.32,1C597,464.81,584.41,442,554,436.32c20.58-11.67,51,17.83,72.27,12.44-22-7.46-30.78-31.92-59.9-42.31C588.53,398.15,614,432,635.84,430c-20.53-10.79-25.41-36.33-52.55-51.14,23.19-4.75,43.05,32.72,64.9,34.13-18.58-13.88-19.41-39.87-43.89-58.75,23.63-1,37.39,39.06,58.78,43.89-16.19-16.61-12.94-42.42-34.16-64.89,23.51,2.67,30.81,44.43,51.16,52.54-13.39-19-6.15-43.92-23.6-69.43,22.81,6.32,23.49,48.67,42.31,59.89-10.25-20.79.81-44.33-12.44-72.26,21.55,9.8,15.59,51.77,32.43,65.77-6.88-22.12,7.73-43.66-1-73.32,19.74,13,7.29,53.57,21.73,70C736.18,343.56,754,324.6,750,293.94c17.46,16-1.18,54.06,10.51,72.58"/>
            <path class="cls-5-kgs" d="M760.51,366.52c.31-23.19,20.86-39.14,21.73-70,14.74,18.5-9.62,53.19-1,73.32C785.19,347,808,334.41,813.68,304c11.67,20.59-17.83,51-12.44,72.27,7.46-22,31.92-30.78,42.31-59.9C851.85,338.56,818,364,820,385.84c10.79-20.53,36.34-25.41,51.14-52.55,4.75,23.19-32.72,43-34.13,64.91,13.88-18.59,39.87-19.42,58.75-43.91,1,23.65-39.06,37.4-43.89,58.79,16.61-16.19,42.42-12.94,64.89-34.17-2.67,23.51-44.43,30.81-52.54,51.16,19-13.39,43.92-6.14,69.43-23.59-6.32,22.81-48.7,23.49-59.89,42.31,20.8-10.26,44.33.81,72.27-12.44-9.8,21.54-51.78,15.59-65.78,32.42,22.13-6.88,43.66,7.74,73.33-1-13,19.75-53.58,7.29-70,21.74,22.94-3.35,41.9,14.44,72.56,10.47-16,17.46-54.06-1.18-72.58,10.51,23.19.3,39.14,20.86,70,21.73-18.51,14.75-53.2-9.63-73.32-1,22.85,3.93,35.39,26.72,65.77,32.42-20.58,11.67-51-17.83-72.27-12.44,22,7.46,30.78,31.93,59.9,42.31C911.44,601.86,886,568,864.16,570c20.53,10.79,25.41,36.34,52.55,51.14-23.19,4.75-43-32.72-64.9-34.13,18.59,13.86,19.41,39.87,43.9,58.74-23.65,1-37.39-39.06-58.78-43.88,16.18,16.6,12.93,42.41,34.16,64.88-23.51-2.66-30.81-44.43-51.16-52.54,13.39,19,6.14,43.92,23.59,69.44-22.81-6.33-23.49-48.71-42.31-59.89,10.26,20.79-.81,44.32,12.44,72.26-21.54-9.8-15.58-51.78-32.42-65.78,6.88,22.12-7.74,43.67,1,73.32-19.75-13-7.29-53.57-21.74-70,3.36,22.94-14.44,41.9-10.47,72.56-17.46-16,1.18-54.06-10.51-72.58-.31,23.19-20.85,39.14-21.73,70-14.74-18.5,9.63-53.19,1-73.32-3.93,22.86-26.72,35.4-32.42,65.78-11.67-20.58,17.83-51,12.44-72.27-7.46,22-31.93,30.78-42.31,59.9C648.15,661.44,682,636,680,614.16c-10.79,20.53-36.33,25.41-51.14,52.55-4.75-23.19,32.72-43,34.13-64.9-13.87,18.58-39.87,19.41-58.75,43.9-1-23.64,39.06-37.39,43.89-58.79-16.61,16.19-42.42,12.94-64.89,34.17,2.66-23.51,44.43-30.81,52.54-51.16-19,13.39-43.92,6.14-69.43,23.59,6.32-22.81,48.7-23.48,59.89-42.31-20.8,10.26-44.33-.81-72.26,12.45,9.8-21.55,51.77-15.59,65.77-32.43-22.12,6.88-43.66-7.74-73.32,1,13-19.75,53.57-7.29,70-21.74C593.56,513.83,574.6,496,543.94,500c16-17.46,54.06,1.18,72.58-10.51-23.19-.3-39.14-20.86-70-21.73,18.5-14.74,53.19,9.63,73.32,1C597,464.81,584.41,442,554,436.32c20.58-11.67,51,17.83,72.27,12.44-22-7.46-30.78-31.92-59.9-42.31C588.53,398.15,614,432,635.84,430c-20.53-10.79-25.41-36.33-52.55-51.14,23.19-4.75,43.05,32.72,64.9,34.13-18.58-13.88-19.41-39.87-43.89-58.75,23.63-1,37.39,39.06,58.78,43.89-16.19-16.61-12.94-42.42-34.16-64.89,23.51,2.67,30.81,44.43,51.16,52.54-13.39-19-6.15-43.92-23.6-69.43,22.81,6.32,23.49,48.67,42.31,59.89-10.25-20.79.81-44.33-12.44-72.26,21.55,9.8,15.59,51.77,32.43,65.77-6.88-22.12,7.73-43.66-1-73.32,19.74,13,7.29,53.57,21.73,70C736.18,343.56,754,324.6,750,293.94,767.46,309.91,748.82,348,760.51,366.52Z"/>
            <path class="cls-3-kgs" d="M750,608.88A108.89,108.89,0,1,0,641.15,500h0A108.88,108.88,0,0,0,750,608.88h0"/>
            <path class="cls-4-kgs" d="M750,405A94.57,94.57,0,0,1,820.16,436c-27.25,2.74-50.4,9.16-70.12,19-19.72-9.8-42.87-16.23-70.13-19A94.62,94.62,0,0,1,750,405"/>
            <path class="cls-4-kgs" d="M742.83,458.79c-2.18,1.24-4.32,2.49-6.42,3.8-17.7-9.41-38.9-15.46-64.06-17.25,1.14-1.61,2.35-3.21,3.59-4.76,26.16,2.31,48.25,8.59,66.89,18.2"/>
            <path class="cls-4-kgs" d="M757.23,458.79c2.19,1.24,4.33,2.49,6.42,3.8,17.7-9.41,38.9-15.46,64.07-17.25-1.14-1.61-2.36-3.21-3.59-4.76-26.16,2.31-48.25,8.59-66.9,18.2"/>
            <path class="cls-4-kgs" d="M669.14,450.22c-1,1.64-2,3.3-2.88,5,23.45.55,43.12,5.94,59.27,14.86,1.68-1.26,3.41-2.53,5.16-3.71-16.88-9.19-37.29-14.95-61.55-16.15"/>
            <path class="cls-4-kgs" d="M667.93,547.74a95.26,95.26,0,0,1-4.23-87.41c22.68-.16,41.68,4.8,57.16,13.41-23,18.78-39.92,43.82-52.93,74"/>
            <path class="cls-4-kgs" d="M715.87,588.6a93.12,93.12,0,0,1-12.33-5.82c2.25-35.66,13.9-69.65,37.17-94.32,1.72,1.67,3.4,3.38,5,5.16-21.65,25.29-31,60-29.83,95"/>
            <path class="cls-4-kgs" d="M830.91,450.22c1,1.64,2,3.3,2.87,5-23.44.55-43.12,5.94-59.25,14.86-1.69-1.26-3.42-2.53-5.18-3.71,16.89-9.19,37.3-14.95,61.56-16.15"/>
            <path class="cls-4-kgs" d="M832.13,547.74a95.23,95.23,0,0,0,4.23-87.41c-22.68-.16-41.67,4.8-57.16,13.41,23,18.78,39.92,43.82,52.93,74"/>
            <path class="cls-4-kgs" d="M750,498.89c19.5,25.25,26.81,59.68,23.08,93.23a95.53,95.53,0,0,1-46.14,0c-3.74-33.55,3.56-68,23.07-93.23"/>
            <path class="cls-4-kgs" d="M784.23,588.6a93.12,93.12,0,0,0,12.33-5.82c-2.25-35.66-13.91-69.65-37.18-94.32-1.72,1.67-3.39,3.38-5,5.16,21.64,25.29,31,60,29.82,95"/>
            <path class="cls-4-kgs" d="M735,483.4c-2-1.67-4.32-3.42-6.52-4.93-24.1,21.35-40,50.33-50,84a95.09,95.09,0,0,0,12.22,11.69c6.22-35.4,20.14-67.4,44.29-90.73"/>
            <path class="cls-4-kgs" d="M765.06,483.4c2-1.67,4.31-3.42,6.51-4.93,24.1,21.35,40,50.33,50,84a95.78,95.78,0,0,1-12.22,11.69c-6.22-35.4-20.15-67.4-44.29-90.73"/>
            <path class="cls-4-kgs" d="M750,462.8c1.18.71,5.31,3.29,6.32,4-1.6,1-5.32,3.5-6.32,4.21-1-.71-4.74-3.21-6.32-4.21,1-.69,5.16-3.27,6.32-4"/>
            <path class="cls-4-kgs" d="M738,470.73c-1.61,1.21-4.08,3.09-5,3.89,2.33,1.53,5.45,3.9,6.45,4.69,1.21-1.05,3.62-3.17,5-4.16-1.64-1.19-5.15-3.71-6.41-4.42"/>
            <path class="cls-4-kgs" d="M762,470.73c1.61,1.21,4.08,3.09,5,3.89-2.33,1.53-5.46,3.9-6.45,4.69-1.21-1.05-3.62-3.17-5-4.16,1.64-1.19,5.15-3.71,6.4-4.42"/>
            <path class="cls-4-kgs" d="M750,479.6c1,.89,4.12,3.61,4.94,4.42a67.66,67.66,0,0,0-4.94,4.79,67.66,67.66,0,0,0-4.94-4.79c.81-.83,3.9-3.55,4.94-4.42"/>
        </g>
    </svg>