<svg width="25" height="24" fill="none" viewBox="-2 -2 25 24" id="klay" x="178" y="120" xmlns="http://www.w3.org/2000/svg">
        <path d="M10.535 20c5.523 0 10-4.477 10-10s-4.477-10-10-10-10 4.477-10 10 4.477 10 10 10z" fill="#fff"/>
        <path d="M10.336 9.691l5.936-5.803L10.8 1.659 5.305 14.656l5.031-4.965zM16.802 15.649l-5.826-5.715L16.78 4.24c1.478 1.567 2.294 3.574 2.294 5.715 0 1.986-.728 4.038-2.272 5.693zM4.798 16.002l5.76-5.649 5.714 5.649-5.737 2.339L4.798 16zM4.268 15.649a8.293 8.293 0 01-2.272-5.715l8.01-7.878L4.267 15.65z" fill="#4E473D"/>
    </svg>