<svg width="24" height="24" fill="none" viewBox="-2 -2 24 24" id="kmd" x="288" y="388" xmlns="http://www.w3.org/2000/svg">
        <circle cx="10" cy="10" r="10" fill="#22B4AB"/>
        <path d="M2.438 9.99a7.56 7.56 0 007.55 7.572 7.564 7.564 0 007.575-7.547v-.057c0-.582-.07-1.161-.205-1.727a.812.812 0 00-1.58.37 5.947 5.947 0 01-6.586 7.297 5.951 5.951 0 01-5.09-5.068 5.947 5.947 0 017.275-6.611.812.812 0 00.663-1.443.8.8 0 00-.287-.13 7.556 7.556 0 00-9.111 5.585 7.733 7.733 0 00-.204 1.758z" fill="#fff"/>
        <path d="M13.669 4.668c-.013.012-.019.025-.026.031-.179.19-.288.434-.312.693v.125c0 .031-.006.056-.006.087a2.09 2.09 0 01-2.292 1.878 2.027 2.027 0 01-.432-.087 2.736 2.736 0 00-2.481.649c-.025.025-.056.044-.082.075a2.72 2.72 0 103.844 3.844 2.726 2.726 0 00.68-2.708c0-.007-.006-.013-.006-.026a2.093 2.093 0 011.869-2.557l.043-.007a.98.98 0 01.131-.006h.013c.271-.026.525-.145.718-.337.044-.05.088-.098.126-.15a1.162 1.162 0 00-.282-1.629 1.177 1.177 0 00-1.505.125z" fill="#fff"/>
    </svg>