<svg width="24" height="24" fill="none" viewBox="-2 -2 24 24" id="knc" x="312" y="388" xmlns="http://www.w3.org/2000/svg">
        <g clip-path="url(#ioclip0)" fill="#31CB9E">
            <path d="M8.966 9.998l7.457 4.272a.393.393 0 00.596-.34V6.06a.39.39 0 00-.596-.337L8.966 9.998zM16.265 3.833L11.167.083a.405.405 0 00-.638.215L8.667 8.65l7.553-4.176a.376.376 0 00.045-.64zM11.161 19.91l5.104-3.749a.382.382 0 00-.042-.65l-7.556-4.176 1.862 8.352a.403.403 0 00.632.23"/>
            <path d="M7.027 9.843L8.966.776a.385.385 0 00-.597-.391L3.403 4.194a1.03 1.03 0 00-.403.82v9.665a1.03 1.03 0 00.403.832l4.942 3.797a.385.385 0 00.597-.39L7.027 9.842z"/>
        </g>
        <defs>
            <clipPath id="ioclip0">
                <path fill="#fff" d="M0 0h20v20H0z"/>
            </clipPath>
        </defs>
    </svg>