<svg width="24" height="24" fill="none" viewBox="-2 -2 24 24" id="koromaru" x="336" y="388" xmlns="http://www.w3.org/2000/svg">
        <circle cx="10" cy="10" r="10" fill="#054503"/>
        <path fill-rule="evenodd" clip-rule="evenodd" d="M10 20c5.523 0 10-4.477 10-10S15.523 0 10 0 0 4.477 0 10s4.477 10 10 10zm0-.886A9.114 9.114 0 1010 .886a9.114 9.114 0 000 18.228z" fill="url(#ippaint0_linear_2116_2389)"/>
        <ellipse cx="9.5" cy="9" rx="4.5" ry="3" fill="#D20001"/>
        <path fill-rule="evenodd" clip-rule="evenodd" d="M12.182 4.964c-.21-.045-.78-.108-1.264-.14l-.44-.028-.44.035-.728.11c-.4.06-.842.147-.982.193-.334.11-.403.037-.076-.08l.253-.092-.536-.498a8.742 8.742 0 00-.898-.733c-.198-.13-.344-.263-.324-.296.02-.033-.003-.085-.053-.115-.056-.035-.069-.023-.035.033.078.125-.016.104-.443-.098-.206-.097-.336-.19-.289-.206.048-.016-.08-.034-.286-.04-.331-.01-.369.005-.335.134a.182.182 0 01-.001.113l-.002.228c.023.026.02.093-.001.172l-.005.59v.012L5.34 5.74c.018.485.096 1.263.137 1.337.002-.068.244-.319.581-.609l-.023-.104-.122-.522c-.254-1.095-.252-2.311.003-2.213.345.132.872.74 1.214 1.4.266.514.224.635-.201.578-.314-.042-.322-.038-.275.148.04.16-.005.234-.276.449-.112.089-.22.178-.32.264-.337.29-.579.54-.58.61-.002.043-.14.286-.308.538-.167.252-.393.7-.502.996-.481 1.304-.745 1.694-1.35 2-.313.16-.363.212-.287.303.062.075.065.111.009.111-.046 0 .066.216.25.479.389.56.638 1.039.927 1.781.207.532.628 1.24.844 1.42.142.118.145.235.005.181-.133-.05-.171.009-.24.372l-.053.287h.323c.239 0 .313.027.284.103-.028.073.012.093.136.07.278-.054 1.134.104 1.519.28.193.088.398.16.455.16.057 0 .136.032.176.07.197.192 1.636.479 2.611.52 1.104.048 1.446.005 1.378-.172-.063-.166-.009-.14.312.156.16.147.327.268.369.268.086 0 .232-.303.312-.65.071-.308.184-.439.33-.383.065.025.096.022.068-.006-.073-.072.112-.24.64-.581.576-.373 1.024-.601 2.171-1.105.505-.221.93-.44.945-.485.032-.098-.3-.237-.564-.237-.103 0-.187-.026-.187-.057 0-.063.79-.402.934-.402.049 0 .15-.056.225-.125.132-.118.127-.14-.096-.464-.422-.612-.852-1.707-1.175-2.987-.106-.422-.107-.524-.005-.957.137-.581.156-2.346.033-3.152a14.67 14.67 0 00-.277-1.278c-.107-.4-.212-.826-.233-.945-.033-.19-.063-.21-.24-.167-.463.114-1.617.94-2.268 1.624l-.384.403-.383-.082zm1.861 1.005c.042-.774.556-2.132.994-2.624.065-.074.13-.124.144-.11.013.013.102.522.198 1.13.13.83.174 1.43.174 2.408 0 .717-.027 1.37-.06 1.45-.053.13-.093.1-.313-.23-.155-.231-.227-.41-.188-.463.043-.056-.015-.12-.167-.182-.128-.053-.251-.126-.273-.162-.023-.037.107-.213.288-.393l.33-.326-.575-.038-.574-.039.022-.42zm-6.248.982c-.173.025-.273-.125-.435-.656-.068-.223.01-.218.366.025.232.158.286.238.267.402-.017.145-.074.212-.198.23zm2.664.294c0-.286.1-.383.532-.514.107-.033.331-.062.498-.066l.302-.006-.233.172a3.203 3.203 0 00-.417.383.91.91 0 01-.433.259c-.244.046-.25.041-.25-.228zm-4.467.345c.107-.14.303-.32.435-.401.132-.081.301-.147.376-.147.42-.001.868.755.801 1.348l-.036.324.354.08.353.08-.363-.035c-.2-.02-.528-.054-.728-.077L6.82 8.72l.266.122c.457.21.449.382-.03.63-.13.066-.27.164-.313.217a.564.564 0 01-.24.143c-.189.056-.58-.234-.798-.594l-.135-.222-.237.326c-.279.385-.605 1.053-.668 1.368-.05.247.33 1.12.589 1.353.133.12.164.103.588-.34.247-.258.492-.468.545-.468.053 0 .31.148.571.329.632.438 1.062.59 1.67.59.65 0 1.203-.169 1.637-.5.34-.26.577-.339.577-.193 0 .04-.046.1-.103.134-.057.034-.166.303-.243.598-.077.294-.205.67-.286.832-.207.418-.92 1.366-1.212 1.612-.628.528-1.528.767-1.814.48-.109-.109-.143-.324-.18-1.146-.028-.634-.09-1.13-.165-1.33-.172-.45-.5-.947-.626-.947h-.001c-.062.003-.252.123-.426.269-.177.147-.364.268-.415.268-.117 0-.343-.244-.62-.671-.188-.29-.207-.376-.17-.766.088-.922.935-2.092 1.594-2.203.078-.013.137-.024.18-.037.117-.034.117-.08.083-.219-.076-.306-.162-.357-.401-.238-.117.06-.244.121-.281.139-.126.058.039-.407.236-.666zm4.891 1.276c.147-.475.492-.914.84-1.066.084-.037.346-.057.582-.045.352.018.488.069.75.276.561.444.765 1.08.495 1.537-.07.117-.315.338-.547.49-.361.239-.483.278-.864.278-.382 0-.487-.035-.768-.25-.18-.136-.336-.283-.35-.325-.012-.042.089-.128.225-.191.336-.157.386-.494.093-.628-.16-.072-.235-.071-.356.005-.142.088-.15.081-.1-.081z" fill="#F3F3F3"/>
        <path d="M10.99 6.731c-.43.131-.531.228-.531.514 0 .27.005.274.249.228a.91.91 0 00.433-.259c.102-.116.29-.288.417-.383l.233-.173-.302.007c-.166.004-.39.033-.498.066zM7.36 6.295c.163.53.262.68.435.656.124-.017.181-.084.198-.23.019-.163-.034-.243-.267-.401-.357-.243-.434-.248-.366-.025z" fill="#000"/>
        <path d="M6.175 8.61c-.66.112-1.506 1.282-1.594 2.204-.038.39-.018.477.17.766.277.427.502.67.62.67.051 0 .238-.12.414-.267.175-.146.365-.266.426-.268l-.369.008c-.424.443-.455.46-.588.34-.259-.233-.639-1.106-.59-1.352.064-.316.39-.984.669-1.37l.236-.325.136.222c.218.36.609.65.798.594a.564.564 0 00.24-.143c.042-.053.183-.15.312-.217.48-.248.488-.42.03-.63L6.82 8.72l.363.042c.2.023.528.057.728.077l.364.035-.354-.08-.353-.08-1.214-.14a1.72 1.72 0 01-.18.037z" fill="#020202"/>
        <path fill-rule="evenodd" clip-rule="evenodd" d="M5.494 7.042l.522-.204.106-.353h.64c.045-.19.107-.58 0-.624-.133-.054 1.067-.298 1.28.163.171.369.072-.027 0-.271l.374.108v-.108c.187-.045.587.06.587.84 0 .016.044-.038.115-.123.178-.215.52-.628.711-.609l.08.217c.178-.162.624-.472.987-.406.054.01.151.298 0 .406.4-.217 1.254-.482 1.787.299.037.054-.347.515-.613.678.14.033.354-.006.56-.044.302-.054.588-.106.613.07.022.153-.204.245-.32.272.471 0 1.424.043 1.467.217.043.174-.284.326-.453.38l.773.19-.187.38.534.406-.187.434.347.461-.347.57.64.732-.4.407 1.147 1.22-1.68 1.302.186.109-1.813.84.32.326-.987.461.293.217-.506.298-.854.19.29.237c.139-.03.182-.08.153-.154-.064-.166-.01-.14.312.156.16.147.326.268.369.268.086 0 .232-.303.312-.65.071-.308.184-.439.33-.383.065.025.096.022.067-.006-.072-.072.112-.24.64-.581.577-.373 1.025-.601 2.172-1.105.505-.221.93-.44.945-.485.032-.098-.3-.237-.565-.237-.102 0-.186-.026-.186-.057 0-.063.79-.402.934-.402.048 0 .15-.056.225-.125.132-.118.127-.14-.096-.464-.422-.612-.852-1.707-1.175-2.987-.106-.422-.107-.524-.005-.957.137-.581.156-2.346.033-3.152a14.745 14.745 0 00-.278-1.278 18.74 18.74 0 01-.232-.945c-.033-.19-.063-.21-.24-.167-.463.114-1.617.94-2.268 1.624l-.384.403-.383-.082c-.21-.045-.78-.108-1.264-.14l-.44-.028-.44.035-.729.11c-.4.06-.842.147-.981.193-.334.11-.403.037-.076-.08l.253-.092-.536-.498a8.744 8.744 0 00-.898-.733c-.199-.13-.345-.263-.324-.296.02-.033-.003-.085-.053-.115-.056-.035-.069-.023-.035.033.078.125-.016.104-.444-.098-.206-.097-.335-.19-.288-.206.048-.016-.081-.034-.286-.04-.331-.01-.369.005-.335.134a.182.182 0 01-.001.113l-.002.228c.023.026.02.093-.001.172l-.005.59v.012l.043 1.481c.016.428.078 1.086.121 1.285l.028.017zm.545-.679l.023.104c.1-.086.208-.175.32-.264.27-.215.316-.289.276-.449-.047-.186-.039-.19.274-.148.426.057.468-.064.201-.578-.342-.66-.868-1.268-1.213-1.4-.255-.098-.257 1.118-.003 2.213l.122.522zm9.002-3.018c-.439.492-.952 1.85-.994 2.624l-.022.421.574.039.575.038-.33.326c-.181.18-.311.356-.289.393.023.036.146.109.274.162.152.063.21.126.167.182-.04.053.032.232.188.464.22.33.26.359.313.23.033-.082.06-.734.06-1.45 0-.979-.043-1.578-.174-2.409-.096-.608-.185-1.117-.198-1.13-.014-.014-.079.036-.145.11z" fill="#C4C3BE"/>
        <path d="M6.374 6.203c.271-.215.317-.289.276-.449-.046-.186-.038-.19.275-.148.425.057.467-.064.201-.578-.342-.66-.869-1.268-1.214-1.4-.255-.098-.256 1.118-.002 2.213l.121.522.024.104c.1-.086.207-.175.32-.264zM15.033 3.345c-.438.492-.952 1.85-.993 2.624l-.023.421.575.039.574.038-.33.326c-.18.18-.31.356-.288.393.022.036.145.109.273.162.152.063.21.126.168.182-.04.053.032.232.187.464.22.33.26.359.313.23.033-.082.06-.734.06-1.45 0-.979-.043-1.578-.173-2.409-.096-.608-.185-1.117-.199-1.13-.013-.014-.078.036-.144.11z" fill="#615B4F"/>
        <path d="M6.214 11.714c.125 0 .454.498.625.948.076.198.138.695.166 1.329.037.822.07 1.037.18 1.146.285.287 1.185.048 1.813-.48.293-.247 1.005-1.194 1.212-1.612.08-.163.21-.538.287-.832.076-.295.185-.564.242-.598.057-.034.103-.094.103-.134 0-.146-.237-.067-.577.193-.434.331-.986.5-1.637.5-.607 0-1.038-.152-1.67-.59-.26-.181-.517-.33-.57-.33-.054 0-.299.211-.545.469l.369-.008h.002z" fill="#370202"/>
        <path d="M7.23 13.832c.28-1.043 1.064-1.058 1.421-.935.574-.369 1.631-.04 1.546.123-.624 1.181-1.72 2.19-2.592 2.19-.241-.025-.653-.335-.374-1.378z" fill="#A01015"/>
        <defs>
            <linearGradient id="ippaint0_linear_2116_2389" x1="10" y1="0" x2="10" y2="20" gradientUnits="userSpaceOnUse">
                <stop stop-color="#F7D267"/>
                <stop offset="1" stop-color="#EB952B"/>
            </linearGradient>
        </defs>
    </svg>