<svg width="25" height="24" fill="none" viewBox="-2 -2 25 24" id="krw" x="178" y="144" xmlns="http://www.w3.org/2000/svg">
        <g clip-path="url(#iqclip0)">
            <path d="M10.882 20c5.523 0 10-4.477 10-10s-4.477-10-10-10-10 4.477-10 10 4.477 10 10 10z" fill="#F0F0F0"/>
            <path d="M14.36 10c0 .87-1.557 3.043-3.478 3.043-1.92 0-3.478-2.173-3.478-3.043a3.478 3.478 0 116.957 0z" fill="#D80027"/>
            <path d="M14.36 10a3.478 3.478 0 01-6.956 0" fill="#0052B4"/>
            <path d="M15.494 12.152l-.923.922.615.615.923-.922-.615-.615zM13.956 13.69l-.922.922.615.615.922-.923-.615-.615zM17.339 13.996l-.923.923.615.614.922-.922-.614-.615zM15.801 15.534l-.922.922.615.615.922-.922-.615-.615zM16.416 13.074l-.922.923.615.614.922-.922-.615-.615zM14.88 14.612l-.923.922.615.615.922-.923-.615-.614zM13.957 4.466l2.46 2.46.614-.616-2.459-2.459-.615.615zM13.035 5.389l.922.922.615-.615-.922-.922-.615.615zM14.572 6.926l.922.922.615-.615-.923-.922-.614.615zM14.879 3.544l.922.922.615-.615-.923-.922-.614.615zM16.416 5.081l.923.922.614-.614-.922-.923-.615.615zM6.886 16.456l-2.46-2.46-.615.616 2.46 2.46.615-.616zM7.808 15.534l-.922-.923-.615.615.922.922.615-.614zM6.27 13.997l-.922-.923-.614.615.922.922.615-.614zM8.73 14.611l-2.46-2.459-.614.615 2.46 2.46.614-.616zM4.426 6.003l2.46-2.46-.615-.614-2.46 2.46.615.614zM5.348 6.925l2.46-2.46-.615-.614-2.46 2.46.615.614zM6.271 7.848l2.46-2.46-.615-.614-2.46 2.46.615.614z" fill="#000"/>
        </g>
        <defs>
            <clipPath id="iqclip0">
                <path fill="#fff" transform="translate(.882)" d="M0 0h20v20H0z"/>
            </clipPath>
        </defs>
    </svg>