<svg width="24" height="24" fill="none" viewBox="-2 -2 24 24" id="ksm" x="360" y="388" xmlns="http://www.w3.org/2000/svg">
        <circle cx="10" cy="10" r="10" fill="#000"/>
        <path d="M16.663 5.226c-.236-.185-.517-.44-1.03-.503-.48-.063-.97.259-1.3.472-.332.213-.958.839-1.216 1.03-.259.19-.92.367-1.987 1.006-1.065.64-5.247 3.324-5.247 3.324l1.089.014-4.853 2.499h.485l-.698.53s.617.164 1.134-.163v.15s5.778-2.277 6.893-1.687l-.68.2c.059 0 1.156.072 1.156.072a1.557 1.557 0 00.699 1.124c.662.436.676.676.676.676s-.345.14-.345.318c0 0 .508-.155.98-.14.299.01.596.058.884.14 0 0-.036-.19-.495-.318-.457-.127-.911-.626-1.133-.898a1.27 1.27 0 01-.186-1.242c.159-.413.712-.64 1.855-1.23 1.347-.698 1.655-1.215 1.846-1.618.19-.404.471-1.207.63-1.583.2-.485.444-.744.648-.898.204-.154 1.111-.495 1.111-.495s-.693-.603-.916-.78z" fill="#fff"/>
    </svg>