<svg width="25" height="24" fill="none" viewBox="-2 -2 25 24" id="kzt" y="172" xmlns="http://www.w3.org/2000/svg">
        <g clip-path="url(#itclip0)">
            <path d="M10.5 20c5.523 0 10-4.477 10-10s-4.477-10-10-10S.5 4.477.5 10s4.477 10 10 10z" fill="#338AF3"/>
            <path d="M7.05 10.109H4.848c0 .78.68 1.413 1.46 1.413h-.047c0 .78.633 1.413 1.413 1.413 0 .78.633 1.413 1.413 1.413h2.826c.78 0 1.413-.633 1.413-1.413.78 0 1.413-.633 1.413-1.413h-.047c.78 0 1.46-.633 1.46-1.413H13.95a3.912 3.912 0 01-6.9 0z" fill="#FFDA44"/>
            <path d="M13.489 8.26l-1.222.575.65 1.183-1.325-.254-.168 1.34-.924-.985-.924.985-.168-1.34-1.326.254.65-1.183-1.221-.574 1.221-.575-.65-1.182 1.326.253.168-1.34.924.986.924-.985.168 1.34 1.326-.254-.65 1.182 1.22.575z" fill="#FFDA44"/>
        </g>
        <defs>
            <clipPath id="itclip0">
                <path fill="#fff" transform="translate(.5)" d="M0 0h20v20H0z"/>
            </clipPath>
        </defs>
    </svg>