<svg width="25" height="25" fill="none" viewBox="-2 -2 25 25" id="loom" x="203" xmlns="http://www.w3.org/2000/svg">
        <circle cx="10.846" cy="10.778" r="10" fill="#3949A1"/>
        <path fill-rule="evenodd" clip-rule="evenodd" d="M14.706 17.383l-8.594-6.029-1.06.74a1.697 1.697 0 000 2.783l1.922 1.348 2.231-1.557.817.576-3.046 2.13-2.461-1.727a2.64 2.64 0 010-4.325l.586-.41-.004-.004.19-.133-.772-.542a2.642 2.642 0 010-4.324l2.47-1.736 8.594 6.03 1.055-.738a1.697 1.697 0 000-2.782l-1.922-1.348-2.226 1.559-.818-.576 3.048-2.133 2.464 1.728-.002-.006a2.641 2.641 0 010 4.324l-.433.303.004.004-.346.242.773.542a2.64 2.64 0 010 4.325l-2.47 1.736zm.872-6.026l1.054.74a1.698 1.698 0 010 2.782l-1.924 1.346-7.77-5.448 3.086-2.155-.817-.576-.227.158-.006-.008-2.862 2.002-1.054-.739a1.698 1.698 0 010-2.782l1.925-1.346 7.77 5.448-3.09 2.159.816.576 2.307-1.611.004.005.788-.55z" fill="#fff"/>
    </svg>