<svg width="24" height="24" fill="none" viewBox="-2 -2 24 24" id="ltc" x="422" y="192" xmlns="http://www.w3.org/2000/svg">
        <path d="M9.992 19.944c5.487 0 9.936-4.448 9.936-9.936 0-5.487-4.449-9.936-9.936-9.936S.056 4.521.056 10.008c0 5.488 4.449 9.936 9.936 9.936z" fill="#335E9F"/>
        <path d="M5.576 16.104l1.48-4.808-1.612.492.428-1.184 1.48-.46L9.42 3.34a.348.348 0 01.332-.244h2.112c.232 0 .396.224.332.444l-1.68 5.616 1.516-.428-.276 1.144-1.564.472L9.1 13.832h5.56c.168 0 .288.16.244.32l-.484 1.768a.253.253 0 01-.244.184h-8.6z" fill="#fff"/>
    </svg>