<svg width="24" height="24" fill="none" viewBox="-2 -2 24 24" id="lto" x="422" y="216" xmlns="http://www.w3.org/2000/svg">
        <path d="M10 20c5.523 0 10-4.477 10-10S15.523 0 10 0 0 4.477 0 10s4.477 10 10 10z" fill="#fff"/>
        <path d="M11.784 3.228l-1.685 1.686.342.342a.492.492 0 00.695 0L12.82 3.57l-.342-.343a.49.49 0 00-.695 0zm-4.263 0l-.34.343 1.685 1.685a.492.492 0 00.695 0l.34-.342-1.685-1.686a.49.49 0 00-.695 0zm5.851 2.206l-3.185 3.184.645.645a.93.93 0 001.312 0L15.33 6.08l-.646-.645a.927.927 0 00-1.312 0zm-8.056 0l-.644.645 3.184 3.183a.93.93 0 001.313 0l.644-.643L6.63 5.434a.926.926 0 00-1.313 0zm4.337-.075l-.342.344.69.687.688-.687-.34-.344a.49.49 0 00-.696 0zm5.95 3.175l-5.292 5.293 1.071 1.072a1.543 1.543 0 002.181 0l5.293-5.292-1.072-1.072a1.539 1.539 0 00-2.181 0v-.001zm-13.387 0L1.145 9.605l5.292 5.292a1.543 1.543 0 002.181 0l1.073-1.07-5.294-5.293a1.539 1.539 0 00-2.181 0zm7.127.926l-.643.646 1.3 1.301 1.301-1.3-.643-.645a.926.926 0 00-1.315 0V9.46zm-.434 5.767L7.84 16.3 10 18.46l2.162-2.162-1.071-1.072a1.54 1.54 0 00-2.182 0z" fill="url(#jepaint0_linear)"/>
        <defs>
            <linearGradient id="jepaint0_linear" x1="2.725" y1="10.772" x2="17.416" y2="10.772" gradientUnits="userSpaceOnUse">
                <stop stop-color="#7CB7FF"/>
                <stop offset="1" stop-color="#BA6DF6"/>
            </linearGradient>
        </defs>
    </svg>