<svg width="24" height="24" fill="none" viewBox="-2 -2 24 24" id="lun" x="422" y="240" xmlns="http://www.w3.org/2000/svg">
        <path d="M10 20c5.523 0 10-4.477 10-10S15.523 0 10 0 0 4.477 0 10s4.477 10 10 10z" fill="#F55749"/>
        <path d="M9.883 3.78a.238.238 0 01.233 0l5.14 2.886a.225.225 0 01.117.196.224.224 0 01-.116.197L10.785 9.58a1.035 1.035 0 00-.608-.338v-1.37c.484-.08.854-.49.854-.986 0-.554-.46-1.002-1.029-1.002-.568 0-1.028.448-1.028 1.002 0 .492.366.9.847.985v1.373c-.233.04-.444.159-.6.335L4.749 7.07a.224.224 0 010-.393l5.135-2.894V3.78zm5.388 3.638a.237.237 0 01.318.081c.02.035.031.074.032.114l.004 5.604a.224.224 0 01-.116.196L10.53 16.22c-.155.088-.349-.021-.349-.196l-.004-4.808c.241-.04.46-.163.617-.347l1.244.697a.977.977 0 00-.023.393c.078.548.599.929 1.16.852.563-.078.955-.584.876-1.133-.079-.548-.6-.929-1.162-.851a1.027 1.027 0 00-.701.423l-1.219-.683a.96.96 0 00-.016-.716l4.318-2.434v.002zM4.38 7.612a.23.23 0 01.232-.226c.041 0 .082.01.117.03L9.05 9.854a.965.965 0 00-.015.713l-1.218.683a1.028 1.028 0 00-.701-.423 1.024 1.024 0 00-1.161.851c-.08.548.312 1.055.875 1.132a1.024 1.024 0 001.16-.851.975.975 0 00-.022-.394l1.243-.697c.155.183.372.305.61.347l-.003 4.81c0 .174-.194.282-.349.195l-4.979-2.807a.225.225 0 01-.116-.196l.005-5.603z" fill="#fff"/>
    </svg>