<svg width="24" height="25" fill="none" viewBox="-2 -2 24 25" id="lxt" x="203" y="25" xmlns="http://www.w3.org/2000/svg">
        <g clip-path="url(#jhclip0)">
            <circle cx="10" cy="10.165" r="10" fill="#2CC2EA"/>
            <path fill-rule="evenodd" clip-rule="evenodd" d="M6.132 15.451h.534l2.943-4.446-4.258-6.608h2.125l2.31 3.556-.407.59-2.472-3.749-.531.002 2.994 4.54 3.407-4.939h1.965l-3.414 5-.344-.53 2.762-4.04-.542.01L10.45 8.86l4.577 7.073h-2.186l-2.576-3.89.396-.61 2.684 4.016.536.002-3.227-4.823-3.435 5.305H4.986l3.702-5.541.392.608-2.948 4.451zm2.294-5.466l-4.27 6.393h3.302l2.723-4.205-.178.278 2.6 3.927h3.241L11.59 9.802l3.996-5.85h-3.039l-2.76 4 .273-.396-2.342-3.604h-3.18l3.889 6.033z" fill="#fff"/>
        </g>
        <defs>
            <clipPath id="jhclip0">
                <path fill="#fff" transform="translate(0 .165)" d="M0 0h20v20H0z"/>
            </clipPath>
        </defs>
    </svg>