<svg width="25" height="24" fill="none" viewBox="-2 -2 25 24" id="mad" x="203" y="50" xmlns="http://www.w3.org/2000/svg">
        <g clip-path="url(#jiclip0)">
            <path d="M10.5 20c5.523 0 10-4.477 10-10s-4.477-10-10-10S.5 4.477.5 10s4.477 10 10 10z" fill="#D80027"/>
            <path d="M16.41 8.207h-4.515L10.5 3.913 9.105 8.207H4.59l3.653 2.653-1.395 4.294L10.5 12.5l3.652 2.654-1.395-4.294 3.653-2.653zm-7.145 2.321l.472-1.452h1.526l.472 1.452-1.235.897-1.235-.897zm1.716-2.321h-.962l.481-1.48.48 1.48zm1.494 1.784l-.297-.915h1.555l-1.258.915zm-3.653-.915l-.297.915-1.258-.915h1.555zm-.32 3.801l.48-1.48.778.566-1.258.914zm2.738-.914l.778-.565.48 1.48-1.258-.915z" fill="#FFDA44"/>
        </g>
        <defs>
            <clipPath id="jiclip0">
                <path fill="#fff" transform="translate(.5)" d="M0 0h20v20H0z"/>
            </clipPath>
        </defs>
    </svg>