<svg width="24" height="24" fill="none" viewBox="-2 -2 24 24" id="mana" x="422" y="288" xmlns="http://www.w3.org/2000/svg">
        <path d="M10 20c5.523 0 10-4.477 10-10S15.523 0 10 0 0 4.477 0 10s4.477 10 10 10z" fill="url(#jjpaint0_linear)"/>
        <path fill-rule="evenodd" clip-rule="evenodd" d="M7.085 6.5V14h6.25l-6.25-7.5z" fill="url(#jjpaint1_linear)"/>
        <path fill-rule="evenodd" clip-rule="evenodd" d="M.835 14h6.25V6.5L.835 14z" fill="#fff"/>
        <path fill-rule="evenodd" clip-rule="evenodd" d="M2 16c.57.755 1.245 1.43 2 2h12c.755-.57 1.43-1.245 2-2H2z" fill="#FC9965"/>
        <path fill-rule="evenodd" clip-rule="evenodd" d="M4 18c1.67 1.255 3.75 2 6 2s4.33-.745 6-2H4z" fill="#FF2D55"/>
        <path fill-rule="evenodd" clip-rule="evenodd" d="M13.415 10.5V16H18l-4.585-5.5z" fill="url(#jjpaint2_linear)"/>
        <path fill-rule="evenodd" clip-rule="evenodd" d="M13.415 14H.835c.31.715.705 1.385 1.165 2h11.42v-2h-.005z" fill="#FFBC5B"/>
        <path fill-rule="evenodd" clip-rule="evenodd" d="M8.835 16h4.58v-5.5L8.835 16z" fill="#fff"/>
        <path d="M13.415 9a2.5 2.5 0 100-5 2.5 2.5 0 000 5zM7.085 5a1.25 1.25 0 100-2.5 1.25 1.25 0 000 2.5z" fill="#FFC95B"/>
        <defs>
            <linearGradient id="jjpaint0_linear" x1="17.071" y1="2.929" x2="2.929" y2="17.071" gradientUnits="userSpaceOnUse">
                <stop stop-color="#FF2D55"/>
                <stop offset="1" stop-color="#FFBC5B"/>
            </linearGradient>
            <linearGradient id="jjpaint1_linear" x1="10.208" y1="6.5" x2="10.208" y2="14" gradientUnits="userSpaceOnUse">
                <stop stop-color="#A524B3"/>
                <stop offset="1" stop-color="#FF2D55"/>
            </linearGradient>
            <linearGradient id="jjpaint2_linear" x1="15.706" y1="10.5" x2="15.706" y2="16" gradientUnits="userSpaceOnUse">
                <stop stop-color="#A524B3"/>
                <stop offset="1" stop-color="#FF2D55"/>
            </linearGradient>
        </defs>
    </svg>