<svg width="25" height="24" fill="none" viewBox="-2 -2 25 24" id="mask" x="203" y="74" xmlns="http://www.w3.org/2000/svg">
        <path d="M10.535 20c5.523 0 10-4.477 10-10s-4.477-10-10-10-10 4.477-10 10 4.477 10 10 10z" fill="#1C68F3"/>
        <path fill-rule="evenodd" clip-rule="evenodd" d="M16.535 7.667V11H6.105a4.535 4.535 0 008.492 1h1.938v2.8a1.2 1.2 0 01-1.2 1.2h-9.6a1.2 1.2 0 01-1.2-1.2V7.667h12zM13.446 12a3.53 3.53 0 01-2.918 1.541 3.53 3.53 0 01-2.919-1.54h5.837zM7.968 8.467c-.94 0-1.718.695-1.847 1.6h1.023a.867.867 0 011.65 0h1.022a1.867 1.867 0 00-1.848-1.6zm5.134 0c-.94 0-1.719.695-1.848 1.6h1.023a.867.867 0 011.65 0h1.023a1.867 1.867 0 00-1.848-1.6zM15.335 4a1.2 1.2 0 011.2 1.2v1.467h-12V5.2a1.2 1.2 0 011.2-1.2h9.6z" fill="#fff"/>
    </svg>