<svg width="24" height="24" fill="none" viewBox="-2 -2 24 24" id="mc" x="422" y="384" xmlns="http://www.w3.org/2000/svg">
        <circle cx="10" cy="10" r="10" fill="#011342"/>
        <path fill-rule="evenodd" clip-rule="evenodd" d="M12.4 13.6a3.6 3.6 0 003.6-3.54V10a6 6 0 11-12 0h4.8a3.6 3.6 0 003.6 3.6z" fill="url(#jopaint0_linear_2151_2708)"/>
        <path fill-rule="evenodd" clip-rule="evenodd" d="M7.6 13.6A3.6 3.6 0 014 10.06V10a6 6 0 1012 0h-4.8a3.6 3.6 0 01-3.6 3.6z" fill="url(#jopaint1_linear_2151_2708)"/>
        <path fill-rule="evenodd" clip-rule="evenodd" d="M7.6 6.4a3.6 3.6 0 00-3.599 3.54V10a6 6 0 0112 0h-4.8a3.6 3.6 0 00-3.6-3.6z" fill="url(#jopaint2_linear_2151_2708)"/>
        <path fill-rule="evenodd" clip-rule="evenodd" d="M12.4 6.4A3.6 3.6 0 0116 9.94V10a6 6 0 00-12 0h4.8a3.6 3.6 0 013.6-3.6z" fill="url(#jopaint3_linear_2151_2708)"/>
        <path d="M8.74 9.94H4.06v.12h4.68v-.12z" fill="#EF9146"/>
        <path d="M15.94 9.94h-4.68v.12h4.68v-.12z" fill="#E57622"/>
        <defs>
            <linearGradient id="jopaint0_linear_2151_2708" x1="6.625" y1="10" x2="6.813" y2="16" gradientUnits="userSpaceOnUse">
                <stop stop-color="#EF9146"/>
                <stop offset="1" stop-color="#E0592E"/>
            </linearGradient>
            <linearGradient id="jopaint1_linear_2151_2708" x1="10" y1="10" x2="10" y2="16" gradientUnits="userSpaceOnUse">
                <stop stop-color="#E57722"/>
                <stop offset="1" stop-color="#F2B24C"/>
            </linearGradient>
            <linearGradient id="jopaint2_linear_2151_2708" x1="12.808" y1="10" x2="12.808" y2="3.745" gradientUnits="userSpaceOnUse">
                <stop stop-color="#E57722"/>
                <stop offset="1" stop-color="#DD4A33"/>
            </linearGradient>
            <linearGradient id="jopaint3_linear_2151_2708" x1="6.438" y1="10" x2="6.438" y2="4" gradientUnits="userSpaceOnUse">
                <stop stop-color="#EF9046"/>
                <stop offset="1" stop-color="#F3C44F"/>
            </linearGradient>
        </defs>
    </svg>