<svg width="24" height="24" fill="none" viewBox="-2 -2 24 24" id="mco" y="412" xmlns="http://www.w3.org/2000/svg">
        <path d="M10 20c5.523 0 10-4.477 10-10S15.523 0 10 0 0 4.477 0 10s4.477 10 10 10z" fill="#103F68"/>
        <path d="M9.985 1.618l7.265 4.184v8.395l-7.257 4.197-.059-.015-7.184-4.182V5.802l7.184-4.184h.05zm-.024.868L3.513 6.241v7.517l6.447 3.754.788-.456 5.739-3.3V6.242l-5.74-3.32-.786-.436zm-5.449 8.097l1.909-1.427 1.687 1.078v1.938l1.277 1.23v.577l-1.231 1.153H7.115l-2.603-4.549zm6.031 3.398l-.002-.58 1.272-1.229v-1.938l1.67-1.092 1.904 1.442-2.59 4.535h-1.025l-1.229-1.138zm-1.808-3.747l-.622-1.626h3.693l-.61 1.626.18 1.818-1.424.003-1.408.002.19-1.823zm1.217-2.072l-3.51-.002.653-2.915h5.697l.687 2.92-3.527-.003z" fill="#fff"/>
    </svg>