<svg width="24" height="24" fill="none" viewBox="-2 -2 24 24" id="mda" x="24" y="412" xmlns="http://www.w3.org/2000/svg">
        <path d="M10 20c5.523 0 10-4.477 10-10S15.523 0 10 0 0 4.477 0 10s4.477 10 10 10z" fill="#01A64F"/>
        <path d="M12.914 4.995c.76.813 1.149 1.832 1.149 3.025 0 1.21-.389 2.231-1.15 3.044a3.774 3.774 0 01-2.178 1.158v.709h1.723v.778h-1.74v.415h1.74v.725h-1.723v1.401h-1.47v-1.4H7.559v-.726h1.723v-.415H7.559v-.778h1.707v-.727a3.778 3.778 0 01-2.163-1.158c-.777-.812-1.165-1.833-1.165-3.043 0-1.227.371-2.247 1.148-3.043.776-.813 1.74-1.21 2.923-1.21 1.165 0 2.128.397 2.905 1.245zm-1.588 4.616c.32-.415.49-.951.49-1.608 0-.64-.168-1.175-.524-1.59-.337-.432-.776-.64-1.283-.64a1.61 1.61 0 00-1.3.623c-.34.415-.508.933-.508 1.59 0 .674.169 1.21.507 1.625a1.61 1.61 0 001.3.623c.541 0 .997-.208 1.318-.623z" fill="#fff"/>
    </svg>