<svg width="25" height="24" fill="none" viewBox="-2 -2 25 24" id="mdl" x="203" y="98" xmlns="http://www.w3.org/2000/svg">
        <g clip-path="url(#jrclip0)">
            <path d="M14.848.992A9.96 9.96 0 0010.5 0a9.96 9.96 0 00-4.348.992L5.282 10l.87 9.008A9.96 9.96 0 0010.5 20a9.96 9.96 0 004.348-.992l.87-9.008-.87-9.008z" fill="#FFDA44"/>
            <path d="M13.978 7.868h-2.391a1.087 1.087 0 10-2.174 0H7.022c0 .59.515 1.07 1.106 1.07h-.036c0 .591.48 1.07 1.07 1.07 0 .524.376.959.872 1.051l-.843 1.904a3.467 3.467 0 002.618 0l-.843-1.904a1.07 1.07 0 00.872-1.05c.59 0 1.07-.48 1.07-1.07h-.036c.591 0 1.106-.48 1.106-1.071z" fill="#FF9811"/>
            <path d="M6.152.993A10 10 0 00.5 10a10 10 0 005.652 9.007V.993zM10.5 9.348L9.087 10v1.304l1.413.87 1.413-.87V10L10.5 9.348z" fill="#0052B4"/>
            <path d="M14.848.993v18.014A10 10 0 0020.5 10 10 10 0 0014.848.993zM11.913 8.696H9.087V10h2.826V8.696z" fill="#D80027"/>
        </g>
        <defs>
            <clipPath id="jrclip0">
                <path fill="#fff" transform="translate(.5)" d="M0 0h20v20H0z"/>
            </clipPath>
        </defs>
    </svg>