<svg width="24" height="24" fill="none" viewBox="-30 -30 300 300" id="mrx" x="360" y="508" xmlns="http://www.w3.org/2000/svg">
        <circle cx="125" cy="125" r="125" fill="#fff"/>
        <path fill="#250125" d="M127 255c71,0 128,-57 128,-128 0,-70 -57,-127 -128,-127 -70,0 -127,57 -127,127 0,71 57,128 127,128zm0 -232c27,0 52,10 71,27l-71 44 -70 -43c18,-17 43,-28 70,-28zm73 30c20,19 32,45 32,74 0,11 -2,21 -5,31l-42 -69 15 -10 0 -26zm19 125c-18,32 -52,54 -92,54 -39,0 -73,-22 -91,-54l9 0 46 -76 23 15 1 65 26 0 -1 -66 23 -14 46 76 10 0zm-191 -20c-3,-10 -5,-20 -5,-31 0,-29 12,-55 31,-74l0 26 15 10 -41 69z"/>
    </svg>