<svg width="24" height="24" fill="none" viewBox="-2 -2 24 24" id="mx" x="240" y="412" xmlns="http://www.w3.org/2000/svg">
        <g clip-path="url(#kdclip0)">
            <path d="M19.552 12.961l-4.63-7.903c-.837-1.41-2.887-1.41-3.724 0l-4.63 7.903c-.837 1.411.2 3.17 1.874 3.17H17.7c1.653 0 2.667-1.759 1.852-3.17z" fill="#00B897"/>
            <path d="M13.38 13.114l-.265-.456a65.744 65.744 0 00-.793-1.346L8.64 5.059c-.838-1.411-2.888-1.411-3.725 0l-4.63 7.903c-.837 1.41.199 3.17 1.874 3.17H17.7c-2.292 0-3.262-1.216-4.32-3.018z" fill="#76FCB2"/>
            <path d="M13.38 13.113l-.265-.456c-.242-.434-.793-1.346-.793-1.346L9.919 7.23 6.57 12.96c-.838 1.411.198 3.17 1.873 3.17H17.7c-2.292 0-3.262-1.216-4.32-3.018z" fill="url(#kdpaint0_linear)"/>
        </g>
        <defs>
            <linearGradient id="kdpaint0_linear" x1="5.309" y1="10.363" x2="15.96" y2="14.299" gradientUnits="userSpaceOnUse">
                <stop stop-color="#53E57A" stop-opacity="0"/>
                <stop offset="1" stop-color="#00A977"/>
            </linearGradient>
            <clipPath id="kdclip0">
                <path fill="#fff" d="M0 0h20v20H0z"/>
            </clipPath>
        </defs>
    </svg>