<svg width="25" height="24" fill="none" viewBox="-2 -2 25 24" id="mxn" x="25" y="172" xmlns="http://www.w3.org/2000/svg">
        <g clip-path="url(#kfclip0)">
            <path d="M10.5 20c5.523 0 10-4.477 10-10s-4.477-10-10-10S.5 4.477.5 10s4.477 10 10 10z" fill="#F0F0F0"/>
            <path d="M20.5 10A10 10 0 0014.848.992v18.016A10 10 0 0020.5 10z" fill="#D80027"/>
            <path d="M.5 10a10 10 0 005.652 9.008V.992A10 10 0 00.5 10zM7.891 10a2.609 2.609 0 005.218 0v-.87H7.89V10z" fill="#6DA544"/>
            <path d="M13.978 8.26h-2.609a.87.87 0 10-1.739 0H7.021c0 .481.419.87.899.87h-.029c0 .48.39.87.87.87 0 .48.389.87.87.87h1.738c.48 0 .87-.39.87-.87.48 0 .87-.39.87-.87h-.03c.48 0 .899-.389.899-.87z" fill="#FF9811"/>
        </g>
        <defs>
            <clipPath id="kfclip0">
                <path fill="#fff" transform="translate(.5)" d="M0 0h20v20H0z"/>
            </clipPath>
        </defs>
    </svg>