<svg width="24" height="24" fill="none" viewBox="-2 -2 24 24" id="mzn" x="312" y="412" xmlns="http://www.w3.org/2000/svg">
        <g clip-path="url(#khclip0)">
            <path d="M10 20c5.523 0 10-4.477 10-10S15.523 0 10 0 0 4.477 0 10s4.477 10 10 10z" fill="#F0F0F0"/>
            <path d="M5.405 13.913L2.93 17.071a10.002 10.002 0 0016.275-3.158h-13.8z" fill="#FFDA44"/>
            <path d="M19.22 6.123A10.002 10.002 0 002.93 2.93l2.504 3.194H19.22z" fill="#496E2D"/>
            <path d="M2.174 7.355v5.254h17.481A9.978 9.978 0 0020 10a9.99 9.99 0 00-.354-2.645H2.174z" fill="#000"/>
            <path d="M2.929 2.929c-3.905 3.905-3.905 10.237 0 14.142L10 10 2.929 2.929z" fill="#A2001D"/>
            <path d="M4.047 7.391l.648 1.993H6.79l-1.695 1.232.647 1.993-1.695-1.232-1.695 1.232.647-1.993-1.695-1.232H3.4l.647-1.993z" fill="#FFDA44"/>
            <path d="M5.943 10h-3.79v1.74h3.79V10z" fill="#F0F0F0"/>
            <path d="M6.66 8.006l-.615-.615L4.047 9.39 2.05 7.391l-.614.615 2 1.996-2 2 .614.607 1.998-1.995 1.998 1.995.615-.607-2-2 2-1.996z" fill="#000"/>
        </g>
        <defs>
            <clipPath id="khclip0">
                <path fill="#fff" d="M0 0h20v20H0z"/>
            </clipPath>
        </defs>
    </svg>