<svg width="25" height="24" fill="none" viewBox="-2 -2 25 24" id="nad" x="50" y="172" xmlns="http://www.w3.org/2000/svg">
        <g clip-path="url(#kiclip0)">
            <path d="M10.5 20c5.523 0 10-4.477 10-10s-4.477-10-10-10S.5 4.477.5 10s4.477 10 10 10z" fill="#F0F0F0"/>
            <path d="M3.43 17.071c.419.42.866.794 1.336 1.123L18.694 4.266a10.053 10.053 0 00-2.46-2.46L2.307 15.735c.33.469.704.917 1.123 1.336z" fill="#A2001D"/>
            <path d="M3.429 2.929C.274 6.084-.331 10.822 1.61 14.585L15.085 1.111C11.322-.831 6.584-.226 3.429 2.929z" fill="#0052B4"/>
            <path d="M17.57 17.071c3.156-3.155 3.761-7.893 1.82-11.656L5.914 18.889c3.763 1.942 8.501 1.337 11.656-1.818z" fill="#496E2D"/>
            <path d="M8.76 5.652l-1.12.527.597 1.085-1.217-.232-.154 1.229-.848-.904-.847.904-.154-1.23-1.217.233.597-1.085-1.12-.527 1.12-.527L3.8 4.04l1.217.233.154-1.23.847.905.848-.905.154 1.23 1.217-.233-.597 1.085 1.12.527z" fill="#FFDA44"/>
        </g>
        <defs>
            <clipPath id="kiclip0">
                <path fill="#fff" transform="translate(.5)" d="M0 0h20v20H0z"/>
            </clipPath>
        </defs>
    </svg>