<svg width="24" height="24" fill="none" viewBox="-2 -2 24 24" id="naft" x="336" y="412" xmlns="http://www.w3.org/2000/svg">
        <circle cx="10" cy="10" r="10" fill="url(#kjpaint0_linear)"/>
        <path d="M3.588 8.245l.04.55c.34-.425.795-.638 1.367-.638.504 0 .879.148 1.125.444.246.296.372.738.378 1.327V13h-1.27V9.959c0-.27-.06-.464-.176-.584-.117-.124-.312-.185-.585-.185a.874.874 0 00-.804.457V13h-1.27V8.245h1.195zM10.22 13a1.411 1.411 0 01-.128-.426c-.307.342-.707.514-1.2.514-.465 0-.852-.135-1.16-.404a1.303 1.303 0 01-.457-1.02c0-.504.186-.89.558-1.16.376-.27.916-.406 1.622-.409h.585v-.272c0-.22-.058-.396-.172-.528-.111-.131-.288-.197-.532-.197-.213 0-.382.05-.505.153a.525.525 0 00-.18.422H7.38c0-.275.085-.53.255-.764.17-.235.41-.418.72-.55.311-.134.66-.202 1.046-.202.586 0 1.05.148 1.393.444.346.293.519.706.519 1.24v2.06c.003.451.066.793.189 1.024V13H10.22zm-1.05-.883c.187 0 .36-.041.518-.123a.837.837 0 00.352-.339v-.817h-.475c-.636 0-.974.22-1.015.66l-.005.074c0 .158.056.288.167.39.112.103.264.155.457.155zm3.467.883V9.177h-.708v-.932h.708v-.404c0-.533.152-.946.457-1.24.307-.295.737-.443 1.287-.443.176 0 .392.029.646.088l-.013.984a1.62 1.62 0 00-.387-.04c-.477 0-.716.225-.716.673v.382h.945v.932h-.945V13h-1.274zm4.399-5.924v1.17h.813v.93h-.813v2.374c0 .176.033.302.1.378.068.076.197.114.387.114.141 0 .266-.01.374-.03v.962c-.25.076-.505.114-.77.114-.89 0-1.344-.45-1.361-1.35V9.178h-.695v-.932h.695V7.076h1.27z" fill="#fff"/>
        <defs>
            <linearGradient id="kjpaint0_linear" x1="17.5" y1="3.5" x2="2" y2="16" gradientUnits="userSpaceOnUse">
                <stop stop-color="#3CA9FB"/>
                <stop offset=".495" stop-color="#E938C4"/>
                <stop offset="1" stop-color="#FFA16D"/>
            </linearGradient>
        </defs>
    </svg>