<svg width="24" height="24" fill="none" viewBox="-2 -2 24 24" id="nano" x="360" y="412" xmlns="http://www.w3.org/2000/svg">
        <circle cx="10" cy="10" r="10" fill="#4A90E2"/>
        <path d="M3.151 12.936a1.152 1.152 0 100-2.303 1.152 1.152 0 000 2.303zM16.873 6.075c-.624 0-1.152.504-1.152 1.152 0 .912-.144 1.151-1.151 1.151h-.097a1.126 1.126 0 00-1.03 1.128v.024c0 .888-.169 1.103-1.152 1.103-.048 0-.096 0-.12.024-.576.072-1.032.552-1.032 1.128 0 .623.505 1.151 1.152 1.151.6 0 1.103-.48 1.127-1.055v-.096c0-.816.264-1.128 1.128-1.152h.024c.599 0 1.103-.48 1.127-1.08v-.071c0-.84.264-1.152 1.152-1.152.623 0 1.151-.504 1.151-1.151 0-.6-.504-1.104-1.127-1.104zm-6.765 2.303h-.096c-1.007 0-1.151-.24-1.151-1.151a1.152 1.152 0 00-2.303 0c0 .912-.145 1.127-1.152 1.127H5.31A1.126 1.126 0 004.28 9.482c0 .623.504 1.151 1.151 1.151.6 0 1.104-.48 1.128-1.055v-.072c0-.84.263-1.152 1.151-1.152s1.152.312 1.152 1.128c0 .623.504 1.151 1.151 1.151s1.152-.504 1.152-1.151a1.162 1.162 0 00-1.056-1.104z" fill="#fff"/>
    </svg>