<svg width="24" height="24" fill="none" viewBox="-2 -2 24 24" id="nav" x="384" y="412" xmlns="http://www.w3.org/2000/svg">
        <path d="M16.55 1c.528 0 .957.447.965.973v7.064c0 .01.01.02.02.02h1.49a.975.975 0 110 1.947h-1.49a.02.02 0 00-.02.02v6.987c0 .527-.373.93-.898.938h-.118c-.425 0-.727-.245-1.027-.592l-.015-.016-5.743-7.33a.02.02 0 00-.016-.007H4.45a.02.02 0 00-.02.02v6.987c0 .527-.423.98-.974.989H3.44c-.528 0-.957-.447-.965-.973v-7.003a.02.02 0 00-.02-.02H.974a.975.975 0 110-1.947h1.48a.02.02 0 00.02-.02V2.039c0-.527.448-.98.974-.988H3.745c.443 0 .72.214.99.55l.026.033 5.827 7.415a.02.02 0 00.016.008h4.935a.02.02 0 00.02-.02V1.989c0-.527.423-.98.974-.989h.017zm-1.011 10.004h-3.373a.02.02 0 00-.02.02.02.02 0 00.004.013l3.373 4.291a.02.02 0 00.028.004.02.02 0 00.008-.016v-4.292a.02.02 0 00-.02-.02zM4.43 4.329v4.708c0 .01.009.02.02.02h3.69a.02.02 0 00.015-.033L4.467 4.317a.02.02 0 00-.036.012z" fill="url(#klpaint0_linear)"/>
        <defs>
            <linearGradient id="klpaint0_linear" x1="15.71" y1="5.277" x2="5.492" y2="15.757" gradientUnits="userSpaceOnUse">
                <stop stop-color="#0A87F5"/>
                <stop offset="1" stop-color="#DC1EB9"/>
            </linearGradient>
        </defs>
    </svg>