<svg width="24" height="24" fill="none" viewBox="-2 -2 24 24" id="near" x="408" y="412" xmlns="http://www.w3.org/2000/svg">
        <circle cx="10" cy="10" r="10" fill="#fff"/>
        <path d="M13.026 5.542l-2.09 3.104a.222.222 0 00.33.292l2.058-1.785a.084.084 0 01.139.063v5.587a.083.083 0 01-.148.054l-6.22-7.445a1.066 1.066 0 00-.812-.377h-.218A1.065 1.065 0 005 6.1v7.87a1.065 1.065 0 001.065 1.065 1.066 1.066 0 00.909-.508l2.09-3.103a.222.222 0 00-.33-.292l-2.058 1.785a.083.083 0 01-.09.013.083.083 0 01-.049-.076v-5.59a.083.083 0 01.148-.053l6.218 7.447a1.065 1.065 0 00.814.377h.217A1.065 1.065 0 0015 13.969V6.1a1.065 1.065 0 00-1.974-.558z" fill="#000"/>
    </svg>