<svg width="24" height="24" fill="none" viewBox="-2 -2 24 24" id="nexo" x="446" y="24" xmlns="http://www.w3.org/2000/svg">
        <circle cx="10" cy="10" r="10" fill="#3360BE"/>
        <path d="M6.71 3.814l6.708 3.872v3.948L3.159 5.711l3.288-1.897a.276.276 0 01.262 0z" fill="#DDEDFD"/>
        <path d="M13.418 3.736l-3.42 1.975 3.42 1.974V3.736z" fill="#C1DDFC"/>
        <path d="M13.418 3.736l3.29 1.897a.276.276 0 01.133.23v7.742l-3.423-1.971V3.736z" fill="#A8CCFA"/>
        <path d="M16.838 13.608l-3.288 1.897a.277.277 0 01-.276 0l-6.706-3.872V7.68l10.27 5.929z" fill="#C1DDFC"/>
        <path d="M3.16 5.71v7.743a.276.276 0 00.132.238l3.288 1.896V7.68L3.16 5.71z" fill="#fff"/>
        <path d="M6.58 15.582l3.417-1.974-3.417-1.975v3.95z" fill="#DDEDFD"/>
    </svg>