<svg width="24" height="24" fill="none" viewBox="-2 -2 24 24" id="nmr" x="446" y="48" xmlns="http://www.w3.org/2000/svg">
        <g clip-path="url(#kqclip0)">
            <path d="M18.779 13.374V6.626a.718.718 0 00-.291-.595L10.445.154a.72.72 0 00-.917.022L1.542 6.012a.747.747 0 00-.32.618c-.002 2.249-.002 4.497 0 6.746a.747.747 0 00.323.618c2.662 1.944 5.323 3.889 7.983 5.834a.732.732 0 00.917.023c2.672-1.951 5.343-3.903 8.014-5.856a.725.725 0 00.32-.62" fill="#050708"/>
            <path d="M9.073 1.623c.07-.08.143-.205.267-.188.422.003.845-.007 1.267.005.073.045.129.113.191.172v1.307c-.125.001-.251.007-.377-.002l-.03-.122c0-.325.028-.65.001-.976h-.93l-.003.33c-.13 0-.261 0-.393-.002.001-.174-.018-.351.007-.524zM8.02 2.155c.143-.006.286-.006.43-.002.001.602.004 1.204-.002 1.806-.136.003-.272.003-.408.002-.045-.6-.01-1.204-.02-1.806zM11.65 2.802c.38-.005.76-.003 1.14 0 .002.138.002.277 0 .416-.38.004-.76.006-1.14 0v-.416zM9.347 3.007c.153-.003.306-.003.46-.003.146.286.33.552.45.851-.141.007-.282.007-.423.007a33.708 33.708 0 01-.487-.855zM10.912 3.51c.132-.004.265-.003.398-.001.361.56.712 1.126 1.076 1.685 0 .17 0 .34-.003.51a17.09 17.09 0 00-.156-.027c-.309-.46-.592-.937-.898-1.399-.005.52.002 1.04-.003 1.56-.138.003-.277.003-.415 0-.002-.776-.005-1.552 0-2.329zM12.56 3.824c.141-.003.283-.003.424.001v.4a9.972 9.972 0 01-.424.001 26.927 26.927 0 010-.402zM5.58 3.956c.11-.002.222-.002.333 0 .298-.02.595-.015.893.002l-.001.388c-.44.264-.863.557-1.31.81-.131-.05-.232-.155-.339-.243.292-.178.578-.365.873-.539-.15-.007-.3-.006-.448-.008a13.384 13.384 0 01-.002-.41zM9.1 4.11c.136-.005.273-.004.41 0 .003.136.003.273 0 .41a7.307 7.307 0 01-.41 0 8.821 8.821 0 010-.41zM7.093 4.51c.219.332.431.669.653.999.221-.334.435-.673.659-1.005 0 .22.014.442-.005.662-.203.347-.437.675-.656 1.013-.214-.332-.442-.657-.646-.996-.023-.223-.006-.449-.005-.672zM13.153 4.567c.657-.003 1.314-.003 1.971 0v.4c-.657.002-1.314.002-1.971 0v-.4zM9.675 5.087c.132-.002.265-.002.397-.001.007.583 0 1.166.004 1.75-.062.059-.123.118-.183.178-.455.005-.91 0-1.365.002-.06-.057-.122-.112-.176-.174-.023-.179-.006-.361-.006-.54h.38c.004.102.004.205.002.308.313.035.63.01.944.018.001-.514-.004-1.028.003-1.541zM16.027 6.81a69.22 69.22 0 010-1.32 8.77 8.77 0 01.414 0c.004.44.004.88 0 1.32-.138.003-.276.002-.414 0zM14.065 5.822c.26-.003.522-.043.78-.001.17.552.315 1.113.483 1.666h-.4c-.127-.428-.235-.862-.366-1.29l-.22.002c-.109.432-.24.858-.352 1.288h-.403c.165-.553.32-1.11.478-1.665zM2.95 6.033c.598-.004 1.198-.005 1.797 0 .003.137.003.274 0 .412-.6.006-1.199.004-1.798 0a12.922 12.922 0 010-.412zM5.03 6.033h.408a9.57 9.57 0 010 .415c-.136.002-.272.001-.409 0a17.855 17.855 0 010-.414M6.535 6.05l.402.001c.004.32.002.641.002.961-.136.001-.272.002-.407 0-.001-.32-.005-.64.003-.962zM17.008 6.338c.153-.003.308-.003.462-.003.152.282.337.55.45.851-.14.005-.28.006-.42.006-.167-.283-.324-.572-.492-.854zM10.944 6.68h.4c.003.439.001.878.001 1.316l-.402.002.001-1.318zM12.35 7.214a17.726 17.726 0 010-.413 9.94 9.94 0 01.406.002l-.001.411h-.404zM4.74 7.822c.323-.236.668-.441 1-.664.22.002.438 0 .658.003-.326.233-.673.434-1 .664.337.212.667.433 1.002.647-.226.004-.451.002-.677.002-.325-.22-.663-.424-.983-.652zM16.028 7.439c.138-.003.276-.003.415 0 .003.138.003.276-.001.414-.138.003-.276.003-.414 0a9.478 9.478 0 010-.413M1.841 7.496c.69-.004 1.381-.006 2.072 0 .002.131.002.262.002.393-.308.203-.617.406-.934.593-.134-.049-.236-.16-.35-.241.17-.108.344-.212.51-.328-.433-.002-.866.003-1.3-.002a14.354 14.354 0 010-.415zM7.75 7.896c.597.002 1.195-.003 1.792.002.014.136.012.274-.006.409-.595.002-1.19 0-1.785.001a40.49 40.49 0 01-.001-.412zM9.932 7.898c.144-.003.287-.003.43.002v.402a9.486 9.486 0 01-.43.001v-.405zM11.812 8.476c-.02-.141.126-.214.2-.311.176 0 .352-.001.527.002.004.132.004.264.002.397l-.333.004v.94c.516.004 1.032-.001 1.548.004.001.133.001.267-.002.4-.581.004-1.163 0-1.744.002-.074-.097-.216-.17-.198-.31a81.377 81.377 0 010-1.128zM13.768 8.351a6.11 6.11 0 01.428 0v.409a6.097 6.097 0 01-.428 0 18.634 18.634 0 010-.41M15.127 8.351c.6-.008 1.201-.002 1.803-.003l-.001.417c-.6 0-1.201.005-1.802-.003a14.08 14.08 0 010-.41zM6.8 8.83h1.01c.003.14.003.28 0 .42H6.801a5.269 5.269 0 01-.001-.42zM9.021 8.83h1.586c.192-.03.384.17.36.359-.001.388-.002.777 0 1.166l-.205.218c-.175 0-.349 0-.524-.002a20.455 20.455 0 010-.4l.328-.004V9.25c-.513-.046-1.03-.008-1.545-.021a20.765 20.765 0 010-.398zM5.297 8.954c.258-.002.516-.003.774 0 .156.56.324 1.114.472 1.675l-.39.001c-.132-.43-.234-.87-.371-1.298l-.221.016c-.098.431-.238.852-.344 1.282-.134 0-.268 0-.4-.002.159-.558.317-1.117.48-1.674zM16.561 9.458c.45-.004.9-.009 1.35.002.113.07.241.183.217.332 0 .32-.002.641 0 .962-.004.154.003.307-.002.461.007.126-.027.25-.02.375l-.384-.001c.002-.578 0-1.157.001-1.734-.314-.009-.628-.002-.942-.005l-.003.323c-.132.002-.264.002-.396.002-.003-.177-.002-.355-.002-.532.06-.06.121-.122.181-.185zM3.755 9.474h.418v1.317h-.42c.002-.439.001-.878.002-1.317zM2.443 9.841c.138-.002.275.003.411.012.002.13.002.26 0 .39-.138.002-.276.002-.414 0a8.968 8.968 0 01.003-.402zM7.355 12.248c-.003-.776-.004-1.553 0-2.33.136-.002.272-.002.408.001.32.516.65 1.027.977 1.539.141.182.057.426.08.638-.048 0-.096 0-.142.002-.294-.467-.602-.926-.883-1.4-.05.515-.01 1.035-.026 1.553-.138.001-.276.001-.414-.002zM9.17 10.217c.14-.003.278-.003.417 0 .002.338.001.678 0 1.017-.14.003-.278.003-.417 0a66.18 66.18 0 010-1.017zM11.685 10.671c.136-.001.272-.002.408 0 .002.138.002.276 0 .415h-.408a17.897 17.897 0 010-.415zM13.008 10.69c.422-.006.845-.003 1.268-.002.017.123.028.249.016.374-.04.081-.136.049-.208.056-.36-.01-.72.021-1.078-.02a7.971 7.971 0 01.002-.409zM14.713 10.748c.136-.002.274-.011.41.01.013.477.005.955.003 1.433-.138.002-.275.002-.413 0-.004-.481-.005-.962 0-1.443zM10.944 11.03h.4c.002.137.002.275 0 .413-.133.002-.266.002-.4 0a28.429 28.429 0 010-.413zM4.533 11.323c.475-.05.954-.01 1.431-.025a3.21 3.21 0 01.368.016c.002.14.002.278 0 .417-.6-.001-1.198.003-1.797-.002a11.66 11.66 0 01-.002-.405zM1.842 11.63l.196-.19c.173-.002.347-.002.52.001.002.131.002.263.001.394l-.323.004c.002.313-.002.625.002.938.511.002 1.022-.003 1.533.003.002.129.002.257.001.386l-.38.001c-.453-.004-.907.008-1.36-.005a.443.443 0 01-.186-.194c-.012-.445-.002-.892-.004-1.338zM12.44 11.89c.067-.064.136-.128.206-.19.442.003.884 0 1.325.001.067.064.133.128.2.19v1.312c-.134 0-.269 0-.403-.004 0-.367-.003-.734.002-1.102h-.928c0 .112 0 .223-.003.335a21.07 21.07 0 01-.397.002c-.005-.181-.003-.362-.003-.544zM15.275 12.662c.49-.32.985-.63 1.48-.942.117.079.233.161.349.244l-1.066.678c.521.006 1.043 0 1.566.003v.417c-.776.002-1.552.002-2.327 0a17.792 17.792 0 01-.002-.4zM9.73 12.741c.492-.327.999-.63 1.49-.958.117.08.233.163.352.24-.34.239-.701.447-1.047.678.518.009 1.037-.001 1.556.005.004.143.004.286 0 .429-.776.004-1.553.001-2.33.001-.02-.13-.02-.263-.021-.395zM4.625 12.388c.216.33.433.66.646.991.229-.327.434-.67.66-.998.005.222.002.445.004.667-.226.331-.433.675-.665 1.001-.215-.328-.423-.66-.647-.982-.002-.226-.005-.453.002-.679zM6.99 13.235a4.592 4.592 0 01.003-.423c.136-.002.273-.001.408.01.003.137.003.275 0 .413h-.41zM8.913 13.439c.138-.002.276-.002.414 0 .003.512 0 1.025.002 1.538a5.774 5.774 0 00-.294.018l-.125-.023c.003-.51-.002-1.023.003-1.533zM11.762 13.76c.26-.005.52-.001.78-.003l.478 1.675c-.134 0-.268 0-.402-.003-.114-.427-.238-.85-.354-1.277l-.217-.01-.36 1.29-.4-.001c.162-.556.325-1.112.475-1.67zM5.875 14.685c.494-.318.988-.637 1.49-.944.115.08.232.16.346.243-.359.223-.711.458-1.074.675.526.01 1.052-.001 1.578.006.002.139.003.277-.001.415-.78.002-1.558.006-2.337-.002a9.556 9.556 0 01-.002-.393zM9.96 13.842c.146.002.29-.007.434-.026.17.28.37.557.458.876l-.406.002a67.44 67.44 0 00-.485-.852zM15.688 14.013c.142-.005.284-.005.426-.002v.408a6.356 6.356 0 01-.426-.003 10.855 10.855 0 010-.403zM14.644 15.098c.171-.276.355-.543.527-.819.005.204.008.41.003.614.005.077-.05.136-.087.198-.19.281-.372.567-.558.85-.225-.335-.442-.673-.664-1.01 0-.224-.003-.448.003-.671.217.326.423.661.646.984.063-.026.09-.094.13-.146zM4.09 14.701c.364-.012.728-.006 1.092-.003.002.134.01.27-.007.404-.36.018-.723.01-1.085.003a21.698 21.698 0 010-.404zM8.523 15.58c.583-.008 1.165 0 1.748-.004l.2.201c-.002.445-.002.891-.001 1.337l-.174.185c-.186.005-.373.005-.56 0 .003-.127-.013-.255.017-.379.106-.01.211-.007.318-.008v-.935c-.517-.003-1.033.006-1.55-.005 0-.13 0-.261.002-.392zM5.722 15.729c.136-.002.273-.002.41 0v.41a15.15 15.15 0 01-.41 0 15.054 15.054 0 010-.41zM12.935 15.949c.154-.13.294.086.426.15v.049c-.345.222-.698.432-1.035.666l.195-.001c.104 0 .209.001.313.003v.41c-.425.006-.85.004-1.275 0a6.638 6.638 0 01-.01-.385c.453-.31.926-.59 1.386-.892zM6.488 16.327c.552-.002 1.103-.005 1.654.002v.407c-.551.008-1.103.005-1.654.002a12.512 12.512 0 010-.41zM7.957 17.374c.156-.002.31-.002.466.001.144.286.335.55.446.851-.14.008-.278.008-.417.009-.17-.284-.33-.575-.495-.861zM10.71 17.809c.136-.001.271 0 .407.01.002.135.001.271-.016.407h-.388a8.414 8.414 0 01-.003-.417zM9.765 19.158c0-.317-.007-.634.005-.95.136 0 .274.007.41.02v.93c-.139.003-.277.002-.415 0z" fill="#fff"/>
        </g>
        <defs>
            <clipPath id="kqclip0">
                <path fill="#fff" d="M0 0h20v20H0z"/>
            </clipPath>
        </defs>
    </svg>