<svg width="24" height="24" fill="none" viewBox="-2 -2 24 24" id="node" x="446" y="72" xmlns="http://www.w3.org/2000/svg">
        <path d="M3.374 9.03a1.15 1.15 0 101.627 1.627L3.374 9.03zm4.751-3.124l.813-.813a1.15 1.15 0 00-1.626 0l.813.813zm3.938 3.938l-.814.813a1.15 1.15 0 001.711-.095l-.898-.718zm4.897-4.282a1.15 1.15 0 00-1.796-1.437l1.796 1.437zm-14.89 5.1a1.15 1.15 0 10-1.64 1.613l1.64-1.612zm2.805 4.494l-.82.806a1.15 1.15 0 001.696-.061l-.876-.745zM8.406 11l.826-.8a1.15 1.15 0 00-1.702.055l.876.745zm4.031 4.156l-.825.8a1.15 1.15 0 001.746-.11l-.92-.69zm7.234-7.748a1.15 1.15 0 10-1.842-1.378l1.842 1.378zM5 10.657l3.937-3.938-1.626-1.626-3.938 3.938 1.627 1.626zm2.31-3.938l3.938 3.938 1.627-1.626-3.938-3.938L7.312 6.72zm5.65 3.843l4-5-1.796-1.437-4 5 1.796 1.437zM.43 12.275l3.625 3.687 1.64-1.612-3.625-3.687-1.64 1.612zM5.75 15.9l3.532-4.156-1.753-1.49-3.531 4.157L5.75 15.9zm1.83-4.1l4.031 4.156 1.651-1.601-4.031-4.157-1.651 1.602zm5.777 4.044l6.313-8.437-1.842-1.378-6.312 8.437 1.841 1.378z" fill="#465EF1"/>
    </svg>