<svg width="25" height="24" fill="none" viewBox="-2 -2 25 24" id="nok" x="100" y="172" xmlns="http://www.w3.org/2000/svg">
        <g clip-path="url(#ksclip0)">
            <path d="M10.5 20c5.523 0 10-4.477 10-10s-4.477-10-10-10S.5 4.477.5 10s4.477 10 10 10z" fill="#F0F0F0"/>
            <path d="M.844 12.609a10.008 10.008 0 003.569 5.325v-5.325H.844zM9.63 19.962c.287.025.577.038.87.038 4.62 0 8.508-3.134 9.656-7.391H9.63v7.353zM20.156 7.391C19.008 3.134 15.12 0 10.5 0c-.293 0-.583.013-.87.038v7.353h10.526zM4.413 2.066A10.009 10.009 0 00.844 7.391h3.569V2.066z" fill="#D80027"/>
            <path d="M20.415 8.696H8.326V.238c-.924.205-1.8.537-2.609.978v7.48H.585a10.086 10.086 0 000 2.608h5.132v7.48a9.929 9.929 0 002.61.978v-8.458h12.088a10.117 10.117 0 000-2.608z" fill="#0052B4"/>
        </g>
        <defs>
            <clipPath id="ksclip0">
                <path fill="#fff" transform="translate(.5)" d="M0 0h20v20H0z"/>
            </clipPath>
        </defs>
    </svg>