<svg width="24" height="24" fill="none" viewBox="-2 -2 24 24" id="now" x="446" y="96" xmlns="http://www.w3.org/2000/svg">
        <path d="M10 20c5.523 0 10-4.477 10-10S15.523 0 10 0 0 4.477 0 10s4.477 10 10 10z" fill="#202029"/>
        <path d="M3.224 12.102h1.09v-2.036h.022l1.53 2.036h.885V8.236h-1.09v2.004h-.022L4.121 8.236h-.897v3.866z" fill="#1AF296"/>
        <path fill-rule="evenodd" clip-rule="evenodd" d="M11.35 10.17c0-1.235-.766-2.001-1.981-2.001-1.216 0-1.982.766-1.982 2.001 0 1.235.763 1.999 1.982 1.999 1.215 0 1.981-.764 1.981-1.999zm-2.786 0c0-.67.322-1.096.805-1.096.482 0 .804.426.804 1.096 0 .667-.32 1.093-.804 1.093-.486 0-.805-.426-.805-1.093z" fill="#1AF296"/>
        <path d="M13.926 12.102l.586-2.213h.022l.586 2.213h1.09l1.014-3.866h-1.193l-.453 2.443h-.022l-.586-2.443h-.894l-.586 2.443h-.021l-.453-2.443h-1.194l1.014 3.866h1.09z" fill="#1AF296"/>
    </svg>