<svg width="24" height="24" fill="none" viewBox="-2 -2 24 24" id="npxs" x="446" y="120" xmlns="http://www.w3.org/2000/svg">
        <path d="M10 20c5.523 0 10-4.477 10-10S15.523 0 10 0 0 4.477 0 10s4.477 10 10 10z" fill="#181818"/>
        <path d="M10.456 8.8l3.976-3.984.808.816-3.976 3.976-.808-.808zm-5.704 5.696l3.984-3.984.808.816-3.976 3.976-.816-.808zm5.704-3.168l.808-.816 3.984 3.984-.816.808-3.976-3.976zM4.752 5.632l.816-.816 3.976 3.976-.808.816-3.984-3.976zm4.432 4.424L10 9.24l.816.816-.816.816-.816-.816z" fill="#F6D30C"/>
    </svg>