<svg width="24" height="24" fill="none" viewBox="-2 -2 24 24" id="nxm" x="446" y="192" xmlns="http://www.w3.org/2000/svg">
        <path d="M10 20c5.523 0 10-4.477 10-10S15.523 0 10 0 0 4.477 0 10s4.477 10 10 10z" fill="#20262E"/>
        <path d="M4.648 9.06c-.516.004-1.03.426-1.033 1.034a1.038 1.038 0 001.029 1.026 1.027 1.027 0 001.033-1.029c.022-.553-.484-1.036-1.029-1.031zM11.056 4.61a1.021 1.021 0 01-1.038 1.027A1.042 1.042 0 018.988 4.6c.002-.56.478-1.04 1.04-1.03.563.01 1.03.431 1.028 1.04zM9.106 15.447a1.018 1.018 0 011.045-1.016 1.014 1.014 0 011.014 1.04 1.028 1.028 0 01-1.056 1.023c-.53-.015-1.021-.454-1.003-1.047zM15.504 8.95a1.02 1.02 0 00-1.026 1.035 1.03 1.03 0 001.025 1.024c.602.01 1.055-.526 1.03-1.03a1.015 1.015 0 00-1.029-1.028z" fill="#fff"/>
        <path fill-rule="evenodd" clip-rule="evenodd" d="M17.791 8.875c-.48-.946-1.272-1.435-2.335-1.43-.762.002-1.393.323-1.894.902-.334.385-.77.526-1.262.42-.503-.108-.848-.427-.982-.928-.143-.529.006-.987.415-1.354a2.554 2.554 0 00.634-2.862c-.522-1.22-1.872-1.853-3.126-1.431-.928.312-1.52.965-1.706 1.931-.18.938.102 1.747.816 2.387.379.34.55.745.475 1.246a1.298 1.298 0 01-1.56 1.066c-.31-.064-.547-.239-.761-.464a2.525 2.525 0 00-2.925-.571 2.525 2.525 0 00-1.379 2.96c.278.978.928 1.604 1.914 1.82.968.211 1.803-.086 2.462-.832a1.323 1.323 0 011.088-.474c.807.023 1.485.876 1.14 1.791-.08.216-.234.375-.387.533-.042.043-.083.085-.123.13-.634.695-.85 1.507-.608 2.414A2.512 2.512 0 0010.12 18c.659.002 1.24-.212 1.719-.663.73-.688.979-1.53.75-2.51-.127-.54-.444-.96-.835-1.337-.421-.408-.557-.895-.347-1.447.365-.964 1.593-1.074 2.17-.42.698.792 1.58 1.066 2.606.802 1.513-.39 2.315-2.156 1.607-3.549zM4.748 11.584a1.487 1.487 0 01-1.591-1.371 1.494 1.494 0 011.457-1.62c.836-.017 1.505.624 1.53 1.474a1.486 1.486 0 01-1.396 1.517zm3.778-7c.021-.854.705-1.5 1.56-1.473.803.024 1.46.72 1.434 1.522a1.489 1.489 0 01-1.54 1.464 1.49 1.49 0 01-1.454-1.514zm3.106 10.877a1.494 1.494 0 01-1.51 1.496 1.49 1.49 0 01-1.484-1.494 1.485 1.485 0 011.507-1.495c.818 0 1.485.67 1.487 1.493zm3.88-3.984A1.501 1.501 0 0114.01 9.97a1.5 1.5 0 011.516-1.49 1.49 1.49 0 011.475 1.53 1.497 1.497 0 01-1.489 1.466z" fill="#fff"/>
    </svg>