<svg width="25" height="24" fill="none" viewBox="-2 -2 25 24" id="nzd" x="125" y="172" xmlns="http://www.w3.org/2000/svg">
        <g clip-path="url(#kyclip0)">
            <path d="M20.882 10c0 5.523-4.477 10-10 10-5.522 0-10-4.477-10-10 0 .002 10-9.999 10-10 5.523 0 10 4.477 10 10z" fill="#0868DA"/>
            <path d="M10.882 5.217V0h-.001C5.359 0 .882 4.478.882 10H6.1V7.062L9.038 10h1.818l.026-.027V8.155L7.944 5.217h2.938z" fill="#F0F0F0"/>
            <path d="M5.941 1.304A10.048 10.048 0 002.187 5.06V10h2.608V3.913h6.087V1.304h-4.94z" fill="#D80027"/>
            <path d="M10.882 8.77L7.33 5.217H6.1L10.883 10V8.77zM18.2 7.42l.216.665h.698l-.565.41.216.664-.565-.41-.565.41.215-.664-.565-.41h.699l.216-.665zM15.703 12.203l.324.996h1.047l-.847.616.324.997-.848-.616-.848.616.324-.997-.848-.616h1.048l.324-.996zM15.797 4.377l.27.83h.873l-.706.513.27.83-.707-.513-.706.514.27-.83-.707-.514h.873l.27-.83zM13.395 7.391l.324.997h1.047l-.847.616.323.996-.847-.616-.848.616.324-.996-.848-.616h1.048l.324-.997z" fill="#D80027"/>
        </g>
        <defs>
            <clipPath id="kyclip0">
                <path fill="#fff" transform="translate(.882)" d="M0 0h20v20H0z"/>
            </clipPath>
        </defs>
    </svg>