<svg width="24" height="24" fill="none" viewBox="-2 -2 24 24" id="ocean" x="446" y="216" xmlns="http://www.w3.org/2000/svg">
        <circle cx="10" cy="10" r="10" fill="#fff"/>
        <path fill-rule="evenodd" clip-rule="evenodd" d="M4.046 9.593a.86.86 0 11-1.72 0 .86.86 0 011.72 0zm13.675 0a.86.86 0 11-1.721 0 .86.86 0 011.72 0zm-6.837 3.395a.86.86 0 11-1.722 0 .86.86 0 011.722 0zm-3.442-1.674a.86.86 0 11-1.721 0 .86.86 0 011.72 0zm6.837 0a.86.86 0 11-1.721 0 .86.86 0 011.721 0zm-10.512.884a.581.581 0 11-1.162 0 .581.581 0 011.162 0zm13.675 0a.582.582 0 11-1.164-.001.582.582 0 011.164 0zm-6.837 3.441a.582.582 0 11-1.164 0 .582.582 0 011.164 0zm-3.442-1.72a.581.581 0 11-1.163 0 .581.581 0 011.163 0zm6.837 0a.581.581 0 11-1.163 0 .581.581 0 011.163 0zm-10.512.325a.302.302 0 11-.604 0 .302.302 0 01.604 0zm13.675 0a.302.302 0 11-.605 0 .302.302 0 01.605 0zm-6.838 3.442a.303.303 0 11-.605 0 .303.303 0 01.605 0zm-3.441-1.721a.303.303 0 11-.605 0 .303.303 0 01.605 0zm6.837 0a.302.302 0 11-.605 0 .302.302 0 01.605 0zm-2.558-13a1.163 1.163 0 11-2.326 0 1.163 1.163 0 012.326 0zm0 3.442a1.163 1.163 0 11-2.326 0 1.163 1.163 0 012.326 0zm0 3.395a1.163 1.163 0 11-2.326 0 1.163 1.163 0 012.326 0zM18 6.407a1.163 1.163 0 11-2.326 0 1.163 1.163 0 012.326 0zm-13.674 0a1.163 1.163 0 11-2.326 0 1.163 1.163 0 012.326 0zm3.441-1.721a1.163 1.163 0 11-2.325 0 1.163 1.163 0 012.325 0zm0 3.395a1.163 1.163 0 11-2.325 0 1.163 1.163 0 012.325 0zm6.838-3.395a1.163 1.163 0 11-2.326 0 1.163 1.163 0 012.326 0zm0 3.395a1.163 1.163 0 11-2.326 0 1.163 1.163 0 012.326 0z" fill="#141414"/>
    </svg>