<svg width="24" height="24" fill="none" viewBox="-2 -2 24 24" id="ogn" x="446" y="240" xmlns="http://www.w3.org/2000/svg">
        <circle cx="10" cy="10" r="10" fill="#3A84F7"/>
        <path d="M3.714 8.893a6.286 6.286 0 0111.823-2.979l.003.004h-.001l.004.009L13.31 8.16a.39.39 0 00-.002-.01L7.84 13.616a3.39 3.39 0 005.55-2.612V8.932l2.426-2.426c.303.736.47 1.542.47 2.387v2.214a6.286 6.286 0 01-11.816 2.99l4.73-4.73-.012-.012 3.027-3.028A3.39 3.39 0 006.61 8.893v2.112c0 .033 0 .066.002.099L4.194 13.52a6.267 6.267 0 01-.48-2.414V8.893z" fill="#fff"/>
    </svg>