<svg width="25" height="24" fill="none" viewBox="-2 -2 25 24" id="okb" x="150" y="172" xmlns="http://www.w3.org/2000/svg">
        <g clip-path="url(#lbclip0)">
            <circle cx="10.11" cy="10" r="10" fill="#fff"/>
            <path d="M9.213 9.082a3.86 3.86 0 001.836 0 3.866 3.866 0 012.832-2.831 3.86 3.86 0 10-7.5 0 3.865 3.865 0 012.832 2.831z" fill="#7ABDF7"/>
            <path d="M11.05 10.918a3.86 3.86 0 00-1.837 0 3.866 3.866 0 01-2.831 2.831 3.86 3.86 0 107.5 0 3.866 3.866 0 01-2.832-2.831z" fill="#0D74F5"/>
            <path d="M14.799 6.14c-.31 0-.618.037-.918.11a3.864 3.864 0 01-2.831 2.831 3.86 3.86 0 000 1.837 3.865 3.865 0 012.831 2.831 3.86 3.86 0 10.918-7.61z" fill="#4494F7"/>
            <path d="M9.213 10.918a3.86 3.86 0 000-1.837 3.865 3.865 0 01-2.831-2.83 3.86 3.86 0 100 7.499 3.866 3.866 0 012.831-2.832z" fill="#005CF4"/>
            <path d="M11.049 10.918a3.867 3.867 0 002.832 2.832 3.869 3.869 0 00-2.832-2.832z" fill="#0246F2"/>
            <path d="M11.049 9.086a3.867 3.867 0 012.832-2.833 3.868 3.868 0 01-2.832 2.833z" fill="#186EF9"/>
            <path d="M9.214 10.918a3.867 3.867 0 01-2.832 2.832 3.868 3.868 0 012.832-2.832z" fill="#0729F1"/>
            <path d="M9.214 9.086a3.867 3.867 0 00-2.832-2.833 3.868 3.868 0 002.832 2.833z" fill="#0046F8"/>
        </g>
        <defs>
            <clipPath id="lbclip0">
                <path fill="#fff" transform="translate(.13)" d="M0 0h20v20H0z"/>
            </clipPath>
        </defs>
    </svg>