<svg width="24" height="24" fill="none" viewBox="-2 -2 24 24" id="omg" x="446" y="288" xmlns="http://www.w3.org/2000/svg">
        <path d="M10 20c5.523 0 10-4.477 10-10S15.523 0 10 0 0 4.477 0 10s4.477 10 10 10z" fill="#1A53F0"/>
        <path d="M7.41 10.806a2.72 2.72 0 00-1.923 4.646 2.72 2.72 0 003.846 0 2.721 2.721 0 00-1.923-4.646zm0 4.62a1.897 1.897 0 111.896-1.897 1.9 1.9 0 01-1.896 1.898zM13.219 5a2.721 2.721 0 102.513 3.763A2.722 2.722 0 0013.218 5zm0 4.62a1.897 1.897 0 111.895-1.897 1.9 1.9 0 01-1.895 1.898zM7.41 5a2.724 2.724 0 00-1.06 5.231 2.72 2.72 0 003.77-2.743 2.725 2.725 0 00-.762-1.665h.77V5H7.41zm1.896 2.722a1.897 1.897 0 11-3.795.001 1.897 1.897 0 013.796-.001z" fill="#fff"/>
    </svg>