<svg width="24" height="24" fill="none" viewBox="-2 -2 24 24" id="orai" x="446" y="408" xmlns="http://www.w3.org/2000/svg">
        <path d="M10 20c5.523 0 10-4.477 10-10S15.523 0 10 0 0 4.477 0 10s4.477 10 10 10z" fill="#fff"/>
        <path fill-rule="evenodd" clip-rule="evenodd" d="M8.325.157A9.992 9.992 0 00.156 8.325H3.22a6.995 6.995 0 015.106-5.106V.157zm3.35 3.062V.156a9.992 9.992 0 018.169 8.169H16.78a6.995 6.995 0 00-5.106-5.106zm0 13.562a6.995 6.995 0 005.106-5.106h3.063a9.992 9.992 0 01-8.17 8.169V16.78zm-8.456-5.106a6.995 6.995 0 005.106 5.106v3.063a9.992 9.992 0 01-8.169-8.169H3.22z" fill="#4BACE9"/>
        <path fill="#3372E8" d="M6.369 6.369h7.261v7.261H6.369z"/>
    </svg>