<svg width="24" height="24" fill="none" viewBox="-2 -2 24 24" id="oro" y="436" xmlns="http://www.w3.org/2000/svg">
        <path d="M10 20c5.523 0 10-4.477 10-10S15.523 0 10 0 0 4.477 0 10s4.477 10 10 10z" fill="#fff"/>
        <path d="M10.456 6.782a2.767 2.767 0 112.767 2.767H6.778a3.67 3.67 0 103.669 3.669v-.43l.75.75.638-.64L10 11.066l-1.834 1.834.638.638.74-.74v.421a2.767 2.767 0 11-2.766-2.767h6.445a3.67 3.67 0 10-3.67-3.669v.43l-.749-.75-.638.64L10 8.934l1.835-1.834-.639-.638-.74.74v-.421z" fill="#000"/>
    </svg>