<svg width="25" height="24" fill="none" viewBox="-2 -2 25 24" id="ost" x="175" y="172" xmlns="http://www.w3.org/2000/svg">
        <g clip-path="url(#llclip0)">
            <path d="M10.772 20c5.523 0 10-4.477 10-10s-4.477-10-10-10-10 4.477-10 10 4.477 10 10 10z" fill="#34445B"/>
            <path d="M10.733 6.389l1.256-1.96a1.269 1.269 0 00.519-2.482 1.269 1.269 0 00-1.275 2L9.674 6.38a4.975 4.975 0 00-2.667 8.8 4.978 4.978 0 008.109-4.335 4.98 4.98 0 00-4.383-4.455zm-.572 7.576a2.638 2.638 0 01-1.868-4.507 2.637 2.637 0 013.369-.304c.441.305.779.737.968 1.24a1.527 1.527 0 00-2.719.742 1.525 1.525 0 002.714 1.13 2.634 2.634 0 01-2.464 1.699z" fill="#fff"/>
            <path d="M10.733 6.389l1.256-1.96a1.269 1.269 0 00.519-2.482 1.269 1.269 0 00-1.275 2L9.674 6.38a4.975 4.975 0 00-2.667 8.8 4.978 4.978 0 008.109-4.335 4.98 4.98 0 00-4.383-4.455zm-.572 7.576a2.638 2.638 0 01-1.868-4.507 2.637 2.637 0 013.369-.304c.441.305.779.737.968 1.24a1.527 1.527 0 00-2.719.742 1.525 1.525 0 002.714 1.13 2.634 2.634 0 01-2.464 1.699z" fill="#fff"/>
        </g>
        <defs>
            <clipPath id="llclip0">
                <path fill="#fff" transform="translate(.772)" d="M0 0h20v20H0z"/>
            </clipPath>
        </defs>
    </svg>