<svg width="24" height="24" fill="none" viewBox="-2 -2 24 24" id="oxt" x="24" y="436" xmlns="http://www.w3.org/2000/svg">
        <path d="M10 20c5.523 0 10-4.477 10-10S15.523 0 10 0 0 4.477 0 10s4.477 10 10 10z" fill="#5F45B9"/>
        <path fill-rule="evenodd" clip-rule="evenodd" d="M6.391 5.844a.716.716 0 11-1.23-.731.716.716 0 011.23.73zM3.948 5.526a.506.506 0 11-.87-.517.506.506 0 01.87.517zM14.36 6.593a5.65 5.65 0 00-3.91-1.915 5.72 5.72 0 00-1.101.038c-.127.01-.249.027-.366.047l-.107.014.01.004a4.719 4.719 0 00-.932.285l-.003.002c-.578.282-.896.75-.896 1.317 0 .781.636 1.417 1.417 1.417.163 0 .668-.17.673-.172a2.856 2.856 0 011.13-.155c.984.062 1.86.616 2.34 1.48l.001.002a2.887 2.887 0 01-2.705 4.276 2.862 2.862 0 01-2.211-1.27v-.002l-.017-.022-.115-.173c-.393-.673-.342-1.6-.326-1.792l.001-.019v-.007a1.414 1.414 0 00-1.418-1.37c-.639 0-1.202.432-1.37 1.05a2.621 2.621 0 00-.043.496c-.126 3.064 2.263 5.715 5.324 5.907a5.522 5.522 0 00.995-.026h.001l.482-.056-.033-.013a5.68 5.68 0 004.589-5.224 5.651 5.651 0 00-1.41-4.119z" fill="#fff"/>
        <path fill-rule="evenodd" clip-rule="evenodd" d="M5.646 7.83a.928.928 0 11-1.597-.947.928.928 0 011.597.948z" fill="#fff"/>
    </svg>