<svg width="24" height="24" fill="none" viewBox="-2 -2 24 24" id="pax" x="48" y="436" xmlns="http://www.w3.org/2000/svg">
        <path d="M4.545 17.115a6.79 6.79 0 004.706 2.3 4.278 4.278 0 002.835-1.284 49.306 49.306 0 014.652-3.529l.91-.374c.373-.16 1.015-.535 1.603-1.23.642-.856.749-1.765.749-2.086a5.882 5.882 0 00-.963-2.834 17.755 17.755 0 01-14.492 9.037z" fill="#0293D6"/>
        <path d="M6.578 1.928A4.278 4.278 0 019.679.591a2.78 2.78 0 012.032.696 9.305 9.305 0 005.24 1.71c.482.054 1.445.215 2.086 1.017.482.642.535 1.337.535 1.658a7.433 7.433 0 01-.535 2.406l-12.46-6.15z" fill="#EBE638"/>
        <path d="M4.545 17.115c-.48-.053-1.123-.214-1.871-.534-.749-.321-1.658-.696-2.246-1.712C.053 14.228 0 13.586 0 13.16a7.38 7.38 0 01.802-3.263 15.08 15.08 0 001.016-3.904l.268-1.07c.16-.534.267-1.069.641-1.603l.589-.642a5.08 5.08 0 013.262-.749 16.685 16.685 0 00-2.033 15.187z" fill="#BAD147"/>
        <path d="M6.578 1.928c-.054 0 2.887.16 4.705.802l1.498.642c-.588-.053-4.332-.214-7.166 2.62-3.583 3.637-2.406 8.61-2.353 8.877a5.454 5.454 0 01-1.176-3.69 12.834 12.834 0 014.492-9.25z" fill="#78B650"/>
        <path d="M13.743 15.137a10.695 10.695 0 00-.962-11.765 7.326 7.326 0 014.064 2.14 10.15 10.15 0 012.192 2.566 15.775 15.775 0 01-5.294 7.059z" fill="#2F8260"/>
        <path d="M15.454 5.725c-.855-1.444-2.085-2.085-2.62-2.353-.428-.107-4.438-.748-7.486 2.193-2.46 2.353-2.62 5.4-2.62 5.989a9.145 9.145 0 001.924 5.562c1.59.306 3.224.306 4.813 0 .802-.16 2.674-.482 4.278-1.872.214-.214 2.567-2.407 2.728-5.883 0-.588 0-2.085-1.017-3.636zM13.53 13.48a5.295 5.295 0 01-3.903 1.711c-.321 0-2.46-.053-3.958-1.818-.213-.267-1.283-1.55-1.23-3.476.107-2.567 2.14-4.064 2.567-4.385a4.806 4.806 0 012.62-.909c.322-.053 1.444-.107 2.568.535 2.46 1.337 2.566 4.545 2.566 4.76 0 .588 0 2.192-1.23 3.582z" fill="#085229"/>
    </svg>