<svg width="24" height="24" fill="none" viewBox="-2 -2 24 24" id="pay" x="72" y="436" xmlns="http://www.w3.org/2000/svg">
        <path d="M10 20c5.523 0 10-4.477 10-10S15.523 0 10 0 0 4.477 0 10s4.477 10 10 10z" fill="#fff"/>
        <path d="M18.04 9.776a.837.837 0 00-.159-.221c-1.401-1.587-4.254-4.713-4.254-4.713l-3.623 3.963-3.67-3.926s-2.886 3.153-4.3 4.758c-.184.181-.184.508-.02.701.736.837 4.344 4.817 4.344 4.817l3.64-3.99 3.616 3.993 4.36-4.823s.092-.096.112-.16a.547.547 0 00-.046-.399zm-13.996.441c-.118-.139-.078-.358.032-.49.461-.525 2.307-2.505 2.307-2.505l2.572 2.73L6.38 12.77s-1.577-1.683-2.335-2.553zm11.782.093c-.054.093-.117.18-.189.262l-1.997 2.17L11.061 10 13.6 7.218s1.462 1.514 2.132 2.329c.057.07.124.138.153.227.06.177.022.373-.059.536" fill="#302C2C"/>
    </svg>