<svg width="24" height="24" fill="none" viewBox="-2 -2 24 24" id="perl" x="96" y="436" xmlns="http://www.w3.org/2000/svg">
        <g clip-path="url(#lqclip0)" fill-rule="evenodd" clip-rule="evenodd">
            <path d="M9.486.486v.43c.15-.06.292-.141.42-.24-.143 0-.286-.19-.43-.19h.01z" fill="#000"/>
            <path d="M9.994.517c-.153 0-.312-.025-.458-.028h-.047a9.523 9.523 0 00-4.914 17.336 2.93 2.93 0 01-.963-2.181 2.967 2.967 0 012.948-2.949l.589-.018v-.128a2.926 2.926 0 012.929-2.93 2.93 2.93 0 012.674 1.727A5.952 5.952 0 009.994.517z" fill="#B4E1FF"/>
            <path d="M10.305.486c5.148.623 6.74 4.403 6.744 7.816 0 3.49-2.933 6.036-5.497 6.709-.957.235-1.927.41-2.905.523l-.39.047a1.913 1.913 0 00-1.295 3.005c.23.324.556.57.931.7.134.031.271.056.412.084a9.766 9.766 0 001.692.15A9.52 9.52 0 0010.308.486h-.003z" fill="#90D595"/>
            <path d="M10.305.486h-.769c.155 0 .311.016.458.031a5.949 5.949 0 012.758 10.835 2.93 2.93 0 00-5.61 1.203v.125l-.592.022a2.945 2.945 0 00-1.975 5.123 9.302 9.302 0 003.319 1.458 1.914 1.914 0 01.364-3.702l.39-.043a24.299 24.299 0 002.904-.527c2.565-.676 5.5-3.22 5.497-6.71 0-3.427-1.596-7.204-6.744-7.815z" fill="#fff"/>
            <path d="M13.088 11.695l-.343-.343.343.343z" fill="#000"/>
            <path d="M9.997 0h-.502a9.997 9.997 0 00-5.204 18.193c.183.163.383.307.595.43a.495.495 0 00.172.053c.847.484 1.762.84 2.714 1.056.154.054.314.09.477.11.578.102 1.164.154 1.75.155A10.001 10.001 0 109.998 0zm-3.74 18.227a8.879 8.879 0 01-1.424-.807 2.471 2.471 0 011.73-4.245c.193 0 .414 0 .598-.018a.48.48 0 00.458-.477v-.125a2.455 2.455 0 014.696-1.006.474.474 0 00.624.24 6.407 6.407 0 002.138-8.327c1.27 1.649 1.483 3.684 1.483 4.833 0 3.179-2.65 5.59-5.142 6.233-1.067.255-2.15.442-3.241.558a2.4 2.4 0 00-2.06 2.368c.005.256.05.509.131.751l.01.022zM.96 10A9.037 9.037 0 019.635.963a5.466 5.466 0 013.266 9.66A3.407 3.407 0 006.694 12.2h-.15a3.428 3.428 0 00-3.428 3.428c0 .084 0 .165.019.25A8.997 8.997 0 01.954 10H.96zm9.037 9.037a9.062 9.062 0 01-1.988-.227 1.437 1.437 0 01.296-2.764 26.4 26.4 0 003.368-.586c2.836-.745 5.853-3.512 5.85-7.168a8.93 8.93 0 00-1.278-4.83 9.037 9.037 0 01-6.233 15.581l-.015-.006z" fill="#41474E"/>
        </g>
        <defs>
            <clipPath id="lqclip0">
                <path fill="#fff" d="M0 0h20v20H0z"/>
            </clipPath>
        </defs>
    </svg>