<svg width="24" height="24" fill="none" viewBox="-2 -2 24 24" id="petg" x="120" y="436" xmlns="http://www.w3.org/2000/svg">
        <circle cx="10" cy="10" r="10" fill="#1A1720"/>
        <path d="M2.655 10.247V12H1.629V7.023h1.942c.373 0 .702.069.984.206.285.136.504.331.656.584.153.25.23.537.23.858 0 .488-.168.873-.503 1.155-.333.28-.794.42-1.384.42h-.9zm0-.831h.916c.271 0 .477-.064.618-.191.144-.128.216-.31.216-.547 0-.244-.072-.441-.216-.592-.143-.15-.341-.227-.594-.232h-.94v1.562zm6.487.427H7.173v1.333h2.31V12H6.149V7.023h3.33v.831H7.172V9.04h1.97v.803zM13.9 7.854h-1.524V12H11.35V7.854H9.846v-.83H13.9v.83z" fill="#EE9A00"/>
        <path d="M18.425 11.371c-.184.221-.445.393-.782.516-.338.121-.711.181-1.122.181-.43 0-.808-.093-1.134-.28a1.905 1.905 0 01-.752-.82c-.176-.358-.266-.778-.27-1.261v-.339c0-.497.083-.926.25-1.288a1.86 1.86 0 01.724-.834c.317-.194.687-.29 1.11-.29.59 0 1.052.14 1.385.423.333.28.53.69.591 1.227h-.998c-.045-.285-.147-.493-.304-.626-.155-.132-.37-.198-.643-.198-.348 0-.614.131-.796.393-.182.262-.274.652-.277 1.17v.317c0 .522.1.916.298 1.183.198.266.488.4.871.4.385 0 .66-.082.824-.246v-.858h-.933v-.756h1.958v1.986z" fill="#05CCF3"/>
    </svg>