<svg width="25" height="24" fill="none" viewBox="-2 -2 25 24" id="php" x="25" y="196" xmlns="http://www.w3.org/2000/svg">
        <g clip-path="url(#lsclip0)">
            <path d="M10.5 20c5.523 0 10-4.477 10-10s-4.477-10-10-10S.5 4.477.5 10s4.477 10 10 10z" fill="#F0F0F0"/>
            <path d="M10.5 0v10l-7.071 7.071A9.969 9.969 0 0010.5 20c5.523 0 10-4.477 10-10s-10-10-10-10z" fill="#D80027"/>
            <path d="M10.5 0a9.969 9.969 0 00-7.071 2.929L10.5 10h10c0-5.523-4.477-10-10-10z" fill="#0052B4"/>
            <path d="M7.347 10l-1.22-.575.65-1.182-1.327.253-.168-1.34-.923.986-.924-.985-.168 1.34-1.326-.254.65 1.182L1.37 10l1.22.574-.65 1.183 1.327-.253.168 1.34.924-.986.923.985.168-1.34 1.326.254-.65-1.183L7.347 10zM3.167 3.913l.406.568.666-.21-.415.561.407.568-.663-.22-.415.562.006-.699-.663-.22.666-.212.005-.698zM3.167 14.258l.406.568.666-.21-.415.562.407.568-.663-.221-.415.562.006-.699-.663-.22.666-.211.005-.699zM8.964 9.086l-.407.568-.666-.211.415.562-.406.568.662-.22.415.561-.005-.698.663-.221-.666-.21-.005-.7z" fill="#FFDA44"/>
        </g>
        <defs>
            <clipPath id="lsclip0">
                <path fill="#fff" transform="translate(.5)" d="M0 0h20v20H0z"/>
            </clipPath>
        </defs>
    </svg>