<svg width="24" height="24" fill="none" viewBox="-2 -2 24 24" id="pickle" x="144" y="436" xmlns="http://www.w3.org/2000/svg">
        <path fill-rule="evenodd" clip-rule="evenodd" d="M17.377 1.922c1.894 1.432 1.84 4.01.407 5.904-1.452 1.92-4.69 6.18-9.654 10.088a4.3 4.3 0 01-5.32-6.758c4.286-3.374 7.86-6.616 8.95-8.058 1.432-1.895 3.722-2.609 5.617-1.176z" fill="#4A9E30"/>
        <path d="M13.78 8.64c3.909-3.366 4.117-5.52 3.732-6.175l1.222 1.221v2.715l-3.325 4.75-6.515 6.243c-.385.588-1.819 1.656-4.479 1.222-2.66-.435-3.099-2.896-2.986-4.072 1.561 2.036 2.85 1.697 4.343 1.086 1.493-.611 3.122-2.783 8.008-6.99z" fill="#387825"/>
        <path fill-rule="evenodd" clip-rule="evenodd" d="M14.252.665c1.166-.28 2.4-.06 3.495.767 2.25 1.7 2.093 4.692.527 6.764-1.458 1.928-4.736 6.242-9.764 10.201a4.915 4.915 0 01-6.08-7.723 112.731 112.731 0 005.642-4.728c1.566-1.413 2.692-2.55 3.198-3.219C12.056 1.688 13.1.94 14.252.665zm.286 1.195c-.825.197-1.641.753-2.288 1.608-.584.773-1.79 1.978-3.355 3.39a113.93 113.93 0 01-5.705 4.78 3.686 3.686 0 104.56 5.793c4.899-3.856 8.098-8.064 9.544-9.976 1.298-1.717 1.251-3.88-.288-5.043-.8-.605-1.658-.746-2.468-.552z" fill="#000"/>
    </svg>