<svg width="24" height="24" fill="none" viewBox="-2 -2 24 24" id="pit" x="168" y="436" xmlns="http://www.w3.org/2000/svg">
        <circle cx="10" cy="10" r="9.75" fill="#fff" stroke="#000" stroke-width=".5"/>
        <path d="M10.542 9.977c.308.065.773.282 1.066.497.48.353 1.03 1.057 1.374 1.764.232.474.307.773.307 1.213 0 .305-.015.385-.113.577-.254.503-.859.545-1.757.124-.606-.283-1.021-.615-1.147-.916-.13-.314-.05-.563.31-.96.297-.328.362-.555.205-.712-.072-.072-.143-.08-.743-.08s-.67.008-.742.08c-.157.157-.092.384.205.712.36.397.44.646.31.96-.126.3-.541.633-1.147.916-.898.421-1.503.379-1.758-.124-.097-.192-.113-.272-.113-.577 0-.44.076-.739.307-1.213.82-1.68 2.126-2.54 3.436-2.261z" fill="#fff"/>
        <path d="M9.423 12.054c-.444-.082-.527-1.205-.534-1.849-.822.247-1.726 1.8-2.075 2.547-.096.308-.123.932.534.965.822.041 2.63-1.56 2.075-1.663zM10.675 12.054c.444-.082.528-1.205.534-1.849.822.247 1.726 1.8 2.075 2.547.096.308.123.932-.534.965-.822.041-2.629-1.56-2.075-1.663z" fill="#A0A0A0"/>
        <path d="M10.19 13.579c.067.07.254.228.416.349.163.12.307.239.321.262.056.09-.036.217-.22.3-.158.071-.27.086-.663.086-.392 0-.505-.015-.663-.086-.184-.083-.276-.21-.22-.3.014-.023.159-.141.32-.262.163-.121.35-.278.417-.35a.607.607 0 01.146-.128c.014 0 .08.058.146.129z" fill="#fff"/>
        <path d="M9.298 14.23c-.083-.032-.076-.136-.062-.184v-.144l.78-.616.945.842c.007.185-.02.497-.185.267-.164-.23-.479-.287-.616-.287-.253.054-.78.156-.862.123z" fill="#A0A0A0"/>
        <path d="M5.813 4.084c.44.222 1.106.702 1.783 1.285l.16.139-.148.092c-.54.333-1.013.962-1.11 1.474l-.026.135.215-.218a3.006 3.006 0 011.031-.671c1.41-.574 3.242-.574 4.652 0a3.05 3.05 0 011.03.67l.216.216-.026-.133c-.095-.49-.524-1.081-1.03-1.419a2.902 2.902 0 01-.216-.15c0-.005.153-.138.34-.296.527-.449 1.11-.867 1.492-1.07.717-.38 1.245-.253 1.542.375.167.354.214.635.188 1.133-.043.859-.37 1.53-.97 1.996l-.239.185.034.172c.018.095.054.427.08.738.099 1.21-.136 2.39-.614 3.085-.144.209-.534.602-.598.6-.024 0-.135-.18-.248-.4a6.211 6.211 0 00-.458-.736l-.252-.336.15-.026a.997.997 0 00.252-.081l.102-.056-.123-.03c-.154-.037-.499-.207-.533-.264-.017-.026.068-.042.233-.043.327-.002.638-.108.745-.253.078-.106.079-.12.017-.278-.076-.193-.045-.207.186-.083.135.072.153.074.153.015 0-.197-.336-.513-.633-.595-.229-.063-.387.01-.772.36-.187.17-.392.335-.454.368-.108.056-.123.052-.33-.104-.456-.345-.942-.496-1.59-.496-.648 0-1.134.151-1.59.496-.207.156-.222.16-.33.104a3.876 3.876 0 01-.454-.368c-.385-.35-.543-.423-.772-.36-.297.082-.633.398-.633.595 0 .06.018.057.153-.015.231-.124.262-.11.186.083-.062.157-.06.172.017.277.107.146.418.252.745.254.165.001.25.017.233.043-.034.056-.379.227-.533.264l-.123.03.102.056c.057.03.17.067.253.081l.15.026-.253.336a6.208 6.208 0 00-.458.736c-.113.22-.225.4-.248.4-.064.002-.454-.391-.598-.6-.478-.695-.713-1.875-.614-3.085.026-.31.062-.643.08-.738l.034-.172-.238-.185a2.92 2.92 0 01-.412-.403c-.816-1.027-.745-2.862.127-3.256.231-.104.621-.062.945.101z" fill="#E0E0E0"/>
        <path d="M4.298 6.426c.082-.404.362-1.306.822-1.684.075-.062 2.485 1.581 2.547 1.581-.493.863-.555 3.122 2.361 3.122 2.917 0 2.855-2.259 2.362-3.122.062 0 2.472-1.643 2.547-1.581.46.378.74 1.28.822 1.684v.493l-.555.801-.267.329.103 1.396-.103 1.007-.205.821-.37.72h-.329c-.074-.376-.297-1.171-.59-1.374-.005 0-.007-.001-.005-.003l.005.003c.047.001.398-.107.324-.742-.012-.096-.445-.322-.637-.432l-.514.185-.328.329-.37.267h-.39l-.78-.35-.72-.143-.718.144-.78.349h-.391l-.37-.267-.328-.329-.514-.185c-.191.11-.625.336-.636.432-.075.635.276.743.324.742l.004-.003c.002.002 0 .003-.004.003-.294.203-.517.998-.591 1.373h-.33l-.369-.719-.205-.821-.103-1.007.103-1.396-.267-.329-.555-.8v-.494z" fill="#A0A0A0"/>
        <path d="M8.242 6.652c0-.28.232-.527.349-.616.115-.18 1.047-.308 1.5-.35.636-.027 1.901.165 1.868 1.151-.041 1.232-2.875 1.109-2.26 1.006.494-.082.89-.609 1.028-.862-.288.075-.957.234-1.335.267-.473.04-1.15-.247-1.15-.596z" fill="#fff"/>
        <path fill-rule="evenodd" clip-rule="evenodd" d="M4.701 3.44c-.29.082-.56.261-.717.473-.44.596-.512 1.853-.163 2.83.18.504.35.789.658 1.1.237.24.247.257.214.393-.062.259-.085 1.569-.033 1.934.143 1.011.495 1.757 1.11 2.35l.292.283.01.54c.01.454.027.577.109.784.126.318.438.637.721.737.281.099.836.125 1.191.055.274-.054.301-.052.575.041.995.337 1.757.337 2.752 0 .274-.093.302-.095.575-.04.355.069.91.043 1.191-.056.284-.1.595-.419.722-.737.082-.207.099-.33.108-.785l.01-.54.293-.281c.614-.594.966-1.34 1.11-2.351.051-.365.028-1.675-.034-1.934-.032-.136-.022-.154.214-.393.308-.311.478-.596.658-1.1.354-.991.277-2.249-.175-2.843a1.154 1.154 0 00-.438-.35c-.274-.139-.295-.143-.738-.14-.396.003-.508.02-.85.133-.642.213-1.362.689-2.047 1.356l-.352.343H8.422l-.352-.343c-.976-.95-1.926-1.455-2.811-1.495-.231-.011-.44.003-.558.036zm1.112.644c.44.222 1.106.702 1.783 1.286l.16.138-.148.092c-.54.333-1.013.962-1.11 1.474l-.026.135.215-.218a3.006 3.006 0 011.032-.671c1.409-.574 3.241-.574 4.65 0a3.05 3.05 0 011.031.67l.216.216-.026-.133c-.095-.49-.523-1.081-1.03-1.419a2.88 2.88 0 01-.216-.15c0-.005.153-.138.34-.296.528-.449 1.11-.867 1.492-1.07.717-.38 1.245-.253 1.542.375.167.354.214.635.188 1.133-.043.859-.37 1.53-.97 1.996l-.239.185.034.172c.018.095.054.427.08.738.099 1.21-.136 2.39-.614 3.085-.144.209-.534.602-.598.6-.023 0-.135-.18-.248-.4a6.211 6.211 0 00-.458-.736l-.252-.336.15-.026a.995.995 0 00.252-.081l.102-.056-.123-.03c-.154-.037-.499-.207-.533-.264-.017-.026.068-.042.233-.043.327-.002.638-.108.745-.253.078-.106.079-.12.017-.278-.076-.193-.045-.207.186-.083.136.072.153.074.153.015 0-.197-.336-.513-.633-.595-.229-.063-.387.01-.772.36-.187.17-.392.335-.454.368-.108.057-.123.052-.33-.104-.456-.345-.942-.496-1.59-.496-.648 0-1.134.151-1.59.496-.207.156-.222.16-.33.104a3.874 3.874 0 01-.454-.368c-.385-.35-.543-.423-.772-.36-.297.082-.633.398-.633.595 0 .06.018.057.153-.015.231-.124.262-.11.186.083-.062.157-.06.172.017.277.107.146.418.252.745.254.165.001.25.017.234.043-.035.056-.38.227-.534.264l-.123.03.103.056c.056.03.17.067.252.081l.15.026-.253.336a6.208 6.208 0 00-.458.736c-.113.22-.224.4-.248.4-.063.002-.454-.391-.598-.6-.478-.695-.713-1.875-.614-3.085.026-.31.062-.643.08-.738l.034-.172-.238-.185a2.919 2.919 0 01-.411-.403c-.817-1.027-.746-2.862.126-3.256.231-.104.621-.062.945.101zM7.23 9.865c.17.084.308.165.308.18 0 .046-.289.075-.384.04a.394.394 0 01-.139-.093c-.054-.065-.14-.28-.113-.28.01 0 .158.07.328.153zm5.834.052c-.083.16-.215.211-.44.17l-.177-.03.329-.169c.18-.092.334-.152.341-.133.007.019-.017.091-.053.162zm-2.522.06c.307.065.773.282 1.066.497.48.353 1.029 1.057 1.374 1.764.231.474.307.773.307 1.213 0 .305-.016.385-.113.577-.254.503-.86.545-1.757.124-.606-.283-1.021-.615-1.147-.916-.13-.314-.05-.563.31-.96.296-.328.362-.555.204-.712-.071-.072-.142-.08-.742-.08s-.67.008-.742.08c-.158.157-.092.384.205.712.36.397.44.646.31.96-.126.3-.542.633-1.147.916-.899.421-1.503.379-1.758-.124-.097-.192-.113-.272-.113-.577 0-.44.076-.739.307-1.213.82-1.68 2.125-2.54 3.436-2.261zm-.351 3.602c.066.07.253.227.415.349.163.12.307.239.321.262.056.09-.036.217-.22.3-.158.071-.27.086-.663.086-.392 0-.505-.015-.663-.086-.184-.083-.276-.21-.22-.3.014-.023.159-.141.32-.262.163-.122.35-.278.417-.35a.61.61 0 01.146-.128c.014 0 .08.058.146.129zm-4.609.333l.017.36h-.157c-.156 0-.156 0-.246.27-.05.148-.083.274-.075.28.008.005.124.051.258.101l.244.091.1-.1.101-.1.156.232c.086.128.231.305.323.395.092.089.167.172.167.185 0 .013-.073.069-.164.124-.103.064-.157.125-.146.164.01.034.04.18.068.322.044.233.058.258.135.24.048-.012.192-.034.32-.049l.233-.028.049-.203c.027-.112.06-.196.075-.189.076.042.571.269.639.293.073.026.07.037-.044.16-.244.265-.242.234-.035.645.104.207.203.37.22.363.019-.007.195-.086.393-.175l.36-.163-.015-.28c-.01-.182-.001-.274.026-.264.024.009.219.05.433.09.215.04.397.079.405.085.008.007-.055.19-.14.405l-.156.394.446.42c.245.231.458.42.472.42.015 0 .227-.189.473-.42l.446-.42-.156-.393c-.086-.217-.15-.4-.141-.406a5.18 5.18 0 01.405-.085c.215-.04.41-.081.433-.09.027-.01.037.082.026.264l-.015.28.36.163c.198.09.375.168.392.175.018.008.118-.156.222-.363.206-.411.208-.38-.036-.645-.114-.123-.117-.134-.043-.16.067-.024.562-.25.638-.293.015-.007.049.077.075.19l.049.202.233.028c.128.015.272.037.32.048.077.019.091-.006.136-.239.027-.143.057-.288.067-.322.011-.04-.043-.1-.146-.164-.09-.055-.164-.111-.164-.124 0-.013.075-.096.167-.185.092-.09.237-.267.323-.395l.156-.233.1.1.1.101.245-.09c.134-.05.25-.097.258-.102.008-.006-.026-.132-.075-.28-.09-.27-.09-.27-.246-.27h-.157l.017-.36.017-.359-.063.222c-.293 1.032-1.41 1.728-3.245 2.023-.19.03-.684.052-1.17.052-1.483 0-2.598-.273-3.454-.845-.527-.353-.82-.726-.963-1.23l-.062-.222.016.36z" fill="#000"/>
        <path d="M7.23 9.865c.17.084.308.165.308.18 0 .046-.289.075-.384.04a.393.393 0 01-.139-.092c-.054-.066-.141-.28-.113-.28.01 0 .158.068.327.152zM13.064 9.917c-.084.16-.215.211-.44.17l-.177-.03.329-.169c.18-.092.334-.152.34-.133.008.019-.016.091-.052.162z" fill="#B0F122"/>
    </svg>