<svg width="24" height="25" fill="none" viewBox="-2 -2 24 25" id="pivx" x="154" y="100" xmlns="http://www.w3.org/2000/svg">
        <path fill="#fff" d="M4.04 2.113h12.251v14.321H4.04z"/>
        <path d="M9.995.283l-6.99 1.125-1.441.225v11.973c0 2.771 5.958 5.706 8.431 6.677 1.441-.562 4.057-1.79 5.989-3.262.143-.112.296-.225.43-.337.664-.542 1.215-1.115 1.573-1.697.276-.45.44-.91.44-1.37V1.632L9.995.283zm-4.067 6.35h4.915v1.022H5.928V6.633zm9.586.48c0 2.424-1.686 3.988-4.017 3.988h-3.23v5.113H6.99V9.946h4.334c1.738 0 2.872-1.054 2.872-2.833 0-1.758-1.134-2.78-2.852-2.78H9.995l-3.23.01V3.176h4.722c2.34 0 4.027 1.513 4.027 3.936" fill="#7F6CA2"/>
        <path d="M9.995.283l-6.99 1.125-1.441.225v11.973c0 2.771 5.958 5.706 8.431 6.677 1.441-.562 4.057-1.79 5.989-3.262.143-.112.296-.225.43-.337.664-.542 1.215-1.115 1.573-1.697.276-.45.44-.91.44-1.37V1.632L9.995.283zm-4.067 6.35h4.915v1.022H5.928V6.633zm9.586.48c0 2.424-1.686 3.988-4.017 3.988h-3.23v5.113H6.99V9.946h4.334c1.738 0 2.872-1.054 2.872-2.833 0-1.758-1.134-2.78-2.852-2.78H9.995l-3.23.01V3.176h4.722c2.34 0 4.027 1.513 4.027 3.936" fill="#fff"/>
        <path d="M9.995.283l-6.99 1.125-1.441.225v11.973c0 2.771 5.958 5.706 8.431 6.677 1.441-.562 4.057-1.79 5.989-3.262.143-.112.296-.225.43-.337.664-.542 1.215-1.115 1.573-1.697.276-.45.44-.91.44-1.37V1.632L9.995.283zm-4.067 6.35h4.915v1.022H5.928V6.633zm9.586.48c0 2.424-1.686 3.988-4.017 3.988h-3.23v5.113H6.99V9.946h4.334c1.738 0 2.872-1.054 2.872-2.833 0-1.758-1.134-2.78-2.852-2.78H9.995l-3.23.01V3.176h4.722c2.34 0 4.027 1.513 4.027 3.936" fill="#fff"/>
        <path d="M11.486 11.09H8.267v.604c.548.437 1.129.83 1.738 1.176 2.034 1.166 4.65 1.953 7.992 2.106.276-.45.44-.91.44-1.37V1.633L10.004.283l-7 1.125c.326 2.628 1.297 6.257 3.985 9.11v-.572h4.334c1.737 0 2.872-1.054 2.872-2.833 0-1.758-1.135-2.78-2.852-2.78h-1.35l-3.229.01V3.176h4.721c2.33 0 4.017 1.523 4.017 3.926 0 2.423-1.676 3.988-4.017 3.988zM9.995 6.634h.837v1.022H5.927V6.633h4.068z" fill="#A088CC"/>
        <path d="M9.995 12.87c-.61-.346-1.19-.74-1.737-1.176v4.518H6.98v-5.694c-2.688-2.863-3.648-6.493-3.975-9.11l-1.441.225v11.973c0 2.77 5.958 5.705 8.431 6.677 1.441-.563 4.057-1.79 5.989-3.262.143-.112.296-.225.43-.337.664-.542 1.215-1.115 1.573-1.698-3.342-.174-5.948-.96-7.992-2.116" fill="#7F6CA2"/>
    </svg>