<svg width="25" height="24" fill="none" viewBox="-2 -2 25 24" id="pnk" x="100" y="196" xmlns="http://www.w3.org/2000/svg">
        <path d="M11.353 1.448H6.198L3.848 3.93.927 7.707.473 8.814l4.056 9.35 9.933.42 2.654-3.816 2.54-4.198-1.896-5-1.82-3.778-4.587-.344z" fill="#2A2B2F"/>
        <path d="M20.077 10.308c-1.28-2.837-2.555-5.675-3.82-8.52-.126-.287-.294-.373-.597-.383-1.557-.05-3.112-.127-4.199-.174-2.024-.094-3.578-.177-5.135-.23-.186-.007-.442.095-.556.237A848.84 848.84 0 00.242 8.182a.566.566 0 00-.074.47c1.306 3.146 2.624 6.286 3.955 9.419.058.136.273.28.422.29 3.19.22 6.38.42 9.572.637.25.017.373-.073.503-.263 1.799-2.626 3.602-5.249 5.413-7.864.14-.2.141-.35.044-.563zm-3.972-7.553l2.313 5.002-3.233-3.106.92-1.896zM9.226 1.59c1.885.083 3.77.164 5.714.248l-1.032 1.883-4.7-2.067.017-.064zm-2.539.55c1.942.84 3.84 1.663 5.825 2.525-2.373.933-4.661 1.835-7.046 2.774l1.221-5.3zm6.692 4.16L12.32 14.36 6.07 9.495C8.52 8.422 10.908 7.378 13.378 6.3zm-9.8 9.463L.747 9.068c.922.2 1.761.376 2.595.577.085.02.184.19.19.296.032.445.034.894.042 1.34.029 1.355.057 2.71.084 4.066.004.131 0 .264 0 .396a1.065 1.065 0 01-.078.021zm.128-7.171L.94 8.019l3.993-5.106.085.037c-.433 1.856-.865 3.715-1.312 5.642zm1 2.457l6.325 4.571-6.178 1.608-.148-6.179zm2.708 6.977l-.008-.053c1.708-.446 3.416-.895 5.148-1.348l.923 1.802-6.063-.401zm7.155-.071c-.319-.622-.617-1.207-.928-1.817l4.393-3.304.066.063c-1.167 1.67-2.334 3.34-3.532 5.058zm-.863-3.277l1.114-8.314 4.358 4.208-5.472 4.106z" fill="url(#lypaint0_linear)"/>
        <defs>
            <linearGradient id="lypaint0_linear" x1="3.749" y1="6.637" x2="18.788" y2="10.887" gradientUnits="userSpaceOnUse">
                <stop stop-color="#9A989D"/>
                <stop offset="1" stop-color="#747276"/>
            </linearGradient>
        </defs>
    </svg>