<svg width="24" height="24" fill="none" viewBox="-2 -2 24 24" id="pnt" x="192" y="436" xmlns="http://www.w3.org/2000/svg">
        <path d="M10 20c5.523 0 10-4.477 10-10S15.523 0 10 0 0 4.477 0 10s4.477 10 10 10z" fill="#fff"/>
        <path d="M13.62 17.451c-.657-.01-1.595.276-2.4.938-.77.633-1.67.633-2.44.003-.82-.67-1.768-.97-2.84-.926-1.235.049-1.784-.36-2.105-1.496-.267-.94-.838-1.686-1.7-2.212-.976-.595-1.223-1.332-.8-2.36.38-.925.38-1.861.001-2.787-.424-1.032-.174-1.771.794-2.363.89-.544 1.47-1.315 1.723-2.299.25-.973.905-1.471 1.94-1.413 1.16.066 2.175-.246 3.06-.979a1.771 1.771 0 012.29-.001c.885.733 1.899 1.046 3.06.981 1.037-.057 1.695.437 1.942 1.41.25.985.832 1.755 1.72 2.3.971.597 1.22 1.329.798 2.361-.386.943-.38 1.89.016 2.83.405.963.143 1.748-.774 2.292-.87.517-1.45 1.257-1.73 2.19-.364 1.221-.852 1.59-2.555 1.531zm-7.697-4.53c0 .336-.03.676.007 1.01.071.633.584.97 1.231.814.324-.079.641-.194.95-.32.962-.393 1.958-.456 2.964-.244.465.098.91.29 1.359.45 1.085.385 1.694-.028 1.647-1.124-.01-.2-.016-.4-.028-.599-.085-1.335.321-2.51 1.24-3.522a5.2 5.2 0 00.528-.655c.375-.58.177-1.174-.482-1.433-.294-.115-.61-.182-.92-.257-1.32-.315-2.345-1.017-3.073-2.121-.179-.273-.351-.554-.567-.798-.467-.527-1.103-.523-1.566.008-.215.245-.386.528-.565.799-.72 1.088-1.734 1.785-3.034 2.105-.279.069-.562.125-.834.214-.784.255-1.014.921-.547 1.572.136.19.292.366.45.54.934 1.02 1.348 2.208 1.24 3.56z" fill="#392C62"/>
    </svg>