<svg width="24" height="24" fill="none" viewBox="-2 -2 24 24" id="poe" x="216" y="436" xmlns="http://www.w3.org/2000/svg">
        <path d="M20 10c0 5.524-4.476 10-10 10S0 15.524 0 10 4.476 0 10 0s10 4.476 10 10z" fill="#000"/>
        <path d="M18.837 10.086a8.752 8.752 0 11-17.503-.001 8.752 8.752 0 0117.503 0z" fill="#EFEBEA"/>
        <path d="M13.397 7.566L7.113 13.99l-.137-2.588 3.79-3.837 1.57-1.631 1.018-.335.738.193.69.575-.832.957-.553.24z" fill="#F9F9F9"/>
        <path d="M13.967 7.746l-1.258 1.296h1.906l.215-.22a1.7 1.7 0 00.472-1.188c0-.438-.163-.854-.455-1.172l-.867.902a.288.288 0 01.069.193.314.314 0 01-.082.189zM8.8 13.2l-1.026 1.065H9.68l1.034-1.065H8.8zM9.315 12.66h1.906l1.137-1.18h-1.905l-1.138 1.18zM14.096 9.678H12.19l-1.219 1.257h1.906l1.219-1.257z" fill="#DFDAD7"/>
        <path d="M14.725 5.996a2.133 2.133 0 00-.69-.481 2.054 2.054 0 00-.816-.167A2.054 2.054 0 0011.713 6l-4.936 5.099a.293.293 0 00-.073.201v2.627l-1.36 1.42h.746L7.1 14.306h2.523a.223.223 0 00.185-.086l4.905-5.082.01-.008c.398-.417.621-.979.617-1.562a2.179 2.179 0 00-.159-.846 2.02 2.02 0 00-.455-.725zm-2.867.592l.215-.219c.305-.313.717-.49 1.146-.49.43 0 .841.177 1.146.49.008.009.008.017.017.017.292.318.455.743.455 1.185a1.719 1.719 0 01-.472 1.176l-.215.219h-1.905l1.249-1.296a.277.277 0 00.009-.373c-.01-.01-.01-.01-.01-.018a.25.25 0 00-.184-.077.267.267 0 00-.184.077l-1.267 1.313V6.588zm-4.24 7.172l1.026-1.065h1.905L9.524 13.76H7.618zm2.992-3.103l1.218-1.266h1.906l-1.219 1.266H10.61zm1.489.429l-1.138 1.18H9.056l1.137-1.18H12.1zm-1.876-2.807l1.22-1.266v2.004l-1.22 1.266V8.28zM8.67 9.889l1.137-1.18v2.004l-1.137 1.18V9.888zm-1.451 1.506l1.043-1.073v2.004L7.219 13.4" fill="#000"/>
    </svg>