<svg width="24" height="25" fill="none" viewBox="-2 -2 24 25" id="pols" x="228" xmlns="http://www.w3.org/2000/svg">
        <g clip-path="url(#mbclip0)">
            <path d="M10 20.487c5.523 0 10-4.477 10-10s-4.477-10-10-10-10 4.477-10 10 4.477 10 10 10z" fill="#D1348C"/>
            <path d="M9.27 6.251l2.382-.328-2.218 5.522c.986-.117 1.906-.352 3.258-2.702 1.433-2.492.246-4.682-3.258-3.258-2.803 1.138-3.103 3.613-2.902 4.709-.97.255-2.051-.518-1.208-2.278 1.508-3.146 6.07-4.034 7.994-3.355 1.925.678 2.329 2.64.679 5.115-1.27 1.904-3.634 2.333-4.782 2.315l-1.862 4.636H4.971L9.27 6.251z" fill="#fff"/>
        </g>
        <defs>
            <clipPath id="mbclip0">
                <path fill="#fff" transform="translate(0 .487)" d="M0 0h20v20H0z"/>
            </clipPath>
        </defs>
    </svg>