<svg width="24" height="24" fill="none" viewBox="-2 -2 24 24" id="pots" x="264" y="436" xmlns="http://www.w3.org/2000/svg">
        <path d="M10 19.954c5.497 0 9.954-4.457 9.954-9.954 0-5.497-4.457-9.954-9.954-9.954C4.503.046.046 4.503.046 10c0 5.497 4.457 9.954 9.954 9.954z" fill="#fff"/>
        <path d="M14.37 14.931l-.001-.002c-.122.047-.245.094-.37.138.125-.043.249-.088.371-.136zm-8.383.14a6.442 6.442 0 01-.357-.14l-.002.005c.083.034.204.081.359.136z" fill="#9590C5"/>
        <path d="M10 .463a9.537 9.537 0 00-6.153 16.824c.383-1.094 1.23-2.1 1.714-2.615-.006-.228.02-.606.19-1.063.068.321.714.532 1.262.655.798.179 1.86.277 2.987.277 1.128 0 2.189-.098 2.987-.277.548-.123 1.194-.334 1.263-.655.168.457.195.835.189 1.063.484.515 1.331 1.521 1.714 2.615A9.537 9.537 0 0010 .463zm5.982 9.673c-.405 1.222-1.223 2.272-2.301 3.008.313.129.484.27.484.409 0 .433-1.673.897-4.165.897-2.491 0-4.165-.464-4.165-.897 0-.139.171-.28.485-.409-1.078-.736-1.897-1.786-2.302-3.008a1.932 1.932 0 01.134-3.856C5.056 4.076 7.333 2.51 10 2.51s4.944 1.565 5.848 3.769a1.932 1.932 0 01.134 3.856z" fill="#9590C5"/>
        <path d="M4.152 6.28a1.932 1.932 0 00-.134 3.857 5.542 5.542 0 01.134-3.857zm-1.02 2.793a.354.354 0 110-.708.354.354 0 010 .708zm0-1.014a.354.354 0 110-.709.354.354 0 010 .709z" fill="#635DA8"/>
        <path d="M3.134 8.059a.354.354 0 100-.709.354.354 0 000 .709zM3.133 9.072a.354.354 0 100-.709.354.354 0 000 .709zM4.401 17.59a4.51 4.51 0 00-.03.109c.145.106.294.209.445.307.068-.647.176-1.238.286-1.728-.305.404-.562.848-.7 1.312zm10.015-2.68l-.047.019.001.002c-.23.089-.463.17-.698.244.265 1.248.966 2.232 1.504 2.836l.008-.005a15.103 15.103 0 00-.286-1.728c.305.404.562.848.7 1.312l.032.109c.179-.131.353-.269.523-.412-.383-1.094-1.23-2.1-1.714-2.615-.004.152-.023.238-.023.238z" fill="#E7E5EA"/>
        <path d="M14.898 16.278c.11.49.218 1.081.286 1.728.151-.098.3-.2.446-.307a4.211 4.211 0 00-.031-.11c-.14-.463-.396-.907-.7-1.31z" fill="#E7E5EA"/>
        <path d="M6.32 13.144c-.314.129-.485.27-.485.409 0 .433 1.673.897 4.165.897 2.491 0 4.165-.464 4.165-.897 0-.139-.171-.28-.485-.409A6.513 6.513 0 0110 14.266a6.514 6.514 0 01-3.68-1.122z" fill="#635DA8"/>
        <path d="M6.327 15.185a10.388 10.388 0 01-.7-.249l.003-.005a2.154 2.154 0 01-.047-.021s-.018-.086-.022-.238c-.484.515-1.331 1.521-1.714 2.615.17.143.344.28.523.412l.031-.11c.14-.463.396-.907.7-1.311-.11.49-.217 1.081-.285 1.728l.008.006c.11-.123.214-.248.315-.378.428-.548.963-1.402 1.188-2.45zm.904.241c-.295 1.324-.994 2.373-1.582 3.063A9.496 9.496 0 0010 19.537a9.495 9.495 0 004.352-1.049c-.589-.69-1.289-1.74-1.582-3.066-2.238.52-4.213.304-5.54.004z" fill="#E7E5EA"/>
        <path d="M14 15.067c.124-.044.247-.09.369-.138l.048-.019s.018-.086.022-.237a2.878 2.878 0 00-.19-1.064c-.068.321-.714.533-1.262.655-.798.179-1.859.277-2.987.277-1.128 0-2.189-.098-2.987-.277-.548-.122-1.194-.334-1.263-.655a2.88 2.88 0 00-.189 1.064c.004.151.022.237.022.237l.047.021a6.442 6.442 0 00.697.254c-.225 1.047-.76 1.901-1.188 2.45-.1.129-.206.255-.315.377.267.173.542.332.825.477.588-.69 1.287-1.738 1.582-3.062 1.326.3 3.3.515 5.539-.005.293 1.326.993 2.376 1.582 3.067.282-.146.558-.305.825-.478-.539-.604-1.24-1.588-1.505-2.835.11-.035.219-.071.328-.109zm1.848-8.787a5.545 5.545 0 01.134 3.857 1.932 1.932 0 00-.134-3.857zm1.02 1.07a.354.354 0 110 .709.354.354 0 010-.709zm0 1.723a.354.354 0 110-.708.354.354 0 010 .708z" fill="#635DA8"/>
        <path d="M17.117 8.97a.354.354 0 10-.501-.502.354.354 0 00.5.501zM17.196 7.838a.354.354 0 10-.655-.271.354.354 0 00.655.271zM15.848 6.28C14.944 4.076 12.667 2.51 10 2.51S5.056 4.076 4.152 6.28a5.544 5.544 0 00-.134 3.856c.405 1.222 1.223 2.272 2.301 3.008A6.514 6.514 0 0010 14.266a6.514 6.514 0 003.681-1.122c1.078-.736 1.897-1.786 2.302-3.008a5.545 5.545 0 00-.134-3.857zM10 12.703c-4.21 0-5.346-2.027-5.346-4.526 0-2.5 2.394-4.526 5.346-4.526s5.346 2.026 5.346 4.526-1.137 4.526-5.346 4.526z" fill="#E7E5EA"/>
        <path d="M15.344 8.06c-.057-1.902-1.5-3.512-3.506-4.134a5.982 5.982 0 00-.908-.207 6.201 6.201 0 00-1.341-.055 6.298 6.298 0 00-.403.04c-2.566.331-4.532 2.208-4.532 4.473 0 2.5 1.137 4.526 5.346 4.526 4.21 0 5.346-2.026 5.346-4.526 0-.04 0-.078-.002-.117z" fill="#635DA8"/>
        <path opacity=".1" d="M4.401 17.59a4.51 4.51 0 00-.03.109c.145.106.294.21.445.307.068-.647.176-1.238.286-1.728-.305.404-.562.848-.7 1.312zm10.497-1.312c.11.49.218 1.081.286 1.728.151-.098.3-.2.446-.307a4.651 4.651 0 00-.031-.11c-.14-.463-.396-.907-.7-1.31z" fill="#635DA8"/>
    </svg>