<svg width="24" height="24" fill="none" viewBox="-2 -2 24 24" id="powr" x="288" y="436" xmlns="http://www.w3.org/2000/svg">
        <g clip-path="url(#meclip0)" fill="#00CDD7">
            <path opacity=".73" d="M6.67 3.333l3.335-3.335 3.336 3.335-3.336 3.336L6.67 3.333z"/>
            <path opacity=".43" d="M6.67 16.668l3.336-3.335 3.336 3.335-3.336 3.336-3.335-3.336z"/>
            <path opacity=".48" d="M3.777 14.108l4.557-1.22 1.22 4.556-4.556 1.22-1.22-4.556z"/>
            <path opacity=".18" d="M10.444 2.563L15 1.342l1.221 4.556-4.556 1.22-1.22-4.555z"/>
            <path opacity=".53" d="M1.338 15l1.22-4.556 4.557 1.221-1.22 4.556-4.557-1.22z"/>
            <path opacity=".23" d="M12.88 8.33l1.222-4.556 4.556 1.221-1.22 4.556-4.557-1.22z"/>
            <path opacity=".58" d="M.003 10.003l3.335-3.336 3.336 3.335-3.336 3.336-3.335-3.335z"/>
            <path opacity=".28" d="M13.332 9.994l3.335-3.336 3.336 3.336-3.335 3.335-3.336-3.335z"/>
            <path opacity=".63" d="M1.334 5L5.89 3.777l1.221 4.556-4.556 1.221L1.334 5z"/>
            <path opacity=".33" d="M12.88 11.666l4.556-1.22 1.22 4.556-4.555 1.22-1.221-4.556z"/>
            <path opacity=".68" d="M3.777 5.899l1.221-4.556 4.556 1.22-1.22 4.557-4.557-1.221z"/>
            <path opacity=".38" d="M10.447 17.442l1.221-4.556 4.556 1.22-1.22 4.557-4.557-1.221z"/>
        </g>
        <defs>
            <clipPath id="meclip0">
                <path fill="#fff" d="M0 0h20v20H0z"/>
            </clipPath>
        </defs>
    </svg>