<svg width="24" height="24" fill="none" viewBox="-2 -2 24 24" id="ppt" x="312" y="436" xmlns="http://www.w3.org/2000/svg">
        <path d="M10 20c5.523 0 10-4.477 10-10S15.523 0 10 0 0 4.477 0 10s4.477 10 10 10z" fill="#142743"/>
        <path d="M9.25 2.913c.284-.038.572.004.832.121.352.163.633.45.787.807.157.363.167.773.03 1.144-.128.342-.37.629-.685.812a1.564 1.564 0 01-1.693-.102 1.517 1.517 0 01-.562-.806A1.544 1.544 0 019.25 2.913zM6.826 6.285a.354.354 0 01.105-.01h1.192c0 2.245-.003 4.489.003 6.733-.076.015-.155 0-.232 0a63.89 63.89 0 01-.98.002.16.16 0 01-.104-.027.17.17 0 01-.033-.121V6.434c.003-.05-.005-.12.049-.149zM8.508 6.278c.796-.005 1.591 0 2.387 0 .57.008 1.153.006 1.705.172a.788.788 0 01.488.391c.174.33.153.714.155 1.075v3.809c-.006.31-.053.65-.272.887-.216.228-.54.295-.84.337-.518.072-1.043.059-1.565.06.009 1.469 0 2.94.004 4.409-.686-.01-1.373 0-2.059-.005v-9.79c.004-.449-.01-.897-.003-1.345zm2.058.883v3.486c.003.483-.007.966.004 1.449.177.008.367.045.534-.03.09-.039.114-.145.11-.233V7.532c0-.117-.044-.243-.149-.304-.15-.09-.333-.063-.5-.067z" fill="#fff"/>
    </svg>