<svg width="24" height="24" fill="none" viewBox="-2 -2 24 24" id="pvu" x="336" y="436" xmlns="http://www.w3.org/2000/svg">
        <circle cx="10" cy="10" r="10" fill="#fff"/>
        <path d="M14.87 10.465c-1.089-.356-2.4-.451-3.38-.464V10c.98-.013 2.291-.108 3.38-.464a3.049 3.049 0 001.486-.833c1.045-1.045 1.196-2.589.336-3.449-.368-.368-.862-.55-1.388-.557-.007-.526-.19-1.02-.558-1.388-.86-.86-2.403-.71-3.448.336a3.05 3.05 0 00-.833 1.486c-.356 1.089-.451 2.399-.464 3.38H10c-.013-.981-.108-2.291-.464-3.38a3.049 3.049 0 00-.833-1.486c-1.045-1.045-2.589-1.196-3.449-.336-.368.368-.55.862-.557 1.388-.526.007-1.02.19-1.388.557-.86.86-.71 2.404.336 3.45a3.05 3.05 0 001.486.832c1.089.356 2.4.451 3.38.464V10c-.98.013-2.291.108-3.38.464a3.05 3.05 0 00-1.486.833c-1.045 1.045-1.196 2.589-.336 3.448.368.368.862.551 1.388.558.007.526.19 1.02.558 1.388.86.86 2.403.71 3.448-.336a3.05 3.05 0 00.833-1.486c.356-1.089.451-2.4.464-3.38H10c.013.98.108 2.291.464 3.38.115.525.396 1.05.833 1.486 1.045 1.045 2.589 1.196 3.448.336.369-.368.551-.862.558-1.388.526-.007 1.02-.19 1.388-.558.86-.86.71-2.403-.336-3.448a3.05 3.05 0 00-1.486-.833z" fill="#4DBC00"/>
    </svg>