<svg width="25" height="24" fill="none" viewBox="-2 -2 25 24" id="qar" x="125" y="196" xmlns="http://www.w3.org/2000/svg">
        <g clip-path="url(#miclip0)">
            <path d="M10.5 20c5.523 0 10-4.477 10-10s-4.477-10-10-10S.5 4.477.5 10s4.477 10 10 10z" fill="#F0F0F0"/>
            <path d="M20.5 10c0-5.523-4.477-10-10-10a9.953 9.953 0 00-5.322 1.533l2.192.932L4.413 3.72 7.37 4.977 4.413 6.233 7.37 7.489 4.413 8.745 7.37 10l-2.957 1.256 2.957 1.256-2.957 1.256 2.957 1.256-2.957 1.256 2.957 1.256-2.191.93A9.953 9.953 0 0010.5 20c5.523 0 10-4.477 10-10z" fill="#751A46"/>
        </g>
        <defs>
            <clipPath id="miclip0">
                <path fill="#fff" transform="translate(.5)" d="M0 0h20v20H0z"/>
            </clipPath>
        </defs>
    </svg>