<svg width="24" height="24" fill="none" viewBox="-2 -2 24 24" id="qsp" x="470" xmlns="http://www.w3.org/2000/svg">
        <path d="M10 20c5.523 0 10-4.477 10-10S15.523 0 10 0 0 4.477 0 10s4.477 10 10 10z" fill="#fff"/>
        <path d="M15.688 10a5.656 5.656 0 00-.919-3.094L17 4.676 15.324 3l-2.229 2.23a5.663 5.663 0 00-6.187 0L4.675 3 3 4.676l2.23 2.23a5.663 5.663 0 000 6.187L3 15.325 4.676 17l2.23-2.23a5.663 5.663 0 006.187 0L15.324 17 17 15.325l-2.231-2.23c.6-.92.92-1.996.919-3.095zm-9.006 0a3.318 3.318 0 116.345 1.353l-2.19-2.191-1.675 1.676 2.189 2.19A3.31 3.31 0 016.68 10z" fill="#4CBBFD"/>
    </svg>