<svg width="24" height="24" fill="none" viewBox="-2 -2 24 24" id="qtum" x="470" y="24" xmlns="http://www.w3.org/2000/svg">
        <path d="M12.123 18.503H6.625L2.19 15.252.498 10 2.185 4.75l4.437-3.251h5.502l4.436 3.25 1.687 5.252-1.687 5.25-.062.063-4.375 3.189zm-5.374-.379h5.25l4.252-3.123 1.625-5-1.625-5L12 1.877H6.749L2.502 5.001.876 10l1.626 5 4.247 3.123z" fill="#2E9AD0"/>
        <path d="M18.876 17.626l-2.563-2.312-2.502-.939-4.436.564-4.499-.564-2.501.939-.124-.375 2.56-1h.065l4.499.626 4.501-.626.062.062 2.626 1 2.56 2.374-.248.251z" fill="#2E9AD0"/>
        <path d="M12 18.688l-2.626-3.625-2.749 3.625-2-4.436.375-.19 1.749 3.877 2.625-3.564 2.564 3.564 1.75-3.876 2.374-4.75.563 5.811h-.374l-.44-4.436-1.75 3.564L12 18.688z" fill="#2E9AD0"/>
        <path d="M.75 9.81h17.374v.375H.749v-.374z" fill="#2E9AD0"/>
        <path d="M16.062 10.688l-2.186-4.313L12 10.437 9.375 5.749l-2.688 4.688-1.876-4.062-2.185 4.313-.502-5.75.378-.061.374 4.498 1.935-3.811 1.876 4.062L9.375 5l2.563 4.626 1.938-4.062 1.935 3.749.313-4.436h.378l-.44 5.81z" fill="#2E9AD0"/>
        <path d="M13.687 6.062l-1.749-3.938L9.375 5.75 6.749 2.124 5 6.062l-.313-.185 1.938-4.502 2.75 3.687L12 1.375l2.062 4.502-.375.185zm2.564 9.062l-.44-4.436-1.935 3.876-1.938-4.127-2.563 4.687-2.688-4.687-1.876 4.127-1.935-3.876-.374 4.436h-.378l.502-5.81 2.185 4.374 1.876-4.062 2.688 4.687L12 9.626l1.876 4.123 2.186-4.436.563 5.811h-.374z" fill="#2E9AD0"/>
        <path d="M13.876 6.19l-4.563-.626-4.502.626-2.56-1.128.124-.374L4.876 5.75l4.437-.56 4.563.56 2.437-1.062.189.374-2.626 1.128zM6.687 19.061a.75.75 0 100-1.498.75.75 0 000 1.498zM11.938 19.061a.75.75 0 100-1.498.75.75 0 000 1.498zM6.687 2.498a.75.75 0 100-1.498.75.75 0 000 1.498zM11.938 2.498a.75.75 0 100-1.498.75.75 0 000 1.498z" fill="#2E9AD0"/>
        <path d="M16.313 5.625a.75.75 0 100-1.498.75.75 0 000 1.498zM2.313 5.625a.75.75 0 100-1.498.75.75 0 000 1.498zM2.313 15.938a.75.75 0 100-1.498.75.75 0 000 1.498zM.75 10.75a.75.75 0 100-1.499.75.75 0 000 1.498zM18.062 10.75a.75.75 0 100-1.499.75.75 0 000 1.498zM15.938 10.75a.75.75 0 100-1.499.75.75 0 000 1.498zM2.75 10.75a.75.75 0 100-1.499.75.75 0 000 1.498zM6.687 10.75a.75.75 0 100-1.499.75.75 0 000 1.498zM11.938 10.75a.75.75 0 100-1.499.75.75 0 000 1.498zM10.114 5.495a.749.749 0 10-1.479-.24.749.749 0 001.48.24zM4.81 6.75a.75.75 0 100-1.499.75.75 0 000 1.498zM13.876 6.75a.75.75 0 100-1.499.75.75 0 000 1.498zM9.375 15.498a.75.75 0 100-1.498.75.75 0 000 1.498zM4.81 14.872a.75.75 0 100-1.498.75.75 0 000 1.498zM13.876 14.872a.75.75 0 100-1.498.75.75 0 000 1.498zM19 18.501a1 1 0 100-2 1 1 0 000 2z" fill="#2E9AD0"/>
    </svg>