<svg width="24" height="24" fill="none" viewBox="-2 -2 24 24" id="rcn" x="470" y="96" xmlns="http://www.w3.org/2000/svg">
        <path d="M10 20c5.523 0 10-4.477 10-10S15.523 0 10 0 0 4.477 0 10s4.477 10 10 10z" fill="#3555F9"/>
        <path d="M8.975 4.142c.531-.099 1.075-.088 1.613-.06.62.072 1.24.202 1.81.458a6.025 6.025 0 012.765 2.331c.246.358.41.76.576 1.158.154-.245.292-.5.425-.757a.346.346 0 01.32-.207.364.364 0 01.39.319c.015.15-.08.28-.141.41a7.623 7.623 0 01-.708 1.112c-.048.05-.028.122-.022.185.29 1.71-.262 3.53-1.438 4.82a6.124 6.124 0 01-2.486 1.668c-1.098.385-2.308.472-3.445.203a6.092 6.092 0 01-3.933-2.884c-.182-.292-.297-.617-.44-.927-.157.24-.29.494-.422.746a.402.402 0 01-.332.222c-.238 0-.455-.257-.359-.485.205-.47.486-.907.8-1.315.068-.07.058-.17.046-.258a5.74 5.74 0 01.1-2.26C4.575 6.545 6.3 4.81 8.39 4.27c.193-.046.387-.094.584-.127zM7.499 5.398a5.354 5.354 0 00-2.463 2.708 5.296 5.296 0 00-.362 2.186c.117-.088.229-.183.335-.285.622-.555 1.35-.985 2.111-1.328 1.414-.643 2.972-.92 4.52-.995-.524-.542-1.091-1.043-1.614-1.585.165-.182.343-.349.522-.517.203.184.39.384.59.572.643.64 1.306 1.262 1.94 1.912-.675.673-1.368 1.329-2.043 2.002a2.222 2.222 0 01-.179.151c-.17-.17-.367-.32-.504-.522.415-.435.888-.816 1.286-1.266-.714.01-1.424.11-2.122.25-.565.1-1.107.29-1.65.473-1.134.425-2.181 1.102-2.98 2.008-.047.047-.04.117-.027.175.094.405.272.784.467 1.15a5.345 5.345 0 003.035 2.463 5.404 5.404 0 005.243-1.124c1.165-1.027 1.82-2.593 1.719-4.13-.124.096-.234.205-.349.308a8.382 8.382 0 01-2.652 1.542 12.391 12.391 0 01-3.955.749c.118.154.263.283.4.42.403.392.8.79 1.21 1.176-.158.185-.341.347-.515.517-.175-.142-.325-.307-.488-.462-.608-.59-1.21-1.188-1.818-1.78a1.98 1.98 0 01-.232-.25c.263-.283.566-.527.835-.803.463-.447.913-.907 1.381-1.348.175.17.359.332.514.52-.416.432-.859.838-1.28 1.263.462.023.918-.056 1.377-.1.33-.035.657-.11.983-.178 1.678-.387 3.313-1.184 4.44-2.498-.432-1.865-2.018-3.4-3.905-3.833-1.257-.32-2.627-.138-3.77.46z" fill="#fff"/>
    </svg>