<svg width="24" height="24" fill="none" viewBox="-2 -2 24 24" id="rdn" x="470" y="120" xmlns="http://www.w3.org/2000/svg">
        <path d="M10 20c5.523 0 10-4.477 10-10S15.523 0 10 0 0 4.477 0 10s4.477 10 10 10z" fill="#fff"/>
        <path d="M5.217 2.166h6.358c.077-.024.116.047.167.086.599.566 1.136 1.194 1.603 1.873a11.88 11.88 0 011.546 3.094c.378 1.163.557 2.394.51 3.617h-3.242c.016-.163.022-.326.018-.49-.034-1.153-.39-2.284-.95-3.286-.6-1.073-1.437-1.999-2.39-2.768-1.035-.838-2.202-1.5-3.417-2.034-.067-.031-.138-.056-.203-.092zM7.57 7.909c1.088 1.968 2.174 3.936 3.258 5.905.26.475.525.949.783 1.425-1.349.864-2.694 1.735-4.042 2.6v-9.93h.001z" fill="#2A2A2A"/>
    </svg>