<svg width="24" height="24" fill="none" viewBox="-2 -2 24 24" id="ren" x="470" y="144" xmlns="http://www.w3.org/2000/svg">
        <path d="M10 20c5.523 0 10-4.477 10-10S15.523 0 10 0 0 4.477 0 10s4.477 10 10 10z" fill="#fff"/>
        <path d="M4.982 5.197l1.219-.645.143.287 4.445-2.58-.287-.216-.359-.215L10 1.757 2.69 5.986v.143l2.078-1.147.215.215zm0 2.724l3.513-2.079.143.287 4.516-2.58-.358-.215-.359-.144-.143-.071-9.605 5.52v.142l2.078-1.146.215.286zm0 1.29l4.66-2.652.143.215 4.516-2.58-.358-.144-.359-.215-.143-.071L2.689 9.928v.215l2.078-1.218.215.287zm0 1.29l5.807-3.297.143.215 4.516-2.508-.359-.215-.358-.215-.143-.072-11.9 6.881v.144l2.08-1.147.214.215zm0 1.363l6.953-4.014.144.286 4.516-2.58-.359-.215-.286-.144-.215-.143-13.046 7.527v.215l2.078-1.219.215.287zm12.043-6.022l-.143-.143-14.193 8.244v.143l2.078-1.147.215.287 6.953-4.086.144.287 5.233-2.94v-.501l-.287-.144zM3.62 14.946l1.147-.717.144.287 7.024-4.014.144.287 5.233-3.011v-.932L3.405 14.803l.215.143zm8.316-3.082l.143.286 5.233-3.082v-.932L4.552 15.52l.215.071 1.147-.717.215.287 5.806-3.297zm-6.022 4.372l1.219-.645.143.287 4.66-2.724.143.287 5.233-3.01v-.933L5.699 16.165l.215.071zm1.147.645l1.219-.645.143.287 3.512-2.007.144.287 5.233-3.011v-1.003l-10.466 6.02.215.072zm.932.574l.215.143 1.219-.717.143.287 2.365-1.362.144.287 5.233-3.01v-.933l-9.319 5.305zm1.362.788l1.147-.716.215.286 1.218-.645.144.287 5.233-3.01V13.44l-8.1 4.73.143.072zm2.652-15.34l-.358-.214-.359-.144-.143-.143-8.458 4.874v.215l2.078-1.218.215.286 2.366-1.362.143.287 4.516-2.58z" fill="#001C3A"/>
    </svg>