<svg width="24" height="24" fill="none" viewBox="-2 -2 24 24" id="renbtc" x="470" y="168" xmlns="http://www.w3.org/2000/svg">
        <g clip-path="url(#mtclip0)">
            <circle cx="10.909" cy="10.909" r="7.273" fill="#fff"/>
            <path d="M1.402 4.857c.32-.447.617-.908.976-1.326a10.077 10.077 0 012.244-1.952A9.879 9.879 0 0111.14.067a9.78 9.78 0 012.93.797c.564.254 1.095.569 1.616.909 1.049.684 1.89 1.576 2.592 2.594.75 1.088 1.238 2.298 1.505 3.596.188.911.267 1.831.187 2.757-.1 1.142-.353 2.242-.826 3.3-.4.895-.894 1.717-1.527 2.46a9.872 9.872 0 01-2.118 1.884 9.556 9.556 0 01-1.717.911c-1.005.396-2.048.663-3.139.71-.768.033-1.532.02-2.29-.115a10.732 10.732 0 01-1.907-.518 9.502 9.502 0 01-1.728-.835 10.18 10.18 0 01-2.101-1.769 9.939 9.939 0 01-1.69-2.543A10.127 10.127 0 010 10.04c-.006-.546.056-1.088.13-1.629.004-.038-.001-.078-.001-.118.063-.04.058-.108.07-.169.16-.849.434-1.66.803-2.442.131-.277.312-.53.4-.826zm11.67 5.364c.27-.144.528-.227.73-.409.784-.7.993-2.35-.279-3.144-.396-.247-.819-.43-1.274-.618.075-.61.32-1.182.398-1.808-.376-.093-.728-.217-1.094-.256L11.11 5.72c-.281-.086-.57-.078-.835-.227.096-.596.322-1.155.384-1.754-.386-.06-.713-.211-1.087-.228l-.439 1.75c-.743-.113-1.426-.37-2.175-.507-.165.37-.238.76-.304 1.174.244.058.456.109.67.158.536.124.683.418.556.888-.09.335-.173.672-.256 1.008-.3 1.209-.598 2.418-.9 3.627-.068.272-.237.36-.513.32-.272-.04-.529-.162-.828-.153-.13.416-.389.783-.48 1.242l2.126.542c-.054.63-.315 1.208-.392 1.843l1.058.254c.234-.583.288-1.194.506-1.797.263.136.555.096.813.267l-.422 1.744c.372.134.735.188 1.108.28l.438-1.756a.285.285 0 01.213-.024 5.502 5.502 0 001.768.088c.512-.056.967-.252 1.332-.637.405-.428.609-.951.707-1.515.08-.458.06-.923-.21-1.33-.21-.318-.5-.56-.878-.756zm-4.227 2.39c.722.18 1.442.371 2.196.233.403-.073.706-.279.828-.684.115-.382.049-.73-.235-1.031-.294-.314-.673-.478-1.063-.614-.467-.164-.94-.312-1.45-.352l-.578 2.354c.123.04.212.072.302.094zm2.548-3.33c.398-.057.73-.321.826-.68.12-.439-.014-.823-.368-1.085-.403-.297-.866-.448-1.345-.553-.179-.04-.354-.143-.57-.073l-.522 2.123c.682.172 1.31.363 1.979.268z" fill="#9B9B9B"/>
        </g>
        <defs>
            <clipPath id="mtclip0">
                <path fill="#fff" d="M0 0h20v20H0z"/>
            </clipPath>
        </defs>
    </svg>