<svg width="24" height="25" fill="none" viewBox="-2 -2 24 25" id="rep" x="228" y="25" xmlns="http://www.w3.org/2000/svg">
        <circle cx="10" cy="10.5" r="10" fill="#5F2652"/>
        <path d="M16.82 13.825l-6.19-11a.678.678 0 00-.26-.27.732.732 0 00-.73 0c-.11.06-.2.16-.26.27l-6.19 11c-.19.33-.07.76.26.96l6.19 3.67c.11.06.24.1.37.1s.26-.03.37-.1l6.19-3.66c.33-.22.44-.65.25-.97zm-3.62-2.34l-.07-.28c0-.18-.05-.35-.1-.51-.18-.51-.5-.97-.91-1.33l-.16-.14c-.05-.04-.1-.08-.14-.1l-.03-.02c-.05-.03-.1-.07-.17-.1l-.02-.03h-.02c-.04-.02-.09-.05-.14-.07l-.02-.02h-.02a1.96 1.96 0 00-.14-.06l-.02-.02h-.03l-.06-.03c-.02-.01-.05-.02-.07-.03-.15-.05-.3-.09-.44-.12l-.08-.01-.03.07c-.1.18-.23.36-.41.53l-.17.15.23.02c.24.01.48.07.71.16.13.05.25.12.37.19l.03.02c.01 0 .03.02.04.03l.08.06c.03.02.05.03.07.05.01.02.03.03.05.05.02.01.03.03.05.04l.03.03.16.16c.02.02.04.05.07.07.01 0 .01.01.02.02l.02.02.15.24c.01.02.02.04.03.05.01.01.01.02.01.03.01.01.02.03.03.04.01.01.01.02.02.03.01.01.01.03.02.04 0 .01.01.03.02.04 0 .01.01.02.02.04 0 0 0 .01.01.02.01.02.02.05.03.05.07.16.11.34.14.52l.08.29c.06.21.37 1.25 1.1 1.62.69.36 1.61.8 2.14 1.06l-5.25 3.11v-2.08c0-.26.57-.65.99-.83l.03-.01c.07-.03.14-.07.21-.11l.02-.01c.15-.09.29-.19.42-.31.01-.01.02-.02.04-.03l.03-.03c.02-.02.05-.04.07-.06l.05-.05.02-.02c.05-.04.09-.09.14-.16l.03-.03c.02-.02.04-.05.06-.07l.02-.03c.01-.01.02-.03.04-.05l.1-.15.03-.03v-.01l.06-.09.09-.15-.05-.06c-.14-.16-.26-.36-.38-.6l-.14-.21-.08.22c-.04.12-.09.23-.16.35-.01.02-.03.05-.04.07-.01.01-.02.03-.02.04l-.03.05c-.02.04-.05.07-.07.1-.01.01-.02.02-.02.03l-.01.01c-.02.03-.04.06-.07.08l-.03.03c-.2.22-.43.4-.7.53l-.04.02c-.01.01-1.45.6-1.45 1.56v2.08l-5.28-3.11c.85-.5 1.56-.84 2.11-1.01.26-.09.9.27 1.36.65l.02.02c.06.06.12.11.17.14l.03.03c.12.1.27.21.43.29l.11.06c.09.05.19.1.29.14l.04.01.07.02c.14.05.28.09.42.12l.08.02.04-.07c.09-.17.23-.34.42-.52l.17-.16-.23-.01c-.22-.01-.44-.06-.65-.14-.01-.01-.02-.01-.03-.01l-.03-.01c-.02 0-.03-.01-.05-.02a.076.076 0 00-.04-.02l-.02-.02-.06-.03c-.16-.08-.31-.17-.44-.28l-.22-.2c-.21-.18-.44-.34-.67-.48-.58-.33-1.06-.43-1.45-.31-.63.2-1.31.54-1.79.8l5.2-9.26v3.96c0 .12-.24.49-.94.81l-.04.02-.18.09-.07.04c-.15.09-.29.19-.43.3-.08.07-.16.15-.24.24-.08.07-.15.16-.22.25-.02.02-.03.04-.05.06-.01.02-.02.04-.04.06l-.03.04v.02c-.01 0-.01.01-.02.02-.02.02-.03.04-.04.07l-.07.12c-.02.02-.03.04-.03.05-.02.04-.04.07-.05.1l-.03.05c-.01.02-.01.04-.02.06-.01.02-.02.04-.03.05 0 .02-.01.03-.01.05l-.05.12c-.01.01-.01.02-.02.03l-.01.03c0 .03-.01.05-.02.07-.01.02-.02.04-.02.05l.09.04-.1-.01c0 .02-.01.04-.02.06 0 .02-.01.03-.01.03 0 .02-.01.04-.01.07-.01.02-.01.04-.02.06v.02c-.01.02-.01.04-.01.06 0 .01 0 .02-.01.03 0 .02-.01.04-.01.06 0 .01 0 .03-.01.04v.04c0 .02-.01.03-.01.05v.03c0 .02-.01.04-.01.07 0 .02 0 .04-.01.09v.12c0 .16.01.31.04.47l.01.07.07.01c.19.04.4.12.67.25l.2.1-.06-.22c-.06-.21-.1-.43-.11-.65v-.04c0-.05 0-.1.01-.16v-.05c0-.04.01-.08.02-.14l.03-.2c0-.02.01-.04.01-.05 0-.01.01-.04.02-.06v-.02.02l.05-.16c0-.01.01-.01.01-.02l.01-.02c.01-.04.03-.07.04-.1.01-.01.02-.03.02-.04l.01-.02c.03-.05.04-.08.05-.1.02-.01.03-.03.04-.04l.05-.1c.01-.02.02-.03.03-.04l.06-.09.12-.14c.02-.02.02-.04.02-.03.15-.16.31-.3.49-.41l.26-.12c0-.01 1.43-.62 1.43-1.58v-3.94l5.27 9.38c-.75-.37-1.33-.66-1.78-.89-.33-.17-.59-.78-.68-1.1z" fill="#fff"/>
    </svg>