<svg width="24" height="24" fill="none" viewBox="-2 -2 24 24" id="rlc" x="470" y="192" xmlns="http://www.w3.org/2000/svg">
        <path d="M10 20c5.523 0 10-4.477 10-10S15.523 0 10 0 0 4.477 0 10s4.477 10 10 10z" fill="#000"/>
        <path fill-rule="evenodd" clip-rule="evenodd" d="M14.802 8.054c.036-.036.106-.036.175-.036 1.055 0 1.898.893 1.898 1.964 0 1-.738 1.786-1.686 1.964h-.212c-.35 0-.702-.107-1.018-.285a.587.587 0 00-.351-.107.7.7 0 00-.387.107c-.246.143-.351.393-.351.678v.322a1.924 1.924 0 01-1.687 1.75h-.21c-.352 0-.703-.107-1.02-.286a.792.792 0 00-.385-.107.703.703 0 00-.387.107c-.246.143-.352.393-.352.679v.321c-.07.929-.808 1.643-1.72 1.75h-.176c-1.055 0-1.898-.893-1.898-1.964.035-1 .737-1.822 1.686-1.93h.212c.35 0 .702.108 1.018.287.103.072.226.11.352.107.14 0 .28-.036.386-.107.246-.143.351-.393.351-.679-.07-1.035.668-1.964 1.687-2.07h.21c.352 0 .703.106 1.02.285.14.071.245.107.386.107a.7.7 0 00.386-.107c.246-.143.352-.393.352-.679-.07-1.036.702-1.964 1.72-2.071zm-4.04-2.465c.07-.035.106-.035.211-.035 1.054 0 1.898.892 1.898 1.964-.035 1-.738 1.821-1.687 1.928h-.21c-.352 0-.703-.107-1.02-.285a.587.587 0 00-.35-.107.699.699 0 00-.387.107c-.246.143-.352.393-.352.678v.322c-.07.928-.808 1.642-1.721 1.75h-.176c-1.054 0-1.897-.893-1.897-1.965 0-.963.703-1.75 1.65-1.892h.212c.351 0 .703.107 1.019.285.103.073.226.11.351.107.14 0 .281-.035.386-.107.247-.143.352-.393.352-.678-.07-1.036.703-1.965 1.721-2.072zM6.897 3.125c1.048 0 1.897.864 1.897 1.929s-.85 1.928-1.897 1.928C5.85 6.982 5 6.119 5 5.054s.85-1.929 1.897-1.929z" fill="url(#mvpaint0_linear)"/>
        <defs>
            <linearGradient id="mvpaint0_linear" x1="13.25" y1="5.5" x2="6.75" y2="13.75" gradientUnits="userSpaceOnUse">
                <stop stop-color="#FFE901"/>
                <stop offset="1" stop-color="#F5C803"/>
            </linearGradient>
        </defs>
    </svg>