<svg width="24" height="24" fill="none" viewBox="-2 -2 24 24" id="rpl" x="470" y="240" xmlns="http://www.w3.org/2000/svg">
        <path d="M10 20c5.523 0 10-4.477 10-10S15.523 0 10 0 0 4.477 0 10s4.477 10 10 10z" fill="url(#mypaint0_linear)"/>
        <path fill-rule="evenodd" clip-rule="evenodd" d="M15.72 5.058c-.143 1.488-1.293 5.016-4.752 7.22l-.515 1.937-1.81 1.231-.538-1.997c-.165.022-.608.004-1.064-.252l-.73.617-.64-.758.729-.617c-.123-.263-.289-.897.03-1.326-.417-.208-1.395-.623-1.831-.804l1.515-1.581 1.92-.273C9.201 7.15 12.37 4.647 15.72 5.058zM10.614 9.5a.975.975 0 101.49-1.26.975.975 0 00-1.49 1.26zM1.99 15.855l2.423-1.903.618.786-2.422 1.903-.618-.786zM1.515 13.952l2.422-1.903.618.786-2.422 1.903-.618-.786zM3.937 17.066l2.422-1.903.618.786-2.422 1.903-.618-.786z" fill="#fff"/>
        <defs>
            <linearGradient id="mypaint0_linear" x1="20" y1="2.781" x2="0" y2="17.961" gradientUnits="userSpaceOnUse">
                <stop stop-color="#EB8263"/>
                <stop offset="1" stop-color="#F6BF79"/>
            </linearGradient>
        </defs>
    </svg>