<svg width="25" height="24" fill="none" viewBox="-2 -2 25 24" id="rub" x="175" y="196" xmlns="http://www.w3.org/2000/svg">
        <g clip-path="url(#nbclip0)">
            <path d="M10.882 20c5.523 0 10-4.477 10-10s-4.477-10-10-10-10 4.477-10 10 4.477 10 10 10z" fill="#F0F0F0"/>
            <path d="M20.26 13.478A9.977 9.977 0 0020.882 10c0-1.223-.22-2.395-.622-3.478H1.504A9.978 9.978 0 00.882 10c0 1.223.22 2.395.622 3.478l9.378.87 9.378-.87z" fill="#005AC5"/>
            <path d="M10.882 20c4.3 0 7.965-2.714 9.378-6.522H1.504A10.004 10.004 0 0010.882 20z" fill="#D80027"/>
        </g>
        <defs>
            <clipPath id="nbclip0">
                <path fill="#fff" transform="translate(.882)" d="M0 0h20v20H0z"/>
            </clipPath>
        </defs>
    </svg>