<svg width="24" height="24" fill="none" viewBox="-2 -2 24 24" id="rvn" x="470" y="312" xmlns="http://www.w3.org/2000/svg">
        <circle cx="10" cy="10" r="10" fill="#fff"/>
        <g clip-path="url(#ncclip0)">
            <path d="M9.203 14.982L5 18 7.668 5.72l1.535 9.261zm.085-.028l2.56.033-4.08-9.219 1.52 9.186zm2.8-.203l1.96-7.264-.741-.906-1.219 8.17zm-.944-11.386L7.919 5.537l4.713-1.526-1.488-.647zm-.406 0l-2.002.066-.293.836 2.295-.903z" fill="#384182"/>
            <path d="M13.165 6.302l-5.162-.708 4.652-1.464.51 2.172zm-1.223-2.73l.283-.769-1.487-.647 1.204 1.417zm.43-.845l.335 1.21 1.984-.525-2.32-.685z" fill="#F79534"/>
            <path d="M11.961 14.94L7.824 5.684l5.393.755-1.256 8.5zm-.973-11.575l-2.55.996-.614 1.134 3.164-2.13zm-1.582-.756l-.637.704 2.115-.052-1.478-.652zm1.115-.548l-1.01.468 2.304 1.015-1.294-1.483zM11.673 2h-1.086l1.681.652L11.673 2zm.628.864l-.26.775.52.25-.26-1.025z" fill="#F0513A"/>
        </g>
        <defs>
            <clipPath id="ncclip0">
                <path fill="#fff" transform="translate(5 2)" d="M0 0h9.695v16H0z"/>
            </clipPath>
        </defs>
    </svg>