<svg width="24" height="24" fill="none" viewBox="-2 -2 24 24" id="safemoon" x="470" y="360" xmlns="http://www.w3.org/2000/svg">
        <path d="M9.403 11.791l.128.631.237-.315.233 1.184.23-1.184.238.315.128-.63H9.403z" fill="url(#nepaint0_linear)"/>
        <path d="M10.63 10.789V9.012c0-.347-.625-1.224-.625-1.224s-.63.877-.63 1.224v1.777c-.409.132-.765.392-1.017.74h3.284a2.031 2.031 0 00-1.013-.74z" fill="#fff"/>
        <path d="M17.57 12.593a.931.931 0 10-1.862 0 .931.931 0 001.862 0zm-1.476 0a.545.545 0 111.09-.002.545.545 0 01-1.09.002z" fill="url(#nepaint1_linear)"/>
        <path d="M10 0A10.012 10.012 0 000 10c0 3.812 2.342 6.878 5.449 7.136 1.89.156 3.717-.518 4.921-1.111a7.548 7.548 0 001.983-1.2l.13-.108c.096-.085.186-.166.273-.248 1.128-1.068 2.471-2.99 2.471-6.084v-.34l-5.184-3.557-5.185 3.557v.34c0 3.092 1.344 5.015 2.471 6.083.132.125.27.248.414.365.474-.17.945-.346 1.406-.55-1.177-.766-2.884-2.419-2.997-5.564l3.891-2.67 3.89 2.67c-.09 2.542-1.235 4.103-2.235 4.984l-.125.096c-.03.023-3.033 2.302-6.018 2.053-1.866-.155-3.38-1.671-3.983-3.784a1.064 1.064 0 00-.28-1.878V10c-.001-1.225.258-2.435.76-3.552A2.53 2.53 0 005.24 2.92c-.03-.053-.06-.103-.092-.154a8.7 8.7 0 0112.172 2.519 1.812 1.812 0 001.171 3.196h.085c.09.501.137 1.009.14 1.517 0 4.518-3.595 8.088-8.735 8.715-4.11.505-6.747-1.201-6.747-1.201C4.773 19.21 6.923 20 10.002 20A10 10 0 0010 0zM1.618 11.345a.67.67 0 01-.153.303 7.687 7.687 0 01-.152-1.019.676.676 0 01.305.716zM4.9 3.102a2.142 2.142 0 01-2.685 2.996A8.771 8.771 0 014.833 2.99c.02.036.046.073.067.111h-.001zm13.593 4.995a1.427 1.427 0 01-.966-2.479c.45.771.779 1.607.974 2.477l-.008.002z" fill="url(#nepaint2_linear)"/>
        <defs>
            <linearGradient id="nepaint0_linear" x1="10.001" y1="13.291" x2="10.001" y2="11.791" gradientUnits="userSpaceOnUse">
                <stop stop-color="#B5E0DA"/>
                <stop offset=".63" stop-color="#3CBAB2"/>
                <stop offset=".97" stop-color="#00A89E"/>
                <stop offset="1" stop-color="#00A69C"/>
            </linearGradient>
            <linearGradient id="nepaint1_linear" x1="283.93" y1="229.731" x2="283.93" y2="199.709" gradientUnits="userSpaceOnUse">
                <stop stop-color="#B5E0DA"/>
                <stop offset=".63" stop-color="#3CBAB2"/>
                <stop offset=".97" stop-color="#00A89E"/>
                <stop offset="1" stop-color="#00A69C"/>
            </linearGradient>
            <linearGradient id="nepaint2_linear" x1="1722.05" y1="3462.2" x2="1722.05" y2="0" gradientUnits="userSpaceOnUse">
                <stop stop-color="#B5E0DA"/>
                <stop offset=".63" stop-color="#3CBAB2"/>
                <stop offset=".97" stop-color="#00A89E"/>
                <stop offset="1" stop-color="#00A69C"/>
            </linearGradient>
        </defs>
    </svg>