<svg width="24" height="24" fill="none" viewBox="-2 -2 24 24" id="saitama" x="470" y="384" xmlns="http://www.w3.org/2000/svg">
        <path fill-rule="evenodd" clip-rule="evenodd" d="M10 20c5.523 0 10-4.477 10-10S15.523 0 10 0 0 4.477 0 10s4.477 10 10 10zm0-.495a9.505 9.505 0 100-19.01 9.505 9.505 0 000 19.01z" fill="url(#nfpaint0_linear_2151_3052)"/>
        <circle cx="10.05" cy="9.951" fill="url(#nfpaint1_linear_2151_3052)" r="9.059"/>
        <path fill-rule="evenodd" clip-rule="evenodd" d="M14.901.528c.084.129.205.48.268.783.106.503.093.623-.161 1.452-.225.733-.265 1.004-.21 1.438.058.471.043.548-.13.64-.55.295-.596.6-.121.797.378.157 1.195.993.969.993-.26 0-.204.186.188.62.383.423.668.998.77 1.555l.064.343-.348-.338c-.52-.504-.586-.285-.195.642.194.459.335.959.334 1.188v.396l-.197-.371c-.185-.35-.474-.536-.356-.23.198.516.267 1.07.243 1.94-.028.962-.034.986-.202.781-.095-.116-.173-.273-.173-.349 0-.235-.173-.151-.24.116-.088.347.027.92.26 1.306.257.427.135.408-.278-.043-.183-.2-.365-.332-.404-.293-.04.039.01.28.11.538.266.684.576 1.811.516 1.872-.03.03-.341-.108-.693-.305-.43-.24-.767-.358-1.025-.358-.553 0-1.373.44-1.731.93-.287.391-.296.437-.25 1.217.04.656.02.821-.098.867-.644.247-3.4.297-3.77.068-.086-.053-.088-.17-.008-.46.059-.213.088-.62.064-.904-.055-.66-.392-1.116-1.084-1.46-.717-.358-1.16-.337-1.923.09-.38.213-.646.308-.684.245-.116-.186.066-1.23.308-1.772.132-.294.218-.556.192-.582-.026-.026-.207.092-.401.263-.194.17-.372.31-.394.31-.023 0 .018-.145.091-.322.277-.674.305-1.56.049-1.56-.05 0-.092.105-.092.233a.594.594 0 01-.174.387c-.163.146-.174.1-.199-.836-.023-.869.045-1.41.24-1.918.03-.079.003-.143-.06-.143s-.204.19-.313.421l-.2.421.042-.495c.023-.272.202-.895.397-1.383.196-.488.346-.898.333-.91-.013-.014-.233.155-.49.374l-.465.398.064-.329a3.379 3.379 0 01.768-1.545c.388-.43.444-.615.186-.615-.229 0 .35-.602 1.008-1.05.271-.185.442-.336.379-.336s-.254-.117-.424-.26c-.282-.237-.303-.296-.246-.676.04-.269-.015-.793-.157-1.484-.222-1.087-.218-1.658.016-2.172.176-.385.463-.326 1.131.235 2.431 2.039 2.446 2.047 3.07 1.835a2.573 2.573 0 011.678 0c.683.246.551.325 2.968-1.76.426-.368.834-.669.906-.669.072 0 .2.106.284.234zm-9.458.51c-.053.033-.096.013-.096-.045 0-.164.125-.126.6.18C7.02 1.87 8.114 3.37 7.723 3.611c-.056.034-.072-.006-.038-.096.035-.09-.056-.324-.211-.548C7.1 2.426 5.562.965 5.443 1.038zm6.645 2.273c-.012-.409.887-1.485 1.687-2.02.654-.436.731-.462.84-.287.048.08.016.095-.1.05-.233-.089-2.203 1.816-2.33 2.252l-.088.305-.009-.3zM7.092 6.73c-.237 0-.11-.155.185-.226.74-.178 1.11-.026 1.326.544.1.263-.01.484-.136.278-.035-.056-.208-.1-.386-.1a.733.733 0 01-.556-.248c-.128-.137-.323-.248-.433-.248zm4.314.614c-.21.21-.14-.307.086-.623.166-.233.278-.288.588-.288.21 0 .508.052.661.115.247.1.256.12.081.16-.109.025-.324.152-.478.282-.154.13-.401.235-.55.235-.148 0-.322.054-.388.119zm-2.198.41c-.13.1-.13.092-.013-.059.075-.095.253-.167.396-.16l.26.014-.247.046a1.102 1.102 0 00-.396.16zm.196.216c-.136.164-.257.127-.15-.045.035-.058.112-.106.17-.106.066 0 .058.057-.02.151zm2.447 2.1c-.025.096-.047.041-.05-.122-.001-.164.02-.242.046-.175.027.067.03.2.004.297zm-2.346 1.536c-.615-.307-.762-1.113-.267-1.46.117-.082.425-.149.69-.149.6 0 .963.31.963.819 0 .342-.34.763-.726.9-.305.107-.123.31.308.341.78.058 1.153-.307 1.397-1.367l.103-.445-.046.56c-.025.31-.071.629-.103.711-.044.116.05.166.42.22.815.118.825.132.825 1.12 0 2.644-1.215 4.37-3.077 4.37-1.66 0-2.774-1.375-3.08-3.798-.156-1.245-.08-1.446.62-1.655.362-.108.527-.205.504-.3a7.299 7.299 0 01-.075-.684l-.04-.544.13.568c.197.857.737 1.316 1.467 1.246.431-.041.426-.234-.013-.453zm4.954 1.368c-.056-.105-.097-.34-.091-.52l.011-.328.075.388c.041.213.152.444.246.513.409.3-.167.457-.61.167-.255-.167-.256-.167-.144.044.063.118.16.242.215.276.119.073.032.246-.124.246-.06 0-.081-.028-.047-.063.035-.035-.025-.174-.132-.31-.234-.299-.264-.815-.046-.815.082 0 .149.044.149.099 0 .13.367.495.498.495.07 0 .07-.06 0-.192zm-9.208.312c-.295.184-.332.045-.136-.507.211-.595.28-.644.199-.142-.045.276-.032.335.056.248a.423.423 0 01.255-.115c.158 0 .084.47-.102.643-.074.07-.088.047-.045-.074.072-.205.03-.214-.227-.053z" fill="#DEE0E0"/>
        <path fill-rule="evenodd" clip-rule="evenodd" d="M9.358 12.628c.2.037.628.044.95.015.354-.032.56-.016.526.041-.093.15.46-.017.905-.274.322-.185.429-.207.532-.11.104.099.121.094.085-.025-.075-.25-.458-.227-.944.058l-.463.271.362-.372c.34-.351.386-.369.788-.302.8.132.805.142.746 1.221-.125 2.326-1.123 3.758-2.686 3.857-.674.043-1.122-.096-1.683-.524-.404-.308-.974-1.358-1.188-2.184-.188-.73-.298-1.938-.19-2.078.045-.056.303-.172.575-.256l.495-.154.412.374c.243.22.562.401.778.442zm-1.696-.146c-.17.14-.183-.023-.015-.19.152-.153.606-.065 1.047.203.473.287.318.327-.332.083-.432-.161-.594-.184-.7-.096zm-.05.825c-.158-.098-.09-.307.136-.419.23-.113.9-.062 1.163.088.097.055.106.086.025.088-.068.001-.124.077-.124.168 0 .091-.074.247-.164.347-.199.22-.595.241-.595.032 0-.178.084-.19.24-.034.136.136.42-.05.42-.275 0-.17-.164-.18-.232-.013-.038.096-.072.092-.146-.014a.224.224 0 00-.25-.08c-.11.043-.137.015-.095-.094.043-.112.008-.143-.129-.115-.103.021-.181.114-.174.207.007.093-.026.144-.074.114zm3.36-.265c.073-.089.251-.182.397-.206.357-.06.92.004 1.034.118.058.059.05.162-.024.276-.1.157-.109.159-.063.011.033-.107-.02-.21-.141-.275-.173-.093-.195-.072-.195.19 0 .162-.045.323-.1.357-.056.034-.075.104-.044.155.117.188-.327.084-.509-.12-.187-.21-.187-.211.021-.084.116.071.283.101.372.067.174-.067.225-.365.062-.365a.1.1 0 00-.099.099c0 .054-.066.099-.148.099-.082 0-.149-.073-.149-.16 0-.133-.026-.14-.148-.038-.11.091-.149.093-.149.006 0-.067-.052-.086-.123-.043-.09.054-.088.03.007-.087zm-1.099 1.881c-.023.15-.041.027-.041-.272 0-.3.018-.422.041-.272.023.15.023.394 0 .544zm.3.987c-.15.022-.394.022-.544 0-.15-.023-.027-.041.272-.041.3 0 .422.018.272.04z" fill="#DEE0E0"/>
        <path d="M6.928 16.145c.424.216.857.697.946 1.05.16.636-.417 2.322-.84 2.456-.273.087-.608-.104-.608-.345 0-.129-.068-.195-.198-.195-.315 0-.235-.185.297-.684.272-.255.495-.527.495-.603 0-.076-.145.018-.322.209-.177.19-.432.421-.566.514a.575.575 0 00-.256.44c-.009.218-.064.279-.275.304-.187.022-.264-.014-.264-.124 0-.085-.046-.155-.102-.155-.136 0-.303-.457-.233-.638.03-.08.268-.28.527-.447.26-.167.556-.401.66-.521l.187-.218-.247.155a145 145 0 01-.768.476c-.514.315-.705.626-.583.944.033.086-.022.189-.132.248-.282.15-.399.122-.399-.098 0-.13-.066-.198-.193-.198-.144 0-.21-.092-.262-.363-.088-.472.024-.63.58-.819a2.87 2.87 0 00.736-.38c.26-.21.261-.217.03-.105a6.17 6.17 0 01-.841.275c-.497.13-.618.206-.743.464-.105.219-.213.306-.37.297-.291-.017-.343-.182-.196-.629.113-.342.178-.388.962-.682a11.955 11.955 0 001.387-.624c.604-.343.926-.344 1.591-.004zM14.905 16.284c.464.244 1.044.495 1.289.557.527.133.836.476.836.93 0 .274-.035.32-.242.32-.178 0-.269-.075-.342-.286-.055-.157-.158-.302-.228-.323a33.009 33.009 0 01-1.515-.504c-.136-.056-.114-.013.072.138.148.12.502.297.786.394.615.21.727.356.637.837-.05.271-.117.363-.262.363-.127 0-.193.068-.193.198 0 .223-.117.249-.41.092-.12-.064-.177-.167-.143-.256.122-.317-.067-.627-.571-.937l-.757-.468-.248-.156.188.218c.103.12.404.357.668.526.415.267.48.353.48.634 0 .198-.057.348-.148.383a.249.249 0 00-.148.215c0 .114-.076.15-.273.127-.202-.023-.272-.086-.272-.242 0-.128-.225-.428-.57-.76-.312-.3-.569-.488-.569-.416 0 .072.223.331.495.576.53.477.614.662.298.662-.133 0-.198.066-.198.2 0 .263-.43.436-.71.287-.303-.163-.695-1.113-.745-1.81-.034-.486-.004-.67.153-.918.333-.528 1.067-.974 1.674-1.017.069-.005.504.191.968.436zM10.743 12.38c-.256.102-1.267.114-1.502.018-.242-.099.534-.186 1.205-.135.37.028.445.057.297.117z" fill="#DEE0E0"/>
        <path d="M7.822 6.73c0 .055.089.1.198.1.109 0 .198.044.198.098 0 .138-.331.124-.475-.02-.145-.144-.154-.277-.02-.277a.1.1 0 01.099.1zM12.277 6.71c0 .14-.232.317-.415.317-.098 0-.179-.063-.179-.14 0-.09.07-.12.198-.087.111.03.198.003.198-.058 0-.061.045-.111.1-.111.054 0 .098.036.098.08z" fill="#FFD67E"/>
        <ellipse cx="8.366" cy="13.366" rx=".248" ry=".297" fill="#FFD67E"/>
        <ellipse cx="11.634" cy="13.366" rx=".248" ry=".297" fill="#FFD67E"/>
        <path fill-rule="evenodd" clip-rule="evenodd" d="M13.955.52c-.303.23-.95.753-1.436 1.162-.487.409-.96.801-1.051.872-.138.107-.245.102-.623-.026-.552-.187-1.356-.193-1.86-.013-.352.125-.395.117-.798-.15a14.072 14.072 0 01-1.113-.88C5.822.395 5.164.04 4.897.306c-.076.075-.215.435-.31.8-.17.647-.17.684.045 1.744.145.715.199 1.235.158 1.533-.056.402-.034.479.199.694l.26.242-.54.416c-.559.432-1.305 1.264-1.214 1.355.03.029.143.004.253-.055.33-.177.335-.125.024.264-.164.205-.37.545-.457.756-.2.478-.32 1.744-.167 1.744.058 0 .133-.085.166-.189a.776.776 0 01.203-.308c.108-.089.093.026-.059.462-.188.54-.246 1.08-.207 1.91.015.311.028.325.15.16.117-.161.14-.101.197.512.04.425.022.816-.045 1.01-.143.407-.053.485.312.27.171-.102.294-.13.294-.067 0 .183-.296.827-.466 1.015-.232.256-.106.31.317.133.366-.153.368-.153.31.075a9.27 9.27 0 00-.122.915c-.035.378-.08.703-.098.724-.018.02-.268.114-.556.207-.757.245-.949.754-.709 1.884l.094.446.18-.272c.1-.15.238-.273.308-.273.125 0 .445.67.445.932 0 .106.08.095.367-.051.572-.292.721-.254.725.183.002.308.024.346.124.223.135-.166.831-.202.941-.048.082.113.861.181 1.176.103.118-.03.31-.208.425-.395l.211-.341 1.357.051c.94.036 1.594.01 2.13-.087l.774-.14.133.256c.073.14.246.361.385.49.215.201.315.227.664.171.26-.041.463-.023.55.048.11.092.137.072.137-.097 0-.192.037-.205.42-.147.232.035.477.108.545.162.094.074.124.012.124-.261 0-.408.07-.43.68-.215.362.128.409.127.409-.005 0-.258.296-.733.457-.733.085 0 .241.1.347.223.181.21.19.212.17.025-.013-.11.032-.363.1-.563.094-.274.098-.464.018-.762-.105-.388-.494-.804-.754-.804-.326 0-.635-.236-.638-.486-.001-.141-.104-.554-.228-.917l-.225-.66.28.144c.471.243.613.017.281-.448a1.976 1.976 0 01-.261-.55l-.07-.28.308.183c.384.227.463.153.349-.324-.13-.54-.052-1.612.115-1.612.318 0 .288-1.111-.053-2.01-.209-.55-.208-.709.002-.317.073.136.198.247.278.247.117 0 .135-.112.093-.58-.058-.639-.363-1.422-.69-1.77l-.21-.224h.215c.118 0 .215-.054.215-.121 0-.163-1.13-1.23-1.513-1.428l-.306-.158.329-.269c.32-.261.327-.283.261-.81-.055-.438-.018-.697.194-1.37.271-.856.275-1.166.026-2.005-.12-.399-.412-.771-.604-.767-.066.001-.368.19-.67.42zm.946.008c.084.129.205.48.268.783.106.503.093.623-.161 1.452-.225.733-.265 1.004-.21 1.438.058.471.043.548-.13.64-.55.295-.596.6-.121.797.378.157 1.195.993.969.993-.26 0-.204.186.188.62.383.423.668.998.77 1.555l.064.343-.348-.338c-.52-.504-.586-.285-.195.642.194.459.335.959.334 1.188v.396l-.197-.371c-.185-.35-.474-.536-.356-.23.198.516.267 1.07.243 1.94-.028.962-.034.986-.202.781-.095-.116-.173-.273-.173-.349 0-.235-.173-.15-.24.116-.088.347.027.92.26 1.306.257.427.135.408-.278-.043-.183-.2-.365-.332-.404-.293-.04.039.01.28.11.538.266.684.576 1.811.516 1.872-.03.03-.341-.108-.693-.305-.43-.24-.767-.358-1.025-.358-.553 0-1.373.44-1.731.93-.287.391-.296.437-.25 1.217.04.656.02.821-.098.867-.644.247-3.4.297-3.77.068-.086-.053-.088-.17-.008-.46.059-.213.088-.62.064-.904-.055-.66-.392-1.116-1.084-1.46-.717-.358-1.16-.337-1.923.09-.38.213-.646.308-.684.245-.116-.186.066-1.23.308-1.772.132-.294.218-.556.192-.582-.026-.026-.207.092-.4.263-.195.17-.373.31-.395.31-.023 0 .018-.145.091-.322.277-.674.305-1.56.049-1.56-.05 0-.092.105-.092.233a.594.594 0 01-.174.387c-.163.146-.174.1-.199-.836-.023-.869.045-1.41.24-1.918.03-.079.003-.143-.06-.143s-.204.19-.313.421l-.2.421.042-.495c.023-.272.202-.895.397-1.383.196-.488.346-.898.333-.91-.013-.014-.233.155-.49.374l-.465.398.064-.329a3.38 3.38 0 01.768-1.545c.388-.429.444-.615.186-.615-.228 0 .35-.602 1.008-1.05.271-.185.442-.336.379-.336s-.254-.117-.424-.26c-.282-.237-.303-.296-.246-.676.04-.269-.015-.793-.157-1.484-.222-1.087-.218-1.658.016-2.172.176-.385.463-.326 1.131.235 2.431 2.039 2.446 2.047 3.07 1.835a2.573 2.573 0 011.678 0c.683.246.551.325 2.968-1.76.426-.368.834-.669.906-.669.072 0 .2.106.284.234zM5.347.993c0 .058.043.078.096.045.119-.073 1.657 1.388 2.032 1.93.155.223.246.457.211.547-.034.09-.018.13.038.096.391-.242-.704-1.742-1.778-2.438-.474-.306-.6-.344-.6-.18zm8.428.299c-.8.534-1.699 1.61-1.687 2.019l.01.3.088-.305c.127-.436 2.096-2.34 2.329-2.252.116.045.148.03.1-.05-.109-.175-.186-.149-.84.288zM7.277 6.504c-.295.07-.422.226-.185.226.11 0 .305.111.433.248a.733.733 0 00.556.247c.178 0 .351.045.386.1.127.207.236-.014.136-.277-.216-.57-.587-.722-1.326-.544zm4.215.217c-.225.316-.297.834-.086.623.066-.065.24-.119.389-.119.148 0 .395-.106.55-.235.153-.13.368-.257.477-.282.175-.04.166-.06-.08-.16a2.1 2.1 0 00-.662-.115c-.31 0-.422.055-.588.288zm-3.67.009c0 .054.09.099.198.099.109 0 .198.045.198.1 0 .137-.331.123-.475-.02-.145-.145-.154-.278-.02-.278a.1.1 0 01.099.099zm4.455-.02c0 .14-.232.317-.415.317-.098 0-.179-.063-.179-.14 0-.09.07-.12.198-.087.111.03.198.003.198-.058 0-.061.045-.111.1-.111.054 0 .098.036.098.08zm-3.082.985c-.118.151-.116.159.013.06.082-.063.26-.135.396-.16l.248-.046-.26-.013c-.144-.008-.322.064-.397.16zm.059.23c-.107.172.014.209.15.045.078-.094.086-.15.02-.15-.058 0-.135.047-.17.105zm2.548 2.023c.002.163.024.218.049.122a.565.565 0 00-.004-.297c-.027-.067-.047.011-.045.175zm-2.564.198c-.495.347-.348 1.153.267 1.46.439.219.444.412.013.453-.73.07-1.27-.39-1.467-1.246l-.13-.568.04.544c.023.3.056.608.075.685.023.094-.142.191-.504.299-.7.209-.776.41-.62 1.655.306 2.423 1.42 3.797 3.08 3.797 1.862 0 3.077-1.725 3.077-4.369 0-.988-.01-1.002-.824-1.12-.37-.054-.465-.104-.42-.22.03-.082.077-.402.102-.71l.046-.561-.103.445c-.244 1.06-.617 1.425-1.397 1.367-.431-.032-.613-.234-.308-.341.387-.137.726-.558.726-.9 0-.51-.364-.819-.963-.819-.265 0-.573.067-.69.149zm.12 2.482c.2.037.628.044.95.015.354-.032.56-.016.526.041-.093.15.461-.017.905-.274.322-.185.429-.207.532-.11.104.099.121.094.085-.025-.075-.25-.458-.227-.944.058l-.463.271.362-.372c.34-.351.386-.369.788-.302.8.132.805.142.746 1.221-.125 2.326-1.123 3.758-2.686 3.857-.674.043-1.122-.096-1.683-.524-.404-.308-.974-1.358-1.188-2.184-.188-.73-.298-1.938-.19-2.078.045-.056.303-.172.575-.256l.496-.154.411.374c.243.22.562.402.778.442zm-1.711-.337c-.168.168-.154.332.015.19.106-.087.268-.064.7.097.65.244.805.204.332-.083-.441-.268-.895-.356-1.047-.204zm3.096.088c-.256.103-1.267.116-1.502.02-.242-.1.534-.187 1.205-.136.37.028.445.057.297.117zm3.625.075c-.006.18.035.415.091.52.07.132.07.192 0 .192-.131 0-.498-.365-.498-.495 0-.055-.067-.1-.149-.1-.217 0-.188.517.046.816.107.136.167.275.132.31-.034.035-.013.063.047.063.156 0 .243-.173.124-.246-.055-.034-.152-.158-.215-.276-.112-.21-.11-.211.145-.044.442.29 1.018.132.61-.167-.095-.069-.206-.3-.247-.513l-.075-.388-.011.328zm-9.253.325c-.196.552-.159.69.136.507.258-.161.299-.152.227.053-.043.12-.03.143.045.074.186-.172.26-.643.102-.643a.423.423 0 00-.255.115c-.088.088-.101.028-.056-.248.081-.502.012-.453-.199.142zm2.633.11c-.227.11-.294.32-.135.418.048.03.081-.021.074-.114-.007-.093.07-.186.174-.207.137-.028.172.003.129.115-.042.11-.015.137.095.095a.224.224 0 01.25.079c.074.106.108.11.146.014.068-.166.232-.157.232.013 0 .224-.284.41-.42.275-.156-.155-.24-.144-.24.034 0 .21.396.188.595-.032.09-.1.164-.256.164-.347 0-.09.056-.167.124-.168.08-.002.072-.033-.025-.088-.263-.15-.934-.2-1.163-.088zm3.62-.053c-.145.024-.323.117-.395.206-.095.117-.097.141-.008.087.072-.042.124-.024.124.043 0 .02.002.037.007.047.016.034.058.017.142-.053.122-.101.148-.095.148.037 0 .088.067.16.149.16.082 0 .148-.044.148-.098a.1.1 0 01.1-.1c.162 0 .111.299-.063.366-.09.034-.256.004-.372-.067-.208-.127-.208-.127-.02.084.18.204.625.308.508.12-.031-.051-.011-.12.044-.155.055-.034.1-.195.1-.357 0-.262.022-.283.195-.19.121.065.174.168.14.275-.045.148-.036.146.064-.01.073-.115.082-.218.024-.277-.115-.114-.677-.179-1.034-.118zM9.833 14.65c0 .3.018.422.041.272.023-.15.023-.395 0-.544-.023-.15-.041-.028-.041.272zm-2.904 1.494c.424.216.857.697.946 1.05.16.636-.417 2.322-.84 2.456-.273.087-.608-.104-.608-.345 0-.129-.068-.195-.198-.195-.315 0-.235-.185.297-.684.272-.255.495-.527.495-.603 0-.076-.145.018-.322.209-.177.19-.432.421-.566.514a.575.575 0 00-.256.44c-.009.218-.064.279-.275.304-.187.022-.264-.014-.264-.124 0-.085-.046-.155-.102-.155-.136 0-.303-.457-.233-.638.03-.08.268-.28.527-.447.26-.167.556-.401.66-.521l.187-.218-.247.155c-.136.086-.482.3-.768.476-.514.315-.705.626-.583.944.033.086-.022.189-.132.248-.282.15-.399.122-.399-.098 0-.13-.066-.198-.193-.198-.144 0-.21-.092-.262-.363-.088-.472.024-.63.58-.819.252-.085.583-.256.736-.38.26-.21.261-.217.03-.105a6.17 6.17 0 01-.841.275c-.497.13-.618.206-.743.464-.105.219-.213.306-.37.297-.291-.016-.343-.182-.196-.629.113-.342.178-.388.962-.682a11.954 11.954 0 001.387-.624c.604-.343.926-.344 1.591-.004zm2.7-.235c.15.022.396.022.546 0 .15-.023.027-.041-.273-.041-.3 0-.422.018-.272.04zm5.277.374c.464.244 1.044.495 1.289.557.527.133.836.476.836.93 0 .274-.035.32-.242.32-.178 0-.269-.075-.342-.286-.055-.157-.158-.302-.228-.323a33.05 33.05 0 01-1.515-.504c-.136-.056-.114-.013.072.138.148.12.502.297.786.394.615.21.727.356.637.837-.05.271-.117.363-.262.363-.127 0-.193.068-.193.198 0 .223-.117.249-.41.092-.12-.064-.177-.167-.143-.256.122-.317-.067-.627-.571-.937l-.757-.468-.248-.156.188.218c.103.12.404.357.668.526.415.267.48.353.48.634 0 .198-.057.348-.148.383a.249.249 0 00-.148.215c0 .114-.076.15-.273.127-.202-.023-.272-.086-.272-.242 0-.128-.225-.428-.57-.76-.312-.3-.569-.488-.569-.416 0 .072.223.331.495.576.53.477.614.662.298.662-.133 0-.198.066-.198.2 0 .263-.43.436-.71.287-.303-.163-.695-1.113-.745-1.81-.034-.486-.004-.67.153-.918.333-.528 1.067-.974 1.674-1.017.069-.005.504.191.968.436z" fill="#000"/>
        <defs>
            <linearGradient id="nfpaint0_linear_2151_3052" x1="10" y1="0" x2="10" y2="20" gradientUnits="userSpaceOnUse">
                <stop stop-color="#FFD67E"/>
                <stop offset="1" stop-color="#EE4A96"/>
            </linearGradient>
            <linearGradient id="nfpaint1_linear_2151_3052" x1="10.05" y1=".891" x2="10.05" y2="19.01" gradientUnits="userSpaceOnUse">
                <stop stop-color="#FFD67E"/>
                <stop offset="1" stop-color="#EE4A96"/>
            </linearGradient>
        </defs>
    </svg>