<svg width="24" height="24" fill="none" viewBox="-2 -2 24 24" id="sanshu" x="470" y="408" xmlns="http://www.w3.org/2000/svg">
        <circle cx="10" cy="10" r="10" fill="#FFAEFF"/>
        <path d="M3.644 12.558c-.388 0-1.318-.775-1.55-1.085l-.078-.388v-.387l.077-.543.155-.543.078-.465.155-.465.155-.62.232-.543-.077-.155-.155-.62-.155-.93-.155-1.395V3.41l.077-.62.233-.853.387-.775.62-.155.698.155.93.465.698.698.62.775.93-.62 1.086-.466L10 1.783l1.396.232 1.085.466 1.008.62.154-.233.698-.853.775-.62.776-.387.93.077.543.698.232 1.008.077 1.085-.077 1.318-.233 1.55-.232.698.077.387.465 1.318.233 1.24v1.086c-.233.31-1.163 1.085-1.55 1.085-2.868 0-3.566-1.86-6.357-1.938-2.79.078-3.488 1.938-6.356 1.938z" fill="#FFA700"/>
        <path fill-rule="evenodd" clip-rule="evenodd" d="M2.015 11.473c.233.31 1.163 1.085 1.55 1.085 1.464 0 2.362-.484 3.261-.968.864-.466 1.729-.932 3.096-.97 1.368.038 2.233.504 3.096.97.9.484 1.798.968 3.261.968.388 0 1.318-.775 1.55-1.085l.155.62-.077 1.085-.233.853-.542 1.008-.853 1.008-1.395.93-1.706.697-2.48.466H8.992l-1.705-.31-1.396-.466-1.317-.542-.62-.465-.853-.776-.698-1.085-.233-.697-.155-.62-.155-.698v-.62l.155-.388zm8.062 1.008l-1.162.465v.232l.155.465.232.388.31.388.465.232.466-.31.31-.31.155-.388.155-.542-.078-.233-.543-.155-.465-.232z" fill="#fff"/>
        <path fill-rule="evenodd" clip-rule="evenodd" d="M3.381.796c-.454.107-.794.606-.97 1.423-.12.555-.176 1.414-.143 2.179.053 1.228.217 2.277.454 2.913l.07.187-.14.373a12.871 12.871 0 00-.747 3.033c-.035.295-.043.475-.044 1-.002.654.009.81.09 1.31.168 1.029.588 1.836 1.356 2.6 1.12 1.116 2.853 1.927 4.932 2.31 1.562.287 3.096.206 4.73-.252 1.608-.45 2.914-1.154 3.821-2.057.768-.765 1.19-1.572 1.357-2.601.081-.5.092-.656.09-1.31-.001-.525-.01-.705-.045-1a12.872 12.872 0 00-.747-3.033l-.14-.373.075-.197c.268-.713.454-2.084.454-3.367.001-1.203-.153-2.064-.466-2.603-.156-.269-.416-.48-.661-.536-.132-.03-.567-.025-.728.01-.43.09-.868.313-1.29.657a6.185 6.185 0 00-1.005 1.097c-.207.297-.17.276-.307.171-.692-.532-1.692-.945-2.642-1.09a6.858 6.858 0 00-1.372 0c-.95.145-1.95.558-2.642 1.09-.137.105-.1.125-.306-.169a6.218 6.218 0 00-1.006-1.1c-.422-.342-.86-.565-1.29-.657-.156-.033-.61-.038-.738-.008zm.598.32c.714.098 1.542.708 2.263 1.665l.149.197-.16.167c-.158.164-.208.251-.166.293.037.037.11.001.473-.235 1.368-.893 2.375-1.251 3.51-1.251 1.137 0 2.144.358 3.512 1.25.362.237.435.273.473.236.041-.042-.008-.13-.166-.293l-.16-.167.149-.197c.619-.821 1.309-1.383 1.96-1.596.332-.108.727-.116.927-.02.337.164.583.748.696 1.649.134 1.079.05 2.816-.19 3.94-.096.445-.07.436-.246.08-.187-.379-.27-.51-.324-.51-.058 0-.05.03.159.585.756 2.01 1.083 3.634 1.045 5.185-.03 1.254-.295 2.128-.88 2.912-.687.921-1.8 1.682-3.254 2.222-1.311.487-2.876.75-4.085.685-2.289-.122-4.586-.975-5.928-2.202-1.038-.95-1.482-2.005-1.521-3.617-.038-1.551.289-3.174 1.045-5.185.209-.554.217-.585.16-.585-.055 0-.138.131-.325.51-.176.356-.15.365-.245-.08-.189-.879-.292-2.232-.245-3.205.012-.267.037-.598.054-.735.109-.868.342-1.445.661-1.632.142-.083.373-.107.659-.067zm-.336.746c-.187.052-.278.2-.317.518-.034.277.023.741.084.68.02-.02.038-.114.09-.483.057-.412.11-.504.295-.502.207.002.401.11.675.379.188.184.439.501.577.73.054.089.068.132.068.217a.424.424 0 01-.026.154 2.725 2.725 0 01-.238.27 3.794 3.794 0 00-.498.619c-.07.114-.1.21-.066.21.012 0 .233-.204.491-.454.533-.516.559-.553.56-.796.001-.169-.021-.227-.173-.455-.532-.797-1.102-1.204-1.522-1.087zm12.511-.008c-.354.075-.764.434-1.194 1.05-.175.25-.222.375-.206.553.019.203.059.256.564.744.258.25.479.453.49.453.112 0-.19-.445-.571-.842-.244-.254-.263-.291-.243-.472.008-.07.042-.136.146-.289.406-.594.819-.95 1.128-.973a.37.37 0 01.16.015c.087.047.147.261.202.725.013.107.035.21.05.23.024.033.028.032.048-.021.057-.15.076-.489.04-.713-.036-.22-.12-.368-.244-.432a.748.748 0 00-.37-.028zM4.882 8.704c-.013.033.01.172.042.25a.895.895 0 00.094.148c.054.07.068.103.052.119-.039.039-.408.042-.523.004-.057-.018-.107-.029-.113-.023-.005.005-.004.044.004.086.01.054.042.103.113.171l.098.095-.052.079a.355.355 0 00-.055.145c-.005.11.059.097.428-.09.587-.298.855-.374 1.312-.374.427 0 .628.056 1.224.34.39.185.477.184.384-.008-.052-.108-.291-.337-.449-.43-.415-.247-1.071-.349-1.622-.252-.374.065-.588.014-.824-.198-.078-.07-.105-.085-.113-.062zm10.218.064c-.23.209-.448.26-.821.196-.55-.097-1.207.005-1.622.252-.158.093-.397.322-.45.43-.092.192-.005.193.385.008.596-.284.796-.34 1.224-.34.457 0 .725.076 1.31.374.37.188.435.201.43.09a.355.355 0 00-.055-.145l-.052-.079.098-.095c.07-.068.102-.117.113-.171.007-.042.01-.08.004-.086-.006-.006-.057.005-.113.023-.116.038-.484.035-.524-.004-.015-.016-.002-.048.051-.117a.601.601 0 00.137-.3c.02-.128-.005-.136-.115-.036zM9.67 10.515c-.222.023-.48.083-.566.134-.173.101-.19.266-.053.542.15.301.48.584.777.663l.087.023-.01.116a.734.734 0 01-.42.59c-.31.136-.715.12-1.051-.041-.198-.095-.422-.31-.47-.452l-.03-.094.113-.012a2.88 2.88 0 00.17-.023c.054-.01.055-.012.02-.052a.534.534 0 00-.137-.088.605.605 0 00-.426-.016.426.426 0 00-.264.383c0 .156.02.158.15.012l.118-.132.025.113c.057.25.2.418.468.55.156.077.434.162.53.163.035 0 .044.024.075.203.04.241.161.613.265.82.206.409.473.672.801.787.076.027.17.05.208.05.1 0 .327-.086.458-.173.317-.21.569-.6.729-1.127a3.57 3.57 0 00.095-.396c.022-.144.03-.164.066-.164.097-.001.374-.086.53-.163.27-.132.412-.3.469-.55l.025-.113.118.132c.13.146.15.144.15-.012a.426.426 0 00-.264-.383.605.605 0 00-.426.016.534.534 0 00-.136.088c-.036.04-.036.041.02.052.03.006.107.016.17.023l.113.012-.032.094c-.048.141-.272.357-.469.452-.336.161-.741.177-1.05.04a.735.735 0 01-.42-.589l-.011-.116.087-.023c.37-.099.778-.513.858-.87.056-.249-.077-.367-.496-.44a4.848 4.848 0 00-.964-.029zm.87.26c.313.053.307.13-.016.183-.303.05-.993.021-1.143-.047-.204-.093.23-.183.789-.164.137.005.304.018.37.029zm-.59 2.039c0 .111.03.428.051.565.01.055.022.075.049.075.027 0 .04-.02.048-.075.024-.145.051-.457.052-.579 0-.068.008-.128.017-.134.01-.006.043.017.075.051.146.156.397.274.677.317.077.012.143.025.147.03.014.014-.1.405-.167.57-.154.378-.393.672-.642.79-.236.113-.426.055-.687-.208-.215-.217-.358-.481-.467-.862-.09-.313-.09-.295.02-.31.296-.04.526-.136.692-.29.12-.11.134-.103.135.06z" fill="#220059"/>
        <ellipse cx="4.186" cy="11.163" rx="1.085" ry=".62" fill="#FFAEFF"/>
        <ellipse cx="6.986" cy="4.8" rx="1.085" ry=".62" transform="rotate(-29.926 6.986 4.8)" fill="#fff"/>
        <ellipse rx="1.085" ry=".62" transform="scale(-1 1) rotate(-29.926 2.463 26.782)" fill="#fff"/>
        <ellipse cx="15.814" cy="11.163" rx="1.085" ry=".62" fill="#FFAEFF"/>
    </svg>