<svg width="25" height="24" fill="none" viewBox="-2 -2 25 24" id="sar" y="220" xmlns="http://www.w3.org/2000/svg">
        <g clip-path="url(#niclip0)">
            <path d="M10.5 20c5.523 0 10-4.477 10-10s-4.477-10-10-10S.5 4.477.5 10s4.477 10 10 10z" fill="#6DA544"/>
            <path d="M6.152 11.957c0 .72.584 1.304 1.305 1.304h3.913c0 .6.486 1.087 1.087 1.087h1.304c.6 0 1.087-.487 1.087-1.087v-1.304H6.152zM14.957 5.652v3.044c0 .48-.39.87-.87.87v1.303a2.176 2.176 0 002.174-2.173V5.652h-1.304zM5.609 8.697c0 .479-.39.87-.87.87v1.303a2.176 2.176 0 002.174-2.173V5.653H5.61v3.044z" fill="#F0F0F0"/>
            <path d="M14.305 5.652H13v3.044h1.305V5.652zM11.044 7.391a.218.218 0 01-.435 0V5.652H9.305v1.74a.218.218 0 01-.435 0v-1.74H7.565v1.74a1.523 1.523 0 002.392 1.247 1.513 1.513 0 001.061.261.87.87 0 01-.844.665v1.305a2.176 2.176 0 002.174-2.174V5.652h-1.304v1.74z" fill="#F0F0F0"/>
            <path d="M9.522 9.565H7.565v1.305h1.957V9.565z" fill="#F0F0F0"/>
        </g>
        <defs>
            <clipPath id="niclip0">
                <path fill="#fff" transform="translate(.5)" d="M0 0h20v20H0z"/>
            </clipPath>
        </defs>
    </svg>