<svg width="24" height="24" fill="none" viewBox="-2 -2 24 24" id="sfuel" y="460" xmlns="http://www.w3.org/2000/svg">
        <path fill-rule="evenodd" clip-rule="evenodd" d="M9.015.67c-.596.365-1.123.665-1.17.666-.049.001-.1.033-.113.07-.023.063-.289.23-1.987 1.245-.34.203-.617.387-.617.409 0 .068 3.45 2.166 3.563 2.166.036 0 .368-.201.737-.447.37-.246.716-.448.771-.449.109-.001 1.868.907 2.192 1.132.109.076.215.138.236.138.021 0 .268.129.55.286.28.158.763.423 1.071.59.682.366 2.139 1.159 2.665 1.449l.384.212.051-1.437c.029-.79.04-1.721.027-2.07l-.024-.632-.449-.253-.86-.48c-.707-.392-1.082-.61-1.121-.652a5.92 5.92 0 00-.56-.303 7.048 7.048 0 01-.561-.299c-.02-.02-.155-.1-.3-.178-.764-.41-2.59-1.437-2.99-1.68-.143-.088-.295-.157-.336-.153-.041.004-.562.305-1.159.67zM3.021 5.118c.019.782.043.946.144.985.096.037 1.662.95 3.122 1.82.123.073.342.199.486.278.144.08.396.22.56.314.165.093.518.288.785.432.268.143.575.324.685.4.109.077.215.14.235.14.021 0 .251.122.512.271.261.15.66.372.886.495.468.254 1.259.707 1.88 1.076.232.138.443.251.468.251.026 0 .307.153.624.34.319.188.63.367.69.399.393.2.791.427.823.467.02.027.155.101.3.166.143.065.395.201.56.303.164.103.383.232.486.288l.612.34c.234.132.445.239.467.239.063 0 .048-1.82-.015-1.907-.03-.042-.24-.174-.466-.294-.226-.12-.714-.393-1.084-.605a49.98 49.98 0 00-1.271-.703 10.004 10.004 0 01-.673-.377 27.027 27.027 0 00-1.084-.62 112.59 112.59 0 01-2.342-1.318c-.363-.21-.67-.381-.683-.381-.013 0-.432-.235-.932-.523-.499-.288-.94-.524-.98-.524a.074.074 0 01-.071-.074c0-.041-.031-.075-.068-.075-.038 0-.568-.28-1.178-.622a226.06 226.06 0 00-1.595-.888c-.267-.146-.789-.437-1.159-.647-.37-.21-.69-.383-.71-.384-.02 0-.027.421-.014.938z" fill="#39BEEA"/>
        <path fill-rule="evenodd" clip-rule="evenodd" d="M11.371 19.33c.596-.365 1.123-.665 1.171-.666.048-.001.099-.033.112-.07.023-.063.29-.23 1.988-1.245.339-.203.616-.387.616-.409 0-.068-3.45-2.166-3.563-2.166-.036 0-.367.201-.737.447-.369.246-.716.448-.77.449-.11.001-1.869-.907-2.192-1.132a1.073 1.073 0 00-.237-.138c-.02 0-.268-.129-.549-.287a87.5 87.5 0 00-1.072-.588c-.681-.367-2.138-1.16-2.664-1.45l-.385-.212-.05 1.437c-.03.79-.041 1.721-.028 2.07l.025.632.448.253.86.48c.708.392 1.083.61 1.121.652.021.023.273.159.561.303.288.143.54.278.56.299.021.02.156.1.3.177.765.411 2.59 1.438 2.99 1.68.144.089.295.157.336.154.042-.004.563-.305 1.16-.67zm5.995-4.448c-.02-.782-.043-.946-.144-.985-.097-.037-1.663-.95-3.122-1.82a20.633 20.633 0 00-.486-.278c-.144-.08-.396-.22-.56-.314a51.711 51.711 0 00-.786-.432 9.286 9.286 0 01-.684-.4 1.085 1.085 0 00-.236-.14c-.02 0-.25-.122-.512-.271-.26-.15-.66-.372-.885-.495a64.716 64.716 0 01-1.88-1.076c-.233-.138-.444-.251-.469-.251-.025 0-.306-.153-.624-.34a27.954 27.954 0 00-.69-.399c-.392-.2-.79-.427-.823-.467-.02-.027-.155-.101-.299-.166a5.9 5.9 0 01-.56-.304 13.14 13.14 0 00-.486-.287l-.613-.34c-.234-.132-.444-.239-.467-.239-.063 0-.047 1.82.016 1.907.03.042.24.174.466.294.226.12.714.393 1.084.605.37.213.942.53 1.27.703.33.174.632.344.673.377.042.033.53.312 1.084.62 1.322.732 1.558.864 2.342 1.317.363.21.67.382.684.382.013 0 .432.235.931.523.5.288.94.524.98.524.04 0 .072.033.072.074 0 .041.03.075.068.075.037 0 .567.28 1.177.622.61.342 1.328.742 1.596.888.267.146.788.437 1.158.647.37.21.69.383.71.383.021.001.027-.42.015-.937z" fill="#1C61A5"/>
    </svg>