<svg width="25" height="24" fill="none" viewBox="-2 -2 25 24" id="sgd" x="75" y="220" xmlns="http://www.w3.org/2000/svg">
        <g clip-path="url(#nnclip0)">
            <path d="M10.5 20c5.523 0 10-4.477 10-10s-4.477-10-10-10S.5 4.477.5 10s4.477 10 10 10z" fill="#F0F0F0"/>
            <path d="M.5 10c0-5.523 4.477-10 10-10s10 4.477 10 10" fill="#D80027"/>
            <path d="M6.587 5.217a3.044 3.044 0 012.391-2.972 3.043 3.043 0 100 5.945 3.044 3.044 0 01-2.391-2.973zM10.5 2.391l.216.665h.698l-.565.41.216.664-.565-.41-.565.41.216-.664-.565-.41h.698l.216-.665z" fill="#F0F0F0"/>
            <path d="M8.805 3.696l.216.664h.699l-.565.41.216.665-.566-.41-.565.41.216-.665-.565-.41h.699l.215-.664zM12.194 3.696l.216.664h.698l-.565.41.216.665-.565-.41-.565.41.216-.665-.565-.41h.698l.216-.664zM11.542 5.652l.216.665h.698l-.565.41.216.664-.565-.41-.565.41.216-.664-.565-.41h.698l.216-.665zM9.458 5.652l.216.665h.698l-.565.41.216.664-.565-.41-.565.41.216-.664-.566-.41h.699l.216-.665z" fill="#F0F0F0"/>
        </g>
        <defs>
            <clipPath id="nnclip0">
                <path fill="#fff" transform="translate(.5)" d="M0 0h20v20H0z"/>
            </clipPath>
        </defs>
    </svg>