<svg width="25" height="24" fill="none" viewBox="-2 -2 25 24" id="shib" x="100" y="220" xmlns="http://www.w3.org/2000/svg">
        <circle cx="10.142" cy="10.233" r="9.759" fill="#F00500"/>
        <path d="M12.746 6.333c-.472-.16-1.644-.478-2.551-.478-1.12 0-2.25.248-2.676.372-1.687-1.928-2.994-2.575-3.437-2.658-.95 1.56-.136 4.63.39 5.971-.45.821-1.297 2.796-1.099 4.129.248 1.665 3.349 4.766 6.928 4.766 3.58 0 6.29-3.172 6.467-4.766.142-1.276-.602-3.284-.992-4.129 1.177-3.487.833-5.374.514-5.882-1.276.014-2.894 1.79-3.544 2.675z" fill="#FFA409"/>
        <path d="M7.912 9.503c-.146-.417-.463-.673-.9-.62-.437.054-.754.29-.754.776 0 .486.428.508.905.473.477-.036.932-.107.75-.629zM10.301 18.435c3.58 0 6.29-3.172 6.467-4.766-.724-.211-2.498-.29-3.805 1.083-.116-.847-.84-2.54-2.805-2.54-1.966 0-2.81 1.693-2.988 2.54-.368-.485-1.642-1.38-3.797-1.083.248 1.665 3.349 4.766 6.928 4.766zM13.062 8.883c-.437-.053-.755.203-.9.62-.184.522.271.593.748.629.477.036.905.013.905-.473s-.316-.722-.753-.776z" fill="#fff"/>
        <path d="M4.776 8.587c-.332-.72-.896-2.508-.498-3.91.435.079 1.545.55 2.512 1.8-.426.222-1.426.953-2.014 2.11zM15.327 8.587c.332-.72.896-2.508.498-3.91-.435.079-1.545.55-2.512 1.8.426.222 1.426.953 2.014 2.11z" fill="#FF8300"/>
        <path d="M8.621 12.137c-.004-.202-.31-.792-1.266-1.206-.956-.414-1.235-.425-1.284-.42-.07.123-.182.47-.074.874.411.316 1.535 1.011 2.624.752zM11.633 12.137c.004-.202.31-.792 1.267-1.206.956-.414 1.234-.425 1.284-.42.07.123.182.47.074.874-.411.316-1.535 1.011-2.625.752zM10.459 14.868c.487-.082.859-.507.859-1.018v-.188a.458.458 0 00-.458-.458H9.71a.458.458 0 00-.458.458v.188c0 .546.424.994.96 1.03l-.228.75-1.467-.07.623 1.1.07-.831c.428.066 1.47.158 2.205 0l.105.832c.186-.367.553-1.1.53-1.1-.024 0-.906.046-1.345.07l-.244-.763h-.002z" fill="#000"/>
        <path d="M10.892 16.055h-1.28l.215.262.157-.133.296.296.274-.296.151.133.187-.262z" fill="#000"/>
    </svg>