<svg width="24" height="25" fill="none" viewBox="-2 -2 24 25" id="shr" x="228" y="50" xmlns="http://www.w3.org/2000/svg">
        <path d="M10 20.226c5.523 0 10-4.477 10-10s-4.477-10-10-10-10 4.477-10 10 4.477 10 10 10z" fill="#fff"/>
        <path d="M18.874 8.59c.014.014.014.028.014.043.057.354-.186.68-.501.722-.359.057-.688-.17-.746-.51-.014-.028-.014-.07-.014-.1-.702-3.525-3.869-6.202-7.68-6.202-3.669 0-6.735 2.464-7.595 5.806l6.491 4.192 2.68-2.733a.6.6 0 01.458-.198c.344 0 .63.269.63.623a.61.61 0 01-.185.425l-.03.028-3.352 3.456L1.55 9.298c-.008 0-.011-.003-.015-.007-.003-.003-.007-.007-.014-.007-.027-.009-.048-.023-.068-.036a.288.288 0 00-.032-.02c-.08-.05-.158-.096-.237-.142-.079-.046-.157-.092-.236-.142.63-4.362 4.413-7.718 8.999-7.718 4.456 0 8.153 3.172 8.941 7.364h-.014z" fill="url(#nqpaint0_linear)"/>
        <path d="M18.186 11.069c.072.042.143.084.23.141.057.04.119.08.18.12.093.059.186.118.264.178-.631 4.361-4.414 7.718-9 7.718-4.441 0-8.138-3.144-8.94-7.322a.175.175 0 00-.008-.042.637.637 0 01.523-.765.651.651 0 01.73.467c.015.014.015.014.015.028v.029c.66 3.583 3.855 6.302 7.695 6.302 3.668 0 6.735-2.478 7.595-5.806L10.963 7.91l-2.65 2.734a.599.599 0 01-.46.198.618.618 0 01-.444-1.062l.029-.029 3.353-3.455 7.122 4.588.1.071.129.085c.007.007.014.01.021.014.008.004.015.007.022.014z" fill="url(#nqpaint1_linear)"/>
        <defs>
            <linearGradient id="nqpaint0_linear" x1="4.804" y1="2.592" x2="14.974" y2="12.883" gradientUnits="userSpaceOnUse">
                <stop stop-color="#085BB4"/>
                <stop offset="1" stop-color="#42C4C4"/>
            </linearGradient>
            <linearGradient id="nqpaint1_linear" x1="4.804" y1="2.592" x2="14.974" y2="12.883" gradientUnits="userSpaceOnUse">
                <stop stop-color="#085BB4"/>
                <stop offset="1" stop-color="#42C4C4"/>
            </linearGradient>
        </defs>
    </svg>