<svg width="24" height="24" fill="none" viewBox="-2 -2 24 24" id="skill" x="48" y="460" xmlns="http://www.w3.org/2000/svg">
        <g clip-path="url(#nrclip0)">
            <path d="M7.134 3.745a.314.314 0 00-.314.312.31.31 0 00.31.313h.004a.312.312 0 100-.625zM18.309 17.138a.312.312 0 00-.303.388l.441 1.768a.312.312 0 10.606-.152l-.442-1.767a.313.313 0 00-.302-.237z" fill="#BFBFBF"/>
            <path d="M16.982 18.464a.312.312 0 00-.075.615l1.767.442a.312.312 0 10.152-.606l-1.768-.442a.315.315 0 00-.076-.01zM6.241 5.071a.312.312 0 00-.22.533l12.066 12.068a.312.312 0 10.442-.442L6.462 5.162a.312.312 0 00-.22-.091z" fill="#BFBFBF"/>
            <path d="M4.915 6.396a.312.312 0 00-.221.533l12.068 12.068a.312.312 0 10.441-.442L5.136 6.488a.311.311 0 00-.22-.092z" fill="#BFBFBF"/>
            <path d="M6.72 4.59c-.08 0-.16.032-.22.092L4.213 6.97a.312.312 0 10.442.442l2.287-2.287a.312.312 0 00-.221-.533zM6.461 3.082c-.08 0-.16.03-.22.092L2.704 6.709a.312.312 0 10.442.442l3.535-3.535a.312.312 0 00-.22-.534z" fill="#BFBFBF"/>
            <path d="M7.125 2.807c-.334 0-.648.13-.884.366a.312.312 0 10.44.443.64.64 0 01.885 0 .626.626 0 010 .884.626.626 0 01-.883 0 .312.312 0 10-.442.441c.487.487 1.28.487 1.767 0a1.252 1.252 0 00-.883-2.134zM3.598 7.28a.314.314 0 00-.314.313.31.31 0 00.31.312h.004a.312.312 0 100-.625z" fill="#BFBFBF"/>
            <path d="M4.252 6.617a.312.312 0 00-.221.534.627.627 0 010 .885.627.627 0 01-.884-.885.312.312 0 10-.442-.442 1.251 1.251 0 001.768 1.768 1.253 1.253 0 000-1.768.31.31 0 00-.22-.092zM1.302 2.341a.312.312 0 00-.22.533l2.949 2.95a.312.312 0 10.442-.441l-2.95-2.95a.311.311 0 00-.221-.092zM2.185 1.457a.312.312 0 00-.22.533l2.95 2.95a.312.312 0 10.441-.441l-2.95-2.95a.311.311 0 00-.22-.092z" fill="#BFBFBF"/>
            <path d="M1.25.468c-.334 0-.648.13-.884.367A1.24 1.24 0 000 1.718c0 .334.13.648.366.884.472.472 1.296.471 1.767 0A1.252 1.252 0 001.25.468zm0 1.875a.62.62 0 01-.625-.625.62.62 0 01.183-.441.64.64 0 01.884 0 .627.627 0 01-.442 1.066zM6.682 6.838a.312.312 0 00-.22.534l9.195 9.195a.312.312 0 10.442-.441L6.903 6.93a.31.31 0 00-.22-.092zM4.381 3.653a.312.312 0 00-.098.017l-1.326.441a.312.312 0 10.198.593l1.325-.441a.313.313 0 00-.099-.61zM3.497 2.77a.311.311 0 00-.098.016l-1.326.442a.312.312 0 10.198.593l1.325-.442a.313.313 0 00-.099-.61zM12.885 3.745a.314.314 0 00-.314.312.31.31 0 00.31.313h.004a.312.312 0 100-.625zM1.692 17.138a.313.313 0 00-.303.237l-.442 1.767a.313.313 0 00.606.152l.442-1.767a.312.312 0 00-.303-.389z" fill="#BFBFBF"/>
            <path d="M3.018 18.464a.306.306 0 00-.076.009l-1.768.442a.313.313 0 00.152.606l1.767-.442a.313.313 0 00-.075-.615zM13.76 5.071c-.08 0-.16.03-.222.092L9.78 8.922a.312.312 0 10.442.441l3.76-3.759a.312.312 0 00-.222-.533zM15.085 6.396c-.08 0-.16.031-.221.092l-3.759 3.76a.312.312 0 10.442.441l3.759-3.76a.312.312 0 00-.221-.533z" fill="#BFBFBF"/>
            <path d="M13.28 4.59a.312.312 0 00-.22.533l2.285 2.288a.312.312 0 10.442-.442L13.5 4.682a.312.312 0 00-.22-.091zM13.539 3.082a.312.312 0 00-.221.534l3.535 3.535a.312.312 0 10.442-.442L13.76 3.174a.311.311 0 00-.221-.092z" fill="#BFBFBF"/>
            <path d="M12.875 2.807a1.251 1.251 0 00-.884 2.133c.489.489 1.281.488 1.768.001a.312.312 0 10-.442-.442.626.626 0 01-.884-.884.64.64 0 01.885 0 .312.312 0 10.441-.442 1.243 1.243 0 00-.884-.366zM16.42 7.28a.314.314 0 00-.314.313.31.31 0 00.311.312h.003a.312.312 0 100-.625z" fill="#BFBFBF"/>
            <path d="M17.074 6.617a.312.312 0 00-.221.533.627.627 0 01-.884.885.627.627 0 010-.884.312.312 0 10-.442-.442 1.252 1.252 0 000 1.768c.489.487 1.282.486 1.768 0a1.251 1.251 0 000-1.768.31.31 0 00-.22-.092zM18.698 2.341c-.08 0-.16.03-.22.092l-2.95 2.95a.312.312 0 10.441.441l2.95-2.95a.312.312 0 00-.22-.533zM17.815 1.457c-.08 0-.16.03-.22.091l-2.951 2.95a.312.312 0 10.442.443l2.95-2.95a.312.312 0 00-.221-.534z" fill="#BFBFBF"/>
            <path d="M18.75.468a1.251 1.251 0 00-.884 2.133c.473.473 1.296.473 1.768 0 .236-.235.366-.55.366-.883 0-.334-.13-.648-.366-.884a1.24 1.24 0 00-.884-.366zm0 1.875a.626.626 0 01-.442-1.066.64.64 0 01.884-.001.622.622 0 01-.441 1.067zM13.318 6.838c-.08 0-.16.031-.221.092l-2.654 2.655a.312.312 0 10.441.442l2.655-2.655a.312.312 0 00-.221-.534zM15.618 3.653a.312.312 0 00-.098.61l1.325.441a.312.312 0 10.198-.593l-1.325-.441a.313.313 0 00-.1-.017zM16.503 2.77a.312.312 0 00-.1.609l1.326.442a.312.312 0 10.198-.593l-1.325-.442a.314.314 0 00-.1-.016zM8.674 10.156c-.08 0-.16.03-.22.091L1.47 17.23a.312.312 0 10.442.442l6.982-6.983a.312.312 0 00-.22-.533zM9.337 10.819c-.08 0-.16.03-.22.091L3.9 16.126a.312.312 0 10.441.441l5.216-5.215a.312.312 0 00-.22-.534zM10 11.481c-.08 0-.16.03-.22.092l-6.983 6.982a.312.312 0 10.441.442l6.983-6.982a.312.312 0 00-.22-.534z" fill="#BFBFBF"/>
            <path d="M10.822 16.198c-2.04 0-3.6-.606-4.68-1.818-1.08-1.224-1.62-2.892-1.62-5.004 0-1.392.282-2.604.846-3.636.576-1.044 1.362-1.848 2.358-2.412.996-.564 2.124-.846 3.384-.846.528 0 1.038.036 1.53.108.492.06 1.074.144 1.746.252.504.084.78.126.828.126l-.198 3.708H13.36l-.558-2.574c-.132-.132-.36-.24-.684-.324-.324-.084-.738-.126-1.242-.126-1.02 0-1.842.474-2.466 1.422-.612.936-.918 2.298-.918 4.086 0 1.728.294 3.138.882 4.23.588 1.092 1.446 1.638 2.574 1.638.54 0 .954-.048 1.242-.144.3-.108.552-.258.756-.45l.792-1.854 1.512.144-.36 2.79a4.195 4.195 0 00-.756.144c-.24.06-.39.096-.45.108-.48.132-.93.234-1.35.306-.408.084-.912.126-1.512.126z" fill="url(#nrpaint0_linear)"/>
        </g>
        <defs>
            <linearGradient id="nrpaint0_linear" x1="10" y1="1" x2="10" y2="19" gradientUnits="userSpaceOnUse">
                <stop stop-color="#9C7A61"/>
                <stop offset=".463" stop-color="#D8C7AA"/>
                <stop offset="1" stop-color="#9C7A61"/>
            </linearGradient>
            <clipPath id="nrclip0">
                <path fill="#fff" transform="matrix(1 0 0 -1 0 20)" d="M0 0h20v20H0z"/>
            </clipPath>
        </defs>
    </svg>