<svg width="24" height="24" fill="none" viewBox="-2 -2 24 24" id="slp" x="72" y="460" xmlns="http://www.w3.org/2000/svg">
        <path fill-rule="evenodd" clip-rule="evenodd" d="M6.875 4.755c-1.19.395-2.109 1.91-2.768 2.9-.554.83-1.11 1.677-1.409 2.627-.235.745-.36 1.617-.358 2.511.005 1.751.496 3.587 1.601 4.719.234.239.52.38.815.523.53.258.916.695 1.468.93 1.446.613 3.273.834 4.832.62 1.915-.264 4.056-1.6 5.205-3.131 1.148-1.53 1.494-4.012.883-5.809-.464-1.363-1.306-2.556-1.93-3.845-.424-.876-1.305-1.486-2.142-1.988-.742-.444-1.566-.664-2.354-1a2.019 2.019 0 00-.805-.166c-1.056 0-2.05.78-3.038 1.109z" fill="url(#nspaint0_radial)"/>
        <path fill-rule="evenodd" clip-rule="evenodd" d="M7.115 1.703c-.05.032-.104.1-.095.164.07.526.158 1.052.27 1.572.041.185.056.565.186.71.133.15.466-.041.614-.099a7.447 7.447 0 012.264-.48c.18-.009.362-.011.534.037.183.052.345.158.524.22.07.023.14.04.21.058.032.008.067.015.098.001.098-.045.087-.524.098-.626.027-.249.05-.497.064-.746.014-.272.113-.734-.094-.955-.113-.122-.355-.196-.508-.259-.21-.088-.449-.125-.671-.17-.482-.1-.975-.159-1.468-.116a4.576 4.576 0 00-2.026.689z" fill="#004531"/>
        <path fill-rule="evenodd" clip-rule="evenodd" d="M4.66 9.721c-.626 1.028-.834 2.307-.664 3.486a5.663 5.663 0 001.67 3.26c.453.433.96.706 1.532.952 3.476 1.499 8.432-.352 8.762-4.405.091-1.114-.111-2.26-.494-3.289-.243-.654-.595-.436-1.156-.444-.352-.005-.702-.03-1.056-.027a47.875 47.875 0 00-5.019.316c-.97.113-1.95.255-2.92.141" fill="#FFAFBC"/>
        <path fill-rule="evenodd" clip-rule="evenodd" d="M13.98 8.823c.37.057.73.154 1.078.29.108.043.229.108.25.222.028.16-.155.269-.309.328-1.197.456-2.343.596-3.614.715a19.325 19.325 0 01-4.048-.048c-.82-.096-1.655-.094-2.442-.377a.477.477 0 01-.19-.105c-.292-.308 1.372-.77 1.579-.808.793-.148 1.599-.217 2.4-.306a20.113 20.113 0 013.295-.077c.646.035 1.338.056 2.002.166z" fill="#FFD3DA"/>
        <path fill-rule="evenodd" clip-rule="evenodd" d="M14.588 17.609c-2.19 1.418-5.104 1.807-7.586.963-3.193-1.084-4.8-4.276-4.117-7.494.396-1.868 1.404-3.608 2.69-5.023.758-.833 1.69-1.545 2.757-1.947 1.833-.693 3.51.05 4.974 1.18a10.938 10.938 0 013.13 3.857c1.451 2.996 1.137 6.53-1.848 8.464zm3.32-6.199c-.626-3.503-3.52-7.18-7.042-8.179-1.792-.508-3.733.446-5.04 1.598A11.489 11.489 0 002.93 8.772c-.632 1.427-1.095 3.285-.874 4.85.14.986.663 2.122 1.223 2.948a6.599 6.599 0 002.21 2.042c1.274.72 2.752 1.066 4.215 1.089 1.52.023 2.782-.382 4.16-.944 1.648-.674 2.856-1.857 3.59-3.473.55-1.213.687-2.57.454-3.875v.001z" fill="#004531"/>
        <path fill-rule="evenodd" clip-rule="evenodd" d="M7.797 2.139c-.037.023-.074.07-.069.117.038.276.081.551.134.825.052.274.09.55.15.823.01.044.02.089.042.129.03.054.076.094.089.155.012.053.01.1.033.153a.43.43 0 00.223.223c.49.228 1.046.26 1.572.152.264-.054.52-.14.765-.253a.732.732 0 00.405-.643c.034-.555.058-1.103.024-1.657-.007-.115-.047-.14-.149-.199-.08-.047-.174-.075-.262-.111-.148-.063-.318-.089-.476-.122a3.651 3.651 0 00-1.042-.08 3.25 3.25 0 00-1.44.488z" fill="#DE8845"/>
        <path fill-rule="evenodd" clip-rule="evenodd" d="M7.795 2.136a.155.155 0 00-.043.068c-.037.141.165.272.27.314.576.224 1.225.235 1.827.128.264-.047 1.26-.172 1.268-.54.003-.158-.239-.202-.362-.253-.149-.063-.319-.089-.477-.122a3.676 3.676 0 00-1.042-.082c-.37.033-.732.13-1.069.289-.085.04-.283.108-.372.198z" fill="#EBB749"/>
        <path fill-rule="evenodd" clip-rule="evenodd" d="M11.495 3.915a.389.389 0 00-.031-.03c-.026-.024-.184-.102-.184-.133-.06-.053-.103-.13-.152-.194.059.078-.107.41-.147.483a1.357 1.357 0 01-.556.536c.002.014.022.018.037.016.094-.01.19-.02.282-.038.148-.027.315-.052.437-.138.148-.103.285-.226.42-.344.002-.002.005-.005.006-.008 0-.003-.002-.006-.004-.009-.035-.047-.068-.097-.108-.14zm-3.838.095c.048-.053.127-.073.163-.137.014-.025.02-.056.032-.081.013-.03.059-.083.059-.115.043.111.096.219.154.323.14.252.335.466.578.626a.562.562 0 00.085.046c-.003.014-.023.017-.038.016a3.72 3.72 0 01-.282-.038c-.148-.028-.315-.052-.437-.138-.148-.103-.285-.226-.42-.344-.002-.003-.005-.005-.006-.008 0-.004.002-.006.004-.01.036-.046.068-.096.108-.14z" fill="#004531"/>
        <path fill-rule="evenodd" clip-rule="evenodd" d="M6.553 9.376c.19-.189.355-.384.47-.53.426-.537.712-1.248.61-1.937-.037-.244-.224-.506-.474-.48-.862.092-1.55.852-1.94 1.561-.274.5-.83 2.068.313 2.007.33-.018.708-.31 1.021-.621zm7.448 7.539c.513-.155 1.204-.57 1.203-1.156 0-.543-.59-.449-.951-.286a1.67 1.67 0 00-.855.935c-.18.49.119.641.564.518l.039-.011z" fill="#fff"/>
        <path fill-rule="evenodd" clip-rule="evenodd" d="M14.482 12.126a.233.233 0 01-.081.073c-.05.021-.108.007-.162-.007a6.783 6.783 0 01-1.371-.537c-.454-.233-.895-.458-1.33-.724-.047-.028-.098-.058-.154-.054a.257.257 0 00-.116.052c-.59.397-1.117.873-1.679 1.308-.391.303-.723.651-1.132.936a.11.11 0 01-.047.022c-.021.002-.042-.008-.06-.018-.953-.499-1.729-1.25-2.57-1.904-.067-.052-.141-.107-.227-.111-.101-.006-.191.06-.27.121L3.47 12.701l-.328-1.37c-.01.803.063 1.606.218 2.394l1.966-1.788c.23-.209 1.5.82 1.673.963.491.402.913.87 1.407 1.273.062.05.143.101.216.07a.217.217 0 00.075-.065c.409-.49.781-1.01 1.215-1.482.223-.242.46-.472.723-.673.197-.152.563-.473.83-.476.399-.004.88.286 1.21.488.625.38 1.27.712 1.9 1.087.079.047 1.19-2.046 1.323-2.203.018-.024.966.98 1.043 1.062-.338-.549-.642-1.181-1.075-1.665-.44.634-.9 1.214-1.384 1.81zm-11.34-.796v-.05l-.025-.054.025.104z" fill="url(#nspaint1_radial)"/>
        <defs>
            <radialGradient id="nspaint0_radial" cx="0" cy="0" r="1" gradientUnits="userSpaceOnUse" gradientTransform="translate(9.891 11.204) scale(7.82753)">
                <stop stop-color="#8BB9BB"/>
                <stop offset="1" stop-color="#6CB98F"/>
            </radialGradient>
            <radialGradient id="nspaint1_radial" cx="0" cy="0" r="1" gradientUnits="userSpaceOnUse" gradientTransform="matrix(7.72171 7.28217 -4.13228 4.3817 4.938 13.553)">
                <stop stop-color="#8DEFBB"/>
                <stop offset="1" stop-color="#BEFBFF"/>
            </radialGradient>
        </defs>
    </svg>