<svg width="24" height="24" fill="none" viewBox="-2 -2 24 24" id="sngls" x="120" y="460" xmlns="http://www.w3.org/2000/svg">
        <path d="M10 20c5.523 0 10-4.477 10-10S15.523 0 10 0 0 4.477 0 10s4.477 10 10 10z" fill="#B30D23"/>
        <path d="M10.57 13.271l-.582 1.085-.582-1.085c-3.52-.273-6.281-2.897-6.281-2.897 0-.006 2.684-2.548 6.13-2.883l.457-.782.276-.459.469.781.264.46c3.446.328 6.13 2.883 6.13 2.883s-2.762 2.624-6.281 2.897zm-6.863-2.897c-.006 0 2.654 1.818 5.326 2.202L7.731 10.14l.353-.614.325.607-.006.007 1.267 2.494c.102.006.204.006.306.006.102 0 .198 0 .3-.006l.93-1.855.68-1.266.353.614-1.302 2.444c2.672-.378 5.331-2.152 5.331-2.202 0-.044-2.533-1.736-5.14-2.17l.397.688-.33.663-.859-1.438a6.535 6.535 0 00-.348-.013c-.114 0-.234.006-.354.013l-.877 1.438-.324-.632.414-.713c-2.606.44-5.14 2.17-5.14 2.17z" fill="#fff"/>
    </svg>