<svg width="24" height="24" fill="none" viewBox="-2 -2 24 24" id="snm" x="144" y="460" xmlns="http://www.w3.org/2000/svg">
        <path d="M10 20c5.523 0 10-4.477 10-10S15.523 0 10 0 0 4.477 0 10s4.477 10 10 10z" fill="#0B1C26"/>
        <path d="M10 16.875c-3.793-.011-6.875-3.09-6.875-6.875 0-3.786 3.082-6.864 6.875-6.875 3.793.011 6.875 3.09 6.875 6.875 0 3.786-3.082 6.867-6.875 6.875zm6.097-5.781a.697.697 0 01-.904.367c.243.254.395.595.395.969 0 .11-.015.213-.037.315a6.287 6.287 0 00.546-1.65v-.001zm-.638.069zm.155-3.767a2.884 2.884 0 01-.516 2.835.69.69 0 011.044.53 6.05 6.05 0 00-.528-3.366zm-.352.965a2.39 2.39 0 00-4.081-1.688 2.39 2.39 0 00-.703 1.688 2.39 2.39 0 004.08 1.686 2.393 2.393 0 00.704-1.686zm-2.487 4.07c0-.518.287-.995.748-1.237a2.911 2.911 0 01-1.75-.137c.472.362.822.86 1.002 1.427.004-.023 0-.038 0-.053zm.137.924c0 .23-.029.458-.084.681a.671.671 0 01.6-.37.48.48 0 01.106.01 1.414 1.414 0 01-.653-.7c.02.126.03.252.03.379zm1.267-.042a.887.887 0 00.89-.882.885.885 0 00-.89-.882.884.884 0 00-.884.882c0 .488.399.882.885.882zm.585-2.49a.709.709 0 01.087-.334 3.011 3.011 0 01-.858.556c.061-.007.122-.014.186-.014.253-.001.501.067.718.196a.681.681 0 01-.133-.405zm-4.765-.376c.375 0 .747.072 1.094.212A2.888 2.888 0 0110 8.834a2.895 2.895 0 01-1.093 1.825c.348-.138.72-.21 1.094-.212zm0-3.858c-.264 0-.523-.074-.747-.215.394.416.654.94.748 1.505a2.913 2.913 0 01.748-1.506A1.394 1.394 0 0110 6.59zm1.42-1.415c0 .317-.107.625-.303.875.295-.224.63-.388.987-.485-.015 0-.027.003-.038.003a.694.694 0 01-.646-.439c-.003.015 0 .03 0 .046zm1.079-.837a.689.689 0 01.258.534.69.69 0 01-.414.632 2.916 2.916 0 012.748.977 6.274 6.274 0 00-2.592-2.143zm-.437.194a.344.344 0 10-.002.69.344.344 0 00.002-.691zm-1.632-.708a1.414 1.414 0 01.942.995.69.69 0 01.687-.64c.023 0 .045.003.068.008a6.276 6.276 0 00-1.697-.364zm-1.325 1.35a.896.896 0 001.792 0 .896.896 0 00-1.792 0zM7.87 4.187a.419.419 0 01.068-.008.688.688 0 01.687.64 1.414 1.414 0 01.942-.995 6.276 6.276 0 00-1.697.363zm.709.988c0-.016 0-.03.004-.046a.695.695 0 01-.645.44c-.016 0-.027-.004-.038-.004.356.097.691.262.987.484a1.394 1.394 0 01-.308-.874zm-.987-.3a.345.345 0 10.69 0 .345.345 0 00-.69 0zM4.91 6.484a2.904 2.904 0 012.748-.977.688.688 0 01-.155-1.166 6.218 6.218 0 00-2.593 2.143zM4.74 8.36a2.39 2.39 0 004.783 0A2.39 2.39 0 007.13 5.976a2.395 2.395 0 00-2.392 2.385zm2.486 4.07c0 .015-.004.035-.004.05a2.924 2.924 0 011.002-1.428 2.911 2.911 0 01-1.75.136 1.406 1.406 0 01.752 1.242zm-1.99-1.61c.001.148-.047.29-.136.406a1.397 1.397 0 01.904-.181 2.858 2.858 0 01-.859-.557c.06.1.092.216.092.333zm-.303 1.61a.885.885 0 101.769 0 .885.885 0 00-1.77 0zm1.53 1.246c.034-.004.069-.012.106-.012.255 0 .486.144.6.371a2.888 2.888 0 01-.084-.681c.002-.128.01-.256.027-.383a1.399 1.399 0 01-.65.705zm-2.608-2.919a.692.692 0 01.687-.632c.126 0 .25.036.356.102a2.884 2.884 0 01-.516-2.835 6.119 6.119 0 00-.527 3.365zm.687-.28a.346.346 0 100 .691.346.346 0 000-.692zm-.129 1.953c0-.362.142-.71.395-.968a.698.698 0 01-.904-.368c.106.582.29 1.136.547 1.65a1.41 1.41 0 01-.038-.314zm1.777 1.352a1.403 1.403 0 01-1.325-.326c.331.49.73.929 1.184 1.306a.669.669 0 01-.155-.424c0-.223.11-.43.296-.556zm.053.556a.326.326 0 10.652 0 .326.326 0 00-.652 0zm2.92 1.798A2.923 2.923 0 017.24 14.28c0 .018.007.037.007.06a.674.674 0 01-.968.607 6.194 6.194 0 002.881 1.191zm3.226-2.782a2.388 2.388 0 10-4.776 0A2.39 2.39 0 0010 15.739a2.392 2.392 0 002.387-2.385l.001.001zm1.336 1.59a.675.675 0 01-.884-.28.67.67 0 01-.084-.326c0-.02.003-.04.008-.06a2.922 2.922 0 01-1.921 1.858 6.231 6.231 0 002.88-1.192h.001zm.035-.606zm1.377-.882a1.403 1.403 0 01-1.325.325.672.672 0 01.296.557c0 .163-.06.307-.155.424a6.258 6.258 0 001.184-1.306z" fill="#fff"/>
    </svg>