<svg width="24" height="24" fill="none" viewBox="-2 -2 24 24" id="snt" x="168" y="460" xmlns="http://www.w3.org/2000/svg">
        <path d="M10 20c5.523 0 10-4.477 10-10S15.523 0 10 0 0 4.477 0 10s4.477 10 10 10z" fill="#5B6DEE"/>
        <path d="M8.313 9.387a5.715 5.715 0 00-1.04.09c.282-2.612 2.46-4.59 5.052-4.59 1.588 0 2.675.777 2.675 2.385 0 1.61-1.306 2.387-3.21 2.387-1.406 0-2.071-.27-3.477-.27v-.002zm-.103.954c-1.904 0-3.21.778-3.21 2.386 0 1.61 1.088 2.387 2.675 2.387 2.593 0 4.77-1.978 5.052-4.591a5.72 5.72 0 01-1.04.09c-1.406 0-2.071-.272-3.477-.272z" fill="#fff"/>
    </svg>