<svg width="24" height="24" fill="none" viewBox="-2 -2 24 24" id="soc" x="216" y="460" xmlns="http://www.w3.org/2000/svg">
        <path d="M10 20c5.523 0 10-4.477 10-10S15.523 0 10 0 0 4.477 0 10s4.477 10 10 10z" fill="#26E44C"/>
        <path d="M10 19a9 9 0 100-18 9 9 0 000 18z" fill="#000"/>
        <path d="M12.472 2.648c0 .437 0 .872.017 1.308a8.225 8.225 0 00-1.81-.474c-.026-.396.087-.83-.029-1.206a11.232 11.232 0 00-1.326-.016c-.022.407-.013.815 0 1.224a8.323 8.323 0 00-1.81.484c.012-.44.016-.88.01-1.321a7.762 7.762 0 000 14.713c0-.432-.004-.862-.012-1.293a7.69 7.69 0 001.8.464c0 .395 0 .791-.024 1.183.472.067.952.067 1.424 0-.021-.39-.033-.78-.034-1.17a8.54 8.54 0 001.806-.46c-.014.428-.014.855 0 1.283a7.762 7.762 0 00-.01-14.713l-.001-.006zm1.156 11.758c-1.02.924-2.467 1.143-3.797 1.123-1.167 0-2.402-.316-3.245-1.16-.447-.433-.7-1.01-.927-1.583.815-.21 1.656-.282 2.477-.457a1.44 1.44 0 00.96 1.077c.745.233 1.668.266 2.29-.266.44-.365.453-1.164-.093-1.437-1.28-.662-2.875-.437-4.085-1.274-1.666-1.05-1.79-3.837-.159-4.97 1.247-.876 2.915-.985 4.36-.634 1.309.331 2.241 1.44 2.69 2.667-.805.14-1.61.282-2.414.418-.212-1.278-2.001-1.582-2.89-.837-.507.421-.377 1.318.256 1.542 1.383.574 3.046.409 4.272 1.369 1.423.965 1.572 3.27.304 4.421l.001.001z" fill="#26E44C"/>
    </svg>