<svg width="24" height="24" fill="none" viewBox="-2 -2 24 24" id="spi" x="240" y="460" xmlns="http://www.w3.org/2000/svg">
        <circle cx="10" cy="10" r="10" fill="#fff"/>
        <path fill-rule="evenodd" clip-rule="evenodd" d="M9.064.073C7.857.278 7.54.35 6.874.561c-1.494.475-2.776 1.26-3.937 2.412C1.002 4.893 0 7.303 0 10.038c0 1.683.286 2.903 1.04 4.44 2.144 4.367 7.194 6.514 11.947 5.08 3.498-1.056 6.154-4.023 6.87-7.67.19-.97.191-2.74.003-3.685-.399-2.011-1.346-3.794-2.755-5.187-1.7-1.683-3.448-2.53-6.002-2.91-.883-.13-1.413-.14-2.04-.033zm2.994 1.132c1.248.276 2.449.846 3.535 1.677.488.373.662.567.88.985.243.464.268.571.234 1.007-.036.458-.08.549-.718 1.447-.374.528-.783 1.035-.909 1.127-.221.162-.344.17-3.771.208l-3.543.04-.026.273c-.015.15.005.304.043.342.037.037 1.108.087 2.378.11 1.27.022 2.431.076 2.58.119.718.207 1.391.822 1.663 1.52.185.475.173 1.282-.027 1.814-.185.494-.735 1.072-1.298 1.365-.363.189-.388.19-3.53.215l-3.164.025-.281-.188c-.384-.258-.501-.508-.46-.987.027-.334.08-.443.326-.666l.293-.268h2.759c2.65 0 2.765-.006 2.921-.161.197-.197.204-.305.028-.498-.124-.137-.312-.148-2.522-.148-2.753 0-3.011-.042-3.696-.597a3.596 3.596 0 01-.663-.733c-.229-.37-.244-.443-.244-1.207 0-.952.078-1.144.72-1.784.694-.69.66-.685 4.722-.685 1.93 0 3.566-.022 3.639-.05.072-.028.301-.288.51-.578l.378-.529-.394-.345c-.45-.394-1.255-.801-2.243-1.135-.654-.22-.742-.23-2.222-.23-1.477 0-1.565.01-2.124.22-2.28.854-3.916 2.304-4.645 4.119-.486 1.209-.594 1.773-.595 3.09-.001 1.136.014 1.256.245 1.938.934 2.761 2.695 4.468 5.335 5.17.685.183.98.217 1.906.219.95.002 1.19-.026 1.825-.212 1.787-.523 3.058-1.394 4.14-2.836.488-.65.758-1.16 1.092-2.06.478-1.291.474-3.21-.01-4.595-.201-.58-.224-.72-.15-.946.09-.27.505-.594.76-.594.546 0 .88.548 1.236 2.019.213.885.194 2.777-.038 3.724-.919 3.751-3.79 6.455-7.49 7.053-2.727.44-5.556-.42-7.558-2.296-1.556-1.46-2.456-3.071-2.812-5.037C.627 9.2 1.145 6.849 2.579 4.83c.748-1.052 2.163-2.307 3.172-2.814.963-.482 2.355-.897 3.394-1.01.624-.067 2.196.04 2.913.199zM7.796 14.014c.117.087.284.327.37.534.156.371.156.379-.002.757-.22.53-.594.775-1.112.727-.691-.065-1.231-.784-1.035-1.377.088-.265.498-.716.735-.81.224-.089.828.009 1.044.169zm5.02-.06c.789.478.752 1.542-.068 1.958a1.398 1.398 0 01-.52.14c-.535 0-1.095-.578-1.096-1.13 0-.86.957-1.41 1.684-.968z" fill="#0696A6"/>
    </svg>