<svg width="24" height="24" fill="none" viewBox="-2 -2 24 24" id="sps" x="288" y="460" xmlns="http://www.w3.org/2000/svg">
        <circle cx="10" cy="10" r="10" fill="url(#ocpaint0_linear_2005:2083)"/>
        <circle cx="10" cy="10" r="9.375" fill="#000"/>
        <path d="M8.665 12.636L7.413 14.88 7.346 15H10l-1.327-2.378-.008.014z" fill="#fff"/>
        <path d="M6.07 11.297l-.05-.145-.065.185L5 14.108c.181.273.434.498.733.654.299.156.635.238.977.238h.637l-.03-.088-1.247-3.615zM11.335 12.636l-.008-.014L10 15h2.654l-.067-.119-1.252-2.245zM13.98 11.152l-.05.145-1.246 3.615-.03.088h.637c.342 0 .678-.082.977-.238.3-.156.552-.38.733-.654l-.955-2.771-.066-.185zM8.665 7.365l.008.013L10 5H7.346l.067.119 1.252 2.246zM11.335 7.365l1.252-2.246.067-.119H10l1.327 2.378.008-.013zM6.02 8.848l.05-.146 1.246-3.614.03-.088H6.71c-.342 0-.678.081-.977.237A1.97 1.97 0 005 5.891l.956 2.772.063.185z" fill="#fff"/>
        <path d="M13.93 8.702l.05.146.064-.185L15 5.89a1.97 1.97 0 00-.733-.654A2.113 2.113 0 0013.29 5h-.637l.03.088 1.247 3.614z" fill="#fff"/>
        <defs>
            <linearGradient id="ocpaint0_linear_2005:2083" x1="15.938" y1="2.031" x2="2.969" y2="17.5" gradientUnits="userSpaceOnUse">
                <stop stop-color="#FF6B00"/>
                <stop offset="1" stop-color="#FC0"/>
            </linearGradient>
        </defs>
    </svg>