<svg width="24" height="24" fill="none" viewBox="-2 -2 24 24" id="srk" x="312" y="460" xmlns="http://www.w3.org/2000/svg">
        <path d="M10 20c5.523 0 10-4.477 10-10S15.523 0 10 0 0 4.477 0 10s4.477 10 10 10z" fill="#fff"/>
        <path d="M12.342 8.032V4.096h4.686l-4.685 3.936z" fill="#BC5223"/>
        <path d="M7.657 8.032V4.096h4.686L7.657 8.032zM7.657 4.096v3.936H2.972l4.685-3.936z" fill="#2F5F83"/>
        <path d="M7.657 8.032v3.936H2.972l4.685-3.936z" fill="#497EA8"/>
        <path d="M7.657 11.968v3.936H2.972l4.685-3.936z" fill="#8EB2C8"/>
        <path d="M12.343 11.968v3.936H7.657l4.686-3.936z" fill="#ECA981"/>
        <path d="M12.343 8.032v3.936H7.657l4.686-3.936z" fill="#E67036"/>
        <path d="M12.343 4.096v3.936H7.657l4.686-3.936z" fill="#D25C28"/>
        <path d="M17.028 8.032v3.936h-4.685l4.685-3.936z" fill="#EB8C56"/>
        <path d="M2.972 11.968V8.032h4.685l-4.685 3.936z" fill="#3971A1"/>
        <path d="M12.342 11.968V8.032h4.686l-4.685 3.936z" fill="#E97E43"/>
        <path d="M12.342 15.904v-3.936h4.686l-4.685 3.936z" fill="#ED9A65"/>
        <path d="M7.657 11.968V8.032h4.686l-4.686 3.936z" fill="#588CB0"/>
        <path d="M7.657 15.904v-3.936h4.686l-4.686 3.936z" fill="#7CA5C1"/>
    </svg>