<svg width="24" height="24" fill="none" viewBox="-2 -2 24 24" id="srm" x="336" y="460" xmlns="http://www.w3.org/2000/svg">
        <path d="M1.224 11.147c0 4.839 3.937 8.776 8.776 8.776 4.84 0 8.776-3.937 8.776-8.776 0-4.741-5.748-10.713-5.993-10.965a.365.365 0 10-.524.51 32.788 32.788 0 012.916 3.574c1.881 2.678 2.874 5.056 2.874 6.88 0 4.441-3.608 8.05-8.049 8.05-4.44 0-8.049-3.616-8.049-8.05 0-1.824.986-4.202 2.853-6.88A32.687 32.687 0 017.692.692a.365.365 0 10-.524-.51A32.502 32.502 0 004.21 3.839c-1.98 2.846-2.986 5.308-2.986 7.308z" fill="url(#oepaint0_linear)"/>
        <path d="M10 18.175c-3.979 0-7.21-3.238-7.21-7.21 0-3.888 5.427-9.315 5.658-9.538.14-.14.377-.14.517 0s.14.377 0 .517c-.056.056-5.44 5.44-5.44 9.021a6.491 6.491 0 006.482 6.483 6.491 6.491 0 006.483-6.483c0-1.468-.951-3.496-2.756-5.881-1.373-1.81-2.752-3.187-2.79-3.223a.36.36 0 010-.518.359.359 0 01.518 0c.237.23 5.762 5.727 5.762 9.622-.014 3.972-3.245 7.21-7.224 7.21z" fill="url(#oepaint1_linear)"/>
        <path fill-rule="evenodd" clip-rule="evenodd" d="M10 16.427a5.465 5.465 0 01-5.461-5.462c0-2.93 4.944-8.105 5.153-8.322l.26-.272.265.265c.217.217 5.245 5.392 5.245 8.322A5.466 5.466 0 0110 16.427zm-.042-13a37.49 37.49 0 00-2.245 2.67C6.112 8.21 5.266 9.889 5.266 10.959A4.742 4.742 0 0010 15.692a4.742 4.742 0 004.734-4.734c0-1.07-.86-2.748-2.49-4.86a38.872 38.872 0 00-2.286-2.671z" fill="url(#oepaint2_linear)"/>
        <defs>
            <linearGradient id="oepaint0_linear" x1="10" y1="19.921" x2="10" y2=".07" gradientUnits="userSpaceOnUse">
                <stop stop-color="#05AAC5"/>
                <stop offset="1" stop-color="#71E0EC"/>
            </linearGradient>
            <linearGradient id="oepaint1_linear" x1="10" y1="19.921" x2="10" y2=".07" gradientUnits="userSpaceOnUse">
                <stop stop-color="#05AAC5"/>
                <stop offset="1" stop-color="#71E0EC"/>
            </linearGradient>
            <linearGradient id="oepaint2_linear" x1="10" y1="19.921" x2="10" y2=".07" gradientUnits="userSpaceOnUse">
                <stop stop-color="#05AAC5"/>
                <stop offset="1" stop-color="#71E0EC"/>
            </linearGradient>
        </defs>
    </svg>