<svg width="24" height="24" fill="none" viewBox="-2 -2 24 24" id="srn" x="360" y="460" xmlns="http://www.w3.org/2000/svg">
        <path d="M10 20c5.523 0 10-4.477 10-10S15.523 0 10 0 0 4.477 0 10s4.477 10 10 10z" fill="#1C1C1C"/>
        <path d="M9.822 8.396c.191.078.382.038.536 0 .114.39.306.74.496.896-.114.975-.458 1.325-.84 1.325-.536 0-.804-1.13-.804-1.325.115-.078.46-.312.612-.896zm-.574 3.43c.23-.195.383-.507.574-1.014.153.079.382.04.536 0 .114.546.229.897.496 1.053-.076.624-.458 1.053-.803 1.053-.497 0-.726-.78-.803-1.092zm-3.06 1.208c.154-.195.154-.506.078-1.09.114.038.229.038.306 0 .229.545.42.895.726 1.09.038.273 0 .585-.115.624-.42.195-.803-.312-.994-.624zm-1.606-1.052c.077 0 .115 0 .192.04.268.7.727 1.09.727 1.09.153.312.229.624.114.624-.344.039-.612-.195-.88-.702.039-.117 0-.195-.153-1.052zm-1.032 0c.382 1.637 1.11 1.56 1.071 1.481a1.485 1.485 0 00-.46-.506c-.343-.351-.611-1.092-.611-.975zm4.666 1.052c.268-.195.306-.623.344-1.168a.931.931 0 00.459 0c.077.35.191.857.535 1.09-.038.43-.153.663-.42.702-.192.078-.727.078-.918-.624zm-3.29-1.208c.154-.195.192-.507.23-.935.115.038.268.038.344 0 .115.506.306.818.536.975.076.818 0 1.09-.153 1.09-.344 0-.803-.74-.956-1.13zm-1.185 0c0-.078.038-.585.077-.935h.153c.19.74.459.975.459.975.191.896.191 1.13.037 1.052-.343-.117-.61-.78-.726-1.092zm3.06 0c.19-.156.306-.428.382-.935a.722.722 0 00.498 0c.114.506.306.818.573.975 0 .428-.038 1.13-.573 1.012-.46-.116-.842-.896-.88-1.052zm-.344-.117c-.46 0-.727-.74-.727-.975.23-.233.344-.662.459-1.403.077.039.191.039.306 0 .038.819.267 1.17.459 1.365-.077.662-.268 1.013-.497 1.013zm-2.371-.975c.076-.156.076-.195.306-1.403h.19c0 .819.23 1.208.345 1.365-.038.428.038 1.013-.306 1.013-.153 0-.344-.195-.535-.975zM3.32 9.37c.115.04.038 1.053.19 1.404 0 0 0 .974-.075.896-.574-.702-.192-2.339-.115-2.3zm4.589 1.364c.267-.195.42-.623.65-1.403a.916.916 0 00.459 0c.077.585.23 1.014.535 1.325-.076.624-.382 1.053-.765 1.053-.612 0-.84-.858-.879-.975zm-3.136-1.52c.306-.117.497-.78.535-.858a.23.23 0 00.307 0c0 .507.152.741.267.819-.115.662-.268 1.442-.612 1.442-.306 0-.46-.701-.497-1.403zm-.957 1.442c-.267 0-.343-1.013-.267-1.442 0 0 .23-.35.382-.858.039 0 .115.04.154 0-.039.507.038.741.114.858 0 0-.19 1.442-.382 1.442zm2.907-1.442c.153-.078.46-.507.612-.897.153.079.306.079.497.04.077.429.191.701.46.857-.116.702-.345 1.403-.842 1.403-.46 0-.689-.935-.727-1.403zm.344-1.052c-.229.624-.459.974-.764.974-.383 0-.42-.819-.42-.897.305-.233.534-.7.725-1.09h.268c-.076.583.077.857.192 1.013zm-1.874-.975c-.19.545-.114.819-.037 1.014-.306.779-.46.975-.689.975-.23-.04-.23-.508-.153-.897.23-.157.727-1.053.727-1.092h.152zm-1.108.04c.114-.04-.307.545-.268.818.038.39-.421 1.052-.46 1.013-.152-.039.154-1.442.728-1.832zm5.43.935c-.115.429-.268.974-.918.974-.344-.039-.535-.506-.612-.897.383-.272.574-.74.689-1.09a.776.776 0 00.42 0c.077.583.268.857.421 1.013zM4.315 7.109c.076-.039.574-.702.841-.702.153.04-.267.43-.23.624-.114.195-.65 1.169-.84 1.169-.154 0-.154-.506.229-1.091zm9.408 4.834c-.039.585-.039.896.076 1.091-.153.313-.573.78-.993.624-.154-.039-.154-.35-.116-.624.344-.195.574-.584.727-1.09.076.038.191.038.306 0zm1.53 0c.038.039.114.039.19-.04-.152.859-.19.936-.152 1.054-.268.506-.535.701-.88.701-.153 0-.076-.272.115-.624 0 0 .459-.389.726-1.09zm.612 1.014c-.154.155-.306.234-.421.506-.038.078.688.156 1.07-1.481-.076-.117-.306.624-.65.975h.001zm-4.399-1.014c0 .468.115.896.345 1.17-.192.662-.727.662-.918.623-.268-.078-.344-.312-.42-.702.305-.272.458-.74.534-1.09a.918.918 0 00.46 0zm3.442-1.092c0 .468.039.78.23.936-.153.39-.65 1.131-.956 1.131-.153 0-.23-.273-.153-1.092.23-.156.42-.546.535-.975a.35.35 0 00.344 0zm1.377.078c0 .313 0 .82.077.936-.153.313-.42.975-.727 1.092-.191.039-.153-.195.038-1.053 0 0 .268-.273.46-.975h.152zm-3.404-.078c.077.546.153.819.383.936-.038.195-.459.975-.88 1.052-.535.118-.573-.623-.573-1.013.267-.156.458-.507.573-.975.115.04.307.078.497 0zm1.454-.117c-.039.234-.344.975-.727.975-.23 0-.42-.39-.497-1.013.191-.157.42-.546.459-1.365.098.04.208.04.306 0 .153.702.268 1.17.459 1.403zm1.338-1.403c.191 1.208.23 1.248.306 1.403-.19.741-.382.975-.535.975-.344 0-.268-.623-.307-1.013.154-.157.345-.546.345-1.365.077.039.115 0 .191 0zm.803 1.403c.192-.312.115-1.325.192-1.403.114-.04.458 1.677-.115 2.3-.077.078-.077-.897-.077-.897zm-4.895-1.403c.115.78.306 1.208.65 1.403-.038.117-.344.975-.88.975-.42.04-.65-.468-.764-1.053.267-.311.459-.74.536-1.325.076.039.267.039.458 0zm3.175-.975c0 .078.229.741.496.936 0 .662-.19 1.404-.496 1.404-.345 0-.498-.741-.613-1.443.115-.117.268-.39.268-.857a.366.366 0 00.344-.04zm1.72.858c.038.43-.038 1.442-.23 1.403-.19 0-.382-1.442-.382-1.442.077-.117.153-.39.115-.819a.114.114 0 00.154 0c.152.507.343.858.343.858zm-3.747-.858c.152.351.42.78.65.897-.038.468-.306 1.403-.727 1.403-.574.04-.726-.662-.841-1.403.229-.156.382-.467.42-.857a.734.734 0 00.498-.04zm.956.741c-.268.04-.498-.312-.765-.935.152-.156.268-.468.191-1.014.115.039.191.039.268 0 .23.429.459.858.726 1.053 0 .116-.037.896-.42.896zm1.223-.935c.039-.156.115-.43-.114-1.014h.153c0 .039.535.975.726 1.091.077.43.077.858-.153.897-.19 0-.344-.195-.612-.975zm1.3-.118c.039-.272-.344-.857-.305-.818.612.39.841 1.793.726 1.832-.038.04-.458-.662-.42-1.014zm-4.856 1.053c-.574.04-.727-.506-.841-.935.19-.118.382-.468.42-1.014a.776.776 0 00.42 0c.115.35.307.819.613 1.053-.038.467-.23.857-.613.896zm3.556-2.69c.191 0 .765.663.803.702.421.623.421 1.092.268 1.092-.229 0-.726-.975-.84-1.17.037-.195-.383-.624-.23-.624zm-8.49.117c-.076.234-.114.468 0 .585-.23.468-.612 1.131-.956 1.092-.382-.079-.076-.975-.038-1.053.23-.117.765-.857.957-.857.114.038.037.233.037.233zm1.798-.038c0 .233.038.506.229.623-.153.468-.459 1.092-.956 1.053-.344-.04-.42-.624-.344-1.053.344-.117.65-.858.88-.858.19 0 .19.195.19.235zm5.43.623c.077-.117.077-.35 0-.585 0-.038-.076-.233.038-.233.192 0 .727.74.957.857.038.078.343.975-.039 1.053-.382.038-.726-.663-.956-1.092zm-2.027 0c.154-.117.192-.39.23-.623 0-.04 0-.235.191-.235.191-.039.574.74.88.858.114.507.037 1.013-.344 1.053-.536.077-.803-.624-.957-1.053zm-1.606-.858c.383 0 .383.74.689.897 0 .195-.115 1.053-.727 1.053-.536 0-.65-.702-.688-1.053.459-.195.306-.897.726-.897z" fill="#fff"/>
    </svg>