<svg width="24" height="24" fill="none" viewBox="-2 -2 24 24" id="starl" x="384" y="460" xmlns="http://www.w3.org/2000/svg">
        <circle cx="10" cy="10" r="10" fill="#060606"/>
        <circle cx="10" cy="10" r="9.79" fill="#fff"/>
        <path d="M7.744 3.432l.753.664h1.42l1.42.002.713-.63c.392-.348.783-.65.87-.673.255-.066.507.144.507.423 0 .211-.075.303-.691.852-.607.54-.682.631-.612.746.065.107.05.154-.083.263-.131.108-.187.117-.292.052-.11-.069-.178-.04-.444.195-.273.24-.313.313-.32.568l-.006.293-.262-.048a5.784 5.784 0 00-.787-.048c-.288 0-.642.022-.787.048l-.262.048v-.265c0-.254-.045-.306-1.123-1.266-1.161-1.035-1.394-1.277-1.394-1.445 0-.147.323-.442.485-.442.079 0 .473.292.894.663z" fill="url(#ogpaint0_radial_2151_2956)"/>
        <path d="M14.501 3.614c.229.18.229.242 0 1.333l-.186.885.701 1.213.702 1.214.907.315c.499.173.959.357 1.022.41.119.099.153.404.062.54a.687.687 0 01-.207.16c-.13.068-.299.035-1.037-.205-.802-.261-.89-.277-.966-.173-.119.163-.492.026-.434-.159.033-.103-.04-.151-.408-.271-.44-.143-.452-.143-.647-.015-.234.155-.304.164-.304.043 0-.168-.471-1.064-.725-1.38-.252-.311-.253-.315-.113-.43a.976.976 0 01.216-.143c.04-.013.213-.7.383-1.526.346-1.68.383-1.794.606-1.884.221-.089.223-.089.428.073z" fill="url(#ogpaint1_radial_2151_2956)"/>
        <path d="M17.622 10.392c.175.174.18.45.013.617-.07.07-.487.247-.927.393-.44.147-.849.293-.91.324-.062.032-.42.595-.797 1.253l-.686 1.194.186.89c.218 1.038.222 1.115.069 1.285-.142.157-.533.169-.656.02-.05-.06-.174-.508-.276-.996-.161-.765-.206-.889-.322-.889-.168 0-.234-.378-.081-.463.082-.046.086-.129.022-.482-.066-.364-.11-.447-.303-.569-.244-.155-.236-.253.047-.508.191-.174.184-.28-.027-.418-.154-.101-.164-.134-.092-.293.058-.126.119-.167.208-.14l.261.082c.112.035.157-.019.262-.316.095-.267.154-.346.233-.312l.012.005c.108.046.19.08.273.097.246.05.52-.04 1.597-.4l.041-.014c.808-.27 1.524-.492 1.591-.495.068-.003.186.058.262.135z" fill="url(#ogpaint2_radial_2151_2956)"/>
        <path d="M9.93 13.923c.25 0 .588-.024.752-.053l.297-.053v.272c0 .264.036.304 1.207 1.35.987.882 1.21 1.115 1.226 1.284.028.284-.128.475-.388.475-.167 0-.365-.134-.944-.64l-.732-.642H8.494l-.714.624c-.393.344-.78.645-.859.67-.174.056-.458-.114-.52-.31-.07-.215.088-.427.75-1.012.503-.446.605-.569.572-.697-.054-.216.2-.451.352-.326.087.072.164.037.455-.207.312-.26.351-.324.351-.567v-.274l.297.053c.164.03.502.053.752.053z" fill="url(#ogpaint3_radial_2151_2956)"/>
        <path d="M3.395 10.533c.756.254.844.27.919.167.114-.155.476-.04.476.152 0 .1.101.169.405.274.389.133.414.134.618.017.268-.154.34-.154.341 0 0 .19.44 1.019.726 1.367l.257.313-.234.138-.234.138-.297 1.461c-.163.804-.33 1.548-.371 1.654-.135.35-.714.349-.802-.001-.028-.114.027-.567.136-1.123l.184-.932-.705-1.215-.704-1.216-.883-.291c-.958-.316-1.146-.437-1.146-.736 0-.193.225-.448.395-.448.046 0 .46.126.919.28z" fill="url(#ogpaint4_radial_2151_2956)"/>
        <path d="M5.925 3.635c.062.058.439 1.63.439 1.831 0 .012.07.031.157.043.12.017.163.076.18.25.016.169-.007.227-.088.227-.13 0-.131.008-.03.513.068.335.117.42.315.542l.236.146-.21.255c-.248.3-.258.37-.07.486.162.102.176.219.047.396-.087.118-.107.119-.31.014l-.218-.113-.14.367c-.076.201-.164.36-.196.352a3.852 3.852 0 01-.27-.097c-.192-.075-.363-.034-1.735.413-1.652.538-1.796.551-1.939.175-.13-.342.075-.5 1.111-.858l.922-.318.695-1.213.696-1.213-.175-.867c-.097-.477-.166-.969-.154-1.093.035-.358.463-.497.737-.238z" fill="url(#ogpaint5_radial_2151_2956)"/>
        <path fill-rule="evenodd" clip-rule="evenodd" d="M4.207 2.646A9.663 9.663 0 019.266.67c1.473-.13 3.533.273 4.88.955a9.337 9.337 0 015.092 7.402c.414 4.111-2.138 8.11-6.077 9.524-1.095.394-1.912.532-3.16.537-1.972.007-3.651-.495-5.28-1.578-.624-.414-1.822-1.562-2.258-2.161C1.46 13.967.897 12.476.7 10.672c-.095-.866-.05-1.558.175-2.658a9.084 9.084 0 013.333-5.368zm5.56.934c.793.15 1.206-.914.514-1.324-.258-.152-.475-.146-.746.019-.546.333-.395 1.188.231 1.305zm-1.27.516l-.753-.664c-.422-.37-.816-.663-.895-.663-.162 0-.485.295-.485.442 0 .168.233.41 1.394 1.445 1.078.96 1.123 1.012 1.123 1.266v.265l.262-.048c.145-.026.499-.048.787-.048.289 0 .643.022.787.048l.262.048.007-.293c.005-.255.046-.328.32-.568.265-.235.332-.264.443-.195.105.065.161.056.292-.052.133-.11.148-.156.083-.263-.07-.115.005-.206.611-.746.617-.55.692-.641.692-.852 0-.279-.252-.49-.507-.423-.087.023-.478.325-.87.672l-.713.631-1.42-.001-1.42-.001zm-2.133 1.37c0-.2-.377-1.773-.439-1.831-.274-.259-.702-.12-.737.238-.012.124.057.616.154 1.093l.175.867-.696 1.213-.695 1.213-.922.318c-1.036.358-1.24.516-1.11.858.142.376.286.363 1.938-.175 1.372-.447 1.543-.488 1.734-.413.117.045.24.09.27.097.033.008.121-.15.198-.352l.14-.367.217.113c.203.105.223.104.31-.014.13-.177.115-.294-.048-.396-.187-.117-.177-.186.07-.486l.21-.255-.235-.146c-.198-.123-.247-.207-.315-.542-.101-.505-.1-.513.03-.513.081 0 .104-.058.087-.227-.016-.174-.058-.233-.179-.25-.086-.012-.157-.031-.157-.043zm8.136-.519c.23-1.091.23-1.154.001-1.333-.205-.162-.207-.162-.428-.073-.223.09-.26.203-.606 1.884-.17.826-.343 1.513-.383 1.526a.976.976 0 00-.216.142c-.14.116-.139.12.113.432.254.315.725 1.21.725 1.379 0 .121.07.112.304-.043.195-.128.207-.128.647.015.369.12.441.168.409.271-.06.185.314.322.433.16.076-.105.164-.09.966.172.738.24.907.273 1.037.205a.687.687 0 00.207-.16c.091-.136.056-.441-.062-.54-.063-.053-.523-.237-1.022-.41l-.907-.315-.702-1.214-.701-1.213.185-.885zM4.1 6.665c.015-.014-.107-.267-.27-.56-.164-.294-.32-.535-.348-.536-.028 0-.192.242-.365.54l-.314.543.635.02c.35.01.648.008.663-.007zm12.864-.72c-.016-.043-.235-.13-.486-.193a8.822 8.822 0 00-.49-.114c-.019 0-.085.18-.148.402l-.148.521c-.028.094.044.142.336.226l.007.002c.382.11.553.16.653.096.081-.051.116-.176.178-.403l.002-.005c.069-.25.112-.49.096-.532zm-6.382 2.434a12.46 12.46 0 00-.388-.626c-.11-.164-.227-.297-.259-.297-.031 0-.235.296-.45.66l-.394.658-.682.154c-.375.085-.722.191-.77.237-.071.065.013.2.41.657l.5.575-.049.76c-.032.496-.024.775.023.804.039.024.376-.086.748-.245l.676-.29.688.294c.378.162.723.271.768.244.075-.047.045-.982-.046-1.396-.021-.099.115-.304.463-.696.271-.305.484-.603.472-.663-.014-.074-.227-.153-.692-.256-.37-.082-.708-.17-.75-.197-.044-.027-.164-.197-.268-.377zm-1.968-.154c.167 0 .161-.145-.02-.45-.144-.246-.293-.316-.377-.18-.07.114.256.63.397.63zm2.68 0c.122 0 .384-.394.384-.577 0-.201-.188-.139-.344.113-.171.278-.187.464-.04.464zM4.315 10.7c-.075.103-.163.087-.919-.167-.46-.155-.873-.281-.919-.281-.17 0-.395.255-.395.448 0 .3.188.42 1.146.736l.883.29.704 1.216.705 1.216-.184.932c-.11.556-.164 1.01-.136 1.123.088.35.667.35.802.001.04-.106.208-.85.371-1.654l.297-1.46.234-.139.234-.138-.257-.313c-.285-.348-.725-1.177-.726-1.367 0-.154-.073-.154-.341 0-.204.117-.23.116-.618-.017-.304-.105-.405-.173-.405-.274 0-.192-.362-.307-.476-.152zm13.321.309a.435.435 0 00-.013-.617c-.076-.077-.194-.138-.262-.135-.067.003-.783.226-1.59.495l-.042.014c-1.076.36-1.351.45-1.597.4-.084-.017-.165-.051-.273-.097l-.012-.005c-.08-.034-.138.045-.233.313-.105.296-.15.35-.261.315l-.262-.081c-.09-.028-.15.013-.208.14-.072.158-.062.19.092.292.211.138.218.244.027.418-.282.255-.291.353-.046.508.192.123.236.205.302.57.064.352.06.434-.022.48-.153.086-.086.464.082.464.115 0 .16.123.32.888.103.489.227.937.277.997.123.149.514.137.656-.02.153-.17.149-.247-.069-1.286l-.186-.889.686-1.194c.377-.658.735-1.221.797-1.253.061-.031.47-.177.91-.324.44-.146.857-.323.927-.393zm-10.36-.058c.23 0 .642-.2.61-.296-.042-.127-.262-.136-.525-.02-.253.111-.308.316-.085.316zm5.46-.043c.102-.124.04-.19-.28-.297-.334-.111-.427-.1-.427.054 0 .193.582.393.707.243zm-2.787 1.988c.104.02.122-.033.122-.366 0-.304-.024-.39-.107-.39-.14 0-.187.135-.16.464.016.19.058.276.145.292zm-5.815.469c0-.038-.213-.124-.475-.19-.546-.14-.58-.145-.58-.073 0 .029-.061.263-.135.521l-.134.469.361.103.17.05c.315.092.453.132.529.08.058-.039.08-.133.12-.299.007-.035.016-.073.027-.115.064-.262.117-.508.117-.546zm12.234 1.082c.05 0 .65-1.05.616-1.078-.014-.011-.318-.04-.677-.065l-.651-.044.229.401.337.594c.06.105.125.192.146.192zm-5.685-.577a5.326 5.326 0 01-1.504 0l-.297-.053v.274c0 .243-.039.307-.35.568-.292.243-.37.278-.456.206-.152-.125-.406.11-.351.326.032.128-.07.251-.574.697-.661.585-.818.797-.75 1.012.063.196.347.366.521.31.08-.025.466-.326.859-.67l.714-.624h2.854l.732.641c.579.507.777.641.944.641.26 0 .417-.19.388-.475-.017-.17-.24-.402-1.227-1.284-1.17-1.046-1.206-1.086-1.206-1.35v-.272l-.297.053zm-.726 3.959c.613-.016.907-.781.47-1.219-.528-.527-1.39.003-1.189.731.089.32.35.498.719.488z" fill="url(#ogpaint6_radial_2151_2956)"/>
        <path d="M16.771 6.45v-.001c.034-.123.061-.242.078-.335.009-.047.014-.085.017-.113v-.01a.818.818 0 00-.093-.043 2.69 2.69 0 00-.32-.1 22.383 22.383 0 00-.413-.1l-.016.04c-.025.07-.057.169-.088.278 0 0 0 0 0 0l-.096-.027.931.41zm0 0l-.001.005s0 0 0 0a2.678 2.678 0 01-.079.256c-.024.06-.043.08-.056.089-.017.01-.052.02-.15.003a4.785 4.785 0 01-.422-.11l-.028.095.028-.096-.008-.002s0 0 0 0a1.078 1.078 0 01-.267-.102l.983-.139zM2.943 13.622l.096.027-.106.373.265.076-.028.096.028-.096.173.05c.13.039.227.067.302.083.111.025.135.014.14.01.004-.002.018-.015.038-.08.012-.042.024-.091.039-.154l.028-.12a13.824 13.824 0 00.108-.477v-.007a.864.864 0 00-.07-.03l-1.013.249zm0 0l.096.027a14 14 0 00.13-.49c.074.012.21.046.464.111l-.69.352zm.234-.526v.003-.003z" fill="#BAE0F7" stroke="#000" stroke-width=".2"/>
        <path d="M9.334 17.314h0c.038.14.112.243.214.312l-.214-.312zm0 0a.632.632 0 01.277-.724.586.586 0 01.743.09c.379.38.12 1.035-.4 1.049l-.62-.415z" fill="#FCF5BE" stroke="#000" stroke-width=".2"/>
        <path d="M3.963 6.576a7.76 7.76 0 00-.22-.424l.22.424zm0 0l-.069.001c-.118.001-.279 0-.452-.006h0l-.469-.015.23-.397h0a6.882 6.882 0 01.277-.44l.04.061c.062.095.141.227.222.372l.22.424zm-.525.093h0zm13.408 6.78a9.646 9.646 0 01-.484.845 1.228 1.228 0 01-.054-.088l-.338-.594-.136-.24.466.032s0 0 0 0a17.279 17.279 0 01.546.045z" fill="#EF9989" stroke="#000" stroke-width=".2"/>
        <path d="M6.636 8.249h0a1.482 1.482 0 00.144.065l-.144-.065zm0 0l-.217-.113-.1-.051m.317.164l-.317-.164m0 0l-.04.105m.04-.105l-.04.105m0 0l-.139.366s0 0 0 0a1.915 1.915 0 01-.129.275 6.214 6.214 0 01-.209-.077h0m.477-.564l-.477.563m0 0a.504.504 0 00-.195-.036c-.076 0-.167.014-.289.043-.243.058-.633.182-1.318.405-.413.134-.73.236-.976.306a3.16 3.16 0 01-.537.12c-.12.01-.173-.007-.204-.03-.034-.024-.061-.068-.097-.161-.029-.076-.033-.128-.023-.169.01-.039.038-.084.11-.14.148-.115.441-.239.963-.42l.922-.318.035-.012m1.61.412l-1.61-.412m0 0l.019-.032m-.019.032l.019-.032m0 0l.696-1.213.696-1.213.018-.033m-1.41 2.459l1.41-2.46m0 0l-.007-.036m.007.037l-.007-.037m0 0l-.176-.867m.176.867l-.176-.867m8.963-.02h0c.116-.55.17-.826.17-.987a.267.267 0 00-.029-.144.403.403 0 00-.104-.103 1.877 1.877 0 00-.115-.087.132.132 0 00-.048-.023.1.1 0 00-.044.006 1.452 1.452 0 00-.122.046l.292 1.293zm0 0l-.186.885-.008.038m.194-.922l-.194.922m0 0l.02.033m-.02-.033l.02.033m0 0l.701 1.213.702 1.214.018.032m-1.421-2.459l1.421 2.46m0 0l.036.011m-.036-.012l.036.012m0 0l.907.315c.248.086.486.175.67.249a5.38 5.38 0 01.296.13c.02.01.026.015.025.014l.064-.077-.064.077c.03.025.063.094.074.19a.357.357 0 01-.032.218l.084.056m-2.024-1.172l2.024 1.172m0 0l-.084-.056a.33.33 0 01-.06.055.804.804 0 01-.11.071h0m.254-.07l-.254.07m0 0c-.036.019-.083.032-.225.004a7.467 7.467 0 01-.734-.215s0 0 0 0l-1.808-.603h0m2.767.814l-2.767-.814m0 0a6.51 6.51 0 00-.264-.082m.264.082l-.264-.082m-11.06 1.929h-.001a24.64 24.64 0 00-.815-.258 1.61 1.61 0 00-.076-.018.18.18 0 00-.079.029.457.457 0 00-.104.089.392.392 0 00-.109.23c0 .064.01.11.032.148.022.04.061.082.136.13.154.099.428.204.91.363l-.03.09.03-.09.883.29.036.013.02.033.704 1.215.704 1.216.019.033-.007.037-.184.932c-.055.276-.095.526-.119.72a3.241 3.241 0 00-.021.242.528.528 0 00.003.117c.029.116.142.187.286.187s.277-.072.325-.198c.008-.019.024-.079.049-.178.024-.096.053-.224.087-.373.067-.3.15-.686.231-1.087l.088.018-.088-.018.297-1.46.009-.044.038-.023.234-.138h0l.133-.079-.183-.223a5.122 5.122 0 01-.48-.759 4.797 4.797 0 01-.187-.387 1.7 1.7 0 01-.057-.155.466.466 0 01-.024-.137.408.408 0 00-.036.014l-2.655-.521zm0 0l1.8.592c.186.065.307.105.406.108.112.004.192-.04.292-.098l-2.499-.602zm10.845 3.529l.019-.033.685-1.195s0 0 0 0c.19-.33.374-.636.52-.865.072-.114.136-.21.185-.28a1.546 1.546 0 01.094-.117.165.165 0 01.04-.03c.038-.02.164-.066.325-.124.166-.059.38-.132.6-.206a8.29 8.29 0 00.594-.222 3.232 3.232 0 00.269-.13.3.3 0 00.018-.012l.006-.005h0a.335.335 0 00-.012-.476.457.457 0 00-.11-.079.203.203 0 00-.078-.026h-.002l-.032.008a16.153 16.153 0 00-.458.135c-.288.09-.668.212-1.071.347l-.031-.093.03.093-.041.014-.006.002c-.533.178-.873.291-1.11.354-.239.062-.387.077-.532.047-.094-.02-.183-.057-.286-.1l-.005-.003a1.057 1.057 0 00-.113.249s0 0 0 0l.502 2.747zm0 0l.008.037m-.008-.037l.008.037m0 0l.186.889c.11.523.163.793.171.954a.367.367 0 01-.014.15.295.295 0 01-.065.094c-.045.05-.145.088-.264.091a.482.482 0 01-.153-.018.188.188 0 01-.086-.048l-.009-.018a3.745 3.745 0 01-.091-.284 11.03 11.03 0 01-.157-.653s0 0 0 0l-.38-1.832c-.033-.18-.062-.306-.114-.403a.603.603 0 00-.233-.231h0l1.209 1.309zm-1.189-2.235h0c.106.07.202.155.21.273.007.117-.075.216-.17.303 0 0 0 0 0 0l-.04-.576zm0 0a.622.622 0 01-.09-.07c0-.002 0-.007.003-.016a.533.533 0 01.032-.081l-.082-.038m.137.205l-.137-.205m0 0l.082.038c.026-.058.047-.08.057-.086m-.139.048l.139-.048m-4.05 2.23v.155c0 .126-.009.226-.073.33-.058.095-.16.186-.312.313l-1.378 1.228h0c-.332.294-.53.487-.635.63a.505.505 0 00-.09.167.19.19 0 00.003.11h0a.39.39 0 00.175.195c.089.053.172.066.22.051h.001l.022-.012a4.505 4.505 0 00.258-.187c.154-.12.348-.28.543-.45l.713-.625.029-.025h2.929l.029.025.732.641c.29.253.48.41.616.503.137.093.208.113.262.113.105 0 .178-.037.225-.094L8.98 13.936zm0 0l.18.032a5.417 5.417 0 001.54 0l.179-.032v.153c0 .067.002.135.03.21a.783.783 0 00.16.238c.16.18.467.456 1.05.976.494.442.793.718.971.904.183.192.218.27.222.316l-4.331-2.797zm-3.54-8.99s0 0 0 0h0zm8.984 3.753a.76.76 0 00-.18-.032m.18.032l-.18-.032m0 0c-.117-.003-.193.047-.287.109m.287-.11l-.287.11m0 0l-.002.002m.002-.002l-.002.002m0 0a1.712 1.712 0 01-.138.084m.138-.084l-.138.084m0 0a.534.534 0 01-.014.007m.014-.007l-.014.007m0 0a.56.56 0 00-.023-.09 1.899 1.899 0 00-.06-.157 5.767 5.767 0 00-.193-.4 5.415 5.415 0 00-.469-.76 4.891 4.891 0 01-.14-.179.413.413 0 01-.041-.065 1.333 1.333 0 01.231-.169l.005-.002h.002l.688 1.822zm-.773 2.837a.015.015 0 01.008-.003m-.008.003l.008-.003m0 0c.002 0 .01 0 .022.003l-.022-.003zM6.887 8.109c.003.026-.007.073-.067.156L5.287 3.882s0 0 0 0a.3.3 0 01.21-.264.357.357 0 01.338.07l.65 2.832c.034.167.065.286.12.38.057.1.135.161.24.226l.138.086-.137.166s0 0 0 0a2.26 2.26 0 00-.148.195.427.427 0 00-.072.166c-.01.064.008.12.045.167.033.043.08.076.129.107.07.044.084.076.087.096z" fill="#FFE3C1" stroke="#000" stroke-width=".2"/>
        <path d="M10.23 2.343h0a.592.592 0 01.257.748.612.612 0 01-.702.39c-.534-.1-.667-.835-.198-1.12a.662.662 0 01.328-.114.583.583 0 01.315.096z" fill="#FCF5BE" stroke="#000" stroke-width=".2"/>
        <path d="M12.92 2.795c-.087.023-.478.325-.87.672l-.713.631-3.66-.59.754.663.028.024h.038l1.42.002 1.42.001h.037l.029-.025.713-.63c.194-.173.389-.334.544-.454a3.901 3.901 0 01.263-.185.228.228 0 01.022-.012c.001 0 .001 0 0 0 .184-.048.382.104.382.326 0 .047-.004.08-.016.112a.428.428 0 01-.076.124c-.09.11-.255.264-.566.54h0l.066.076m.185-1.275l.025.097s0 0 0 0l-.025-.097zm0 0c.255-.066.507.144.507.423 0 .211-.075.303-.692.852m0 0l-.066-.075-1.43 1.255h0c-.135.12-.226.208-.28.305a.675.675 0 00-.073.337l-.004.176m1.853-1.998l-1.43 1.256c-.273.24-.313.313-.32.568l-.004.192-.1-.018m0 0l-.002.1-1.754-.127c.154-.028.515-.05.805-.05.29 0 .652.022.805.05m.147.027l-.147-.027m0 0h0l-.018.098.018-.098zM7.108 3.042c.158.117.36.281.57.465l1.447 2.534-.144.026v-.145a.548.548 0 00-.03-.206.76.76 0 00-.152-.229c-.152-.17-.438-.428-.974-.906h0c-.582-.518-.927-.834-1.128-1.042-.1-.104-.16-.177-.194-.23-.034-.053-.04-.081-.04-.098 0-.006.007-.03.037-.075a.802.802 0 01.254-.231.265.265 0 01.088-.035l.01.004a.602.602 0 01.059.032c.05.031.118.077.197.136z" fill="#FFE3C1" stroke="#000" stroke-width=".2"/>
        <circle cx="9.93" cy="10" fill="#000102" r="3.986"/>
        <circle cx="9.93" cy="10" fill="#0A2377" r="3.497"/>
        <path fill-rule="evenodd" clip-rule="evenodd" d="M10.194 7.752c.11.163.285.445.388.626.104.18.224.35.267.377.043.026.38.115.75.197.466.103.679.182.693.256.011.06-.201.358-.472.663-.348.392-.484.597-.463.696.09.414.121 1.35.046 1.396-.045.027-.39-.082-.768-.244l-.688-.293-.676.289c-.372.159-.71.269-.749.245-.046-.03-.054-.308-.022-.804l.05-.76-.5-.575c-.398-.457-.482-.592-.412-.657.05-.046.396-.152.771-.237l.682-.154.393-.659c.216-.363.42-.66.451-.66.032 0 .149.134.259.298zm-.91 1.286c.046-.028.197-.254.336-.502.139-.249.289-.452.334-.451.044 0 .191.192.325.425.135.234.286.458.335.5.05.04.316.128.591.192.275.065.51.148.523.184.012.037-.14.249-.338.471l-.361.405.041.587c.023.323.017.603-.013.621-.03.019-.295-.065-.588-.186l-.535-.22-.509.224c-.28.122-.534.223-.564.223-.03 0-.034-.276-.01-.612l.046-.612-.361-.41c-.198-.225-.349-.445-.334-.488.014-.043.245-.128.513-.189.267-.06.524-.134.57-.162z" fill="#FCA81A"/>
        <path d="M11.678 7.647c0 .183-.262.577-.383.577-.148 0-.132-.186.04-.464.155-.252.344-.314.343-.113zM8.595 7.773c.18.306.186.45.02.45-.142 0-.468-.515-.398-.628.084-.137.233-.067.378.178zM7.885 10.655c.032.097-.38.296-.61.296-.223 0-.168-.205.085-.317.262-.115.483-.106.525.021zM10.07 12.53c0 .333-.018.386-.122.366-.087-.016-.13-.102-.145-.292-.027-.33.02-.464.16-.464.083 0 .107.086.107.39zM12.455 10.611c.32.107.382.173.28.297-.125.15-.707-.05-.707-.243 0-.153.093-.165.427-.054z" fill="#FCA81A"/>
        <path fill-rule="evenodd" clip-rule="evenodd" d="M9.62 8.536c-.139.248-.29.474-.335.502-.046.028-.302.101-.57.162-.268.06-.499.146-.513.189-.015.043.136.263.334.488l.36.41-.045.612c-.024.336-.02.612.01.612s.284-.1.564-.223l.51-.224.534.22c.294.121.559.205.588.186.03-.018.036-.298.013-.62l-.04-.588.36-.405c.198-.222.35-.434.338-.47-.012-.037-.247-.12-.523-.185-.275-.064-.54-.151-.59-.192-.05-.042-.201-.266-.335-.5-.135-.233-.282-.425-.326-.425-.045 0-.195.202-.334.45zm1.114.873c-.255-.082-.38-.173-.503-.368-.208-.33-.366-.326-.56.014-.125.22-.214.285-.475.35-.176.045-.338.127-.36.184-.022.059.057.213.185.359.208.236.222.282.18.596-.055.414.036.476.454.309.265-.106.308-.106.632.01.417.148.481.093.43-.371-.031-.27-.009-.337.187-.56.122-.139.21-.289.196-.334-.014-.044-.179-.13-.366-.19z" fill="#6C558D"/>
        <path fill-rule="evenodd" clip-rule="evenodd" d="M10.231 9.041c.123.195.248.285.503.368.187.06.352.145.366.19.014.044-.074.194-.196.334-.196.222-.218.29-.188.559.052.463-.012.519-.43.37-.323-.115-.366-.115-.631-.01-.418.168-.51.106-.454-.308.041-.314.027-.36-.18-.596-.128-.146-.208-.3-.185-.359.022-.057.184-.14.36-.184.261-.065.35-.13.475-.35.194-.34.351-.343.56-.014zm-.664.63a.4.4 0 00.284-.23l.087-.192.135.222c.077.127.193.221.271.221.184 0 .238.104.11.21-.058.048-.104.187-.104.309v.22h-.385c-.37 0-.385-.006-.385-.186 0-.102-.047-.225-.105-.273-.162-.134-.124-.258.092-.301z" fill="#69DAEC"/>
        <path d="M9.851 9.44a.4.4 0 01-.284.23c-.216.044-.254.168-.091.302.057.048.105.171.105.274 0 .179.014.186.384.186h.385v-.222c0-.121.047-.26.104-.307.128-.106.074-.21-.11-.21-.078 0-.193-.095-.27-.222l-.136-.222-.087.191z" fill="#644086"/>
        <defs>
            <radialGradient id="ogpaint0_radial_2151_2956" cx="0" cy="0" r="1" gradientUnits="userSpaceOnUse" gradientTransform="matrix(0 9.8618 -9.88272 0 9.965 9.932)">
                <stop offset=".369" stop-color="#DC2A17"/>
                <stop offset="1" stop-color="#F44A21"/>
            </radialGradient>
            <radialGradient id="ogpaint1_radial_2151_2956" cx="0" cy="0" r="1" gradientUnits="userSpaceOnUse" gradientTransform="matrix(0 9.8618 -9.88272 0 9.965 9.932)">
                <stop offset=".369" stop-color="#DC2A17"/>
                <stop offset="1" stop-color="#F44A21"/>
            </radialGradient>
            <radialGradient id="ogpaint2_radial_2151_2956" cx="0" cy="0" r="1" gradientUnits="userSpaceOnUse" gradientTransform="matrix(0 9.8618 -9.88272 0 9.965 9.932)">
                <stop offset=".369" stop-color="#DC2A17"/>
                <stop offset="1" stop-color="#F44A21"/>
            </radialGradient>
            <radialGradient id="ogpaint3_radial_2151_2956" cx="0" cy="0" r="1" gradientUnits="userSpaceOnUse" gradientTransform="matrix(0 9.8618 -9.88272 0 9.965 9.932)">
                <stop offset=".369" stop-color="#DC2A17"/>
                <stop offset="1" stop-color="#F44A21"/>
            </radialGradient>
            <radialGradient id="ogpaint4_radial_2151_2956" cx="0" cy="0" r="1" gradientUnits="userSpaceOnUse" gradientTransform="matrix(0 9.8618 -9.88272 0 9.965 9.932)">
                <stop offset=".369" stop-color="#DC2A17"/>
                <stop offset="1" stop-color="#F44A21"/>
            </radialGradient>
            <radialGradient id="ogpaint5_radial_2151_2956" cx="0" cy="0" r="1" gradientUnits="userSpaceOnUse" gradientTransform="matrix(0 9.8618 -9.88272 0 9.965 9.932)">
                <stop offset=".369" stop-color="#DC2A17"/>
                <stop offset="1" stop-color="#F44A21"/>
            </radialGradient>
            <radialGradient id="ogpaint6_radial_2151_2956" cx="0" cy="0" r="1" gradientUnits="userSpaceOnUse" gradientTransform="matrix(0 9.8618 -9.88272 0 9.965 9.932)">
                <stop offset=".369" stop-color="#DC2A17"/>
                <stop offset="1" stop-color="#F44A21"/>
            </radialGradient>
        </defs>
    </svg>