<svg width="24" height="24" fill="none" viewBox="-2 -2 24 24" id="steem" x="408" y="460" xmlns="http://www.w3.org/2000/svg">
        <g clip-path="url(#ohclip0)">
            <circle cx="10" cy="10" r="9" fill="#fff"/>
            <path d="M10.002 0C4.478 0 0 4.478 0 10.002c0 5.523 4.478 10.001 10.002 10.001 5.523 0 10.001-4.478 10.001-10.001C20.003 4.478 15.525 0 10.002 0zM7.5 13.457l-.094.095a7.44 7.44 0 01-.623.555l-.25.197a.092.092 0 01-.106.006.087.087 0 01-.04-.098l.098-.443c.108-.48.085-.985-.068-1.456l-.054-.162a6.534 6.534 0 00-.213-.559L4.996 8.868l-.125-.372a1.798 1.798 0 01-.078-.356l-.02-.186a1.72 1.72 0 01.494-1.411l.094-.095a7.44 7.44 0 01.623-.555l.25-.197a.092.092 0 01.105-.006c.034.02.051.057.041.098l-.098.443c-.108.48-.085.985.068 1.456l.054.162c.06.19.135.376.213.559l1.158 2.724.125.373c.037.115.064.233.078.355l.02.186a1.737 1.737 0 01-.498 1.411zm3.906.894l-.122.122a8.505 8.505 0 01-.785.697l-.325.257a.1.1 0 01-.06.02.112.112 0 01-.055-.016.095.095 0 01-.044-.105l.129-.572a3.494 3.494 0 00-.088-1.838l-.068-.207a7.433 7.433 0 00-.27-.707l-1.46-3.435-.155-.467a2.21 2.21 0 01-.098-.444l-.027-.237c-.075-.656.152-1.3.616-1.77l.122-.122c.247-.247.51-.484.785-.697l.325-.257a.097.097 0 01.115-.007.095.095 0 01.044.105l-.129.572a3.495 3.495 0 00.088 1.838l.068.206c.078.237.17.477.27.708l1.46 3.438.155.467c.047.143.081.295.098.444l.027.237a2.16 2.16 0 01-.616 1.77zm3.33-.894l-.094.095a7.442 7.442 0 01-.623.555l-.25.197a.092.092 0 01-.105.006.087.087 0 01-.04-.098l.097-.443a2.76 2.76 0 00-.067-1.456l-.054-.162a6.544 6.544 0 00-.214-.559L12.23 8.868l-.125-.372a1.798 1.798 0 01-.078-.356l-.02-.186a1.72 1.72 0 01.494-1.411l.094-.095c.197-.197.407-.383.623-.555l.25-.197a.092.092 0 01.105-.006c.034.02.051.057.041.098l-.098.443c-.108.48-.085.985.068 1.456l.054.162c.06.19.135.376.213.559l1.158 2.724.125.373c.037.115.064.233.078.355l.02.186a1.724 1.724 0 01-.494 1.411z" fill="#171FC9"/>
        </g>
        <defs>
            <clipPath id="ohclip0">
                <path fill="#fff" d="M0 0h20v20H0z"/>
            </clipPath>
        </defs>
    </svg>