<svg width="24" height="24" fill="none" viewBox="-2 -2 24 24" id="steth" x="432" y="460" xmlns="http://www.w3.org/2000/svg">
        <g opacity=".2" fill="#00A3FF">
            <path d="M10.004 10.616V4.853l5.04 2.883-5.04 2.88zM15.853 8.975l-5.85 3.342v7.654l5.85-10.996z"/>
        </g>
        <g opacity=".6" fill="#00A3FF">
            <path d="M4.961 7.736l5.043-2.883v5.763l-5.043-2.88zM4.147 8.975l5.85 3.342v7.654L4.147 8.975z"/>
        </g>
        <path d="M4.961 7.736L10.004.004v4.84L4.961 7.737zM3.987 9.22l.16-.245 5.85 10.996a7.186 7.186 0 01-5.043-2.047 6.883 6.883 0 01-.967-8.704z" fill="#00A3FF"/>
        <g opacity=".6" fill="#00A3FF">
            <path d="M15.047 7.737l-5.043-2.892V0l5.043 7.737zM16.013 9.22l-.16-.245-5.85 10.996c1.825 0 3.65-.683 5.043-2.047a6.883 6.883 0 00.967-8.704z"/>
        </g>
    </svg>