<svg width="24" height="24" fill="none" viewBox="-2 -2 24 24" id="stfiro" x="456" y="460" xmlns="http://www.w3.org/2000/svg">
        <path d="M.011 9a8.983 8.983 0 008.983 8.983c1.244 0-.071-1.026 1.006-1.483 1.425-.604.064-1.793 1-3 .472-.61 1.195-1.28 1.5-2 .456-1.076 5.477-1.258 5.477-2.5A8.983 8.983 0 00.01 9z" fill="#FEFEFE"/>
        <path d="M20 16a4 4 0 11-8 0 4 4 0 018 0z" fill="#12223B"/>
        <path d="M5.78 12.642a.557.557 0 01-.497.3v.006H.908A8.938 8.938 0 010 9.006a9.005 9.005 0 0115.543-6.191h-4.237a.563.563 0 00-.497.3L8.295 7.88H5.058a.561.561 0 00-.56.56v1.127c0 .307.248.561.56.561h2.046L5.78 12.642z" fill="#9B1C2E"/>
        <path d="M12.22 5.358c.092-.185.289-.3.497-.3v-.006h4.375A8.938 8.938 0 0118 8.994c0 .796-.103 1.568-.297 2.303a5 5 0 00-6.405 6.405A9.018 9.018 0 018.993 18a8.968 8.968 0 01-6.537-2.815h4.237a.563.563 0 00.497-.3l2.514-4.764h3.237c.306 0 .56-.248.56-.56V8.434a.561.561 0 00-.56-.561h-2.046l1.323-2.515z" fill="#9B1C2E"/>
        <path fill-rule="evenodd" clip-rule="evenodd" d="M17.33 14.431l-2.014-1.867-.05 1.72-.933.933v.492l-1.277 1.277c.55 1.257 1.67 1.08 2.161.835l2.113 1.67.098-1.817.344.687.147-.442.344-.098.147-1.032.295.59.295-.934-1.67-1.277v-.737zm-2.358 1.13v.393h.59l-.59-.393z" fill="#6DEFF9"/>
        <path d="M14.382 12.564v2.211l.639-.639v-.933l-.639-.639z" fill="#6DEFF9"/>
    </svg>