<svg width="24" height="24" fill="none" viewBox="-2 -2 24 24" id="storj" x="494" y="24" xmlns="http://www.w3.org/2000/svg">
        <g clip-path="url(#olclip0)" fill="#4293FF">
            <path d="M18.496 14.197c-.016-.627-.276-1.093-.778-1.408-.093-.058-.125-.117-.125-.227.003-1.71.003-3.42 0-5.128 0-.103.025-.165.115-.22.582-.35.876-.997.771-1.677a1.588 1.588 0 00-1.245-1.317 1.41 1.41 0 00-1.066.196c-.1.064-.17.053-.264-.004-1.406-.851-2.814-1.7-4.223-2.546-.096-.058-.133-.122-.133-.24C11.55.805 10.942.09 10.184.01 9.375-.076 8.66.454 8.486 1.274a2.084 2.084 0 00-.038.387c-.002.087-.026.14-.1.186-1.429.859-2.856 1.72-4.284 2.582-.077.047-.138.047-.215-.002-.933-.586-2.121-.024-2.32 1.072-.124.692.146 1.34.738 1.704.094.057.136.116.136.235-.004 1.71-.003 3.419 0 5.128 0 .103-.026.163-.116.218-.595.361-.875.989-.761 1.693.113.7.632 1.214 1.306 1.314a1.42 1.42 0 001.023-.223c.072-.049.126-.047.2-.003 1.423.86 2.847 1.719 4.272 2.575.086.051.12.11.12.217.003.941.715 1.662 1.617 1.643.703-.015 1.36-.621 1.46-1.346.01-.067.024-.108.024-.2 0-.2.07-.286.22-.375 1.383-.827 2.762-1.66 4.14-2.495.095-.057.164-.06.263-.001.936.557 2.07.023 2.298-1.081.021-.103.019-.21.027-.305zM6.293 8.333c-.015-.012-.024-.023-.036-.03-.776-.468-1.55-.938-2.33-1.4-.042-.026-.126-.02-.17.007-.205.13-.424.216-.664.223-.798.021-1.283-.66-1.31-1.252-.032-.692.47-1.402 1.281-1.396.712.006 1.253.602 1.246 1.346-.001.133.036.208.148.274.827.492 1.65.99 2.473 1.489.08.048.143.056.23.014a2.125 2.125 0 011.59-.133c.055.016.127 0 .181-.025.161-.072.315-.162.476-.23.092-.04.124-.092.124-.194-.003-1.348-.003-2.695 0-4.042 0-.095-.03-.15-.112-.19-.435-.22-.762-.784-.673-1.388C8.85.705 9.54.174 10.207.31c.586.12.97.538 1.053 1.181a1.318 1.318 0 01-.682 1.302c-.073.039-.113.081-.112.175.002 1.308.002 2.617 0 3.925 0 .117.05.14.148.159.257.047.515.099.767.173a.413.413 0 00.314-.012c.55-.248 1.088-.205 1.601.118.074.046.126.048.2.003.678-.412 1.358-.823 2.04-1.228.11-.066.153-.138.15-.273-.02-.783.634-1.423 1.396-1.338.747.083 1.277.835 1.104 1.596-.208.911-1.153 1.323-1.916.83-.08-.052-.14-.066-.225-.014-.646.395-1.293.786-1.943 1.173-.096.057-.11.11-.079.218.197.69.063 1.304-.41 1.833-.092.103-.526.827-.587.96-.047.106-.027.162.07.22.985.59 1.969 1.183 2.952 1.778.079.048.132.05.21-.006.277-.194.587-.255.913-.196.634.116 1.094.716 1.037 1.423-.061.768-.782 1.342-1.502 1.175-.631-.146-1.028-.662-1.02-1.34 0-.115-.03-.181-.13-.24a455.882 455.882 0 01-2.987-1.802c-.09-.054-.138-.043-.21.03a2.808 2.808 0 01-1.675.82c-.217.028-.217.026-.217.26 0 1.227.003 2.454-.004 3.68 0 .171.038.27.191.362.55.33.76 1.042.508 1.648-.254.612-.903.94-1.51.745-.555-.176-.863-.585-.918-1.18-.041-.458.166-.968.668-1.255.077-.044.13-.082.13-.192a715.96 715.96 0 010-4.057c0-.107-.047-.143-.13-.187-.251-.132-.52-.248-.732-.431-.245-.211-.474-.334-.816-.334-.033.001-.054-.002-.089-.001a.52.52 0 00-.249.047c-1.007.6-2.008 1.21-3.016 1.807-.144.086-.214.177-.19.35.01.07-.01.144-.021.215-.098.648-.705 1.19-1.437 1.064-.718-.123-1.174-.802-1.055-1.53.151-.927 1.164-1.397 1.929-.89.086.058.146.062.234.008.758-.461 1.519-.918 2.279-1.376l.39-.236c-.874-.966-.971-2.004-.336-3.138z"/>
            <path d="M8.392 11.456c.2-.018.3.052.446.194.63.612 1.373.801 2.19.518.802-.279 1.3-.874 1.465-1.749a.472.472 0 01.243-.361c.418-.25.66-.788.577-1.237-.108-.58-.472-.984-.988-1.07a1.09 1.09 0 00-.789.143c-.108.07-.194.062-.306.013-.718-.315-1.413-.261-2.074.173a.303.303 0 01-.296.034c-.931-.317-1.9.234-2.136 1.205-.271 1.112.578 2.188 1.668 2.137zM16.595 5.805c0 .218.15.376.355.376a.379.379 0 00.367-.373c.002-.194-.177-.381-.364-.382-.201 0-.358.167-.358.38zM9.637 18.38c.001.211.158.374.362.374.203 0 .36-.162.36-.374 0-.203-.169-.382-.36-.38a.382.382 0 00-.362.38zM3.402 5.804c-.001-.212-.16-.38-.359-.378-.188.002-.362.185-.363.383a.378.378 0 00.369.371c.205 0 .353-.158.353-.376zM10.003 1.987a.36.36 0 00.356-.373.357.357 0 00-.364-.366.36.36 0 00-.357.373.36.36 0 00.365.366zM3.053 13.82a.366.366 0 00-.373.363.366.366 0 00.36.376c.211.003.359-.144.362-.363.003-.219-.14-.374-.35-.376zM16.945 13.82c-.208.001-.352.156-.35.375.002.218.15.366.361.364a.366.366 0 00.36-.375.367.367 0 00-.371-.364z"/>
        </g>
        <defs>
            <clipPath id="olclip0">
                <path fill="#fff" transform="matrix(1 0 0 -1 0 20)" d="M0 0h20v20H0z"/>
            </clipPath>
        </defs>
    </svg>