<svg width="24" height="24" fill="none" viewBox="-2 -2 24 24" id="strat" x="494" y="96" xmlns="http://www.w3.org/2000/svg">
        <path d="M1.358 7.404l8.75 5.514a.016.016 0 00.01.003.016.016 0 00.01-.003l8.927-5.64a.018.018 0 00.005-.004.018.018 0 00.003-.006V7.26a.016.016 0 00-.003-.006.012.012 0 00-.005-.005L10.21 1.613a.017.017 0 00-.02 0l-8.832 5.76a.018.018 0 00-.003.027l.003.004zm8.751 11.979a.601.601 0 01-.328-.097L.41 13.251a.019.019 0 010-.024l.399-.62a.018.018 0 01.024 0l9.272 5.97a.016.016 0 00.01.004.016.016 0 00.009-.003l8.787-5.646a.697.697 0 00.322-.59v-1.39a.019.019 0 00-.006-.012.018.018 0 00-.02-.003l-8.876 5.652a.606.606 0 01-.65 0L.713 10.883A1.52 1.52 0 010 9.594V7.65c0-.158.06-.309.17-.422l.03-.024.172-.118 9.514-6.2.01-.006a.605.605 0 01.624.015l9.198 5.859a.608.608 0 010 1.025l-9.276 5.856a.61.61 0 01-.645 0L.799 7.971a.018.018 0 00-.024.006.015.015 0 00-.002.009v1.607a.751.751 0 00.348.637l8.877 5.643a.016.016 0 00.01.003.016.016 0 00.01-.003l9.053-5.776a.603.603 0 01.73.06.628.628 0 01.195.472v1.706a1.473 1.473 0 01-.678 1.244l-8.886 5.71a.618.618 0 01-.323.093z" fill="url(#oopaint0_linear)"/>
        <defs>
            <linearGradient id="oopaint0_linear" x1="0" y1=".001" x2="20" y2=".001" gradientUnits="userSpaceOnUse">
                <stop stop-color="#21BBC0"/>
                <stop offset=".34" stop-color="#20B9C0"/>
                <stop offset="1" stop-color="#1387C9"/>
            </linearGradient>
        </defs>
    </svg>