<svg width="24" height="25" fill="none" viewBox="-2 -2 24 25" id="sun" x="228" y="75" xmlns="http://www.w3.org/2000/svg">
        <g clip-path="url(#oqclip0)">
            <path d="M9.992 20.01C15.52 20.01 20 15.53 20 10.004 20 4.476 15.52-.004 9.992-.004 4.465-.004-.015 4.476-.015 10.003c0 5.527 4.48 10.008 10.007 10.008z" fill="#FFF1AC"/>
            <path d="M9.992 18.475a8.471 8.471 0 100-16.943 8.471 8.471 0 000 16.943z" fill="#fff"/>
            <path d="M11.718 11.662h-2.19l1.304-10.096a8.48 8.48 0 00-9.396 8.427 8.472 8.472 0 008.09 8.464l2.192-6.795z" fill="#FFD609"/>
            <path fill-rule="evenodd" clip-rule="evenodd" d="M6.657 13.915l.247-.343.248-.344.004.003.02.014.09.058a5.833 5.833 0 001.656.686c1.067.255 2.478.255 3.913-.763l.49.691c-1.68 1.193-3.358 1.193-4.6.896a6.68 6.68 0 01-1.908-.792 3.79 3.79 0 01-.146-.096l-.01-.007-.003-.002h-.001z" fill="#FFD609"/>
            <path d="M6.657 13.915l.247-.343.248-.344.004.003.02.014.09.058a5.833 5.833 0 001.656.686c.59.141 1.286.204 2.032.06l-.29.9c-.71.074-1.37 0-1.939-.136a6.68 6.68 0 01-1.908-.792 3.79 3.79 0 01-.146-.096l-.01-.007-.003-.002h-.001z" fill="#fff"/>
            <path d="M3.363 6.743h13.26l-1.642 4.42h-3.855L9.994 8.498l-.964 2.72H5.12L3.363 6.743z" fill="#000"/>
        </g>
        <defs>
            <clipPath id="oqclip0">
                <path fill="#fff" transform="translate(0 .005)" d="M0 0h20v20H0z"/>
            </clipPath>
        </defs>
    </svg>