<svg width="24" height="24" fill="none" viewBox="-2 -2 24 24" id="susd" x="494" y="168" xmlns="http://www.w3.org/2000/svg">
        <g clip-path="url(#osclip0)">
            <path d="M10 20c5.523 0 10-4.477 10-10S15.523 0 10 0 0 4.477 0 10s4.477 10 10 10z" fill="#06071A"/>
            <path d="M6.502 7.452a.447.447 0 00-.35-.163H3.315a.082.082 0 01-.061-.023.073.073 0 01-.024-.053V5.304c0-.019.008-.036.024-.052a.082.082 0 01.061-.024h2.997c.757 0 1.41.309 1.958.926l.728.887L7.58 8.77 6.502 7.452zm5.238-1.308c.548-.61 1.204-.916 1.966-.916h2.988c.026 0 .044.006.057.019.012.013.019.032.019.057v1.91a.083.083 0 01-.019.052c-.013.016-.032.023-.057.023h-2.836a.447.447 0 00-.35.163l-2.09 2.539 2.1 2.557a.448.448 0 00.34.153h2.836c.026 0 .044.008.057.024a.098.098 0 01.019.062v1.909a.083.083 0 01-.019.052c-.013.016-.032.024-.057.024h-2.988c-.762 0-1.415-.308-1.957-.926l-1.74-2.118-1.74 2.118c-.548.618-1.203.926-1.966.926H3.315c-.025 0-.044-.008-.057-.024a.096.096 0 01-.018-.062v-1.909c0-.019.006-.036.018-.052.013-.016.032-.024.057-.024h2.837a.465.465 0 00.35-.162l2.051-2.5 3.187-3.895z" fill="#00D1FF"/>
        </g>
        <defs>
            <clipPath id="osclip0">
                <path fill="#fff" d="M0 0h20v20H0z"/>
            </clipPath>
        </defs>
    </svg>