<svg width="24" height="24" fill="none" viewBox="-2 -2 24 24" id="sushi" x="494" y="192" xmlns="http://www.w3.org/2000/svg">
        <circle cx="10" cy="10" r="10" transform="rotate(90 10 10)" fill="#000"/>
        <path d="M15.636 8.412c-.024-.372-.047-.802-.313-1.09-.046-.048-.14-.08-.204-.053-1.196.499-2.388 1.012-3.534 1.617-.56.296-1.105.615-1.637.957-.525.338-1.043.69-1.585 1-.3.17-.609.323-.924.464-.311.14-.61.288-.871.51-.069.06-.078.18-.033.255.244.402.41.84.487 1.305.073.437.034.877.185 1.296-.22.123-.012.468.226.355l2.441-1.159c.784-.372 1.59-.717 2.33-1.174.744-.459 1.465-.962 2.187-1.454.308-.21.586-.44.794-.752.184-.276.307-.596.376-.92.08-.378.1-.77.075-1.157z" fill="#C7D2DA"/>
        <path d="M7.495 12.032c.124 1.032.138 2.972-.045 3.026-.182.055-.935-.05-1.285-.18-.778-.289-1.139-.634-1.25-.736-.427-.39-.431-.407-.809-.845-.242-.28-.393-.587-.57-.913-.529-.981-.494-2.157-.445-3.271l4.404 2.92z" fill="#EBEBEB"/>
        <path d="M15.329 5.72l-1.023.617c-.255-.151-.513-.298-.763-.45-.508-.311-1.012-.631-1.527-.931-.464-.27-.997-.526-1.55-.47-.277.029-.524.135-.771.256l-.81.398-1.652.813-1.622.797c-.471.232-.95.455-1.396.733l-.05.031-.066-.244-1.01-.038-.08 1.453c-.074.403.368.67.68.898.708.514 1.397 1.054 2.124 1.54.172.115.346.227.52.338.1.07.203.137.308.2.144.086.292.166.442.24.124.063.272.152.414.15.15-.002.296-.101.417-.181.145-.097.284-.205.42-.315.287-.233.56-.475.86-.69 1.743-1.249 3.811-1.913 5.639-3.014.184-.111.387-.243.459-.458a.442.442 0 00.024-.163l.013.005V5.72z" fill="#AD0317"/>
        <path d="M15.056 5.336c-.478-.34-1.011-.622-1.512-.928-.509-.311-1.013-.631-1.527-.93-.465-.272-.998-.526-1.55-.47-.277.028-.524.135-.772.255l-.809.398-1.653.813-1.622.797c-.471.232-.949.456-1.396.733-.402.25-.885.575-1.127.995-.3.522.238.84.601 1.105.708.514 1.396 1.054 2.124 1.54.172.115.345.227.52.338.1.07.202.137.308.2.144.086.292.166.442.24.123.063.271.152.414.15.15-.002.296-.101.416-.181a5.62 5.62 0 00.421-.316c.287-.232.56-.474.86-.69 1.742-1.248 3.81-1.912 5.638-3.013.184-.111.388-.243.46-.458.079-.237-.045-.442-.236-.578z" fill="#EF013D"/>
        <path d="M17.025 11.353c-.045-1.639-1.69-2.957-3.712-2.957-2.023 0-3.667 1.318-3.713 2.957h-.001v1.76h.004C9.693 14.72 11.319 16 13.313 16c1.993 0 3.619-1.28 3.71-2.886h.003v-1.76z" fill="#282F33"/>
        <path d="M13.317 13.587c1.565 0 2.834-1.034 2.834-2.31s-1.27-2.31-2.834-2.31c-1.565 0-2.834 1.034-2.834 2.31s1.269 2.31 2.834 2.31z" fill="#DFE7ED"/>
        <path d="M14.943 10.322c.014.029.04.044.066.06.033.044.068.087.1.131.112.155.201.316.137.517l-.057.059c-.023-.002-.036.014-.05.027-.108.002-.203-.049-.304-.076-.603-.168-1.194-.11-1.776.1-.338.122-.646.307-.966.466-.174.086-.352.146-.55.112-.016-.014-.03-.032-.055-.031a.014.014 0 00-.014-.008.52.52 0 01-.162-.314 1.162 1.162 0 01.025-.393c.037-.15.112-.282.18-.417a.013.013 0 00.008-.013c.025-.012.042-.029.046-.057l.024-.032c.03-.018.056-.04.067-.074a.063.063 0 00.037-.037c.068-.042.123-.099.179-.155l.015-.009a.197.197 0 00.111-.078c.006.001.01-.001.013-.006.008-.002.018-.002.025-.006.35-.201.725-.306 1.128-.323a2.84 2.84 0 011.077.162c.183.065.348.164.518.254.003.005.007.008.012.007.05.051.102.1.166.134z" fill="#FEA101"/>
        <path d="M11.543 11.718c.198.034.376-.026.55-.112.32-.159.628-.344.966-.465.582-.21 1.173-.269 1.776-.101.101.028.196.079.304.076a5.153 5.153 0 00-.01.078c-.027.181-.114.34-.186.505a.01.01 0 00-.005.01c-.018.01-.03.022-.029.043a.012.012 0 00-.005.012.281.281 0 00-.086.11l-.021.029a1.398 1.398 0 00-.202.203.122.122 0 00-.058.051c-.021 0-.034.013-.042.032a.01.01 0 00-.01.005c-.022 0-.034.012-.04.03a2.291 2.291 0 01-.366.197c-.037.006-.075.01-.1.045l-.199.048c-.014-.006-.026-.004-.036.009l-.035.005c-.025-.004-.05-.007-.071.013l-.052.006c-.026-.006-.05-.01-.072.01a16.26 16.26 0 00-.07.006c-.117 0-.234 0-.351-.002l-.052-.004c-.028-.022-.059-.016-.09-.011l-.052-.005c-.021-.02-.046-.017-.071-.012a15.986 15.986 0 00-.052-.007c-.01-.012-.023-.014-.037-.008l-.122-.027a.128.128 0 00-.089-.027 1.831 1.831 0 01-.803-.48c-.071-.075-.127-.16-.185-.245l.003-.017z" fill="#63B446"/>
        <path d="M10.838 8.093c-.222 0-.376-.144-.41-.387-.048-.328-.092-.658-.142-.986a28.055 28.055 0 00-.182-1.068 15.713 15.713 0 00-.384-1.59c-.058-.19.06-.395.248-.466a.384.384 0 01.486.19c.1.203.143.426.2.643.122.453.214.914.295 1.376.082.474.165.947.22 1.425.014.13.035.26.06.389a.401.401 0 01-.391.474zM8.338 9.325c-.222 0-.375-.144-.41-.387-.047-.328-.091-.657-.141-.986a28.195 28.195 0 00-.183-1.068 15.7 15.7 0 00-.384-1.59c-.058-.19.06-.395.249-.465a.384.384 0 01.485.189c.1.203.143.426.201.643.122.454.214.914.294 1.377.083.473.165.946.22 1.425.014.13.036.26.06.388a.401.401 0 01-.39.474zM6.203 9.695c-.176.018-.37-.126-.413-.405a26.933 26.933 0 00-.323-1.71c-.09-.402-.195-.8-.316-1.193-.047-.152-.071-.292.031-.424.198-.255.515-.232.673.042.075.13.103.28.144.423.153.524.28 1.055.381 1.592.076.404.151.808.22 1.213a.396.396 0 01-.397.462zM13.479 6.32c.045.24-.253.491-.518.401a.43.43 0 01-.278-.36 8.334 8.334 0 00-.394-1.864c-.067-.198.017-.401.248-.487a.381.381 0 01.498.222c.18.472.294.96.37 1.458.031.204.064.409.074.63z" fill="#FD496A"/>
        <path d="M4.292 12.305c.001-.054.015-.122.066-.176.056-.059.113-.058.167 0 .037.041.055.09.064.143a.339.339 0 00.124.217c.088.068.19.029.212-.08.017-.087.03-.174.05-.26.026-.113.085-.177.149-.17.065.009.138.11.141.204.005.121-.02.24-.05.356-.03.108.007.189.08.261.078.077.159.078.242.006.114-.098.192-.08.252.06.069.161.019.323-.133.43a.363.363 0 01-.462-.016.822.822 0 01-.18-.226c-.027-.052-.053-.072-.118-.054a.328.328 0 01-.34-.089.91.91 0 01-.264-.606zM7.152 12.682c.097-.016.186-.062.288-.066.362-.013.65.153.917.37.116.095.221.202.317.317a.413.413 0 01.1.368c-.022.102-.101.135-.182.069-.045-.037-.084-.082-.122-.126a1.535 1.535 0 00-.622-.448.673.673 0 00-.532.01c-.07.031-.132.037-.197-.006l-.076-.117a.222.222 0 00-.03-.124.083.083 0 00.002-.068c.025-.03.03-.068.036-.105.015-.007.028-.016.031-.034.024.003.039-.008.048-.03a.338.338 0 00.022-.01zM6.504 12.455a.35.35 0 01-.047.185c-.064.094-.156.104-.238.026a.44.44 0 01-.093-.464c.066-.136.18-.153.277-.039.07.084.102.183.101.292zM4.351 11.261c-.003.117-.032.201-.102.267-.07.065-.142.058-.204-.017a.357.357 0 01.013-.432c.078-.084.169-.08.236.014.04.056.06.12.057.168zM7.096 14.064c.328.043.62.208.845.446.186.196.482-.1.296-.297a1.868 1.868 0 00-1.14-.568c-.114-.015-.21.107-.21.21-.002.124.098.194.21.209z" fill="#000"/>
    </svg>