<svg width="24" height="24" fill="none" viewBox="-2 -2 24 24" id="swftc" x="494" y="216" xmlns="http://www.w3.org/2000/svg">
        <circle cx="10" cy="10" r="10" fill="url(#oupaint0_linear)"/>
        <path d="M7.612 13.908c.817-.322.946-1.006.946-2.034V7.428c0-.888.349-1.642 1.347-2.046.997-.404 2.196.12 2.697.641-.678.274-.969.888-.969 1.566v4.536c0 .436 0 1.921-1.501 2.486-1.22.46-2.17-.234-2.52-.703z" fill="#FFE087"/>
        <path d="M14.274 10.604a2.076 2.076 0 00.446-3.787 2.42 2.42 0 11-2.642 3.116 2.076 2.076 0 002.196.67zM5.726 10.604a2.076 2.076 0 01-.446-3.787 2.42 2.42 0 102.643 3.116 2.076 2.076 0 01-2.197.67z" fill="#F1C983"/>
        <path d="M13.862 9.927a1.551 1.551 0 00-.704-2.761 1.808 1.808 0 11-1.008 2.882 1.552 1.552 0 001.712-.121z" fill="#C49137"/>
        <path d="M14.482 11.45a2.62 2.62 0 001.904-4.42 3.054 3.054 0 11-4.32 2.818 2.621 2.621 0 002.416 1.603zM5.518 11.45a2.62 2.62 0 01-1.904-4.42 3.054 3.054 0 104.32 2.818 2.621 2.621 0 01-2.416 1.603z" fill="#FFF2CD"/>
        <path d="M6.138 9.927a1.551 1.551 0 01.705-2.761 1.808 1.808 0 101.007 2.882 1.552 1.552 0 01-1.712-.121z" fill="#C49137"/>
        <defs>
            <linearGradient id="oupaint0_linear" x1="7.291" y1="20" x2="7.927" y2="-18.793" gradientUnits="userSpaceOnUse">
                <stop stop-color="#BF8C33"/>
                <stop offset="1" stop-color="#FEC666"/>
            </linearGradient>
        </defs>
    </svg>