<svg width="25" height="24" fill="none" viewBox="-2 -2 25 24" id="swift" x="150" y="220" xmlns="http://www.w3.org/2000/svg">
        <g clip-path="url(#ovclip0)">
            <circle cx="10.317" cy="9.875" r="8.307" fill="#fff"/>
            <path fill-rule="evenodd" clip-rule="evenodd" d="M10.195.003c-.033.005-.255.022-.493.04-.659.047-.885.07-1.118.118A12.079 12.079 0 008 .284a6.878 6.878 0 01-.287.062c-.036.006-.07.018-.077.028-.006.01-.035.018-.065.019a.259.259 0 00-.104.03.257.257 0 01-.105.03c-.03 0-.06.01-.067.02-.006.01-.034.02-.06.02-.026 0-.053.01-.06.02-.006.01-.027.02-.046.02a.268.268 0 00-.092.03.266.266 0 01-.086.03.172.172 0 00-.063.018c-.02.01-.074.033-.12.05-.358.136-.438.171-.951.421-.205.1-.376.19-.38.2a.03.03 0 01-.025.016c-.01 0-.09.045-.18.1a1.25 1.25 0 01-.193.106 1.632 1.632 0 01-.208.146 2.904 2.904 0 00-.202.133.795.795 0 01-.1.07.924.924 0 00-.117.083c-.015.015-.034.027-.042.027s-.033.016-.054.035c-.022.02-.08.067-.13.106-.088.068-.163.13-.21.171a10.532 10.532 0 00-1.309 1.289l-.155.187c-.021.025-.122.16-.224.302-.102.14-.192.262-.198.267-.01.008-.191.292-.327.512-.131.212-.155.254-.155.27a.03.03 0 01-.016.027c-.016.007-.22.397-.32.61a.29.29 0 01-.052.088c-.008.003-.015.028-.015.055s-.01.049-.02.049c-.011 0-.02.017-.02.039 0 .021-.008.044-.017.05a1.92 1.92 0 00-.112.267 5.798 5.798 0 01-.115.293.17.17 0 00-.019.063.264.264 0 01-.03.085.265.265 0 00-.03.092c0 .019-.01.04-.02.047-.01.006-.02.034-.02.06 0 .026-.009.054-.02.06-.011.007-.02.034-.02.06a.363.363 0 01-.028.115c-.038.087-.08.245-.153.58-.024.105-.051.224-.062.264A.651.651 0 00.5 8.14a.396.396 0 01-.022.119C.44 8.36.39 8.777.36 9.252c-.01.171-.028.41-.038.528a2.77 2.77 0 000 .434c.01.118.028.356.038.528.03.475.081.892.12.993.013.038.02.078.021.119a.62.62 0 00.02.134c.011.04.043.177.072.305a6.738 6.738 0 00.155.608c.014.052.033.1.04.11.009.008.015.034.015.06 0 .024.01.05.02.057.011.007.02.028.02.047 0 .018.014.06.03.092.017.031.03.072.03.091 0 .02.006.037.016.053.01.01.028.056.043.1.06.179.209.544.226.55.01.004.017.029.017.056 0 .026.01.048.02.048a.021.021 0 01.02.022 7.254 7.254 0 00.344.683.088.088 0 01.02.03c.016.038.194.34.226.382a4.275 4.275 0 01.245.392l.006.001c.009 0 .033.03.054.064a.95.95 0 00.064.096c.014.017.072.094.128.171.16.22.181.245.47.586.134.156.71.733.877.876l.163.14.12.102.109.09c.013.01.064.052.114.09l.112.091c.012.012.076.057.141.101a.842.842 0 01.126.095c.004.009.019.016.034.016.014 0 .03.007.033.015.006.014.312.216.419.277a2.881 2.881 0 00.333.199c.018.01.035.022.05.036.006.008.087.051.181.097l.242.117a.256.256 0 01.09.06.684.684 0 01.151.056c.123.06.31.145.373.17.208.086.466.18.492.181a.15.15 0 01.07.03.165.165 0 00.085.03c.025 0 .05.01.058.02.007.011.033.02.06.02.026 0 .053.009.059.019.006.01.047.024.091.032.045.007.086.021.092.032.007.01.04.018.077.018s.074.007.084.016c.023.02.373.103.694.166l.201.041c.208.045.403.069.987.118l.519.043c.177.017.356.017.534 0l.518-.044c.626-.053.813-.075.987-.116.05-.012.145-.032.212-.044.198-.038.393-.082.553-.125.083-.021.179-.044.212-.05a.231.231 0 00.08-.026.32.32 0 01.096-.03c.042-.007.08-.022.087-.032.007-.01.033-.017.06-.017.025 0 .053-.01.06-.02.006-.011.027-.02.046-.02a.27.27 0 00.091-.03.274.274 0 01.082-.03c.02 0 .326-.114.485-.182l.136-.053c.052-.02.095-.044.096-.053 0-.008.013-.015.029-.015a.473.473 0 00.123-.05.596.596 0 01.113-.05c.01 0 .051-.02.092-.046a2.35 2.35 0 01.206-.105c.099-.047.194-.099.287-.156a1.51 1.51 0 01.17-.096.358.358 0 00.08-.05.282.282 0 01.087-.05c.012 0 .021-.006.021-.015s.034-.033.076-.055a.732.732 0 00.085-.05c.006-.006.06-.042.121-.08a.673.673 0 00.118-.086c.003-.008.018-.015.033-.015.015 0 .03-.007.034-.015a.982.982 0 01.137-.104c.143-.098.329-.245.34-.269a.031.031 0 01.027-.017c.01 0 .04-.02.064-.046s.094-.086.155-.136c.182-.148.276-.236.614-.574.33-.33.355-.357.564-.605a7.11 7.11 0 00.251-.31 1.53 1.53 0 01.082-.101.501.501 0 00.05-.075c.02-.037.045-.066.054-.066.009 0 .016-.01.016-.022 0-.011.011-.034.025-.05.059-.065.075-.089.075-.107a.03.03 0 01.005-.015.667.667 0 00.096-.128c.038-.061.074-.115.08-.121a.464.464 0 00.074-.126c.007-.02.02-.035.03-.035.01 0 .018-.01.018-.024 0-.013.013-.038.028-.055.035-.04.152-.24.167-.289.006-.019.018-.035.027-.035.008 0 .021-.023.028-.05.007-.027.021-.05.032-.05s.02-.016.02-.036c0-.02.006-.04.018-.056.016-.017.145-.268.221-.432a.25.25 0 01.049-.077c.008-.003.015-.018.015-.033 0-.015.022-.07.048-.124.027-.054.079-.18.115-.279.036-.1.071-.19.078-.201a.714.714 0 00.039-.111.922.922 0 01.054-.144.253.253 0 00.028-.095c0-.022.01-.046.02-.053.011-.007.02-.034.02-.06 0-.026.008-.053.018-.06.01-.005.024-.044.032-.086a.318.318 0 01.03-.096.243.243 0 00.027-.08 1.86 1.86 0 01.033-.142 7.56 7.56 0 00.16-.748.699.699 0 01.033-.15c.026-.04.081-.512.11-.934.011-.166.03-.417.044-.557.017-.194.017-.29 0-.397a2.719 2.719 0 01-.026-.339 6.269 6.269 0 00-.058-.72c-.037-.323-.056-.445-.078-.5a.384.384 0 01-.023-.12.626.626 0 00-.02-.134 8.887 8.887 0 01-.07-.304 7.813 7.813 0 00-.072-.312 1.869 1.869 0 01-.033-.141.242.242 0 00-.026-.08.32.32 0 01-.03-.097c-.008-.041-.023-.08-.032-.086-.01-.007-.018-.033-.018-.06 0-.026-.01-.053-.02-.06-.011-.007-.02-.033-.02-.058a.165.165 0 00-.03-.084.145.145 0 01-.03-.067c-.002-.082-.276-.744-.443-1.07a16.05 16.05 0 00-.28-.523 1.189 1.189 0 01-.076-.146c-.006-.02-.018-.035-.027-.035-.008 0-.02-.016-.027-.036a.507.507 0 00-.048-.088l-.156-.242a2.762 2.762 0 00-.156-.227c-.02-.021-.035-.046-.035-.054s-.012-.027-.026-.042a.79.79 0 01-.136-.196.02.02 0 00-.004-.014.02.02 0 00-.013-.008c-.01 0-.04-.033-.069-.075-.184-.273-.916-1.063-1.233-1.332a10.688 10.688 0 01-.151-.13 7.04 7.04 0 00-.17-.144l-.12-.1a4.738 4.738 0 00-.113-.091 3.338 3.338 0 01-.13-.106c-.021-.02-.046-.035-.054-.035s-.027-.012-.042-.027a.967.967 0 00-.117-.084.9.9 0 01-.1-.07 2.988 2.988 0 00-.202-.131 4.078 4.078 0 01-.201-.13.621.621 0 00-.121-.075 2.588 2.588 0 01-.164-.1c-.145-.092-.86-.45-.9-.45a.022.022 0 01-.023-.02c0-.011-.014-.02-.03-.02a.585.585 0 01-.136-.049 5.275 5.275 0 00-.278-.113 3.416 3.416 0 01-.206-.082.168.168 0 00-.063-.019.263.263 0 01-.086-.03.264.264 0 00-.092-.03c-.019 0-.04-.009-.046-.02-.007-.01-.034-.02-.06-.02-.026 0-.054-.009-.06-.02-.007-.01-.036-.02-.063-.02a.237.237 0 01-.094-.023c-.054-.029-.128-.048-.548-.145a9.79 9.79 0 00-.322-.07A6.42 6.42 0 0112.08.17c-.263-.058-.469-.078-1.702-.166a1.247 1.247 0 00-.181 0l-.002-.002zm4.252 4.223c.043.037.147.116.23.176.083.06.155.115.161.121.006.007.065.052.13.101.067.049.126.094.132.1.005.007.064.052.13.1.127.093.155.115.201.156.016.014.038.025.05.025.013 0 .022.007.023.016 0 .008.045.046.1.085a.42.42 0 01.1.086c.002.008.015.015.03.015.017 0 .03.007.03.015s.046.046.102.084c.055.037.1.076.1.085 0 .01.012.017.026.017.014 0 .048.02.075.046.028.025.105.085.17.135a79.72 79.72 0 00.856.652c.06.046.134.104.161.129.028.025.062.045.076.045.014 0 .025.007.025.015 0 .009.027.033.06.055.233.157.174.27-.25.485-.178.09-.395.2-.482.247a1.337 1.337 0 01-.177.084.422.422 0 00-.097.05.344.344 0 01-.108.05c-.016 0-.032.007-.036.015-.006.015-.316.173-1.85.944-.392.198-.718.365-.724.37a.68.68 0 01-.1.05.63.63 0 00-.102.05 6.28 6.28 0 01-.308.16c-.306.153-.354.193-.316.264.019.034.278.23.387.292.08.045.389.26.395.276a.028.028 0 00.024.016c.016 0 .216.13.272.178a.2.2 0 00.04.025 2.076 2.076 0 01.28.196.034.034 0 00.018.004c.013 0 .048.022.078.05.03.027.06.05.068.05.008 0 .044.022.08.05a.29.29 0 00.087.05.03.03 0 01.026.015c.004.008.088.07.188.136.1.065.184.127.188.135.003.009.02.016.035.016.015 0 .029.006.029.015 0 .008.054.047.12.085.067.04.122.078.122.086 0 .008.013.015.029.015.015 0 .031.007.035.015a.595.595 0 00.107.08c.155.099.191.14.191.216 0 .08-.092.173-.17.173-.027 0-.053.008-.06.018-.005.01-.04.022-.076.028-.06.012-.119.027-.177.044a14.9 14.9 0 01-.765.206.558.558 0 00-.09.025 2.515 2.515 0 01-.272.074.584.584 0 00-.091.027.551.551 0 01-.09.027c-.028.006-.1.025-.162.044a3.793 3.793 0 01-.181.05 47.53 47.53 0 00-.725.194 2.1 2.1 0 00-.157.05.338.338 0 01-.105.018c-.032 0-.063.009-.07.02-.007.01-.039.02-.07.02-.032 0-.064.008-.07.019-.007.01-.053.025-.102.032-.05.008-.096.022-.102.032-.006.01-.04.017-.077.017s-.072.007-.08.016a.405.405 0 01-.11.038 8.502 8.502 0 00-.164.044c-.402.112-.543.149-.594.157a.524.524 0 00-.1.027.575.575 0 01-.091.028c-.1.02-.232.058-.267.075a.214.214 0 01-.081.018c-.026 0-.056.008-.066.018a.37.37 0 01-.11.04c-.05.01-.122.03-.161.04-.282.077-.562.15-.604.158a.546.546 0 00-.091.025c-.08.032-.266.081-.308.081-.023 0-.048.01-.054.02-.007.011-.044.02-.081.02-.037 0-.073.008-.08.019-.006.01-.05.024-.096.032a.37.37 0 00-.106.03.253.253 0 01-.08.025 5.77 5.77 0 00-.293.076c-.127.035-.263.072-.302.08-.038.009-.12.032-.181.05a1.68 1.68 0 01-.171.044.516.516 0 00-.1.026.573.573 0 01-.091.028c-.028.006-.101.026-.162.044-.06.018-.142.04-.18.05a5.02 5.02 0 00-.182.05c-.06.018-.143.04-.181.05-.04.01-.187.049-.33.089-.142.04-.28.072-.305.072-.026 0-.053.01-.06.02-.008.011-.037.02-.067.021a.257.257 0 00-.105.03.26.26 0 01-.104.03c-.03 0-.06.01-.067.021-.007.01-.042.02-.078.02s-.074.008-.084.018a.37.37 0 01-.11.039l-.161.04c-.282.078-.562.151-.604.159a.558.558 0 00-.091.024 2.528 2.528 0 01-.272.075.562.562 0 00-.09.027.622.622 0 01-.091.028c-.13.027-.26.064-.274.078-.008.008-.036.015-.06.015a.31.31 0 00-.093.018c-.24.092-.325.091-.403-.005-.087-.108-.034-.198.189-.32l.168-.093a.43.43 0 00.07-.045.755.755 0 01.1-.062l.212-.117.192-.106a.732.732 0 00.102-.068.118.118 0 01.063-.028c.018 0 .035-.007.04-.017a.369.369 0 01.096-.067l.212-.117.161-.089a.678.678 0 00.07-.045 1.42 1.42 0 01.121-.073l.202-.114c.06-.035.126-.069.146-.075.02-.006.035-.02.035-.03 0-.009.013-.017.029-.017a.099.099 0 00.056-.025.648.648 0 01.097-.063l.13-.072c.033-.02.115-.065.181-.101.067-.037.153-.088.192-.114a.293.293 0 01.095-.048c.015 0 .026-.007.026-.015 0-.01.025-.027.055-.04.047-.021.092-.045.136-.071.045-.027.123-.072.174-.1.052-.03.129-.075.172-.102.075-.047.121-.073.38-.215a2.96 2.96 0 00.17-.101c.029-.019.106-.065.172-.1l.181-.1.182-.102c.066-.037.143-.082.17-.1.028-.019.106-.065.172-.1l.181-.104c.033-.02.097-.055.141-.077a2.03 2.03 0 00.212-.124c.042-.027.16-.094.332-.188.258-.14.26-.198.015-.375a3.737 3.737 0 01-.186-.14.438.438 0 00-.076-.05c-.035-.02-.065-.045-.065-.054a.018.018 0 00-.02-.016c-.024 0-1.36-.95-1.435-1.022-.105-.099.012-.366.161-.367.014 0 .025-.007.025-.017 0-.01.05-.05.11-.092.06-.042.13-.093.154-.114a.174.174 0 01.058-.039c.008 0 .032-.018.056-.04.023-.022.177-.137.341-.256.164-.119.316-.232.338-.252.02-.02.045-.036.053-.036.009 0 .027-.011.042-.025.015-.014.08-.066.147-.115.067-.049.126-.095.131-.102a.46.46 0 01.076-.05c.036-.022.066-.045.066-.054 0-.009.01-.016.021-.016.02 0 .043-.015.11-.075.015-.014.037-.025.05-.025.011 0 .02-.007.021-.016 0-.008.045-.046.1-.085a.444.444 0 00.109-.097.02.02 0 01.014-.004c.023 0 .136-.08.22-.156.027-.025.06-.045.074-.045a.035.035 0 00.03-.017.892.892 0 01.127-.105c.067-.05.133-.101.148-.115.014-.014.033-.025.041-.025s.034-.018.058-.04c.039-.034.08-.066.122-.096.202-.141.483-.348.537-.396a.293.293 0 01.074-.052c.008 0 .026-.012.04-.026.014-.014.113-.088.218-.164a1.895 1.895 0 00.21-.168.03.03 0 01.015-.004c.01 0 .032-.012.048-.026.066-.059.089-.075.107-.075a.03.03 0 00.026-.017.9.9 0 01.128-.105c.066-.05.133-.101.147-.115.015-.014.033-.025.04-.025.007 0 .05-.032.094-.07a.322.322 0 01.104-.07.035.035 0 00.03-.017.904.904 0 01.128-.106c.066-.05.13-.096.14-.105.078-.06.204-.15.236-.168.031-.02.06-.042.088-.066.027-.023.133-.103.235-.177.102-.073.203-.15.225-.17.022-.02.047-.038.055-.038s.027-.011.041-.025c.015-.014.113-.088.218-.164a1.754 1.754 0 00.209-.168.03.03 0 01.015-.005c.018 0 .042-.017.108-.076.015-.014.037-.025.048-.025a.031.031 0 00.026-.015c.055-.125.256-.157.372-.06" fill="#1334DB"/>
        </g>
        <defs>
            <clipPath id="ovclip0">
                <path fill="#fff" transform="translate(.312)" d="M0 0h20v20H0z"/>
            </clipPath>
        </defs>
    </svg>