<svg width="24" height="24" fill="none" viewBox="-2 -2 24 24" id="sxp" x="494" y="240" xmlns="http://www.w3.org/2000/svg">
        <circle cx="10" cy="10" r="10" fill="url(#owpaint0_linear)"/>
        <path d="M9.962 3c-.135 0-.27.009-.404.025a2.778 2.778 0 00-1.665.802c-.33.326-.655.659-.983.988-.168.169-.337.336-.507.503-.177.175-.358.348-.535.525-.164.163-.324.331-.488.495-.254.255-.512.506-.765.762-.198.2-.39.404-.584.606-.114.119-.236.23-.342.354-.462.544-.68 1.18-.687 2.023-.02.322.113.742.308 1.14.103.212.245.408.382.602.094.133.163.132.29.029.023-.02.044-.042.065-.064.122-.128.244-.256.368-.383.178-.184.358-.366.535-.55.186-.194.369-.39.554-.585.088-.092.183-.178.27-.27.19-.2.376-.403.567-.6.187-.193.38-.379.566-.57.21-.215.413-.434.623-.647.193-.196.393-.384.585-.58.252-.258.498-.521.75-.78.153-.157.313-.308.467-.464.21-.213.417-.429.629-.64.18-.182.368-.356.55-.537l1.213-1.22a1.08 1.08 0 00.073-.081c.098-.122.106-.15-.016-.238-.192-.14-.386-.283-.6-.382A2.822 2.822 0 009.979 3h-.016zm3.112 2.533c-.377.015-.703.132-.949.434-.02.023-.043.043-.065.064-.219.212-.44.423-.657.637-.226.222-.448.448-.673.672-.186.186-.375.369-.56.555-.193.195-.382.395-.577.588-.203.202-.413.398-.617.599-.248.244-.492.49-.738.736l-1.362 1.36-1.803 1.802c-.114.114-.118.13 0 .25.289.291.58.58.869.87.177.179.385.3.633.344.236.042.474.044.707-.023.17-.05.333-.12.465-.246l.712-.686c.167-.16.338-.318.503-.48.33-.326.656-.656.987-.98.27-.266.546-.526.817-.79.373-.36.744-.723 1.116-1.085l1.05-1.022c.154-.15.298-.133.409.044.2.32.312.667.266 1.047-.04.322-.152.622-.376.861-.259.276-.533.536-.803.802-.19.189-.386.373-.576.563-.247.244-.492.491-.736.738-.039.039-.074.081-.112.121-.08.084-.16.167-.243.25-.181.18-.365.358-.545.54-.193.195-.382.394-.573.59-.017.018-.037.033-.055.05l-.616.6c-.096.093-.189.189-.283.284-.164.164-.33.325-.489.494-.095.101-.094.163.018.243.194.136.389.28.602.38.391.183.8.26 1.22.261h.01c.144 0 .288-.01.431-.026a2.722 2.722 0 001.51-.683c.316-.277.6-.591.898-.89l.659-.663.62-.623c.19-.19.378-.382.569-.57.213-.21.431-.414.643-.624.216-.215.432-.432.64-.655.257-.277.38-.42.473-.557a3.05 3.05 0 00.483-2.067 2.983 2.983 0 00-.453-1.19c-.132-.205-.2-.292-.601-.69-.595-.59-1.189-1.18-1.77-1.783-.286-.296-.615-.447-1.015-.447l-.063.001z" fill="#fff"/>
        <defs>
            <linearGradient id="owpaint0_linear" x1="3.5" y1="3.5" x2="20" y2="23" gradientUnits="userSpaceOnUse">
                <stop stop-color="#FF4920"/>
                <stop offset="1" stop-color="#F19043"/>
            </linearGradient>
        </defs>
    </svg>