<svg width="25" height="25" fill="none" viewBox="-2 -2 25 25" id="tfuel" x="252" xmlns="http://www.w3.org/2000/svg">
        <path d="M10.33 20.005c5.523 0 10-4.477 10-10s-4.477-10-10-10c-5.522 0-10 4.477-10 10s4.478 10 10 10z" fill="url(#ozpaint0_linear)"/>
        <path d="M5.42 13.166c-.336-.947-.294-1.915-.134-2.883.134-.812.552-1.493 1.051-2.13.42-.534.888-1.025 1.374-1.5.4-.392.779-.804 1.129-1.243.58-.727.797-1.558.754-2.474-.01-.24-.001-.483-.001-.727-.002 0 .015-.004.023.002.61.506 1.214 1.019 1.65 1.696.34.527.553 1.092.587 1.726.013.242.012.481-.001.722-.06.462-.164.913-.326 1.352-.122.33-.099.664.045.984.207.46.702.69 1.252.59.477-.087.84-.444.93-.92.031-.162.058-.326.088-.498.099.066.155.158.22.24.645.811 1.18 1.683 1.357 2.722.227 1.338-.028 2.56-.98 3.579-.401.43-.898.722-1.446.934-.389.15-.766.329-1.135.525-.515.275-.899.678-1.151 1.203-.057.12-.125.133-.243.111a6.803 6.803 0 01-2.667-1.114c-.984-.674-1.77-1.522-2.26-2.622-.042-.09-.078-.183-.116-.275zm4.87-2.933c-.93 0-1.861.002-2.792-.002-.109 0-.146.023-.145.139.007.546.006 1.093.001 1.639-.001.111.03.144.142.143.565-.006 1.13 0 1.696-.005.11-.001.145.027.144.142-.006.57 0 1.14-.005 1.71 0 .099.027.13.127.129.556-.005 1.112-.005 1.667 0 .104 0 .125-.035.125-.13-.004-.57.001-1.14-.005-1.71 0-.116.033-.142.143-.141.565.005 1.13 0 1.696.005.108 0 .134-.03.133-.135a79.936 79.936 0 010-1.653c.002-.109-.03-.133-.134-.133-.93.004-1.862.002-2.793.002z" fill="#FEFEFD"/>
        <path d="M13.066 5.414c.103-.146.203-.296.31-.44.18-.245.28-.512.242-.821-.007-.055-.001-.112-.001-.187.157.162.257.348.383.514.196.347.395.694.483 1.087.083.371.088.734-.189 1.042a.4.4 0 01-.072.065.911.911 0 00-.384.509c-.025.084-.062.106-.158.065A1.292 1.292 0 0113 5.57c.02-.052.044-.104.066-.156z" fill="#FEFEFD"/>
        <defs>
            <linearGradient id="ozpaint0_linear" x1="3.607" y1=".005" x2="19.002" y2="20.005" gradientUnits="userSpaceOnUse">
                <stop stop-color="#ED6D31"/>
                <stop offset="1" stop-color="#F3AD41"/>
            </linearGradient>
        </defs>
    </svg>