<svg width="24" height="25" fill="none" viewBox="-2 -2 24 25" id="tkn" x="252" y="50" xmlns="http://www.w3.org/2000/svg">
        <path fill-rule="evenodd" clip-rule="evenodd" d="M8.223.978a.923.923 0 00-.438.11l-1.659.897a.922.922 0 00-.484.813V17.15c0 .33.177.636.461.8l5.027 2.908a.921.921 0 00.919.001l1.845-1.058a.924.924 0 00.464-.8V4.994a.928.928 0 00-.452-.795L8.693 1.107a.922.922 0 00-.47-.13z" fill="#000"/>
        <path fill-rule="evenodd" clip-rule="evenodd" d="M8.223.978a.923.923 0 00-.438.11l-1.659.897a.922.922 0 00-.484.813V17.15c0 .33.177.636.461.8l5.027 2.908a.921.921 0 00.919.001l1.845-1.058a.924.924 0 00.464-.8V4.994a.928.928 0 00-.452-.795L8.693 1.107a.922.922 0 00-.47-.13zm0 .267c.115 0 .23.03.333.092L13.77 4.43a.655.655 0 01.32.564V19a.656.656 0 01-.329.568l-1.845 1.058a.652.652 0 01-.653-.001l-5.026-2.907a.656.656 0 01-.328-.568V2.798c0-.241.132-.463.344-.577l1.658-.897a.65.65 0 01.311-.079" fill="#fff"/>
        <path fill-rule="evenodd" clip-rule="evenodd" d="M6.833 3.538l4.404 2.536a.656.656 0 01.328.568v13.044a.197.197 0 01-.294.17l-4.62-2.658a.263.263 0 01-.131-.227l.019-13.264a.197.197 0 01.294-.17zm.193.496a.131.131 0 00-.158.02.131.131 0 00-.038.094l-.005 12.657c0 .011.003.023.008.033a.065.065 0 00.09.024l4.316-2.455a.065.065 0 00.033-.057V6.78c0-.188-.1-.361-.263-.455l-3.983-2.29z" fill="#fff"/>
    </svg>