<svg width="24" height="24" fill="none" viewBox="-2 -2 24 24" id="tko" x="494" y="312" xmlns="http://www.w3.org/2000/svg">
        <path fill-rule="evenodd" clip-rule="evenodd" d="M5.627.117c-.177.063-.624.32-.994.572C2.761 1.96 1.491 3.674.88 5.752.616 6.643.518 8.44.677 9.426c.413 2.558 1.131 4.127 2.527 5.518 1.053 1.05 2.181 1.74 3.723 2.278.403.14.795.311.87.38.085.076.16.318.194.628.142 1.277.731 1.77 2.117 1.77v-9.17a3.956 3.956 0 00-.485.02c-1.113.12-1.451.562-1.637 2.141-.057.487-.198.54-.68.261-1.236-.716-1.963-1.449-2.496-2.513-.615-1.23-.75-2.403-.42-3.674.352-1.363 1.093-2.448 2.282-3.343C7.79 2.88 8.036 2.431 7.875 1.514 7.669.344 6.695-.263 5.627.117zm3.686 6.29c-.496.183-.764.419-.99.872-.374.751-.264 1.702.264 2.288.423.469.981.654 1.52.615V6.295c-.26-.019-.53.016-.794.113z" fill="#17A84B"/>
        <path d="M10.107 10.182c.948-.067 1.84-.823 1.84-1.94 0-1.058-.858-1.878-1.84-1.947v3.887z" fill="#077FA2"/>
        <path d="M10.107 20c1.198 0 1.777-.49 1.936-1.638.046-.334.14-.67.209-.747.068-.076.477-.256.906-.4 1.465-.488 2.642-1.211 3.693-2.27 1.209-1.218 1.844-2.427 2.302-4.381.245-1.048.267-1.247.267-2.526 0-1.278-.018-1.451-.23-2.197-.538-1.887-1.52-3.38-3.022-4.592C14.902.227 14.132-.111 13.383.03c-.68.128-1.268 1.002-1.27 1.889 0 .634.282 1.105.953 1.591 1.029.746 1.848 1.702 2.271 2.65.846 1.896.477 4.217-.912 5.752-.694.766-1.986 1.625-2.224 1.478-.063-.039-.134-.339-.174-.733-.075-.75-.316-1.261-.732-1.558-.226-.161-.69-.261-1.188-.27V20z" fill="#077FA2"/>
    </svg>