<svg width="24" height="24" fill="none" viewBox="-2 -2 24 24" id="tlm" x="494" y="336" xmlns="http://www.w3.org/2000/svg">
        <path d="M17.828 19.9H1.344a1 1 0 01-.742-.33l-.15-.165a1 1 0 01-.159-1.107L8.751.806a1 1 0 01.455-.46l.248-.123a1 1 0 01.891 0l.25.124a1 1 0 01.454.457l8.25 16.9a1 1 0 01.1.438v.556a1 1 0 01-.664.942l-.572.203a1 1 0 01-.335.058z" fill="#fff"/>
        <path fill-rule="evenodd" clip-rule="evenodd" d="M9.504.06C9.09.168 8.84.4 8.65.86c-.055.134-.334.73-.62 1.325-.287.596-.54 1.145-.562 1.22-.091.304.159.983.53 1.437.316.387.824.74 1.259.874.58.18 1.34.043 1.9-.34.65-.446 1.135-1.257 1.136-1.9 0-.266-.014-.304-.51-1.335a24.915 24.915 0 01-.546-1.189 1.346 1.346 0 00-.301-.497c-.213-.23-.399-.326-.79-.408-.304-.064-.34-.063-.643.015zm2.836 5.153l-.535.746.186.095c.416.211 2.175 1.02 2.189 1.006.018-.018-1.259-2.597-1.285-2.595-.01.001-.26.338-.555.748zm-5.933.333c-.53 1.12-.632 1.35-.613 1.37.008.007.385-.151.838-.353 1.212-.54 1.298-.58 1.298-.607 0-.02-.258-.355-.895-1.165a1.223 1.223 0 00-.163-.185c-.01 0-.22.422-.465.94zm2.576 1.083c-.893.14-1.906.528-2.884 1.106l-.299.177h3.866c2.229-.001 3.86-.015 3.854-.032a1.911 1.911 0 00-.251-.223c-.71-.564-1.56-.9-2.608-1.03-.512-.062-1.266-.062-1.678.002zm-.208 2.058l-3.644.018-.143.077a1.174 1.174 0 00-.267.214 2.31 2.31 0 00-.366.692l-.023.09 2.388.004c1.314.001 2.468.013 2.565.026l.176.023.018 5.052.017 5.05.26.032c.339.042.489.004.593-.15l.08-.12V9.779l.783-.003c.43-.002.847-.006.924-.01.078-.004.858-.01 1.734-.015 1.246-.006 1.593-.017 1.593-.052 0-.078-.39-.622-.54-.749a1.772 1.772 0 00-.328-.21c-.184-.088-.186-.088-1.18-.08-.549.005-2.637.017-4.64.027zM4.266 10.62c-.283.04-.38.14-.64.657a4.462 4.462 0 00-.448 1.982c0 .567.042.948.157 1.43.44 1.841 1.459 3.296 2.963 4.234.309.193.891.469 1.315.623a26.37 26.37 0 001.202.405c.015 0 .017-2.039.006-4.532-.022-4.886-.015-4.723-.205-4.796-.102-.038-4.076-.041-4.35-.003zm7.37.034c-.313.018-.408.035-.458.085-.058.058-.065.214-.09 2.095-.028 2.141-.02 7.134.01 7.165.019.018.981-.32 1.53-.539a6.183 6.183 0 002.055-1.355c.734-.716 1.16-1.345 1.516-2.237.348-.874.492-1.52.521-2.341.03-.844-.121-1.55-.486-2.275-.187-.373-.29-.507-.43-.56-.125-.048-3.444-.078-4.168-.038zm5.646 2.97c-.031.128-.337 1.72-.363 1.889-.023.15-.022.154.06.133.554-.142 1.194-.328 1.194-.347 0-.036-.838-1.754-.856-1.754-.01 0-.025.036-.035.08zM2.02 14.66c-.216.458-.38.845-.366.86.015.014.273.091.573.171l.608.164c.036.01.061 0 .062-.028 0-.095-.437-2-.46-2-.013 0-.2.374-.417.833zm15.96 1.51a20.34 20.34 0 01-.265.054c-.613.123-1.248.578-1.577 1.132-.26.434-.389 1.04-.324 1.506.048.344.156.664.284.84.194.267.098.254 1.763.242 1.474-.01 1.493-.011 1.641-.09.296-.158.464-.53.398-.878-.052-.273-.078-.33-.724-1.647-.544-1.11-.579-1.154-.907-1.166a1.759 1.759 0 00-.29.007zm-16.655.212c-.13.064-.313.38-.781 1.352-.492 1.02-.538 1.14-.544 1.428-.007.363.133.58.492.766.099.051.263.058 1.32.057 1.467-.002 1.643-.018 1.786-.155.143-.137.233-.342.304-.69.215-1.06-.463-2.214-1.53-2.603-.263-.096-.744-.212-.873-.21a.54.54 0 00-.174.055zm3.352 2.329a28.094 28.094 0 00-.197 1.214c0 .014.447.026.994.026h.993l-.738-.549c-1.045-.777-1.029-.766-1.052-.691zm9.489.572l-.857.633h2.04l-.083-.343c-.046-.189-.11-.474-.145-.634-.034-.16-.07-.29-.08-.29-.01 0-.404.286-.875.634z" fill="#000"/>
    </svg>