<svg width="24" height="24" fill="none" viewBox="-2 -2 24 24" id="tronpad" x="494" y="432" xmlns="http://www.w3.org/2000/svg">
        <path d="M7.721 16.908a.443.443 0 01-.446-.446V8.558L.413 4.011A.45.45 0 01.23 3.51a.45.45 0 01.428-.319h18.776c.177 0 .338.104.407.267.073.161.04.35-.079.48L16.37 7.666a.45.45 0 01-.632.03.449.449 0 01-.03-.63l2.714-2.98H2.141L7.966 7.95c.125.082.2.221.2.373v6.993l2.454-2.688V6.668a.448.448 0 01.723-.352l3.27 2.549a.445.445 0 01.054.652l-3.154 3.453v3.492a.447.447 0 01-.893 0v-2.515l-2.572 2.815a.445.445 0 01-.328.146zm3.793-9.326v4.065l2.168-2.376-2.168-1.69z" fill="#ED1C24"/>
    </svg>