<svg width="24" height="24" fill="none" viewBox="-2 -2 24 24" id="tru" x="494" y="456" xmlns="http://www.w3.org/2000/svg">
        <g clip-path="url(#pjclip0)">
            <path d="M10 20c5.523 0 10-4.477 10-10S15.523 0 10 0 0 4.477 0 10s4.477 10 10 10z" fill="#285FF5"/>
            <path d="M7.238 6.99c.343-.593.978-.96 1.665-.96h3.032v2.887H9.458l-3.8 6.566-2.498-1.446L7.238 6.99zM3.475 9.128A3.016 3.016 0 006.49 6.113H3.475v3.015zM14.721 6.03c-.687 0-1.321.367-1.665.96l-4.078 7.047 2.498 1.445 3.8-6.565h2.477V6.03h-3.032z" fill="#fff"/>
        </g>
        <defs>
            <clipPath id="pjclip0">
                <path fill="#fff" d="M0 0h20v20H0z"/>
            </clipPath>
        </defs>
    </svg>