<svg width="24" height="24" fill="none" viewBox="-2 -2 24 24" id="trx" x="24" y="484" xmlns="http://www.w3.org/2000/svg">
        <circle cx="10" cy="10" r="10" fill="#EB322A"/>
        <path fill-rule="evenodd" clip-rule="evenodd" d="M4.063 3.98a.4.4 0 01.375-.145l10.164 1.613a.4.4 0 01.227.119l2.457 2.578a.399.399 0 01.023.533l-7.38 9.074a.4.4 0 01-.682-.105L4.003 4.377a.4.4 0 01.06-.398zm12.11 4.157l-1.615-1.695L11.97 8.73l4.204-.593zm-2.456-2.02L5.749 4.853l4.968 3.917 3-2.653zm-2.657 3.55l4.987-.704-5.817 7.151.83-6.448zm-1.617 6.3L5.32 5.532l4.962 3.912-.84 6.521z" fill="#fff"/>
    </svg>