<svg width="24" height="24" fill="none" viewBox="-2 -2 24 24" id="tusd" x="48" y="484" xmlns="http://www.w3.org/2000/svg">
        <circle cx="10" cy="10" r="10" fill="#fff"/>
        <path fill-rule="evenodd" clip-rule="evenodd" d="M9.61.008C4.986.203 1.105 3.5.192 8.008a10.437 10.437 0 000 3.983c.312 1.54.997 3.012 1.976 4.244.343.43 1.14 1.235 1.548 1.559a10.051 10.051 0 008.325 1.997c3.85-.791 6.926-3.853 7.739-7.701a9.988 9.988 0 00-1.475-7.656c-.373-.56-.66-.904-1.235-1.481-.74-.744-1.367-1.222-2.242-1.71C13.296.39 11.368-.066 9.61.009zm-1.3 5.416a3.429 3.429 0 01-1.915 2.794c-.283.14-.749.276-1.035.304-.12.011-.268.028-.33.038l-.111.017V5.138H8.33l-.022.286zm6.765 1.432v1.7l-1.693.01-1.692.008v6.871l-1.693-.009-1.693-.009-.01-3.52c-.006-2.388.003-3.615.028-3.81.195-1.499 1.388-2.698 2.907-2.92.111-.017 1.023-.029 2.024-.026l1.822.004v1.701z" fill="#1A5AFF"/>
    </svg>