<svg width="25" height="24" fill="none" viewBox="-2 -2 25 24" id="twd" x="252" y="99" xmlns="http://www.w3.org/2000/svg">
        <g clip-path="url(#poclip0)">
            <path d="M20.5 10c0 5.523-4.477 10-10 10S.5 15.523.5 10l10-10c5.523 0 10 4.477 10 10z" fill="#D80027"/>
            <path d="M10.5 10V0C4.977 0 .5 4.477.5 10h10z" fill="#0052B4"/>
            <path d="M9.196 5.852l-1.222.575.65 1.183-1.326-.254-.168 1.34-.923-.986-.924.986-.168-1.34-1.326.254.65-1.183-1.221-.575 1.221-.574-.65-1.183 1.326.254.168-1.34.924.985.923-.985.168 1.34 1.327-.254-.65 1.183 1.22.574z" fill="#F0F0F0"/>
            <path d="M6.207 7.714a1.861 1.861 0 100-3.723 1.861 1.861 0 000 3.723z" fill="#0052B4"/>
            <path d="M6.207 6.844a.993.993 0 010-1.984.993.993 0 010 1.984z" fill="#F0F0F0"/>
        </g>
        <defs>
            <clipPath id="poclip0">
                <path fill="#fff" transform="translate(.5)" d="M0 0h20v20H0z"/>
            </clipPath>
        </defs>
    </svg>