<svg width="24" height="24" fill="none" viewBox="-2 -2 24 24" id="ufi" x="120" y="484" xmlns="http://www.w3.org/2000/svg">
        <circle cx="10" cy="10" r="10" fill="#111342"/>
        <path fill-rule="evenodd" clip-rule="evenodd" d="M7.615 3.414l6.934 7.568-8.254-6.927a7.012 7.012 0 00-.338.225l8.342 7-9.455-6.023a7.04 7.04 0 00-.259.296l9.505 6.055L3.766 6.794c-.06.115-.116.232-.169.351l10.328 4.816L3.137 8.56c-.026.127-.05.256-.07.386l10.741 3.386L3 10.428c.008.135.02.268.035.401l10.706 1.888-10.383-.453c.046.133.095.266.148.396l10.217.446-9.53.834c.085.125.174.248.267.367l9.297-.813-8.314 1.843c.127.108.258.213.392.312l8.007-1.775-6.82 2.482c.172.081.348.155.527.222l6.426-2.338-5.149 2.68c.226.038.455.065.688.081l4.64-2.416-3.418 2.394c.306-.032.606-.084.9-.154l2.742-1.921-1.748 1.601a6.989 6.989 0 001.45-.8l.561-.514-.195.233a6.994 6.994 0 002.559-5.415 7.01 7.01 0 00-.282-1.973l-.089 2.03-.259-2.964a6.977 6.977 0 00-.466-.857l.338 3.854-1.066-4.805a7.052 7.052 0 00-.511-.508l1.196 5.397-2.247-6.175a7.007 7.007 0 00-.518-.284l2.4 6.593-3.685-7.078a6.947 6.947 0 00-.498-.114l3.837 7.371L9.907 3a7.09 7.09 0 00-.46.02l5.39 7.699L8.02 3.28c-.137.04-.272.085-.406.133z" fill="#fff"/>
        <path fill-rule="evenodd" clip-rule="evenodd" d="M7.615 3.414l6.934 7.568-8.254-6.927a7.012 7.012 0 00-.338.225l8.342 7-9.455-6.023a7.04 7.04 0 00-.259.296l9.505 6.055L3.766 6.794c-.06.115-.116.232-.169.351l10.328 4.816L3.137 8.56c-.026.127-.05.256-.07.386l10.741 3.386L3 10.428c.008.135.02.268.035.401l10.706 1.888-10.383-.453c.046.133.095.266.148.396l10.217.446-9.53.834c.085.125.174.248.267.367l9.297-.813-8.314 1.843c.127.108.258.213.392.312l8.007-1.775-6.82 2.482c.172.081.348.155.527.222l6.426-2.338-5.149 2.68c.226.038.455.065.688.081l4.64-2.416-3.418 2.394c.306-.032.606-.084.9-.154l2.742-1.921-1.748 1.601a6.989 6.989 0 001.45-.8l.561-.514-.195.233a6.994 6.994 0 002.559-5.415 7.01 7.01 0 00-.282-1.973l-.089 2.03-.259-2.964a6.977 6.977 0 00-.466-.857l.338 3.854-1.066-4.805a7.052 7.052 0 00-.511-.508l1.196 5.397-2.247-6.175a7.007 7.007 0 00-.518-.284l2.4 6.593-3.685-7.078a6.947 6.947 0 00-.498-.114l3.837 7.371L9.907 3a7.09 7.09 0 00-.46.02l5.39 7.699L8.02 3.28c-.137.04-.272.085-.406.133z" fill="url(#pspaint0_linear_2300_5790)"/>
        <defs>
            <linearGradient id="pspaint0_linear_2300_5790" x1="15.966" y1="14.035" x2="4.187" y2="5.814" gradientUnits="userSpaceOnUse">
                <stop stop-color="#7000FF"/>
                <stop offset=".49" stop-color="#00FFD1"/>
                <stop offset="1" stop-color="#FFBF1C"/>
            </linearGradient>
        </defs>
    </svg>