<svg width="24" height="24" fill="none" viewBox="-2 -2 24 24" id="uma" x="168" y="484" xmlns="http://www.w3.org/2000/svg">
        <path d="M10 20c5.523 0 10-4.477 10-10S15.523 0 10 0 0 4.477 0 10s4.477 10 10 10z" fill="#FF4A4A"/>
        <path d="M1.436 12.196h4.666a.338.338 0 00.094-.013l.007-.002a.329.329 0 00.14-.084.339.339 0 00.099-.24V8.024a.254.254 0 00-.255-.254h-.75a.254.254 0 00-.255.254v2.916H2.355V8.024A.255.255 0 002.1 7.77h-.75a.255.255 0 00-.254.254v3.833a.34.34 0 00.34.34zM11.765 12.23h.753a.26.26 0 00.181-.074.257.257 0 00.076-.181V8.149a.342.342 0 00-.535-.28l-2.09 1.427a.257.257 0 01-.29 0L7.77 7.868a.341.341 0 00-.534.281v3.826a.256.256 0 00.257.255h.753a.25.25 0 00.098-.019.256.256 0 00.158-.236V9.99l1.322.827a.343.343 0 00.363 0l1.322-.827v1.985a.256.256 0 00.256.255zM13.898 7.77h4.667a.34.34 0 01.34.339v3.833a.255.255 0 01-.255.255h-.75a.249.249 0 01-.18-.075.254.254 0 01-.075-.18V9.196a.17.17 0 00-.17-.17h-2.487a.17.17 0 00-.17.17v2.746a.257.257 0 01-.208.25.248.248 0 01-.047.005h-.75a.262.262 0 01-.097-.02.255.255 0 01-.158-.235V8.11a.34.34 0 01.34-.34z" fill="#fff"/>
        <path d="M15.601 10.854v-.755a.251.251 0 01.158-.233.254.254 0 01.097-.02h.75a.254.254 0 01.255.253v.755a.254.254 0 01-.255.253h-.75a.255.255 0 01-.255-.253z" fill="#fff"/>
    </svg>