<svg width="25" height="24" fill="none" viewBox="-2 -2 25 24" id="unfi" x="252" y="147" xmlns="http://www.w3.org/2000/svg">
        <path d="M10.043 20c5.522 0 10-4.477 10-10s-4.478-10-10-10c-5.523 0-10 4.477-10 10s4.477 10 10 10z" fill="#7CF4A0"/>
        <path fill-rule="evenodd" clip-rule="evenodd" d="M10.715 6.447l2.912 2.955-.031 4.15-2.956 2.911-4.149-.031-2.912-2.956.032-4.149 2.955-2.911 4.15.03zm-3.62 1.272L4.906 9.875l-.023 3.072 2.156 2.189 3.072.023 2.189-2.156.023-3.072-2.156-2.188-3.072-.024z" fill="#000"/>
        <path fill-rule="evenodd" clip-rule="evenodd" d="M13.594 3.568l2.912 2.956-.032 4.149-2.955 2.912-4.15-.032-2.911-2.956.031-4.148 2.956-2.912 4.149.031zm-3.62 1.273L7.785 6.997l-.023 3.072 2.156 2.188 3.072.024 2.188-2.156.024-3.072-2.156-2.189-3.072-.023z" fill="#fff"/>
    </svg>