<svg width="24" height="24" fill="none" viewBox="-2 -2 24 24" id="uni" x="192" y="484" xmlns="http://www.w3.org/2000/svg">
        <path d="M10 20c5.523 0 10-4.477 10-10S15.523 0 10 0 0 4.477 0 10s4.477 10 10 10z" fill="url(#pwpaint0_linear)"/>
        <path fill-rule="evenodd" clip-rule="evenodd" d="M10 19a9 9 0 100-18 9 9 0 000 18zm10-9c0 5.523-4.477 10-10 10S0 15.523 0 10 4.477 0 10 0s10 4.477 10 10z" fill="url(#pwpaint1_linear)"/>
        <path d="M8.84 7.717a.792.792 0 01-.133.277c-.116.151-.27.269-.445.342a1.712 1.712 0 01-.603.14h-.005a.505.505 0 00-.47.377 1.285 1.285 0 00-.029.16c-.01.08-.014.162-.02.251-.004.065-.008.132-.014.205a2.715 2.715 0 01-.253.853 9.247 9.247 0 01-.08.165c-.144.288-.273.548-.236.896.03.269.166.449.348.634.086.089.2.165.32.244.333.22.7.463.579 1.075-.1.496-.918 1.016-2.068 1.198.111-.017-.133-.437-.161-.485l-.002-.003c-.032-.05-.064-.1-.097-.148-.093-.142-.187-.283-.26-.44-.192-.408-.28-.88-.202-1.327.071-.405.338-.729.594-1.04l.124-.151c.343-.429.703-.99.783-1.545l.02-.156c.01-.1.023-.207.042-.315.029-.186.086-.366.171-.533.059-.11.135-.209.226-.292a.292.292 0 00.057-.356L5.192 4.43l2.634 3.265a.328.328 0 00.504.01.224.224 0 00.007-.282c-.122-.157-.25-.317-.377-.476l-.153-.191-.663-.824-1.33-1.646L4 2l1.985 2.14L7.4 5.711l.706.788.195.22c.17.19.339.38.508.58l.039.048.008.073c.011.099.006.199-.017.296zM15.61 8.826l.002.004c0-.351-.217-.931-.655-1.489l-.01-.013a4.372 4.372 0 00-.534-.556 3.656 3.656 0 00-.66-.46l-.017-.01c-.742-.405-1.708-.614-2.898-.379a5.895 5.895 0 00-.516-.552 2.967 2.967 0 00-.973-.621 2.474 2.474 0 00-1.122-.138c.365.033.722.136 1.05.302.317.17.602.394.844.662.244.273.474.559.689.857l.054.07c.21.274.423.554.689.802.146.139.31.258.486.355a2.226 2.226 0 00.277.121c.09.036.184.065.278.092.375.107.76.146 1.134.166l.156.008c.134.007.267.013.398.023.179.01.357.039.53.084.261.068.491.224.651.442.055.073.104.15.147.23z" fill="#DF367C"/>
        <path d="M14.508 6.855a6.55 6.55 0 00-.059-.054l-.035-.031.028.025.066.06zM14.05 10.326c-1.206-.492-2.467-1.006-2.28-2.45.403.433 1.035.523 1.723.622.623.09 1.292.185 1.877.548 1.38.856 1.179 2.52.71 3.131.042-1.007-.973-1.42-2.03-1.851zM9.184 9.602c.318-.03.997-.196.693-.733a.675.675 0 00-.639-.325.626.626 0 00-.542.475c-.094.351.006.63.488.583zM9.101 5.358c-.2-.231-.51-.353-.813-.397a2.105 2.105 0 00-.022.23c-.013.632.21 1.326.643 1.809.138.156.305.284.492.377.107.052.393.183.5.065a.076.076 0 00.008-.076.558.558 0 00-.085-.141.793.793 0 01-.065-.098c-.018-.034-.037-.067-.057-.1a1.545 1.545 0 01-.099-.19c-.073-.175-.11-.361-.148-.547l-.023-.112c-.058-.287-.131-.588-.331-.82z" fill="#DF367C"/>
        <path d="M13.367 10.402c-.31.869.19 1.602.687 2.331.555.816 1.107 1.626.518 2.614 1.144-.475 1.688-1.909 1.213-3.047-.3-.72-1.02-1.11-1.69-1.471a7.97 7.97 0 01-.728-.427zM10.011 12.476a2.593 2.593 0 00-.581.332 4.213 4.213 0 011.265-.25l.237-.013c.137-.006.277-.012.42-.024.233-.016.463-.064.684-.142a1.66 1.66 0 00.617-.386c.177-.178.3-.402.358-.647a1.445 1.445 0 00-.367-1.307c.079.2.127.412.144.628.014.2-.013.401-.08.59a1.21 1.21 0 01-.311.472c-.144.13-.31.235-.492.306-.252.101-.536.143-.833.187-.135.02-.273.04-.41.066-.223.04-.44.104-.65.188zM13.629 16.043l-.042.033a1.749 1.749 0 01-.392.252 1.186 1.186 0 01-.532.121c-.499-.01-.851-.382-1.057-.804a6.23 6.23 0 01-.15-.338 3.901 3.901 0 00-.255-.533c-.238-.39-.647-.706-1.125-.647a.654.654 0 00-.486.282c-.285.444.124 1.066.646.978a.468.468 0 00.244-.106.542.542 0 00.181-.524.403.403 0 00-.168-.251c.1.047.179.132.218.235a.666.666 0 01-.119.653.648.648 0 01-.14.12.817.817 0 01-.532.117.973.973 0 01-.56-.282 1.768 1.768 0 01-.233-.25 2.694 2.694 0 00-.107-.114 2.03 2.03 0 00-.583-.427 2.164 2.164 0 00-.468-.146 3.085 3.085 0 00-.293-.047c-.069-.012-.18-.031-.2-.013.254-.234.53-.443.826-.622.302-.18.628-.32.967-.415.352-.1.72-.128 1.082-.084.187.023.37.07.544.142.183.073.351.177.498.309.145.137.263.302.346.484.075.17.13.35.167.533.019.098.033.207.048.319.069.51.148 1.1.733 1.202.037.008.075.013.113.017l.116.002c.08-.006.16-.017.239-.034.163-.039.321-.093.474-.162z" fill="#DF367C"/>
        <defs>
            <linearGradient id="pwpaint0_linear" x1="7" y1="3" x2="10" y2="20" gradientUnits="userSpaceOnUse">
                <stop stop-color="#FFF4FB"/>
                <stop offset="1" stop-color="#FFCCEB"/>
            </linearGradient>
            <linearGradient id="pwpaint1_linear" x1="27.5" y1="30.5" x2="4.5" y2="0" gradientUnits="userSpaceOnUse">
                <stop stop-color="#DF367C"/>
                <stop offset="1" stop-color="#DF367C" stop-opacity="0"/>
            </linearGradient>
        </defs>
    </svg>