<svg width="25" height="25" fill="none" viewBox="-2 -2 25 25" id="urus" x="252" y="171" xmlns="http://www.w3.org/2000/svg">
        <circle cx="10.846" cy="10.889" r="10" fill="#080E1C"/>
        <path d="M12.513 9.13c-1.492-.465-2.946-.194-3.486 0-1.53-.765-2.171-.474-3.425-.566-1.003-.073-2.171-.938-2.63-1.36l-.153.091v.535c.275.444.948 1.132 1.468 1.422.52.29 1.33.459 1.88.459.44 0 1.06.316 1.315.474-.158.24-.443.786-.32 1.055.152.336 2.247 4.082 2.599 4.526.351.443.734.52 1.009.52.275 0 .795-.031 1.116-.52.321-.49 2.34-4.144 2.477-4.526.11-.306-.117-.892-.245-1.147.25-.097.832-.309 1.162-.382.413-.092 1.346-.122 2.034-.459.55-.269 1.269-1.172 1.56-1.59v-.275l-.291-.184c-.51.48-1.865 1.422-3.211 1.361-1.345-.061-2.467.352-2.86.566z" fill="#286FF6"/>
    </svg>