<svg width="25" height="24" fill="none" viewBox="-2 -2 25 24" id="usd" x="252" y="196" xmlns="http://www.w3.org/2000/svg">
        <g clip-path="url(#pzclip0)">
            <path d="M10.882 20c5.523 0 10-4.477 10-10s-4.477-10-10-10-10 4.477-10 10 4.477 10 10 10z" fill="#F0F0F0"/>
            <path d="M10.447 10h10.435c0-.903-.12-1.777-.345-2.609h-10.09V10zM10.447 4.783h8.967a10.051 10.051 0 00-2.307-2.61h-6.66v2.61zM10.882 20a9.957 9.957 0 006.225-2.174H4.657A9.957 9.957 0 0010.882 20zM2.35 15.217h17.064a9.94 9.94 0 001.124-2.608H1.227c.25.93.631 1.806 1.123 2.608z" fill="#D80027"/>
            <path d="M5.515 1.562h.91l-.847.615.324.997-.848-.616-.847.616.28-.86c-.747.62-1.401 1.35-1.94 2.16h.292l-.54.393c-.084.14-.164.282-.242.427l.258.793-.48-.35c-.12.254-.23.513-.328.777l.284.874H2.84l-.848.616.324.996-.848-.616-.507.37C.909 9.161.882 9.577.882 10h10V0a9.953 9.953 0 00-5.367 1.562zM5.902 9l-.848-.616L4.207 9l.323-.996-.847-.616H4.73l.323-.997.324.997h1.048l-.848.616.324.996zm-.324-3.91l.324.997-.848-.616-.847.616.323-.996-.847-.616H4.73l.323-.997.324.997h1.048l-.848.616zM9.488 9l-.847-.616L7.794 9l.323-.996-.847-.616h1.048l.323-.997.324.997h1.048l-.848.616L9.49 9zm-.323-3.91l.324.997-.848-.616-.847.616.323-.996-.847-.616h1.048l.323-.997.324.997h1.048l-.848.616zm0-2.913l.324.997-.848-.616-.847.616.323-.997-.847-.615h1.048L8.64.565l.324.997h1.048l-.848.615z" fill="#0052B4"/>
        </g>
        <defs>
            <clipPath id="pzclip0">
                <path fill="#fff" transform="translate(.882)" d="M0 0h20v20H0z"/>
            </clipPath>
        </defs>
    </svg>