<svg width="24" height="24" fill="none" viewBox="-2 -2 24 24" id="usdtbsc" x="288" y="484" xmlns="http://www.w3.org/2000/svg">
        <circle cx="10" cy="10" r="10" fill="#FFC331"/>
        <path fill-rule="evenodd" clip-rule="evenodd" d="M11.325 10.904c-.074.005-.456.028-1.31.028-.678 0-1.16-.02-1.329-.028-2.622-.116-4.58-.572-4.58-1.119 0-.546 1.958-1.002 4.58-1.12v1.784c.172.012.663.041 1.341.041.815 0 1.223-.034 1.296-.04V8.667c2.617.116 4.57.573 4.57 1.118 0 .546-1.953 1.002-4.57 1.118h.002zm0-2.422V6.887h3.652V4.453H5.034v2.434h3.652v1.595c-2.968.136-5.2.724-5.2 1.428 0 .705 2.232 1.292 5.2 1.43v5.113h2.639v-5.116c2.96-.136 5.189-.723 5.189-1.427 0-.704-2.226-1.291-5.19-1.428h.001z" fill="#fff"/>
    </svg>