<svg width="24" height="24" fill="none" viewBox="-2 -2 24 24" id="ust" x="336" y="484" xmlns="http://www.w3.org/2000/svg">
        <path d="M6.753.791C8.703.061 10.9.06 12.887.66c2.587.803 4.77 2.755 5.912 5.205.315.698.616 1.426.646 2.203-1.454-.843-3.048-1.39-4.646-1.888-2.555-.921-5.23-1.56-7.65-2.827-.562-.336-1.28-.681-1.434-1.382-.061-.607.58-.945 1.038-1.18zM.864 6.688c.565-1.532 1.491-2.955 2.749-4.01.32 2.631 1.44 5.173 3.288 7.086 2.218 2.303 5.376 3.718 8.59 3.664 1.276.04 2.523-.255 3.768-.493-1.225 4.425-6.074 7.362-10.567 6.655-2.712-.346-5.216-1.952-6.726-4.22C.26 12.866-.168 9.54.864 6.689z" fill="#5493F7"/>
        <path d="M14.7 6c1.597.498 3.192 1.045 4.646 1.887l.098.052c.135 1.015.233 2.05.053 3.065-.73-.31-1.324-.854-1.944-1.336C16.361 8.675 15.143 7.54 14.7 6z" fill="#0D3BA5"/>
        <path d="M19.977 15.468h-9.955 9.955zM19.459 12.738H10.54h8.918zM19.813 13.648h-9.627 9.627zM12.149 19.107h5.702-5.703zM15 10c-.098 0-.196.004-.293.01h.585A5.058 5.058 0 0015 10zM19.979 14.558h-9.958 9.958z" fill="#C42126"/>
        <path d="M16.478 11.828h2.387a5.027 5.027 0 00-.978-.91h-1.793c.149.262.276.57.384.91z" fill="#E7E7E7"/>
        <path d="M16.094 10.919h1.793a4.973 4.973 0 00-2.595-.91h-.154c.454.057.662.393.956.91z" fill="#DC3027"/>
        <path d="M19.814 13.648a4.967 4.967 0 00-.355-.91h-2.747c.056.292.1.598.132.91h2.97z" fill="#E7E7E7"/>
        <path d="M16.558 12.738h2.9a5.006 5.006 0 00-.593-.91h-2.534c.09.283.165.588.227.91z" fill="#DC3027"/>
        <path d="M16.95 15.467h3.027a5.015 5.015 0 00.002-.91H16.95c.01.303.01.608 0 .91z" fill="#E7E7E7"/>
        <path d="M19.98 14.558a4.978 4.978 0 00-.167-.91h-3.096c.03.298.051.603.061.91h3.201z" fill="#DC3027"/>
        <path d="M16.66 17.287h2.786c.148-.288.27-.592.36-.91h-3.011c-.034.313-.079.618-.135.91z" fill="#E7E7E7"/>
        <path d="M19.806 16.377c.084-.293.142-.597.171-.91h-3.122c-.01.308-.032.612-.064.91h3.015z" fill="#DC3027"/>
        <path d="M17.852 19.106c.37-.257.704-.563.992-.91h-2.346c-.11.343-.24.65-.39.91h1.744z" fill="#E7E7E7"/>
        <path d="M16.41 18.197h2.434a5.01 5.01 0 00.602-.91h-2.807a7.915 7.915 0 01-.23.91zM14.819 19.997zM15 20c1.06 0 2.042-.33 2.851-.893h-1.81c-.32.553-.533.893-1.041.893z" fill="#DC3027"/>
        <path d="M15 20z" fill="#C42126"/>
        <path d="M16.26 10.919h-4.147a5.027 5.027 0 00-.979.91h5.51a4.759 4.759 0 00-.384-.91z" fill="#F3F4F5"/>
        <path d="M12.113 10.919h4.147c-.294-.517-.668-.853-1.122-.91h-.43a4.973 4.973 0 00-2.595.91z" fill="#E73625"/>
        <path d="M10.187 13.648h6.815a10.91 10.91 0 00-.132-.91H10.54a4.96 4.96 0 00-.354.91z" fill="#F3F4F5"/>
        <path d="M11.135 11.828c-.23.28-.428.585-.594.91h6.329a8.029 8.029 0 00-.227-.91h-5.508z" fill="#E73625"/>
        <path d="M10 15c0 .158.008.314.023.467h7.04c.01-.302.01-.607 0-.91h-7.042c-.013.147-.021.294-.021.443z" fill="#F3F4F5"/>
        <path d="M10.02 14.558h7.044c-.01-.307-.031-.612-.062-.91h-6.816a4.97 4.97 0 00-.165.91z" fill="#E73625"/>
        <path d="M17 16.377h-6.806c.09.318.212.622.36.91h6.31c.057-.292.102-.597.135-.91z" fill="#F3F4F5"/>
        <path d="M10.194 16.377h6.805c.032-.298.053-.602.064-.91h-7.04c.028.313.087.617.17.91z" fill="#E73625"/>
        <path d="M12.149 19.106h4.096a4.65 4.65 0 00.39-.91h-5.479c.288.347.622.653.993.91z" fill="#F3F4F5"/>
        <path d="M10.554 17.287c.168.325.37.63.602.91h5.48c.09-.283.166-.588.229-.91h-6.31zM14.788 19.995l.03.001c.06.003.121.004.182.004.508 0 .923-.34 1.244-.893H12.15c.755.524 1.66.848 2.64.888z" fill="#E73625"/>
        <path d="M14.897 10.003a4.999 4.999 0 00-4.876 4.546h4.876v-4.546z" fill="#283991"/>
        <path d="M11 12.833l.077.234h.246l-.2.146.077.234-.2-.145-.199.145.076-.234-.2-.146h.247l.077-.234zM11 13.662l.077.234h.246l-.2.145.077.235-.2-.145-.199.145.076-.235-.2-.145h.247l.077-.234zM11.83 11.59l.076.234h.246l-.2.146.077.234-.2-.145-.2.145.077-.235-.2-.145h.247l.076-.234zM11.83 12.418l.076.235h.246l-.2.145.077.235-.2-.145-.2.145.077-.235-.2-.145h.247l.076-.235zM11.83 13.247l.076.235h.246l-.2.145.077.234-.2-.145-.2.146.077-.235-.2-.145h.247l.076-.235zM10.371 13.861l-.076-.234.2-.145h-.247l-.005-.017a4.727 4.727 0 00-.075.254l.004-.003.2.146zM10.801 12.618l.2-.145.2.145-.077-.234.2-.145h-.247L11 12.004l-.077.235h-.09a5.088 5.088 0 00-.05.077l.093.068-.076.234zM11.83 11.23l.199.145-.076-.234.2-.146h-.143c-.121.091-.238.187-.35.288l-.03.092.2-.145zM12.459 10.96l.2-.144.199.145-.076-.235.2-.145h-.248l-.01-.031a4.951 4.951 0 00-.247.134l.058.042-.076.235zM12.658 11.175l.076.235h.247l-.2.145.077.235-.2-.145-.2.145.077-.235-.2-.145h.247l.076-.235zM12.658 12.004l.076.235h.247l-.2.145.077.234-.2-.145-.2.145.077-.234-.2-.145h.247l.076-.235zM12.658 12.833l.076.234h.247l-.2.146.077.234-.2-.145-.2.145.077-.234-.2-.146h.247l.076-.234zM12.658 13.662l.076.234h.247l-.2.145.077.235-.2-.145-.2.145.077-.235-.2-.145h.247l.076-.234zM13.487 10.76l.076.236h.247l-.2.145.076.234-.2-.145-.199.145.076-.234-.2-.146h.248l.076-.234zM13.487 11.59l.076.234h.247l-.2.146.076.234-.2-.145-.199.145.076-.235-.2-.145h.248l.076-.234zM13.487 12.418l.076.235h.247l-.2.145.076.235-.2-.145-.199.145.076-.235-.2-.145h.248l.076-.235zM13.487 13.247l.076.235h.247l-.2.145.076.234-.2-.145-.199.146.076-.235-.2-.145h.248l.076-.235zM14.316 10.347l.076.234h.247l-.2.145.076.235-.199-.145-.2.145.077-.235-.2-.145h.247l.076-.234zM14.316 11.175l.076.235h.247l-.2.145.076.235-.199-.145-.2.145.077-.235-.2-.145h.247l.076-.235zM14.316 12.004l.076.235h.247l-.2.145.076.234-.199-.145-.2.145.077-.234-.2-.145h.247l.076-.235zM14.316 12.833l.076.234h.247l-.2.146.076.234-.199-.145-.2.145.077-.234-.2-.146h.247l.076-.234zM14.316 13.662l.076.234h.247l-.2.145.076.235-.199-.145-.2.145.077-.235-.2-.145h.247l.076-.234z" fill="#EFEFEF"/>
    </svg>