<svg width="25" height="24" fill="none" viewBox="-2 -2 25 24" id="uyu" x="225" y="220" xmlns="http://www.w3.org/2000/svg">
        <g clip-path="url(#qiclip0)">
            <path d="M10.5 20c5.523 0 10-4.477 10-10s-4.477-10-10-10S.5 4.477.5 10s4.477 10 10 10z" fill="#F0F0F0"/>
            <path d="M10.5 7.391h9.655a9.942 9.942 0 00-1.123-2.608H10.5V7.39zM4.275 17.826h12.45a10.052 10.052 0 002.307-2.609H1.968a10.053 10.053 0 002.307 2.61zM10.5 0v2.174h6.225A9.957 9.957 0 0010.5 0z" fill="#338AF3"/>
            <path d="M10.5 7.391h9.655a9.943 9.943 0 00-1.123-2.608H10.5V7.39zM.5 10c0 .903.12 1.777.344 2.609h19.312A10.01 10.01 0 0020.5 10H.5z" fill="#338AF3"/>
            <path d="M9.196 5.852l-1.222.575.65 1.183-1.326-.254-.168 1.34-.923-.986-.924.986-.168-1.34-1.326.254.65-1.183-1.221-.575 1.221-.574-.65-1.183 1.326.254.168-1.34.924.985.923-.985.168 1.34 1.327-.254-.65 1.183 1.22.574z" fill="#FFDA44"/>
        </g>
        <defs>
            <clipPath id="qiclip0">
                <path fill="#fff" transform="translate(.5)" d="M0 0h20v20H0z"/>
            </clipPath>
        </defs>
    </svg>