<svg width="25" height="24" fill="none" viewBox="-2 -2 25 24" id="uzs" y="244" xmlns="http://www.w3.org/2000/svg">
        <g clip-path="url(#qjclip0)">
            <path d="M.972 6.957A9.99 9.99 0 00.5 10c0 1.061.166 2.084.472 3.043l9.528.435 9.528-.435c.306-.96.472-1.982.472-3.043a9.993 9.993 0 00-.472-3.044L10.5 6.522l-9.528.435z" fill="#F0F0F0"/>
            <path d="M20.028 6.956L10.5 6.522l-9.528.434a9.98 9.98 0 00-.234.87h19.524a9.96 9.96 0 00-.234-.87zM.738 12.174c.065.295.144.585.234.87l9.528.434 9.528-.435c.09-.284.169-.574.234-.87H.738z" fill="#D80027"/>
            <path d="M10.5 20c4.461 0 8.24-2.922 9.528-6.957H.972C2.26 17.078 6.038 20 10.5 20z" fill="#6DA544"/>
            <path d="M10.5 0C6.04 0 2.26 2.922.972 6.957h19.056C18.74 2.922 14.962 0 10.5 0z" fill="#338AF3"/>
            <path d="M5.07 4.13c0-.936.658-1.718 1.537-1.91a1.957 1.957 0 100 3.822A1.957 1.957 0 015.07 4.13zM7.763 5.02l.133.407h.428l-.346.252.132.408-.347-.252-.346.252.132-.408-.347-.252h.429l.132-.407zM9.131 5.02l.133.407h.428l-.346.252.132.408-.347-.252-.346.252.132-.408-.347-.252H9l.132-.407zM10.5 5.02l.132.407h.428l-.346.252.132.408-.347-.252-.347.252.133-.408-.347-.252h.429l.132-.407zM11.867 5.02l.133.407h.428l-.346.252.132.408-.347-.252-.347.252.133-.408-.347-.252h.429l.132-.407zM13.235 5.02l.133.407h.428l-.346.252.132.408-.347-.252-.346.252.132-.408-.347-.252h.429l.132-.407zM9.131 3.597l.133.408h.428l-.346.252.132.407-.347-.252-.346.252.132-.407-.347-.252H9l.132-.408zM10.5 3.597l.132.408h.428l-.346.252.132.407-.347-.252-.347.252.133-.407-.347-.252h.429l.132-.408zM11.867 3.597l.133.408h.428l-.346.252.132.407-.347-.252-.347.252.133-.407-.347-.252h.429l.132-.408zM13.235 3.597l.133.408h.428l-.346.252.132.407-.347-.252-.346.252.132-.407-.347-.252h.429l.132-.408zM10.5 2.174l.132.408h.428l-.346.252.132.407-.347-.252-.347.252.133-.407-.347-.252h.429l.132-.408zM11.867 2.174l.133.408h.428l-.346.252.132.407-.347-.252-.347.252.133-.407-.347-.252h.429l.132-.408zM13.235 2.174l.133.408h.428l-.346.252.132.407-.347-.252-.346.252.132-.407-.347-.252h.429l.132-.408z" fill="#F0F0F0"/>
        </g>
        <defs>
            <clipPath id="qjclip0">
                <path fill="#fff" transform="translate(.5)" d="M0 0h20v20H0z"/>
            </clipPath>
        </defs>
    </svg>