<svg width="24" height="24" fill="none" viewBox="-2 -2 24 24" id="vibe" x="432" y="484" xmlns="http://www.w3.org/2000/svg">
        <path d="M10 20c5.523 0 10-4.477 10-10S15.523 0 10 0 0 4.477 0 10s4.477 10 10 10z" fill="#000"/>
        <path d="M14.144 10.574c.456.122.906.264 1.311.514.18.11.348.24.5.386.225.25.21.514.005.778-.18.23-.425.377-.686.5-.66.318-1.36.5-2.075.607-.58.087-1.17.137-1.756.21a.213.213 0 00-.135.093c-.41.612-.815 1.224-1.225 1.835-.033.04-.063.084-.09.128-.433-.65-.861-1.303-1.286-1.958a.207.207 0 00-.175-.103c-1.17-.083-2.325-.235-3.43-.63-.35-.123-.686-.275-.976-.505-.015-.015-.035-.025-.05-.04-.425-.356-.435-.738-.025-1.106.325-.294.725-.46 1.14-.587.415-.128.835-.22 1.256-.328.02-.005.04-.005.075-.015-.906-1.385-1.8-2.755-2.716-4.146.055-.005.095-.01.13-.01.565-.005 1.13 0 1.695-.005a.204.204 0 01.195.113c1.369 2.088 2.737 4.176 4.102 6.266.02.035.044.067.07.098.315-.475.62-.93.92-1.386 1.1-1.662 2.2-3.323 3.301-4.982.04-.06.07-.104.16-.104.595.005 1.191.005 1.786.005.028 0 .056.002.085.005-.929 1.402-1.86 2.802-2.791 4.2.235.059.46.108.685.167zM5.56 11.749c.117.13.253.24.405.327.625.333 1.316.455 2.031.563-.01-.034-.01-.049-.014-.058-.406-.613-.806-1.23-1.211-1.841a.145.145 0 00-.125-.04c-.238.079-.47.172-.696.28-.146.08-.276.186-.385.313a.323.323 0 00-.005.455zm7.878.528a1.67 1.67 0 00.725-.411c.2-.2.2-.426 0-.632a.765.765 0 00-.17-.137c-.215-.108-.44-.21-.66-.318-.075-.039-.12-.01-.165.06-.235.362-.475.718-.715 1.076-.15.225-.3.455-.455.69.04.005.08.005.12 0 .44-.107.885-.206 1.32-.328zm.005-6.652l-3.426 5.457-3.471-5.457h6.897z" fill="#fff"/>
    </svg>