<svg width="24" height="24" fill="none" viewBox="-2 -2 24 24" id="vidt" x="456" y="484" xmlns="http://www.w3.org/2000/svg">
        <path d="M10 20c5.523 0 10-4.477 10-10S15.523 0 10 0 0 4.477 0 10s4.477 10 10 10z" fill="#56C0CD"/>
        <path fill-rule="evenodd" clip-rule="evenodd" d="M6.227 2.828c.62 0 1.123.503 1.123 1.123v10.182l1.797-1.007V6.548a1.123 1.123 0 011.687-.971l6.345 3.682a1.123 1.123 0 01-.015 1.95L6.775 17.03a1.123 1.123 0 01-1.671-.98V3.951c0-.62.502-1.123 1.123-1.123zm5.166 9.04l2.955-1.655-2.955-1.715v3.37z" fill="#fff"/>
    </svg>