<svg width="24" height="24" fill="none" viewBox="-2 -2 24 24" id="vra" x="480" y="484" xmlns="http://www.w3.org/2000/svg">
        <path fill-rule="evenodd" clip-rule="evenodd" d="M18.493 10.034c0 4.846-3.887 8.789-8.665 8.789-4.78 0-8.667-3.943-8.667-8.789s3.888-8.789 8.667-8.789c4.778 0 8.665 3.943 8.665 8.79zm1.23-.034c0-5.514-4.425-10-9.862-10S0 4.486 0 10s4.424 10 9.86 10c5.438 0 9.862-4.486 9.862-10z" fill="url(#qppaint0_linear_2102_2287)"/>
        <path d="M10.28 7.861a.088.088 0 01-.08.053H4.14a.088.088 0 01-.08-.053l-.317-.718a.09.09 0 01.08-.126h.705a.045.045 0 00.04-.063l-.392-.885a.09.09 0 01.08-.126h3.34c.034 0 .066.02.08.052l.43.97a.089.089 0 00.08.052h2.334a.09.09 0 01.08.126l-.32.718z" fill="url(#qppaint1_linear_2102_2287)"/>
        <path d="M9.689 9.204a.088.088 0 01-.081.053H4.735a.088.088 0 01-.08-.053l-.317-.715a.09.09 0 01.08-.126h5.506a.09.09 0 01.081.126l-.316.715z" fill="url(#qppaint2_linear_2102_2287)"/>
        <path d="M15.898 7.018c.065 0 .106.066.083.127l-.318.715a.087.087 0 01-.083.051h-.798c-.032 0-.065.024-.078.057l-.147.327a.045.045 0 00-.004.022c.001.008.003.015.008.022a.046.046 0 00.038.021h.704c.064 0 .106.07.083.127l-.318.72a.095.095 0 01-.083.051h-.797a.087.087 0 00-.084.052l-2.457 5.541a.07.07 0 01-.07.047h-1.111l-2.315-.004a.088.088 0 01-.083-.052L5.965 10.1a.087.087 0 01.078-.126h3.344c.032 0 .064.018.078.051l.397.894 2.18-4.925a.095.095 0 01.084-.051h3.339a.087.087 0 01.078.126l-.391.883a.046.046 0 00.002.045.045.045 0 00.039.021h.705z" fill="url(#qppaint3_linear_2102_2287)"/>
        <defs>
            <linearGradient id="qppaint0_linear_2102_2287" x1="3.125" y1="2.708" x2="15.833" y2="18.333" gradientUnits="userSpaceOnUse">
                <stop stop-color="#F45E10"/>
                <stop offset=".29" stop-color="#ED4423"/>
                <stop offset=".649" stop-color="#C60D4E"/>
                <stop offset="1" stop-color="#8B106B"/>
            </linearGradient>
            <linearGradient id="qppaint1_linear_2102_2287" x1="3.125" y1="2.708" x2="15.833" y2="18.333" gradientUnits="userSpaceOnUse">
                <stop stop-color="#F45E10"/>
                <stop offset=".29" stop-color="#ED4423"/>
                <stop offset=".649" stop-color="#C60D4E"/>
                <stop offset="1" stop-color="#8B106B"/>
            </linearGradient>
            <linearGradient id="qppaint2_linear_2102_2287" x1="3.125" y1="2.708" x2="15.833" y2="18.333" gradientUnits="userSpaceOnUse">
                <stop stop-color="#F45E10"/>
                <stop offset=".29" stop-color="#ED4423"/>
                <stop offset=".649" stop-color="#C60D4E"/>
                <stop offset="1" stop-color="#8B106B"/>
            </linearGradient>
            <linearGradient id="qppaint3_linear_2102_2287" x1="3.125" y1="2.708" x2="15.833" y2="18.333" gradientUnits="userSpaceOnUse">
                <stop stop-color="#F45E10"/>
                <stop offset=".29" stop-color="#ED4423"/>
                <stop offset=".649" stop-color="#C60D4E"/>
                <stop offset="1" stop-color="#8B106B"/>
            </linearGradient>
        </defs>
    </svg>