<svg width="24" height="24" fill="none" viewBox="-2 -2 24 24" id="wabi" x="518" xmlns="http://www.w3.org/2000/svg">
        <path fill-rule="evenodd" clip-rule="evenodd" d="M10 2.56c-4.102 0-7.44 3.338-7.44 7.44 0 4.103 3.338 7.44 7.44 7.44s7.44-3.337 7.44-7.44c0-4.102-3.338-7.44-7.44-7.44zM10 20C4.486 20 0 15.514 0 10S4.486 0 10 0s10 4.486 10 10-4.486 10-10 10z" fill="#FF5847"/>
        <path fill-rule="evenodd" clip-rule="evenodd" d="M7.783 10L10 12.215l2.217-2.217L10 7.783 7.783 9.999zM10 15.305a1.28 1.28 0 01-.905-.375l-4.027-4.026c-.5-.5-.5-1.311 0-1.81l4.027-4.028c.5-.5 1.31-.5 1.81 0l4.027 4.027c.5.5.5 1.31 0 1.81l-4.027 4.027a1.28 1.28 0 01-.905.375z" fill="#FF5847"/>
    </svg>