<svg width="24" height="24" fill="none" viewBox="-2 -2 24 24" id="waxp" x="518" y="72" xmlns="http://www.w3.org/2000/svg">
        <path d="M19.692 12.42c-1.317 5.382-6.76 8.615-12.107 7.28A9.974 9.974 0 01.301 7.58C1.618 2.198 7.062-1.035 12.41.301c5.385 1.297 8.64 6.756 7.283 12.119z" fill="#F68E20"/>
        <path d="M7.37 8.182l-.908 2.476-.91-2.476H4.064l-.909 2.495-.909-2.495H1.007l1.335 3.636h1.624l.852-2.34.831 2.34h1.625l1.315-3.636H7.371zM17.448 9.652l1.76-1.47h-1.78l-.889.735.909.735z" fill="#fff"/>
        <path d="M13.521 7.021h-1.798L15.263 10l-1.123.928-2.32-2.746h-1.51l-4.023 4.797h1.51l3.268-3.907.948 1.121h-1.238l-.619.755h2.495l.716.87h1.508l1.277-1.064 1.277 1.064h1.78L13.52 7.021z" fill="#fff"/>
    </svg>