<svg width="24" height="25" fill="none" viewBox="-2 -2 24 25" id="wbtc" x="228" y="100" xmlns="http://www.w3.org/2000/svg">
        <circle cx="10" cy="10" r="10" transform="rotate(90 10 10)" fill="#fff"/>
        <path fill-rule="evenodd" clip-rule="evenodd" d="M16.293 4.257l-.548.55a7.787 7.787 0 010 10.492l.548.55a8.572 8.572 0 000-11.604v.012zM4.77 4.305a7.743 7.743 0 0110.468 0l.548-.55a8.523 8.523 0 00-11.577 0l.56.55zM4.258 15.304a7.787 7.787 0 010-10.486l-.548-.55a8.572 8.572 0 000 11.604l.548-.568zM15.232 15.811a7.743 7.743 0 01-10.468 0l-.548.55a8.523 8.523 0 0011.577 0l-.56-.55z" fill="#2C253A"/>
        <path fill-rule="evenodd" clip-rule="evenodd" d="M9.998.84C4.921.843.807 4.97.81 10.06c.003 5.09 4.122 9.212 9.199 9.21 5.074-.004 9.186-4.126 9.188-9.212C19.191 4.97 15.075.848 9.998.845V.84zm0 19.22c-5.51 0-9.976-4.479-9.975-10.002C.024 4.535 4.492.06 10.002.06c5.508.001 9.974 4.477 9.975 9.998-.006 5.522-4.47 9.996-9.979 10.002z" fill="#2C253A"/>
        <path fill-rule="evenodd" clip-rule="evenodd" d="M11.66 8.662c0 1.098-1.713.964-2.257.964V7.691c.544 0 2.257-.172 2.257.97zm.448 3.003c0 1.201-2.053 1.064-2.707 1.064v-2.13c.654.001 2.707-.187 2.707 1.066zm1.351-3.437c-.11-1.146-1.096-1.53-2.343-1.648V5h-.964v1.55c-.254 0-.513 0-.771.008V5.001h-.959v1.588H6.468v1.035s.712-.013.701 0c.267-.03.51.158.548.424V12.4a.342.342 0 01-.362.321h-.003c.013.01-.701 0-.701 0l-.192 1.155h1.947v1.614h.964V13.9h.77v1.583h.967v-1.596c1.629-.099 2.765-.502 2.907-2.03.115-1.23-.462-1.78-1.384-2 .56-.286.913-.79.83-1.628z" fill="#EBAA60"/>
    </svg>