<svg width="25" height="25" fill="none" viewBox="-2 -2 25 25" id="weth" x="277" xmlns="http://www.w3.org/2000/svg">
        <path d="M18.434 9.205a8.537 8.537 0 11-17.075 0 8.537 8.537 0 0117.075 0z" fill="#DC3C7A"/>
        <path fill-rule="evenodd" clip-rule="evenodd" d="M9.896 16.742a7.537 7.537 0 100-15.075 7.537 7.537 0 000 15.075zm0 1a8.537 8.537 0 100-17.075 8.537 8.537 0 000 17.075z" fill="#000"/>
        <path fill-rule="evenodd" clip-rule="evenodd" d="M2.043 9.092l1.31 1.31c.048-.365.12-.723.213-1.072L1.702 7.466l.707-.707 1.515 1.515a8.54 8.54 0 0116.429 3.264 8.538 8.538 0 01-9.642 8.466 20.673 20.673 0 01-2.44.059c-2.596-.088-4.774-.645-5.75-1.413-.356-.279-.552-.586-.552-.908 0-.721.986-1.367 2.534-1.794a8.493 8.493 0 01-1.223-4.205L1.335 9.8l.708-.707zm3.494 6.618a18.926 18.926 0 013.451-.3c3.877 0 7.02 1.044 7.02 2.332l-.003.063A7.538 7.538 0 105.537 15.71z" fill="#000"/>
        <path d="M19.403 11.537a7.588 7.588 0 11-15.175 0 7.588 7.588 0 0115.175 0z" fill="#fff"/>
        <path d="M19.403 11.537a7.588 7.588 0 11-15.175 0 7.588 7.588 0 0115.175 0z" fill="#fff"/>
        <path d="M19.403 11.537a7.588 7.588 0 11-15.175 0 7.588 7.588 0 0115.175 0z" fill="#fff"/>
        <path d="M7.676 13.488H6.598L5.94 9.924h1.112l.242 2.084h.025l.257-2.084h.982l.276 2.084h.015l.237-2.084h1.062l-.67 3.564H8.4l-.357-1.983h-.015l-.352 1.983zM10.428 9.924h1.903v.962h-.861v.357h.78v.89h-.78v.378h.926v.977h-1.968V9.924zM14.222 13.488h-1.077V10.85h-.63v-.926h2.336v.926h-.629v2.638zM16.683 12.124H16.2v1.364h-1.087V9.924H16.2v1.218h.483V9.924h1.087v3.564h-1.087v-1.364z" fill="#000"/>
    </svg>