<svg width="24" height="24" fill="none" viewBox="-2 -2 24 24" id="wise" x="518" y="96" xmlns="http://www.w3.org/2000/svg">
        <path d="M20 10a10 10 0 11-20 0 10 10 0 0120 0z" fill="#151A3A"/>
        <path d="M4.949 7.655a5.311 5.311 0 01.382.012c.109.007.217.017.326.03l-.007.01c.246.028.49.072.73.132l.007-.009A5.981 5.981 0 0110 10.44a5.976 5.976 0 013.61-2.61.226.226 0 00.008.009 5.536 5.536 0 01.73-.132l-.008-.01a5.658 5.658 0 01.712-.042c.836 0 1.516-.68 1.516-1.517V4.944h-.597v1.194a.92.92 0 01-.92.92 5.77 5.77 0 00-.427.014 6.45 6.45 0 00-.732.088l-.111.021a6.476 6.476 0 00-.645.16A6.572 6.572 0 0010 9.427a6.574 6.574 0 00-3.138-2.083 6.614 6.614 0 00-1.913-.285.921.921 0 01-.92-.92V4.944h-.597v1.194c0 .836.68 1.517 1.517 1.517" fill="#fff"/>
        <path d="M15.052 9.496a4.07 4.07 0 00-.524.033 4.728 4.728 0 01-4.529 6.063A4.728 4.728 0 015.47 9.53a4.156 4.156 0 00-.341-.028h-.005a3.597 3.597 0 00-.175-.005c-.051 0-.101 0-.151-.003-.117.44-.18.901-.18 1.377a5.387 5.387 0 005.38 5.38A5.386 5.386 0 0015.2 9.493l-.148.003M8.922 6.271a4.698 4.698 0 012.154 0c.184-.1.37-.191.562-.277l.117-.052h.002l.201-.083a5.35 5.35 0 00-1.96-.37c-.69 0-1.351.132-1.958.37a8.195 8.195 0 01.882.412z" fill="#fff"/>
        <path d="M17.165 6.138a2.116 2.116 0 01-2.113 2.114 4.292 4.292 0 00-.348.011 5.218 5.218 0 00-.709.093l-.012.002A5.39 5.39 0 0010 11.784a5.38 5.38 0 00-5.051-3.532 2.116 2.116 0 01-2.114-2.114h-.658A2.774 2.774 0 004.988 8.91a4.629 4.629 0 01.689.057 4.72 4.72 0 013.994 4.644V13.632h.658v-.02a4.728 4.728 0 013.991-4.646 4.636 4.636 0 01.69-.056h.042a2.774 2.774 0 002.77-2.772h-.657z" fill="#F3BA2F"/>
        <path d="M4.949 6.46a6.27 6.27 0 01.458.015A7.176 7.176 0 019.74 8.297c.088.08.175.162.26.245a7.163 7.163 0 012.562-1.637 7.063 7.063 0 011.054-.3l.053-.01a7.086 7.086 0 011.382-.134.323.323 0 00.322-.323V3.75h-.597v2.119l-.066.002a7.596 7.596 0 00-2 .353A7.767 7.767 0 0010 7.73a7.77 7.77 0 00-4.778-1.862V3.75h-.597v2.387c0 .179.145.324.323.324M7.544 10.43a4.126 4.126 0 00-.605-.41 1.163 1.163 0 101.629 1.65 4.105 4.105 0 00-.402-.61.508.508 0 11-.622-.63zM12.32 11.425a.506.506 0 01-.487-.365 4.046 4.046 0 00-.402.61c.213.252.532.413.888.413a1.166 1.166 0 00.74-2.063 4.105 4.105 0 00-.604.41.508.508 0 01-.136.995z" fill="#fff"/>
    </svg>