<svg width="24" height="24" fill="none" viewBox="-2 -2 24 24" id="world" x="518" y="120" xmlns="http://www.w3.org/2000/svg">
        <circle cx="10" cy="10" r="10" fill="url(#qypaint0_linear)"/>
        <path fill-rule="evenodd" clip-rule="evenodd" d="M7.382 2.703a7.704 7.704 0 00-.94.409L3.11 6.444a7.706 7.706 0 00-.41.94l4.682-4.681zM2.25 9.835c.004-.19.014-.377.032-.563L9.27 2.284c.185-.018.373-.028.562-.032L2.25 9.835zm.165 1.772a7.711 7.711 0 01-.081-.45l8.822-8.821c.151.022.3.05.45.08l-9.191 9.191zm.487 1.513a7.734 7.734 0 01-.154-.376l9.994-9.994c.127.048.252.1.376.154L2.902 13.12zm.637 1.164a7.63 7.63 0 01-.13-.202l10.672-10.67a7.8 7.8 0 01.32.21L3.638 14.383l-.099-.1zm.991 1.208a7.777 7.777 0 01-.26-.271L15.22 4.273c.092.084.182.17.27.259L4.53 15.492zm1.057.88a7.857 7.857 0 01-.307-.223L16.147 5.282c.077.1.152.203.224.307L5.587 16.373zm1.28.72a7.693 7.693 0 01-.36-.17L16.92 6.51c.06.118.117.238.17.36L6.869 17.092zm1.359.454a7.626 7.626 0 01-.42-.11l9.628-9.628c.04.138.077.278.11.42l-9.318 9.318zm1.796.204h-.024a7.83 7.83 0 01-.49-.015l8.225-8.226c.01.162.015.326.015.49v.025l-7.726 7.726zm2.57-.445a7.735 7.735 0 01-.756.226l5.693-5.693c-.063.257-.138.51-.226.756l-4.711 4.711z" fill="url(#qypaint1_linear)"/>
        <path fill-rule="evenodd" clip-rule="evenodd" d="M8.616 2.53c-.242.05-.48.112-.714.185L4.685 5.932c.19-.022.383-.038.577-.047l3.354-3.354zm8.205 11.079a7.631 7.631 0 01-2.556 2.746c.015-.078.03-.156.043-.234l2.513-2.512zm.903-3.029c-.016.204-.04.405-.072.603l-3.22 3.219a8.803 8.803 0 00-.026-.504l3.318-3.318zm-.087-1.913c.027.154.049.309.066.465l-3.496 3.496a8.77 8.77 0 00-.11-.421l3.54-3.54zm-.391-1.42c.05.128.095.259.138.391l-3.62 3.62a8.803 8.803 0 00-.163-.367l3.645-3.645zm-.67-1.332c.07.109.136.22.2.332l-3.697 3.696a8.916 8.916 0 00-.212-.318l3.71-3.71zm-.84-1.096c.084.092.167.186.247.282l-3.735 3.736a8.805 8.805 0 00-.255-.276l3.742-3.742zm-1.054-.947c.101.075.2.153.298.233l-3.75 3.75a8.839 8.839 0 00-.298-.233l3.75-3.75zm-1.246-.753c.118.057.235.116.35.18l-3.739 3.739a8.696 8.696 0 00-.343-.188l3.732-3.731zm-1.473-.527c.14.034.279.072.416.114L8.683 6.402a8.684 8.684 0 00-.397-.134l3.677-3.676zm-1.722-.217c.171.002.34.01.508.023L7.15 5.997a8.75 8.75 0 00-.465-.066l3.556-3.556z" fill="url(#qypaint2_linear)"/>
        <defs>
            <linearGradient id="qypaint0_linear" x1="1.906" y1="15.438" x2="18.906" y2="3.563" gradientUnits="userSpaceOnUse">
                <stop stop-color="#6DC1FF"/>
                <stop offset="1" stop-color="#6671FE"/>
            </linearGradient>
            <linearGradient id="qypaint1_linear" x1="5.906" y1="17.75" x2="13.25" y2="7.281" gradientUnits="userSpaceOnUse">
                <stop stop-color="#fff"/>
                <stop offset="1" stop-color="#fff" stop-opacity="0"/>
            </linearGradient>
            <linearGradient id="qypaint2_linear" x1="10.5" y1="8.313" x2="15.688" y2="3.469" gradientUnits="userSpaceOnUse">
                <stop stop-color="#fff"/>
                <stop offset="1" stop-color="#fff" stop-opacity="0"/>
            </linearGradient>
        </defs>
    </svg>