<svg width="24" height="24" fill="none" viewBox="-2 -2 24 24" id="wtc" x="518" y="144" xmlns="http://www.w3.org/2000/svg">
        <path d="M5.397 12.06L.635 13.487.477 4.44l4.761-1.11.16 8.73z" fill="#8400FD"/>
        <path d="M.952 13.805c-.206 0-.396-.064-.571-.175A.826.826 0 010 12.947V4.726c0-.397.302-.73.714-.825l3.89-.873c.3-.064.618-.016.872.159a.885.885 0 01.397.73V11.9c0 .397-.302.762-.73.873l-3.92 1c-.096.016-.175.032-.27.032zm3.477-9.81a.54.54 0 00-.16.016l-3.015.762a.629.629 0 00-.476.603v7.143c0 .19.095.38.254.492.158.111.349.159.54.095l3.047-.873a.681.681 0 00.492-.65V4.661a.67.67 0 00-.254-.524.768.768 0 00-.428-.143z" fill="#fff"/>
        <path d="M8.73 15.075l-4.762 1.428-.158-9.047L8.57 6.345l.16 8.73z" fill="#02FFDB"/>
        <path d="M4.397 16.646a.95.95 0 01-.54-.174.822.822 0 01-.365-.667V7.853c0-.381.286-.715.683-.794l3.682-.841c.286-.064.588 0 .826.158a.859.859 0 01.365.699v7.73c0 .397-.286.746-.699.841l-3.714.968c-.08.016-.159.032-.238.032zm3.365-9.793c-.048 0-.111 0-.159.015l-3.016.762a.629.629 0 00-.476.604v7.142c0 .19.095.381.254.492.159.112.35.16.54.096l3.047-.873a.68.68 0 00.493-.651V7.52a.67.67 0 00-.254-.525.768.768 0 00-.429-.142z" fill="#fff"/>
        <path d="M12.38 12.217L7.62 13.646 7.46 4.598l4.762-1.11.159 8.73z" fill="#8400FD"/>
        <path d="M8.047 13.805a.95.95 0 01-.54-.175.822.822 0 01-.364-.666V4.98c0-.381.285-.715.682-.794l3.667-.841c.285-.064.587 0 .825.158a.859.859 0 01.365.699v7.746c0 .397-.286.746-.698.841l-3.699.968a.636.636 0 01-.238.048zm3.365-9.81a.54.54 0 00-.158.016l-3.032.762a.629.629 0 00-.476.603v7.143c0 .19.095.381.254.492a.63.63 0 00.555.096l3.032-.873a.68.68 0 00.492-.651v-6.92a.67.67 0 00-.667-.668z" fill="#fff"/>
        <path d="M16.032 15.075l-4.762 1.428-.159-9.047 4.762-1.111.159 8.73z" fill="#02FFDB"/>
        <path d="M11.587 16.661c-.206 0-.397-.063-.571-.175a.826.826 0 01-.381-.682V7.582c0-.397.301-.73.714-.826l3.889-.873c.302-.063.619-.016.873.159a.88.88 0 01.397.714v7.984c0 .397-.302.762-.73.873l-3.921 1a.808.808 0 01-.27.048zm3.476-9.81c-.047 0-.11 0-.158.016l-3.016.762a.629.629 0 00-.476.604v7.142c0 .19.095.381.253.492.16.111.35.16.54.096l3.048-.873a.68.68 0 00.492-.651v-6.92a.67.67 0 00-.254-.525.768.768 0 00-.429-.142z" fill="#fff"/>
        <path d="M19.682 12.06l-4.762 1.428-.158-9.048 4.762-1.11.158 8.73z" fill="#8400FD"/>
        <path d="M15.08 13.805c-.207 0-.398-.064-.572-.175a.826.826 0 01-.381-.683V4.726c0-.397.301-.73.714-.825l3.89-.873c.3-.064.618-.016.872.159A.879.879 0 0120 3.9v7.984c0 .397-.302.762-.73.873l-3.92 1a.805.805 0 01-.27.048zm3.475-9.81a.54.54 0 00-.158.016l-3.016.762a.629.629 0 00-.476.603v7.143c0 .19.095.38.254.492.158.111.349.159.54.095l3.047-.873a.681.681 0 00.492-.65V4.661a.67.67 0 00-.254-.524.768.768 0 00-.429-.143z" fill="#fff"/>
    </svg>