<svg width="24" height="24" fill="none" viewBox="-2 -2 24 24" id="x2p" x="518" y="168" xmlns="http://www.w3.org/2000/svg">
        <circle cx="10" cy="10" r="10" fill="#fff"/>
        <path d="M10.087 20h-.155c-.023 0-.046-.006-.074-.006-.338-.005-.67-.028-1.003-.063a9.016 9.016 0 01-1.1-.189 9.78 9.78 0 01-2.178-.778 10.096 10.096 0 01-4.315-4.105 9.762 9.762 0 01-.819-1.918 9.476 9.476 0 01-.332-1.477 9.895 9.895 0 01-.063-2.479 10.13 10.13 0 01.476-2.204A9.773 9.773 0 011.658 4.48 10.089 10.089 0 016.093.793C6.958.426 7.863.186 8.798.072c.31-.035.619-.058.928-.07a10.34 10.34 0 012.601.27c.636.154 1.255.366 1.851.641a9.996 9.996 0 014.601 4.3c.287.52.522 1.059.711 1.625.16.487.287.98.373 1.483.051.298.091.596.108.893.012.178.017.36.023.538 0 .023.006.046.006.075v.355c0 .023-.006.046-.006.069 0 .332-.028.664-.069.99a9.98 9.98 0 01-.636 2.479 9.828 9.828 0 01-1.466 2.507c-.39.487-.82.933-1.29 1.34-.538.464-1.117.864-1.742 1.208a9.65 9.65 0 01-1.616.704c-.48.16-.968.286-1.466.372a7.62 7.62 0 01-.946.115c-.206.017-.412.017-.624.028-.012 0-.035 0-.052.006zM4.46 5.762c.453 1.242.905 2.479 1.358 3.71h8.395c.44-1.231.882-2.456 1.323-3.681v-.006s0-.006-.005-.006h-2.436c-.223.779-.452 1.557-.676 2.336H7.652c-.327-.819-.66-1.637-.992-2.462-.733.035-1.46.069-2.2.11zm8.635 8.433h2.447c-.447-1.23-.888-2.462-1.335-3.693H5.818l-1.358 3.71c.74.034 1.473.069 2.2.109.333-.825.66-1.643.992-2.462h4.767c.224.779.453 1.557.676 2.336zm-2.641 2.341c.011-.085.005-3.183-.006-3.217h-.9v3.217h.906zm-.9-13.07c-.011.086-.006 3.178.006 3.218.097.011.86.006.9-.006V3.466h-.906z" fill="#000"/>
    </svg>