<svg width="24" height="24" fill="none" viewBox="-2 -2 24 24" id="xem" x="518" y="336" xmlns="http://www.w3.org/2000/svg">
        <path d="M2.005 4.158a15.682 15.682 0 013.386-1.462 16.075 16.075 0 014.932-.672c.782.017 2.084.143 2.303.227.008.017-.009.025-.026.025-.075.034-.16.059-.235.092A4.438 4.438 0 009.71 5.645a5.39 5.39 0 00-.075.731c-.009.37-.043.74-.152 1.1a3.756 3.756 0 01-2.756 2.622 3.744 3.744 0 01-4.234-2.067 1.194 1.194 0 01-.093-.277 15.693 15.693 0 01-.285-1.647 15.03 15.03 0 01-.118-1.84.48.48 0 00.008-.109z" fill="#F7A800"/>
        <path d="M14.399 14.224c.016-.16.033-.303.042-.454a4.407 4.407 0 00-.53-2.352 4.398 4.398 0 00-1.588-1.672c-.059-.042-.126-.076-.185-.118-.932-.588-1.504-1.42-1.705-2.504a3.716 3.716 0 012.79-4.293 3.706 3.706 0 012.007.067c.546.168 1.067.395 1.588.638.362.169.706.353 1.05.547.043.025.076.042.127.075 0 .034.008.059.008.093 0 .445-.025.899-.059 1.344a15.725 15.725 0 01-2.495 7.234c-.294.454-.614.89-.95 1.31-.033.026-.05.06-.1.085z" fill="#67B2E8"/>
        <path d="M10.004 17.98c-.126-.051-.512-.286-.924-.564a16.026 16.026 0 01-2.537-2.109 15.6 15.6 0 01-2.05-2.587 15.167 15.167 0 01-1.387-2.731c-.008-.025-.017-.042-.025-.084l.084.05c.294.227.605.42.941.563a4.473 4.473 0 004.025-.218 3.96 3.96 0 011.403-.47 3.737 3.737 0 014.05 2.638c.277.932.193 1.84-.236 2.722-.059.117-.109.227-.168.336a.58.58 0 01-.134.185c-.89.84-1.865 1.58-2.924 2.201-.042.025-.084.05-.118.067z" fill="#00C4B3"/>
    </svg>