<svg width="25" height="24" fill="none" viewBox="-2 -2 25 24" id="xio" x="277" y="25" xmlns="http://www.w3.org/2000/svg">
        <path d="M10.145 20c5.522 0 10-4.477 10-10s-4.478-10-10-10c-5.523 0-10 4.477-10 10s4.477 10 10 10z" fill="#1A1A1A"/>
        <path fill-rule="evenodd" clip-rule="evenodd" d="M10.145 18.5a8.5 8.5 0 100-17 8.5 8.5 0 000 17zm10-8.5c0 5.523-4.478 10-10 10-5.523 0-10-4.477-10-10s4.477-10 10-10c5.522 0 10 4.477 10 10z" fill="#BE6C6A"/>
        <path d="M8.478 5.752H5.725L8.768 10l-3.043 4.248h2.753l1.667-2.327 1.666 2.327h2.753L11.521 10l3.043-4.248h-2.753L10.145 8.08 8.478 5.752z" fill="#fff"/>
    </svg>