<svg width="24" height="24" fill="none" viewBox="-2 -2 24 24" id="xlm" x="518" y="360" xmlns="http://www.w3.org/2000/svg">
        <circle cx="10" cy="10" r="10" fill="#fff"/>
        <path d="M5.011 10.68a5.348 5.348 0 01.625-3.267A5.13 5.13 0 017.46 5.51a4.913 4.913 0 012.495-.715 4.908 4.908 0 012.509.661l1.152-.607a5.982 5.982 0 00-6.41-.52 6.24 6.24 0 00-2.453 2.346 6.527 6.527 0 00-.888 3.81 1.19 1.19 0 01-.14.654c-.109.199-.271.36-.468.464l-.529.279v1.3l14.546-7.665v-1.3L5.01 10.68zM17.273 6.82L5.79 12.865l-3.064 1.616v1.299l12.265-6.463a5.35 5.35 0 01-.625 3.275 5.129 5.129 0 01-1.825 1.903c-.758.459-1.62.705-2.498.713a4.907 4.907 0 01-2.511-.665l-.062.034-1.086.572a5.982 5.982 0 006.41.52 6.24 6.24 0 002.452-2.343 6.526 6.526 0 00.89-3.813 1.19 1.19 0 01.14-.654c.107-.2.27-.361.466-.465l.53-.279V6.82z" fill="#000"/>
    </svg>