<svg width="24" height="24" fill="none" viewBox="-2 -2 24 24" id="xrpbsc" x="518" y="456" xmlns="http://www.w3.org/2000/svg">
        <circle cx="10" cy="10" r="10" fill="#000"/>
        <path d="M5.424 15.733h-1.79l1.232-1.282c.9-.938 1.79-1.889 2.706-2.812 1.301-1.31 3.352-1.37 4.755-.16.116.1.225.207.331.318 1.24 1.293 2.479 2.587 3.756 3.921H14.81c-.706-.651-1.35-1.227-1.971-1.825-.433-.417-.822-.88-1.253-1.297-.912-.882-2.316-.84-3.21.084-.918.95-1.833 1.906-2.75 2.86-.068.07-.14.135-.202.193zM3.894 4.804l3.56 3.72c1.447 1.513 3.737 1.492 5.193-.04 1.1-1.156 2.21-2.303 3.314-3.455.123-.128.238-.263.397-.44H14.74c-.624.566-1.14 1.008-1.625 1.481-.485.473-.936.98-1.41 1.465-1.002 1.026-2.41 1.004-3.392-.033-.924-.976-1.862-1.94-2.797-2.911h-1.81c.091.103.137.16.188.213z" fill="#fff"/>
    </svg>