<svg width="24" height="24" fill="none" viewBox="-2 -2 24 24" id="xtz" x="518" y="480" xmlns="http://www.w3.org/2000/svg">
        <g clip-path="url(#roclip0)">
            <circle cx="10" cy="10" r="10" fill="#2C7DF7"/>
            <path d="M11.037 16.657c-.95 0-1.643-.23-2.08-.687a2.12 2.12 0 01-.653-1.479.981.981 0 01.114-.489.846.846 0 01.312-.312 1.089 1.089 0 01.972 0c.13.074.236.182.31.312.082.15.123.318.118.489a.934.934 0 01-.166.572.776.776 0 01-.395.29c.156.198.377.336.624.388.276.08.563.122.85.123.382.003.755-.108 1.072-.32.329-.232.574-.564.699-.947a4.11 4.11 0 00.229-1.416 3.886 3.886 0 00-.25-1.473 1.818 1.818 0 00-.722-.915c-.31-.197-.672-.3-1.04-.298-.32.027-.63.132-.9.306l-.669.335V10.8l3.002-4.027h-4.16v4.179c-.012.301.068.6.229.855a.789.789 0 00.699.335c.25-.006.492-.09.69-.244.225-.164.42-.365.579-.595a.207.207 0 01.075-.1.154.154 0 01.1-.037c.072.007.14.036.196.083.07.078.107.179.106.283-.008.07-.02.14-.038.208a2.014 2.014 0 01-.713.886 1.77 1.77 0 01-1.001.304c-.901 0-1.525-.177-1.872-.532a1.995 1.995 0 01-.516-1.457V6.774H4.722v-.776h2.126v-1.77L6.36 3.74v-.397h1.412l.53.275v2.38L13.8 5.98l.547.549-3.37 3.386c.204-.081.418-.133.636-.154.433.02.855.14 1.232.352.437.208.805.536 1.061.947.23.347.392.735.479 1.142.071.321.11.649.114.978a4.09 4.09 0 01-.416 1.812 2.657 2.657 0 01-1.248 1.248 4.039 4.039 0 01-1.798.416z" fill="#fff"/>
        </g>
        <defs>
            <clipPath id="roclip0">
                <path fill="#fff" d="M0 0h20v20H0z"/>
            </clipPath>
        </defs>
    </svg>