<svg width="24" height="24" fill="none" viewBox="-2 -2 24 24" id="xvs" x="24" y="508" xmlns="http://www.w3.org/2000/svg">
        <path d="M10 20c5.523 0 10-4.477 10-10S15.523 0 10 0 0 4.477 0 10s4.477 10 10 10z" fill="url(#rqpaint0_linear)"/>
        <path d="M15.103 10.555H4.897a.62.62 0 00-.617.617.619.619 0 00.617.618h2.564L9.2 16.378a.62.62 0 00.609.398.62.62 0 00.609-.398l1.737-4.588h2.95a.62.62 0 00.617-.618.62.62 0 00-.618-.617zM9.808 14.5L8.78 11.79h2.053L9.808 14.5zm-4.91-5.097h10.205a.619.619 0 00.436-1.053.62.62 0 00-.436-.182h-1.578l1.273-3.36a.62.62 0 00-.359-.796.62.62 0 00-.796.359l-1.438 3.797H7.41L5.972 4.371a.62.62 0 00-.796-.359.62.62 0 00-.359.796l1.273 3.36H4.897a.62.62 0 00-.617.618.62.62 0 00.617.617z" fill="#fff"/>
        <defs>
            <linearGradient id="rqpaint0_linear" x1="2.104" y1="16.289" x2="17.677" y2="3.886" gradientUnits="userSpaceOnUse">
                <stop stop-color="#F8B342"/>
                <stop offset="1" stop-color="#F2C35E"/>
            </linearGradient>
        </defs>
    </svg>