<svg width="24" height="24" fill="none" viewBox="-2 -2 24 24" id="yfi" x="72" y="508" xmlns="http://www.w3.org/2000/svg">
        <circle cx="10" cy="10" r="10" fill="url(#rtpaint0_linear)"/>
        <path d="M9.528 4.994h1.137v10.207H9.528V4.993z" fill="#fff"/>
        <path d="M11.146 10.1v1.57c.157.132.31.27.458.414.65.636 1.048 1.283 1.048 1.954a2.723 2.723 0 11-5.16-1.218l.34 1.71 1.216-.24-.71-3.58-3.474.916.316 1.199 1.08-.285a3.963 3.963 0 107.632 1.498c0-1.176-.691-2.126-1.421-2.84-.42-.41-.894-.781-1.325-1.098zM8.829 9.879l.027-1.57a8.2 8.2 0 01-.451-.422c-.64-.647-1.026-1.3-1.015-1.971a2.723 2.723 0 115.138 1.306l-.31-1.716-1.22.22.649 3.592 3.49-.857-.296-1.204-1.085.266a3.963 3.963 0 10-7.605-1.629c-.02 1.176.654 2.138 1.372 2.864.413.418.88.796 1.306 1.12z" fill="#fff"/>
        <defs>
            <linearGradient id="rtpaint0_linear" x1="6.12" y1="0" x2="17.138" y2="20" gradientUnits="userSpaceOnUse">
                <stop stop-color="#2B76F1"/>
                <stop offset="1" stop-color="#2561B6"/>
            </linearGradient>
        </defs>
    </svg>