<svg width="24" height="24" fill="none" viewBox="-2 -2 24 24" id="yfii" x="96" y="508" xmlns="http://www.w3.org/2000/svg">
        <circle cx="10" cy="10" r="10" transform="rotate(90 10 10)" fill="url(#rupaint0_linear)"/>
        <path d="M15.006 9.528v1.137H4.799V9.528h10.207z" fill="#fff"/>
        <path d="M9.9 11.146H8.33c-.132.157-.27.31-.414.458-.636.65-1.283 1.048-1.954 1.048a2.723 2.723 0 111.218-5.16l-1.71.34.24 1.216 3.58-.71-.916-3.474-1.199.316.285 1.08a3.963 3.963 0 10-1.498 7.632c1.176 0 2.126-.691 2.84-1.421.41-.42.78-.894 1.098-1.325zM10.121 8.829l1.57.027c.135-.155.275-.306.422-.451.647-.64 1.3-1.026 1.971-1.015a2.723 2.723 0 11-1.306 5.138l1.716-.31-.22-1.22-3.592.649.857 3.49 1.204-.296-.266-1.085a3.963 3.963 0 101.629-7.605c-1.176-.02-2.138.654-2.864 1.372-.418.413-.796.88-1.12 1.306z" fill="#fff"/>
        <defs>
            <linearGradient id="rupaint0_linear" x1="6.12" y1="0" x2="17.5" y2="15" gradientUnits="userSpaceOnUse">
                <stop stop-color="#EA447D"/>
                <stop offset="1" stop-color="#C33C6E"/>
            </linearGradient>
        </defs>
    </svg>