<svg width="24" height="24" fill="none" viewBox="-2 -2 24 24" id="yfl" x="120" y="508" xmlns="http://www.w3.org/2000/svg">
        <g clip-path="url(#rvclip0)">
            <path d="M10 20c5.523 0 10-4.477 10-10S15.523 0 10 0 0 4.477 0 10s4.477 10 10 10z" fill="#2A5BDB"/>
            <path d="M12.514 5.515l.958-.335 1.062 3.123L11.466 9.4l-.351-1.001 1.11-.41-2.223-1.084-2.327 1.235.01 1.429-1.552.55V7.25l3.869-2.126L12.859 6.6l-.345-1.085zM7.486 14.485l-.958.337-1.061-3.125 3.064-1.095.352 1-1.11.41 2.223 1.085 2.329-1.236-.011-1.429 1.55-.548v2.867l-3.868 2.125L7.14 13.4l.345 1.085z" fill="#fff"/>
        </g>
        <defs>
            <clipPath id="rvclip0">
                <path fill="#fff" d="M0 0h20v20H0z"/>
            </clipPath>
        </defs>
    </svg>