<svg width="24" height="24" fill="none" viewBox="-2 -2 24 24" id="yo" x="144" y="508" xmlns="http://www.w3.org/2000/svg">
        <path d="M9.237 14.126l.711.585.72-.585c.396-.321.746-.584.777-.584.032 0 .058.697.058 1.55v1.55l-.767.689c-.422.38-.81.69-.864.69-.053 0-.43-.347-.839-.77l-.743-.77v-.767c.002-.89.11-2.172.185-2.172.028 0 .371.263.762.584z" fill="url(#rwpaint0_linear_2079:2326)"/>
        <path d="M10.803 11.308c.74.627.803.712.798 1.067-.004.351-.073.44-.77 1.008-.42.342-.809.637-.863.656-.055.018-.455-.282-.889-.667-.68-.604-.789-.747-.789-1.041 0-.298.103-.429.803-1.023.442-.374.827-.68.855-.68.029 0 .413.306.855.68z" fill="url(#rwpaint1_linear_2079:2326)"/>
        <path d="M10.754 7.38l.754.702-.028 1.573-.03 1.573-.755-.613-.755-.613-.747.62-.747.62-.03-1.58-.028-1.58.754-.703c.415-.386.778-.702.806-.702.029 0 .391.316.806.702z" fill="url(#rwpaint2_linear_2079:2326)"/>
        <path d="M17.037 7.734l-.198.235.234-.199c.128-.109.233-.214.233-.234 0-.083-.084-.022-.27.198z" fill="url(#rwpaint3_linear_2079:2326)"/>
        <path fill-rule="evenodd" clip-rule="evenodd" d="M12.872 2.679l2.666 2.678-.718.74-2.306-2.32c-1.48-1.49-2.38-2.319-2.514-2.319-.134 0-1.033.83-2.514 2.32L5.18 6.096l-.718-.74L7.127 2.68C8.831.967 9.867 0 10 0c.132 0 1.17.967 2.873 2.679zM2.536 7.292L1.268 8.569C.57 9.272 0 9.915 0 10 0 10.244 9.755 20 10 20c.25 0 10-9.758 10-10.008 0-.087-.585-.74-1.3-1.45L17.402 7.25l-.733.718.94.935c.518.515.941 1.005.941 1.09 0 .248-8.301 8.548-8.549 8.548-.247 0-8.55-8.3-8.55-8.547 0-.086.412-.567.914-1.07l.913-.913-.741-.72zm14.303.677l.198-.235c.185-.22.269-.281.269-.198 0 .02-.105.125-.233.234l-.234.199z" fill="url(#rwpaint4_linear_2079:2326)"/>
        <path fill-rule="evenodd" clip-rule="evenodd" d="M7.486 3.777L5.18 6.097l1.048 1.04c.577.572 1.135 1.228 1.242 1.457.177.38.194.715.196 3.776.001 1.848-.033 3.36-.077 3.36-.043 0-.838-.766-1.767-1.7l-1.689-1.7.369-.55c.31-.463.368-.64.368-1.117 0-.721-.261-1.246-1.017-2.043l-.576-.607-.913.913c-.503.502-.913.983-.913 1.069 0 .247 8.301 8.547 8.549 8.547.247 0 8.55-8.3 8.55-8.547 0-.086-.424-.576-.942-1.09l-.94-.936-.572.625c-.61.668-1.068 1.495-1.07 1.937 0 .414.202.94.522 1.353l.29.375-1.753 1.76-1.754 1.76v-3.414c0-2.69.031-3.484.145-3.748.08-.185.64-.827 1.244-1.428l1.1-1.093-2.306-2.319c-1.48-1.49-2.38-2.319-2.514-2.319-.134 0-1.033.83-2.514 2.32zm4.022 4.305l-.754-.703c-.415-.386-.777-.702-.806-.702-.028 0-.391.316-.806.702l-.754.703.029 1.58.028 1.58.748-.62.747-.62.755.613.756.613.028-1.573.03-1.573zm.093 4.293c.005-.355-.058-.44-.798-1.067-.442-.374-.826-.68-.855-.68-.028 0-.413.306-.855.68-.7.594-.803.725-.803 1.023 0 .295.108.437.789 1.041.434.385.834.685.888.667.055-.019.444-.314.865-.656.696-.567.765-.657.77-1.008zM9.948 14.71l-.711-.585c-.391-.321-.734-.584-.762-.584-.075 0-.183 1.283-.184 2.172v.767l.742.77c.409.423.786.77.84.77.053 0 .441-.31.863-.69l.766-.69v-1.55c0-.852-.025-1.55-.057-1.55-.031 0-.381.264-.777.585l-.72.585z" fill="#6484EA"/>
        <path fill-rule="evenodd" clip-rule="evenodd" d="M10 1.458V6.71c.118.091.42.357.754.67l.754.702-.029 1.573-.028 1.573-.756-.613-.695-.564v.607c.123.087.444.346.803.65.74.627.803.712.798 1.067-.004.351-.073.44-.77 1.008-.37.302-.717.568-.831.638v.648l.668-.543c.396-.321.746-.584.777-.584.032 0 .057.697.057 1.55v1.55l-.766.689c-.297.267-.578.5-.736.614v.597c.247 0 8.55-8.3 8.55-8.547 0-.086-.424-.576-.942-1.09l-.94-.936-.572.625c-.61.668-1.068 1.495-1.07 1.937 0 .414.202.94.522 1.353l.29.375-1.753 1.76-1.754 1.76v-3.414c0-2.69.031-3.484.145-3.748.08-.185.64-.827 1.244-1.428l1.1-1.093-2.306-2.319c-1.48-1.49-2.38-2.319-2.514-2.319z" fill="#5475CC"/>
        <path d="M1.295 6.042l1.24 1.25.742.72.576.608c.756.797 1.017 1.322 1.017 2.043 0 .476-.058.653-.368 1.116l-.369.55 1.689 1.7c.929.935 1.724 1.7 1.767 1.7.044 0 .078-1.511.077-3.36-.002-3.06-.02-3.396-.196-3.775-.107-.23-.665-.885-1.242-1.457L5.18 6.097l-.718-.74-.294-.282-.293-.283H.055l1.24 1.25zM15.832 5.074l-.294.283-.718.74-1.1 1.092c-.605.6-1.164 1.243-1.244 1.427-.114.265-.145 1.058-.145 3.75v3.413l1.754-1.76 1.753-1.76-.29-.375c-.32-.414-.523-.939-.521-1.353.002-.442.458-1.27 1.07-1.937l.57-.625.734-.718 1.22-1.23 1.22-1.23h-3.716l-.293.283z" fill="#FCCB4C"/>
        <path d="M1.551 6.146l1.24 1.25.741.72.577.609c.756.796 1.017 1.32 1.017 2.042 0 .476-.058.654-.368 1.117l-.369.55 1.689 1.7c.929.934 1.724 1.7 1.767 1.7.044 0 .078-1.512.077-3.36-.002-3.06-.02-3.396-.196-3.776-.107-.23-.666-.885-1.242-1.457l-1.048-1.04-.718-.74-.294-.282-.294-.283H.31l1.241 1.25z" fill="url(#rwpaint5_linear_2079:2326)"/>
        <path d="M18.392 6.146l-1.24 1.25-.742.72-.576.609c-.756.796-1.018 1.32-1.018 2.042 0 .476.059.654.369 1.117l.368.55-1.688 1.7c-.929.934-1.724 1.7-1.768 1.7-.043 0-.077-1.512-.076-3.36.002-3.06.02-3.396.196-3.776.106-.23.665-.885 1.242-1.457l1.048-1.04.718-.74.293-.282.294-.283h3.82l-1.24 1.25z" fill="url(#rwpaint6_linear_2079:2326)"/>
        <path d="M1.295 6.042l1.24 1.25.742.72.576.608c.756.797 1.017 1.322 1.017 2.043 0 .476-.058.653-.368 1.116l-.369.55 1.689 1.7c.929.935 1.724 1.7 1.767 1.7.044 0 .078-1.511.077-3.36-.002-3.06-.02-3.396-.196-3.775-.107-.23-.665-.885-1.242-1.457L5.18 6.097l-.718-.74-.294-.282-.293-.283H.055l1.24 1.25z" fill="url(#rwpaint7_linear_2079:2326)"/>
        <path d="M15.832 5.074l-.294.283-.718.74-1.1 1.092c-.605.6-1.164 1.243-1.244 1.427-.114.265-.145 1.058-.145 3.75v3.413l1.754-1.76 1.753-1.76-.29-.375c-.32-.414-.523-.939-.521-1.353.002-.442.458-1.27 1.07-1.937l.57-.625.734-.718 1.22-1.23 1.22-1.23h-3.716l-.293.283z" fill="url(#rwpaint8_linear_2079:2326)"/>
        <path d="M9.237 14.126l.711.585.72-.585c.396-.321.746-.584.777-.584.032 0 .057.697.057 1.55v1.55l-.766.689c-.422.38-.81.69-.864.69-.053 0-.43-.347-.84-.77l-.742-.77v-.767c.002-.89.11-2.172.185-2.172.028 0 .371.263.762.584z" fill="#F3C467"/>
        <path d="M10.803 11.308c.74.627.803.712.798 1.067-.004.351-.073.44-.77 1.008-.42.342-.809.637-.864.656-.054.018-.454-.282-.888-.667-.68-.604-.789-.747-.789-1.041 0-.298.103-.429.803-1.023.442-.374.827-.68.855-.68.029 0 .413.306.855.68z" fill="#F3C467"/>
        <path d="M10.754 7.38l.754.702-.029 1.573-.028 1.573-.756-.613-.755-.613-.747.62-.748.62-.028-1.58-.029-1.58.754-.703c.415-.386.778-.702.806-.702.029 0 .391.316.806.702z" fill="#F3C467"/>
        <path fill-rule="evenodd" clip-rule="evenodd" d="M10.668 14.126l-.72.585-.076 3.31c.053 0 .442-.31.864-.69l.766-.69v-1.55c0-.852-.025-1.55-.057-1.55-.031 0-.381.264-.777.585z" fill="url(#rwpaint9_linear_2079:2326)"/>
        <path fill-rule="evenodd" clip-rule="evenodd" d="M11.601 12.375c.005-.355-.058-.44-.798-1.067-.442-.374-.826-.68-.855-.68l.02 3.41c.054-.018.443-.313.864-.655.696-.567.765-.657.77-1.008z" fill="url(#rwpaint10_linear_2079:2326)"/>
        <path fill-rule="evenodd" clip-rule="evenodd" d="M11.508 8.082l-.754-.703c-.415-.386-.777-.702-.806-.702l-.008 3.325.755.613.756.613.028-1.573.03-1.573z" fill="url(#rwpaint11_linear_2079:2326)"/>
        <path d="M11.595 12.494c-.025.262-.153.392-.763.889-.42.342-.81.637-.864.656-.055.018-.455-.282-.889-.667-.68-.604-.789-.747-.789-1.041 0 .49.123 1.011.185 1.21.028 0 .371.264.762.585l.711.585.72-.585c.396-.321.746-.584.777-.584.045-.251.128-.761.15-1.048zM11.45 11.228l-.755-.613-.755-.613-.747.62-.747.62c-.058.306-.17.953-.156 1.089 0-.298.103-.429.803-1.023.442-.374.827-.68.855-.68.029 0 .413.306.855.68.627.532.768.673.793.92a7.868 7.868 0 00-.145-1z" fill="#6FCFF0"/>
        <defs>
            <linearGradient id="rwpaint0_linear_2079:2326" x1="10" y1="0" x2="10" y2="20" gradientUnits="userSpaceOnUse">
                <stop stop-color="#FEC93F"/>
                <stop offset="1" stop-color="#FBBA3E"/>
            </linearGradient>
            <linearGradient id="rwpaint1_linear_2079:2326" x1="10" y1="0" x2="10" y2="20" gradientUnits="userSpaceOnUse">
                <stop stop-color="#FEC93F"/>
                <stop offset="1" stop-color="#FBBA3E"/>
            </linearGradient>
            <linearGradient id="rwpaint2_linear_2079:2326" x1="10" y1="0" x2="10" y2="20" gradientUnits="userSpaceOnUse">
                <stop stop-color="#FEC93F"/>
                <stop offset="1" stop-color="#FBBA3E"/>
            </linearGradient>
            <linearGradient id="rwpaint3_linear_2079:2326" x1="10" y1="0" x2="10" y2="20" gradientUnits="userSpaceOnUse">
                <stop stop-color="#FEC93F"/>
                <stop offset="1" stop-color="#FBBA3E"/>
            </linearGradient>
            <linearGradient id="rwpaint4_linear_2079:2326" x1="10" y1="0" x2="10" y2="20" gradientUnits="userSpaceOnUse">
                <stop stop-color="#FEC93F"/>
                <stop offset="1" stop-color="#FBBA3E"/>
            </linearGradient>
            <linearGradient id="rwpaint5_linear_2079:2326" x1="4.116" y1="4.896" x2="7.754" y2="15.718" gradientUnits="userSpaceOnUse">
                <stop stop-color="#45B2ED"/>
                <stop offset="1" stop-color="#94E9F2"/>
            </linearGradient>
            <linearGradient id="rwpaint6_linear_2079:2326" x1="15.826" y1="4.896" x2="12.189" y2="15.718" gradientUnits="userSpaceOnUse">
                <stop stop-color="#45B2ED"/>
                <stop offset="1" stop-color="#94E9F2"/>
            </linearGradient>
            <linearGradient id="rwpaint7_linear_2079:2326" x1="9.948" y1="4.792" x2="9.948" y2="16.771" gradientUnits="userSpaceOnUse">
                <stop stop-color="#DF9526"/>
                <stop offset="1" stop-color="#FCCB4D"/>
            </linearGradient>
            <linearGradient id="rwpaint8_linear_2079:2326" x1="9.948" y1="4.792" x2="9.948" y2="16.771" gradientUnits="userSpaceOnUse">
                <stop stop-color="#DF9526"/>
                <stop offset="1" stop-color="#FCCB4D"/>
            </linearGradient>
            <linearGradient id="rwpaint9_linear_2079:2326" x1="9.946" y1="6.677" x2="9.946" y2="18.021" gradientUnits="userSpaceOnUse">
                <stop stop-color="#E09B2F"/>
                <stop offset="1" stop-color="#FBCA56"/>
            </linearGradient>
            <linearGradient id="rwpaint10_linear_2079:2326" x1="9.946" y1="6.677" x2="9.946" y2="18.021" gradientUnits="userSpaceOnUse">
                <stop stop-color="#E09B2F"/>
                <stop offset="1" stop-color="#FBCA56"/>
            </linearGradient>
            <linearGradient id="rwpaint11_linear_2079:2326" x1="9.946" y1="6.677" x2="9.946" y2="18.021" gradientUnits="userSpaceOnUse">
                <stop stop-color="#E09B2F"/>
                <stop offset="1" stop-color="#FBCA56"/>
            </linearGradient>
        </defs>
    </svg>