<svg width="25" height="24" fill="none" viewBox="-2 -2 25 24" id="zar" x="277" y="73" xmlns="http://www.w3.org/2000/svg">
        <g clip-path="url(#ryclip0)">
            <path d="M10.882 20c5.523 0 10-4.477 10-10s-4.477-10-10-10-10 4.477-10 10 4.477 10 10 10z" fill="#F0F0F0"/>
            <path d="M3.811 17.071c-3.905-3.905-3.905-10.237 0-14.142L9.578 10l-5.767 7.071z" fill="#000"/>
            <path d="M9.578 10l-7.37-4.98c-.228.397-.43.812-.602 1.24L5.336 10l-3.73 3.74c.173.428.374.842.602 1.24L9.578 10z" fill="#FFDA44"/>
            <path d="M20.798 8.696H9.578L3.81 2.929A10.039 10.039 0 002.21 5.02L7.179 10l-4.97 4.98c.44.766.98 1.47 1.602 2.09l5.767-5.766h11.22a10.095 10.095 0 000-2.608z" fill="#6DA544"/>
            <path d="M4.794 17.933A9.955 9.955 0 0010.882 20c4.62 0 8.508-3.134 9.656-7.391h-10.42l-5.324 5.324z" fill="#0052B4"/>
            <path d="M20.538 7.391C19.39 3.134 15.503 0 10.882 0a9.956 9.956 0 00-6.088 2.067l5.324 5.324h10.42z" fill="#D80027"/>
        </g>
        <defs>
            <clipPath id="ryclip0">
                <path fill="#fff" transform="translate(.882)" d="M0 0h20v20H0z"/>
            </clipPath>
        </defs>
    </svg>