<svg width="24" height="24" fill="none" viewBox="-2 -2 24 24" id="zinu" x="240" y="508" xmlns="http://www.w3.org/2000/svg">
        <path fill-rule="evenodd" clip-rule="evenodd" d="M12.144 2.798c1.844.387 3.503 1.58 4.305 3.096.362.683.992 3.072.992 3.758 0 .214-.14.42-.46.678-.895.719-1.676 2.338-1.505 3.117.066.303.026.348-.538.59-1.46.628-2.288.763-4.759.773-2.037.008-2.45-.023-3.379-.259-2.565-.651-4.235-2.055-4.239-3.562 0-.143.05-.292.112-.33.061-.038.107-.38.102-.759-.01-.77.138-1.313.625-2.288.323-.645.708-1.107.708-.849 0 .07.107.16.238.201.179.057.238.18.238.496 0 1.231 1.25 2.075 2.535 1.712.567-.16.9-.4 1.208-.87.117-.18.27-.326.339-.326.246 0 .561-.399.561-.71 0-.208-.147-.453-.436-.725l-.436-.41.257.43c.632 1.058.178 1.262-1.421.64-.625-.244-1.434-.465-1.833-.501-1.141-.104-1.271-.32-.518-.866.349-.253.631-.358.96-.358.28 0 .436-.047.391-.119-.04-.065-.19-.12-.334-.123-.247-.004-.242-.02.08-.283 1.135-.929 4.072-2.324 4.897-2.326.262-.001.851.077 1.31.173zm2.408 2.557c-.218-.001-.234-.023-.087-.123.226-.153 1.045-.038 1.404.197.558.365.573 1.16.03 1.5-.172.107-.243.278-.243.582 0 .979-1.102 1.847-2.192 1.727-.655-.072-1.438-.526-1.558-.902-.042-.135-.26-.322-.485-.415-.34-.142-.408-.232-.408-.538 0-.42.28-.905.63-1.092.226-.121.225-.108-.025.243-.16.223-.249.5-.226.698.033.293.081.325.454.305.23-.013.91-.214 1.513-.447.723-.279 1.297-.423 1.682-.423.666 0 .918-.2.807-.64-.075-.3-.785-.668-1.296-.672zM8.436 9.181c.089-.074.37-.213.625-.31.616-.234 1.763-.175 2.368.122.423.207.474.278.458.63-.024.5-.398.907-1.07 1.164-.755.288-.694.556.166.739.376.08.943.278 1.258.44.677.35.977.372 1.143.088.113-.195.122-.195.125-.005.005.277-.421.486-.861.42-.247-.035-.432.018-.582.168-.375.375-.656.283-.74-.243-.088-.553-.203-.608-1.267-.608-.925 0-1.19.16-1.19.722 0 .27-.053.35-.237.35-.131 0-.336-.098-.455-.218-.156-.156-.34-.202-.656-.165-.435.05-.794-.117-.794-.37 0-.084.05-.08.143.014.214.214.499.175 1.115-.153a5.653 5.653 0 011.257-.44c.872-.18.965-.484.217-.709-.85-.254-1.478-1.259-1.023-1.636z" fill="#FFB031"/>
        <path d="M3.25 10.536c-.333.047-.655.337-.774.476.218 1.508 2.048 4.428 7.62 4.047 5.57.381 7.4-2.54 7.618-4.047-.119-.139-.44-.429-.774-.476-.416-.06-1.904.476-2.262.476-2.262 0-3.333-3.036-4.583-3.036s-2.321 3.036-4.583 3.036c-.357 0-1.845-.536-2.262-.476z" fill="#fff"/>
        <path d="M16.405 5.595c-2.977-2.619-6.508-2.639-7.739-2.38.14-.2.804-.775 2.381-.775 3.512 0 5.47 3.255 5.358 3.155z" fill="#FFD35E"/>
        <path d="M3.07 10.833c-.381-1.19.158-2.678.476-3.273-.456.496-1.298 1.928-1.012 3.69.286 1.762 1.944 2.639 2.738 2.857.853.357 3 1.06 4.762 1.012 2.202-.06 5.537-.178 7.68-3.274.165-.238-.398-.694-1.847.536-.734.595-2.928 1.738-5.833 1.548-3.155 0-6.488-1.608-6.964-3.096z" fill="#B7A7A7"/>
        <path fill-rule="evenodd" clip-rule="evenodd" d="M3.498 7.56c-.433.47-1.213 1.786-1.046 3.426.099-.108.29-.278.51-.377-.255-1.147.239-2.491.536-3.05z" fill="#B87420"/>
        <path d="M4.578 2.08c.325.169.84.847.84 1.108 0 .068-.392.419-.87.778-.477.36-.94.74-1.026.844-.255.307-.367.222-.367-.28 0-.793.238-1.637.605-2.143.192-.265.378-.482.414-.482.035 0 .217.079.404.175zM16.476 2.382c.391.54.66 1.76.546 2.474-.175 1.091-.15 1.073-.59.418-.221-.327-.726-.888-1.123-1.247l-.721-.653.347-.549c.3-.473.816-.9 1.106-.916.05-.002.245.21.435.473z" fill="#fff"/>
        <path d="M5.09 3.512c-.239-1-1.012-1.21-1.37-1.19-.099-.12-.13-.405.536-.596.667-.19 1.23.913 1.429 1.488-.1.516-.357 1.298-.595.298zM15.03 3.474c.238-1 1.012-1.21 1.37-1.19.098-.12.13-.405-.537-.596-.666-.19-1.23.913-1.428 1.489.099.515.357 1.297.595.297z" fill="#B7A6A6"/>
        <path d="M4.917.381c.079.079.143.263.143.41 0 .362.14.421.604.26.385-.135.404-.125 1.025.542.348.374.633.748.633.831 0 .083-.306.248-.68.366-.56.176-.689.185-.73.051-.098-.311-1.072-1.151-1.427-1.23-.212-.046-.453-.018-.592.069-.66.412-1.193 2.008-1.062 3.175.04.358-.002.719-.12 1.015-.26.65-.385.364-.387-.89C2.319 2.328 3.227.239 4.386.239c.213 0 .453.064.531.143zM16.592.541c.199.167.496.59.661.939.684 1.444.915 4.919.32 4.804-.163-.032-.193-.25-.2-1.464-.01-1.568-.217-2.28-.854-2.945-.352-.368-.606-.405-1.087-.157-.342.177-1.136.992-1.224 1.256-.04.116-.205.1-.73-.072-.373-.123-.678-.258-.679-.3-.002-.16.799-1.226 1.077-1.433.237-.177.367-.196.695-.102.5.144.608.082.608-.35 0-.376.115-.456.675-.47.242-.005.508.1.738.294z" fill="#FFB031"/>
        <path d="M4.322.476c-.572 0-1.23.774-1.489 1.19V1.31l.298-.417.238-.298.179-.178.297-.179.298-.178H4.5l.595.119.12.297.119.476h.416l.417-.178.536.536.476.535.416.774c-.198.139-.583.333-.535 0 .047-.333-.853-1.25-1.31-1.667h-.417C5.234.794 4.893.476 4.322.476zM17.417 1.667c-.258-.417-.917-1.19-1.488-1.19-.572 0-.913.317-1.012.475H14.5c-.456.417-1.357 1.334-1.31 1.667.048.333-.337.139-.535 0l.417-.774.476-.535.536-.536.416.178h.417l.119-.476.119-.297.595-.12h.357l.298.18.297.178.18.178.237.298.298.417v.357z" fill="#FFD35E"/>
        <path fill-rule="evenodd" clip-rule="evenodd" d="M3.56.226c-.73.445-1.275 1.74-1.499 3.558-.154 1.256-.011 2.795.358 3.863.2.58.2.639-.012 1.449-.282 1.074-.223 2.43.135 3.131.341.668 1.227 1.42 2.25 1.91.475.227.863.433.863.456 0 .024-.103.273-.23.553-.126.28-.258.602-.294.717-.043.14-.185.208-.436.208-.564 0-1.183.665-1.18 1.268 0 .252.05.536.11.631.081.128.02.228-.236.384-.419.254-.55.693-.351 1.173l.147.356 6.918-.03 6.918-.032.154-.321c.207-.431.071-.906-.329-1.149-.39-.237-.345-.434.284-1.259.231-.302.476-.75.544-.994.136-.49.167-1.492.049-1.61-.041-.041-.292.11-.556.337-.449.383-1.544.89-1.927.89-.124 0-.656-.915-.656-1.129 0-.014.392-.22.871-.457 2.198-1.086 2.887-2.461 2.399-4.784-.245-1.16-.246-1.104.066-2.202.325-1.143.357-3.242.069-4.452-.399-1.675-1.198-2.693-2.11-2.69-.679.003-.907.114-.98.475-.062.313-.098.332-.526.274-.432-.058-.49-.025-1.025.57-.312.346-.64.77-.728.942-.159.306-.178.31-.915.21a19.102 19.102 0 01-1.484-.275c-.757-.178-1.298-.137-1.851.141-.492.247-.604.204-.966-.368C6.868 1.122 6.306.692 5.791.736 5.4.77 5.354.743 5.321.46c-.024-.207-.127-.34-.297-.386-.499-.133-1.097-.07-1.465.153zm1.357.155c.079.079.143.263.143.41 0 .361.14.421.604.26.385-.135.404-.125 1.025.542.348.374.633.748.633.831 0 .083-.306.248-.68.366-.56.176-.689.185-.73.051-.098-.311-1.072-1.151-1.427-1.23-.212-.046-.453-.018-.592.069-.66.412-1.193 2.007-1.062 3.175.04.358-.002.719-.12 1.015-.26.65-.385.364-.387-.89C2.319 2.328 3.227.239 4.386.239c.213 0 .453.064.531.143zm11.676.16c.198.167.495.59.66.939.684 1.444.915 4.919.32 4.804-.163-.032-.193-.25-.2-1.464-.01-1.568-.217-2.28-.854-2.945-.352-.368-.606-.405-1.087-.157-.342.177-1.136.992-1.224 1.256-.04.116-.205.1-.73-.072-.373-.123-.678-.258-.679-.3-.002-.16.799-1.226 1.077-1.433.237-.177.367-.196.695-.102.5.144.608.082.608-.35 0-.376.115-.456.675-.47.242-.005.509.1.739.294zM4.578 2.081c.325.168.84.846.84 1.107 0 .068-.392.419-.87.778-.477.36-.94.74-1.026.844-.255.307-.367.222-.367-.28 0-.793.238-1.637.605-2.143.192-.265.378-.482.414-.482.035 0 .218.079.404.175zm11.898.301c.392.54.66 1.76.546 2.474-.175 1.091-.15 1.073-.59.418-.221-.327-.726-.888-1.123-1.247l-.721-.653.347-.549c.3-.473.816-.9 1.106-.915.05-.003.245.21.435.472zm-7.92.693c-1.382.598-2.702 1.365-3.764 2.188l-.625.484.595-.62C5.954 3.884 8.371 2.499 9.346 2.5c.526.001.512.011-.79.574zm3.587-.277c1.845.387 3.504 1.58 4.306 3.096.361.683.992 3.072.992 3.758 0 .215-.14.42-.46.678-.895.719-1.677 2.338-1.505 3.117.066.304.025.348-.538.59-1.46.628-2.288.763-4.759.773-2.037.009-2.45-.023-3.379-.259-2.565-.651-4.235-2.055-4.24-3.562 0-.143.05-.292.112-.33.062-.038.108-.38.103-.759-.011-.77.137-1.313.625-2.288.323-.645.708-1.107.708-.849 0 .07.107.16.238.201.179.057.238.18.238.496 0 1.231 1.25 2.075 2.534 1.712.568-.16.9-.4 1.209-.87.117-.18.27-.326.339-.326.245 0 .56-.399.56-.71 0-.208-.146-.453-.435-.725l-.437-.41.258.43c.632 1.058.178 1.262-1.421.64-.625-.244-1.434-.465-1.833-.501-1.142-.104-1.271-.32-.518-.866.348-.252.63-.358.96-.358.28 0 .435-.047.391-.119-.04-.065-.19-.12-.334-.123-.247-.004-.243-.02.079-.283 1.136-.929 4.073-2.324 4.898-2.326.262-.001.851.077 1.31.173zm-5.955.869c-.588.38-1.435 1.058-1.884 1.507-.764.764-.8.786-.578.35.36-.707 1.453-1.667 2.427-2.134.476-.227.918-.414.984-.414.065 0-.362.311-.95.691zM3.474 5.459c-.389.594-.568.73-.313.236.129-.25.587-.814.66-.814.017 0-.14.26-.347.578zm10.99-.227c-.146.1-.13.122.088.123.51.004 1.22.372 1.296.672.11.44-.141.64-.807.64-.386 0-.959.144-1.682.423-.603.233-1.284.434-1.513.447-.373.02-.42-.012-.455-.305-.022-.198.068-.475.227-.698.25-.351.25-.364.024-.243-.35.187-.63.672-.63 1.092 0 .306.069.396.408.538.225.094.443.28.486.415.12.376.903.83 1.558.902 1.09.12 2.191-.748 2.191-1.727 0-.304.072-.474.243-.581.544-.34.529-1.136-.029-1.501-.36-.235-1.179-.35-1.404-.197zM6.989 7.523c.544.209 1.006.392 1.028.406.022.015-.048.16-.155.322-.271.415-.791.599-1.498.53-.912-.087-1.577-.844-1.355-1.542.065-.206.144-.23.534-.169.251.04.902.244 1.446.453zm8.23-.242c.103.392-.217 1.02-.657 1.287-.714.436-1.922.24-2.245-.365-.153-.286-.163-.271.304-.44l1.19-.431c1.038-.377 1.32-.388 1.409-.051zM9.061 8.87c-.255.097-.537.236-.625.31-.455.377.173 1.382 1.023 1.637.748.224.655.527-.218.707-.384.08-.95.278-1.256.44-.617.329-.901.368-1.115.154-.093-.093-.143-.098-.143-.014 0 .253.359.42.793.37.317-.037.5.01.657.165.119.12.324.217.455.217.183 0 .238-.08.238-.349 0-.562.264-.722 1.189-.722 1.064 0 1.179.055 1.267.608.084.526.365.618.74.243.15-.15.335-.203.582-.167.44.064.866-.144.86-.42-.003-.19-.011-.19-.124.004-.166.284-.466.261-1.143-.087a6.047 6.047 0 00-1.258-.44c-.86-.183-.921-.452-.167-.74.672-.257 1.047-.664 1.07-1.164.017-.352-.034-.423-.457-.63-.606-.297-1.752-.356-2.368-.122zm8.261 1.71c0 .058-.11.134-.245.17-.2.052-.22.033-.104-.106.157-.19.349-.224.349-.064zm-.2.548c-.284.2-.871.441-.871.359 0-.071.86-.524 1.008-.53.064-.003.002.074-.137.171zm-.752.835c-.468.346-.49.353-.406.134.034-.09.18-.22.323-.29.46-.221.498-.15.083.156zm-7.738.298c0 .251-.174.32-.298.119-.087-.14.026-.357.185-.357.062 0 .113.107.113.238zm3.273 0a.234.234 0 01-.148.208c-.09.03-.15-.055-.15-.208 0-.154.06-.238.15-.208a.234.234 0 01.148.208zm-1.785 2.893c2.316-.002 2.706-.03 3.37-.247l.75-.244.25.515.25.515-.316.377c-.416.494-.42 1.088-.011 1.677.29.418.296.46.129.86-.097.231-.15.447-.117.48.033.032 0 .17-.074.306-.12.225-.239.249-1.26.249-.62 0-1.126-.05-1.126-.11 0-.061.141-.222.313-.358.203-.159.25-.246.136-.246-.099 0-.32.11-.493.246-.266.21-.313.218-.313.054 0-.106.138-.33.306-.498.31-.31.648-.334 1.3-.091.231.086.23.08-.013-.198-.186-.211-.238-.397-.2-.704.029-.23-.002-.55-.068-.714l-.12-.298-.008.357c-.008.386-.404 1.131-.6 1.131-.066 0-.343.201-.614.447-.487.44-.51.446-1.47.446-.944 0-.994-.014-1.467-.416-.269-.23-.627-.524-.795-.655-.206-.161-.336-.412-.4-.774-.074-.43-.11-.486-.178-.283-.065.194-.277.3-.924.456-.462.113-.873.171-.913.131-.103-.103-.099-1.231.006-1.733.048-.229.19-.586.317-.793l.23-.377.752.247c.669.22 1.04.246 3.37.245zm7.383.143c-.034.163-.09.429-.122.59-.034.16-.196.438-.36.615l-.299.323-.325-.311c-.179-.171-.459-.362-.623-.425-.28-.107-.283-.119-.06-.194.566-.192 1.388-.595 1.507-.74.209-.25.349-.18.282.142zm-2.736 1.004c-.043.07-.135.127-.205.127-.079 0-.07-.069.024-.182.164-.197.31-.153.181.055zm-9.759 1.11c.006.89.057 1.196.268 1.601.143.276.26.53.26.566 0 .035-.402.064-.893.064-.941 0-1.065-.088-.695-.497.29-.321-.05-.286-.398.041l-.276.26v-.381c0-.499.395-.707.963-.509.467.163.616.078.197-.113-.615-.28-.772-1.343-.272-1.842.16-.16.415-.292.565-.292.265 0 .274.036.281 1.101zm11.047-.81c.243.225.315.404.315.789 0 .42-.07.563-.447.921-.262.249-.348.383-.208.325.742-.309 1.25-.114 1.25.479 0 .35-.13.37-.33.05-.082-.13-.228-.237-.326-.237-.233 0-.225.117.02.296.357.261.058.418-.8.418-.454 0-.826-.02-.826-.045 0-.024.116-.305.258-.625.197-.442.26-.827.268-1.621.01-.976.025-1.041.26-1.042.138 0 .392.13.566.291zm-1.352.124c-.082.098-.205.179-.275.179-.07 0-.024-.079.103-.175.299-.226.357-.227.172-.004zm.119.345c0 .025-.083.078-.185.117-.106.04-.154.02-.112-.046.07-.114.297-.168.297-.071zm-7.62.54c0 .061-.106.142-.237.179-.634.18-.731.163-.298-.05.562-.276.536-.27.536-.129zm.11.415c-.09.09-1.692.669-1.734.627-.056-.056.394-.284.97-.49.463-.165.865-.238.764-.137zm-.537.564c-.061.098-.003.112.201.047.747-.236 1.04-.216 1.351.095.167.168.305.391.305.497 0 .164-.048.156-.314-.054-.173-.135-.394-.246-.492-.246-.116 0-.068.087.135.246.172.136.313.297.313.357 0 .061-.502.11-1.116.11-.83 0-1.153-.043-1.26-.172-.226-.272-.035-.622.446-.822.546-.226.534-.225.43-.058z" fill="#3D0606"/>
        <path fill-rule="evenodd" clip-rule="evenodd" d="M13.49 14.908c-.664.216-1.054.245-3.37.247-2.332.001-2.702-.026-3.371-.245l-.752-.247-.23.377a3.023 3.023 0 00-.317.793c-.105.502-.109 1.63-.006 1.733.04.04.451-.018.913-.13.647-.158.86-.263.925-.457.068-.203.103-.147.178.283.063.362.193.613.4.774.167.13.525.425.795.654.472.403.522.417 1.465.417.961 0 .985-.007 1.47-.446.273-.246.549-.447.615-.447.196 0 .592-.745.6-1.13l.009-.358.12.298c.065.163.096.485.067.714-.038.307.015.493.2.704.244.277.244.284.014.198.327.182 1.027.527 1.21.447-.032-.032.02-.248.117-.479.167-.4.16-.442-.13-.86-.408-.59-.404-1.183.012-1.677l.317-.377-.25-.515-.25-.515-.751.244z" fill="#FFB031"/>
        <path d="M14.351 19.395c.074-.137.107-.275.074-.308-.183.08-.883-.265-1.21-.447-.653-.243-.99-.22-1.3.09-.17.169-.307.393-.307.5 0 .163.047.155.314-.055.172-.135.394-.246.492-.246.115 0 .067.087-.135.246-.173.136-.314.297-.314.357 0 .061.507.11 1.127.11 1.02 0 1.14-.023 1.26-.247z" fill="#fff"/>
        <path d="M11.59 18.66c-.486.44-.509.447-1.47.447-.943 0-.993-.014-1.466-.416.115.119.286.473.286.952 0 .119 1.647.198 2.5 0 .021-.238.08-.768.15-.982z" fill="#B87320"/>
        <path fill-rule="evenodd" clip-rule="evenodd" d="M10.036 18.929c1.413 0 2.56-1.04 2.56-2.322 0-.56-.22-1.073-.583-1.474-.454.02-1.082.026-2.036.027-.881 0-1.482-.003-1.925-.02-.36.4-.576.91-.576 1.467 0 1.282 1.146 2.322 2.56 2.322z" fill="#fff"/>
        <path d="M6.775 18.59c-.06.098-.003.112.201.047.747-.236 1.04-.216 1.351.095.168.168.305.392.305.497 0 .164-.047.156-.314-.054-.173-.135-.394-.246-.492-.246-.116 0-.068.087.135.246.172.136.313.297.313.357 0 .061-.502.11-1.116.11-.83 0-1.153-.043-1.26-.172-.225-.272-.035-.622.446-.822.546-.226.534-.225.43-.058z" fill="#fff"/>
        <path d="M15.584 13.87c.004.023.872-.265 1.598-1.197.247-.316.477-.707.651-1.185v-.297c-.35-.096-1.582.476-2.021.773-.071.167-.134.346-.183.536a3.025 3.025 0 00-.045 1.37z" fill="#B2533E"/>
        <path d="M16.079 11.429a5.15 5.15 0 00-.267.535c.438-.297 1.671-.869 2.021-.774v-.535c-.35-.095-1.315.476-1.754.774z" fill="#B2533E"/>
        <path d="M17.833 10c-.486.119-1.251.544-1.754 1.429.439-.298 1.404-.87 1.754-.774V10z" fill="#B2533E"/>
        <path d="M15.584 13.87c-.198-1.013.158-1.85.495-2.441m-.495 2.44c.004.024.872-.264 1.598-1.196m-1.598 1.196a3.025 3.025 0 01-.048-.818m2.297-1.563v-.833m0 .833a4.335 4.335 0 01-.65 1.185m.65-1.185v-.297m-1.754.238c.503-.885 1.267-1.31 1.754-1.429v.655m-1.754.774c.439-.298 1.404-.87 1.754-.774m-1.754.774a5.15 5.15 0 00-.267.535m2.021-1.31v.537m-2.021.773c.438-.297 1.671-.869 2.021-.774m-2.021.774c-.071.167-.134.346-.183.536m0 0c.439-.298 1.76-.869 2.11-.774m-2.11.774a3.221 3.221 0 00-.093.55m0 0c.44-.297 1.614-.943 1.964-.848m-1.965 1.31c.429-.29 1.281-.899 1.647-.839m.026.006a.256.256 0 00-.026-.006" stroke="#3D0606" stroke-width=".1"/>
        <path d="M14.696 17.796c.085.063.183.123.298.18.056.028.178-.218.236-.595l-.534.415z" fill="#B2533E"/>
        <path d="M14.696 17.796l.534-.415c.019-.126.03-.267.03-.417l-.838.562c.067.093.157.184.274.27z" fill="#B2533E"/>
        <path d="M14.422 17.526l.838-.562c0-.114-.008-.234-.024-.357l-.957.6a.844.844 0 00.143.319zM14.28 17.206l.956-.599a2.501 2.501 0 00-.064-.314l-.893.565a.873.873 0 000 .348z" fill="#B2533E"/>
        <path d="M14.994 15.833c-.28.208-.633.601-.715 1.025l.893-.565a2.301 2.301 0 00-.178-.46z" fill="#B2533E"/>
        <path d="M14.696 17.796c.085.063.183.123.298.18.056.028.178-.218.236-.595m-.534.415l.534-.415m-.534.415a1.237 1.237 0 01-.274-.27m.808-.145c.019-.126.03-.267.03-.417m-.838.562l.838-.562m-.838.562a.844.844 0 01-.143-.32m.981-.242c0-.114-.008-.234-.024-.357m-.957.6l.957-.6m-.957.6a.873.873 0 010-.35m.957-.25a2.501 2.501 0 00-.064-.314m-.893.565c.082-.424.435-.817.715-1.025.078.152.137.307.178.46m-.893.565l.893-.565" stroke="#3D0606" stroke-width=".1"/>
        <path fill-rule="evenodd" clip-rule="evenodd" d="M16.8 15.424a8.473 8.473 0 01-1.085.471c-.224.076-.22.088.06.195.163.063.443.254.622.425l.325.31.299-.322c.164-.177.326-.454.36-.615l.01-.055-.59-.409z" fill="#FFB031"/>
        <path d="M17.392 15.833l.11-.535c.067-.322-.073-.393-.281-.142-.048.058-.209.158-.42.268l.59.41z" fill="#fff"/>
        <path fill-rule="evenodd" clip-rule="evenodd" d="M16.37 17.391c0-.385-.072-.564-.315-.79-.174-.16-.428-.291-.566-.291-.235 0-.25.066-.26 1.042-.008.794-.071 1.179-.268 1.622.206-.028.588-.236.754-.337-.14.058-.054-.076.208-.325.377-.358.447-.5.447-.921zM5.268 18.997c-.204-.397-.254-.707-.26-1.586-.007-1.066-.016-1.1-.28-1.1-.151-.001-.405.13-.566.29-.5.5-.343 1.563.272 1.843.252.114.745.404.834.553z" fill="#FFB031"/>
        <path d="M16.965 19.116c0-.593-.508-.788-1.25-.48-.165.102-.548.31-.754.337-.142.32-.258.601-.258.625 0 .025.372.045.826.045.858 0 1.157-.157.8-.418-.245-.179-.253-.297-.02-.297.098 0 .245.108.326.239.2.32.33.3.33-.051zM5.536 19.578c0-.035-.117-.29-.26-.565a2.308 2.308 0 01-.008-.016c-.09-.149-.582-.439-.834-.553.419.19.27.276-.197.113-.568-.198-.963.01-.963.509v.38l.276-.259c.348-.327.688-.362.398-.04-.37.408-.246.496.695.496.492 0 .893-.03.893-.065z" fill="#fff"/>
        <path d="M7.312 18.026c-.09.09-1.693.669-1.735.627-.056-.056.395-.284.97-.49.463-.165.865-.238.765-.137z" fill="url(#scpaint0_linear_2156_3176)"/>
        <path d="M7.203 17.611c0 .061-.107.142-.238.179-.634.18-.732.163-.298-.05.562-.276.536-.27.536-.129z" fill="url(#scpaint1_linear_2156_3176)"/>
        <path d="M6.988 7.523c.544.209 1.006.392 1.028.406.021.015-.048.16-.155.322-.271.415-.792.599-1.498.53-.913-.087-1.577-.844-1.355-1.542.065-.206.144-.23.534-.169.251.04.902.244 1.446.453zM15.218 7.28c.103.393-.217 1.02-.657 1.288-.714.436-1.922.24-2.245-.365-.067-.125-.107-.192-.09-.243.02-.065.13-.102.393-.197.197-.07.733-.265 1.191-.431 1.037-.377 1.32-.388 1.408-.051z" fill="#B09D9D"/>
        <path d="M14.901 7.458c.083.317-.176.825-.532 1.042-.578.353-1.555.193-1.817-.296-.054-.1-.086-.155-.073-.196.016-.053.106-.082.319-.16.159-.056.592-.214.963-.349.84-.305 1.069-.313 1.14-.04zM6.87 7.655c.445.17.823.318.841.33.018.012-.04.13-.126.263-.223.337-.648.487-1.227.431-.746-.071-1.29-.687-1.108-1.256.053-.167.117-.187.436-.137.206.033.739.199 1.184.369z" fill="#fff"/>
        <path d="M8.556 3.075c-1.382.598-2.702 1.365-3.764 2.188l-.625.484.595-.62C5.954 3.884 8.371 2.499 9.346 2.5c.526.001.512.011-.79.574z" fill="url(#scpaint2_linear_2156_3176)"/>
        <path d="M6.188 3.667c-.588.38-1.435 1.058-1.884 1.507-.764.764-.8.786-.578.35.36-.707 1.453-1.667 2.427-2.134.476-.227.918-.414.984-.414.065 0-.362.311-.95.691z" fill="url(#scpaint3_linear_2156_3176)"/>
        <path d="M3.474 5.459c-.389.594-.568.73-.313.236.129-.25.587-.814.66-.814.017 0-.14.26-.347.578z" fill="url(#scpaint4_linear_2156_3176)"/>
        <defs>
            <linearGradient id="scpaint0_linear_2156_3176" x1="7.077" y1="17.516" x2="5.411" y2="18.399" gradientUnits="userSpaceOnUse">
                <stop stop-color="#E9E0D4"/>
                <stop offset="1" stop-color="#937772"/>
            </linearGradient>
            <linearGradient id="scpaint1_linear_2156_3176" x1="7.077" y1="17.516" x2="5.411" y2="18.399" gradientUnits="userSpaceOnUse">
                <stop stop-color="#E9E0D4"/>
                <stop offset="1" stop-color="#937772"/>
            </linearGradient>
            <linearGradient id="scpaint2_linear_2156_3176" x1="8.726" y1="2.5" x2="3.071" y2="6.19" gradientUnits="userSpaceOnUse">
                <stop stop-color="#E9E0D4"/>
                <stop offset="1" stop-color="#937772"/>
            </linearGradient>
            <linearGradient id="scpaint3_linear_2156_3176" x1="8.726" y1="2.5" x2="3.071" y2="6.19" gradientUnits="userSpaceOnUse">
                <stop stop-color="#E9E0D4"/>
                <stop offset="1" stop-color="#937772"/>
            </linearGradient>
            <linearGradient id="scpaint4_linear_2156_3176" x1="8.726" y1="2.5" x2="3.071" y2="6.19" gradientUnits="userSpaceOnUse">
                <stop stop-color="#E9E0D4"/>
                <stop offset="1" stop-color="#937772"/>
            </linearGradient>
        </defs>
    </svg>