<svg width="24" height="24" fill="none" viewBox="-2 -2 24 24" id="zoo" x="288" y="508" xmlns="http://www.w3.org/2000/svg">
        <g clip-path="url(#seclip0)">
            <path d="M17.441 11.232C17.441 16.755 14.11 20 10 20c-4.11 0-7.441-3.245-7.441-8.768C2.559 5.71 5.89 0 10 0c4.11 0 7.441 5.71 7.441 11.232z" fill="#E8C38C"/>
            <path d="M10 0c-.203 0-.404.014-.603.042 3.827.523 6.838 5.94 6.838 11.19 0 5.25-3.01 8.441-6.838 8.744.199.016.4.024.603.024 4.11 0 7.442-3.245 7.442-8.768C17.442 5.71 14.11 0 10 0z" fill="#DBB37E"/>
            <path d="M8.408 8.612c-.28 1.437-1.295 2.452-2.269 2.265-.973-.186-1.536-1.502-1.257-2.94.28-1.437 1.295-2.451 2.269-2.265.974.186 1.537 1.503 1.257 2.94zM3.806 16.39c-.67-1.168-1.103-2.6-1.217-4.264.723-.04 1.52.64 1.884 1.664.41 1.158.112 2.317-.667 2.6zM12.973 3.397c.413.894.225 1.856-.42 2.148-.645.293-1.502-.194-1.914-1.088-.413-.893-.225-1.855.42-2.148.645-.292 1.502.195 1.914 1.088zM15.378 14.65c-.287 1.475-1.438 2.495-2.573 2.277-1.134-.217-1.822-1.588-1.535-3.062.286-1.474 1.438-2.494 2.572-2.277 1.135.218 1.822 1.589 1.536 3.063z" fill="#67756A"/>
        </g>
        <defs>
            <clipPath id="seclip0">
                <path fill="#fff" d="M0 0h20v20H0z"/>
            </clipPath>
        </defs>
    </svg>