<svg width="221" height="218" viewBox="0 0 221 218" fill="none" xmlns="http://www.w3.org/2000/svg">
    <g clip-path="url(#clip0_0_1)">
        <path d="M2.982e-05 108.931C0.0387352 87.543 6.35062 66.6399 18.1489 48.8269C29.9471 31.0139 46.7099 17.079 66.3476 8.75923C85.9853 0.43944 107.629 -1.89721 128.581 2.04056C149.534 5.97832 168.867 16.0163 184.173 30.9033C199.478 45.7902 210.077 64.8676 214.65 85.7573C219.222 106.647 217.566 128.425 209.887 148.377C202.208 168.328 188.846 185.571 171.466 197.955C154.087 210.34 133.459 217.318 112.154 218.02C48.4224 219.788 -0.732742 167.867 2.982e-05 108.931ZM193.095 109.268C192.62 62.334 156.219 24.4409 108.747 24.262C97.6576 24.249 86.6739 26.4276 76.4233 30.6736C66.1728 34.9195 56.8561 41.1496 49.0053 49.0081C41.1545 56.8666 34.9232 66.1996 30.6673 76.4743C26.4115 86.749 24.2143 97.7641 24.2013 108.891C24.1883 120.017 26.3597 131.038 30.5916 141.322C34.8234 151.607 41.0328 160.955 48.8652 168.832C56.6977 176.709 65.9997 182.961 76.2403 187.231C86.481 191.501 97.4595 193.705 108.549 193.718C155.209 193.738 192.244 156.779 193.095 109.209V109.268ZM99.1025 16.7112C55.3144 16.2939 18.2203 51.127 15.6061 96.6108C21.4088 55.8761 55.6709 19.8905 99.1025 16.7112ZM198.383 135.06C192.303 155.765 180.084 171.88 162.913 184.876C145.742 197.871 126.195 202.879 104.984 202.561C153.387 208.542 190.105 175.338 198.383 135.06Z" fill="white"/>
        <path d="M220.901 95.2793C217.673 75.6074 211.177 57.406 199.373 41.0525C187.57 24.699 171.627 13.4324 153.248 4.92781C162.616 3.49713 190.877 21.0031 201.473 34.4753C215.145 51.6759 222.057 73.309 220.901 95.2793Z" fill="white"/>
        <path d="M16.3586 173.43C27.2462 189.616 42.1921 202.638 59.6912 211.184C44.2832 213.092 18.4975 190.539 16.3586 173.43Z" fill="white"/>
    </g>
    <path d="M148.473 140.271C148.136 140.272 147.807 140.174 147.525 139.99C147.243 139.807 147.02 139.545 146.884 139.237C146.748 138.93 146.704 138.589 146.758 138.257C146.812 137.925 146.961 137.615 147.188 137.366C148.192 136.272 149.116 135.108 149.952 133.881C150.077 133.685 150.24 133.516 150.431 133.384C150.622 133.252 150.837 133.16 151.064 133.113C151.292 133.065 151.526 133.064 151.754 133.109C151.982 133.154 152.198 133.244 152.391 133.374C152.583 133.504 152.747 133.672 152.874 133.866C153.001 134.061 153.087 134.279 153.127 134.508C153.168 134.736 153.163 134.971 153.111 135.197C153.06 135.424 152.964 135.638 152.828 135.826C151.898 137.191 150.872 138.488 149.756 139.705C149.593 139.884 149.395 140.026 149.174 140.124C148.953 140.221 148.714 140.272 148.473 140.271Z" fill="#D1001F"/>
    <path d="M138.74 148.22C138.445 148.222 138.154 148.149 137.894 148.007C137.635 147.866 137.417 147.66 137.259 147.411C137.137 147.219 137.054 147.005 137.015 146.782C136.976 146.558 136.982 146.329 137.032 146.108C137.082 145.886 137.176 145.677 137.308 145.492C137.439 145.307 137.606 145.15 137.799 145.03C138.308 144.714 138.778 144.424 139.228 144.117C139.621 143.875 140.093 143.8 140.542 143.908C140.99 144.015 141.377 144.296 141.618 144.689C141.859 145.082 141.934 145.554 141.827 146.002C141.72 146.451 141.439 146.838 141.046 147.079C140.596 147.379 140.136 147.668 139.672 147.956C139.392 148.129 139.069 148.22 138.74 148.22Z" fill="#D1001F"/>
    <path d="M156.358 125.286C156.236 125.286 156.115 125.274 155.995 125.248C155.772 125.201 155.56 125.11 155.372 124.981C155.184 124.852 155.024 124.687 154.899 124.496C154.775 124.304 154.689 124.091 154.648 123.866C154.606 123.642 154.609 123.412 154.656 123.189C155.051 121.32 155.248 119.416 155.245 117.507C155.245 106.508 148.749 96.3897 137.419 89.746C137.021 89.513 136.733 89.1316 136.616 88.6858C136.5 88.24 136.566 87.7662 136.799 87.3688C137.032 86.9713 137.413 86.6827 137.859 86.5665C138.305 86.4502 138.778 86.5158 139.176 86.7489C151.413 93.9257 158.718 105.425 158.718 117.507C158.72 119.659 158.498 121.805 158.055 123.911C157.972 124.3 157.758 124.648 157.45 124.899C157.141 125.149 156.756 125.286 156.358 125.286Z" fill="#D1001F"/>
    <path d="M138.714 164.982H125.934C125.473 164.982 125.031 164.799 124.706 164.474C124.38 164.148 124.197 163.706 124.197 163.246V154.18C115.126 156.281 105.694 156.281 96.6221 154.18V163.246C96.6221 163.706 96.4391 164.148 96.1135 164.474C95.7878 164.799 95.3462 164.982 94.8856 164.982H82.1052C81.6447 164.982 81.203 164.799 80.8774 164.474C80.5517 164.148 80.3688 163.706 80.3688 163.246V147.444C73.4952 143.322 68.0333 137.213 64.7041 129.923H59.618C58.1904 129.923 56.8212 129.356 55.8116 128.346C54.8021 127.337 54.235 125.968 54.235 124.54V110.474C54.2345 109.045 54.801 107.674 55.8101 106.661C56.8192 105.649 58.1886 105.078 59.618 105.074H64.7059C66.8915 100.163 70.1099 95.7799 74.1418 92.2242L71.2523 74.4428C71.2018 74.1316 71.2368 73.8126 71.3538 73.5198C71.4708 73.2271 71.6653 72.9717 71.9164 72.7811C72.1675 72.5905 72.4658 72.4718 72.7792 72.4378C73.0927 72.4039 73.4094 72.4559 73.6955 72.5883L93.3575 81.6874C95.365 81.0916 97.4023 80.6018 99.4612 80.22C99.9142 80.136 100.382 80.2353 100.762 80.4962C101.141 80.757 101.402 81.158 101.486 81.611C101.57 82.0639 101.471 82.5317 101.21 82.9114C100.949 83.2911 100.548 83.5516 100.095 83.6357C97.9506 84.0316 95.8313 84.5534 93.7482 85.1985C93.3371 85.3275 92.8927 85.299 92.5015 85.1186L75.2028 77.1135L77.7189 92.6236C77.7663 92.9175 77.7374 93.2186 77.6349 93.498C77.5325 93.7775 77.3599 94.0259 77.1337 94.2194C72.8834 97.7705 69.5694 102.31 67.4825 107.441C67.3555 107.767 67.1331 108.047 66.8443 108.244C66.5555 108.442 66.2139 108.547 65.8641 108.547H59.618C59.1093 108.55 58.6224 108.754 58.2643 109.116C57.9062 109.477 57.7061 109.966 57.7079 110.474V124.54C57.7079 125.046 57.9092 125.532 58.2674 125.89C58.6256 126.249 59.1114 126.45 59.618 126.45H65.8693C66.2191 126.45 66.5607 126.555 66.8495 126.753C67.1383 126.95 67.3607 127.23 67.4877 127.556C70.6114 134.981 76.1251 141.151 83.1541 145.086C83.5217 145.304 83.7958 145.65 83.924 146.058C84.0521 146.466 84.0253 146.907 83.8487 147.296V161.509H93.1561V151.941C93.1561 151.673 93.2182 151.409 93.3373 151.169C93.4564 150.929 93.6295 150.72 93.8429 150.558C94.0563 150.396 94.3042 150.286 94.5674 150.236C94.8305 150.186 95.1017 150.197 95.3597 150.269C105.219 152.949 115.614 152.949 125.473 150.269C125.731 150.197 126.003 150.186 126.266 150.236C126.529 150.286 126.777 150.396 126.99 150.558C127.204 150.72 127.377 150.929 127.496 151.169C127.615 151.409 127.677 151.673 127.677 151.941V161.509H136.984V146.883C136.898 146.513 136.939 146.125 137.101 145.781C137.262 145.437 137.535 145.158 137.875 144.988C138.145 144.853 138.444 144.788 138.745 144.798C139.046 144.808 139.34 144.893 139.6 145.046C139.855 145.196 140.068 145.409 140.219 145.664C140.369 145.92 140.451 146.21 140.457 146.506V163.246C140.457 163.474 140.412 163.701 140.325 163.912C140.237 164.123 140.108 164.315 139.946 164.476C139.784 164.637 139.592 164.765 139.381 164.852C139.169 164.939 138.943 164.983 138.714 164.982Z" fill="#D1001F"/>
    <path d="M158.916 119.34C158.192 119.346 157.469 119.306 156.751 119.22C156.294 119.158 155.881 118.918 155.602 118.551C155.323 118.185 155.201 117.722 155.263 117.266C155.325 116.81 155.566 116.397 155.933 116.118C156.299 115.839 156.761 115.717 157.218 115.779C161.003 116.188 164.812 115.258 167.984 113.151C169.239 112.117 170.27 110.839 171.017 109.395C171.763 107.95 172.208 106.369 172.325 104.747C172.392 104.299 172.631 103.894 172.993 103.62C173.354 103.346 173.808 103.224 174.258 103.28C174.708 103.336 175.118 103.566 175.4 103.921C175.683 104.275 175.816 104.726 175.77 105.178C175.605 107.261 175.016 109.288 174.039 111.136C173.062 112.983 171.718 114.611 170.088 115.919C166.828 118.23 162.911 119.43 158.916 119.34Z" fill="#D1001F"/>
    <path d="M81.1501 112.628C79.9481 112.628 78.773 112.271 77.7736 111.604C76.7741 110.936 75.9951 109.987 75.5351 108.876C75.0751 107.766 74.9548 106.544 75.1893 105.365C75.4238 104.186 76.0026 103.103 76.8526 102.253C77.7026 101.403 78.7855 100.824 79.9645 100.589C81.1434 100.355 82.3654 100.475 83.4759 100.935C84.5865 101.395 85.5357 102.174 86.2035 103.174C86.8713 104.173 87.2278 105.348 87.2278 106.55C87.2278 108.162 86.5874 109.708 85.4477 110.848C84.3079 111.988 82.762 112.628 81.1501 112.628ZM81.1501 103.946C80.635 103.946 80.1314 104.098 79.703 104.385C79.2747 104.671 78.9409 105.078 78.7437 105.554C78.5466 106.029 78.495 106.553 78.5955 107.058C78.696 107.564 78.9441 108.028 79.3083 108.392C79.6726 108.756 80.1367 109.004 80.642 109.105C81.1472 109.205 81.671 109.154 82.1469 108.957C82.6229 108.76 83.0297 108.426 83.3159 107.997C83.6021 107.569 83.7548 107.065 83.7548 106.55C83.7548 105.859 83.4804 105.197 82.9919 104.708C82.5035 104.22 81.8409 103.946 81.1501 103.946Z" fill="#D1001F"/>
    <path d="M130.138 97.9717C129.751 97.9722 129.376 97.8437 129.071 97.6068C128.765 97.3698 128.548 97.0378 128.453 96.6633C128.357 96.2889 128.39 95.8934 128.545 95.5394C128.699 95.1854 128.968 94.8931 129.308 94.7089C133.046 92.6869 136.003 89.4758 137.712 85.5838C139.42 81.6918 139.781 77.3413 138.738 73.221C137.695 69.1006 135.308 65.4458 131.954 62.835C128.6 60.2242 124.471 58.8066 120.221 58.8066C115.97 58.8066 111.841 60.2242 108.488 62.835C105.134 65.4458 102.746 69.1006 101.703 73.221C100.661 77.3413 101.022 81.6918 102.73 85.5838C104.438 89.4758 107.395 92.6869 111.134 94.7089C111.539 94.9286 111.84 95.3001 111.97 95.7416C112.101 96.1832 112.051 96.6587 111.832 97.0635C111.612 97.4683 111.241 97.7693 110.799 97.9002C110.357 98.0311 109.882 97.9813 109.477 97.7616C105.06 95.3712 101.566 91.5759 99.5481 86.9763C97.5305 82.3768 97.1044 77.2357 98.3373 72.3667C99.5702 67.4978 102.392 63.179 106.355 60.094C110.319 57.009 115.198 55.334 120.221 55.334C125.243 55.334 130.123 57.009 134.086 60.094C138.05 63.179 140.871 67.4978 142.104 72.3667C143.337 77.2357 142.911 82.3768 140.893 86.9763C138.876 91.5759 135.382 95.3712 130.964 97.7616C130.71 97.8993 130.426 97.9715 130.138 97.9717Z" fill="#D1001F"/>
    <path d="M120.221 79.6344C118.847 79.6344 117.504 79.227 116.362 78.4638C115.219 77.7006 114.329 76.6158 113.804 75.3466C113.278 74.0774 113.14 72.6808 113.408 71.3335C113.676 69.9861 114.338 68.7485 115.309 67.7771C116.281 66.8057 117.518 66.1441 118.866 65.8761C120.213 65.6081 121.61 65.7457 122.879 66.2714C124.148 66.7971 125.233 67.6874 125.996 68.8296C126.759 69.9719 127.167 71.3148 127.167 72.6885C127.167 73.1491 126.984 73.5908 126.658 73.9164C126.332 74.2421 125.891 74.425 125.43 74.425C124.969 74.425 124.528 74.2421 124.202 73.9164C123.877 73.5908 123.694 73.1491 123.694 72.6885C123.694 72.0017 123.49 71.3302 123.108 70.7591C122.727 70.188 122.184 69.7428 121.55 69.48C120.915 69.2171 120.217 69.1483 119.543 69.2823C118.869 69.4163 118.251 69.7471 117.765 70.2328C117.279 70.7185 116.948 71.3373 116.814 72.011C116.68 72.6847 116.749 73.383 117.012 74.0176C117.275 74.6522 117.72 75.1946 118.291 75.5762C118.862 75.9578 119.534 76.1615 120.221 76.1615C120.681 76.1615 121.123 76.3444 121.449 76.6701C121.774 76.9957 121.957 77.4374 121.957 77.8979C121.957 78.3585 121.774 78.8001 121.449 79.1258C121.123 79.4514 120.681 79.6344 120.221 79.6344Z" fill="#D1001F"/>
    <path d="M120.221 90.0533C118.378 90.0533 116.612 89.3215 115.309 88.0189C114.007 86.7163 113.275 84.9496 113.275 83.1075C113.275 82.6469 113.458 82.2053 113.783 81.8796C114.109 81.554 114.551 81.371 115.011 81.371C115.472 81.371 115.913 81.554 116.239 81.8796C116.565 82.2053 116.748 82.6469 116.748 83.1075C116.748 83.7944 116.951 84.4658 117.333 85.0369C117.715 85.6081 118.257 86.0532 118.892 86.316C119.526 86.5789 120.224 86.6477 120.898 86.5137C121.572 86.3797 122.191 86.0489 122.676 85.5632C123.162 85.0775 123.493 84.4587 123.627 83.785C123.761 83.1113 123.692 82.413 123.429 81.7784C123.166 81.1439 122.721 80.6015 122.15 80.2198C121.579 79.8382 120.908 79.6346 120.221 79.6346C119.76 79.6346 119.318 79.4516 118.993 79.126C118.667 78.8003 118.484 78.3586 118.484 77.8981C118.484 77.4375 118.667 76.9959 118.993 76.6702C119.318 76.3446 119.76 76.1616 120.221 76.1616C122.063 76.1616 123.83 76.8934 125.132 78.196C126.435 79.4986 127.166 81.2653 127.166 83.1075C127.166 84.9496 126.435 86.7163 125.132 88.0189C123.83 89.3215 122.063 90.0533 120.221 90.0533Z" fill="#D1001F"/>
    <path d="M120.221 91.7895C119.76 91.7895 119.318 91.6065 118.993 91.2809C118.667 90.9552 118.484 90.5135 118.484 90.053V88.3165C118.484 87.856 118.667 87.4143 118.993 87.0887C119.318 86.763 119.76 86.5801 120.221 86.5801C120.681 86.5801 121.123 86.763 121.448 87.0887C121.774 87.4143 121.957 87.856 121.957 88.3165V90.053C121.957 90.5135 121.774 90.9552 121.448 91.2809C121.123 91.6065 120.681 91.7895 120.221 91.7895Z" fill="#D1001F"/>
    <path d="M120.221 69.2157C119.76 69.2157 119.318 69.0328 118.993 68.7071C118.667 68.3815 118.484 67.9398 118.484 67.4793V65.7428C118.484 65.2823 118.667 64.8406 118.993 64.5149C119.318 64.1893 119.76 64.0063 120.221 64.0063C120.681 64.0063 121.123 64.1893 121.448 64.5149C121.774 64.8406 121.957 65.2823 121.957 65.7428V67.4793C121.957 67.9398 121.774 68.3815 121.448 68.7071C121.123 69.0328 120.681 69.2157 120.221 69.2157Z" fill="#D1001F"/>
    <path d="M137.585 97.9749H102.856C102.395 97.9749 101.954 97.7919 101.628 97.4663C101.302 97.1406 101.12 96.699 101.12 96.2384C101.12 95.7779 101.302 95.3362 101.628 95.0106C101.954 94.6849 102.395 94.502 102.856 94.502H137.585C138.046 94.502 138.487 94.6849 138.813 95.0106C139.139 95.3362 139.322 95.7779 139.322 96.2384C139.322 96.699 139.139 97.1406 138.813 97.4663C138.487 97.7919 138.046 97.9749 137.585 97.9749Z" fill="#D1001F"/>
    <defs>
        <clipPath id="clip0_0_1">
            <rect width="221" height="218" fill="white"/>
        </clipPath>
    </defs>
</svg>
