<svg width="221" height="218" viewBox="0 0 221 218" fill="none" xmlns="http://www.w3.org/2000/svg">
    <g clip-path="url(#clip0_0_1)">
        <path d="M2.98196e-05 108.931C0.0387352 87.543 6.35062 66.6399 18.1489 48.8269C29.9471 31.0139 46.7099 17.079 66.3476 8.75923C85.9853 0.43944 107.629 -1.89721 128.581 2.04056C149.534 5.97832 168.867 16.0163 184.172 30.9033C199.478 45.7902 210.077 64.8676 214.65 85.7573C219.222 106.647 217.566 128.425 209.887 148.377C202.208 168.328 188.846 185.571 171.466 197.955C154.087 210.34 133.459 217.318 112.154 218.02C48.4224 219.788 -0.732742 167.867 2.98196e-05 108.931ZM193.095 109.268C192.62 62.334 156.219 24.4409 108.747 24.262C97.6576 24.249 86.6739 26.4276 76.4233 30.6736C66.1728 34.9195 56.8561 41.1496 49.0053 49.0081C41.1545 56.8666 34.9232 66.1996 30.6673 76.4743C26.4115 86.749 24.2143 97.7641 24.2013 108.891C24.1883 120.017 26.3597 131.038 30.5916 141.322C34.8234 151.607 41.0328 160.955 48.8652 168.832C56.6977 176.709 65.9997 182.961 76.2403 187.231C86.481 191.501 97.4595 193.705 108.549 193.718C155.209 193.738 192.244 156.779 193.095 109.209V109.268ZM99.1025 16.7112C55.3144 16.2939 18.2203 51.127 15.6061 96.6108C21.4088 55.8761 55.6709 19.8905 99.1025 16.7112ZM198.383 135.06C192.303 155.765 180.084 171.88 162.913 184.876C145.742 197.871 126.195 202.879 104.984 202.561C153.387 208.542 190.105 175.338 198.383 135.06Z" fill="white"/>
        <path d="M220.901 95.2793C217.673 75.6074 211.177 57.406 199.373 41.0525C187.57 24.699 171.627 13.4324 153.248 4.92781C162.616 3.49713 190.877 21.0031 201.473 34.4753C215.145 51.6759 222.057 73.309 220.901 95.2793V95.2793Z" fill="white"/>
        <path d="M16.3586 173.43C27.2462 189.616 42.1921 202.638 59.6912 211.184C44.2832 213.092 18.4975 190.539 16.3586 173.43Z" fill="white"/>
    </g>
    <path d="M79.6643 130.969C71.1226 122.916 65.7813 111.504 65.7813 98.8665C65.7813 88.8076 69.0776 79.3335 75.3142 71.4683C81.3638 63.8389 89.8716 58.3555 99.2703 56.0281C100.473 55.7307 101.691 56.4641 101.989 57.6675C102.287 58.8709 101.553 60.088 100.35 60.3858C82.6397 64.7714 70.271 80.5952 70.271 98.8663C70.271 120.724 88.0538 138.507 109.912 138.507C131.77 138.507 149.553 120.725 149.553 98.8665C149.553 80.5955 137.184 64.7716 119.474 60.3861C118.271 60.0882 117.537 58.8711 117.835 57.6677C118.133 56.4643 119.35 55.73 120.553 56.0284C129.952 58.3559 138.46 63.8394 144.509 71.4688C150.746 79.3339 154.042 88.808 154.042 98.8667C154.042 111.504 148.701 122.917 140.159 130.969L151.911 153.445C152.484 154.541 152.063 155.895 150.969 156.471L150.888 156.514C150.386 156.778 149.802 156.843 149.255 156.695L132.967 152.285L127.292 168.177C126.992 169.017 126.223 169.599 125.334 169.661C125.281 169.665 125.229 169.667 125.177 169.667C124.346 169.667 123.578 169.206 123.189 168.462L109.912 143.069L96.6345 168.462C96.2455 169.206 95.4769 169.667 94.6459 169.666C94.5943 169.666 94.542 169.665 94.4897 169.661C93.6001 169.599 92.8312 169.016 92.5313 168.177L86.8562 152.285L70.5688 156.695C70.0211 156.843 69.4375 156.778 68.9356 156.514L68.8547 156.471C67.7607 155.894 67.3393 154.541 67.9122 153.445L79.6643 130.969ZM124.79 161.835L129.437 148.821C129.831 147.718 131.007 147.103 132.138 147.41L145.594 151.053L136.651 133.949C130.447 138.689 122.954 141.822 114.798 142.725L124.79 161.835ZM87.6859 147.41C88.8163 147.104 89.9926 147.718 90.3865 148.821L95.0336 161.835L105.026 142.725C96.8693 141.822 89.377 138.689 83.1728 133.949L74.2295 151.053L87.6859 147.41Z" fill="#D1001F"/>
    <path d="M142.818 98.8667C142.818 117.011 128.057 131.773 109.912 131.773C91.7668 131.773 77.0049 117.012 77.0049 98.8667C77.0049 80.7218 91.767 65.96 109.912 65.96C128.056 65.96 142.818 80.7218 142.818 98.8667ZM81.4944 98.8667C81.4944 114.536 94.2423 127.284 109.912 127.284C125.581 127.284 138.329 114.536 138.329 98.8667C138.329 83.1973 125.581 70.4494 109.912 70.4494C94.2423 70.4494 81.4944 83.1973 81.4944 98.8667Z" fill="#D1001F"/>
    <path d="M113.301 84.6191L116.078 89.985C116.402 90.6112 117.011 91.0535 117.706 91.1682L123.668 92.1511C125.081 92.3841 126.233 93.375 126.676 94.7371C127.119 96.0992 126.769 97.5785 125.762 98.5976L121.517 102.897C121.022 103.398 120.789 104.114 120.895 104.811L121.803 110.784C122.018 112.2 121.431 113.603 120.273 114.445C119.114 115.287 117.599 115.411 116.319 114.769L110.918 112.06C110.288 111.744 109.536 111.744 108.905 112.06L103.505 114.769C102.961 115.041 102.375 115.176 101.792 115.176C101.002 115.176 100.217 114.929 99.5509 114.445C98.3921 113.603 97.806 112.2 98.0211 110.785L98.9284 104.811C99.0344 104.114 98.8018 103.398 98.3064 102.897L94.0611 98.5978C93.0548 97.5787 92.7046 96.0994 93.1473 94.7373C93.59 93.3752 94.7426 92.3844 96.1557 92.1514L102.117 91.1684C102.813 91.0537 103.421 90.6115 103.746 89.9852L106.523 84.6194C107.181 83.3473 108.48 82.5571 109.912 82.5571C111.344 82.5569 112.643 83.3471 113.301 84.6191V84.6191ZM102.847 95.5979L98.1701 96.3692L101.501 99.7426C102.987 101.248 103.685 103.395 103.367 105.485L102.655 110.172L106.893 108.047C107.838 107.573 108.875 107.336 109.912 107.336C110.949 107.336 111.986 107.573 112.931 108.047L117.169 110.172L116.457 105.486C116.139 103.395 116.837 101.248 118.323 99.7424L121.654 96.3692L116.976 95.5979C114.89 95.2538 113.064 93.927 112.091 92.0486L109.912 87.8383L107.733 92.0486C106.761 93.9267 104.934 95.2538 102.847 95.5979Z" fill="#D1001F"/>
    <path d="M109.912 59.2258C108.672 59.2258 107.667 58.2208 107.667 56.9811C107.667 55.7413 108.672 54.7363 109.912 54.7363C111.151 54.7363 112.156 55.7413 112.156 56.9811C112.156 58.2208 111.151 59.2258 109.912 59.2258Z" fill="#D1001F"/>
    <defs>
        <clipPath id="clip0_0_1">
            <rect width="221" height="218" fill="white"/>
        </clipPath>
    </defs>
</svg>
