<svg width="221" height="218" viewBox="0 0 221 218" fill="none" xmlns="http://www.w3.org/2000/svg">
    <g clip-path="url(#clip0_0_1)">
        <path d="M2.98196e-05 108.931C0.0387352 87.543 6.35062 66.6399 18.1489 48.8269C29.9471 31.0139 46.7099 17.079 66.3476 8.75923C85.9853 0.43944 107.629 -1.89721 128.581 2.04056C149.534 5.97832 168.867 16.0163 184.172 30.9033C199.478 45.7902 210.077 64.8676 214.65 85.7573C219.222 106.647 217.566 128.425 209.887 148.377C202.208 168.328 188.846 185.571 171.466 197.955C154.087 210.34 133.459 217.318 112.154 218.02C48.4224 219.788 -0.732742 167.867 2.98196e-05 108.931ZM193.095 109.268C192.62 62.334 156.219 24.4409 108.747 24.262C97.6576 24.249 86.6739 26.4276 76.4233 30.6736C66.1728 34.9195 56.8561 41.1496 49.0053 49.0081C41.1545 56.8666 34.9232 66.1996 30.6673 76.4743C26.4115 86.749 24.2143 97.7641 24.2013 108.891C24.1883 120.017 26.3597 131.038 30.5916 141.322C34.8234 151.607 41.0328 160.955 48.8652 168.832C56.6977 176.709 65.9997 182.961 76.2403 187.231C86.481 191.501 97.4595 193.705 108.549 193.718C155.209 193.738 192.244 156.779 193.095 109.209V109.268ZM99.1025 16.7112C55.3144 16.2939 18.2203 51.127 15.6061 96.6108C21.4088 55.8761 55.6709 19.8905 99.1025 16.7112ZM198.383 135.06C192.303 155.765 180.084 171.88 162.913 184.876C145.742 197.871 126.195 202.879 104.984 202.561C153.387 208.542 190.105 175.338 198.383 135.06Z" fill="white"/>
        <path d="M220.901 95.2793C217.673 75.6074 211.177 57.406 199.373 41.0525C187.57 24.699 171.627 13.4324 153.248 4.92781C162.616 3.49713 190.877 21.0031 201.473 34.4753C215.145 51.6759 222.057 73.309 220.901 95.2793V95.2793Z" fill="white"/>
        <path d="M16.3586 173.43C27.2462 189.616 42.1921 202.638 59.6912 211.185C44.2832 213.092 18.4975 190.539 16.3586 173.43Z" fill="white"/>
    </g>
    <path fill-rule="evenodd" clip-rule="evenodd" d="M115.565 68.7622C105.364 68.766 95.6159 72.5384 88.0879 79.1922C87.8376 79.4026 87.6319 79.661 87.4828 79.9523C87.3337 80.2436 87.2443 80.5618 87.2197 80.8883C87.1952 81.2148 87.2361 81.5429 87.34 81.8533C87.4438 82.1637 87.6086 82.4501 87.8246 82.6957C88.0406 82.9413 88.3034 83.1411 88.5976 83.2833C88.8918 83.4255 89.2114 83.5074 89.5376 83.5239C89.8638 83.5405 90.19 83.4914 90.497 83.3797C90.804 83.268 91.0856 83.0959 91.3253 82.8734C97.9693 77.0009 106.567 73.6738 115.565 73.6704C135.876 73.6611 152.291 90.1227 152.291 110.482C152.291 130.842 135.877 147.296 115.565 147.295C106.553 147.294 97.939 143.972 91.287 138.092C91.0474 137.869 90.7658 137.697 90.4587 137.585C90.1517 137.473 89.8255 137.424 89.4993 137.441C89.1731 137.458 88.8535 137.539 88.5593 137.682C88.2651 137.824 88.0023 138.024 87.7863 138.269C87.5704 138.515 87.4056 138.801 87.3017 139.112C87.1978 139.422 87.1569 139.75 87.1815 140.077C87.206 140.403 87.2955 140.721 87.4445 141.013C87.5936 141.304 87.7994 141.562 88.0496 141.773C95.5883 148.436 105.352 152.202 115.565 152.203C138.524 152.205 157.188 133.495 157.188 110.482C157.188 87.4701 138.525 68.7536 115.565 68.7622V68.7622Z" fill="#D1001F"/>
    <path d="M56.8067 108.031C56.1571 108.031 55.5342 108.29 55.075 108.75C54.6157 109.211 54.3577 109.835 54.3577 110.486C54.3577 111.137 54.6157 111.762 55.075 112.222C55.5342 112.682 56.1571 112.941 56.8067 112.941H81.2874C81.9369 112.941 82.5598 112.682 83.0191 112.222C83.4784 111.762 83.7364 111.137 83.7364 110.486C83.7364 109.835 83.4784 109.211 83.0191 108.75C82.5598 108.29 81.9369 108.031 81.2874 108.031H56.8067Z" fill="#D1001F"/>
    <path d="M61.7046 98.2124C61.0551 98.2124 60.4322 98.471 59.9729 98.9314C59.5136 99.3917 59.2556 100.016 59.2556 100.667C59.2556 101.318 59.5136 101.943 59.9729 102.403C60.4322 102.863 61.0551 103.122 61.7046 103.122H81.2874C81.9369 103.122 82.5598 102.863 83.0191 102.403C83.4783 101.943 83.7363 101.318 83.7363 100.667C83.7363 100.016 83.4783 99.3917 83.0191 98.9314C82.5598 98.471 81.9369 98.2124 81.2874 98.2124H61.7046Z" fill="#D1001F"/>
    <path d="M61.7046 117.841C61.383 117.841 61.0645 117.905 60.7674 118.028C60.4703 118.151 60.2003 118.332 59.9729 118.56C59.7455 118.788 59.5651 119.059 59.442 119.357C59.319 119.655 59.2556 119.974 59.2556 120.296C59.2556 120.618 59.319 120.938 59.442 121.235C59.5651 121.533 59.7455 121.804 59.9729 122.032C60.2003 122.26 60.4703 122.441 60.7674 122.564C61.0645 122.687 61.383 122.751 61.7046 122.751H81.2874C81.609 122.751 81.9274 122.687 82.2246 122.564C82.5217 122.441 82.7916 122.26 83.0191 122.032C83.2465 121.804 83.4269 121.533 83.5499 121.235C83.673 120.938 83.7363 120.618 83.7363 120.296C83.7363 119.974 83.673 119.655 83.5499 119.357C83.4269 119.059 83.2465 118.788 83.0191 118.56C82.7916 118.332 82.5217 118.151 82.2246 118.028C81.9274 117.905 81.609 117.841 81.2874 117.841H61.7046Z" fill="#D1001F"/>
    <path d="M66.5935 88.3928C66.2719 88.3928 65.9534 88.4563 65.6563 88.5796C65.3592 88.703 65.0892 88.8839 64.8618 89.1118C64.6344 89.3398 64.454 89.6104 64.3309 89.9082C64.2079 90.206 64.1445 90.5252 64.1445 90.8476C64.1445 91.1699 64.2079 91.4891 64.3309 91.7869C64.454 92.0847 64.6344 92.3554 64.8618 92.5833C65.0892 92.8113 65.3592 92.9921 65.6563 93.1155C65.9534 93.2388 66.2719 93.3023 66.5935 93.3023H86.1853C86.5069 93.3023 86.8254 93.2388 87.1225 93.1155C87.4196 92.9921 87.6896 92.8113 87.917 92.5833C88.1444 92.3554 88.3248 92.0847 88.4479 91.7869C88.571 91.4891 88.6343 91.1699 88.6343 90.8476C88.6343 90.5252 88.571 90.206 88.4479 89.9082C88.3248 89.6104 88.1444 89.3398 87.917 89.1118C87.6896 88.8839 87.4196 88.703 87.1225 88.5796C86.8254 88.4563 86.5069 88.3928 86.1853 88.3928H66.5935Z" fill="#D1001F"/>
    <path d="M66.5935 127.66C66.2719 127.66 65.9534 127.724 65.6563 127.847C65.3592 127.971 65.0892 128.151 64.8618 128.379C64.6344 128.607 64.454 128.878 64.3309 129.176C64.2079 129.474 64.1445 129.793 64.1445 130.115C64.1445 130.438 64.2079 130.757 64.3309 131.054C64.454 131.352 64.6344 131.623 64.8618 131.851C65.0892 132.079 65.3592 132.26 65.6563 132.383C65.9534 132.506 66.2719 132.57 66.5935 132.57H86.1853C86.5069 132.57 86.8254 132.506 87.1225 132.383C87.4196 132.26 87.6896 132.079 87.917 131.851C88.1444 131.623 88.3248 131.352 88.4479 131.054C88.571 130.757 88.6343 130.438 88.6343 130.115C88.6343 129.793 88.571 129.474 88.4479 129.176C88.3248 128.878 88.1444 128.607 87.917 128.379C87.6896 128.151 87.4196 127.971 87.1225 127.847C86.8254 127.724 86.5069 127.66 86.1853 127.66H66.5935Z" fill="#D1001F"/>
    <path d="M115.528 83.4566C114.88 83.466 114.262 83.7326 113.81 84.1978C113.357 84.663 113.108 85.289 113.115 85.9385V110.486C113.118 111.136 113.378 111.758 113.838 112.216L128.523 126.944C128.747 127.184 129.018 127.376 129.318 127.51C129.618 127.643 129.941 127.714 130.269 127.719C130.598 127.725 130.923 127.664 131.227 127.54C131.532 127.417 131.808 127.233 132.04 127.001C132.272 126.768 132.455 126.491 132.578 126.186C132.701 125.882 132.762 125.555 132.757 125.226C132.752 124.897 132.68 124.573 132.548 124.272C132.415 123.971 132.223 123.7 131.984 123.475L118.013 109.462V85.9385C118.017 85.6108 117.955 85.2855 117.831 84.9822C117.707 84.6788 117.524 84.4033 117.293 84.172C117.061 83.9407 116.786 83.7582 116.482 83.6353C116.179 83.5125 115.855 83.4517 115.528 83.4566V83.4566Z" fill="#D1001F"/>
    <path fill-rule="evenodd" clip-rule="evenodd" d="M118.014 78.5784C118.014 79.2293 117.756 79.8535 117.296 80.3138C116.837 80.774 116.215 81.0326 115.565 81.0326C114.916 81.0326 114.293 80.774 113.834 80.3138C113.375 79.8535 113.117 79.2293 113.117 78.5784C113.117 78.2562 113.18 77.937 113.303 77.6392C113.426 77.3415 113.607 77.071 113.834 76.8431C114.061 76.6152 114.331 76.4344 114.628 76.3111C114.925 76.1878 115.244 76.1243 115.565 76.1243C115.887 76.1243 116.205 76.1878 116.502 76.3111C116.799 76.4344 117.069 76.6152 117.296 76.8431C117.524 77.071 117.704 77.3415 117.827 77.6392C117.95 77.937 118.014 78.2562 118.014 78.5784V78.5784Z" fill="#D1001F"/>
    <path fill-rule="evenodd" clip-rule="evenodd" d="M118.014 142.386C118.014 143.037 117.756 143.661 117.296 144.121C116.837 144.582 116.215 144.84 115.565 144.84C114.916 144.84 114.293 144.582 113.834 144.121C113.375 143.661 113.117 143.037 113.117 142.386C113.117 142.064 113.18 141.745 113.303 141.447C113.426 141.149 113.607 140.879 113.834 140.651C114.061 140.423 114.331 140.242 114.628 140.119C114.925 139.995 115.244 139.932 115.565 139.932C115.887 139.932 116.205 139.995 116.502 140.119C116.799 140.242 117.069 140.423 117.296 140.651C117.524 140.879 117.704 141.149 117.827 141.447C117.95 141.745 118.014 142.064 118.014 142.386V142.386Z" fill="#D1001F"/>
    <path fill-rule="evenodd" clip-rule="evenodd" d="M147.394 108.029C148.044 108.029 148.666 108.288 149.126 108.748C149.585 109.208 149.843 109.832 149.843 110.483C149.843 111.134 149.585 111.758 149.126 112.219C148.666 112.679 148.044 112.937 147.394 112.937C147.073 112.937 146.754 112.874 146.457 112.751C146.16 112.627 145.89 112.446 145.663 112.219C145.436 111.991 145.255 111.72 145.132 111.422C145.009 111.125 144.946 110.806 144.946 110.483C144.946 109.832 145.204 109.208 145.663 108.748C146.122 108.288 146.745 108.029 147.394 108.029V108.029Z" fill="#D1001F"/>
    <path fill-rule="evenodd" clip-rule="evenodd" d="M136.341 86.1887C136.8 85.7284 137.423 85.47 138.072 85.47C138.721 85.47 139.344 85.7284 139.803 86.1887C140.262 86.6489 140.52 87.2731 140.52 87.924C140.52 88.5749 140.262 89.1991 139.803 89.6593C139.576 89.8872 139.306 90.068 139.009 90.1914C138.712 90.3147 138.393 90.3782 138.072 90.3782C137.75 90.3782 137.432 90.3147 137.135 90.1914C136.838 90.068 136.568 89.8872 136.341 89.6593C135.881 89.1991 135.624 88.5749 135.624 87.924C135.624 87.2731 135.881 86.6489 136.341 86.1887V86.1887Z" fill="#D1001F"/>
    <path fill-rule="evenodd" clip-rule="evenodd" d="M139.803 131.307C140.262 131.767 140.52 132.391 140.52 133.042C140.52 133.693 140.262 134.317 139.803 134.777C139.344 135.238 138.721 135.496 138.072 135.496C137.423 135.496 136.8 135.238 136.341 134.778C136.113 134.55 135.933 134.279 135.81 133.981C135.687 133.684 135.624 133.364 135.624 133.042C135.624 132.72 135.687 132.401 135.81 132.103C135.933 131.805 136.113 131.535 136.341 131.307C136.8 130.847 137.423 130.588 138.072 130.588C138.721 130.588 139.344 130.847 139.803 131.307V131.307Z" fill="#D1001F"/>
    <defs>
        <clipPath id="clip0_0_1">
            <rect width="221" height="218" fill="white"/>
        </clipPath>
    </defs>
</svg>
