<svg width="221" height="218" viewBox="0 0 221 218" fill="none" xmlns="http://www.w3.org/2000/svg">
    <g clip-path="url(#clip0_0_1)">
        <path d="M2.982e-05 108.931C0.0387352 87.543 6.35062 66.6399 18.1489 48.8269C29.9471 31.0139 46.7099 17.079 66.3476 8.75923C85.9853 0.43944 107.629 -1.89721 128.581 2.04056C149.534 5.97832 168.867 16.0163 184.173 30.9033C199.478 45.7902 210.077 64.8676 214.65 85.7573C219.222 106.647 217.566 128.425 209.887 148.377C202.208 168.328 188.846 185.571 171.466 197.955C154.087 210.34 133.459 217.318 112.154 218.02C48.4224 219.788 -0.732742 167.867 2.982e-05 108.931ZM193.095 109.268C192.62 62.334 156.219 24.4409 108.747 24.262C97.6576 24.249 86.6739 26.4276 76.4233 30.6736C66.1728 34.9195 56.8561 41.1496 49.0053 49.0081C41.1545 56.8666 34.9232 66.1996 30.6673 76.4743C26.4115 86.749 24.2143 97.7641 24.2013 108.891C24.1883 120.017 26.3597 131.038 30.5916 141.322C34.8234 151.607 41.0328 160.955 48.8652 168.832C56.6977 176.709 65.9997 182.961 76.2403 187.231C86.481 191.501 97.4595 193.705 108.549 193.718C155.209 193.738 192.244 156.779 193.095 109.209V109.268ZM99.1025 16.7112C55.3144 16.2939 18.2203 51.127 15.6061 96.6108C21.4088 55.8761 55.6709 19.8905 99.1025 16.7112ZM198.383 135.06C192.303 155.765 180.084 171.88 162.913 184.876C145.742 197.871 126.195 202.879 104.984 202.561C153.387 208.542 190.105 175.338 198.383 135.06Z" fill="white"/>
        <path d="M220.901 95.2793C217.673 75.6074 211.177 57.406 199.373 41.0525C187.57 24.699 171.627 13.4324 153.248 4.92781C162.616 3.49713 190.877 21.0031 201.473 34.4753C215.145 51.6759 222.057 73.309 220.901 95.2793Z" fill="white"/>
        <path d="M16.3586 173.43C27.2462 189.616 42.1921 202.638 59.6912 211.185C44.2832 213.092 18.4975 190.539 16.3586 173.43Z" fill="white"/>
    </g>
    <path d="M164.406 132.574C162.968 129.026 158.83 126.013 152.838 126.972C153.958 124.323 154.601 121.135 154.601 117.263C154.601 103.258 144.694 81.567 131.106 71.6331C134.018 68.8739 138.776 63.8033 138.95 59.9507C139.02 58.6573 138.591 57.5113 137.744 56.6322C136.79 55.6586 135.426 55.1604 133.7 55.1604C132.383 55.1604 130.983 55.4347 129.633 55.6993C128.491 55.9221 127.315 56.1532 126.437 56.1532C126.074 56.1532 125.848 56.1113 125.733 56.0778C124.85 55.8299 123.861 55.164 122.814 54.4586C121.095 53.3066 119.156 52 116.815 52C114.468 52 112.528 53.3066 110.813 54.4586C109.76 55.164 108.774 55.8299 107.891 56.0778C107.763 56.1113 107.553 56.1532 107.187 56.1532C106.309 56.1532 105.134 55.9233 103.996 55.6993C102.637 55.4275 101.248 55.1604 99.927 55.1604C98.1985 55.1604 96.8319 55.6586 95.8851 56.6322C95.0319 57.5077 94.6134 58.6538 94.6737 59.9507C94.8534 63.8045 99.6131 68.8751 102.517 71.6331C88.9365 81.567 79.0221 103.249 79.0221 117.263C79.0221 118.251 79.0775 119.184 79.1612 120.082C69.5619 123.712 58.7192 130.074 57.0657 131.053C56.0168 131.677 55.6856 133.009 56.3271 134.022C56.9672 135.045 58.34 135.365 59.3791 134.746C65.4068 131.167 82.5887 121.88 89.6432 121.88C95.517 121.88 115.218 128.674 122.42 131.334C125.854 132.898 126.808 135.601 126.219 137.604C125.68 139.476 123.659 141.302 119.633 140.823L94.9852 137.844C93.7688 137.693 92.6546 138.537 92.5032 139.724C92.3517 140.905 93.2172 141.993 94.4336 142.141L119.079 145.121C119.699 145.197 120.295 145.233 120.87 145.233C126.203 145.233 129.516 142.142 130.495 138.796C130.498 138.795 130.498 138.792 130.498 138.791L152.159 131.553C156.496 130.274 159.353 131.943 160.255 134.17C161.044 136.116 160.469 139.104 156.251 141.126L149.77 144.228C126.219 155.509 115.474 160.658 109.558 160.658C104.709 160.658 97.2209 156.655 91.2068 153.443C85.6715 150.482 82.425 148.814 80.1215 148.814C76.9143 148.814 68.1929 152.182 66.4754 152.858C65.3329 153.307 64.7851 154.569 65.2467 155.677C65.7084 156.788 67.0048 157.322 68.1449 156.873C72.0808 155.325 78.3979 153.149 80.1227 153.149C81.397 153.149 85.6481 155.419 89.0658 157.246C95.8654 160.878 103.575 165 109.562 165C116.512 165 126.823 160.06 151.744 148.124L158.219 145.024C164.678 141.914 165.952 136.395 164.406 132.574ZM98.8854 59.7639C98.8756 59.5376 98.9261 59.4885 98.9482 59.4621C99.0344 59.3675 99.3397 59.2669 99.9245 59.2669C100.822 59.2669 102.004 59.498 103.154 59.7244C105.217 60.1364 107.443 60.4765 109.065 60.0226C110.604 59.5962 111.928 58.7005 113.21 57.8442C114.53 56.9544 115.781 56.1149 116.812 56.1149C117.839 56.1149 119.087 56.9544 120.407 57.843C121.689 58.704 123.011 59.595 124.552 60.0214C126.17 60.4825 128.4 60.134 130.466 59.7232C131.616 59.498 132.799 59.2657 133.697 59.2657C134.277 59.2657 134.585 59.3663 134.676 59.4609C134.693 59.4861 134.744 59.5364 134.734 59.7627C134.628 62.0477 130.297 66.8236 126.948 69.8092H106.677C103.32 66.8165 98.9913 62.0489 98.8854 59.7639ZM146.793 128.765L130.511 134.204C129.805 131.586 127.847 128.99 124.211 127.367C124.166 127.346 124.12 127.329 124.075 127.311C121.37 126.312 97.4155 117.552 89.6407 117.552C87.847 117.552 85.6654 117.976 83.2855 118.675C83.2609 118.209 83.24 117.751 83.24 117.253C83.24 103.725 93.1446 82.5083 106.485 73.9145H127.133C140.474 82.5131 150.381 103.729 150.381 117.253C150.376 122.396 149.102 126.094 146.793 128.765ZM124.772 103.084C124.07 102.379 123.208 101.757 122.181 101.21C121.152 100.662 119.741 100.064 117.937 99.4206C116.131 98.7775 114.85 98.096 114.102 97.3763C113.35 96.653 112.972 95.7009 112.972 94.5069C112.972 93.1836 113.353 92.1572 114.112 91.4435C114.872 90.7297 115.933 90.3704 117.281 90.3704C118.644 90.3704 119.729 90.8686 120.528 91.8578C121.323 92.853 121.723 94.2171 121.723 95.938H126.837C126.837 93.2518 126.167 91.0722 124.827 89.3908C123.488 87.7142 121.593 86.7023 119.143 86.3586V81.8413H115.762V86.3178C113.326 86.5921 111.393 87.4627 109.972 88.9346C108.551 90.4004 107.842 92.271 107.842 94.5476C107.842 97.908 109.482 100.44 112.767 102.157C113.753 102.679 115.133 103.238 116.905 103.853C118.679 104.464 119.949 105.146 120.711 105.909C121.468 106.67 121.854 107.631 121.854 108.795C121.854 110.043 121.433 111.043 120.598 111.799C119.756 112.551 118.537 112.927 116.929 112.927C115.304 112.927 114.031 112.453 113.135 111.504C112.24 110.558 111.793 109.223 111.793 107.495H106.659C106.659 110.21 107.409 112.386 108.907 114.031C110.408 115.677 112.552 116.65 115.345 116.951V120.937H118.706V116.927C121.31 116.667 123.347 115.812 124.799 114.38C126.261 112.941 126.986 111.061 126.986 108.75C126.986 107.515 126.799 106.435 126.414 105.521C126.026 104.607 125.478 103.788 124.772 103.084Z" fill="#D1001F"/>
    <defs>
        <clipPath id="clip0_0_1">
            <rect width="221" height="218" fill="white"/>
        </clipPath>
    </defs>
</svg>
