<svg width="91" height="19" viewBox="0 0 91 19" fill="none" xmlns="http://www.w3.org/2000/svg">
<path d="M6.26921 8.93403C6.24924 9.28189 6.36818 9.62345 6.5999 9.88366C6.83162 10.1439 7.15716 10.3015 7.505 10.3218H7.57668C7.83285 10.3215 8.08334 10.2462 8.29722 10.1052C8.51111 9.96422 8.67902 9.76368 8.78025 9.52835C8.88148 9.29302 8.91158 9.0332 8.86685 8.78096C8.82212 8.52872 8.70451 8.2951 8.52854 8.10893C8.35257 7.92276 8.12593 7.79219 7.87661 7.73333C7.62728 7.67448 7.36618 7.68991 7.12553 7.77773C6.88488 7.86556 6.67521 8.02192 6.5224 8.22753C6.36959 8.43314 6.28032 8.67899 6.26562 8.93475L6.26921 8.93403Z" fill="#0033AD"/>
<path d="M1.37797 8.60174C1.29435 8.59706 1.21121 8.61727 1.13906 8.65983C1.06692 8.70238 1.00901 8.76537 0.972653 8.84083C0.936296 8.91629 0.923124 9.00083 0.934801 9.08377C0.946479 9.16671 0.982481 9.24433 1.03826 9.30682C1.09404 9.36931 1.16709 9.41386 1.24817 9.43484C1.32926 9.45582 1.41475 9.4523 1.49384 9.42471C1.57293 9.39712 1.64206 9.3467 1.6925 9.27984C1.74294 9.21297 1.77243 9.13265 1.77724 9.04903C1.78053 8.99341 1.7728 8.93769 1.7545 8.88507C1.73619 8.83245 1.70767 8.78397 1.67057 8.7424C1.63347 8.70084 1.58852 8.66702 1.53831 8.64288C1.48809 8.61874 1.43361 8.60476 1.37797 8.60174V8.60174Z" fill="#0033AD"/>
<path d="M6.18656 1.32089C6.26105 1.28264 6.32255 1.22321 6.36333 1.15008C6.40411 1.07695 6.42235 0.993394 6.41575 0.909925C6.40914 0.826455 6.37799 0.746805 6.32622 0.681001C6.27444 0.615196 6.20436 0.566179 6.12479 0.540119C6.04522 0.51406 5.95971 0.512122 5.87904 0.534551C5.79837 0.55698 5.72614 0.602772 5.67144 0.666164C5.61674 0.729556 5.58201 0.807713 5.57163 0.890798C5.56125 0.973883 5.57569 1.05818 5.61311 1.13308C5.63827 1.18322 5.6731 1.22787 5.7156 1.26448C5.7581 1.30109 5.80743 1.32893 5.86073 1.34639C5.91404 1.36385 5.97028 1.37058 6.0262 1.3662C6.08212 1.36183 6.13662 1.34642 6.18656 1.32089V1.32089Z" fill="#0033AD"/>
<path d="M7.51763 3.64198C7.6333 3.58363 7.72908 3.49229 7.79285 3.37952C7.85663 3.26674 7.88553 3.13758 7.87591 3.00838C7.86629 2.87918 7.81858 2.75573 7.73881 2.65364C7.65904 2.55155 7.5508 2.4754 7.42776 2.43482C7.30472 2.39424 7.17241 2.39105 7.04755 2.42566C6.9227 2.46027 6.81091 2.53111 6.72632 2.62924C6.64172 2.72737 6.58812 2.84838 6.57229 2.97697C6.55646 3.10556 6.57911 3.23595 6.63738 3.35167C6.67609 3.42855 6.72957 3.49705 6.79477 3.55326C6.85997 3.60946 6.9356 3.65227 7.01735 3.67923C7.09909 3.70619 7.18535 3.71677 7.27119 3.71038C7.35703 3.70399 7.44077 3.68075 7.51763 3.64198V3.64198Z" fill="#0033AD"/>
<path d="M3.03811 5.23831C3.12734 5.29698 3.23196 5.32787 3.33874 5.32707C3.44553 5.32626 3.54967 5.2938 3.63801 5.23379C3.72634 5.17378 3.79488 5.08892 3.83497 4.98995C3.87506 4.89097 3.88489 4.78232 3.86321 4.67776C3.84153 4.5732 3.78933 4.47741 3.7132 4.40252C3.63707 4.32764 3.54044 4.27702 3.43554 4.25706C3.33063 4.23711 3.22216 4.24873 3.12386 4.29044C3.02555 4.33215 2.94183 4.40208 2.88328 4.49138C2.80487 4.61099 2.77713 4.75683 2.80616 4.89688C2.83519 5.03692 2.91862 5.15972 3.03811 5.23831V5.23831Z" fill="#0033AD"/>
<path d="M3.83563 8.36286C3.70629 8.35556 3.57768 8.38677 3.46607 8.45255C3.35446 8.51832 3.26486 8.61571 3.20859 8.7324C3.15232 8.8491 3.1319 8.97985 3.14993 9.10814C3.16795 9.23643 3.22361 9.3565 3.30986 9.45317C3.3961 9.54983 3.50908 9.61876 3.63449 9.65123C3.75991 9.68371 3.89213 9.67827 4.01446 9.63562C4.13678 9.59296 4.24372 9.51499 4.32174 9.41157C4.39976 9.30815 4.44538 9.18392 4.45281 9.05458C4.4626 8.88104 4.40309 8.7107 4.28737 8.581C4.17165 8.4513 4.00917 8.37284 3.83563 8.36286V8.36286Z" fill="#0033AD"/>
<path d="M3.10977 12.7675C3.01451 12.8156 2.93567 12.8909 2.8832 12.9839C2.83073 13.0768 2.80699 13.1833 2.815 13.2897C2.823 13.3961 2.86237 13.4978 2.92815 13.5819C2.99392 13.6659 3.08314 13.7286 3.18453 13.762C3.28591 13.7953 3.39492 13.7979 3.49775 13.7693C3.60059 13.7407 3.69265 13.6823 3.76229 13.6014C3.83192 13.5205 3.87602 13.4208 3.88899 13.3149C3.90197 13.2089 3.88325 13.1015 3.83519 13.0062C3.80325 12.9429 3.75915 12.8865 3.70541 12.8402C3.65166 12.7939 3.58932 12.7587 3.52195 12.7365C3.45458 12.7143 3.3835 12.7057 3.31278 12.711C3.24205 12.7163 3.17307 12.7355 3.10977 12.7675V12.7675Z" fill="#0033AD"/>
<path d="M5.65641 7.00868C5.784 7.09229 5.9335 7.13619 6.08604 7.13484C6.23857 7.13348 6.38727 7.08693 6.51335 7.00107C6.63943 6.9152 6.73721 6.79388 6.79434 6.65245C6.85147 6.51101 6.86538 6.35581 6.83431 6.20647C6.80324 6.05713 6.72858 5.92036 6.61978 5.81344C6.51098 5.70653 6.37292 5.63428 6.22306 5.60582C6.0732 5.57737 5.91827 5.59399 5.77786 5.65358C5.63744 5.71318 5.51785 5.81307 5.4342 5.94063C5.37856 6.02531 5.34016 6.12014 5.32121 6.21969C5.30226 6.31923 5.30313 6.42154 5.32377 6.52074C5.34441 6.61995 5.38442 6.71411 5.4415 6.79784C5.49858 6.88157 5.57161 6.95321 5.65641 7.00868V7.00868Z" fill="#0033AD"/>
<path d="M13.7363 3.59049C13.8449 3.66134 13.9721 3.6984 14.1018 3.69698C14.2315 3.69556 14.3579 3.65573 14.4649 3.58251C14.572 3.50929 14.6549 3.40598 14.7032 3.28563C14.7516 3.16528 14.7632 3.03331 14.7365 2.90638C14.7099 2.77945 14.6462 2.66327 14.5535 2.57253C14.4609 2.48178 14.3434 2.42055 14.2159 2.39657C14.0885 2.37258 13.9568 2.38692 13.8375 2.43778C13.7181 2.48864 13.6166 2.57372 13.5456 2.68228C13.4984 2.75439 13.4658 2.83512 13.4498 2.91984C13.4339 3.00455 13.4347 3.09159 13.4525 3.17596C13.4702 3.26033 13.5044 3.34038 13.5531 3.41151C13.6018 3.48265 13.664 3.54347 13.7363 3.59049V3.59049Z" fill="#0033AD"/>
<path d="M15.0814 1.27633C15.1516 1.32235 15.2339 1.34652 15.3178 1.34576C15.4018 1.34501 15.4836 1.31937 15.553 1.27209C15.6224 1.22481 15.6761 1.15802 15.7076 1.08016C15.739 1.0023 15.7466 0.916874 15.7294 0.834693C15.7122 0.752512 15.6711 0.677268 15.6112 0.618479C15.5512 0.559691 15.4752 0.520001 15.3927 0.504432C15.3102 0.488862 15.2249 0.498113 15.1477 0.531013C15.0705 0.563913 15.0047 0.618984 14.9588 0.689258C14.8973 0.783384 14.8756 0.898081 14.8986 1.00816C14.9216 1.11823 14.9873 1.21468 15.0814 1.27633V1.27633Z" fill="#0033AD"/>
<path d="M13.8405 7.68527C13.6685 7.67538 13.4962 7.69948 13.3335 7.75618C13.1708 7.81288 13.0208 7.90108 12.8922 8.01573C12.6324 8.24728 12.4752 8.57255 12.4553 8.91998C12.4353 9.26741 12.5542 9.60853 12.7858 9.86832C13.0173 10.1281 13.3426 10.2853 13.69 10.3052C13.7151 10.3052 13.7409 10.3052 13.766 10.3052C14.0191 10.3051 14.2667 10.2318 14.4791 10.0941C14.6914 9.95635 14.8594 9.76015 14.9628 9.52912C15.0661 9.2981 15.1004 9.04211 15.0616 8.79202C15.0227 8.54193 14.9123 8.30842 14.7437 8.11966C14.6295 7.99092 14.4909 7.8862 14.3358 7.81162C14.1807 7.73704 14.0124 7.69409 13.8405 7.68527V7.68527Z" fill="#0033AD"/>
<path d="M7.94855 6.91787C8.05745 7.13542 8.22492 7.31826 8.4321 7.44579C8.63929 7.57332 8.87797 7.64048 9.12125 7.6397C9.34556 7.63975 9.56613 7.58231 9.76192 7.47288C9.95771 7.36344 10.1222 7.20565 10.2397 7.01457C10.3571 6.82348 10.4237 6.60549 10.4329 6.38138C10.4422 6.15727 10.3938 5.93453 10.2925 5.73441C10.1829 5.51784 10.0151 5.33608 9.80796 5.20948C9.60084 5.08287 9.36257 5.01643 9.11982 5.01759C8.89621 5.01797 8.67641 5.07548 8.48126 5.18465C8.28611 5.29383 8.12209 5.45105 8.00476 5.64141C7.88743 5.83176 7.82068 6.04894 7.81084 6.27234C7.801 6.49573 7.8484 6.71793 7.94855 6.91787V6.91787Z" fill="#0033AD"/>
<path d="M18.2351 5.23697C18.3304 5.18889 18.4092 5.11365 18.4618 5.02075C18.5143 4.92784 18.5381 4.82146 18.5302 4.71503C18.5223 4.60861 18.483 4.50692 18.4173 4.42281C18.3516 4.33871 18.2624 4.27597 18.1611 4.24253C18.0597 4.20908 17.9507 4.20642 17.8479 4.2349C17.745 4.26337 17.6529 4.3217 17.5832 4.4025C17.5135 4.4833 17.4693 4.58296 17.4562 4.68888C17.4431 4.79479 17.4617 4.90221 17.5097 4.99756C17.5742 5.12544 17.6868 5.22249 17.8228 5.26738C17.9589 5.31227 18.1071 5.30133 18.2351 5.23697V5.23697Z" fill="#0033AD"/>
<path d="M14.9078 5.65446C14.7715 5.72308 14.6587 5.83055 14.5835 5.9633C14.5084 6.09605 14.4742 6.2481 14.4855 6.40023C14.4968 6.55236 14.5529 6.69774 14.6468 6.81798C14.7406 6.93822 14.8681 7.02792 15.0129 7.07573C15.1578 7.12355 15.3136 7.12734 15.4606 7.08662C15.6076 7.0459 15.7392 6.9625 15.8388 6.84697C15.9384 6.73144 16.0016 6.58896 16.0202 6.43756C16.0388 6.28615 16.0122 6.13262 15.9435 5.99638C15.8981 5.90585 15.8352 5.82518 15.7585 5.75899C15.6818 5.69279 15.5928 5.64237 15.4966 5.61061C15.4004 5.57886 15.2988 5.56638 15.1978 5.5739C15.0968 5.58143 14.9982 5.6088 14.9078 5.65446V5.65446Z" fill="#0033AD"/>
<path d="M10.6224 1.07865C10.729 1.08472 10.835 1.05904 10.927 1.00485C11.019 0.950668 11.0928 0.870414 11.1392 0.774242C11.1856 0.678071 11.2024 0.570303 11.1875 0.464571C11.1727 0.358839 11.1268 0.259894 11.0557 0.180252C10.9845 0.100609 10.8914 0.043848 10.788 0.0171483C10.6846 -0.00955151 10.5757 -0.0049903 10.4749 0.0302549C10.3741 0.0655001 10.286 0.129846 10.2218 0.215152C10.1576 0.300459 10.1201 0.402893 10.1141 0.509498C10.1061 0.652352 10.1551 0.792547 10.2504 0.89927C10.3457 1.00599 10.4795 1.07051 10.6224 1.07865Z" fill="#0033AD"/>
<path d="M10.6168 4.47594C10.769 4.48448 10.9204 4.44769 11.0517 4.37021C11.1831 4.29274 11.2886 4.17807 11.3548 4.04068C11.421 3.9033 11.4449 3.74937 11.4237 3.59836C11.4024 3.44735 11.3369 3.30602 11.2353 3.19225C11.1338 3.07848 11.0008 2.99737 10.8531 2.95916C10.7055 2.92096 10.5498 2.92738 10.4059 2.97762C10.2619 3.02785 10.136 3.11965 10.0442 3.2414C9.95233 3.36315 9.89864 3.50939 9.8899 3.66164C9.87836 3.866 9.94844 4.06658 10.0847 4.21928C10.221 4.37198 10.4124 4.4643 10.6168 4.47594V4.47594Z" fill="#0033AD"/>
<path d="M6.43785 12.3492C6.57408 12.2805 6.68688 12.1729 6.76198 12.0402C6.83709 11.9074 6.87112 11.7553 6.85979 11.6031C6.84845 11.451 6.79225 11.3056 6.69829 11.1854C6.60434 11.0652 6.47685 10.9756 6.33195 10.9279C6.18704 10.8802 6.03124 10.8765 5.88424 10.9173C5.73725 10.9581 5.60566 11.0416 5.50612 11.1572C5.40658 11.2728 5.34357 11.4154 5.32504 11.5668C5.30652 11.7182 5.33332 11.8718 5.40206 12.008C5.4942 12.1905 5.65507 12.329 5.84931 12.393C6.04355 12.457 6.25525 12.4412 6.43785 12.3492V12.3492Z" fill="#0033AD"/>
<path d="M11.115 5.60111C10.955 5.84523 10.881 6.13573 10.9047 6.42663C10.9284 6.71753 11.0485 6.99221 11.2459 7.20721C11.4433 7.42221 11.7067 7.56524 11.9945 7.61366C12.2823 7.66208 12.5781 7.61313 12.835 7.47456C13.0918 7.33599 13.2952 7.11571 13.4128 6.84858C13.5303 6.58145 13.5555 6.28273 13.4842 5.99971C13.4129 5.71668 13.2493 5.46551 13.0192 5.28594C12.7891 5.10638 12.5057 5.00868 12.2138 5.0083C11.9959 5.00815 11.7813 5.06226 11.5894 5.16575C11.3976 5.26924 11.2345 5.41886 11.115 5.60111V5.60111Z" fill="#0033AD"/>
<path d="M13.3961 11.0868C13.291 10.8784 13.1322 10.7018 12.9361 10.5753C12.74 10.4487 12.5137 10.3768 12.2805 10.3669C12.0473 10.357 11.8156 10.4095 11.6095 10.519C11.4034 10.6285 11.2302 10.791 11.1078 10.9898C10.9855 11.1885 10.9183 11.4163 10.9134 11.6497C10.9084 11.883 10.9658 12.1135 11.0797 12.3173C11.1935 12.521 11.3596 12.6907 11.561 12.8089C11.7623 12.927 11.9914 12.9893 12.2248 12.9893C12.4302 12.9878 12.6324 12.9388 12.8155 12.8459C13.1253 12.6891 13.3603 12.416 13.4691 12.0863C13.5779 11.7566 13.5517 11.3972 13.3961 11.0868V11.0868Z" fill="#0033AD"/>
<path d="M15.6887 10.9952C15.5612 10.9115 15.4117 10.8674 15.2592 10.8687C15.1066 10.8699 14.9579 10.9164 14.8317 11.0021C14.7056 11.0879 14.6077 11.2092 14.5505 11.3506C14.4932 11.492 14.4792 11.6472 14.5102 11.7966C14.5412 11.9459 14.6158 12.0828 14.7245 12.1897C14.8332 12.2967 14.9713 12.3691 15.1211 12.3976C15.271 12.4262 15.4259 12.4096 15.5664 12.3501C15.7068 12.2906 15.8265 12.1907 15.9102 12.0632C16.0221 11.8921 16.0616 11.6836 16.0201 11.4834C15.9786 11.2833 15.8594 11.1077 15.6887 10.9952V10.9952Z" fill="#0033AD"/>
<path d="M18.1999 9.0246C18.2072 8.89525 18.176 8.76665 18.1102 8.65504C18.0445 8.54343 17.9471 8.45383 17.8304 8.39755C17.7137 8.34128 17.5829 8.32087 17.4546 8.33889C17.3263 8.35692 17.2063 8.41257 17.1096 8.49882C17.0129 8.58507 16.944 8.69804 16.9115 8.82346C16.8791 8.94887 16.8845 9.0811 16.9272 9.20342C16.9698 9.32575 17.0478 9.43268 17.1512 9.51071C17.2546 9.58873 17.3789 9.63434 17.5082 9.64178C17.6817 9.65156 17.8521 9.59206 17.9818 9.47633C18.1115 9.36061 18.1899 9.19813 18.1999 9.0246V9.0246Z" fill="#0033AD"/>
<path d="M20.0151 8.55783C19.9314 8.55301 19.848 8.57314 19.7757 8.61568C19.7033 8.65822 19.6452 8.72126 19.6087 8.79683C19.5722 8.8724 19.5589 8.9571 19.5705 9.04023C19.5821 9.12335 19.6181 9.20116 19.674 9.26382C19.7298 9.32648 19.803 9.37117 19.8842 9.39224C19.9655 9.41332 20.0511 9.40983 20.1304 9.38221C20.2096 9.3546 20.2789 9.3041 20.3295 9.23711C20.38 9.17011 20.4096 9.08963 20.4144 9.00584C20.4207 8.89353 20.3822 8.78332 20.3073 8.69935C20.2325 8.61537 20.1274 8.56448 20.0151 8.55783V8.55783Z" fill="#0033AD"/>
<path d="M18.3062 12.7655C18.2169 12.707 18.1123 12.6763 18.0056 12.6773C17.8988 12.6782 17.7948 12.7108 17.7066 12.7709C17.6184 12.831 17.5499 12.9159 17.51 13.0149C17.47 13.1139 17.4603 13.2225 17.482 13.327C17.5038 13.4314 17.556 13.5272 17.6321 13.602C17.7082 13.6768 17.8048 13.7274 17.9097 13.7473C18.0146 13.7672 18.123 13.7556 18.2212 13.7139C18.3195 13.6722 18.4032 13.6024 18.4618 13.5131C18.5007 13.4538 18.5275 13.3874 18.5407 13.3178C18.554 13.2481 18.5534 13.1765 18.5389 13.1071C18.5245 13.0376 18.4965 12.9717 18.4565 12.9131C18.4166 12.8545 18.3655 12.8043 18.3062 12.7655V12.7655Z" fill="#0033AD"/>
<path d="M6.26361 16.7273C6.19345 16.6812 6.11121 16.657 6.02729 16.6577C5.94337 16.6584 5.86155 16.684 5.79215 16.7312C5.72276 16.7784 5.66892 16.8451 5.63744 16.9229C5.60596 17.0007 5.59825 17.086 5.61528 17.1682C5.63232 17.2504 5.67333 17.3257 5.73315 17.3845C5.79296 17.4434 5.86888 17.4832 5.95132 17.4989C6.03375 17.5146 6.119 17.5056 6.19627 17.4728C6.27355 17.4401 6.33939 17.3852 6.38547 17.3151C6.41607 17.2685 6.4372 17.2163 6.44764 17.1615C6.45808 17.1068 6.45763 17.0505 6.44632 16.9959C6.435 16.9413 6.41304 16.8895 6.38169 16.8434C6.35034 16.7973 6.31022 16.7579 6.26361 16.7273V16.7273Z" fill="#0033AD"/>
<path d="M15.1582 16.6829C15.0832 16.7206 15.0211 16.7798 14.9798 16.8529C14.9385 16.9259 14.9197 17.0096 14.926 17.0933C14.9322 17.177 14.9631 17.257 15.0148 17.3231C15.0665 17.3892 15.1366 17.4386 15.2163 17.4648C15.2961 17.4911 15.3818 17.4932 15.4627 17.4707C15.5435 17.4483 15.6159 17.4023 15.6707 17.3387C15.7255 17.2751 15.7602 17.1967 15.7704 17.1134C15.7806 17.0301 15.7658 16.9456 15.728 16.8707C15.703 16.8209 15.6684 16.7765 15.6262 16.7401C15.584 16.7037 15.535 16.6759 15.4821 16.6585C15.4291 16.641 15.3733 16.6342 15.3177 16.6384C15.2621 16.6426 15.2079 16.6577 15.1582 16.6829Z" fill="#0033AD"/>
<path d="M10.2293 12.4009C10.3893 12.1567 10.4632 11.8662 10.4395 11.5752C10.4158 11.2843 10.2957 11.0096 10.0983 10.7946C9.90082 10.5796 9.63731 10.4366 9.34945 10.3883C9.06159 10.3399 8.76582 10.3889 8.50896 10.5276C8.2521 10.6662 8.04882 10.8866 7.93131 11.1538C7.8138 11.421 7.78876 11.7197 7.86017 12.0028C7.93157 12.2858 8.09533 12.5369 8.32553 12.7164C8.55573 12.8959 8.83922 12.9934 9.13112 12.9937C9.3491 12.9944 9.5638 12.9405 9.75563 12.837C9.94745 12.7334 10.1103 12.5835 10.2293 12.4009Z" fill="#0033AD"/>
<path d="M7.60857 14.414C7.50015 14.3431 7.37315 14.3059 7.2436 14.3072C7.11405 14.3084 6.98778 14.348 6.88075 14.421C6.77372 14.494 6.69073 14.5971 6.64228 14.7173C6.59382 14.8374 6.58208 14.9692 6.60852 15.096C6.63497 15.2229 6.69842 15.339 6.79086 15.4298C6.8833 15.5205 7.00057 15.5819 7.12786 15.606C7.25514 15.6301 7.38672 15.616 7.50597 15.5653C7.62522 15.5147 7.72678 15.4299 7.79781 15.3215C7.89295 15.1761 7.92646 14.9988 7.89098 14.8286C7.85549 14.6585 7.75392 14.5093 7.60857 14.414V14.414Z" fill="#0033AD"/>
<path d="M10.6661 16.9252C10.5595 16.9191 10.4536 16.9448 10.3616 16.999C10.2696 17.0531 10.1958 17.1333 10.1494 17.2295C10.103 17.3256 10.0861 17.4333 10.1009 17.539C10.1158 17.6447 10.1616 17.7437 10.2326 17.8233C10.3037 17.903 10.3967 17.9598 10.5001 17.9866C10.6034 18.0134 10.7123 18.0089 10.8131 17.9738C10.9139 17.9386 11.002 17.8744 11.0663 17.7892C11.1306 17.704 11.1682 17.6016 11.1743 17.4951C11.1784 17.4243 11.1685 17.3534 11.1451 17.2864C11.1218 17.2194 11.0855 17.1577 11.0383 17.1048C10.9911 17.0519 10.9339 17.0088 10.8701 16.978C10.8062 16.9472 10.7369 16.9292 10.6661 16.9252Z" fill="#0033AD"/>
<path d="M10.6726 13.5288C10.5202 13.5195 10.3685 13.5557 10.2366 13.6327C10.1048 13.7097 9.99882 13.8242 9.93208 13.9615C9.86534 14.0988 9.84086 14.2528 9.86174 14.4041C9.88261 14.5553 9.9479 14.697 10.0493 14.8111C10.1508 14.9252 10.2838 15.0066 10.4316 15.0451C10.5793 15.0835 10.7352 15.0772 10.8794 15.0271C11.0236 14.9769 11.1496 14.885 11.2415 14.7631C11.3335 14.6412 11.3872 14.4948 11.3958 14.3423C11.4076 14.1386 11.338 13.9385 11.2024 13.786C11.0669 13.6335 10.8763 13.541 10.6726 13.5288V13.5288Z" fill="#0033AD"/>
<path d="M13.8269 14.362C13.7111 14.4207 13.6154 14.5125 13.5518 14.6256C13.4883 14.7388 13.4597 14.8683 13.4697 14.9977C13.4798 15.1271 13.528 15.2506 13.6083 15.3526C13.6885 15.4545 13.7973 15.5304 13.9207 15.5706C14.0441 15.6108 14.1766 15.6134 14.3016 15.5782C14.4265 15.543 14.5382 15.4715 14.6224 15.3728C14.7067 15.2741 14.7598 15.1526 14.775 15.0237C14.7902 14.8948 14.7669 14.7643 14.7078 14.6487C14.6689 14.572 14.6152 14.5037 14.5498 14.4478C14.4844 14.3918 14.4087 14.3493 14.3268 14.3227C14.245 14.296 14.1587 14.2858 14.0729 14.2925C13.9872 14.2993 13.9035 14.3229 13.8269 14.362V14.362Z" fill="#0033AD"/>
<path d="M28.3024 5.90317C29.5726 5.90317 30.4622 6.60135 30.4622 7.89735H32.1259C32.1259 5.62361 30.4492 4.52832 28.2773 4.52832C25.6093 4.52832 24.0596 5.977 24.0596 9.03851C24.0596 12.176 25.6093 13.548 28.2773 13.548C30.4751 13.548 32.1259 12.4814 32.1259 10.2069H30.5252C30.5252 11.4771 29.6486 12.176 28.3031 12.176C26.5369 12.176 25.7226 11.1976 25.7226 9.16539V8.91164C25.724 6.9189 26.5491 5.90317 28.3024 5.90317Z" fill="#0033AD"/>
<path d="M36.5248 4.68262L33.1328 13.3976H34.8102L35.5083 11.5045H39.4945L40.2114 13.3976H41.9647L38.5706 4.68262H36.5248ZM36.0166 10.1304L36.9061 7.74126C37.0839 7.27175 37.4014 6.25531 37.4652 6.07754H37.5283C37.5921 6.25531 37.9097 7.28393 38.0874 7.74126L38.9763 10.1297L36.0166 10.1304Z" fill="#0033AD"/>
<path d="M51.0347 7.32479C51.0347 5.71196 50.1071 4.68262 48.1889 4.68262H43.5898V13.3976H45.2163V10.0286H47.9215L49.5702 13.3976H51.3486L49.4849 9.77701C50.5135 9.37058 51.0347 8.50682 51.0347 7.32479ZM48.0613 8.65878H45.2163V6.0675H48.0613C48.938 6.0675 49.3953 6.53773 49.3953 7.32479C49.3953 8.15128 48.9 8.65878 48.0613 8.65878Z" fill="#0033AD"/>
<path d="M56.7401 4.68262H53.2578V13.3976H56.7387C59.3679 13.3976 60.9679 12.0257 60.9679 9.04013C60.9679 6.0546 59.3694 4.68262 56.7401 4.68262ZM59.3063 9.16701C59.2934 11.073 58.3916 12.0128 56.7401 12.0128H54.8857V6.0675H56.7401C58.3888 6.0675 59.3063 7.00796 59.3063 8.91325V9.16701Z" fill="#0033AD"/>
<path d="M65.2284 4.68262L61.835 13.3976H63.5116L64.2105 11.5045H68.1996L68.9106 13.3976H70.664L67.272 4.68262H65.2284ZM64.7201 10.1304L65.6083 7.74126C65.786 7.27175 66.1036 6.25531 66.1674 6.07754H66.2319C66.295 6.25531 66.6132 7.28393 66.791 7.74126L67.6799 10.1297L64.7201 10.1304Z" fill="#0033AD"/>
<path d="M78.0975 9.8659C78.0975 10.0308 78.1226 10.4752 78.1226 10.5519L78.0595 10.577C78.0215 10.5268 77.767 10.0817 77.6294 9.8788L73.8439 4.68262H72.292V13.3976H73.8546V8.17637C73.8546 7.96132 73.8288 7.54127 73.8288 7.47747L73.8926 7.43948C73.9306 7.49038 74.1213 7.85882 74.3227 8.15128L78.134 13.3976H79.658V4.68262H78.096V9.8659H78.0975Z" fill="#0033AD"/>
<path d="M86.1355 4.53125C83.4045 4.53125 81.7529 5.97921 81.7529 9.04073C81.7529 12.1022 83.4016 13.5502 86.1355 13.5502C88.8695 13.5502 90.531 12.1022 90.531 9.04073C90.531 5.97921 88.8666 4.53125 86.1355 4.53125ZM88.8666 9.18051C88.8666 11.1747 87.9139 12.1782 86.1355 12.1782C84.37 12.1782 83.4174 11.1747 83.4174 9.18051V8.91385C83.4174 6.91896 84.3829 5.90323 86.1355 5.90323C87.9018 5.90323 88.8666 6.91896 88.8666 8.91385V9.18051Z" fill="#0033AD"/>
</svg>
