<svg id="Layer_1" data-name="Layer 1" xmlns="http://www.w3.org/2000/svg" viewBox="0 0 117.48 128"><title>ARS Argentine Peso</title><path d="M12,89h1.1c5.5,0,11,0,16.48,0a1.1,1.1,0,0,0,1.22-.85C32.32,84.1,33.88,80,35.43,76c.1-.24.17-.5.29-.88H12v-15h1.12c9.13,0,18.27,0,27.4,0a1.2,1.2,0,0,0,1.34-.92Q51.28,34.4,60.74,9.64A1.14,1.14,0,0,1,62,8.73c5.94,0,11.88,0,17.82,0A1.08,1.08,0,0,1,81,9.58q9.38,24.66,18.75,49.3a1.56,1.56,0,0,0,1.77,1.23c8.75,0,17.5,0,26.24,0H129v15H106.06a8.7,8.7,0,0,0,.24.84c1.57,4.13,3.16,8.24,4.7,12.37a1,1,0,0,0,1.1.76c5.25,0,10.51,0,15.76,0H129v15H117c4.18,11,8.31,21.81,12.46,32.73h-18q-2.16-6.07-4.31-12.13-3.51-9.85-7-19.72a1.11,1.11,0,0,0-1.28-.87Q71,104,43,104a1.11,1.11,0,0,0-1.26.9q-5.46,15.48-11,30.93c-.11.3-.24.6-.36.9H12.24c4.16-10.89,8.28-21.71,12.47-32.68H12Zm82.18,0c-.11-.38-.19-.66-.29-.94-1.49-4-3-8-4.45-12.07a1.13,1.13,0,0,0-1.29-.88q-17.27,0-34.55,0a1.09,1.09,0,0,0-1.23.83C50.91,80,49.4,84,47.91,88.06c-.1.27-.18.55-.29.9ZM70.86,25.83,58.24,60.05H83.53C79.32,48.67,75.13,37.34,70.86,25.83Z" transform="translate(-12 -8.73)"/></svg>