<?xml version="1.0" encoding="utf-8"?>
<!-- Svg Vector Icons : http://www.onlinewebfonts.com/icon -->
<!DOCTYPE svg PUBLIC "-//W3C//DTD SVG 1.1//EN" "http://www.w3.org/Graphics/SVG/1.1/DTD/svg11.dtd">
<svg version="1.1" xmlns="http://www.w3.org/2000/svg" xmlns:xlink="http://www.w3.org/1999/xlink" x="0px" y="0px" viewBox="0 0 1000 1000" enable-background="new 0 0 1000 1000" xml:space="preserve">
<metadata> Svg Vector Icons : http://www.onlinewebfonts.com/icon </metadata>
<g><g transform="translate(0.000000,511.000000) scale(0.100000,-0.100000)"><path d="M7593.5,3694.4c0-243,18.4-220.6-212.4-245.1c-196.1-22.5-418.7-87.8-614.7-183.8c-539.2-261.4-812.9-727.1-812.9-1378.6c0-631.1,253.3-1104.9,749.6-1405.1c147-89.9,418.7-206.3,682.1-292.1l208.3-67.4v-1160.1c0-1129.4-2-1160.1-38.8-1160.1c-83.7,0-345.2,59.2-477.9,110.3c-402.3,151.1-582.1,433-618.8,970.1l-14.3,202.2l-61.3,12.3c-32.7,6.1-173.6,12.2-312.5,12.2h-253.3v-147.1c0-345.1,104.1-770,247.1-1011c155.2-259.4,435-496.3,731.2-616.8c163.4-69.4,430.9-138.9,594.3-155.2c228.7-24.5,204.2,26.6,204.2-449.3v-418.7h234.9h234.9v416.7v414.6l200.1,22.5c551.4,63.3,1011,279.8,1260.2,592.3c390.1,490.2,492.2,1290.8,234.9,1854.5c-234.9,520.8-725,853.7-1488.9,1011c-104.2,20.4-194,38.8-198.1,38.8c-4.1,0-8.2,488.1-8.2,1082.5v1082.5h59.2c118.4,0,361.5-63.3,502.4-130.7c294.1-140.9,430.9-353.3,457.5-716.9l12.2-163.4l324.7-6.1l322.7-6.1l-14.3,179.7c-69.5,837.4-561.7,1343.9-1423.6,1466.4c-116.4,16.3-216.5,30.6-224.7,30.6c-10.2,0-16.3,96-16.3,214.4v214.4h-234.9h-234.9V3694.4z M7593.5,1813.3v-1011l-45,12.3c-181.7,55.1-492.2,196.1-610.6,279.8c-267.6,187.9-355.4,402.3-341.1,843.5c6.2,216.5,14.3,259.4,65.4,371.7c67.4,149.1,218.5,302.3,377.8,381.9c114.4,59.2,379.9,130.7,488.1,132.8l65.4,2V1813.3z M8308.3-43.2c447.3-120.5,778.1-351.3,876.2-610.7c118.4-318.6,81.7-823.1-79.7-1084.5c-59.2-98-224.6-245.1-339-302.3c-55.2-28.6-165.5-69.5-243-94c-143-42.9-430.9-85.8-449.3-67.4c-6.2,6.1-10.2,506.5-10.2,1111.1c0,865.9,6.1,1098.8,26.5,1098.8C8102,7.9,8202-14.6,8308.3-43.2z"/><path d="M3075.7,3449.3c-6.1-12.3-657.6-1476.6-1446-3257.6C841.4-1589.2,173.5-3094.5,147-3153.7l-47-106.2l379.9,4.1l379.9,6.1l410.5,980.3l410.5,980.3l1390.9,6.1l1392.9,4.1l241-565.7c130.7-312.5,320.6-755.7,418.7-986.5l179.7-418.7l379.9-6.1c304.3-4.1,379.9,0,371.7,20.4c-6.1,14.3-657.6,1486.8-1450.1,3273.9c-790.4,1787.1-1456.2,3288.2-1478.7,3339.3C3106.4,3426.8,3081.9,3459.5,3075.7,3449.3z M3241.2,1392.6c745.5-1562.4,941.5-1975,941.5-1985.2c0-6.1-486.1-12.2-1082.5-12.2c-594.3,0-1082.5,6.1-1082.5,14.3c0,6.1,208.3,453.4,463.6,994.6c253.2,541.2,492.2,1049.8,531,1131.5c36.8,79.7,73.5,147.1,79.6,147.1C3098.2,1682.6,3165.6,1551.9,3241.2,1392.6z"/></g></g>
</svg>