<svg width="68" height="14" fill="none" xmlns="http://www.w3.org/2000/svg"><path fill-rule="evenodd" clip-rule="evenodd" d="M5.305 13.79A6.998 6.998 0 1 0 8.692.21a6.998 6.998 0 0 0-3.387 13.58zm3.24-9.553c.97.334 1.68.834 1.54 1.766-.1.682-.479 1.012-.98 1.127.689.36 1.04.91.705 1.863-.414 1.185-1.4 1.284-2.709 1.037l-.318 1.274-.768-.192.314-1.257c-.199-.05-.402-.102-.612-.158l-.315 1.262-.767-.191.318-1.276a50.133 50.133 0 0 1-.217-.057l-.33-.085-1-.249.381-.879s.566.15.558.14c.218.053.314-.089.352-.183L5.2 6.165l.055.014.026.006a.637.637 0 0 0-.08-.025l.358-1.438c.01-.163-.047-.369-.358-.446.012-.008-.557-.139-.557-.139l.204-.82 1.06.264-.002.004c.16.04.324.077.49.115l.315-1.26.768.19-.308 1.237c.206.047.413.095.615.145l.306-1.229.768.192-.314 1.262zM6.117 8.81c.627.166 1.997.527 2.214-.348.223-.894-1.105-1.192-1.753-1.338a8.745 8.745 0 0 1-.189-.043l-.421 1.69.15.04zm.591-2.47c.523.14 1.662.443 1.86-.352.204-.813-.904-1.059-1.445-1.178a6.652 6.652 0 0 1-.158-.037L6.58 6.308l.126.033z" fill="#FF9736"/><path d="M20.512 4.235c.568 0 1.058.102 1.47.302a2.96 2.96 0 0 1 1.03.815c.27.343.472.744.602 1.205.129.46.194.957.194 1.488 0 .815-.15 1.586-.451 2.312a5.996 5.996 0 0 1-1.232 1.896 5.79 5.79 0 0 1-1.843 1.274 5.624 5.624 0 0 1-2.301.47c-.107 0-.295-.003-.56-.008a8.18 8.18 0 0 1-.91-.08 10.704 10.704 0 0 1-1.09-.213 5.464 5.464 0 0 1-1.09-.39L17.394.427 20.14.002l-1.097 4.57c.235-.106.472-.188.708-.247.236-.06.49-.09.761-.09zM18.21 11.82c.413 0 .803-.101 1.169-.301.367-.2.683-.47.949-.806.265-.338.475-.718.628-1.143.153-.425.23-.869.23-1.33 0-.567-.094-1.009-.283-1.329-.189-.318-.538-.478-1.045-.478-.166 0-.38.032-.646.088-.267.06-.505.185-.719.373l-1.168 4.854c.07.012.133.024.186.035a1.945 1.945 0 0 0 .38.037h.319zM26.656 13.75h-2.622l2.215-9.317h2.64l-2.233 9.318zm1.276-10.453c-.366 0-.697-.109-.992-.327-.297-.217-.444-.55-.444-1.001 0-.248.05-.48.15-.7a1.871 1.871 0 0 1 .975-.948c.22-.094.452-.14.7-.14.367 0 .697.108.992.326.295.22.443.554.443 1.002 0 .248-.05.481-.151.7a1.843 1.843 0 0 1-.973.947c-.22.096-.452.141-.7.141zM31.186 2.111l2.746-.425-.674 2.746h2.941l-.53 2.16h-2.924l-.78 3.26a3.685 3.685 0 0 0-.123.761c-.013.237.017.44.088.612.07.172.197.304.38.398.184.095.445.143.789.143.283 0 .558-.027.825-.08a5.85 5.85 0 0 0 .805-.222l.195 2.02a9.42 9.42 0 0 1-1.151.337 6.63 6.63 0 0 1-1.47.14c-.815 0-1.447-.12-1.897-.36-.45-.244-.767-.575-.957-.995-.188-.418-.271-.9-.248-1.442a9.343 9.343 0 0 1 .248-1.719l1.737-7.334zM36.084 10.03c0-.803.13-1.56.39-2.268A5.58 5.58 0 0 1 37.59 5.9a5.23 5.23 0 0 1 1.763-1.257c.69-.306 1.46-.46 2.31-.46.533 0 1.008.05 1.427.15.42.102.8.234 1.143.399l-.904 2.056a8.465 8.465 0 0 0-.735-.257 3.198 3.198 0 0 0-.93-.115c-.875 0-1.567.301-2.082.903-.513.601-.771 1.411-.771 2.427 0 .603.13 1.09.39 1.462.26.373.74.558 1.435.558a4.6 4.6 0 0 0 .992-.106c.32-.07.602-.16.851-.265l.196 2.107a9.515 9.515 0 0 1-1.099.347c-.402.098-.88.149-1.435.149-.733 0-1.353-.107-1.86-.318a3.542 3.542 0 0 1-1.257-.86 3.238 3.238 0 0 1-.718-1.267 5.198 5.198 0 0 1-.223-1.523zM47.731 13.998c-.626 0-1.17-.095-1.63-.284a3.01 3.01 0 0 1-1.142-.797 3.444 3.444 0 0 1-.682-1.213 4.9 4.9 0 0 1-.23-1.55c0-.709.115-1.419.345-2.126.23-.71.57-1.347 1.02-1.913a5.445 5.445 0 0 1 1.646-1.393c.648-.359 1.394-.54 2.231-.54.615 0 1.155.096 1.623.285.465.188.849.455 1.151.797.3.344.528.747.68 1.214.155.465.231.983.231 1.55 0 .707-.112 1.417-.335 2.127a6.14 6.14 0 0 1-.992 1.912 5.2 5.2 0 0 1-1.639 1.39c-.655.36-1.414.541-2.277.541zm1.31-7.582c-.388 0-.731.113-1.026.336a2.894 2.894 0 0 0-.743.85 4.199 4.199 0 0 0-.453 1.126c-.1.408-.15.793-.15 1.16 0 .59.096 1.051.283 1.383.19.33.532.495 1.028.495.39 0 .732-.112 1.028-.337.293-.224.542-.508.743-.85.2-.342.352-.717.453-1.125.1-.407.15-.795.15-1.16 0-.59-.095-1.052-.284-1.383-.19-.33-.532-.495-1.028-.495zM55.832 13.75h-2.624l2.214-9.317h2.642l-2.232 9.318zm1.274-10.453c-.365 0-.697-.109-.991-.327-.295-.217-.444-.55-.444-1.001 0-.248.051-.48.151-.7.1-.218.233-.406.4-.566.164-.16.358-.286.575-.382.218-.094.451-.14.699-.14.366 0 .697.108.992.326.295.22.444.554.444 1.002 0 .248-.053.481-.152.7a1.838 1.838 0 0 1-.972.947c-.22.096-.453.141-.702.141zM59.953 4.856c.2-.058.422-.128.663-.204a9.775 9.775 0 0 1 1.825-.371c.373-.043.796-.063 1.267-.063 1.383 0 2.336.402 2.862 1.206.526.803.617 1.902.276 3.295l-1.206 5.03H63l1.17-4.925c.07-.307.126-.604.168-.895a2.12 2.12 0 0 0-.01-.761.912.912 0 0 0-.326-.532c-.173-.136-.435-.204-.79-.204-.341 0-.69.037-1.044.108l-1.719 7.21h-2.64l2.144-8.894z" fill="#272727"/></svg>