<?xml version="1.0" encoding="utf-8"?>
<!-- Svg Vector Icons : http://www.onlinewebfonts.com/icon -->
<!DOCTYPE svg PUBLIC "-//W3C//DTD SVG 1.1//EN" "http://www.w3.org/Graphics/SVG/1.1/DTD/svg11.dtd">
<svg version="1.1" xmlns="http://www.w3.org/2000/svg" xmlns:xlink="http://www.w3.org/1999/xlink" x="0px" y="0px" viewBox="0 0 1000 1000" enable-background="new 0 0 1000 1000" xml:space="preserve">
<metadata> Svg Vector Icons : http://www.onlinewebfonts.com/icon </metadata>
<g><g transform="translate(0.000000,511.000000) scale(0.100000,-0.100000)"><path d="M7640.9,4119.6v-525.2l-186-45c-231-55.2-557.9-212.5-729.6-353.5c-261.6-214.6-461.9-521.1-555.9-858.3c-63.3-222.8-77.6-629.4-32.7-858.3c69.5-341.3,190-564,441.4-819.5c251.4-251.4,447.6-380.1,1164.8-754.1c506.8-263.6,770.4-437.3,950.3-621.3c239.1-245.2,333.1-461.8,351.5-809.3c30.6-596.7-259.6-991.1-819.5-1113.8c-232.9-51.1-629.4-34.7-880.8,38.8c-247.3,71.5-633.5,267.7-856.3,437.3c-100.1,75.6-198.2,149.2-218.6,163.5c-32.7,24.5-55.2,0-237.1-271.8l-198.2-300.4l49.1-38.8c510.9-408.7,1013.6-649.9,1528.6-735.7c75.6-12.3,157.4-26.6,183.9-30.7l45-8.2v-521.1v-521.1h316.8h316.8v531.3c0,408.7,6.1,533.4,26.6,539.5c12.3,4.1,112.4,26.6,218.7,53.1c371.9,87.9,668.3,257.5,927.8,531.3c188,200.3,331,474.1,404.6,766.3c67.4,273.9,63.3,737.7-10.2,1013.6c-87.9,331.1-235,584.5-488.4,827.7C9093.9,89.6,8865,232.6,8204.9,563.7c-547.7,271.8-725.5,384.2-917.6,566.1c-263.6,251.4-365.8,537.5-320.8,891c53.1,421,288.1,692.8,705,819.5c163.5,51.1,557.9,51.1,745.9,0c261.6-67.4,508.9-210.5,750-429.2c67.4-63.4,132.8-114.4,143-112.4c8.2,0,114.4,112.4,237.1,249.3l218.7,247.3l-96.1,100.1c-55.2,55.2-165.5,155.3-247.3,220.7c-322.9,259.5-615.1,386.2-1101.5,480.2l-47,8.2v521.1v521.1h-316.8h-316.8V4119.6z"/><path d="M100,204v-3466h439.4h439.4v1461.2v1461.2h633.5h631.5l833.8-1461.2L3909.3-3262h496.6h496.6l-59.3,98.1c-32.7,53.1-410.8,703-839.9,1444.8c-429.2,741.8-799.1,1377.4-821.5,1414.2l-38.8,65.4l118.5,34.7C4146.3,52.8,4651.1,694.5,4692,1614.1c18.4,418.9-36.8,729.6-188,1040.2c-251.4,519.1-723.4,823.6-1491.8,964.6c-157.4,28.6-386.2,34.7-1547,40.9L100,3667.9V204z M2771,2922c349.4-67.4,641.7-210.5,795-388.3c96-108.3,202.3-335.2,230.9-490.5c30.7-169.6,26.6-506.8-8.2-672.3c-71.5-341.3-302.4-631.5-623.3-786.8C2818,416.5,2523.7,377.7,1608.2,375.7H978.7v1299.7v1299.7l813.4-10.2C2417.5,2956.7,2642.2,2946.5,2771,2922z"/></g></g>
</svg>