<svg id="Layer_1" data-name="Layer 1" xmlns="http://www.w3.org/2000/svg" viewBox="0 0 119.24 119.24"><defs><style>.cls-1{fill:#2d598a;}.cls-2{fill:#fff;}</style></defs><title>BSC BowsCoin</title><circle class="cls-1" cx="59.62" cy="59.62" r="59.62"/><path class="cls-2" d="M48,43H60.75V99.9H48Zm5.59,46.57H75.21A11.19,11.19,0,0,0,82,87.79a5.85,5.85,0,0,0,2.4-5v-.11A6.25,6.25,0,0,0,83.32,79a6.64,6.64,0,0,0-3.15-2.33,13.65,13.65,0,0,0-5-.8H53.57V65.54H75.21a9.82,9.82,0,0,0,6.13-1.68,5.66,5.66,0,0,0,2.17-4.73,4.94,4.94,0,0,0-2.17-4.27,10.54,10.54,0,0,0-6.13-1.53H53.57V43H75.63a31,31,0,0,1,11.23,1.82A15.08,15.08,0,0,1,94,50.11a14.1,14.1,0,0,1,2.43,8.31,11.11,11.11,0,0,1-1.57,5.89,11.88,11.88,0,0,1-4.54,4.21,20.91,20.91,0,0,1-7.18,2.23A20.34,20.34,0,0,1,90.76,73a12.48,12.48,0,0,1,4.85,4.64,13,13,0,0,1,1.65,6.61v.12a14.12,14.12,0,0,1-2.45,8.37,15.09,15.09,0,0,1-7.13,5.3A31,31,0,0,1,76.42,99.9H53.57Z" transform="translate(-10.71 -11.44)"/></svg>