<svg id="Layer_1" data-name="Layer 1" xmlns="http://www.w3.org/2000/svg" viewBox="0 0 136.42 28.5"><defs><style>.cls-1{fill:#f39322;}.cls-2{fill:#fff;}.cls-3{fill:#4e4d4d;}</style></defs><title>BTC Bitcoin</title><g id="Layer_1-2" data-name="Layer_1"><g id="_1421487920208" data-name=" 1421487920208"><path class="cls-1" d="M31.18,74.83A14.24,14.24,0,1,1,20.79,57.58h0A14.24,14.24,0,0,1,31.18,74.83Z" transform="translate(-3.12 -57.15)"/><path class="cls-2" d="M20.59,69.33c-.44,1.78-3.16.87-4,.65l.78-3.12c.87.22,3.71.63,3.25,2.47Zm-.48,5c-.48,1.94-3.75.89-4.81.63l.86-3.44C17.22,71.82,20.61,72.34,20.11,74.36Zm3.56-5c.28-1.9-1.16-2.92-3.12-3.59l.64-2.57-1.58-.39L19,65.31,17.74,65l.62-2.52-1.56-.4-.64,2.57-1-.22L13,63.9l-.42,1.67s1.16.27,1.14.29a.83.83,0,0,1,.73.89l-.73,2.92.16,0-.17,0-1,4.1a.57.57,0,0,1-.71.37h0s-1.14-.28-1.14-.28l-.78,1.78,2,.5,1.11.29L12.57,79l1.57.39.64-2.56,1.24.32-.63,2.57,1.56.39.64-2.59c2.67.5,4.67.3,5.52-2.11a2.74,2.74,0,0,0-1.44-3.79,2.49,2.49,0,0,0,2-2.29Z" transform="translate(-3.12 -57.15)"/><path class="cls-3" d="M40.2,81.18a4.79,4.79,0,0,0,2.37-.62A6.13,6.13,0,0,0,44.5,79a8.28,8.28,0,0,0,1.28-2.33,7.75,7.75,0,0,0,.47-2.7,5.26,5.26,0,0,0-.58-2.7,2.25,2.25,0,0,0-2.12-1,7.57,7.57,0,0,0-1.34.18,3.42,3.42,0,0,0-1.46.76L38.39,81l.38.07a2,2,0,0,0,.35.06,3.17,3.17,0,0,0,.44,0Zm4.68-15.42a6.83,6.83,0,0,1,3,.62A5.85,5.85,0,0,1,50,68a7,7,0,0,1,1.24,2.46,11.41,11.41,0,0,1,.4,3,12.33,12.33,0,0,1-3.45,8.54,11.88,11.88,0,0,1-3.75,2.59,11.41,11.41,0,0,1-4.68,1H38.59c-.62,0-1.24-.08-1.85-.16A21.47,21.47,0,0,1,34.51,85a11.08,11.08,0,0,1-2.22-.79L38.54,58l5.59-.89L41.9,66.44a8.47,8.47,0,0,1,1.44-.5,6.25,6.25,0,0,1,1.55-.18Z" transform="translate(-3.12 -57.15)"/><path class="cls-3" d="M60,63.85a3.3,3.3,0,0,1-2-.66,2.39,2.39,0,0,1-.89-2,3.34,3.34,0,0,1,.31-1.42,3.91,3.91,0,0,1,.81-1.16,4.31,4.31,0,0,1,1.17-.77,3.69,3.69,0,0,1,1.43-.29,3.3,3.3,0,0,1,2,.67,2.36,2.36,0,0,1,.89,2,3.33,3.33,0,0,1-.3,1.42,3.87,3.87,0,0,1-.81,1.15,4,4,0,0,1-1.17.78,3.51,3.51,0,0,1-1.43.28ZM57.38,85.12H52l4.51-19h5.37l-4.54,19Z" transform="translate(-3.12 -57.15)"/><path class="cls-3" d="M66.6,61.44l5.58-.86-1.39,5.58h6l-1.07,4.4H69.76l-1.58,6.61a7.48,7.48,0,0,0-.25,1.55A2.82,2.82,0,0,0,68.11,80a1.54,1.54,0,0,0,.77.8,3.58,3.58,0,0,0,1.61.3,8.52,8.52,0,0,0,1.67-.17,12.76,12.76,0,0,0,1.64-.44l.4,4.11a21.53,21.53,0,0,1-2.34.68,13.72,13.72,0,0,1-3,.29A8.24,8.24,0,0,1,65,84.8a4.29,4.29,0,0,1-2-2,6.44,6.44,0,0,1-.51-2.94,18.82,18.82,0,0,1,.51-3.5L66.6,61.42v0Z" transform="translate(-3.12 -57.15)"/><path class="cls-3" d="M76.58,77.55a13.24,13.24,0,0,1,.79-4.62,11.32,11.32,0,0,1,2.27-3.78,10.5,10.5,0,0,1,3.59-2.56,11.48,11.48,0,0,1,4.7-.94,12.82,12.82,0,0,1,2.9.31,11.81,11.81,0,0,1,2.32.81L91.3,70.94c-.48-.2-1-.36-1.5-.52a6.67,6.67,0,0,0-1.89-.24A5.32,5.32,0,0,0,83.7,72,7.37,7.37,0,0,0,82.13,77a5.13,5.13,0,0,0,.79,3,3.32,3.32,0,0,0,2.92,1.13,9.76,9.76,0,0,0,2-.21,9.94,9.94,0,0,0,1.73-.54l.4,4.29a22,22,0,0,1-2.22.7,12,12,0,0,1-2.92.3A9.94,9.94,0,0,1,81,85a7.26,7.26,0,0,1-2.56-1.75A6.75,6.75,0,0,1,77,80.65a11,11,0,0,1-.45-3.12l0,0Z" transform="translate(-3.12 -57.15)"/><path class="cls-3" d="M102.93,70.2a3.4,3.4,0,0,0-2.09.68,5.81,5.81,0,0,0-1.51,1.73,8.8,8.8,0,0,0-1,2.29,10.38,10.38,0,0,0-.3,2.36,5.69,5.69,0,0,0,.58,2.81,2.2,2.2,0,0,0,2.09,1,3.36,3.36,0,0,0,2.09-.68,6,6,0,0,0,1.51-1.73,8.39,8.39,0,0,0,.92-2.29,9.92,9.92,0,0,0,.31-2.36A5.75,5.75,0,0,0,105,71.2a2.22,2.22,0,0,0-2.09-1Zm-2.67,15.43a8.74,8.74,0,0,1-3.32-.58,6.21,6.21,0,0,1-2.33-1.62A7.08,7.08,0,0,1,93.23,81a9.93,9.93,0,0,1-.45-3.15,13.87,13.87,0,0,1,.7-4.33,12.13,12.13,0,0,1,2.06-3.87,10.88,10.88,0,0,1,3.35-2.83,9.18,9.18,0,0,1,4.54-1.1,8.89,8.89,0,0,1,3.3.57,6.27,6.27,0,0,1,2.33,1.6,7,7,0,0,1,1.39,2.47,9.66,9.66,0,0,1,.44,3.16,14.08,14.08,0,0,1-.68,4.32,12.49,12.49,0,0,1-2,3.9,10.64,10.64,0,0,1-3.33,2.82,9.36,9.36,0,0,1-4.6,1.11Z" transform="translate(-3.12 -57.15)"/><path class="cls-3" d="M119.33,63.85a3.26,3.26,0,0,1-2-.66,2.36,2.36,0,0,1-.89-2,3.34,3.34,0,0,1,.31-1.42,4,4,0,0,1,.79-1.16,4.17,4.17,0,0,1,1.17-.77,3.68,3.68,0,0,1,1.42-.29,3.32,3.32,0,0,1,2,.67,2.39,2.39,0,0,1,.89,2,3.35,3.35,0,0,1-.32,1.42,3.66,3.66,0,0,1-.8,1.15,4,4,0,0,1-1.17.78,3.62,3.62,0,0,1-1.41.28Zm-2.59,21.27H111.4l4.5-19h5.38Z" transform="translate(-3.12 -57.15)"/><path class="cls-3" d="M125.12,67c.41-.11.86-.25,1.34-.41s1-.3,1.66-.44a17.51,17.51,0,0,1,2-.33,24.44,24.44,0,0,1,2.57-.13q4.23,0,5.83,2.45a6.52,6.52,0,0,1,1,3.59v.1a13.27,13.27,0,0,1-.41,3l-2.46,10.24h-5.35l2.38-10c.14-.62.26-1.22.34-1.82a4.43,4.43,0,0,0,0-1.54,1.84,1.84,0,0,0-.67-1.09,2.58,2.58,0,0,0-1.6-.41,10.13,10.13,0,0,0-2.13.22l-3.49,14.68h-5.39L125.12,67Z" transform="translate(-3.12 -57.15)"/></g></g></svg>