<svg width="44" height="28" fill="none" xmlns="http://www.w3.org/2000/svg"><path d="M37 .5H6.962c-1.382 0-2.47 0-3.32.114-.873.118-1.57.363-2.117.911-.548.548-.793 1.244-.91 2.117C.5 4.492.5 5.58.5 6.962v14.076c0 1.382 0 2.47.114 3.32.118.873.363 1.57.911 2.117.548.548 1.244.793 2.117.91.85.115 1.938.115 3.32.115h30.076c1.382 0 2.47 0 3.32-.114.873-.118 1.57-.363 2.117-.911.548-.548.793-1.244.91-2.117.115-.85.115-1.938.115-3.32V6.962c0-1.382 0-2.47-.114-3.32-.118-.873-.363-1.57-.911-2.117-.548-.548-1.244-.793-2.117-.91C39.508.5 38.42.5 37.038.5H37z" fill="#D8FDFF" stroke="#7AA4BB"/><path d="M12.304 18.348a3.652 3.652 0 1 1-7.304 0 3.652 3.652 0 0 1 7.304 0z" fill="#EB001B"/><path d="M15.957 18.348a3.652 3.652 0 1 1-7.304 0 3.652 3.652 0 0 1 7.303 0z" fill="#F79E1B"/><path d="M10.478 21.511a3.65 3.65 0 0 1-1.826-3.163 3.65 3.65 0 0 1 1.826-3.164 3.65 3.65 0 0 1 1.826 3.164 3.65 3.65 0 0 1-1.826 3.163z" fill="#FF5F00"/><path d="M27.491 22.017H25.71l1.115-6.893h1.782l-1.115 6.893zM33.95 15.293A4.394 4.394 0 0 0 32.353 15c-1.76 0-3 .938-3.007 2.28-.014.99.888 1.54 1.562 1.87.69.338.924.558.924.858-.007.462-.557.675-1.07.675-.712 0-1.093-.11-1.672-.367l-.235-.11-.25 1.547c.419.19 1.189.36 1.988.367 1.87 0 3.087-.924 3.102-2.354.007-.784-.47-1.385-1.496-1.877-.623-.315-1.005-.528-1.005-.85.007-.294.323-.594 1.026-.594a3.028 3.028 0 0 1 1.328.264l.161.073.243-1.489zM36.32 19.575l.711-1.928c-.007.015.147-.403.235-.66l.124.594s.338 1.65.411 1.994H36.32zm2.2-4.45H37.14c-.425 0-.748.124-.931.571l-2.648 6.32h1.87l.374-1.033h2.289l.212 1.034h1.65l-1.437-6.893zM24.22 15.124l-1.746 4.7-.19-.953c-.323-1.1-1.335-2.295-2.465-2.889l1.599 6.028h1.885l2.8-6.886H24.22z" fill="#00579F"/><path d="M20.854 15.124h-2.868l-.029.14c2.237.572 3.718 1.95 4.327 3.608l-.624-3.168c-.102-.44-.418-.565-.806-.58z" fill="#DD6B02"/><path fill="#7AA4BB" d="M1 6h42v4H1z"/></svg>