<svg id="Layer_1" data-name="Layer 1" xmlns="http://www.w3.org/2000/svg" xmlns:xlink="http://www.w3.org/1999/xlink" viewBox="0 0 119.24 119.24"><defs><style>.cls-1{fill:url(#linear-gradient);}.cls-2{fill:#fefefe;}</style><linearGradient id="linear-gradient" y1="59.62" x2="119.24" y2="59.62" gradientUnits="userSpaceOnUse"><stop offset="0" stop-color="#0154f9"/><stop offset="1" stop-color="#0141be"/></linearGradient></defs><title>CPD CoinsPaid</title><circle class="cls-1" cx="59.62" cy="59.62" r="59.62"/><path class="cls-2" d="M86,32.54V44.65c-2.86,0-5.71,0-8.55,0a12.29,12.29,0,0,0-10.79,6A12.73,12.73,0,0,0,77.38,70.17c2.81.08,5.61,0,8.57,0V82.43c-6.69.18-13.39.68-19.68-2.51a25,25,0,0,1-12.15-13l-1-2.33s-.1,0-.3-.12a20.65,20.65,0,0,0-.28,10.41,25.41,25.41,0,0,0,25,20.47H86v12.14c-25.86,3.35-43.62-12.78-46-33.24A37.51,37.51,0,0,1,73.42,32.6C77.54,32.21,81.72,32.54,86,32.54Z" transform="translate(-10.71 -11.44)"/></svg>