<?xml version="1.0" encoding="UTF-8"?>
<!DOCTYPE svg PUBLIC "-//W3C//DTD SVG 1.1//EN" "http://www.w3.org/Graphics/SVG/1.1/DTD/svg11.dtd">
<svg version="1.1" xmlns="http://www.w3.org/2000/svg" xmlns:xlink="http://www.w3.org/1999/xlink" x="0" y="0" width="599.992" height="600.006" viewBox="0, 0, 599.992, 600.006">
  <g id="Layer_1" transform="translate(-300.004, -299.997)">
    <g>
      <path d="M600,299.997 C434.578,299.997 300.004,434.577 300.004,599.997 C300.004,765.431 434.578,900.003 600,900.003 C765.424,900.003 899.996,765.431 899.996,599.997 C899.996,434.577 765.424,299.997 600,299.997 z M787.906,414.224 L805.752,395.474 C840.746,430.683 866.799,474.788 880.172,524.062 L854.858,530.171 C844.587,532.642 831.872,527.196 826.585,518.04 L784.278,444.77 C778.996,435.62 780.635,421.878 787.906,414.224 z M600,309.755 C625.68,309.755 650.582,313.109 674.309,319.398 L666.942,344.384 C663.954,354.509 652.874,362.8 642.313,362.8 L557.694,362.8 C547.13,362.8 536.048,354.509 533.059,344.384 L525.69,319.398 C549.422,313.108 574.33,309.755 600,309.755 z M394.27,395.464 L412.1,414.21 C419.383,421.878 421.012,435.62 415.733,444.755 L373.422,518.04 C368.149,527.183 355.432,532.628 345.156,530.171 L319.838,524.048 C333.207,474.774 359.27,430.667 394.27,395.464 z M412.1,785.792 L394.262,804.548 C359.258,769.331 333.207,725.23 319.83,675.952 L345.162,669.827 C355.432,667.358 368.148,672.823 373.428,681.962 L415.733,755.247 C421.018,764.382 419.383,778.124 412.1,785.792 z M600,890.247 C574.328,890.247 549.422,886.893 525.689,880.604 L533.058,855.618 C536.046,845.491 547.128,837.204 557.693,837.204 L642.312,837.204 C652.873,837.204 663.953,845.491 666.941,855.618 L674.308,880.604 C650.582,886.894 625.68,890.247 600,890.247 z M600,817.507 C479.875,817.507 382.5,720.122 382.5,599.997 C382.5,479.88 479.875,382.507 600,382.507 C720.096,382.507 817.498,479.88 817.498,599.997 C817.498,720.122 720.096,817.507 600,817.507 z M805.746,804.534 L787.906,785.792 C780.635,778.124 778.988,764.382 784.267,755.247 L826.583,681.962 C831.862,672.823 844.577,667.358 854.843,669.827 L880.171,675.948 C866.793,725.224 840.74,769.331 805.746,804.534 z" fill="#105434"/>
      <path d="M600,400.362 C489.75,400.362 400.359,489.737 400.359,599.991 C400.359,710.247 489.75,799.641 600,799.641 C710.236,799.641 799.635,710.246 799.635,599.991 C799.635,489.737 710.236,400.362 600,400.362 z M713.029,693.968 C711.73,696.347 708.484,697.859 705.828,697.37 L615.342,679.85 C612.668,679.287 611.789,680.704 613.285,682.987 L661.039,752.456 C662.605,754.712 661.623,756.515 658.937,756.515 L541.459,756.515 C538.758,756.515 537.787,754.712 539.313,752.456 L587.073,682.987 C588.598,680.704 587.661,679.288 585.028,679.85 L496.128,697.055 C493.456,697.547 490.146,696.034 488.792,693.715 L452.978,632.006 C451.636,629.656 451.894,626.031 453.597,623.877 L597.066,445.047 C598.773,442.973 601.533,442.973 603.261,445.047 L746.367,623.331 C748.051,625.503 748.394,629.149 747.092,631.552 L713.029,693.968 z" fill="#105434"/>
    </g>
  </g>
</svg>
