<svg width="79" height="20" fill="none" xmlns="http://www.w3.org/2000/svg"><path d="M25.215 15V5.758h2.73c.816 0 1.54.182 2.17.546.635.364 1.126.88 1.473 1.549.347.668.52 1.434.52 2.297v.464c0 .876-.175 1.646-.526 2.31a3.652 3.652 0 0 1-1.492 1.536c-.643.36-1.382.54-2.215.54h-2.66zm1.606-7.947v6.665h1.047c.842 0 1.488-.263 1.936-.787.453-.53.684-1.287.692-2.273v-.514c0-1.003-.218-1.769-.654-2.298-.436-.529-1.068-.793-1.898-.793h-1.123zM33.27 11.502c0-.672.133-1.278.4-1.815a2.896 2.896 0 0 1 1.123-1.244c.483-.292 1.037-.438 1.663-.438.927 0 1.678.298 2.254.895.58.597.893 1.388.94 2.374l.006.362c0 .677-.131 1.282-.394 1.815-.258.533-.63.946-1.117 1.238-.482.292-1.041.438-1.676.438-.969 0-1.745-.322-2.33-.965-.58-.647-.869-1.509-.869-2.583v-.077zm1.542.134c0 .706.147 1.26.439 1.663.291.398.698.597 1.218.597s.925-.204 1.213-.61c.292-.406.438-1 .438-1.784 0-.694-.15-1.244-.451-1.65-.296-.406-.7-.61-1.212-.61-.504 0-.904.202-1.2.604-.296.397-.444.994-.444 1.79zM40.69 11.515c0-1.066.25-1.917.75-2.552.503-.639 1.17-.958 1.999-.958.783 0 1.399.273 1.847.819l.07-.692h1.39v6.659c0 .9-.281 1.612-.844 2.132-.559.52-1.314.781-2.266.781-.504 0-.997-.106-1.48-.317-.477-.208-.841-.48-1.091-.82l.73-.926c.474.563 1.058.844 1.752.844.512 0 .916-.14 1.212-.419.297-.275.445-.68.445-1.218v-.464c-.445.495-1.037.743-1.778.743-.804 0-1.462-.32-1.974-.959-.508-.638-.762-1.523-.762-2.653zm1.537.133c0 .69.14 1.234.419 1.632.283.393.675.59 1.174.59.622 0 1.083-.266 1.384-.8V10.05c-.292-.52-.75-.78-1.371-.78-.508 0-.904.2-1.188.602-.279.402-.418.995-.418 1.777zM51.36 15.127c-.977 0-1.77-.307-2.38-.92-.605-.618-.907-1.44-.907-2.463v-.19c0-.686.13-1.298.393-1.835a3.037 3.037 0 0 1 1.117-1.263c.479-.3 1.012-.451 1.6-.451.935 0 1.657.298 2.165.895.512.597.768 1.44.768 2.533v.622h-4.488c.047.567.235 1.015.565 1.345.334.33.753.495 1.257.495.706 0 1.282-.285 1.726-.856l.832.793c-.275.41-.643.73-1.105.958a3.455 3.455 0 0 1-1.542.337zm-.183-5.884c-.423 0-.766.148-1.029.444-.258.296-.423.709-.495 1.238h2.94v-.115c-.035-.516-.172-.905-.413-1.167-.242-.267-.576-.4-1.003-.4zM58.14 13.896c.385 0 .705-.113.959-.337a1.15 1.15 0 0 0 .406-.832h1.453c-.016.428-.15.828-.4 1.2-.25.368-.588.66-1.015.876a3.027 3.027 0 0 1-1.384.324c-.96 0-1.722-.311-2.285-.933-.563-.622-.844-1.481-.844-2.577v-.159c0-1.045.28-1.881.838-2.507.558-.63 1.32-.946 2.285-.946.817 0 1.481.239 1.993.717.516.474.787 1.098.813 1.873h-1.454c-.017-.394-.153-.718-.406-.971-.25-.254-.57-.381-.959-.381-.5 0-.884.182-1.155.546-.271.36-.408.907-.413 1.644v.247c0 .745.134 1.301.4 1.67.271.364.66.546 1.168.546zM61.834 11.502c0-.672.134-1.278.4-1.815a2.897 2.897 0 0 1 1.124-1.244c.482-.292 1.037-.438 1.663-.438.927 0 1.678.298 2.253.895.58.597.893 1.388.94 2.374l.006.362c0 .677-.131 1.282-.393 1.815a2.86 2.86 0 0 1-1.117 1.238c-.483.292-1.041.438-1.676.438-.97 0-1.746-.322-2.33-.965-.58-.647-.87-1.509-.87-2.583v-.077zm1.543.134c0 .706.146 1.26.438 1.663.292.398.698.597 1.219.597.52 0 .924-.204 1.212-.61.292-.406.438-1 .438-1.784 0-.694-.15-1.244-.45-1.65-.297-.406-.701-.61-1.213-.61-.504 0-.903.202-1.2.604-.296.397-.444.994-.444 1.79zM71.165 15h-1.542V8.132h1.542V15zm-1.637-8.652c0-.237.074-.434.222-.59.152-.157.368-.235.647-.235.28 0 .496.078.648.235a.812.812 0 0 1 .228.59.804.804 0 0 1-.228.584c-.152.152-.368.229-.648.229-.279 0-.495-.077-.647-.229a.817.817 0 0 1-.222-.584zM74.282 8.132l.045.793c.508-.613 1.174-.92 2-.92 1.43 0 2.157.819 2.183 2.456V15h-1.543v-4.45c0-.436-.095-.757-.285-.965-.187-.211-.493-.317-.92-.317-.623 0-1.086.281-1.39.844V15h-1.543V8.132h1.453z" fill="#000"/><path d="M10.24 6.59H8.812v2.817h2.247v1.18H8.812v2.816h1.498c.385 0 3.162.043 3.158-3.277-.005-3.321-2.693-3.536-3.228-3.536z" fill="#C2A633"/><path d="M10 0C4.477 0 0 4.477 0 10s4.477 10 10 10 10-4.477 10-10S15.523 0 10 0zm.393 15.401H6.77v-4.815H5.495V9.407H6.77V4.592H9.88c.735 0 5.605-.153 5.605 5.495 0 5.74-5.092 5.314-5.092 5.314z" fill="#C2A633"/></svg>