<svg width="68" height="16" fill="none" xmlns="http://www.w3.org/2000/svg"><path d="M11.658 0C5.209 0 0 3.055 0 6.845 0 8.45.946 9.92 2.557 11.108a5.113 5.113 0 0 1-1.228-3.195C1.33 3.995 6.443.812 12.72.812c4.046-.02 7.606 1.29 9.65 3.291C20.536 1.687 16.42 0 11.659 0z" fill="#8CC23C"/><path d="M10.63 8.775c.403.023.804-.082 1.144-.3a1.067 1.067 0 0 0 .505-.959 3.496 3.496 0 0 0-.773-2.16 4.762 4.762 0 0 0-1.918-1.521 4.813 4.813 0 0 0-1.853-.345 4.564 4.564 0 0 0-3.426 1.36 4.436 4.436 0 0 0-1.323 3.235 4.218 4.218 0 0 0 1.387 3.196 4.87 4.87 0 0 0 3.464 1.278 7.188 7.188 0 0 0 2.135-.313 3.476 3.476 0 0 0 1.77-1.055c.19-.21.3-.478.313-.76 0-.64-.37-.991-1.112-.991a5.215 5.215 0 0 0-1.278.415c-.54.25-1.124.394-1.72.422a2.518 2.518 0 0 1-1.437-.396 1.496 1.496 0 0 1-.678-1.138l4.8.032zM6.47 6.008a1.917 1.917 0 0 1 1.278-.416c.438-.004.864.148 1.201.429a1.515 1.515 0 0 1 .569 1.086H5.83c.078-.43.305-.819.64-1.1zM13.838 11.268a4.558 4.558 0 0 0 3.419 1.31 5.153 5.153 0 0 0 2.115-.383c.787-.352 1.177-.793 1.177-1.279a1.1 1.1 0 0 0-.3-.78 1.036 1.036 0 0 0-.793-.325c-.286.015-.568.08-.831.191-.351.125-.72.188-1.093.186a1.982 1.982 0 0 1-1.56-.64 2.244 2.244 0 0 1-.486-1.514 2.333 2.333 0 0 1 .467-1.496A1.776 1.776 0 0 1 17.43 5.9c.375-.013.75.04 1.105.16.273.112.562.18.857.198a1.144 1.144 0 0 0 .83-.32 1.009 1.009 0 0 0 .333-.766c0-.595-.384-1.036-1.144-1.33a5.752 5.752 0 0 0-1.994-.313 4.812 4.812 0 0 0-3.503 1.278 4.32 4.32 0 0 0-1.316 3.266 4.365 4.365 0 0 0 1.246 3.196h-.006zM21.916 11.28a4.692 4.692 0 0 0 3.452 1.343 4.69 4.69 0 0 0 3.451-1.323 4.396 4.396 0 0 0 1.278-3.234 4.423 4.423 0 0 0-1.278-3.26 4.601 4.601 0 0 0-3.432-1.278 4.672 4.672 0 0 0-3.426 1.317 4.403 4.403 0 0 0-1.323 3.253 4.352 4.352 0 0 0 1.278 3.195v-.012zm2.033-4.697a1.797 1.797 0 0 1 2.825 0c.307.42.464.93.447 1.45a2.39 2.39 0 0 1-.428 1.464 1.656 1.656 0 0 1-1.425.729 1.636 1.636 0 0 1-1.406-.697 2.358 2.358 0 0 1-.448-1.463 2.41 2.41 0 0 1 .435-1.47v-.013z" fill="#033564"/><path d="M34.04 3.279h1.279c1.317 0 1.975.498 1.975 1.495 0 1.017-.64 1.528-1.975 1.528h-1.278V3.279zm0 7.37V8.685h1.918a4.749 4.749 0 0 0 3.247-1.016 3.618 3.618 0 0 0 1.182-2.883 3.51 3.51 0 0 0-1.278-2.914 5.113 5.113 0 0 0-3.33-.997h-2.627a2.307 2.307 0 0 0-1.56.402 1.917 1.917 0 0 0-.434 1.432v7.932c0 1.233.48 1.853 1.438 1.853.959 0 1.445-.639 1.445-1.847zM43.889 6.634a1.617 1.617 0 0 1 1.361-.64 1.585 1.585 0 0 1 1.362.64c.288.408.434.9.415 1.4a2.332 2.332 0 0 1-.415 1.419 1.585 1.585 0 0 1-1.362.639 1.635 1.635 0 0 1-1.38-.64 2.294 2.294 0 0 1-.41-1.418 2.224 2.224 0 0 1 .448-1.4h-.02zm4.595 5.86c.927 0 1.387-.638 1.387-1.859V5.522c0-1.234-.46-1.847-1.387-1.847a1.495 1.495 0 0 0-1.336.799 2.928 2.928 0 0 0-2.256-.92 4.04 4.04 0 0 0-3.195 1.418 4.545 4.545 0 0 0-1.183 3.106 4.55 4.55 0 0 0 1.131 3.075 3.944 3.944 0 0 0 3.12 1.419 3.01 3.01 0 0 0 2.358-.96 1.393 1.393 0 0 0 1.336.896l.025-.013zM56.371 4.666l-1.713 4.065-1.597-3.835a3.087 3.087 0 0 0-.467-.869 1.278 1.278 0 0 0-.952-.358 1.413 1.413 0 0 0-.985.358 1.201 1.201 0 0 0-.39.901c.004.241.058.479.16.697l2.825 6.001-1.156 2.288c-.14.267-.219.562-.23.863a1.112 1.112 0 0 0 .383.889c.28.233.64.351 1.003.332.499 0 .908-.345 1.234-1.023L58.8 5.753c.136-.275.212-.576.224-.882 0-.812-.46-1.215-1.387-1.215-.53 0-.94.333-1.234 1.01h-.032zM65.883 10.009h-2.767l3.72-4.353c.309-.298.51-.692.568-1.118a.595.595 0 0 0-.434-.64 4.877 4.877 0 0 0-1.336-.134H61.16c-1.195 0-1.79.384-1.79 1.15 0 .768.588 1.17 1.77 1.17h2.41l-3.835 4.519a1.496 1.496 0 0 0-.415.978c0 .53.492.792 1.47.792h5.113c1.176 0 1.764-.39 1.764-1.17 0-.798-.582-1.194-1.745-1.194h-.02z" fill="#8CC23C"/></svg>