<svg width="68" height="20" fill="none" xmlns="http://www.w3.org/2000/svg"><path d="m6.138 0-.134.456V13.68l.134.134 6.139-3.628L6.138 0z" fill="#343434"/><path d="M6.139 0 0 10.186l6.139 3.628V0z" fill="#8C8C8C"/><path d="m6.138 14.976-.075.092v4.71l.075.222 6.142-8.65-6.142 3.626z" fill="#3C3C3B"/><path d="M6.139 20v-5.024L0 11.349 6.139 20z" fill="#8C8C8C"/><path d="m6.139 13.814 6.138-3.628-6.138-2.79v6.418z" fill="#141414"/><path d="m0 10.186 6.139 3.628V7.396L0 10.186z" fill="#393939"/><path d="M19.707 14.086c-.63 0-1.184-.114-1.66-.341a2.587 2.587 0 0 1-1.112-1.023c-.264-.447-.396-.972-.396-1.573 0-.565.114-1.07.341-1.518.235-.447.565-.8.99-1.056.425-.264.917-.396 1.474-.396.506 0 .953.11 1.342.33.396.22.704.539.924.957.22.418.33.906.33 1.463 0 .279-.015.488-.044.627h-4.092c.08.477.293.847.638 1.111.352.257.81.385 1.375.385.66 0 1.283-.143 1.87-.429l.132.99c-.271.147-.594.26-.968.341a4.978 4.978 0 0 1-1.144.132zm1.001-3.487c-.03-.455-.165-.807-.407-1.056-.242-.25-.576-.374-1-.374-.419 0-.76.125-1.024.374-.264.25-.425.601-.484 1.056h2.915zM23.983 9.422h-1.166V8.355h1.166V6.804h1.264v1.551h1.42v1.067h-1.42v4.488h-1.264V9.422zM27.923 5h1.265v4.004c.162-.264.385-.466.671-.605.294-.147.631-.22 1.012-.22.668 0 1.177.205 1.53.616.359.403.538.986.538 1.749v3.366h-1.265v-3.135c0-.499-.095-.869-.286-1.111-.183-.242-.469-.363-.858-.363-.425 0-.755.14-.99.418-.234.279-.352.667-.352 1.166v3.025h-1.265V5zM37.507 14.086c-.63 0-1.184-.114-1.661-.341a2.587 2.587 0 0 1-1.111-1.023c-.264-.447-.396-.972-.396-1.573 0-.565.114-1.07.34-1.518.235-.447.566-.8.99-1.056.426-.264.918-.396 1.475-.396.506 0 .953.11 1.342.33.396.22.704.539.924.957.22.418.33.906.33 1.463 0 .279-.015.488-.044.627h-4.092c.08.477.293.847.638 1.111.352.257.81.385 1.375.385.66 0 1.283-.143 1.87-.429l.132.99c-.272.147-.594.26-.968.341a4.978 4.978 0 0 1-1.144.132zm1-3.487c-.029-.455-.164-.807-.406-1.056-.242-.25-.576-.374-1.001-.374-.418 0-.76.125-1.023.374-.264.25-.425.601-.484 1.056h2.915zM41.254 8.355h1.21l.011.935c.154-.33.367-.583.638-.759.279-.176.598-.264.957-.264a1.925 1.925 0 0 1 .65.121l-.122 1.188a1.657 1.657 0 0 0-.66-.132c-.447 0-.795.165-1.045.495-.249.323-.374.774-.374 1.353v2.618h-1.265V8.355zM48.603 14.086c-.63 0-1.184-.114-1.66-.341a2.587 2.587 0 0 1-1.111-1.023c-.264-.447-.397-.972-.397-1.573 0-.565.114-1.07.341-1.518.235-.447.565-.8.99-1.056.426-.264.917-.396 1.474-.396.506 0 .954.11 1.343.33.395.22.703.539.924.957.22.418.33.906.33 1.463 0 .279-.015.488-.045.627H46.7c.081.477.294.847.639 1.111.352.257.81.385 1.375.385.66 0 1.283-.143 1.87-.429l.131.99a3.65 3.65 0 0 1-.968.341 4.978 4.978 0 0 1-1.144.132zm1.002-3.487c-.03-.455-.165-.807-.407-1.056-.242-.25-.576-.374-1.002-.374-.417 0-.758.125-1.023.374-.264.25-.425.601-.483 1.056h2.915zM54.804 14.086c-.792 0-1.404-.209-1.837-.627-.433-.418-.649-1.008-.649-1.771V8.355h1.265v3.311c0 .865.41 1.298 1.232 1.298.807 0 1.21-.433 1.21-1.298V8.355h1.265v3.333c0 .763-.216 1.353-.649 1.771-.425.418-1.038.627-1.837.627zM59.043 8.355h1.21l.011.715c.154-.286.382-.506.682-.66.301-.154.657-.231 1.067-.231.404 0 .748.088 1.034.264.294.169.521.418.682.748a1.77 1.77 0 0 1 .748-.737c.33-.183.697-.275 1.1-.275.675 0 1.188.205 1.54.616.36.403.54.986.54 1.749v3.366H66.39v-3.135c0-.499-.095-.869-.286-1.111-.183-.242-.465-.363-.847-.363-.403 0-.718.14-.946.418-.22.279-.33.667-.33 1.166v3.025h-1.265v-3.135c0-.506-.091-.876-.275-1.111-.176-.242-.458-.363-.847-.363-.396 0-.71.143-.946.429-.227.279-.34.66-.34 1.144v3.036h-1.266V8.355z" fill="#141414"/></svg>