<?xml version="1.0" encoding="iso-8859-1"?>
<!-- Generator: Adobe Illustrator 19.0.0, SVG Export Plug-In . SVG Version: 6.00 Build 0)  -->
<svg version="1.1" id="Layer_1" xmlns="http://www.w3.org/2000/svg" xmlns:xlink="http://www.w3.org/1999/xlink" x="0px" y="0px"
	 viewBox="0 0 495 495" style="enable-background:new 0 0 495 495;" xml:space="preserve">
<g>
	<path style="fill:#2488FF;" d="M171.144,250.784c28.412-23.109,46.721-59.151,46.721-99.577C217.865,81.616,163.642,25,96.972,25
		L0,25.102V470h40V277.387h76.993c44.593,0,80.872,38.672,80.872,86.207V470h40V363.594
		C237.865,314.319,210.676,271.556,171.144,250.784z M40,237.387V65.06L96.993,65c44.593,0,80.872,38.672,80.872,86.207
		c0,47.52-36.279,86.18-80.872,86.18H40z"/>
	<path style="fill:#2488FF;" d="M376.17,91.831c-30.221,0-57.838,11.346-78.83,29.995v-26.85h-40v115.685v41.838V470h40V341.334
		c20.992,18.648,48.608,29.995,78.83,29.995c65.523,0,118.83-53.307,118.83-118.83v-41.838
		C495,145.138,441.693,91.831,376.17,91.831z M455,252.499c0,43.467-35.363,78.83-78.83,78.83s-78.83-35.363-78.83-78.83v-41.838
		c0-43.467,35.363-78.83,78.83-78.83c43.467,0,78.83,35.363,78.83,78.83V252.499z"/>
</g>
<g>
</g>
<g>
</g>
<g>
</g>
<g>
</g>
<g>
</g>
<g>
</g>
<g>
</g>
<g>
</g>
<g>
</g>
<g>
</g>
<g>
</g>
<g>
</g>
<g>
</g>
<g>
</g>
<g>
</g>
</svg>
