<?xml version="1.0" encoding="utf-8"?>
<!-- Svg Vector Icons : http://www.onlinewebfonts.com/icon -->
<!DOCTYPE svg PUBLIC "-//W3C//DTD SVG 1.1//EN" "http://www.w3.org/Graphics/SVG/1.1/DTD/svg11.dtd">
<svg version="1.1" xmlns="http://www.w3.org/2000/svg" xmlns:xlink="http://www.w3.org/1999/xlink" x="0px" y="0px" viewBox="0 0 1000 1000" enable-background="new 0 0 1000 1000" xml:space="preserve">
<metadata> Svg Vector Icons : http://www.onlinewebfonts.com/icon </metadata>
<g><g><path d="M413.6,214.4H122l-0.3,627.1c0,30.8-25.1,55.9-55.9,55.9c-30.8,0-55.9-25.1-55.9-55.9l0.3-683.1c0-30.8,25.1-55.8,55.9-55.8h347.4c167.8,0,304.2,136.5,304.2,304.2v285.6c0,30.8-25.1,55.9-55.9,55.9s-55.9-25.1-55.9-55.9V406.9C606.1,300.7,519.7,214.4,413.6,214.4z M934.1,102.6c-30.8,0-55.9,25.1-55.9,55.9L878,785.6H586.4c-106.1,0-192.5-86.3-192.5-192.5V307.5c0-30.8-25.1-55.9-55.9-55.9c-30.8,0-55.9,25.1-55.9,55.9v285.6c0,167.8,136.5,304.2,304.2,304.2h347.4c30.8,0,55.9-25,55.9-55.8l0.3-683.1C990,127.7,964.9,102.6,934.1,102.6z"/></g><g></g><g></g><g></g><g></g><g></g><g></g><g></g><g></g><g></g><g></g><g></g><g></g><g></g><g></g><g></g></g>
</svg>