<?xml version="1.0" encoding="UTF-8" standalone="no"?>
<svg xmlns="http://www.w3.org/2000/svg" width="258" height="200">
<path stroke="none" d="m 257.43528,127.42154 -34.92497,0 -20.191,72.57846 -25.37523,0 -20.191,-72.57846 -56.07098,0 L 80.2183,200 53.206064,200 33.833569,127.42154 0,127.42154 l 0,-18.55389 29.058646,0 -5.320529,-20.0546 -23.738117,0 0,-18.4175 18.826695,0 L 0,0 l 27.148735,0 16.23468,70.39555 49.658855,0 L 113.23336,0 l 31.78716,0 19.9181,70.39555 48.29474,0 L 230.55935,0 l 26.87593,0 -19.64529,70.39555 19.64529,0 0,18.4175 -24.42022,0 -5.59343,20.0546 30.01365,0 0,18.55389 z M 140.9277,70.39555 Q 130.15005,31.24146 128.51304,24.28372 126.19373,36.28918 115.96178,70.39555 l 24.96592,0 z m 68.07644,18.4175 -38.47209,0 5.59353,20.0546 27.83084,0 5.04772,-20.0546 z m -57.29878,20.0546 -5.59343,-20.0546 -34.92498,0 -5.45702,20.0546 45.97543,0 z m -63.574321,-20.0546 -40.245601,0 4.638425,20.0546 30.01365,0 5.593526,-20.0546 z m 111.732561,38.60849 -19.3724,0 q 6.82124,31.37786 8.73124,44.61122 l 10.64116,-44.61122 z m -122.373813,0 -21.009507,0 q 7.366939,31.37786 9.82265,44.61122 4.774826,-20.3274 11.186857,-44.61122 z" />
</svg>