<svg width="73" height="21" fill="none" xmlns="http://www.w3.org/2000/svg"><path fill-rule="evenodd" clip-rule="evenodd" d="M3.275 0h5v5.222L11.258 3.5l2 3.464-4.983 2.877V16h8v4h-13v-7.272L2 13.464 0 10l3.275-1.891V0z" fill="#000"/><circle cx="21.275" cy="18" r="3" fill="#000"/><path d="M29.82 13.718h4.197V15h-5.802V5.758h1.606v7.96zM36.74 15h-1.543V8.132h1.543V15zm-1.638-8.652c0-.237.074-.434.222-.59.153-.157.368-.235.648-.235.279 0 .495.078.647.235a.812.812 0 0 1 .229.59.804.804 0 0 1-.229.584c-.152.152-.368.229-.647.229-.28 0-.495-.077-.648-.229a.817.817 0 0 1-.222-.584zM40.358 6.462v1.67h1.212v1.142h-1.212v3.834c0 .263.05.453.152.572.106.114.292.171.559.171.178 0 .357-.021.54-.063v1.193a3.8 3.8 0 0 1-1.016.146c-1.185 0-1.778-.654-1.778-1.962v-3.89h-1.13V8.131h1.13v-1.67h1.543zM45.779 15.127c-.978 0-1.771-.307-2.38-.92-.606-.618-.908-1.44-.908-2.463v-.19c0-.686.13-1.298.393-1.835a3.037 3.037 0 0 1 1.117-1.263c.479-.3 1.012-.451 1.6-.451.935 0 1.657.298 2.165.895.512.597.768 1.44.768 2.533v.622h-4.488c.046.567.235 1.015.565 1.345.334.33.753.495 1.257.495.706 0 1.282-.285 1.726-.856l.832.793c-.275.41-.643.73-1.105.958a3.455 3.455 0 0 1-1.542.337zm-.184-5.884c-.423 0-.766.148-1.029.444-.258.296-.423.709-.495 1.238h2.94v-.115c-.035-.516-.172-.905-.413-1.167-.242-.267-.576-.4-1.003-.4zM52.558 13.896c.385 0 .705-.113.959-.337a1.15 1.15 0 0 0 .406-.832h1.453c-.017.428-.15.828-.4 1.2-.25.368-.588.66-1.015.876a3.027 3.027 0 0 1-1.384.324c-.96 0-1.722-.311-2.285-.933-.563-.622-.844-1.481-.844-2.577v-.159c0-1.045.28-1.881.838-2.507.558-.63 1.32-.946 2.285-.946.817 0 1.48.239 1.993.717.516.474.787 1.098.813 1.873h-1.454c-.017-.394-.153-.718-.406-.971-.25-.254-.57-.381-.959-.381-.5 0-.884.182-1.155.546-.271.36-.408.907-.413 1.644v.247c0 .745.133 1.301.4 1.67.271.364.66.546 1.168.546zM56.252 11.502c0-.672.134-1.278.4-1.815a2.897 2.897 0 0 1 1.124-1.244c.482-.292 1.037-.438 1.663-.438.927 0 1.678.298 2.253.895.58.597.893 1.388.94 2.374l.006.362c0 .677-.131 1.282-.393 1.815-.258.533-.63.946-1.118 1.238-.482.292-1.04.438-1.675.438-.97 0-1.746-.322-2.33-.965-.58-.647-.87-1.509-.87-2.583v-.077zm1.543.134c0 .706.146 1.26.438 1.663.292.398.698.597 1.219.597.52 0 .924-.204 1.212-.61.292-.406.438-1 .438-1.784 0-.694-.15-1.244-.45-1.65-.297-.406-.701-.61-1.213-.61-.504 0-.904.202-1.2.604-.296.397-.444.994-.444 1.79zM65.584 15H64.04V8.132h1.543V15zm-1.638-8.652c0-.237.074-.434.222-.59.152-.157.368-.235.647-.235.28 0 .496.078.648.235a.813.813 0 0 1 .228.59.805.805 0 0 1-.228.584c-.152.152-.368.229-.648.229-.279 0-.495-.077-.647-.229a.817.817 0 0 1-.222-.584zM68.7 8.132l.045.793c.507-.613 1.174-.92 2-.92 1.43 0 2.157.819 2.183 2.456V15h-1.543v-4.45c0-.436-.095-.757-.285-.965-.187-.211-.493-.317-.92-.317-.623 0-1.086.281-1.39.844V15h-1.543V8.132H68.7z" fill="#000"/></svg>