<svg id="Layer_1" data-name="Layer 1" xmlns="http://www.w3.org/2000/svg" viewBox="0 0 96 128.33"><title>MXN Mexican Peso</title><path d="M47.46,134.73H30.1V58.45H23v-10h7V41.06h-7v-10h7V6.47c.32,0,.57,0,.82,0,13.55,0,27.11-.06,40.66,0a54.5,54.5,0,0,1,21.85,4.26,30.38,30.38,0,0,1,17.48,19.5,1,1,0,0,0,1.19.86c2.29-.05,4.58,0,6.94,0v10h-6v7.36h6v10h-6.18c-1.46,0-1.46,0-1.91,1.36-3.21,9.62-9.67,16.11-19.06,19.77A57.07,57.07,0,0,1,71.5,83.13c-7.68.1-15.36,0-23,.05h-1Zm0-65.86.65,0H69.37A34.49,34.49,0,0,0,79,67.67a20.64,20.64,0,0,0,11.53-7.9c.29-.4.53-.83.83-1.31H47.49ZM91.35,31A20,20,0,0,0,84,24a27.46,27.46,0,0,0-13.45-3.28c-7.45-.06-14.9,0-22.35,0-.22,0-.44,0-.69,0V31ZM94.51,41.1h-47v7.29h47Z" transform="translate(-23 -6.4)"/></svg>