<?xml version="1.0" encoding="utf-8"?>
<!-- Svg Vector Icons : http://www.onlinewebfonts.com/icon -->
<!DOCTYPE svg PUBLIC "-//W3C//DTD SVG 1.1//EN" "http://www.w3.org/Graphics/SVG/1.1/DTD/svg11.dtd">
<svg version="1.1" xmlns="http://www.w3.org/2000/svg" xmlns:xlink="http://www.w3.org/1999/xlink" x="0px" y="0px" viewBox="0 0 1000 1000" enable-background="new 0 0 1000 1000" xml:space="preserve">
<metadata> Svg Vector Icons : http://www.onlinewebfonts.com/icon </metadata>
<g><g><path d="M953.6,551.6H819.8V423.1h133.8c20.1,0,36.4-16.3,36.4-36.4c0-20.1-16.3-36.4-36.4-36.4H819.8V171.9c0-26-5.1-45.2-15.3-56.8c-9.6-11.1-22.3-16.2-39.9-16.2c-16.8,0-28.9,5.1-38.4,16.1c-10,11.7-15.1,30.8-15.1,56.9v178.4H459.5l-107-161.9c-9.2-14.4-17.8-28-26.1-41c-7.5-11.7-14.9-21.2-21.8-28.3c-6.1-6.3-13.1-11.2-21.3-14.9c-7.7-3.5-17.5-5.3-29.2-5.3c-14.8,0-28.3,4.1-41.1,12.4c-12.7,8.2-21.5,18.4-26.9,31.2c-4.7,12.1-7.2,30.6-7.2,54.6v153.3H46.4c-20.1,0-36.4,16.3-36.4,36.4c0,20.1,16.3,36.4,36.4,36.4h132.4v128.6H46.4c-20.1,0-36.4,16.3-36.4,36.4c0,20.1,16.3,36.4,36.4,36.4h132.4v203.7c0,25.3,5.3,44.2,15.8,56.2c10,11.5,22.7,16.8,39.9,16.8c16.6,0,29.2-5.3,39.6-16.8c10.7-11.8,16.1-30.7,16.1-56.2V624.4H518l123.2,189c8.6,12.5,17.4,25.1,26.2,37.5c8,11.1,16.6,20.9,25.8,29.1c8.3,7.4,17.1,12.8,26.3,16.1c9.5,3.4,20.5,5.1,32.8,5.1c33.3,0,67.5-10.2,67.5-85.9V624.4h133.8c20.1,0,36.4-16.3,36.4-36.4C990,567.9,973.7,551.6,953.6,551.6z M711.1,423.1v128.6H592.6l-85-128.6H711.1z M290.3,275.3l48.9,75h-48.9V275.3z M290.3,551.6V423.1h96.4l83.9,128.6H290.3z M711.1,731.1l-70.5-106.7h70.5V731.1z"/></g><g></g><g></g><g></g><g></g><g></g><g></g><g></g><g></g><g></g><g></g><g></g><g></g><g></g><g></g><g></g></g>
</svg>