<?xml version="1.0" encoding="utf-8"?>
<!-- Svg Vector Icons : http://www.onlinewebfonts.com/icon -->
<!DOCTYPE svg PUBLIC "-//W3C//DTD SVG 1.1//EN" "http://www.w3.org/Graphics/SVG/1.1/DTD/svg11.dtd">
<svg version="1.1" xmlns="http://www.w3.org/2000/svg" xmlns:xlink="http://www.w3.org/1999/xlink" x="0px" y="0px" viewBox="0 0 1000 1000" enable-background="new 0 0 1000 1000" xml:space="preserve">
<metadata> Svg Vector Icons : http://www.onlinewebfonts.com/icon </metadata>
<g><g><path d="M544.6,958c5.3,5.8,6.5,14.1,3.1,21.1c-3.3,6.6-10.2,10.9-17.6,10.9H422.2c-5.3,0-10.5-2.2-14.1-6L169.9,736l-8,0.1v234.6c0,10.6-8.8,19.2-19.5,19.2H51.4c-10.7,0-19.5-8.6-19.5-19.2V29.2c0-10.6,8.8-19.2,19.5-19.2h91.1c10.7,0,19.5,8.6,19.5,19.2v540.3l216.8-275.2c3.6-4.6,9.4-7.4,15.4-7.4h113.2c7.3,0,13.9,4,17.3,10.3c3.6,6.6,2.8,14.7-2,20.7L260.1,646.3L544.6,958z M958.4,285.5c-130.2,0-194.1,58.3-220.2,91.9v-79.9c0-5.4-4.4-9.8-9.8-9.8H621.3c-5.4,0-9.7,4.4-9.7,9.8l-0.1,682.8c0,2.6,1.1,5.1,2.8,6.9c1.8,1.8,4.3,2.9,6.9,2.9H744c5.4,0,9.8-4.4,9.8-9.8v-364c0-20.5,2.8-39.9,5.5-56.1c16.5-90.8,75.1-146.3,156.8-148.3h42.3c2.6,0,5.1-1,6.9-2.9c1.9-1.8,2.9-4.3,2.9-6.9V295.2C968.2,289.8,963.8,285.5,958.4,285.5z"/></g><g></g><g></g><g></g><g></g><g></g><g></g><g></g><g></g><g></g><g></g><g></g><g></g><g></g><g></g><g></g></g>
</svg>