<svg width="42" height="14" fill="none" xmlns="http://www.w3.org/2000/svg"><path fill-rule="evenodd" clip-rule="evenodd" d="M29.796 3.364c.94 0 1.703-.753 1.703-1.682C31.499.754 30.737 0 29.796 0c-.939 0-1.7.754-1.7 1.682 0 .929.761 1.682 1.7 1.682zm-13.04.907c-.076.191-.63 1.735-1.967 3.334V.765l-3.563.696V13.86h3.563v-3.832c1.032 1.53 1.542 3.832 1.542 3.832h4.268c-.422-1.734-2.269-4.932-2.269-4.932a15.381 15.381 0 0 0 2.501-4.656h-4.075zm9.368-.129c-3.191.101-4.812 1.516-4.812 4.329v5.388h3.482V9.465c0-1.684.223-2.406 2.246-2.475V4.191c-.34-.071-.916-.049-.916-.049zM5.25 5.637c-.437-.029-1.447-.093-1.447-.992 0-1.085 1.455-1.085 2-1.085.96 0 2.202.28 3.09.543 0 0 .495.172.916.349l.04.01v-2.97l-.055-.016C8.747 1.114 7.53.766 5.272.766 1.379.765 0 3.005 0 4.925c0 1.106.48 3.71 4.938 4.01.378.024 1.38.081 1.38 1.01 0 .767-.82 1.219-2.201 1.219a10.95 10.95 0 0 1-3.874-.743v3.06c1.335.345 2.84.518 4.604.518 3.806 0 5.51-2.12 5.51-4.221 0-2.383-1.907-3.93-5.107-4.142zm22.82 8.222h3.454V4.282H28.07v9.577zm9.957-12.483v12.483h3.454V.765l-3.454.611zm-5.04 0 3.451-.61v13.093h-3.451V1.376z" fill="#852164"/></svg>