<svg width="82" height="26" viewBox="0 0 82 26" fill="none" xmlns="http://www.w3.org/2000/svg">
<path fill-rule="evenodd" clip-rule="evenodd" d="M0.12207 0.928711L10.21 26.0001L24.2649 9.08533L19.289 4.4128L0.12207 0.928711ZM3.69837 2.923L17.514 5.43477L12.1512 9.84829L3.69837 2.923ZM2.74031 3.85582L11.5497 11.0734L10.1723 22.3281L2.74031 3.85582ZM18.9805 5.94774L21.9123 8.70103L13.8937 10.1355L18.9805 5.94774ZM12.8248 11.6705L21.7044 10.0825L11.5194 22.34L12.8248 11.6705Z" fill="#D82E34"/>
<path fill-rule="evenodd" clip-rule="evenodd" d="M51.7877 12.9105C52.4358 12.2987 52.7649 11.458 52.7649 10.4111C52.7649 6.61865 49.3481 6.62032 49.3132 6.61921L43.3001 6.61865H42.1133V18.5332H43.3001V7.80648H49.2788C49.4597 7.8154 51.5781 7.9753 51.5781 10.4111C51.5781 11.1248 51.3819 11.658 50.9779 12.0419C50.2081 12.7734 48.9232 12.7155 48.913 12.7144L44.1905 12.7132V18.5332H45.3773V13.9016H48.8646H48.8702L51.662 18.5738H53.045L50.1664 13.7562C50.6961 13.6236 51.2946 13.3757 51.7877 12.9105Z" fill="#111111"/>
<mask id="mask0_1211_183" style="mask-type:alpha" maskUnits="userSpaceOnUse" x="0" y="0" width="82" height="25">
<path d="M0.12207 24.7533H81.3066V0H0.12207V24.7533Z" fill="white"/>
</mask>
<g mask="url(#mask0_1211_183)">
<path fill-rule="evenodd" clip-rule="evenodd" d="M32.5254 18.5342H33.7122V10.3369H32.5254V18.5342Z" fill="#111111"/>
<path fill-rule="evenodd" clip-rule="evenodd" d="M28.7764 7.792H39.4082V6.61865H28.7764V7.792Z" fill="#111111"/>
<path fill-rule="evenodd" clip-rule="evenodd" d="M34.6025 18.5342H35.7888V10.3369H34.6025V18.5342Z" fill="#111111"/>
<path fill-rule="evenodd" clip-rule="evenodd" d="M72.6787 18.4814H73.8796V14.1558H72.6787V18.4814Z" fill="#111111"/>
<path fill-rule="evenodd" clip-rule="evenodd" d="M80.1065 6.69952V16.2629L70.5234 5.44873V18.458H71.7244V8.98046L81.3075 19.7946V6.69952H80.1065Z" fill="#111111"/>
<path fill-rule="evenodd" clip-rule="evenodd" d="M61.9347 17.3748C59.2354 17.3748 57.0392 15.2036 57.0392 12.5349C57.0392 9.8662 59.2354 7.69502 61.9347 7.69502C64.6341 7.69502 66.8303 9.8662 66.8303 12.5349C66.8303 15.2036 64.6341 17.3748 61.9347 17.3748ZM61.9347 6.5083C58.5732 6.5083 55.8389 9.21211 55.8389 12.5349C55.8389 15.8583 58.5732 18.5615 61.9347 18.5615C65.2963 18.5615 68.0306 15.8583 68.0306 12.5349C68.0306 9.21211 65.2963 6.5083 61.9347 6.5083Z" fill="#111111"/>
<path fill-rule="evenodd" clip-rule="evenodd" d="M61.9329 11.5845C61.4775 11.5845 61.1084 11.9494 61.1084 12.399C61.1084 12.8497 61.4775 13.2141 61.9329 13.2141C62.3882 13.2141 62.7573 12.8497 62.7573 12.399C62.7573 11.9494 62.3882 11.5845 61.9329 11.5845Z" fill="#111111"/>
</g>
</svg>
