<svg id="Layer_1" data-name="Layer 1" xmlns="http://www.w3.org/2000/svg" viewBox="0 0 132.3 39.66"><defs><style>.cls-1{fill:#262829;}.cls-2{fill:#e5142c;}</style></defs><title>+ TRX TRON</title><rect class="cls-1" x="51.06" y="15.7" width="2.21" height="14.43"/><rect class="cls-1" x="45.15" y="9.58" width="18.01" height="2.21"/><rect class="cls-1" x="55.05" y="15.7" width="2.21" height="14.43"/><polygon class="cls-1" points="118.32 30.14 120.55 30.14 120.55 21.45 118.32 18.97 118.32 30.14"/><polygon class="cls-1" points="130.06 9.58 130.06 25.7 114.28 8.16 114.28 30.14 116.51 30.14 116.51 14.02 132.29 31.56 132.29 9.58 130.06 9.58"/><path class="cls-1" d="M103.57,64.16a10.28,10.28,0,1,0,10.28,10.28A10.29,10.29,0,0,0,103.57,64.16Zm0,18.34a8.07,8.07,0,1,1,8.07-8.06A8.07,8.07,0,0,1,103.57,82.5Z" transform="translate(-3.73 -54.58)"/><path class="cls-1" d="M103.57,73a1.48,1.48,0,1,0,1.48,1.48A1.48,1.48,0,0,0,103.57,73Z" transform="translate(-3.73 -54.58)"/><path class="cls-1" d="M89.43,70.47a6.29,6.29,0,0,0-6.26-6.3H71.41V84.73h2.2V66.4h9.56a4.08,4.08,0,0,1,0,8.15h-7.8V84.73h2.2v-8h5.14l4.2,8h2.56l-4.39-8.27A6.37,6.37,0,0,0,89.43,70.47Z" transform="translate(-3.73 -54.58)"/><path class="cls-2" d="M33.68,60.1,3.73,54.58,19.49,94.25l22-26.76Zm-.47,2.42,4.58,4.36L25.26,69.15ZM22.53,68.7l-13.21-11,21.59,4Zm-.94,1.94-2.15,17.8L7.82,59.21Zm2,.94,13.88-2.51L21.54,88.46Z" transform="translate(-3.73 -54.58)"/></svg>