<svg id="Layer_1" data-name="Layer 1" xmlns="http://www.w3.org/2000/svg" viewBox="0 0 91.02 79.18"><defs><style>.cls-1{fill:#52af95;}.cls-1,.cls-2{fill-rule:evenodd;}.cls-2{fill:#fff;}</style></defs><title>+ USDT Tether</title><path class="cls-1" d="M16.67.39.07,35.25A.67.67,0,0,0,.22,36L45,79A.68.68,0,0,0,46,79L90.8,36a.67.67,0,0,0,.15-.79L74.35.39A.67.67,0,0,0,73.74,0H17.28A.67.67,0,0,0,16.67.39Z" transform="translate(0 0)"/><path class="cls-2" d="M51.27,38.83h0c-.32,0-2,.12-5.69.12-3,0-5-.08-5.78-.12h0c-11.4-.5-19.91-2.49-19.91-4.86S28.4,29.61,39.8,29.1v7.75c.74.06,2.88.18,5.83.18,3.54,0,5.31-.14,5.63-.17V29.11c11.37.5,19.86,2.49,19.86,4.86s-8.48,4.35-19.86,4.86h0Zm0-10.52V21.37H67.14V10.78H23.92V21.37H39.79V28.3c-12.9.6-22.6,3.15-22.6,6.21s9.7,5.62,22.6,6.21V63H51.27V40.72c12.87-.6,22.55-3.15,22.55-6.21S64.14,28.9,51.27,28.3h0Z" transform="translate(0 0)"/></svg>