<svg width="61" height="13" fill="none" xmlns="http://www.w3.org/2000/svg"><path fill-rule="evenodd" clip-rule="evenodd" d="M41.812.227 39.329 11.83h-3.003L38.81.227h3.002zm12.63 7.49 1.581-4.355.908 4.356h-2.49zm3.35 4.113h2.775L58.147.227h-2.565c-.575 0-1.062.335-1.278.85L49.801 11.83h3.15l.627-1.733h3.852l.362 1.733zm-7.837-3.787c.015-3.066-4.234-3.233-4.205-4.6.01-.417.406-.86 1.273-.974.43-.056 1.615-.099 2.96.518L50.51.526a8.108 8.108 0 0 0-2.808-.514c-2.966 0-5.056 1.579-5.073 3.84-.018 1.669 1.491 2.6 2.63 3.157 1.169.568 1.56.932 1.557 1.443-.01.776-.935 1.121-1.797 1.132-1.51.026-2.387-.406-3.083-.729l-.545 2.542c.7.322 1.995.599 3.339.615 3.152 0 5.216-1.56 5.225-3.969zM37.522.227 32.658 11.83h-3.174l-2.393-9.26c-.147-.572-.274-.778-.715-1.02-.72-.393-1.912-.76-2.962-.988l.073-.335h5.107c.652 0 1.237.431 1.384 1.183l1.265 6.715L34.367.227h3.155z" fill="#10347E"/><path fill-rule="evenodd" clip-rule="evenodd" d="M7.083 10.73h5.249V1.294h-5.25v9.434z" fill="#FF5F00"/><path fill-rule="evenodd" clip-rule="evenodd" d="M7.415 6.013a5.989 5.989 0 0 1 2.291-4.717 6 6 0 1 0 0 9.434 5.99 5.99 0 0 1-2.291-4.717z" fill="#EB001B"/><path fill-rule="evenodd" clip-rule="evenodd" d="M19.413 6.013a6 6 0 0 1-9.706 4.716 6 6 0 0 0 0-9.433 5.999 5.999 0 0 1 9.706 4.716v.001z" fill="#F79E1B"/></svg>