<?xml version="1.0" encoding="utf-8"?>
<!-- Svg Vector Icons : http://www.onlinewebfonts.com/icon -->
<!DOCTYPE svg PUBLIC "-//W3C//DTD SVG 1.1//EN" "http://www.w3.org/Graphics/SVG/1.1/DTD/svg11.dtd">
<svg version="1.1" xmlns="http://www.w3.org/2000/svg" xmlns:xlink="http://www.w3.org/1999/xlink" x="0px" y="0px" viewBox="0 0 1000 1000" enable-background="new 0 0 1000 1000" xml:space="preserve">
<metadata> Svg Vector Icons : http://www.onlinewebfonts.com/icon </metadata>
<g><g transform="translate(0.000000,511.000000) scale(0.100000,-0.100000)"><path d="M5876.2,4509.8v-500.2H4804.3H3732.5v-357.3V3295h1071.9h1071.9v-177.6c0-100,14.3-441,30.6-761.5s30.6-626.8,30.6-679.9v-98L5817,1680c-320.5,265.4-608.4,424.7-918.7,506.3c-171.5,47-238.9,53.1-532.9,53.1c-240.9,0-379.8-8.2-483.9-32.7c-624.7-142.9-1143.3-498.2-1490.4-1018.8c-330.7-496.1-473.7-1049.4-449.2-1741.5c49-1374,628.8-2258.1,1664-2537.8c181.7-49,230.7-53.1,606.4-53.1c387.9,0,416.5,2.1,590,55.1c371.6,116.4,698.3,304.2,977.9,565.5c83.7,77.6,161.3,142.9,171.5,142.9c12.2,0,34.7-112.3,55.1-249.1c18.4-138.8,38.8-281.8,44.9-316.5l12.2-67.4h426.7h426.7l4.1,3160.5l6.1,3158.5l520.6,34.7c285.8,18.4,541,34.7,567.6,34.7c44.9,2,44.9,4.1,44.9,318.5v316.5h-571.7h-571.7v500.2V5010h-520.6h-520.6V4509.8z M4783.9,1355.4c318.5-47,612.5-187.8,947.3-459.4l144.9-116.4V-380v-1157.6l-198-191.9c-404.2-392-716.6-543.1-1159.6-563.5c-428.8-20.4-720.7,87.8-1002.5,369.6c-140.9,140.9-181.7,198-269.5,379.7c-245,504.3-308.3,1220.9-155.2,1753.8c96,328.7,308.3,653.3,555.3,851.4c145,114.3,406.3,243,555.3,271.5c61.3,12.2,130.7,26.5,153.1,30.6C4434.8,1377.9,4643,1373.8,4783.9,1355.4z"/><path d="M2099.1-4432.7V-4790h2644H7387v357.3v357.3H4743.1h-2644V-4432.7z"/></g></g>
</svg>