<svg width="68" height="19" viewBox="0 0 68 19" fill="none" xmlns="http://www.w3.org/2000/svg">
<path d="M19.1565 0H22.4029L15.6489 6.83263C13.2039 9.30595 9.23997 9.30595 6.79507 6.83263L0.0410156 0H3.28736L8.41826 5.19057C9.96669 6.75701 12.4771 6.75701 14.0255 5.19057L19.1565 0Z" fill="#23292F"/>
<path d="M3.24636 18.9999H0L6.79578 12.125C9.24067 9.65169 13.2046 9.65169 15.6496 12.125L22.4453 18.9999H19.199L14.0263 13.767C12.4778 12.2006 9.96739 12.2006 8.41897 13.767L3.24636 18.9999Z" fill="#23292F"/>
<path fill-rule="evenodd" clip-rule="evenodd" d="M61.9468 0L61.9505 4.94832e-05C62.7798 0.0172686 63.5586 0.180306 64.2834 0.490993C65.0199 0.783026 65.667 1.18743 66.2217 1.70405C66.7788 2.22256 67.2137 2.83522 67.5273 3.53858C67.8426 4.22968 67.9996 4.96323 67.9996 5.73615C67.9996 6.52685 67.8332 7.27761 67.4997 7.98558C67.1854 8.67361 66.7413 9.28473 66.1692 9.81734C65.6132 10.3349 64.9569 10.7473 64.2034 11.0553L64.1999 11.0567C63.4563 11.3509 62.6591 11.4968 61.8117 11.4968H54.7263V18.9356H52.2334V4.94832e-05L61.9468 0ZM61.8117 9.20057C62.3116 9.20057 62.7847 9.11077 63.2339 8.93149C63.6873 8.75055 64.0817 8.50299 64.4196 8.18844C64.7574 7.87395 65.0233 7.50675 65.2177 7.08463C65.4097 6.66762 65.5067 6.21912 65.5067 5.73615C65.5067 5.27089 65.4102 4.83052 65.2177 4.41221C65.0233 3.99009 64.7574 3.6229 64.4196 3.3084C64.0817 2.99391 63.6873 2.74631 63.2339 2.56536C62.7847 2.38613 62.3116 2.29633 61.8117 2.29633H54.7263V9.20057H61.8117Z" fill="#23292F"/>
<path d="M34.1247 11.5363C35.3739 11.5363 36.556 12.0643 37.3399 12.9725L42.4872 18.9356H45.6919L38.6491 10.6681C37.8657 9.74838 36.6758 9.21246 35.4173 9.21246H30.5378V2.32387H37.6233C38.1231 2.32387 38.5962 2.4138 39.0454 2.59325C39.4989 2.77439 39.8933 3.0223 40.2311 3.33725L40.2368 3.34241C40.5711 3.63927 40.8355 3.99654 41.0292 4.418C41.2212 4.83557 41.3182 5.28454 41.3182 5.76815C41.3182 6.25105 41.2215 6.69943 41.0301 7.11644C40.9139 7.35975 40.7719 7.58662 40.6037 7.79748L42.2258 9.60857C42.2462 9.58721 42.2662 9.56572 42.2863 9.54406C42.7659 9.02811 43.1355 8.45127 43.3943 7.81477C43.6728 7.17316 43.8111 6.49005 43.8111 5.76815C43.8111 4.99412 43.6541 4.25972 43.3388 3.56773C43.0254 2.86337 42.5903 2.25 42.0333 1.73073C41.479 1.21413 40.8332 0.801528 40.098 0.492965C39.3724 0.180985 38.5926 0.0172909 37.762 9.90819e-05L37.7584 0H29.2914C28.9495 0 28.65 0.128865 28.4034 0.358651C28.1677 0.578429 28.0449 0.851616 28.0449 1.16191V18.9356H30.5378V11.5363H34.1247Z" fill="#23292F"/>
</svg>
