<svg id="Layer_1" data-name="Layer 1" xmlns="http://www.w3.org/2000/svg" viewBox="0 0 127.58 35.63"><defs><style>.cls-1{fill:#23292f;}</style></defs><title>+ XRP XRP</title><path class="cls-1" d="M42.35,53.64h6.09L35.76,66.46a11.65,11.65,0,0,1-16.61,0L6.48,53.64h6.09l9.63,9.74a7.39,7.39,0,0,0,10.44.08l.08-.08ZM12.49,89.27H6.4L19.15,76.38a11.66,11.66,0,0,1,16.62,0L48.51,89.27H42.42l-9.7-9.81a7.39,7.39,0,0,0-10.44-.08l-.08.08Z" transform="translate(-6.4 -53.64)"/><path class="cls-1" d="M122.63,53.64h0a12.45,12.45,0,0,1,8,3.2,10.4,10.4,0,0,1,2.45,3.44A9.85,9.85,0,0,1,134,64.4a9.67,9.67,0,0,1-.94,4.21,10.63,10.63,0,0,1-2.5,3.44,11.87,11.87,0,0,1-3.68,2.32h0a12.09,12.09,0,0,1-4.48.83H109.08v14H104.4V53.64Zm-.26,17.26a7,7,0,0,0,2.67-.51A7.18,7.18,0,0,0,127.27,69a6.63,6.63,0,0,0,1.49-2.07,6,6,0,0,0,.54-2.53,5.86,5.86,0,0,0-.54-2.48,6.84,6.84,0,0,0-1.49-2.08A7.18,7.18,0,0,0,125,58.45a7,7,0,0,0-2.67-.5H109.08v13Z" transform="translate(-6.4 -53.64)"/><path class="cls-1" d="M70.43,75.28a8,8,0,0,1,6,2.69l9.66,11.19h6L78.92,73.65a8,8,0,0,0-6.06-2.73H63.7V58H77a7.24,7.24,0,0,1,4.89,1.9h0A6.14,6.14,0,0,1,83.39,67a7,7,0,0,1-.8,1.27l3,3.4a.69.69,0,0,0,.11-.13,10.43,10.43,0,0,0,2.08-3.24,9.55,9.55,0,0,0,.78-3.84,9.7,9.7,0,0,0-.89-4.12,10.4,10.4,0,0,0-2.45-3.45,12.18,12.18,0,0,0-3.63-2.32,11.63,11.63,0,0,0-4.38-.92H61.36a2.35,2.35,0,0,0-1.67.68,2,2,0,0,0-.67,1.5V89.15h4.67V75.28Z" transform="translate(-6.4 -53.64)"/></svg>