<?xml version="1.0" encoding="utf-8"?>
<!-- Svg Vector Icons : http://www.onlinewebfonts.com/icon -->
<!DOCTYPE svg PUBLIC "-//W3C//DTD SVG 1.1//EN" "http://www.w3.org/Graphics/SVG/1.1/DTD/svg11.dtd">
<svg version="1.1" xmlns="http://www.w3.org/2000/svg" xmlns:xlink="http://www.w3.org/1999/xlink" x="0px" y="0px" viewBox="0 0 1000 1000" enable-background="new 0 0 1000 1000" xml:space="preserve">
<metadata> Svg Vector Icons : http://www.onlinewebfonts.com/icon </metadata>
<g><g transform="translate(0.000000,511.000000) scale(0.100000,-0.100000)"><path d="M1611.9,110v-4900h612.5h612.5l4.1,2066.2l6.1,2068.2l890.2,6.1l890.2,4.1L5566.6-2293c518.6-908.5,1049.4-1839.5,1182.1-2074.3l240.9-422.6h700.3h698.2l-167.4,292C6479.2-1500.9,5940.2-567.8,5930-541.3c-8.2,24.5,12.2,36.8,96,57.2c169.5,40.8,561.5,202.1,739.1,304.2c620.7,349.1,1049.4,898.3,1229.1,1566c185.8,694.2,128.6,1572.1-140.9,2141.7c-124.6,261.3-218.5,400.2-412.4,602.3c-481.8,504.3-1218.9,782-2276.5,859.5c-151.1,10.2-1012.7,20.4-1913,20.4H1611.9V110z M5286.9,3960.6c588-106.2,920.8-255.2,1188.3-539c226.6-240.9,343-526.8,383.8-943.3c40.8-400.2-20.4-775.8-183.8-1112.7c-212.3-443-614.5-743.2-1190.3-888.1c-408.3-102.1-551.3-112.3-1637.4-112.3H2847.1l-6.1,1823.2l-4.1,1825.3l1127-10.2C4911.2,3997.3,5123.5,3989.2,5286.9,3960.6z"/></g></g>
</svg>