<svg width="261" height="261" viewBox="0 0 261 261" fill="none" xmlns="http://www.w3.org/2000/svg">
<g filter="url(#filter0_d_72_5)">
<circle cx="130.5" cy="130.5" r="90.5" fill="#140901" fill-opacity="0.4" shape-rendering="crispEdges"/>
</g>
<g clip-path="url(#clip0_72_5)">
<path d="M184.571 46.5704C180.282 50.1347 175.759 49.7172 170.894 48.1285C162.535 45.3992 154.237 42.1047 145.644 40.5364C125.039 36.7786 105.779 40.9234 88.3327 52.7214C84.0742 55.5984 79.9839 58.8012 74.3449 57.7472C73.1683 57.5231 72.017 57.1616 70.657 56.8103C94.3537 27.3839 157.507 23.2493 184.571 46.5704Z" fill="#E0B35F"/>
<path d="M211.538 174.286C208.247 169.602 207.891 165.009 210.331 160.329C216.826 147.895 219.097 134.6 218.868 120.714C218.67 108.936 215.257 98.1109 209.699 87.8405C207.035 82.8962 204.284 77.9926 201.788 72.9567C200.051 69.4585 199.629 65.7414 201.142 61.8308C228.159 83.1966 236.681 141.413 211.538 174.286Z" fill="#E0B35F"/>
<path d="M83.9315 202.414C87.6806 199.359 91.72 199.018 96.0804 200.785C100.935 202.745 105.636 205.296 110.664 206.569C134.193 212.537 156.738 210.852 177.44 196.895C181.887 193.896 186.186 190.469 192.085 191.294C193.429 191.477 194.749 191.838 196.16 192.139C180.577 219.732 104.088 226.662 83.9315 202.414Z" fill="#E0B35F"/>
<path d="M55.1309 74.24C58.34 79.4236 58.1108 83.9147 56.5979 88.6044C53.9796 96.7006 50.2255 104.664 49.1099 112.969C46.4203 132.981 49.4257 152.177 61.3658 169.205C63.9891 172.942 67.0658 176.573 66.7398 181.588C66.6226 183.325 66.1947 185.041 65.721 187.765C52.3496 175.315 45.3812 160.38 42.2892 143.75C37.776 119.4 40.2924 96.059 55.1309 74.24Z" fill="#E0B35F"/>
<path d="M21.9495 95.5192C23.605 90.4272 24.5371 85.987 26.4117 82.0102C36.7472 60.1149 51.4226 41.6515 71.1206 27.445C74.8951 24.7208 79.393 22.9182 83.733 21.1258C85.0931 20.5657 87.4872 20.8407 88.6231 21.7369C91.1701 23.7176 90.8644 26.0752 88.1137 27.893C82.3577 31.6916 76.3112 35.0676 70.6927 39.0546C53.0526 51.5757 40.8019 68.1907 33.701 88.6298C32.7434 91.3998 31.5463 94.0883 30.4257 96.7769C29.5648 98.8697 28.2557 100.54 25.8412 99.1192C24.3691 98.3045 23.2993 96.8227 21.9495 95.5192Z" fill="#E0B35F"/>
<path d="M159.927 13.3506C163.381 14.2722 167.023 14.924 170.431 16.197C197.235 26.2027 218.313 43.225 233.126 67.8089C234.482 70.1276 235.647 72.5526 236.61 75.0599C237.272 76.7351 239.157 78.6751 235.963 80.1111C233.304 81.3128 231.221 82.1478 229.3 78.777C225.837 72.6666 222.266 66.5563 218.237 60.8381C207.412 45.4196 192.732 34.8691 175.367 27.8677C171.337 26.2485 167.303 24.6292 163.299 22.9387C157.273 20.3978 157.212 20.1891 159.927 13.3506Z" fill="#E0B35F"/>
<path d="M244.638 152.203C243.477 156.658 242.952 160.401 241.551 163.782C231.109 188.926 214.462 209.003 191.575 223.785C188.611 225.7 185.101 226.759 181.826 228.18C179.34 229.254 178.26 227.9 177.134 225.822C176.008 223.745 176.625 222.477 178.326 221.351C180.776 219.727 183.135 217.93 185.722 216.565C208.018 204.803 222.989 186.721 231.959 163.385C233.554 159.235 235.255 155.064 237.247 151.088C237.67 150.237 239.707 149.596 240.813 149.83C242.213 150.12 243.41 151.393 244.638 152.203Z" fill="#E0B35F"/>
<path d="M105.316 235.97C98.3116 233.363 91.7456 231.505 85.7043 228.567C63.5001 217.782 45.9721 201.778 33.543 180.351C32.3813 178.367 31.3699 176.299 30.5173 174.164C29.8143 172.382 27.7921 170.488 31.1387 168.808C34.1034 167.316 35.9321 167.53 37.7251 170.473C42.2434 177.892 46.3388 185.687 51.7587 192.399C63.928 207.425 79.2096 218.261 97.8226 224.183C100.976 225.201 104.017 226.56 107.109 227.747C109.656 228.735 108.744 230.715 108.127 232.258C107.628 233.536 106.447 234.534 105.316 235.97Z" fill="#E0B35F"/>
<path d="M26.87 125.002C27.7563 132.054 28.658 139.106 29.5188 146.164C29.7328 147.931 29.8194 149.728 29.9722 151.49C30.2421 154.545 27.7054 154.723 25.8971 154.845C24.914 154.907 23.0904 153.486 22.9019 152.498C21.4399 144.768 19.8965 137.019 19.1732 129.202C18.6943 124.06 19.4024 118.784 19.8863 113.596C19.9831 112.521 21.5622 110.647 22.2244 110.744C24.3536 111.055 27.5118 110.484 27.5475 114.186C27.5781 117.751 27.5475 121.315 27.5475 124.91L26.87 125.002Z" fill="#E0B35F"/>
<path d="M133.505 231.209C140.8 230.247 148.109 229.366 155.409 228.287C160.936 227.467 162.596 228.012 163.462 231.26C164.084 233.603 163.376 234.921 160.956 235.334C153.443 236.546 145.97 238.18 138.411 238.857C133.138 239.331 127.713 238.649 122.426 238.14C121.285 238.033 119.324 236.332 119.41 235.548C119.645 233.414 119.308 230.339 123.088 230.456C126.532 230.568 129.98 230.481 133.424 230.481L133.505 231.209Z" fill="#E0B35F"/>
<path d="M246.288 137.034C239.57 136.606 239.244 136.586 239.575 130.531C240.184 119.318 239.038 108.079 236.177 97.2199C235.255 93.7065 237.43 93.5231 239.605 92.6371C242.203 91.6188 243.054 92.9325 243.68 95.0456C247.608 107.882 249.034 120.943 247.154 134.289C246.943 135.227 246.653 136.145 246.288 137.034V137.034Z" fill="#E0B35F"/>
<path d="M133.011 17.6786C124.963 18.9109 116.93 20.2959 108.846 21.2888C106.339 21.5943 102.891 23.4325 101.755 18.7072C101.179 16.3089 101.572 15.1428 103.915 14.3943C116.782 10.3971 129.894 8.86446 143.25 10.9216C144.233 11.0744 145.797 12.9584 145.649 13.8546C145.394 15.7284 145.7 18.5544 142.363 18.5086C139.307 18.4628 136.22 18.5086 133.149 18.5086L133.011 17.6786Z" fill="#E0B35F"/>
<path d="M200.805 45.9694C199.18 52.6755 197.561 59.3816 195.711 67.0399L179.763 53.699L199.425 44.895L200.805 45.9694Z" fill="#E0B35F"/>
<path d="M87.2935 195.275L67.57 204.441L66.5513 203.621C68.4003 196.915 70.2443 190.209 72.3073 182.719L87.2935 195.275Z" fill="#E0B35F"/>
<path d="M54.922 57.9407L75.1498 63.5418L62.5323 78.8176L53.9287 58.7299L54.922 57.9407Z" fill="#E0B35F"/>
<path d="M212.16 191.823L191.107 186.268L204.05 171.206C206.785 178.177 209.271 184.506 212.16 191.823Z" fill="#E0B35F"/>
<path d="M173.137 154.05C172.772 154.05 172.415 153.944 172.109 153.745C171.803 153.546 171.561 153.262 171.414 152.929C171.266 152.595 171.219 152.225 171.277 151.865C171.336 151.505 171.498 151.169 171.743 150.899C172.832 149.713 173.834 148.45 174.741 147.12C174.876 146.907 175.053 146.724 175.26 146.58C175.467 146.437 175.701 146.337 175.948 146.286C176.194 146.234 176.448 146.233 176.696 146.282C176.943 146.331 177.177 146.429 177.386 146.57C177.595 146.711 177.773 146.892 177.91 147.103C178.047 147.315 178.141 147.551 178.185 147.799C178.229 148.047 178.223 148.301 178.167 148.547C178.112 148.792 178.007 149.024 177.86 149.229C176.852 150.709 175.739 152.115 174.529 153.436C174.352 153.63 174.137 153.784 173.897 153.89C173.658 153.996 173.399 154.05 173.137 154.05Z" fill="white"/>
<path d="M162.581 162.671C162.26 162.673 161.945 162.594 161.664 162.44C161.383 162.286 161.145 162.064 160.974 161.793C160.842 161.585 160.752 161.353 160.71 161.111C160.668 160.868 160.674 160.62 160.729 160.38C160.783 160.14 160.885 159.913 161.027 159.712C161.17 159.511 161.351 159.341 161.56 159.211C162.112 158.868 162.622 158.554 163.11 158.22C163.536 157.959 164.049 157.877 164.535 157.994C165.021 158.11 165.441 158.415 165.702 158.841C165.964 159.267 166.045 159.779 165.929 160.266C165.813 160.752 165.508 161.172 165.082 161.433C164.594 161.759 164.095 162.072 163.592 162.384C163.288 162.572 162.938 162.671 162.581 162.671Z" fill="white"/>
<path d="M181.689 137.797C181.557 137.797 181.425 137.783 181.295 137.756C181.053 137.704 180.824 137.606 180.62 137.466C180.416 137.326 180.241 137.147 180.106 136.94C179.972 136.732 179.879 136.5 179.834 136.257C179.789 136.014 179.792 135.764 179.843 135.522C180.271 133.496 180.485 131.431 180.482 129.36C180.482 117.431 173.436 106.457 161.148 99.2514C160.717 98.9986 160.404 98.585 160.277 98.1015C160.151 97.618 160.222 97.1042 160.475 96.6731C160.728 96.2421 161.142 95.929 161.625 95.803C162.109 95.6769 162.622 95.748 163.053 96.0008C176.325 103.785 184.248 116.256 184.248 129.36C184.251 131.694 184.01 134.022 183.529 136.306C183.439 136.727 183.208 137.105 182.873 137.377C182.538 137.648 182.12 137.797 181.689 137.797Z" fill="white"/>
<path d="M162.553 180.851H148.691C148.192 180.851 147.713 180.652 147.36 180.299C147.006 179.946 146.808 179.467 146.808 178.967V169.135C136.969 171.413 126.74 171.413 116.901 169.135V178.967C116.901 179.467 116.703 179.946 116.349 180.299C115.996 180.652 115.517 180.851 115.018 180.851H101.157C100.657 180.851 100.178 180.652 99.8248 180.299C99.4716 179.946 99.2732 179.467 99.2732 178.967V161.829C91.8184 157.359 85.8945 150.733 82.2838 142.826H76.7676C75.2192 142.826 73.7342 142.211 72.6393 141.116C71.5444 140.022 70.9293 138.537 70.9293 136.988V121.733C70.9288 120.183 71.5432 118.696 72.6376 117.598C73.7321 116.5 75.2173 115.881 76.7676 115.876H82.2857C84.6562 110.549 88.1468 105.796 92.5196 101.94L89.3858 82.6546C89.3309 82.3171 89.369 81.971 89.4959 81.6535C89.6228 81.336 89.8337 81.059 90.106 80.8523C90.3784 80.6455 90.7019 80.5169 91.0418 80.48C91.3818 80.4432 91.7253 80.4996 92.0356 80.6432L113.36 90.5118C115.538 89.8656 117.747 89.3344 119.98 88.9204C120.472 88.8292 120.979 88.9369 121.391 89.2198C121.802 89.5027 122.085 89.9377 122.176 90.4289C122.267 90.9201 122.16 91.4275 121.877 91.8393C121.594 92.2511 121.159 92.5337 120.668 92.6248C118.342 93.0542 116.043 93.6202 113.784 94.3198C113.338 94.4597 112.856 94.4288 112.432 94.2332L93.6703 85.5511L96.3993 102.373C96.4507 102.692 96.4193 103.018 96.3082 103.321C96.197 103.624 96.0099 103.894 95.7646 104.104C91.1548 107.955 87.5605 112.879 85.2971 118.443C85.1594 118.797 84.9182 119.1 84.605 119.314C84.2918 119.528 83.9212 119.643 83.5419 119.643H76.7676C76.2158 119.646 75.6878 119.868 75.2994 120.26C74.911 120.652 74.6939 121.182 74.696 121.733V136.988C74.696 137.538 74.9142 138.065 75.3027 138.453C75.6912 138.842 76.2182 139.06 76.7676 139.06H83.5475C83.9269 139.06 84.2974 139.174 84.6106 139.388C84.9238 139.602 85.1651 139.906 85.3028 140.26C88.6906 148.313 94.6706 155.004 102.294 159.272C102.693 159.508 102.99 159.884 103.129 160.326C103.268 160.769 103.239 161.247 103.047 161.669V177.084H113.142V166.707C113.142 166.416 113.209 166.13 113.338 165.87C113.468 165.609 113.655 165.383 113.887 165.207C114.118 165.031 114.387 164.912 114.673 164.857C114.958 164.803 115.252 164.815 115.532 164.893C126.225 167.8 137.5 167.8 148.192 164.893C148.472 164.815 148.766 164.803 149.052 164.857C149.337 164.912 149.606 165.031 149.837 165.207C150.069 165.383 150.257 165.609 150.386 165.87C150.515 166.13 150.582 166.416 150.582 166.707V177.084H160.677V161.221C160.583 160.82 160.628 160.398 160.803 160.026C160.978 159.653 161.274 159.35 161.643 159.166C161.935 159.019 162.259 158.948 162.586 158.959C162.913 158.97 163.231 159.063 163.513 159.228C163.79 159.391 164.022 159.622 164.184 159.899C164.347 160.176 164.436 160.491 164.443 160.812V178.967C164.443 179.215 164.394 179.461 164.299 179.69C164.204 179.919 164.065 180.127 163.889 180.302C163.713 180.477 163.505 180.615 163.276 180.709C163.046 180.804 162.801 180.852 162.553 180.851Z" fill="white"/>
<path d="M184.463 131.349C183.678 131.355 182.894 131.312 182.115 131.219C181.62 131.152 181.172 130.89 180.869 130.493C180.567 130.095 180.434 129.594 180.502 129.099C180.569 128.604 180.83 128.156 181.227 127.853C181.625 127.551 182.126 127.419 182.621 127.486C186.727 127.93 190.858 126.921 194.298 124.637C195.659 123.515 196.778 122.129 197.587 120.562C198.396 118.995 198.879 117.28 199.006 115.521C199.079 115.035 199.338 114.596 199.73 114.299C200.122 114.002 200.614 113.869 201.102 113.93C201.59 113.991 202.035 114.241 202.342 114.625C202.648 115.01 202.792 115.499 202.743 115.988C202.564 118.248 201.925 120.447 200.865 122.45C199.805 124.454 198.347 126.219 196.58 127.639C193.045 130.145 188.796 131.446 184.463 131.349Z" fill="white"/>
<path d="M100.121 124.068C98.8169 124.068 97.5425 123.682 96.4585 122.958C95.3745 122.233 94.5296 121.204 94.0307 119.999C93.5318 118.795 93.4013 117.47 93.6556 116.191C93.91 114.912 94.5378 113.738 95.4596 112.816C96.3815 111.894 97.556 111.266 98.8346 111.012C100.113 110.758 101.439 110.888 102.643 111.387C103.848 111.886 104.877 112.731 105.601 113.815C106.326 114.899 106.712 116.173 106.712 117.477C106.712 119.225 106.018 120.902 104.782 122.138C103.545 123.374 101.869 124.068 100.121 124.068ZM100.121 114.652C99.5619 114.652 99.0157 114.818 98.5511 115.128C98.0865 115.438 97.7245 115.88 97.5107 116.396C97.2968 116.912 97.2409 117.48 97.3499 118.028C97.4589 118.576 97.7279 119.079 98.123 119.474C98.5181 119.87 99.0215 120.139 99.5695 120.248C100.117 120.357 100.685 120.301 101.202 120.087C101.718 119.873 102.159 119.511 102.469 119.046C102.78 118.582 102.946 118.036 102.946 117.477C102.946 116.728 102.648 116.009 102.118 115.479C101.588 114.95 100.87 114.652 100.121 114.652Z" fill="white"/>
<path d="M153.251 108.173C152.832 108.173 152.425 108.034 152.094 107.777C151.763 107.52 151.527 107.16 151.424 106.754C151.32 106.348 151.355 105.919 151.523 105.535C151.691 105.151 151.982 104.834 152.351 104.634C156.405 102.441 159.613 98.9586 161.465 94.7374C163.318 90.5163 163.71 85.7979 162.579 81.3291C161.447 76.8603 158.858 72.8964 155.221 70.0648C151.583 67.2332 147.105 65.6957 142.495 65.6957C137.886 65.6957 133.408 67.2332 129.77 70.0648C126.132 72.8964 123.543 76.8603 122.412 81.3291C121.281 85.7979 121.673 90.5163 123.525 94.7374C125.378 98.9586 128.585 102.441 132.64 104.634C133.079 104.872 133.405 105.275 133.547 105.754C133.689 106.233 133.635 106.749 133.397 107.188C133.159 107.627 132.756 107.953 132.277 108.095C131.798 108.237 131.282 108.183 130.843 107.945C126.052 105.353 122.263 101.236 120.075 96.2477C117.886 91.2592 117.424 85.6833 118.761 80.4026C120.098 75.1219 123.159 70.4379 127.457 67.092C131.756 63.7461 137.048 61.9294 142.495 61.9294C147.943 61.9294 153.235 63.7461 157.533 67.092C161.832 70.4379 164.892 75.1219 166.229 80.4026C167.567 85.6833 167.104 91.2592 164.916 96.2477C162.728 101.236 158.938 105.353 154.147 107.945C153.872 108.094 153.564 108.173 153.251 108.173Z" fill="white"/>
<path d="M142.495 88.285C141.005 88.285 139.549 87.8432 138.31 87.0154C137.071 86.1876 136.106 85.0111 135.535 83.6346C134.965 82.2581 134.816 80.7434 135.107 79.2821C135.397 77.8208 136.115 76.4785 137.168 75.4249C138.222 74.3714 139.564 73.6539 141.026 73.3632C142.487 73.0726 144.002 73.2217 145.378 73.7919C146.755 74.3621 147.931 75.3276 148.759 76.5665C149.587 77.8053 150.029 79.2618 150.029 80.7517C150.029 81.2512 149.83 81.7302 149.477 82.0834C149.124 82.4366 148.645 82.635 148.145 82.635C147.646 82.635 147.167 82.4366 146.814 82.0834C146.46 81.7302 146.262 81.2512 146.262 80.7517C146.262 80.0068 146.041 79.2785 145.627 78.6591C145.213 78.0397 144.625 77.5569 143.937 77.2718C143.248 76.9867 142.491 76.9121 141.76 77.0575C141.03 77.2028 140.359 77.5616 139.832 78.0883C139.305 78.6151 138.946 79.2862 138.801 80.0169C138.656 80.7476 138.73 81.5049 139.015 82.1932C139.3 82.8814 139.783 83.4697 140.403 83.8836C141.022 84.2975 141.75 84.5184 142.495 84.5184C142.995 84.5184 143.474 84.7168 143.827 85.07C144.18 85.4232 144.379 85.9022 144.379 86.4017C144.379 86.9012 144.18 87.3802 143.827 87.7334C143.474 88.0866 142.995 88.285 142.495 88.285Z" fill="white"/>
<path d="M142.495 99.585C140.497 99.585 138.581 98.7913 137.168 97.3786C135.756 95.9658 134.962 94.0497 134.962 92.0517C134.962 91.5522 135.16 91.0732 135.514 90.72C135.867 90.3668 136.346 90.1684 136.845 90.1684C137.345 90.1684 137.824 90.3668 138.177 90.72C138.53 91.0732 138.729 91.5522 138.729 92.0517C138.729 92.7967 138.95 93.5249 139.363 94.1444C139.777 94.7638 140.366 95.2466 141.054 95.5316C141.742 95.8167 142.499 95.8913 143.23 95.746C143.961 95.6007 144.632 95.2419 145.159 94.7151C145.685 94.1884 146.044 93.5172 146.19 92.7866C146.335 92.0559 146.26 91.2986 145.975 90.6103C145.69 89.922 145.207 89.3338 144.588 88.9199C143.969 88.506 143.24 88.285 142.495 88.285C141.996 88.285 141.517 88.0867 141.164 87.7335C140.81 87.3803 140.612 86.9013 140.612 86.4018C140.612 85.9023 140.81 85.4233 141.164 85.0701C141.517 84.7169 141.996 84.5184 142.495 84.5184C144.493 84.5184 146.409 85.3122 147.822 86.7249C149.235 88.1377 150.029 90.0538 150.029 92.0517C150.029 94.0497 149.235 95.9658 147.822 97.3786C146.409 98.7913 144.493 99.585 142.495 99.585Z" fill="white"/>
<path d="M142.495 101.468C141.996 101.468 141.517 101.269 141.163 100.916C140.81 100.563 140.612 100.084 140.612 99.5846V97.7013C140.612 97.2018 140.81 96.7228 141.163 96.3696C141.517 96.0164 141.996 95.818 142.495 95.818C142.995 95.818 143.474 96.0164 143.827 96.3696C144.18 96.7228 144.378 97.2018 144.378 97.7013V99.5846C144.378 100.084 144.18 100.563 143.827 100.916C143.474 101.269 142.995 101.468 142.495 101.468Z" fill="white"/>
<path d="M142.495 76.9852C141.996 76.9852 141.517 76.7868 141.163 76.4336C140.81 76.0804 140.612 75.6014 140.612 75.1019V73.2186C140.612 72.7191 140.81 72.2401 141.163 71.8869C141.517 71.5337 141.996 71.3353 142.495 71.3353C142.995 71.3353 143.474 71.5337 143.827 71.8869C144.18 72.2401 144.378 72.7191 144.378 73.2186V75.1019C144.378 75.6014 144.18 76.0804 143.827 76.4336C143.474 76.7868 142.995 76.9852 142.495 76.9852Z" fill="white"/>
<path d="M161.328 108.177H123.662C123.163 108.177 122.684 107.978 122.33 107.625C121.977 107.272 121.779 106.793 121.779 106.293C121.779 105.794 121.977 105.315 122.33 104.962C122.684 104.608 123.163 104.41 123.662 104.41H161.328C161.828 104.41 162.307 104.608 162.66 104.962C163.013 105.315 163.212 105.794 163.212 106.293C163.212 106.793 163.013 107.272 162.66 107.625C162.307 107.978 161.828 108.177 161.328 108.177Z" fill="white"/>
</g>
<defs>
<filter id="filter0_d_72_5" x="0" y="0" width="261" height="261" filterUnits="userSpaceOnUse" color-interpolation-filters="sRGB">
<feFlood flood-opacity="0" result="BackgroundImageFix"/>
<feColorMatrix in="SourceAlpha" type="matrix" values="0 0 0 0 0 0 0 0 0 0 0 0 0 0 0 0 0 0 127 0" result="hardAlpha"/>
<feMorphology radius="20" operator="dilate" in="SourceAlpha" result="effect1_dropShadow_72_5"/>
<feOffset/>
<feGaussianBlur stdDeviation="10"/>
<feComposite in2="hardAlpha" operator="out"/>
<feColorMatrix type="matrix" values="0 0 0 0 0 0 0 0 0 0 0 0 0 0 0 0 0 0 0.3 0"/>
<feBlend mode="normal" in2="BackgroundImageFix" result="effect1_dropShadow_72_5"/>
<feBlend mode="normal" in="SourceGraphic" in2="effect1_dropShadow_72_5" result="shape"/>
</filter>
<clipPath id="clip0_72_5">
<rect width="229" height="229" fill="white" transform="translate(19 10)"/>
</clipPath>
</defs>
</svg>
