<svg width="262" height="261" viewBox="0 0 262 261" fill="none" xmlns="http://www.w3.org/2000/svg">
<g filter="url(#filter0_d_73_7)">
<ellipse cx="131" cy="130.5" rx="91" ry="90.5" fill="#140901" fill-opacity="0.4" shape-rendering="crispEdges"/>
</g>
<g clip-path="url(#clip0_73_7)">
<path d="M181.848 50.5704C177.578 54.1347 173.074 53.7172 168.231 52.1285C159.908 49.3992 151.647 46.1047 143.091 44.5364C122.576 40.7786 103.4 44.9234 86.0299 56.7214C81.7901 59.5984 77.7175 62.8012 72.1032 61.7472C70.9317 61.5231 69.7855 61.1616 68.4314 60.8103C92.0246 31.3839 154.903 27.2493 181.848 50.5704Z" fill="#E0B35F"/>
<path d="M208.697 178.286C205.421 173.602 205.066 169.009 207.495 164.329C213.962 151.895 216.224 138.6 215.995 124.714C215.798 112.936 212.4 102.111 206.866 91.8405C204.214 86.8962 201.475 81.9926 198.99 76.9567C197.261 73.4585 196.84 69.7414 198.346 65.8308C225.246 87.1966 233.731 145.413 208.697 178.286Z" fill="#E0B35F"/>
<path d="M81.6479 206.414C85.3807 203.359 89.4025 203.018 93.7438 204.785C98.577 206.745 103.258 209.296 108.264 210.569C131.69 216.537 154.137 214.852 174.748 200.895C179.175 197.896 183.456 194.469 189.329 195.294C190.668 195.477 191.981 195.838 193.386 196.139C177.872 223.732 101.716 230.662 81.6479 206.414Z" fill="#E0B35F"/>
<path d="M52.9731 78.24C56.1682 83.4236 55.94 87.9147 54.4337 92.6044C51.8269 100.701 48.0891 108.664 46.9784 116.969C44.3006 136.981 47.2928 156.177 59.1807 173.205C61.7926 176.942 64.8559 180.573 64.5313 185.588C64.4146 187.325 63.9886 189.041 63.517 191.765C50.2039 179.315 43.266 164.38 40.1875 147.75C35.694 123.4 38.1994 100.059 52.9731 78.24Z" fill="#E0B35F"/>
<path d="M19.9365 99.5192C21.5848 94.4272 22.5129 89.987 24.3793 86.0102C34.6696 64.1149 49.281 45.6515 68.8929 31.445C72.651 28.7208 77.1293 26.9182 81.4503 25.1258C82.8044 24.5657 85.1881 24.8407 86.319 25.7369C88.8549 27.7176 88.5506 30.0752 85.8119 31.893C80.0809 35.6916 74.0609 39.0676 68.4669 43.0546C50.9039 55.5757 38.7066 72.1907 31.6368 92.6298C30.6833 95.3998 29.4915 98.0883 28.3757 100.777C27.5186 102.87 26.2152 104.54 23.8112 103.119C22.3455 102.304 21.2805 100.823 19.9365 99.5192Z" fill="#E0B35F"/>
<path d="M157.312 17.3506C160.75 18.2722 164.376 18.924 167.769 20.197C194.456 30.2027 215.443 47.225 230.191 71.8089C231.541 74.1276 232.701 76.5526 233.66 79.0599C234.319 80.7351 236.196 82.6751 233.016 84.1111C230.368 85.3128 228.294 86.1478 226.382 82.777C222.933 76.6666 219.378 70.5563 215.366 64.8381C204.589 49.4196 189.973 38.8691 172.684 31.8677C168.672 30.2485 164.655 28.6292 160.669 26.9387C154.669 24.3978 154.608 24.1891 157.312 17.3506Z" fill="#E0B35F"/>
<path d="M241.653 156.203C240.496 160.658 239.974 164.401 238.579 167.782C228.183 192.926 211.608 213.003 188.822 227.785C185.87 229.7 182.376 230.759 179.115 232.18C176.64 233.254 175.564 231.9 174.444 229.822C173.323 227.745 173.936 226.477 175.63 225.351C178.07 223.727 180.418 221.93 182.994 220.565C205.193 208.803 220.098 190.721 229.029 167.385C230.617 163.235 232.311 159.064 234.294 155.088C234.715 154.237 236.743 153.596 237.844 153.83C239.239 154.12 240.43 155.393 241.653 156.203Z" fill="#E0B35F"/>
<path d="M102.939 239.97C95.9652 237.363 89.4278 235.505 83.4129 232.567C61.3057 221.782 43.8542 205.778 31.4795 184.351C30.3228 182.367 29.3158 180.299 28.4669 178.164C27.767 176.382 25.7536 174.488 29.0856 172.808C32.0373 171.316 33.858 171.53 35.6433 174.473C40.1418 181.892 44.2194 189.687 49.6156 196.399C61.7317 211.425 76.9466 222.261 95.4783 228.183C98.6176 229.201 101.645 230.56 104.724 231.747C107.26 232.735 106.352 234.715 105.738 236.258C105.241 237.536 104.065 238.534 102.939 239.97Z" fill="#E0B35F"/>
<path d="M24.8357 129.002C25.7182 136.054 26.6158 143.106 27.4729 150.164C27.6859 151.931 27.7722 153.728 27.9243 155.49C28.1931 158.545 25.6674 158.723 23.867 158.845C22.8882 158.907 21.0725 157.486 20.8849 156.498C19.4293 148.768 17.8926 141.019 17.1725 133.202C16.6957 128.06 17.4007 122.784 17.8825 117.596C17.9789 116.521 19.5511 114.647 20.2104 114.744C22.3303 115.055 25.4747 114.484 25.5102 118.186C25.5407 121.751 25.5102 125.315 25.5102 128.91L24.8357 129.002Z" fill="#E0B35F"/>
<path d="M131.005 235.209C138.268 234.247 145.545 233.366 152.813 232.287C158.316 231.467 159.969 232.012 160.831 235.26C161.45 237.603 160.745 238.921 158.336 239.334C150.855 240.546 143.415 242.18 135.889 242.857C130.64 243.331 125.239 242.649 119.974 242.14C118.838 242.033 116.886 240.332 116.972 239.548C117.205 237.414 116.87 234.339 120.634 234.456C124.062 234.568 127.495 234.481 130.924 234.481L131.005 235.209Z" fill="#E0B35F"/>
<path d="M243.296 141.034C236.607 140.606 236.282 140.586 236.612 134.531C237.218 123.318 236.077 112.079 233.229 101.22C232.311 97.7065 234.476 97.5231 236.642 96.6371C239.229 95.6188 240.076 96.9325 240.699 99.0456C244.61 111.882 246.03 124.943 244.158 138.289C243.947 139.227 243.659 140.145 243.296 141.034V141.034Z" fill="#E0B35F"/>
<path d="M130.513 21.6786C122.5 22.9109 114.502 24.2959 106.453 25.2888C103.958 25.5943 100.525 27.4325 99.3936 22.7072C98.8205 20.3089 99.211 19.1428 101.544 18.3943C114.355 14.3971 127.409 12.8645 140.707 14.9216C141.686 15.0744 143.243 16.9584 143.096 17.8546C142.842 19.7284 143.147 22.5544 139.825 22.5086C136.782 22.4628 133.708 22.5086 130.65 22.5086L130.513 21.6786Z" fill="#E0B35F"/>
<path d="M198.011 49.9694C196.394 56.6755 194.781 63.3816 192.94 71.0399L177.061 57.699L196.637 48.895L198.011 49.9694Z" fill="#E0B35F"/>
<path d="M84.9953 199.275L65.358 208.441L64.3436 207.621C66.1846 200.915 68.0206 194.209 70.0746 186.719L84.9953 199.275Z" fill="#E0B35F"/>
<path d="M52.7651 61.9407L72.9045 67.5418L60.3421 82.8176L51.7761 62.7299L52.7651 61.9407Z" fill="#E0B35F"/>
<path d="M209.316 195.823L188.355 190.268L201.242 175.206C203.965 182.177 206.44 188.506 209.316 195.823Z" fill="#E0B35F"/>
<path d="M98.1029 150.312C88.8793 141.578 83.1116 129.201 83.1116 115.494C83.1116 104.585 86.6711 94.3094 93.4056 85.7792C99.9381 77.5045 109.125 71.5574 119.274 69.0332C120.573 68.7106 121.888 69.506 122.21 70.8112C122.531 72.1163 121.739 73.4364 120.44 73.7594C101.316 78.5159 87.9597 95.6779 87.9597 115.494C87.9597 139.201 107.162 158.487 130.765 158.487C154.368 158.487 173.571 139.201 173.571 115.494C173.571 95.6781 160.214 78.5161 141.091 73.7597C139.792 73.4366 138.999 72.1166 139.321 70.8114C139.642 69.5062 140.956 68.7099 142.256 69.0334C152.405 71.5579 161.592 77.505 168.125 85.7797C174.859 94.3099 178.419 104.585 178.419 115.495C178.419 129.201 172.651 141.579 163.427 150.312L176.117 174.689C176.736 175.878 176.281 177.345 175.1 177.971L175.012 178.017C174.47 178.304 173.84 178.373 173.249 178.213L155.661 173.431L149.533 190.666C149.209 191.577 148.379 192.209 147.418 192.276C147.362 192.28 147.306 192.282 147.25 192.282C146.352 192.282 145.522 191.782 145.102 190.976L130.765 163.435L116.428 190.975C116.008 191.782 115.178 192.282 114.281 192.282C114.225 192.282 114.168 192.28 114.112 192.276C113.151 192.209 112.321 191.577 111.997 190.666L105.869 173.43L88.2814 178.213C87.6899 178.374 87.0597 178.304 86.5177 178.017L86.4304 177.97C85.249 177.345 84.794 175.877 85.4126 174.689L98.1029 150.312ZM146.831 183.788L151.849 169.674C152.275 168.477 153.545 167.811 154.765 168.143L169.296 172.094L159.639 153.543C152.939 158.684 144.849 162.083 136.041 163.062L146.831 183.788ZM106.765 168.143C107.986 167.811 109.256 168.477 109.681 169.674L114.699 183.788L125.489 163.062C116.681 162.083 108.591 158.684 101.892 153.543L92.2343 172.094L106.765 168.143Z" fill="white"/>
<path d="M166.299 115.494C166.299 135.174 150.359 151.184 130.765 151.184C111.172 151.184 95.2313 135.174 95.2313 115.494C95.2313 95.8151 111.172 79.8049 130.765 79.8049C150.358 79.8049 166.299 95.8151 166.299 115.494ZM100.079 115.494C100.079 132.489 113.845 146.315 130.765 146.315C147.685 146.315 161.451 132.489 161.451 115.494C161.451 98.5 147.685 84.674 130.765 84.674C113.845 84.674 100.079 98.5 100.079 115.494Z" fill="white"/>
<path d="M134.425 100.042L137.423 105.861C137.773 106.541 138.431 107.02 139.182 107.145L145.619 108.211C147.145 108.463 148.39 109.538 148.868 111.015C149.346 112.493 148.968 114.097 147.881 115.202L143.297 119.865C142.762 120.409 142.511 121.185 142.625 121.941L143.605 128.42C143.837 129.956 143.204 131.477 141.953 132.39C140.702 133.303 139.066 133.437 137.684 132.741L131.852 129.803C131.172 129.46 130.359 129.46 129.678 129.803L123.847 132.741C123.259 133.037 122.626 133.183 121.997 133.183C121.144 133.183 120.297 132.915 119.577 132.39C118.326 131.477 117.693 129.956 117.925 128.42L118.905 121.941C119.019 121.186 118.768 120.409 118.233 119.865L113.649 115.203C112.562 114.097 112.184 112.493 112.662 111.016C113.14 109.538 114.385 108.464 115.911 108.211L122.348 107.145C123.1 107.02 123.757 106.541 124.107 105.862L127.105 100.042C127.816 98.6624 129.219 97.8054 130.765 97.8054C132.312 97.8051 133.714 98.6621 134.425 100.042ZM123.137 111.949L118.086 112.786L121.683 116.444C123.288 118.077 124.041 120.405 123.698 122.673L122.929 127.756L127.505 125.451C128.526 124.937 129.646 124.679 130.766 124.679C131.885 124.679 133.005 124.937 134.026 125.451L138.601 127.756L137.833 122.673C137.49 120.405 138.243 118.077 139.848 116.444L143.445 112.786L138.394 111.949C136.14 111.576 134.168 110.137 133.118 108.099L130.765 103.533L128.412 108.099C127.363 110.136 125.39 111.576 123.137 111.949Z" fill="white"/>
<path d="M130.765 72.5012C129.426 72.5012 128.341 71.4112 128.341 70.0667C128.341 68.7221 129.426 67.6321 130.765 67.6321C132.104 67.6321 133.189 68.7221 133.189 70.0667C133.189 71.4112 132.104 72.5012 130.765 72.5012Z" fill="white"/>
</g>
<defs>
<filter id="filter0_d_73_7" x="0" y="0" width="262" height="261" filterUnits="userSpaceOnUse" color-interpolation-filters="sRGB">
<feFlood flood-opacity="0" result="BackgroundImageFix"/>
<feColorMatrix in="SourceAlpha" type="matrix" values="0 0 0 0 0 0 0 0 0 0 0 0 0 0 0 0 0 0 127 0" result="hardAlpha"/>
<feMorphology radius="20" operator="dilate" in="SourceAlpha" result="effect1_dropShadow_73_7"/>
<feOffset/>
<feGaussianBlur stdDeviation="10"/>
<feComposite in2="hardAlpha" operator="out"/>
<feColorMatrix type="matrix" values="0 0 0 0 0 0 0 0 0 0 0 0 0 0 0 0 0 0 0.3 0"/>
<feBlend mode="normal" in2="BackgroundImageFix" result="effect1_dropShadow_73_7"/>
<feBlend mode="normal" in="SourceGraphic" in2="effect1_dropShadow_73_7" result="shape"/>
</filter>
<clipPath id="clip0_73_7">
<rect width="228" height="229" fill="white" transform="translate(17 14)"/>
</clipPath>
</defs>
</svg>
