<svg width="261" height="261" viewBox="0 0 261 261" fill="none" xmlns="http://www.w3.org/2000/svg">
<g filter="url(#filter0_d_72_4)">
<circle cx="130.5" cy="130.5" r="90.5" fill="#140901" fill-opacity="0.4" shape-rendering="crispEdges"/>
</g>
<g clip-path="url(#clip0_72_4)">
<path d="M180.571 53.5704C176.282 57.1347 171.759 56.7172 166.894 55.1285C158.535 52.3992 150.237 49.1047 141.644 47.5364C121.039 43.7786 101.779 47.9234 84.3327 59.7214C80.0742 62.5984 75.9839 65.8012 70.3449 64.7472C69.1683 64.5231 68.017 64.1616 66.657 63.8103C90.3537 34.3839 153.507 30.2493 180.571 53.5704Z" fill="#E0B35F"/>
<path d="M207.538 181.286C204.247 176.602 203.891 172.009 206.331 167.329C212.826 154.895 215.097 141.6 214.868 127.714C214.67 115.936 211.257 105.111 205.699 94.8405C203.035 89.8962 200.284 84.9926 197.788 79.9567C196.051 76.4585 195.629 72.7414 197.142 68.8308C224.159 90.1966 232.681 148.413 207.538 181.286Z" fill="#E0B35F"/>
<path d="M79.9316 209.414C83.6807 206.359 87.7202 206.018 92.0805 207.785C96.935 209.745 101.637 212.296 106.664 213.569C130.193 219.537 152.738 217.852 173.44 203.895C177.887 200.896 182.186 197.469 188.085 198.294C189.429 198.477 190.749 198.838 192.16 199.139C176.578 226.732 100.088 233.662 79.9316 209.414Z" fill="#E0B35F"/>
<path d="M51.1309 81.24C54.34 86.4236 54.1108 90.9147 52.5979 95.6044C49.9796 103.701 46.2255 111.664 45.1099 119.969C42.4203 139.981 45.4257 159.177 57.3658 176.205C59.9891 179.942 63.0658 183.573 62.7398 188.588C62.6226 190.325 62.1947 192.041 61.721 194.765C48.3496 182.315 41.3812 167.38 38.2892 150.75C33.776 126.4 36.2924 103.059 51.1309 81.24Z" fill="#E0B35F"/>
<path d="M17.9495 102.519C19.605 97.4272 20.5371 92.987 22.4117 89.0102C32.7472 67.1149 47.4226 48.6515 67.1206 34.445C70.8951 31.7208 75.393 29.9182 79.733 28.1258C81.0931 27.5657 83.4872 27.8407 84.6231 28.7369C87.1701 30.7176 86.8644 33.0752 84.1137 34.893C78.3577 38.6916 72.3112 42.0676 66.6927 46.0546C49.0526 58.5757 36.8019 75.1907 29.701 95.6298C28.7434 98.3998 27.5463 101.088 26.4257 103.777C25.5648 105.87 24.2557 107.54 21.8412 106.119C20.3691 105.304 19.2993 103.823 17.9495 102.519Z" fill="#E0B35F"/>
<path d="M155.927 20.3506C159.381 21.2722 163.023 21.924 166.431 23.197C193.235 33.2027 214.313 50.225 229.126 74.8089C230.482 77.1276 231.647 79.5526 232.61 82.0599C233.272 83.7351 235.157 85.6751 231.963 87.1111C229.304 88.3128 227.221 89.1478 225.3 85.777C221.837 79.6666 218.266 73.5563 214.237 67.8381C203.412 52.4196 188.732 41.8691 171.367 34.8677C167.337 33.2485 163.303 31.6292 159.299 29.9387C153.273 27.3978 153.212 27.1891 155.927 20.3506Z" fill="#E0B35F"/>
<path d="M240.638 159.203C239.477 163.658 238.952 167.401 237.551 170.782C227.109 195.926 210.462 216.003 187.575 230.785C184.611 232.7 181.101 233.759 177.826 235.18C175.34 236.254 174.26 234.9 173.134 232.822C172.008 230.745 172.625 229.477 174.326 228.351C176.776 226.727 179.135 224.93 181.722 223.565C204.018 211.803 218.989 193.721 227.959 170.385C229.554 166.235 231.255 162.064 233.247 158.088C233.67 157.237 235.707 156.596 236.813 156.83C238.213 157.12 239.41 158.393 240.638 159.203Z" fill="#E0B35F"/>
<path d="M101.316 242.97C94.3116 240.363 87.7456 238.505 81.7043 235.567C59.5001 224.782 41.9721 208.778 29.543 187.351C28.3813 185.367 27.3699 183.299 26.5173 181.164C25.8143 179.382 23.7921 177.488 27.1387 175.808C30.1034 174.316 31.9321 174.53 33.7251 177.473C38.2434 184.892 42.3388 192.687 47.7587 199.399C59.928 214.425 75.2096 225.261 93.8226 231.183C96.9757 232.201 100.017 233.56 103.109 234.747C105.656 235.735 104.744 237.715 104.127 239.258C103.628 240.536 102.447 241.534 101.316 242.97Z" fill="#E0B35F"/>
<path d="M22.87 132.002C23.7563 139.054 24.658 146.106 25.5188 153.164C25.7328 154.931 25.8194 156.728 25.9722 158.49C26.2421 161.545 23.7054 161.723 21.8971 161.845C20.914 161.907 19.0904 160.486 18.9019 159.498C17.4399 151.768 15.8965 144.019 15.1732 136.202C14.6943 131.06 15.4024 125.784 15.8863 120.596C15.9831 119.521 17.5622 117.647 18.2244 117.744C20.3536 118.055 23.5118 117.484 23.5475 121.186C23.5781 124.751 23.5475 128.315 23.5475 131.91L22.87 132.002Z" fill="#E0B35F"/>
<path d="M129.505 238.209C136.799 237.247 144.109 236.366 151.409 235.287C156.935 234.467 158.596 235.012 159.462 238.26C160.083 240.603 159.375 241.921 156.956 242.334C149.442 243.546 141.97 245.18 134.41 245.857C129.138 246.331 123.713 245.649 118.426 245.14C117.285 245.033 115.324 243.332 115.41 242.548C115.645 240.414 115.308 237.339 119.088 237.456C122.531 237.568 125.98 237.481 129.423 237.481L129.505 238.209Z" fill="#E0B35F"/>
<path d="M242.288 144.034C235.57 143.606 235.244 143.586 235.575 137.531C236.184 126.318 235.038 115.079 232.177 104.22C231.255 100.706 233.43 100.523 235.605 99.6371C238.203 98.6188 239.054 99.9325 239.68 102.046C243.608 114.882 245.034 127.943 243.154 141.289C242.943 142.227 242.653 143.145 242.288 144.034V144.034Z" fill="#E0B35F"/>
<path d="M129.011 24.6786C120.963 25.9109 112.93 27.2959 104.846 28.2888C102.339 28.5943 98.8909 30.4325 97.755 25.7072C97.1794 23.3089 97.5716 22.1428 99.9148 21.3943C112.782 17.3971 125.894 15.8645 139.25 17.9216C140.233 18.0744 141.797 19.9584 141.649 20.8546C141.394 22.7284 141.7 25.5544 138.363 25.5086C135.307 25.4628 132.22 25.5086 129.149 25.5086L129.011 24.6786Z" fill="#E0B35F"/>
<path d="M196.805 52.9694C195.18 59.6755 193.56 66.3816 191.711 74.0399L175.762 60.699L195.425 51.895L196.805 52.9694Z" fill="#E0B35F"/>
<path d="M83.2935 202.275L63.57 211.441L62.5513 210.621C64.4003 203.915 66.2443 197.209 68.3073 189.719L83.2935 202.275Z" fill="#E0B35F"/>
<path d="M50.922 64.9407L71.1498 70.5418L58.5323 85.8176L49.9287 65.7299L50.922 64.9407Z" fill="#E0B35F"/>
<path d="M208.16 198.823L187.107 193.268L200.05 178.206C202.786 185.177 205.271 191.506 208.16 198.823Z" fill="#E0B35F"/>
</g>
<path fill-rule="evenodd" clip-rule="evenodd" d="M127.2 84.4741C116.151 84.4782 105.593 88.5641 97.4398 95.7707C97.1687 95.9985 96.9459 96.2785 96.7845 96.594C96.623 96.9095 96.5261 97.2541 96.4995 97.6077C96.473 97.9613 96.5172 98.3167 96.6297 98.6528C96.7423 98.989 96.9207 99.2992 97.1547 99.5652C97.3886 99.8312 97.6732 100.048 97.9919 100.202C98.3105 100.356 98.6566 100.444 99.0099 100.462C99.3632 100.48 99.7166 100.427 100.049 100.306C100.382 100.185 100.687 99.9987 100.946 99.7578C108.142 93.3974 117.455 89.7937 127.2 89.7901C149.198 89.7801 166.977 107.609 166.977 129.661C166.977 151.712 149.199 169.533 127.2 169.531C117.439 169.53 108.109 165.932 100.905 159.564C100.645 159.323 100.34 159.136 100.008 159.015C99.6751 158.894 99.3218 158.841 98.9685 158.859C98.6152 158.877 98.2691 158.966 97.9504 159.12C97.6318 159.274 97.3472 159.49 97.1132 159.756C96.8793 160.022 96.7008 160.332 96.5883 160.669C96.4758 161.005 96.4315 161.36 96.4581 161.714C96.4847 162.067 96.5815 162.412 96.743 162.727C96.9045 163.043 97.1273 163.323 97.3983 163.551C105.563 170.768 116.139 174.846 127.2 174.847C152.066 174.85 172.281 154.585 172.281 129.661C172.281 104.736 152.067 84.4648 127.2 84.4741Z" fill="white"/>
<path d="M63.5597 127.006C62.8562 127.006 62.1815 127.286 61.6841 127.785C61.1867 128.283 60.9072 128.96 60.9072 129.665C60.9072 130.37 61.1867 131.046 61.6841 131.545C62.1815 132.043 62.8562 132.323 63.5597 132.323H90.0744C90.7779 132.323 91.4525 132.043 91.95 131.545C92.4474 131.046 92.7269 130.37 92.7269 129.665C92.7269 128.96 92.4474 128.283 91.95 127.785C91.4525 127.286 90.7779 127.006 90.0744 127.006H63.5597Z" fill="white"/>
<path d="M68.8645 116.371C68.1611 116.371 67.4864 116.651 66.989 117.15C66.4916 117.648 66.2121 118.325 66.2121 119.03C66.2121 119.735 66.4916 120.411 66.989 120.91C67.4864 121.408 68.1611 121.688 68.8645 121.688H90.0744C90.7778 121.688 91.4525 121.408 91.9499 120.91C92.4473 120.411 92.7268 119.735 92.7268 119.03C92.7268 118.325 92.4473 117.648 91.9499 117.15C91.4525 116.651 90.7778 116.371 90.0744 116.371H68.8645Z" fill="white"/>
<path d="M68.8645 137.631C68.5162 137.631 68.1713 137.7 67.8495 137.833C67.5277 137.967 67.2353 138.163 66.989 138.41C66.7427 138.657 66.5473 138.95 66.414 139.272C66.2807 139.595 66.2121 139.94 66.2121 140.29C66.2121 140.639 66.2807 140.984 66.414 141.307C66.5473 141.63 66.7427 141.923 66.989 142.17C67.2353 142.416 67.5277 142.612 67.8495 142.746C68.1713 142.88 68.5162 142.948 68.8645 142.948H90.0744C90.4227 142.948 90.7676 142.88 91.0894 142.746C91.4112 142.612 91.7036 142.416 91.9499 142.17C92.1962 141.923 92.3916 141.63 92.5249 141.307C92.6582 140.984 92.7268 140.639 92.7268 140.29C92.7268 139.94 92.6582 139.595 92.5249 139.272C92.3916 138.95 92.1962 138.657 91.9499 138.41C91.7036 138.163 91.4112 137.967 91.0894 137.833C90.7676 137.7 90.4227 137.631 90.0744 137.631H68.8645Z" fill="white"/>
<path d="M74.1595 105.736C73.8112 105.736 73.4663 105.804 73.1445 105.938C72.8226 106.072 72.5302 106.268 72.2839 106.514C72.0376 106.761 71.8423 107.054 71.709 107.377C71.5757 107.7 71.5071 108.045 71.5071 108.394C71.5071 108.744 71.5757 109.089 71.709 109.412C71.8423 109.734 72.0376 110.028 72.2839 110.274C72.5302 110.521 72.8226 110.717 73.1445 110.851C73.4663 110.984 73.8112 111.053 74.1595 111.053H95.3791C95.7274 111.053 96.0723 110.984 96.3941 110.851C96.716 110.717 97.0084 110.521 97.2547 110.274C97.501 110.028 97.6963 109.734 97.8296 109.412C97.9629 109.089 98.0315 108.744 98.0315 108.394C98.0315 108.045 97.9629 107.7 97.8296 107.377C97.6963 107.054 97.501 106.761 97.2547 106.514C97.0084 106.268 96.716 106.072 96.3941 105.938C96.0723 105.804 95.7274 105.736 95.3791 105.736H74.1595Z" fill="white"/>
<path d="M74.1595 148.266C73.8112 148.266 73.4663 148.334 73.1445 148.468C72.8226 148.602 72.5302 148.798 72.2839 149.044C72.0376 149.291 71.8423 149.584 71.709 149.907C71.5757 150.23 71.5071 150.575 71.5071 150.924C71.5071 151.274 71.5757 151.619 71.709 151.942C71.8423 152.264 72.0376 152.558 72.2839 152.804C72.5302 153.051 72.8226 153.247 73.1445 153.381C73.4663 153.514 73.8112 153.583 74.1595 153.583H95.3791C95.7274 153.583 96.0723 153.514 96.3941 153.381C96.716 153.247 97.0084 153.051 97.2547 152.804C97.501 152.558 97.6963 152.264 97.8296 151.942C97.9629 151.619 98.0315 151.274 98.0315 150.924C98.0315 150.575 97.9629 150.23 97.8296 149.907C97.6963 149.584 97.501 149.291 97.2547 149.044C97.0084 148.798 96.716 148.602 96.3941 148.468C96.0723 148.334 95.7274 148.266 95.3791 148.266H74.1595Z" fill="white"/>
<path d="M127.16 100.389C126.458 100.4 125.789 100.688 125.299 101.192C124.809 101.696 124.538 102.374 124.546 103.078V129.664C124.549 130.368 124.831 131.042 125.329 131.538L141.234 147.49C141.477 147.75 141.77 147.958 142.095 148.103C142.42 148.247 142.771 148.324 143.126 148.33C143.481 148.335 143.834 148.269 144.164 148.136C144.493 148.002 144.792 147.803 145.044 147.551C145.295 147.3 145.493 147 145.627 146.669C145.76 146.339 145.826 145.985 145.82 145.629C145.814 145.273 145.737 144.922 145.594 144.596C145.45 144.27 145.242 143.977 144.983 143.733L129.851 128.556V103.078C129.855 102.723 129.788 102.37 129.654 102.042C129.52 101.713 129.322 101.415 129.071 101.164C128.82 100.914 128.522 100.716 128.194 100.583C127.865 100.45 127.514 100.384 127.16 100.389Z" fill="white"/>
<path fill-rule="evenodd" clip-rule="evenodd" d="M129.852 95.106C129.852 95.8109 129.572 96.487 129.075 96.9855C128.578 97.4839 127.903 97.764 127.2 97.764C126.497 97.764 125.822 97.4839 125.325 96.9855C124.828 96.487 124.548 95.8109 124.548 95.106C124.548 94.7569 124.617 94.4112 124.75 94.0887C124.883 93.7662 125.079 93.4733 125.325 93.2264C125.571 92.9796 125.863 92.7838 126.185 92.6502C126.507 92.5166 126.852 92.4479 127.2 92.4479C127.548 92.4479 127.893 92.5166 128.215 92.6502C128.536 92.7838 128.829 92.9796 129.075 93.2264C129.321 93.4733 129.517 93.7662 129.65 94.0887C129.783 94.4112 129.852 94.7569 129.852 95.106Z" fill="white"/>
<path fill-rule="evenodd" clip-rule="evenodd" d="M129.852 164.215C129.852 164.92 129.572 165.596 129.075 166.095C128.578 166.593 127.903 166.873 127.2 166.873C126.497 166.873 125.822 166.593 125.325 166.095C124.828 165.596 124.548 164.92 124.548 164.215C124.548 163.866 124.617 163.52 124.75 163.198C124.883 162.875 125.079 162.582 125.325 162.335C125.571 162.089 125.863 161.893 126.185 161.759C126.507 161.626 126.852 161.557 127.2 161.557C127.548 161.557 127.893 161.626 128.215 161.759C128.536 161.893 128.829 162.089 129.075 162.335C129.321 162.582 129.517 162.875 129.65 163.198C129.783 163.52 129.852 163.866 129.852 164.215Z" fill="white"/>
<path fill-rule="evenodd" clip-rule="evenodd" d="M161.674 127.003C162.377 127.003 163.051 127.283 163.549 127.782C164.046 128.28 164.325 128.956 164.325 129.661C164.325 130.366 164.046 131.042 163.549 131.541C163.051 132.039 162.377 132.319 161.674 132.319C161.325 132.319 160.981 132.251 160.659 132.117C160.337 131.983 160.045 131.788 159.798 131.541C159.552 131.294 159.357 131.001 159.224 130.678C159.09 130.356 159.022 130.01 159.022 129.661C159.022 128.956 159.301 128.28 159.798 127.782C160.296 127.283 160.97 127.003 161.674 127.003Z" fill="white"/>
<path fill-rule="evenodd" clip-rule="evenodd" d="M149.702 103.348C150.199 102.85 150.874 102.57 151.577 102.57C152.28 102.57 152.955 102.85 153.452 103.348C153.949 103.847 154.229 104.523 154.229 105.228C154.229 105.933 153.949 106.609 153.452 107.108C153.206 107.354 152.913 107.55 152.592 107.684C152.27 107.817 151.925 107.886 151.577 107.886C151.229 107.886 150.884 107.817 150.562 107.684C150.24 107.55 149.948 107.354 149.702 107.108C149.205 106.609 148.925 105.933 148.925 105.228C148.925 104.523 149.205 103.847 149.702 103.348Z" fill="white"/>
<path fill-rule="evenodd" clip-rule="evenodd" d="M153.452 152.215C153.949 152.714 154.229 153.39 154.229 154.095C154.229 154.8 153.949 155.476 153.452 155.974C152.955 156.473 152.28 156.753 151.577 156.753C150.874 156.753 150.199 156.473 149.702 155.974C149.456 155.728 149.26 155.434 149.127 155.112C148.994 154.789 148.925 154.444 148.925 154.095C148.925 153.746 148.994 153.4 149.127 153.078C149.26 152.755 149.456 152.462 149.702 152.215C150.199 151.717 150.874 151.437 151.577 151.437C152.28 151.437 152.955 151.717 153.452 152.215Z" fill="white"/>
<defs>
<filter id="filter0_d_72_4" x="0" y="0" width="261" height="261" filterUnits="userSpaceOnUse" color-interpolation-filters="sRGB">
<feFlood flood-opacity="0" result="BackgroundImageFix"/>
<feColorMatrix in="SourceAlpha" type="matrix" values="0 0 0 0 0 0 0 0 0 0 0 0 0 0 0 0 0 0 127 0" result="hardAlpha"/>
<feMorphology radius="20" operator="dilate" in="SourceAlpha" result="effect1_dropShadow_72_4"/>
<feOffset/>
<feGaussianBlur stdDeviation="10"/>
<feComposite in2="hardAlpha" operator="out"/>
<feColorMatrix type="matrix" values="0 0 0 0 0 0 0 0 0 0 0 0 0 0 0 0 0 0 0.3 0"/>
<feBlend mode="normal" in2="BackgroundImageFix" result="effect1_dropShadow_72_4"/>
<feBlend mode="normal" in="SourceGraphic" in2="effect1_dropShadow_72_4" result="shape"/>
</filter>
<clipPath id="clip0_72_4">
<rect width="229" height="229" fill="white" transform="translate(15 17)"/>
</clipPath>
</defs>
</svg>
