<svg width="261" height="261" viewBox="0 0 261 261" fill="none" xmlns="http://www.w3.org/2000/svg">
<g filter="url(#filter0_d_72_6)">
<circle cx="130.5" cy="130.5" r="90.5" fill="#140901" fill-opacity="0.4" shape-rendering="crispEdges"/>
</g>
<g clip-path="url(#clip0_72_6)">
<path d="M179.571 52.5704C175.282 56.1347 170.759 55.7172 165.894 54.1285C157.535 51.3992 149.237 48.1047 140.644 46.5364C120.039 42.7786 100.779 46.9234 83.3327 58.7214C79.0742 61.5984 74.9839 64.8012 69.3449 63.7472C68.1683 63.5231 67.017 63.1616 65.657 62.8103C89.3537 33.3839 152.507 29.2493 179.571 52.5704Z" fill="#E0B35F"/>
<path d="M206.538 180.286C203.247 175.602 202.891 171.009 205.331 166.329C211.826 153.895 214.097 140.6 213.868 126.714C213.67 114.936 210.257 104.111 204.699 93.8405C202.035 88.8962 199.284 83.9926 196.788 78.9567C195.051 75.4585 194.629 71.7414 196.142 67.8308C223.159 89.1966 231.681 147.413 206.538 180.286Z" fill="#E0B35F"/>
<path d="M78.9315 208.414C82.6806 205.359 86.72 205.018 91.0804 206.785C95.9348 208.745 100.636 211.296 105.664 212.569C129.193 218.537 151.738 216.852 172.44 202.895C176.887 199.896 181.186 196.469 187.085 197.294C188.429 197.477 189.749 197.838 191.16 198.139C175.577 225.732 99.088 232.662 78.9315 208.414Z" fill="#E0B35F"/>
<path d="M50.1309 80.24C53.34 85.4236 53.1108 89.9147 51.5979 94.6044C48.9796 102.701 45.2255 110.664 44.1099 118.969C41.4203 138.981 44.4257 158.177 56.3658 175.205C58.9891 178.942 62.0658 182.573 61.7398 187.588C61.6226 189.325 61.1947 191.041 60.721 193.765C47.3496 181.315 40.3812 166.38 37.2892 149.75C32.776 125.4 35.2924 102.059 50.1309 80.24Z" fill="#E0B35F"/>
<path d="M16.9493 101.519C18.6048 96.4272 19.537 91.987 21.4116 88.0102C31.747 66.1149 46.4225 47.6515 66.1205 33.445C69.895 30.7208 74.3929 28.9182 78.7329 27.1258C80.093 26.5657 82.4871 26.8407 83.623 27.7369C86.1699 29.7176 85.8643 32.0752 83.1136 33.893C77.3575 37.6916 71.3111 41.0676 65.6926 45.0546C48.0525 57.5757 35.8018 74.1907 28.7009 94.6298C27.7433 97.3998 26.5462 100.088 25.4255 102.777C24.5647 104.87 23.2556 106.54 20.8411 105.119C19.3689 104.304 18.2992 102.823 16.9493 101.519Z" fill="#E0B35F"/>
<path d="M154.927 19.3506C158.381 20.2722 162.023 20.924 165.431 22.197C192.235 32.2027 213.313 49.225 228.126 73.8089C229.482 76.1276 230.647 78.5526 231.61 81.0599C232.272 82.7351 234.157 84.6751 230.963 86.1111C228.304 87.3128 226.221 88.1478 224.3 84.777C220.837 78.6666 217.266 72.5563 213.237 66.8381C202.412 51.4196 187.732 40.8691 170.367 33.8677C166.337 32.2485 162.303 30.6292 158.299 28.9387C152.273 26.3978 152.212 26.1891 154.927 19.3506Z" fill="#E0B35F"/>
<path d="M239.638 158.203C238.477 162.658 237.952 166.401 236.551 169.782C226.109 194.926 209.462 215.003 186.575 229.785C183.611 231.7 180.101 232.759 176.826 234.18C174.34 235.254 173.26 233.9 172.134 231.822C171.008 229.745 171.625 228.477 173.326 227.351C175.776 225.727 178.135 223.93 180.722 222.565C203.018 210.803 217.989 192.721 226.959 169.385C228.554 165.235 230.255 161.064 232.247 157.088C232.67 156.237 234.707 155.596 235.813 155.83C237.213 156.12 238.41 157.393 239.638 158.203Z" fill="#E0B35F"/>
<path d="M100.316 241.97C93.3116 239.363 86.7456 237.505 80.7043 234.567C58.5001 223.782 40.9721 207.778 28.543 186.351C27.3813 184.367 26.3699 182.299 25.5173 180.164C24.8143 178.382 22.7921 176.488 26.1387 174.808C29.1034 173.316 30.9321 173.53 32.7251 176.473C37.2434 183.892 41.3388 191.687 46.7587 198.399C58.928 213.425 74.2096 224.261 92.8226 230.183C95.9757 231.201 99.0167 232.56 102.109 233.747C104.656 234.735 103.744 236.715 103.127 238.258C102.628 239.536 101.447 240.534 100.316 241.97Z" fill="#E0B35F"/>
<path d="M21.87 131.002C22.7563 138.054 23.658 145.106 24.5188 152.164C24.7328 153.931 24.8194 155.728 24.9722 157.49C25.2421 160.545 22.7054 160.723 20.8971 160.845C19.914 160.907 18.0904 159.486 17.9019 158.498C16.4399 150.768 14.8965 143.019 14.1732 135.202C13.6943 130.06 14.4024 124.784 14.8863 119.596C14.9831 118.521 16.5622 116.647 17.2244 116.744C19.3536 117.055 22.5118 116.484 22.5475 120.186C22.5781 123.751 22.5475 127.315 22.5475 130.91L21.87 131.002Z" fill="#E0B35F"/>
<path d="M128.505 237.209C135.8 236.247 143.109 235.366 150.409 234.287C155.936 233.467 157.596 234.012 158.462 237.26C159.084 239.603 158.376 240.921 155.956 241.334C148.443 242.546 140.97 244.18 133.411 244.857C128.138 245.331 122.713 244.649 117.426 244.14C116.285 244.033 114.324 242.332 114.41 241.548C114.645 239.414 114.308 236.339 118.088 236.456C121.532 236.568 124.98 236.481 128.424 236.481L128.505 237.209Z" fill="#E0B35F"/>
<path d="M241.288 143.034C234.57 142.606 234.244 142.586 234.575 136.531C235.184 125.318 234.038 114.079 231.177 103.22C230.255 99.7065 232.43 99.5231 234.605 98.6371C237.203 97.6188 238.054 98.9325 238.68 101.046C242.608 113.882 244.034 126.943 242.154 140.289C241.943 141.227 241.653 142.145 241.288 143.034V143.034Z" fill="#E0B35F"/>
<path d="M128.011 23.6786C119.963 24.9109 111.93 26.2959 103.846 27.2888C101.339 27.5943 97.8909 29.4325 96.755 24.7072C96.1794 22.3089 96.5716 21.1428 98.9148 20.3943C111.782 16.3971 124.894 14.8645 138.25 16.9216C139.233 17.0744 140.797 18.9584 140.649 19.8546C140.394 21.7284 140.7 24.5544 137.363 24.5086C134.307 24.4628 131.22 24.5086 128.149 24.5086L128.011 23.6786Z" fill="#E0B35F"/>
<path d="M195.805 51.9694C194.18 58.6755 192.561 65.3816 190.711 73.0399L174.763 59.699L194.425 50.895L195.805 51.9694Z" fill="#E0B35F"/>
<path d="M82.2935 201.275L62.57 210.441L61.5513 209.621C63.4003 202.915 65.2443 196.209 67.3073 188.719L82.2935 201.275Z" fill="#E0B35F"/>
<path d="M49.922 63.9407L70.1498 69.5418L57.5323 84.8176L48.9287 64.7299L49.922 63.9407Z" fill="#E0B35F"/>
<path d="M207.16 197.823L186.107 192.268L199.05 177.206C201.785 184.177 204.271 190.506 207.16 197.823Z" fill="#E0B35F"/>
</g>
<mask id="path-18-inside-1_72_6" fill="white">
<path d="M185.352 148.992C183.782 145.161 179.264 141.908 172.722 142.943C173.945 140.083 174.647 136.641 174.647 132.461C174.647 117.34 163.831 93.9219 148.996 83.1968C152.175 80.2178 157.37 74.7434 157.56 70.584C157.636 69.1876 157.168 67.9502 156.244 67.0012C155.202 65.95 153.713 65.4121 151.828 65.4121C150.39 65.4121 148.862 65.7082 147.389 65.994C146.141 66.2345 144.858 66.484 143.899 66.484C143.503 66.484 143.256 66.4387 143.131 66.4025C142.167 66.1349 141.086 65.416 139.944 64.6545C138.067 63.4106 135.95 62 133.394 62C130.832 62 128.714 63.4106 126.842 64.6545C125.692 65.416 124.616 66.1349 123.652 66.4025C123.512 66.4387 123.282 66.484 122.883 66.484C121.925 66.484 120.641 66.2357 119.399 65.994C117.915 65.7005 116.399 65.4121 114.957 65.4121C113.07 65.4121 111.578 65.95 110.544 67.0012C109.613 67.9463 109.156 69.1837 109.222 70.584C109.418 74.7447 114.614 80.2191 117.785 83.1968C102.958 93.9219 92.1342 117.331 92.1342 132.461C92.1342 133.528 92.1947 134.535 92.2861 135.505C81.8061 139.424 69.9686 146.292 68.1635 147.35C67.0183 148.023 66.6568 149.461 67.3571 150.555C68.056 151.659 69.5547 152.004 70.6891 151.336C77.2698 147.473 96.028 137.446 103.73 137.446C110.142 137.446 131.651 144.781 139.514 147.652C143.262 149.341 144.304 152.259 143.662 154.422C143.073 156.443 140.866 158.415 136.471 157.898L109.562 154.681C108.234 154.518 107.017 155.429 106.852 156.711C106.687 157.986 107.632 159.161 108.96 159.32L135.866 162.538C136.543 162.62 137.194 162.658 137.821 162.658C143.644 162.658 147.261 159.321 148.33 155.709C148.332 155.707 148.332 155.704 148.332 155.704L171.98 147.889C176.716 146.508 179.835 148.31 180.819 150.714C181.681 152.815 181.053 156.041 176.448 158.225L169.373 161.574C143.662 173.753 131.93 179.312 125.472 179.312C120.177 179.312 112.003 174.991 105.437 171.523C99.3937 168.325 95.8493 166.524 93.3345 166.524C89.8331 166.524 80.3115 170.161 78.4365 170.891C77.1891 171.376 76.591 172.738 77.0951 173.934C77.5991 175.134 79.0144 175.711 80.2591 175.226C84.5562 173.554 91.4527 171.205 93.3358 171.205C94.727 171.205 99.3681 173.656 103.099 175.628C110.523 179.55 118.94 184 125.476 184C133.063 184 144.32 178.667 171.527 165.78L178.597 162.433C185.649 159.076 187.04 153.116 185.352 148.992ZM113.82 70.3823C113.809 70.1379 113.864 70.0849 113.888 70.0564C113.983 69.9543 114.316 69.8457 114.954 69.8457C115.934 69.8457 117.224 70.0952 118.48 70.3396C120.733 70.7844 123.163 71.1516 124.933 70.6616C126.613 70.2013 128.059 69.2341 129.458 68.3097C130.899 67.349 132.265 66.4426 133.391 66.4426C134.512 66.4426 135.875 67.349 137.316 68.3084C138.715 69.238 140.159 70.2 141.842 70.6603C143.608 71.158 146.042 70.7818 148.297 70.3383C149.553 70.0952 150.844 69.8444 151.826 69.8444C152.459 69.8444 152.795 69.953 152.894 70.0552C152.913 70.0823 152.968 70.1366 152.957 70.381C152.842 72.8479 148.113 78.0043 144.457 81.2276H122.327C118.661 77.9965 113.935 72.8492 113.82 70.3823ZM166.123 144.879L148.347 150.751C147.576 147.925 145.438 145.122 141.469 143.37C141.42 143.347 141.37 143.329 141.32 143.309C138.367 142.231 112.215 132.773 103.727 132.773C101.769 132.773 99.3869 133.231 96.7888 133.986C96.7619 133.483 96.7391 132.987 96.7391 132.45C96.7391 117.844 107.552 94.9382 122.117 85.6599H144.659C159.224 94.9434 170.04 117.849 170.04 132.45C170.034 138.003 168.643 141.996 166.123 144.879ZM142.081 117.153C141.315 116.391 140.374 115.72 139.253 115.129C138.129 114.538 136.589 113.892 134.62 113.197C132.648 112.503 131.249 111.767 130.433 110.99C129.612 110.209 129.199 109.181 129.199 107.892C129.199 106.464 129.614 105.356 130.444 104.585C131.273 103.814 132.432 103.427 133.903 103.427C135.391 103.427 136.575 103.964 137.448 105.032C138.316 106.107 138.753 107.579 138.753 109.437H144.336C144.336 106.537 143.604 104.184 142.141 102.369C140.679 100.559 138.61 99.4662 135.936 99.0951V94.218H132.245V99.0511C129.585 99.3472 127.475 100.287 125.924 101.876C124.372 103.459 123.598 105.478 123.598 107.936C123.598 111.564 125.389 114.298 128.975 116.152C130.051 116.716 131.558 117.319 133.492 117.983C135.429 118.642 136.816 119.379 137.648 120.203C138.475 121.024 138.895 122.062 138.895 123.319C138.895 124.666 138.436 125.746 137.524 126.561C136.605 127.373 135.274 127.779 133.519 127.779C131.745 127.779 130.355 127.267 129.376 126.243C128.399 125.222 127.911 123.78 127.911 121.915H122.307C122.307 124.846 123.125 127.195 124.761 128.972C126.399 130.748 128.741 131.799 131.789 132.124V136.428H135.459V132.098C138.301 131.817 140.526 130.894 142.11 129.348C143.707 127.795 144.499 125.765 144.499 123.27C144.499 121.937 144.295 120.77 143.874 119.784C143.451 118.797 142.852 117.913 142.081 117.153Z"/>
</mask>
<path d="M185.352 148.992C183.782 145.161 179.264 141.908 172.722 142.943C173.945 140.083 174.647 136.641 174.647 132.461C174.647 117.34 163.831 93.9219 148.996 83.1968C152.175 80.2178 157.37 74.7434 157.56 70.584C157.636 69.1876 157.168 67.9502 156.244 67.0012C155.202 65.95 153.713 65.4121 151.828 65.4121C150.39 65.4121 148.862 65.7082 147.389 65.994C146.141 66.2345 144.858 66.484 143.899 66.484C143.503 66.484 143.256 66.4387 143.131 66.4025C142.167 66.1349 141.086 65.416 139.944 64.6545C138.067 63.4106 135.95 62 133.394 62C130.832 62 128.714 63.4106 126.842 64.6545C125.692 65.416 124.616 66.1349 123.652 66.4025C123.512 66.4387 123.282 66.484 122.883 66.484C121.925 66.484 120.641 66.2357 119.399 65.994C117.915 65.7005 116.399 65.4121 114.957 65.4121C113.07 65.4121 111.578 65.95 110.544 67.0012C109.613 67.9463 109.156 69.1837 109.222 70.584C109.418 74.7447 114.614 80.2191 117.785 83.1968C102.958 93.9219 92.1342 117.331 92.1342 132.461C92.1342 133.528 92.1947 134.535 92.2861 135.505C81.8061 139.424 69.9686 146.292 68.1635 147.35C67.0183 148.023 66.6568 149.461 67.3571 150.555C68.056 151.659 69.5547 152.004 70.6891 151.336C77.2698 147.473 96.028 137.446 103.73 137.446C110.142 137.446 131.651 144.781 139.514 147.652C143.262 149.341 144.304 152.259 143.662 154.422C143.073 156.443 140.866 158.415 136.471 157.898L109.562 154.681C108.234 154.518 107.017 155.429 106.852 156.711C106.687 157.986 107.632 159.161 108.96 159.32L135.866 162.538C136.543 162.62 137.194 162.658 137.821 162.658C143.644 162.658 147.261 159.321 148.33 155.709C148.332 155.707 148.332 155.704 148.332 155.704L171.98 147.889C176.716 146.508 179.835 148.31 180.819 150.714C181.681 152.815 181.053 156.041 176.448 158.225L169.373 161.574C143.662 173.753 131.93 179.312 125.472 179.312C120.177 179.312 112.003 174.991 105.437 171.523C99.3937 168.325 95.8493 166.524 93.3345 166.524C89.8331 166.524 80.3115 170.161 78.4365 170.891C77.1891 171.376 76.591 172.738 77.0951 173.934C77.5991 175.134 79.0144 175.711 80.2591 175.226C84.5562 173.554 91.4527 171.205 93.3358 171.205C94.727 171.205 99.3681 173.656 103.099 175.628C110.523 179.55 118.94 184 125.476 184C133.063 184 144.32 178.667 171.527 165.78L178.597 162.433C185.649 159.076 187.04 153.116 185.352 148.992ZM113.82 70.3823C113.809 70.1379 113.864 70.0849 113.888 70.0564C113.983 69.9543 114.316 69.8457 114.954 69.8457C115.934 69.8457 117.224 70.0952 118.48 70.3396C120.733 70.7844 123.163 71.1516 124.933 70.6616C126.613 70.2013 128.059 69.2341 129.458 68.3097C130.899 67.349 132.265 66.4426 133.391 66.4426C134.512 66.4426 135.875 67.349 137.316 68.3084C138.715 69.238 140.159 70.2 141.842 70.6603C143.608 71.158 146.042 70.7818 148.297 70.3383C149.553 70.0952 150.844 69.8444 151.826 69.8444C152.459 69.8444 152.795 69.953 152.894 70.0552C152.913 70.0823 152.968 70.1366 152.957 70.381C152.842 72.8479 148.113 78.0043 144.457 81.2276H122.327C118.661 77.9965 113.935 72.8492 113.82 70.3823ZM166.123 144.879L148.347 150.751C147.576 147.925 145.438 145.122 141.469 143.37C141.42 143.347 141.37 143.329 141.32 143.309C138.367 142.231 112.215 132.773 103.727 132.773C101.769 132.773 99.3869 133.231 96.7888 133.986C96.7619 133.483 96.7391 132.987 96.7391 132.45C96.7391 117.844 107.552 94.9382 122.117 85.6599H144.659C159.224 94.9434 170.04 117.849 170.04 132.45C170.034 138.003 168.643 141.996 166.123 144.879ZM142.081 117.153C141.315 116.391 140.374 115.72 139.253 115.129C138.129 114.538 136.589 113.892 134.62 113.197C132.648 112.503 131.249 111.767 130.433 110.99C129.612 110.209 129.199 109.181 129.199 107.892C129.199 106.464 129.614 105.356 130.444 104.585C131.273 103.814 132.432 103.427 133.903 103.427C135.391 103.427 136.575 103.964 137.448 105.032C138.316 106.107 138.753 107.579 138.753 109.437H144.336C144.336 106.537 143.604 104.184 142.141 102.369C140.679 100.559 138.61 99.4662 135.936 99.0951V94.218H132.245V99.0511C129.585 99.3472 127.475 100.287 125.924 101.876C124.372 103.459 123.598 105.478 123.598 107.936C123.598 111.564 125.389 114.298 128.975 116.152C130.051 116.716 131.558 117.319 133.492 117.983C135.429 118.642 136.816 119.379 137.648 120.203C138.475 121.024 138.895 122.062 138.895 123.319C138.895 124.666 138.436 125.746 137.524 126.561C136.605 127.373 135.274 127.779 133.519 127.779C131.745 127.779 130.355 127.267 129.376 126.243C128.399 125.222 127.911 123.78 127.911 121.915H122.307C122.307 124.846 123.125 127.195 124.761 128.972C126.399 130.748 128.741 131.799 131.789 132.124V136.428H135.459V132.098C138.301 131.817 140.526 130.894 142.11 129.348C143.707 127.795 144.499 125.765 144.499 123.27C144.499 121.937 144.295 120.77 143.874 119.784C143.451 118.797 142.852 117.913 142.081 117.153Z" fill="white" stroke="white" stroke-width="2" mask="url(#path-18-inside-1_72_6)"/>
<defs>
<filter id="filter0_d_72_6" x="0" y="0" width="261" height="261" filterUnits="userSpaceOnUse" color-interpolation-filters="sRGB">
<feFlood flood-opacity="0" result="BackgroundImageFix"/>
<feColorMatrix in="SourceAlpha" type="matrix" values="0 0 0 0 0 0 0 0 0 0 0 0 0 0 0 0 0 0 127 0" result="hardAlpha"/>
<feMorphology radius="20" operator="dilate" in="SourceAlpha" result="effect1_dropShadow_72_6"/>
<feOffset/>
<feGaussianBlur stdDeviation="10"/>
<feComposite in2="hardAlpha" operator="out"/>
<feColorMatrix type="matrix" values="0 0 0 0 0 0 0 0 0 0 0 0 0 0 0 0 0 0 0.3 0"/>
<feBlend mode="normal" in2="BackgroundImageFix" result="effect1_dropShadow_72_6"/>
<feBlend mode="normal" in="SourceGraphic" in2="effect1_dropShadow_72_6" result="shape"/>
</filter>
<clipPath id="clip0_72_6">
<rect width="229" height="229" fill="white" transform="translate(14 16)"/>
</clipPath>
</defs>
</svg>
