<svg width="209" height="186" viewBox="0 0 209 186" fill="none" xmlns="http://www.w3.org/2000/svg">
<path d="M66.1015 59.9812C63.7914 58.9105 61.2156 58.5489 58.7 58.9421C56.1844 59.3353 53.8418 60.4656 51.9686 62.1901C50.0954 63.9147 48.7756 66.1559 48.1762 68.6305C47.5768 71.1051 47.7246 73.7019 48.601 76.0925C49.4774 78.4831 51.043 80.5601 53.0999 82.0609C55.1567 83.5617 57.6124 84.4188 60.1564 84.524C62.7004 84.6291 65.2184 83.9775 67.3921 82.6516C69.5658 81.3256 71.2974 79.3849 72.3681 77.0748C73.8038 73.977 73.9502 70.4358 72.775 67.2301C71.5998 64.0245 69.1992 61.4169 66.1015 59.9812ZM112.826 81.6369C110.516 80.5662 107.94 80.2046 105.424 80.5978C102.909 80.991 100.566 82.1213 98.693 83.8458C96.8198 85.5704 95.5 87.8117 94.9006 90.2863C94.3011 92.7609 94.449 95.3576 95.3254 97.7482C96.2018 100.139 97.7674 102.216 99.8242 103.717C101.881 105.217 104.337 106.075 106.881 106.18C109.425 106.285 111.943 105.633 114.116 104.307C116.29 102.981 118.022 101.041 119.092 98.7305C120.528 95.6334 120.675 92.093 119.5 88.8879C118.326 85.6827 115.926 83.0752 112.83 81.6387L112.826 81.6369ZM159.55 103.293C157.24 102.222 154.664 101.86 152.149 102.254C149.633 102.647 147.291 103.777 145.417 105.502C143.544 107.226 142.224 109.467 141.625 111.942C141.026 114.417 141.173 117.013 142.05 119.404C142.926 121.795 144.492 123.872 146.549 125.372C148.605 126.873 151.061 127.73 153.605 127.835C156.149 127.941 158.667 127.289 160.841 125.963C163.015 124.637 164.746 122.696 165.817 120.386C167.252 117.289 167.399 113.749 166.224 110.544C165.05 107.338 162.651 104.731 159.554 103.294L159.55 103.293ZM145.314 11.5502C93.7173 -12.3639 34.8946 4.84488 13.9636 50.0056C2.002 75.814 5.05044 105.14 19.4497 130.022L0.281149 171.381L52.73 165.512C58.054 169.157 63.6676 172.358 69.5144 175.086C121.127 199.007 179.934 181.791 200.865 136.63C221.796 91.4696 196.927 35.4716 145.314 11.5502ZM74.9318 163.407C68.3027 160.311 62.0182 156.526 56.1823 152.113L21.0131 155.887L33.9349 128.97C18.7435 106.531 14.6356 79.1702 25.6437 55.4191C43.5788 16.7223 94.7362 2.29749 139.897 23.2285C185.058 44.1595 207.12 92.5103 189.181 131.215C171.242 169.92 120.077 184.331 74.9318 163.407Z" fill="white" fill-opacity="0.2"/>
</svg>
