<svg width="101" height="61" viewBox="0 0 101 61" fill="none" xmlns="http://www.w3.org/2000/svg">
<rect x="0.55896" y="0.548035" width="100" height="60" rx="4" fill="white"/>
<path fill-rule="evenodd" clip-rule="evenodd" d="M59.2201 36.6583C55.0391 39.7378 48.979 41.3807 43.7614 41.3807C36.4454 41.3807 29.8592 38.6769 24.8764 34.1798C24.4849 33.8262 24.8357 33.3442 25.3055 33.6196C30.6828 36.746 37.3317 38.6268 44.1999 38.6268C48.8318 38.6268 53.9273 37.6692 58.6126 35.6819C59.3204 35.3815 59.9123 36.1451 59.2201 36.6583" fill="#FF9900"/>
<path fill-rule="evenodd" clip-rule="evenodd" d="M60.9583 34.6711C60.4258 33.9889 57.4255 34.3488 56.0789 34.5084C55.6686 34.5585 55.6059 34.2017 55.9755 33.9451C58.3651 32.2645 62.2862 32.7496 62.7434 33.3129C63.2007 33.8794 62.6244 37.8069 60.3789 39.6814C60.0344 39.9693 59.7055 39.816 59.859 39.4342C60.3632 38.1762 61.4938 35.3565 60.9583 34.6711" fill="#FF9900"/>
<path fill-rule="evenodd" clip-rule="evenodd" d="M56.1729 22.0812V20.4476C56.1729 20.2004 56.3608 20.0345 56.5863 20.0345H63.9054C64.1403 20.0345 64.3282 20.2035 64.3282 20.4476V21.8465C64.3251 22.0812 64.1278 22.3879 63.777 22.873L59.9843 28.2838C61.3937 28.2494 62.8813 28.4591 64.1591 29.1789C64.4472 29.3416 64.5255 29.5795 64.5474 29.8142V31.5573C64.5474 31.7951 64.2843 32.0737 64.0087 31.9297C61.757 30.7499 58.766 30.6216 56.2762 31.9422C56.0226 32.0799 55.7563 31.8045 55.7563 31.5667V29.9112C55.7563 29.6452 55.7595 29.1914 56.0257 28.7877L60.4197 22.4912H56.5957C56.3608 22.4912 56.1729 22.3253 56.1729 22.0812" fill="#221F1F"/>
<path fill-rule="evenodd" clip-rule="evenodd" d="M29.4738 32.2739H27.2471C27.0341 32.2583 26.865 32.0987 26.8494 31.8953V20.4758C26.8494 20.2473 27.0404 20.0658 27.2784 20.0658H29.3548C29.5709 20.0752 29.7432 20.2411 29.7588 20.4476V21.9404H29.7996C30.3414 20.4977 31.3592 19.8248 32.731 19.8248C34.1246 19.8248 34.9953 20.4977 35.6216 21.9404C36.1603 20.4977 37.3849 19.8248 38.6971 19.8248C39.6304 19.8248 40.6514 20.2098 41.2746 21.0735C41.9793 22.0342 41.8352 23.43 41.8352 24.6536L41.8321 31.8608C41.8321 32.0893 41.641 32.2739 41.403 32.2739H39.1794C38.9571 32.2583 38.7785 32.0799 38.7785 31.8608V25.8084C38.7785 25.3265 38.8224 24.1247 38.7159 23.6678C38.5499 22.9011 38.052 22.6852 37.4068 22.6852C36.8681 22.6852 36.3044 23.0451 36.0758 23.6209C35.8471 24.1967 35.8691 25.1606 35.8691 25.8084V31.8608C35.8691 32.0893 35.678 32.2739 35.44 32.2739H33.2164C32.9909 32.2583 32.8155 32.0799 32.8155 31.8608L32.8124 25.8084C32.8124 24.5347 33.0222 22.6601 31.4406 22.6601C29.8403 22.6601 29.9029 24.4878 29.9029 25.8084V31.8608C29.9029 32.0893 29.7119 32.2739 29.4738 32.2739" fill="#221F1F"/>
<path fill-rule="evenodd" clip-rule="evenodd" d="M70.6294 19.8248C73.9334 19.8248 75.7217 22.6601 75.7217 26.2653C75.7217 29.7484 73.7455 32.5118 70.6294 32.5118C67.3848 32.5118 65.6184 29.6765 65.6184 26.1433C65.6184 22.5882 67.4067 19.8248 70.6294 19.8248M70.6481 22.1563C69.0071 22.1563 68.9037 24.3908 68.9037 25.7834C68.9037 27.1791 68.8818 30.1584 70.6294 30.1584C72.355 30.1584 72.4364 27.755 72.4364 26.2904C72.4364 25.3265 72.3957 24.1748 72.1044 23.261C71.8539 22.4661 71.3559 22.1563 70.6481 22.1563" fill="#221F1F"/>
<path fill-rule="evenodd" clip-rule="evenodd" d="M80.0061 32.2739H77.7888C77.5664 32.2583 77.3879 32.0799 77.3879 31.8608L77.3848 20.4382C77.4036 20.2285 77.5883 20.0658 77.8138 20.0658H79.8777C80.0719 20.0752 80.2316 20.2066 80.2755 20.385V22.1313H80.3162C80.9394 20.5696 81.8132 19.8248 83.3509 19.8248C84.35 19.8248 85.324 20.1847 85.9503 21.1705C86.5329 22.0843 86.5329 23.6209 86.5329 24.7256V31.914C86.5078 32.1143 86.323 32.2739 86.1038 32.2739H83.8708C83.6672 32.2583 83.4981 32.1081 83.4762 31.914V25.7114C83.4762 24.4627 83.6203 22.6351 82.0825 22.6351C81.5407 22.6351 81.0428 22.9981 80.7953 23.5489C80.4822 24.2468 80.4414 24.9415 80.4414 25.7114V31.8608C80.4383 32.0893 80.2441 32.2739 80.0061 32.2739" fill="#221F1F"/>
<path fill-rule="evenodd" clip-rule="evenodd" d="M50.3382 26.8192C50.3382 27.6861 50.3601 28.409 49.9216 29.1789C49.5677 29.8048 49.004 30.1897 48.3808 30.1897C47.5258 30.1897 47.0247 29.5388 47.0247 28.578C47.0247 26.6815 48.7253 26.3373 50.3382 26.3373V26.8192M52.5837 32.2426C52.4365 32.3741 52.2235 32.3835 52.0576 32.2958C51.3184 31.6825 51.1838 31.3977 50.7798 30.8125C49.5584 32.058 48.6908 32.4304 47.1093 32.4304C45.2333 32.4304 43.777 31.2756 43.777 28.9629C43.777 27.1572 44.7541 25.9273 46.1509 25.3265C47.3598 24.7945 49.0479 24.7006 50.3382 24.5535V24.2656C50.3382 23.7367 50.3789 23.1108 50.0657 22.6539C49.7964 22.2439 49.2765 22.0749 48.8161 22.0749C47.9674 22.0749 47.2126 22.5099 47.0278 23.4112C46.9902 23.6115 46.843 23.8087 46.6395 23.8181L44.4816 23.5865C44.3 23.5458 44.0964 23.3987 44.1497 23.1202C44.6445 20.5039 47.0122 19.7153 49.1293 19.7153C50.2129 19.7153 51.6285 20.0032 52.4835 20.8231C53.5671 21.834 53.4638 23.1828 53.4638 24.6505V28.118C53.4638 29.1601 53.8959 29.617 54.3031 30.1803C54.444 30.3806 54.4753 30.6216 54.2937 30.7718C53.8396 31.1505 53.0316 31.8546 52.5868 32.2489L52.5837 32.2426" fill="#221F1F"/>
<path fill-rule="evenodd" clip-rule="evenodd" d="M21.1463 26.8192C21.1463 27.6861 21.1682 28.409 20.7298 29.1789C20.3759 29.8048 19.8153 30.1897 19.1889 30.1897C18.3339 30.1897 17.8359 29.5388 17.8359 28.578C17.8359 26.6815 19.5365 26.3373 21.1463 26.3373V26.8192M23.3918 32.2426C23.2446 32.3741 23.0317 32.3835 22.8657 32.2958C22.1266 31.6825 21.995 31.3977 21.5879 30.8125C20.3665 32.058 19.5021 32.4304 17.9174 32.4304C16.0445 32.4304 14.5851 31.2756 14.5851 28.9629C14.5851 27.1572 15.5653 25.9273 16.959 25.3265C18.1679 24.7945 19.856 24.7006 21.1463 24.5535V24.2656C21.1463 23.7367 21.187 23.1108 20.8769 22.6539C20.6045 22.2439 20.0846 22.0749 19.6273 22.0749C18.7786 22.0749 18.0207 22.5099 17.8359 23.4112C17.7983 23.6115 17.6512 23.8087 17.4507 23.8181L15.2897 23.5865C15.1081 23.5458 14.9077 23.3987 14.9578 23.1202C15.4557 20.5039 17.8203 19.7153 19.9374 19.7153C21.021 19.7153 22.4366 20.0032 23.2916 20.8231C24.3752 21.834 24.2719 23.1828 24.2719 24.6505V28.118C24.2719 29.1601 24.7041 29.617 25.1112 30.1803C25.2553 30.3806 25.2866 30.6216 25.1049 30.7718C24.6508 31.1505 23.8428 31.8546 23.3981 32.2489L23.3918 32.2426" fill="#221F1F"/>
</svg>
