<svg width="100" height="60" viewBox="0 0 100 60" fill="none" xmlns="http://www.w3.org/2000/svg">
<rect width="100" height="60" rx="4" fill="white"/>
<path fill-rule="evenodd" clip-rule="evenodd" d="M84.4074 34.6656H80.8743C80.5216 34.6656 80.2873 34.6787 80.0898 34.8116C79.8853 34.9426 79.8066 35.137 79.8066 35.3936C79.8066 35.6987 79.9793 35.9062 80.2305 35.9959C80.435 36.0669 80.6547 36.0876 80.9776 36.0876L82.0282 36.1157C83.0884 36.1418 83.7961 36.3235 84.2276 36.7666C84.3061 36.8283 84.3533 36.8976 84.4074 36.9669V34.6656ZM84.4074 39.9976C83.9365 40.6841 83.0189 41.0322 81.7767 41.0322H78.0331V39.2979H81.7616C82.1314 39.2979 82.3903 39.2494 82.5461 39.0977C82.6811 38.9726 82.7753 38.7909 82.7753 38.5701C82.7753 38.3346 82.6811 38.1475 82.5385 38.0353C82.3978 37.9119 82.1931 37.8558 81.8555 37.8558C80.0353 37.7941 77.7645 37.9119 77.7645 35.3526C77.7645 34.1795 78.5116 32.9447 80.5458 32.9447H84.4071V31.3356H80.8195C79.7369 31.3356 78.9504 31.5941 78.3934 31.996V31.3356H73.0869C72.2383 31.3356 71.2422 31.5453 70.7711 31.996V31.3356H61.295V31.996C60.5408 31.4536 59.2683 31.3356 58.681 31.3356H52.4305V31.996C51.8338 31.42 50.507 31.3356 49.6983 31.3356H42.7029L41.1021 33.0628L39.6029 31.3356H29.1532V42.6206H39.4062L41.0557 40.8661L42.6095 42.6206L48.9295 42.6262V39.9715H49.5508C50.3894 39.9844 51.3784 39.9508 52.2509 39.5747V42.6203H57.4638V39.6791H57.7152C58.0362 39.6791 58.0677 39.6923 58.0677 40.012V42.6201H73.9034C74.9088 42.6201 75.9597 42.3635 76.5416 41.8979V42.6201H81.5647C82.6099 42.6201 83.6307 42.474 84.4074 42.0999V39.9976V39.9976ZM76.6747 36.7666C77.0522 37.1561 77.2545 37.6478 77.2545 38.4802C77.2545 40.22 76.1642 41.0322 74.2092 41.0322H70.4335V39.2979H74.194C74.5617 39.2979 74.8225 39.2494 74.9859 39.0977C75.1192 38.9726 75.2148 38.7909 75.2148 38.5701C75.2148 38.3346 75.1113 38.1475 74.9783 38.0353C74.83 37.9119 74.6255 37.8558 74.288 37.8558C72.4751 37.7941 70.2048 37.9119 70.2048 35.3526C70.2048 34.1795 70.944 32.9447 72.9763 32.9447H76.8626V34.666H73.3065C72.954 34.666 72.7248 34.6792 72.5299 34.8121C72.3175 34.9431 72.2388 35.1375 72.2388 35.394C72.2388 35.6991 72.4191 35.9067 72.663 35.9964C72.8675 36.0674 73.0871 36.0881 73.4174 36.0881L74.4609 36.1162C75.5133 36.1418 76.2356 36.3232 76.6747 36.7666V36.7666ZM59.1825 36.2671C58.9232 36.4206 58.6025 36.4337 58.2253 36.4337H55.8703V34.6173H58.2573C58.6025 34.6173 58.9479 34.6246 59.1825 34.7634C59.4337 34.8943 59.5839 35.1448 59.5839 35.4909C59.5839 35.8369 59.4337 36.1157 59.1825 36.2671V36.2671ZM60.3532 37.2737C60.7847 37.4324 61.1375 37.717 61.3028 37.9526C61.5765 38.3475 61.6162 38.716 61.624 39.4289V41.0322H59.6778V40.0203C59.6778 39.5337 59.7248 38.8133 59.3645 38.4372C59.0812 38.1475 58.6494 38.0782 57.9422 38.0782H55.8706V41.0322H53.9226V32.9445H58.3982C59.3796 32.9445 60.0944 32.9876 60.7307 33.3262C61.3424 33.6947 61.7272 34.1995 61.7272 35.1221C61.727 36.413 60.8635 37.0717 60.3532 37.2737V37.2737ZM62.8021 32.9445H69.272V34.617H64.7326V36.0874H69.1612V37.7375H64.7326V39.3467L69.272 39.354V41.0322H62.8021V32.9445V32.9445ZM49.723 36.6769H47.2179V34.6173H49.7455C50.4454 34.6173 50.9312 34.9016 50.9312 35.6089C50.9312 36.3084 50.4679 36.6769 49.723 36.6769V36.6769ZM45.2871 40.2966L42.3108 37.0022L45.2871 33.8125V40.2966V40.2966ZM37.6009 39.3467H32.8347V37.7375H37.0906V36.0874H32.8347V34.617H37.6948L39.8152 36.9739L37.6009 39.3467V39.3467ZM53.0124 35.6089C53.0124 37.8556 51.3311 38.3194 49.6367 38.3194H47.2179V41.0322H43.45L41.063 38.3548L38.5823 41.0322H30.9037V32.9445H38.7005L41.0855 35.5955L43.5513 32.9445H49.7455C51.2839 32.9445 53.0124 33.3691 53.0124 35.6089V35.6089Z" fill="#0072CE"/>
<path fill-rule="evenodd" clip-rule="evenodd" d="M21.6549 23.6242L20.3281 20.4008L19.0088 23.6242H21.6549ZM50.8845 22.3406C50.6181 22.5019 50.303 22.5072 49.9256 22.5072H47.5706V20.7113H49.9576C50.2954 20.7113 50.6479 20.7264 50.8769 20.8571C51.1284 20.9749 51.2839 21.2256 51.2839 21.5719C51.2839 21.9253 51.1359 22.2097 50.8845 22.3406V22.3406ZM67.6845 23.6242L66.343 20.4008L65.0088 23.6242H67.6845V23.6242ZM36.3683 27.1132H34.381L34.3736 20.7805L31.5627 27.1132H29.8606L27.0424 20.7749V27.1132H23.0996L22.3547 25.3097H18.3185L17.5661 27.1132H15.4606L18.932 19.0275H21.8122L25.1091 26.683V19.0275H28.2731L30.81 24.5127L33.1405 19.0275H36.368V27.1132H36.3683ZM44.2888 27.1132H37.813V19.0275H44.2888V20.7113H39.7516V22.1687H44.1799V23.8261H39.7516V25.4409H44.2888V27.1132V27.1132ZM53.4195 21.2051C53.4195 22.4943 52.5564 23.1603 52.0535 23.3603C52.4777 23.5213 52.84 23.8057 53.0124 24.0413C53.2861 24.4434 53.3334 24.8027 53.3334 25.5248V27.1132H51.3781L51.3708 26.0935C51.3708 25.607 51.4175 24.9073 51.0648 24.5183C50.7815 24.2339 50.3497 24.1722 49.6518 24.1722H47.5709V27.1132H45.6325V19.0275H50.0912C51.0819 19.0275 51.8118 19.0536 52.4385 19.4148C53.0518 19.776 53.4195 20.3032 53.4195 21.2051V21.2051ZM56.5217 27.1132H54.5437V19.0275H56.5217V27.1132V27.1132ZM79.469 27.1132H76.7219L73.0475 21.0444V27.1132H69.0996L68.3452 25.3097H64.3182L63.5863 27.1132H61.318C60.3757 27.1132 59.1827 26.9054 58.5071 26.2189C57.8258 25.5324 57.4713 24.6024 57.4713 23.1321C57.4713 21.9329 57.6832 20.8366 58.5164 19.9703C59.1431 19.325 60.1245 19.0275 61.4604 19.0275H63.3371V20.76H61.4997C60.7923 20.76 60.3928 20.8649 60.008 21.239C59.6776 21.5795 59.4508 22.2231 59.4508 23.0706C59.4508 23.9369 59.6235 24.5615 59.9838 24.9695C60.2823 25.2895 60.8246 25.3865 61.3349 25.3865H62.2055L64.9376 19.0277H67.8422L71.1243 26.6757V19.0277H74.0759L77.4834 24.659V19.0277H79.469V27.1132V27.1132ZM15.4381 28.7014H18.7503L19.4971 26.9054H21.1691L21.9139 28.7014H28.4308V27.3283L29.0125 28.7072H32.3956L32.9773 27.3078V28.7014H49.1731L49.1655 25.7533H49.4789C49.6983 25.7609 49.7624 25.7811 49.7624 26.1423V28.7014H58.1389V28.0151C58.8145 28.376 59.8654 28.7014 61.2483 28.7014H64.7723L65.5264 26.9054H67.1984L67.9359 28.7014H74.7268V26.9954L75.7552 28.7014H81.197V17.4242H75.8115V18.756L75.0573 17.4242H69.5311V18.756L68.8386 17.4242H61.374C60.1245 17.4242 59.0261 17.5981 58.1389 18.0827V17.4242H52.9877V18.0827C52.4231 17.5832 51.6538 17.4242 50.7984 17.4242H31.979L30.7163 20.3369L29.4196 17.4242H23.492V18.756L22.8408 17.4242H17.7855L15.4379 22.786V28.7014H15.4381Z" fill="#0072CE"/>
</svg>
