<svg width="100" height="60" viewBox="0 0 100 60" fill="none" xmlns="http://www.w3.org/2000/svg">
<rect width="100" height="60" rx="4" fill="white"/>
<path fill-rule="evenodd" clip-rule="evenodd" d="M57.0151 30.0003C57.0151 40.9219 48.1031 49.775 37.1098 49.775C26.1171 49.775 17.2054 40.9219 17.2054 30.0003C17.2054 19.08 26.1171 10.2263 37.1098 10.2263C48.1031 10.2263 57.0151 19.08 57.0151 30.0003" fill="#333399"/>
<path fill-rule="evenodd" clip-rule="evenodd" d="M63.8327 10.2263C58.69 10.2263 54.0035 12.1647 50.4707 15.3447C49.7517 15.9922 49.0798 16.6928 48.4614 17.4375H52.482C53.0325 18.1016 53.5386 18.7997 53.9997 19.5316H46.9436C46.5212 20.2041 46.1371 20.9025 45.7971 21.6256H55.1463C55.4652 22.3038 55.7474 23.0019 55.9889 23.7184H44.9534C44.7235 24.4016 44.5307 25.0997 44.3756 25.8128H56.5665C56.8596 27.1628 57.015 28.5634 57.015 30.0003C57.015 32.1963 56.6542 34.3088 55.9889 36.2822H44.9534C45.1957 36.9991 45.4775 37.6981 45.7965 38.3763H55.1463C54.8053 39.0988 54.4221 39.7978 53.9988 40.4703H46.9436C47.4045 41.2009 47.9115 41.9003 48.4614 42.5631H52.4814C51.8639 43.3091 51.1914 44.0097 50.4714 44.6572C54.0038 47.8372 58.69 49.775 63.8327 49.775C74.8257 49.775 83.7373 40.9219 83.7373 30.0003C83.7373 19.08 74.8257 10.2263 63.8327 10.2263" fill="#0066CC"/>
<path fill-rule="evenodd" clip-rule="evenodd" d="M81.0841 41.0225C81.0841 40.67 81.3722 40.3847 81.7267 40.3847C82.0822 40.3847 82.3694 40.67 82.3694 41.0225C82.3694 41.3753 82.0822 41.6616 81.7267 41.6616C81.3722 41.6616 81.0841 41.3753 81.0841 41.0225V41.0225ZM81.7267 41.5085C81.9973 41.5085 82.2156 41.2913 82.2156 41.0225C82.2156 40.7547 81.9973 40.5381 81.7267 40.5381C81.4575 40.5381 81.2389 40.7547 81.2389 41.0225C81.2389 41.2913 81.4575 41.5085 81.7267 41.5085V41.5085ZM81.6402 41.3028H81.5088V40.7425H81.7472C81.7969 40.7425 81.8472 40.7425 81.8913 40.7706C81.9369 40.8016 81.9627 40.8553 81.9627 40.9103C81.9627 40.9744 81.9259 41.0338 81.8655 41.0563L81.9686 41.3028H81.8224L81.7368 41.0813H81.6402V41.3028V41.3028ZM81.6402 40.9853H81.7129C81.74 40.9853 81.7692 40.9872 81.7931 40.9744C81.8148 40.9603 81.8261 40.9347 81.8261 40.9097C81.8261 40.8885 81.8129 40.8641 81.7944 40.8525C81.7711 40.8391 81.7346 40.8425 81.7104 40.8425H81.6402V40.9853V40.9853Z" fill="#0066CC"/>
<path fill-rule="evenodd" clip-rule="evenodd" d="M35.9623 25.4735C35.7846 26.2491 35.6915 26.6885 35.4505 27.6328C33.9539 27.0022 31.947 26.6731 30.4073 27.6285C28.9544 28.5472 28.4633 29.9806 28.5694 31.5685C28.6763 32.3325 29.2535 33.0788 30.0663 33.4025C31.4755 33.9194 32.8202 33.7303 34.3172 32.9703C34.1042 33.9263 33.9438 34.6769 33.7579 35.3603C31.9624 35.8585 30.2582 36.0222 28.4633 35.4294C26.8601 34.8753 25.5559 33.441 25.4499 31.8931C25.0863 29.4075 26.2835 26.8644 28.7194 25.6972C30.9845 24.6847 33.5686 24.8606 35.9623 25.4735" fill="#000066"/>
<path fill-rule="evenodd" clip-rule="evenodd" d="M61.326 34.3075C60.8526 34.7781 60.0486 35.809 57.8634 35.809C55.8732 35.809 54.4763 34.3509 55.1837 31.0768C55.1837 31.0762 56.0066 27.2225 56.0066 27.2225H59.0436C59.0436 27.2225 58.2189 31.0806 58.2204 31.0768C57.9398 32.3881 58.0062 33.3859 59.3468 33.3859C60.9268 33.3859 61.3996 32.4368 61.6981 31.0768C61.6959 31.0787 62.5229 27.2225 62.5229 27.2225H65.6914L64.3281 33.4184C64.173 34.1453 64.0249 34.915 63.9393 35.674H61.0876C61.0876 35.674 61.2675 34.6418 61.326 34.3075" fill="#000066"/>
<path fill-rule="evenodd" clip-rule="evenodd" d="M66.6992 29.8953C66.6992 30.9672 67.4076 31.6997 69.0175 32.2469C70.2603 32.6784 70.4553 32.805 70.4553 33.1803C70.4553 33.715 69.9004 33.9419 68.7026 33.9419C67.7907 33.9419 66.9439 33.8516 65.9638 33.6166C65.9638 33.6166 65.5781 35.3697 65.5388 35.5697C66.3909 35.7206 67.8665 35.8091 68.7237 35.8091C71.9397 35.8091 73.431 34.9159 73.431 32.9891C73.431 31.8362 72.8056 31.1575 71.2801 30.6375C69.9938 30.2175 69.8514 30.1206 69.8514 29.7197C69.8514 29.2709 70.3594 29.0328 71.3477 29.0328C71.9425 29.0328 72.7754 29.0828 73.5496 29.1634L73.9767 27.2025C73.1866 27.1091 71.9828 27.0341 71.2882 27.0341C67.875 27.0341 66.6885 28.3394 66.6992 29.8953" fill="#000066"/>
<path fill-rule="evenodd" clip-rule="evenodd" d="M37.1204 27.2225H40.2983L38.4878 35.674H35.3092L37.1204 27.2225" fill="#000066"/>
<path fill-rule="evenodd" clip-rule="evenodd" d="M55.2736 27.1865C53.0327 26.8925 52.3933 27.9862 51.7915 28.53C51.8632 28.09 51.9957 27.6609 51.9692 27.2225H49.0502C48.6488 29.8397 47.936 32.4881 47.3783 35.1053L47.2321 35.6734H50.5368C50.9142 33.9572 51.3524 31.3662 51.8579 30.5819C52.3627 29.7987 53.2029 29.1728 54.3061 29.5494L55.2736 27.1865" fill="#000066"/>
<path fill-rule="evenodd" clip-rule="evenodd" d="M48.3447 27.1865C46.1041 26.8925 45.4649 27.9862 44.8629 28.53C44.9349 28.09 45.0667 27.6609 45.0406 27.2225H42.1218C41.7205 29.8397 41.0074 32.4881 40.45 35.1053L40.3037 35.6734H43.6081C43.9859 33.9572 44.4241 31.3662 44.9292 30.5819C45.4344 29.7987 46.2743 29.1728 47.3774 29.5494L48.3447 27.1865" fill="#000066"/>
<path fill-rule="evenodd" clip-rule="evenodd" d="M74.4052 34.4162C74.4052 34.0634 74.693 33.7772 75.0481 33.7772C75.4029 33.7772 75.691 34.0634 75.691 34.4162C75.691 34.769 75.4029 35.0547 75.0481 35.0547C74.693 35.0547 74.4052 34.769 74.4052 34.4162V34.4162ZM75.0481 34.9015C75.3177 34.9015 75.5369 34.684 75.5369 34.4162C75.5369 34.1481 75.3177 33.9309 75.0481 33.9309C74.7785 33.9309 74.559 34.1481 74.559 34.4162C74.559 34.684 74.7785 34.9015 75.0481 34.9015V34.9015ZM74.9613 34.6962H74.8295V34.1347H75.0679C75.1173 34.1347 75.1686 34.1359 75.212 34.164C75.2585 34.1947 75.284 34.249 75.284 34.3037C75.284 34.3675 75.2469 34.4265 75.1862 34.449L75.29 34.6962H75.1444L75.0582 34.474H74.9613V34.6962V34.6962ZM74.9613 34.3778H75.0343C75.0613 34.3778 75.0912 34.3803 75.1145 34.3675C75.1362 34.354 75.1472 34.3278 75.1472 34.3034C75.1472 34.2818 75.1337 34.2568 75.116 34.2453C75.0931 34.2325 75.0556 34.2356 75.0308 34.2356H74.9613V34.3778V34.3778Z" fill="white"/>
<path fill-rule="evenodd" clip-rule="evenodd" d="M36.5841 24.855C36.4064 25.6316 36.3129 26.071 36.0726 27.0144C34.5757 26.3847 32.5688 26.0556 31.0291 27.0103C29.5764 27.9288 29.0857 29.3625 29.1911 30.95C29.2987 31.7147 29.8753 32.4606 30.6884 32.7847C32.0973 33.3013 33.442 33.1119 34.9393 32.3519C34.7263 33.3085 34.5656 34.0591 34.3797 34.7428C32.5848 35.2403 30.88 35.4044 29.0857 34.8116C27.4818 34.2575 26.1783 32.8231 26.072 31.2747C25.7084 28.7894 26.9053 26.246 29.3415 25.0791C31.6063 24.0666 34.19 24.2422 36.5841 24.855" fill="white"/>
<path fill-rule="evenodd" clip-rule="evenodd" d="M61.9482 33.69C61.4745 34.1606 60.6702 35.1906 58.4853 35.1906C56.4951 35.1906 55.2306 33.7331 55.9377 30.4587L56.7615 26.605H59.7989C59.7989 26.605 58.9735 30.4622 58.9744 30.4587C58.6941 31.7703 58.7608 32.7681 60.1018 32.7681C61.6805 32.7681 62.1542 31.819 62.4521 30.4587C62.4502 30.4612 63.2772 26.605 63.2772 26.605H66.3136L64.9497 32.8006C64.7949 33.5269 64.6474 34.2965 64.5615 35.0565H61.7101C61.7101 35.0565 61.89 34.0237 61.9482 33.69" fill="white"/>
<path fill-rule="evenodd" clip-rule="evenodd" d="M67.3211 29.2775C67.3211 30.3494 68.0295 31.0819 69.6397 31.6288C70.8828 32.0603 71.0775 32.1872 71.0775 32.5619C71.0775 33.0972 70.522 33.3244 69.3248 33.3244C68.4129 33.3244 67.5661 33.2335 66.5857 32.9991C66.5857 32.9991 66.2 34.7513 66.1604 34.9522C67.0132 35.1028 68.4884 35.1906 69.3459 35.1906C72.5616 35.1906 74.0532 34.2985 74.0532 32.371C74.0532 31.2178 73.4282 30.54 71.902 30.02C70.6154 29.6 70.4729 29.5022 70.4729 29.1019C70.4729 28.6531 70.9816 28.4153 71.9702 28.4153C72.5644 28.4153 73.3977 28.4653 74.1721 28.5453L74.5983 26.5841C73.8085 26.4906 72.6047 26.4156 71.9104 26.4156C68.4972 26.4156 67.3101 27.7213 67.3211 29.2775" fill="white"/>
<path fill-rule="evenodd" clip-rule="evenodd" d="M37.8741 26.605H40.9209L39.1097 35.0565H36.0638L37.8741 26.605" fill="white"/>
<path fill-rule="evenodd" clip-rule="evenodd" d="M55.8955 26.5691C53.655 26.2747 53.0158 27.3685 52.4134 27.9122C52.4854 27.4722 52.6176 27.0425 52.5911 26.605H49.8045C49.4034 29.2216 48.69 31.8697 48.133 34.4875L47.9867 35.0553H51.1587C51.5368 33.3391 51.9746 30.7481 52.4801 29.9644C52.985 29.1806 53.8251 28.555 54.9276 28.9316L55.8955 26.5691" fill="white"/>
<path fill-rule="evenodd" clip-rule="evenodd" d="M48.9671 26.5691C46.7262 26.2747 46.0871 27.3685 45.4847 27.9122C45.5567 27.4722 45.6892 27.0425 45.6624 26.605H42.8758C42.4747 29.2216 41.762 31.8697 41.2039 34.4875L41.058 35.0553H44.2296C44.608 33.3391 45.0456 30.7481 45.5517 29.9644C46.0562 29.1806 46.8964 28.555 47.9992 28.9316L48.9671 26.5691" fill="white"/>
</svg>
