<svg width="100" height="60" viewBox="0 0 100 60" fill="none" xmlns="http://www.w3.org/2000/svg">
<rect width="100" height="60" rx="4" fill="white"/>
<path fill-rule="evenodd" clip-rule="evenodd" d="M19.5478 35.983C19.5478 34.7762 18.9173 34.8556 18.3142 34.8428V34.494C18.8372 34.5194 19.3734 34.5194 19.8978 34.5194C20.4611 34.5194 21.2259 34.494 22.2196 34.494C25.6946 34.494 27.5875 36.8145 27.5875 39.1908C27.5875 40.5206 26.8091 43.8613 22.0582 43.8613C21.3743 43.8613 20.7428 43.8348 20.1123 43.8348C19.5089 43.8348 18.9173 43.8472 18.3142 43.8613V43.5122C19.1186 43.4309 19.5089 43.4047 19.5478 42.4922V35.983V35.983ZM20.863 42.2769C20.863 43.3107 21.6018 43.4309 22.2591 43.4309C25.1587 43.4309 26.1101 41.244 26.1101 39.2447C26.1101 36.7352 24.5 34.9238 21.9103 34.9238C21.3589 34.9238 21.1051 34.9631 20.863 34.9775V42.2769V42.2769Z" fill="#1A1919"/>
<path fill-rule="evenodd" clip-rule="evenodd" d="M28.0577 43.5122H28.312C28.6877 43.5122 28.9563 43.5122 28.9563 43.0683V39.4318C28.9563 38.8422 28.7554 38.7607 28.2581 38.4931V38.2789C28.8889 38.0893 29.641 37.8361 29.6941 37.7957C29.7886 37.7418 29.868 37.7275 29.9362 37.7275C30.002 37.7275 30.0297 37.8082 30.0297 37.9165V43.0683C30.0297 43.5122 30.3254 43.5122 30.7016 43.5122H30.9288V43.8613C30.4725 43.8613 30.002 43.8348 29.5205 43.8348C29.0373 43.8348 28.5539 43.8472 28.0577 43.8613V43.5122V43.5122ZM29.4934 35.6616C29.1438 35.6616 28.8358 35.3396 28.8358 34.9907C28.8358 34.6546 29.1584 34.3453 29.4934 34.3453C29.8417 34.3453 30.1513 34.6281 30.1513 34.9907C30.1513 35.3537 29.8552 35.6616 29.4934 35.6616V35.6616Z" fill="#1A1919"/>
<path fill-rule="evenodd" clip-rule="evenodd" d="M32.2041 39.5125C32.2041 39.0169 32.0559 38.8829 31.4263 38.6275V38.3726C32.0023 38.1849 32.5521 38.0097 33.197 37.7275C33.2376 37.7275 33.2766 37.7543 33.2766 37.8615V38.7342C34.0428 38.1849 34.7004 37.7275 35.6009 37.7275C36.74 37.7275 37.1424 38.5597 37.1424 39.6065V43.0683C37.1424 43.5122 37.4385 43.5122 37.8138 43.5122H38.056V43.8613C37.5847 43.8613 37.1156 43.8348 36.633 43.8348C36.1496 43.8348 35.6661 43.8472 35.183 43.8613V43.5122H35.4251C35.801 43.5122 36.0683 43.5122 36.0683 43.0683V39.5941C36.0683 38.8281 35.6009 38.4528 34.835 38.4528C34.4052 38.4528 33.7208 38.8011 33.2766 39.0976V43.0683C33.2766 43.5122 33.5732 43.5122 33.9491 43.5122H34.1901V43.8613C33.7208 43.8613 33.2509 43.8348 32.7669 43.8348C32.2848 43.8348 31.8011 43.8472 31.3185 43.8613V43.5122H31.5606C31.936 43.5122 32.2041 43.5122 32.2041 43.0683V39.5125" fill="#1A1919"/>
<path fill-rule="evenodd" clip-rule="evenodd" d="M39.0759 40.1577C39.0486 40.2785 39.0486 40.4794 39.0759 40.9361C39.155 42.2106 39.9754 43.2568 41.0478 43.2568C41.787 43.2568 42.3644 42.8541 42.86 42.3585L43.0474 42.5464C42.4299 43.3649 41.6653 44.0631 40.5658 44.0631C38.4313 44.0631 38.0021 41.9953 38.0021 41.137C38.0021 38.5064 39.773 37.7275 40.7115 37.7275C41.7997 37.7275 42.9681 38.4119 42.9805 39.8348C42.9805 39.9164 42.9805 39.996 42.9681 40.0767L42.8467 40.1577H39.0759V40.1577ZM41.4522 39.7279C41.787 39.7279 41.8262 39.5532 41.8262 39.3915C41.8262 38.7082 41.4105 38.1578 40.6587 38.1578C39.8408 38.1578 39.2769 38.7607 39.116 39.7279H41.4522V39.7279Z" fill="#1A1919"/>
<path fill-rule="evenodd" clip-rule="evenodd" d="M43.2899 43.5122H43.6526C44.0268 43.5122 44.2955 43.5122 44.2955 43.0683V39.298C44.2955 38.8829 43.7993 38.8011 43.5978 38.6938V38.4931C44.5774 38.0769 45.1145 37.7275 45.2372 37.7275C45.3157 37.7275 45.3561 37.7678 45.3561 37.9027V39.1106H45.3843C45.7187 38.5874 46.2834 37.7275 47.1016 37.7275C47.4369 37.7275 47.8659 37.9555 47.8659 38.439C47.8659 38.8011 47.6121 39.1247 47.2365 39.1247C46.8191 39.1247 46.8191 38.8011 46.349 38.8011C46.1212 38.8011 45.3696 39.1106 45.3696 39.9164V43.0683C45.3696 43.5122 45.6377 43.5122 46.0137 43.5122H46.7644V43.8613C46.0264 43.8472 45.4647 43.8348 44.887 43.8348C44.3367 43.8348 43.7728 43.8472 43.2899 43.8613V43.5122" fill="#1A1919"/>
<path fill-rule="evenodd" clip-rule="evenodd" d="M48.4559 41.9953C48.6309 42.8809 49.1666 43.6335 50.1481 43.6335C50.9387 43.6335 51.2336 43.1498 51.2336 42.6805C51.2336 41.0961 48.3089 41.6066 48.3089 39.4462C48.3089 38.6938 48.9131 37.7278 50.3894 37.7278C50.8181 37.7278 51.395 37.8494 51.918 38.118L52.0122 39.4857H51.7038C51.5697 38.6407 51.1006 38.1578 50.2407 38.1578C49.7039 38.1578 49.1945 38.466 49.1945 39.0432C49.1945 40.6143 52.3072 40.1303 52.3072 42.2374C52.3072 43.1225 51.5968 44.0631 49.9991 44.0631C49.4629 44.0631 48.831 43.8748 48.3628 43.6064L48.2144 42.063L48.4559 41.9953" fill="#1A1919"/>
<path fill-rule="evenodd" clip-rule="evenodd" d="M64.4254 36.9223H64.0906C63.8352 35.3537 62.7213 34.7221 61.2193 34.7221C59.6741 34.7221 57.4338 35.7547 57.4338 38.9755C57.4338 41.6873 59.367 43.6335 61.4332 43.6335C62.7605 43.6335 63.8634 42.7205 64.1313 41.3106L64.44 41.3907L64.1313 43.3508C63.5677 43.7001 62.0507 44.0631 61.164 44.0631C58.0251 44.0631 56.0391 42.0362 56.0391 39.0169C56.0391 36.265 58.495 34.2917 61.1253 34.2917C62.2119 34.2917 63.2583 34.6416 64.2918 35.0043L64.4254 36.9223" fill="#1A1919"/>
<path fill-rule="evenodd" clip-rule="evenodd" d="M64.9099 43.5122H65.1639C65.541 43.5122 65.8088 43.5122 65.8088 43.0683V35.5952C65.8088 34.7221 65.6078 34.6955 65.0973 34.5476V34.3326C65.6338 34.1585 66.198 33.9174 66.4805 33.7552C66.6261 33.6758 66.7345 33.6073 66.774 33.6073C66.8561 33.6073 66.8827 33.6888 66.8827 33.7966V43.0683C66.8827 43.5122 67.1781 43.5122 67.5535 43.5122H67.7807V43.8613C67.3257 43.8613 66.8561 43.8348 66.3727 43.8348C65.8898 43.8348 65.4072 43.8472 64.9099 43.8613V43.5122" fill="#1A1919"/>
<path fill-rule="evenodd" clip-rule="evenodd" d="M73.5264 43.1225C73.5264 43.3649 73.6732 43.3776 73.9007 43.3776C74.0627 43.3776 74.2631 43.3649 74.4389 43.3649V43.6474C73.8614 43.7004 72.7605 43.9824 72.5051 44.0631L72.4382 44.0222V42.935C71.6339 43.5924 71.0158 44.0631 70.0616 44.0631C69.3372 44.0631 68.5862 43.5924 68.5862 42.4665V39.0299C68.5862 38.6805 68.5328 38.345 67.7823 38.2789V38.0232C68.2658 38.01 69.3372 37.9298 69.5121 37.9298C69.6611 37.9298 69.6611 38.0232 69.6611 38.319V41.781C69.6611 42.184 69.6611 43.337 70.8284 43.337C71.2839 43.337 71.8879 42.9889 72.4512 42.5199V38.9089C72.4512 38.6407 71.8074 38.4931 71.3251 38.3596V38.1183C72.5316 38.0365 73.284 37.9298 73.4181 37.9298C73.5264 37.9298 73.5264 38.0232 73.5264 38.1714V43.1225" fill="#1A1919"/>
<path fill-rule="evenodd" clip-rule="evenodd" d="M76.1962 38.6938C76.7327 38.2386 77.4577 37.7275 78.1957 37.7275C79.7528 37.7275 80.6923 39.0844 80.6923 40.5469C80.6923 42.3043 79.4034 44.0631 77.4834 44.0631C76.4914 44.0631 75.9679 43.74 75.6182 43.5924L75.2169 43.9011L74.9355 43.754C75.0554 42.9624 75.1232 42.184 75.1232 41.365V35.5952C75.1232 34.7221 74.9211 34.6955 74.4111 34.5476V34.3326C74.9485 34.1585 75.5115 33.9174 75.7932 33.7552C75.9413 33.6758 76.0483 33.6073 76.0892 33.6073C76.1691 33.6073 76.1962 33.6891 76.1962 33.7966V38.6938V38.6938ZM76.1962 42.3444C76.1962 42.8541 76.6796 43.7137 77.5785 43.7137C79.0142 43.7137 79.6179 42.3043 79.6179 41.1094C79.6179 39.6604 78.5186 38.4528 77.4721 38.4528C76.9735 38.4528 76.5583 38.7753 76.1962 39.0844V42.3444V42.3444Z" fill="#1A1919"/>
<path fill-rule="evenodd" clip-rule="evenodd" d="M18.2993 51.6643H18.4019C18.6645 51.6643 18.942 51.6284 18.942 51.2483V47.4228C18.942 47.0422 18.6645 47.006 18.4019 47.006H18.2993V46.7865C18.584 46.7865 19.0221 46.8156 19.3809 46.8156C19.7458 46.8156 20.1833 46.7865 20.5266 46.7865V47.006H20.4235C20.162 47.006 19.884 47.0422 19.884 47.4228V51.2483C19.884 51.6284 20.162 51.6643 20.4235 51.6643H20.5266V51.8838C20.1764 51.8838 19.7372 51.8556 19.3734 51.8556C19.0149 51.8556 18.584 51.8838 18.2993 51.8838V51.6643" fill="#1A1919"/>
<path fill-rule="evenodd" clip-rule="evenodd" d="M20.5267 51.9151C20.1734 51.9151 19.7364 51.8858 19.3729 51.8858C19.0155 51.8858 18.586 51.9151 18.2994 51.9151H18.2676V51.6329H18.4014C18.6664 51.6265 18.9075 51.6052 18.9097 51.2484V47.4228C18.9075 47.0654 18.6664 47.0422 18.4014 47.0375H18.2676V46.7548H18.2994C18.586 46.7548 19.0238 46.7832 19.381 46.7832C19.7442 46.7832 20.1814 46.7548 20.5267 46.7548H20.5593V47.0375H20.425C20.1596 47.0422 19.9172 47.0654 19.9158 47.4228V51.2484C19.9172 51.6052 20.1596 51.6265 20.425 51.6329H20.5593V51.9151H20.5267V51.9151ZM20.4952 51.8526L20.4954 51.6973H20.425C20.1638 51.6973 19.8533 51.6514 19.8517 51.2484V47.4228C19.8533 47.019 20.1638 46.974 20.425 46.974H20.4952V46.8181C20.1582 46.8183 19.735 46.8476 19.381 46.8476C19.0341 46.8476 18.6142 46.8203 18.3314 46.8181V46.974H18.4014C18.6617 46.974 18.9727 47.019 18.9727 47.4228V51.2484C18.9727 51.6514 18.6617 51.6973 18.4014 51.6973H18.3314V51.8526C18.6142 51.8501 19.0266 51.8233 19.3729 51.8233C19.7287 51.8233 20.1508 51.8507 20.4952 51.8526V51.8526Z" fill="#1A1919"/>
<path fill-rule="evenodd" clip-rule="evenodd" d="M25.5432 50.4445L25.5579 50.4302V47.6926C25.5579 47.0933 25.1411 47.0057 24.9221 47.0057H24.7613V46.7865C25.1051 46.7865 25.441 46.8156 25.7837 46.8156C26.0831 46.8156 26.3838 46.7865 26.682 46.7865V47.0057H26.5734C26.2658 47.0057 25.9225 47.064 25.9225 47.9331V51.2555C25.9225 51.5115 25.9297 51.7669 25.9656 51.9935H25.6881L21.9281 47.8012V50.8105C21.9281 51.4463 22.0516 51.6643 22.6138 51.6643H22.7382V51.8838C22.4242 51.8838 22.1105 51.8553 21.7965 51.8553C21.4687 51.8553 21.1323 51.8838 20.8033 51.8838V51.6643H20.9059C21.4095 51.6643 21.5629 51.321 21.5629 50.7386V47.6619C21.5629 47.2534 21.226 47.0057 20.8987 47.0057H20.8033V46.7865C21.0803 46.7865 21.3656 46.8156 21.6425 46.8156C21.8623 46.8156 22.074 46.7865 22.2929 46.7865L25.5432 50.4445" fill="#1A1919"/>
<path fill-rule="evenodd" clip-rule="evenodd" d="M25.9656 52.0242L25.6648 52.014L21.959 47.8836V50.8105C21.9679 51.4454 22.0643 51.6259 22.6141 51.6329H22.7705V51.9151H22.7382C22.4223 51.9151 22.108 51.8858 21.7965 51.8858C21.4695 51.8858 21.1339 51.9151 20.8031 51.9151H20.771V51.6329H20.9059C21.3885 51.6301 21.5264 51.32 21.5317 50.7384V47.663C21.5303 47.2741 21.2113 47.0375 20.899 47.0375H20.771V46.7548H20.8031C21.0822 46.7548 21.368 46.7832 21.642 46.7832C21.8598 46.7832 22.0707 46.7548 22.317 46.7661L25.5261 50.3785V47.6926C25.5225 47.1127 25.135 47.0422 24.9224 47.0375H24.7292V46.7548H24.7615C25.1065 46.7548 25.4426 46.7832 25.7837 46.7832C26.0808 46.7832 26.3802 46.7548 26.682 46.7548H26.7141V47.0375H26.5734C26.2718 47.0453 25.9625 47.0718 25.9537 47.9331V51.2556C25.9537 51.5112 25.9617 51.7661 25.9968 51.9878L26.0034 52.0242H25.9656V52.0242ZM25.6883 51.9607H25.9299C25.8973 51.7409 25.8915 51.4985 25.8915 51.2556V47.9331C25.8915 47.0566 26.2588 46.974 26.5734 46.9734H26.6502V46.8181C26.3625 46.8203 26.0742 46.8468 25.7837 46.8468C25.4492 46.8468 25.1242 46.8203 24.7941 46.8181L24.7933 46.9734H24.9224C25.1468 46.974 25.5894 47.0737 25.5894 47.6926L25.5797 50.4531L25.5653 50.4672L25.5405 50.4907L22.2929 46.8181C22.0759 46.8181 21.8648 46.8468 21.642 46.8468C21.3744 46.8468 21.1002 46.8203 20.8354 46.8181L20.834 46.9734H20.899C21.2414 46.974 21.5939 47.2354 21.5939 47.663V50.7384C21.5939 51.3227 21.4311 51.6959 20.9059 51.6978L20.8354 51.6959V51.8526C21.1516 51.8501 21.4775 51.8233 21.7965 51.8233C22.1011 51.8233 22.4051 51.8501 22.7064 51.8526V51.6978H22.6141C22.0394 51.6959 21.8971 51.4454 21.8965 50.8105V47.7194L25.6883 51.9607V51.9607ZM25.5435 50.4446L25.5664 50.4236L25.5435 50.4446V50.4446ZM25.5261 50.4302V50.4274L25.5203 50.4227L25.5261 50.4302V50.4302Z" fill="#1A1919"/>
<path fill-rule="evenodd" clip-rule="evenodd" d="M27.7764 47.1517C27.228 47.1517 27.2067 47.2838 27.0972 47.8162H26.8781C26.9068 47.6116 26.943 47.4073 26.9657 47.1956C26.995 46.9902 27.0096 46.7865 27.0096 46.5754H27.1846C27.2435 46.7945 27.4259 46.7865 27.6241 46.7865H31.3905C31.5886 46.7865 31.7708 46.7793 31.7857 46.5602L31.9601 46.59C31.9319 46.7865 31.9021 46.9839 31.8808 47.1815C31.8664 47.3786 31.8664 47.5751 31.8664 47.7722L31.647 47.8535C31.632 47.5837 31.5958 47.1517 31.1066 47.1517H29.9089V51.0366C29.9089 51.5999 30.1648 51.6643 30.5148 51.6643H30.6541V51.8838C30.3691 51.8838 29.8578 51.8556 29.4641 51.8556C29.0255 51.8556 28.5138 51.8838 28.2289 51.8838V51.6643H28.3682C28.7706 51.6643 28.9741 51.6284 28.9741 51.0518V47.1517H27.7764" fill="#1A1919"/>
<path fill-rule="evenodd" clip-rule="evenodd" d="M30.6546 51.9151C30.3669 51.9151 29.8561 51.886 29.4641 51.886C29.026 51.886 28.5152 51.9151 28.2289 51.9151H28.1976V51.6329H28.3682C28.7706 51.6235 28.9323 51.6182 28.9414 51.0518V47.1829H27.7764V47.1191H29.0047V51.0518C29.0047 51.6381 28.7684 51.6973 28.3682 51.6978H28.2601V51.852C28.5481 51.8501 29.0401 51.8233 29.4641 51.8233C29.8442 51.8233 30.3321 51.8501 30.6215 51.852V51.6978H30.5148C30.1615 51.6973 29.8774 51.6105 29.8774 51.0366V47.1191H31.1066C31.5964 47.121 31.6613 47.5373 31.6765 47.809L31.8346 47.7507C31.8346 47.5599 31.8355 47.3689 31.8485 47.1771C31.87 46.9883 31.8965 46.8029 31.9239 46.6157L31.8131 46.5972C31.7791 46.8098 31.5731 46.8211 31.3902 46.8183H27.5859C27.414 46.8186 27.2269 46.8103 27.1611 46.6066H27.0406C27.0395 46.8084 27.0256 47.0044 26.998 47.199C26.9762 47.3996 26.9427 47.5923 26.9162 47.7858H27.0721C27.168 47.2764 27.2305 47.1119 27.7764 47.1191V47.1829C27.2354 47.1937 27.2473 47.2841 27.1282 47.8236L27.1229 47.8485H26.8416L26.8454 47.8107C26.8753 47.6069 26.9123 47.4018 26.9336 47.1898C26.964 46.9872 26.9778 46.7846 26.9778 46.5754V46.543H27.2097L27.2153 46.566C27.2645 46.7501 27.3996 46.7514 27.5859 46.7548H31.3902C31.5936 46.7514 31.7418 46.7487 31.7542 46.5577L31.7567 46.5231L31.7899 46.5298L31.9963 46.5624L31.9911 46.5947C31.9621 46.7907 31.9336 46.9872 31.9115 47.1829C31.8979 47.3786 31.8979 47.5749 31.8979 47.7722V47.7943L31.8766 47.8029L31.6182 47.8974L31.6165 47.8552C31.5964 47.5804 31.5682 47.1829 31.1066 47.1829H29.9409V51.0366C29.9481 51.5872 30.1665 51.6259 30.5148 51.6329H30.6856V51.9151H30.6546" fill="#1A1919"/>
<path fill-rule="evenodd" clip-rule="evenodd" d="M32.1934 51.6643H32.2962C32.5582 51.6643 32.8366 51.6284 32.8366 51.2483V47.4228C32.8366 47.0422 32.5582 47.006 32.2962 47.006H32.1934V46.7865C32.6373 46.7865 33.3985 46.8156 34.0108 46.8156C34.6252 46.8156 35.3837 46.7865 35.8801 46.7865C35.8674 47.1005 35.8743 47.5837 35.8959 47.9043L35.6759 47.9624C35.6408 47.4875 35.5531 47.1088 34.7861 47.1088H33.7722V49.0208H34.6396C35.0777 49.0208 35.1731 48.7734 35.2165 48.3787H35.4354C35.4207 48.6639 35.413 48.9486 35.413 49.233C35.413 49.5111 35.4207 49.7883 35.4354 50.0653L35.2165 50.109C35.1731 49.6714 35.1512 49.3867 34.6468 49.3867H33.7722V51.0872C33.7722 51.5626 34.194 51.5626 34.6617 51.5626C35.5382 51.5626 35.9249 51.5037 36.1441 50.6723L36.3478 50.7226C36.253 51.1104 36.1659 51.4963 36.1004 51.8838C35.6325 51.8838 34.7927 51.8556 34.1368 51.8556C33.4781 51.8556 32.6099 51.8838 32.1934 51.8838V51.6643" fill="#1A1919"/>
<path fill-rule="evenodd" clip-rule="evenodd" d="M36.0998 51.9151C35.6313 51.9151 34.791 51.8847 34.1359 51.8847C33.4781 51.8847 32.6101 51.9151 32.193 51.9151H32.1624V51.6329H32.2959C32.5601 51.6284 32.8006 51.6052 32.8039 51.2484V47.4228C32.8006 47.066 32.5601 47.0422 32.2959 47.0375H32.1624V46.7548H32.193C32.6392 46.7548 33.3987 46.7832 34.0107 46.7832C34.6246 46.7832 35.3828 46.7548 35.8801 46.7548H35.9124L35.9113 46.7885C35.9066 46.8977 35.9036 47.0276 35.9036 47.165C35.9036 47.4173 35.9113 47.694 35.9257 47.9019L35.9271 47.9278L35.9025 47.9353L35.6457 48.0025L35.6446 47.9649C35.6015 47.4911 35.5379 47.1464 34.786 47.1392H33.8017L33.8012 48.9887H34.6393C35.0602 48.9843 35.1354 48.7692 35.1852 48.3754L35.1868 48.3461H35.4677L35.4671 48.3795C35.453 48.6648 35.4445 48.9486 35.4445 49.2331C35.4445 49.5092 35.453 49.7864 35.4671 50.0639L35.4677 50.0905L35.4411 50.0966L35.1868 50.1471L35.1852 50.1129C35.1346 49.667 35.1313 49.4227 34.6467 49.4174H33.8017V51.0872C33.8028 51.5311 34.1854 51.5286 34.6614 51.5311C35.5406 51.5259 35.8928 51.4828 36.1128 50.6638L36.1203 50.6342L36.151 50.6392L36.3851 50.7L36.3784 50.7301C36.2836 51.1165 36.1966 51.5027 36.1305 51.8891L36.125 51.9151H36.0998V51.9151ZM36.0727 51.852C36.1366 51.4828 36.2198 51.114 36.3093 50.7464L36.1656 50.7102C35.947 51.527 35.5232 51.6 34.6614 51.5944C34.2012 51.5944 33.7412 51.5944 33.7387 51.0872V49.355H34.6467C35.1567 49.3497 35.2081 49.6571 35.2446 50.0725L35.4022 50.0402C35.3881 49.771 35.3809 49.5006 35.3809 49.2331C35.3809 48.9589 35.3881 48.6852 35.4022 48.4096H35.2446C35.2034 48.7911 35.0843 49.0573 34.6393 49.0526H33.7387V47.0759H34.786C35.5453 47.0699 35.6711 47.4629 35.7043 47.9223L35.8616 47.8795C35.8488 47.6735 35.8403 47.4087 35.8403 47.165C35.8403 47.04 35.8436 46.9214 35.8477 46.8181C35.3516 46.8203 34.6111 46.8468 34.0107 46.8468C33.4106 46.8468 32.6721 46.8203 32.2251 46.8181V46.9734H32.2959C32.5557 46.974 32.8664 47.019 32.868 47.4228V51.2484C32.8664 51.6514 32.5557 51.6959 32.2959 51.6978H32.2251V51.852C32.6502 51.8507 33.4944 51.8233 34.1359 51.8233C34.7805 51.8233 35.602 51.8507 36.0727 51.852V51.852Z" fill="#1A1919"/>
<path fill-rule="evenodd" clip-rule="evenodd" d="M37.3341 47.5599C37.3341 47.0276 37.0416 47.0057 36.815 47.0057H36.6831V46.7865C36.9169 46.7865 37.3697 46.8156 37.8156 46.8156C38.2528 46.8156 38.6039 46.7865 38.9909 46.7865C39.9096 46.7865 40.7292 47.0345 40.7292 48.0721C40.7292 48.7289 40.2908 49.1299 39.7142 49.3577L40.9622 51.226C41.1673 51.535 41.3122 51.6215 41.6709 51.6643V51.8838C41.4293 51.8838 41.1958 51.8556 40.9556 51.8556C40.7292 51.8556 40.4945 51.8838 40.2693 51.8838C39.7065 51.1466 39.2241 50.3583 38.7498 49.5172H38.2686V51.0808C38.2686 51.6431 38.5309 51.6643 38.8656 51.6643H38.998V51.8838C38.5809 51.8838 38.1591 51.8556 37.742 51.8556C37.3915 51.8556 37.0482 51.8838 36.6831 51.8838V51.6643H36.815C37.0861 51.6643 37.3341 51.5408 37.3341 51.271V47.5599V47.5599ZM38.2686 49.2538H38.6254C39.3565 49.2538 39.7502 48.9771 39.7502 48.115C39.7502 47.4657 39.3339 47.0494 38.6832 47.0494C38.464 47.0494 38.3706 47.0718 38.2686 47.079V49.2538V49.2538Z" fill="#1A1919"/>
<path fill-rule="evenodd" clip-rule="evenodd" d="M41.671 51.9151C41.4261 51.9151 41.1939 51.8858 40.9537 51.8858C40.7312 51.8858 40.4976 51.9151 40.2433 51.9029C39.683 51.1677 39.2029 50.3838 38.7314 49.5501H38.2999V51.0795C38.3079 51.6293 38.5282 51.6251 38.8657 51.6329H39.0296V51.9151H38.9973C38.5799 51.9151 38.1556 51.8858 37.7418 51.8858C37.393 51.8858 37.05 51.9151 36.6832 51.9151H36.6514V51.6329H36.815C37.0776 51.6309 37.2995 51.5165 37.3007 51.271V47.5599C37.2951 47.0422 37.0417 47.0447 36.815 47.0375H36.6514V46.7548H36.6832C36.9195 46.7548 37.3703 46.7832 37.8156 46.7832C38.2515 46.7832 38.6017 46.7548 38.9909 46.7548C39.9116 46.7567 40.7588 47.0102 40.761 48.071C40.761 48.73 40.3254 49.1418 39.7624 49.3715L40.9885 51.2086C41.1928 51.5115 41.3199 51.5872 41.6751 51.6329L41.7017 51.637V51.9151H41.671V51.9151ZM38.2684 49.4857H38.7673L38.7764 49.502C39.2518 50.3409 39.7317 51.1295 40.2693 51.8526C40.4915 51.8526 40.7262 51.8233 40.9537 51.8233C41.1867 51.8233 41.4123 51.8487 41.6389 51.852V51.6917C41.2967 51.65 41.1358 51.5466 40.9366 51.2439L39.6653 49.3431L39.7013 49.3284C40.2732 49.1031 40.6969 48.7131 40.6972 48.071C40.6969 47.058 39.9089 46.823 38.9909 46.8181C38.6064 46.8181 38.2554 46.8476 37.8156 46.8476C37.3866 46.8476 36.9532 46.8203 36.7144 46.8181V46.9734H36.815C37.0417 46.974 37.3642 47.0115 37.3642 47.5599V51.271C37.3642 51.564 37.0898 51.6973 36.815 51.6978H36.7144V51.852C37.0654 51.8507 37.3988 51.8233 37.7418 51.8233C38.1495 51.8233 38.5619 51.8507 38.9658 51.852V51.6978H38.8657C38.5332 51.6973 38.236 51.6561 38.236 51.0795V49.4857H38.2684V49.4857ZM38.2684 49.2853H38.236V47.0494L38.2639 47.0472C38.364 47.0392 38.4624 47.019 38.6833 47.019C39.3483 47.019 39.7814 47.451 39.782 48.1169C39.7801 48.9887 39.3621 49.285 38.6255 49.2853H38.2684V49.2853ZM38.6255 49.2231C39.3483 49.2159 39.7126 48.9652 39.7198 48.1169C39.7154 47.479 39.3193 47.0831 38.6833 47.0804C38.4862 47.0804 38.393 47.0986 38.2999 47.1077V49.2231H38.6255V49.2231Z" fill="#1A1919"/>
<path fill-rule="evenodd" clip-rule="evenodd" d="M46.6286 50.4445L46.6413 50.4302V47.6926C46.6413 47.0933 46.2264 47.0057 46.0072 47.0057H45.8472V46.7865C46.1905 46.7865 46.5252 46.8156 46.8694 46.8156C47.1696 46.8156 47.4667 46.7865 47.7683 46.7865V47.0057H47.6582C47.3514 47.0057 47.0084 47.064 47.0084 47.9331V51.2555C47.0084 51.5115 47.0156 51.7669 47.0515 51.9935H46.7751L43.0148 47.8012V50.8105C43.0148 51.4463 43.1381 51.6643 43.7003 51.6643H43.8247V51.8838C43.511 51.8838 43.1964 51.8553 42.8827 51.8553C42.5529 51.8553 42.2177 51.8838 41.8893 51.8838V51.6643H41.9907C42.4949 51.6643 42.6491 51.321 42.6491 50.7386V47.6619C42.6491 47.2534 42.3127 47.0057 41.9844 47.0057H41.8893V46.7865C42.1657 46.7865 42.4526 46.8156 42.7296 46.8156C42.9466 46.8156 43.1594 46.7865 43.3789 46.7865L46.6286 50.4445" fill="#1A1919"/>
<path fill-rule="evenodd" clip-rule="evenodd" d="M47.0513 52.0242L46.7514 52.014L43.045 47.8842V50.8103C43.0536 51.4463 43.1498 51.6259 43.7004 51.6329H43.8552V51.9151H43.8234C43.5077 51.9151 43.1943 51.8847 42.8814 51.8847C42.5555 51.8847 42.218 51.9151 41.8891 51.9151H41.8564V51.6329H41.9908C42.4731 51.6309 42.6113 51.32 42.616 50.7367V47.6619C42.6152 47.2728 42.2968 47.0375 41.9844 47.0375H41.8564V46.7548H41.8891C42.168 46.7548 42.4538 46.7832 42.7293 46.7832C42.9438 46.7832 43.1553 46.7548 43.4002 46.7642L46.6104 50.3785V47.6926C46.6085 47.1127 46.2196 47.0408 46.0073 47.0375H45.8146V46.7548H45.8464C46.1914 46.7548 46.5281 46.7832 46.8694 46.7832C47.1668 46.7832 47.4659 46.7548 47.7669 46.7548H47.7993V47.0375H47.6583C47.357 47.0447 47.0466 47.0718 47.0394 47.9331V51.2556C47.0394 51.5112 47.0458 51.7644 47.0831 51.9883L47.0867 52.0242H47.0513V52.0242ZM46.7749 51.9607H47.0143C46.9822 51.7423 46.9758 51.4985 46.9758 51.2556V47.9331C46.9764 47.0566 47.3457 46.9753 47.6583 46.9734H47.7351V46.8181C47.4477 46.8203 47.1591 46.8468 46.8694 46.8468C46.5339 46.8468 46.2085 46.8203 45.8782 46.8181V46.9734H46.0073C46.2323 46.9753 46.6746 47.0737 46.6746 47.6926L46.6641 50.4531L46.6508 50.4672L46.6278 50.4913L43.3789 46.8181C43.1617 46.8181 42.9499 46.8468 42.7293 46.8468C42.4585 46.8468 42.1857 46.8203 41.9203 46.8181V46.9734H41.9844C42.328 46.9753 42.6793 47.2343 42.6793 47.6619V50.7367C42.6793 51.3227 42.5143 51.6959 41.9908 51.6978L41.9203 51.6973V51.8523C42.2357 51.8501 42.561 51.8233 42.8814 51.8233C43.1876 51.8233 43.4911 51.8501 43.793 51.8523V51.6978H43.7004C43.1257 51.6973 42.9825 51.4463 42.9809 50.8103V47.7205L46.7749 51.9607V51.9607ZM46.6278 50.4446L46.6516 50.4236L46.6278 50.4446V50.4446ZM46.6104 50.4302V50.4283L46.6052 50.4227L46.6104 50.4302V50.4302Z" fill="#1A1919"/>
<path fill-rule="evenodd" clip-rule="evenodd" d="M48.9421 50.8398C48.8686 51.0872 48.7804 51.279 48.7804 51.4087C48.7804 51.6284 49.0881 51.6646 49.3283 51.6646H49.4098V51.8838C49.1165 51.8681 48.8186 51.8556 48.5247 51.8556C48.2619 51.8556 48.0004 51.8681 47.7367 51.8838V51.6646H47.7812C48.0653 51.6646 48.3072 51.4963 48.4156 51.1895L49.5839 47.8388C49.6793 47.5679 49.8109 47.2031 49.8554 46.9322C50.0876 46.8523 50.3808 46.7072 50.519 46.6185C50.5417 46.611 50.5553 46.6035 50.5774 46.6035C50.5995 46.6035 50.613 46.6035 50.6291 46.6265C50.6506 46.6843 50.6719 46.75 50.6946 46.8084L52.0387 50.6281C52.1264 50.8829 52.2132 51.153 52.3066 51.3733C52.3956 51.5781 52.549 51.6646 52.7909 51.6646H52.8345V51.8838C52.5056 51.8681 52.1761 51.8556 51.8273 51.8556C51.4693 51.8556 51.1031 51.8681 50.7308 51.8838V51.6646H50.8112C50.9782 51.6646 51.2648 51.6356 51.2648 51.4529C51.2648 51.3586 51.1987 51.1613 51.1172 50.9266L50.8328 50.08H49.1754L48.9421 50.8398V50.8398ZM50.0082 47.6047H49.993L49.3144 49.6714H50.6788L50.0082 47.6047V47.6047Z" fill="#1A1919"/>
<path fill-rule="evenodd" clip-rule="evenodd" d="M52.8323 51.9151C52.5042 51.901 52.175 51.8846 51.8273 51.8846C51.4694 51.8846 51.105 51.901 50.7324 51.9151L50.6987 51.9167V51.6315H50.8112C50.9804 51.6315 51.2314 51.5936 51.2319 51.4529C51.2336 51.3697 51.1681 51.1696 51.0876 50.9374L50.8096 50.1112H49.1989L48.9717 50.8492C48.8982 51.0974 48.8095 51.2904 48.8108 51.4092C48.8133 51.5875 49.0859 51.6315 49.3283 51.6315H49.4405V51.9167L49.4073 51.9151C49.1154 51.901 48.8175 51.8846 48.5253 51.8846C48.2647 51.8846 48.0007 51.901 47.7392 51.9151L47.7052 51.9167V51.6315H47.7809C48.0524 51.6309 48.279 51.4758 48.3846 51.1792L49.5541 47.8275C49.6484 47.5572 49.781 47.194 49.8441 46.9021C50.0732 46.8244 50.367 46.6771 50.5072 46.5889C50.5276 46.5817 50.5478 46.5723 50.5771 46.5723C50.5951 46.5712 50.6343 46.5759 50.6581 46.6141C50.6788 46.674 50.702 46.7395 50.7242 46.7984L52.0686 50.6176C52.1546 50.8733 52.2419 51.143 52.3376 51.3595C52.4221 51.5541 52.5562 51.6309 52.7909 51.6315H52.8647V51.9167L52.8323 51.9151V51.9151ZM50.7626 51.8501C51.1238 51.8374 51.4785 51.8233 51.8273 51.8233C52.1659 51.8233 52.4843 51.8374 52.8017 51.8501V51.6972H52.7909C52.5404 51.6989 52.3682 51.6005 52.2787 51.3852C52.1836 51.1646 52.0949 50.8934 52.0086 50.6378L50.6642 46.8183C50.6421 46.76 50.6213 46.6948 50.6023 46.6428C50.5951 46.6356 50.5967 46.6356 50.5909 46.6356H50.5771C50.5625 46.6356 50.5536 46.64 50.5348 46.6447C50.3944 46.7359 50.1017 46.88 49.8844 46.9369C49.8399 47.2136 49.7083 47.5784 49.6135 47.8491L48.4452 51.2C48.334 51.5173 48.0772 51.6978 47.7809 51.6972H47.7688V51.8501C48.0192 51.8374 48.2718 51.8233 48.5253 51.8233C48.8078 51.8233 49.0958 51.8374 49.3753 51.8501V51.6972H49.3283C49.0897 51.6939 48.7575 51.6679 48.7492 51.4092C48.7498 51.2644 48.8393 51.0775 48.9109 50.8307L48.9419 50.8398L48.9109 50.8299L49.1514 50.0496H50.8541L51.1465 50.9167C51.2286 51.1516 51.2949 51.3462 51.2949 51.4529C51.2842 51.6765 50.9768 51.6931 50.8112 51.6972H50.7626V51.8501V51.8501ZM49.27 49.7029L49.969 47.5724H50.0083V47.6047L50.0005 47.6069L50.0083 47.6047V47.5724H50.0301L50.7242 49.7029H49.27V49.7029ZM49.3573 49.6391H50.6357L50.0002 47.6824L49.3573 49.6391V49.6391ZM49.9765 47.6141L49.9933 47.6089L49.9765 47.6141V47.6141Z" fill="#1A1919"/>
<path fill-rule="evenodd" clip-rule="evenodd" d="M53.1555 47.1517C52.6079 47.1517 52.5858 47.2838 52.4758 47.8162H52.2563C52.2851 47.6116 52.3224 47.4073 52.3451 47.1956C52.3735 46.9902 52.3876 46.7865 52.3876 46.5754H52.5643C52.6215 46.7945 52.8045 46.7865 53.0016 46.7865H56.7701C56.9664 46.7865 57.1488 46.7793 57.1632 46.5602L57.3379 46.59C57.3108 46.7865 57.2818 46.9839 57.2588 47.1815C57.2428 47.3786 57.2428 47.5751 57.2428 47.7722L57.0247 47.8535C57.0117 47.5837 56.9749 47.1517 56.4846 47.1517H55.2872V51.0366C55.2872 51.5999 55.5431 51.6643 55.8931 51.6643H56.0327V51.8838C55.7474 51.8838 55.2372 51.8556 54.8419 51.8556C54.4046 51.8556 53.8921 51.8838 53.6074 51.8838V51.6643H53.7465C54.1489 51.6643 54.3526 51.6284 54.3526 51.0518V47.1517H53.1555" fill="#1A1919"/>
<path fill-rule="evenodd" clip-rule="evenodd" d="M56.0327 51.9151C55.7458 51.9151 55.2339 51.886 54.8414 51.886C54.4052 51.886 53.8938 51.9151 53.6077 51.9151H53.5754V51.6329H53.7465C54.1492 51.6235 54.3106 51.6182 54.3203 51.0518L54.3198 47.1829H53.1555V47.1191H54.3842V51.0518C54.3842 51.6381 54.1476 51.6959 53.7465 51.6973H53.639V51.8526C53.9275 51.8501 54.4182 51.8233 54.8414 51.8233C55.2231 51.8233 55.7118 51.8501 56.0001 51.8526V51.6973H55.8928C55.541 51.6959 55.2565 51.6113 55.256 51.0366V47.1191H56.4846C56.9752 47.121 57.0391 47.5373 57.0532 47.809L57.2119 47.7507C57.2119 47.5599 57.213 47.3689 57.2279 47.1779C57.2475 46.9897 57.2752 46.8029 57.3017 46.6166L57.1914 46.5972C57.158 46.8098 56.9518 46.8217 56.7701 46.8183H52.9643C52.7921 46.8203 52.6057 46.8103 52.5394 46.6061H52.42C52.4183 46.8081 52.404 47.0044 52.3752 47.199C52.3553 47.4005 52.3202 47.5937 52.2923 47.7858H52.4493C52.5452 47.2764 52.6085 47.1111 53.1555 47.1191V47.1829C52.614 47.1923 52.6259 47.2841 52.5068 47.8236L52.5015 47.8485H52.2196L52.224 47.8123C52.2547 47.6069 52.2906 47.4018 52.3119 47.1915C52.3418 46.9872 52.3553 46.7846 52.3553 46.5754V46.543H52.5872L52.5933 46.566C52.6444 46.7501 52.7774 46.7514 52.9643 46.7548H56.7701C56.9722 46.7514 57.1195 46.7487 57.1325 46.5582L57.1336 46.5231L57.1676 46.5298L57.3749 46.5624L57.37 46.5947C57.3398 46.7907 57.3122 46.9872 57.2901 47.1829C57.2752 47.3786 57.2752 47.5752 57.2752 47.7722V47.7943L57.2539 47.8029L56.9954 47.8974L56.9943 47.8552C56.9752 47.5804 56.9462 47.1829 56.4846 47.1829H55.3187V51.0366C55.3262 51.5872 55.5448 51.6259 55.8928 51.6329H56.0631V51.9151H56.0327" fill="#1A1919"/>
<path fill-rule="evenodd" clip-rule="evenodd" d="M57.6082 51.6643H57.7104C57.9736 51.6643 58.25 51.6284 58.25 51.2483V47.4228C58.25 47.0422 57.9736 47.006 57.7104 47.006H57.6082V46.7865C57.8931 46.7865 58.3304 46.8156 58.6878 46.8156C59.0538 46.8156 59.4922 46.7865 59.836 46.7865V47.006H59.7335C59.4695 47.006 59.192 47.0422 59.192 47.4228V51.2483C59.192 51.6284 59.4695 51.6643 59.7335 51.6643H59.836V51.8838C59.4853 51.8838 59.0466 51.8556 58.682 51.8556C58.3235 51.8556 57.8931 51.8838 57.6082 51.8838V51.6643" fill="#1A1919"/>
<path fill-rule="evenodd" clip-rule="evenodd" d="M59.836 51.9151C59.483 51.9151 59.0463 51.8847 58.682 51.8847C58.3246 51.8847 57.8934 51.9151 57.6081 51.9151H57.5769V51.6329H57.7107C57.9738 51.6284 58.2165 51.6052 58.2182 51.2484V47.4228C58.2165 47.066 57.9738 47.0422 57.7107 47.0375H57.5769V46.7548H57.6081C57.8934 46.7548 58.3326 46.7832 58.6878 46.7832C59.0518 46.7832 59.4899 46.7548 59.836 46.7548H59.8664V47.0375H59.7337C59.4664 47.0422 59.2262 47.066 59.2238 47.4228V51.2484C59.2262 51.6052 59.4664 51.6284 59.7337 51.6329H59.8664V51.9151H59.836V51.9151ZM59.8028 51.852V51.6973H59.7337C59.4717 51.6973 59.1618 51.6514 59.1618 51.2484V47.4228C59.1618 47.019 59.4717 46.974 59.7337 46.9734H59.8028V46.8181C59.4662 46.8203 59.0433 46.8468 58.6878 46.8468C58.3412 46.8468 57.9232 46.8203 57.6399 46.8181V46.9734H57.7107C57.97 46.974 58.2812 47.019 58.282 47.4228V51.2484C58.2812 51.6514 57.97 51.6973 57.7107 51.6973H57.6399V51.852C57.9213 51.8487 58.3343 51.8233 58.682 51.8233C59.0361 51.8233 59.4584 51.8501 59.8028 51.852V51.852Z" fill="#1A1919"/>
<path fill-rule="evenodd" clip-rule="evenodd" d="M62.7478 46.6771C64.3046 46.6771 65.5454 47.642 65.5454 49.1974C65.5454 50.8771 64.3402 51.9936 62.7854 51.9936C61.2367 51.9936 60.0542 50.9418 60.0542 49.3715C60.0542 47.8535 61.2295 46.6771 62.7478 46.6771M62.8581 51.6721C64.2753 51.6721 64.5224 50.4225 64.5224 49.3577C64.5224 48.2905 63.9469 46.9986 62.734 46.9986C61.4564 46.9986 61.0764 48.1379 61.0764 49.1156C61.0764 50.4225 61.6756 51.6721 62.8581 51.6721" fill="#1A1919"/>
<path fill-rule="evenodd" clip-rule="evenodd" d="M60.0215 49.3715C60.0245 47.8358 61.2134 46.6478 62.7474 46.6453V46.7091C61.2463 46.7091 60.0851 47.8695 60.0834 49.3715C60.0864 50.9241 61.2518 51.9601 62.7856 51.9607C64.3246 51.9601 65.5124 50.8597 65.5143 49.1963C65.5129 47.6603 64.2917 46.7105 62.7474 46.7091V46.6453C64.3152 46.647 65.5737 47.6213 65.5765 49.1963C65.5748 50.8934 64.3553 52.0215 62.7856 52.0242C61.2236 52.0215 60.0245 50.9592 60.0215 49.3715M61.0442 49.1156C61.0464 48.1329 61.4298 46.9659 62.7336 46.9659C63.9736 46.9687 64.5519 48.2847 64.5543 49.3577C64.5519 50.4224 64.3014 51.7019 62.8583 51.7019V51.64C64.2467 51.6389 64.488 50.4224 64.4902 49.3577C64.4902 48.2999 63.9205 47.0323 62.7336 47.0303C61.4809 47.0317 61.1108 48.1429 61.1075 49.1156C61.1081 50.4164 61.7018 51.6381 62.8583 51.64V51.7019C61.6462 51.7008 61.0464 50.4302 61.0442 49.1156" fill="#1A1919"/>
<path fill-rule="evenodd" clip-rule="evenodd" d="M70.466 50.4445L70.4812 50.4302V47.6926C70.4812 47.0933 70.0636 47.0057 69.8446 47.0057H69.6857V46.7865C70.0279 46.7865 70.3646 46.8156 70.7068 46.8156C71.007 46.8156 71.3063 46.7865 71.6059 46.7865V47.0057H71.4962C71.1902 47.0057 70.8455 47.064 70.8455 47.9331V51.2555C70.8455 51.5115 70.8533 51.7669 70.8903 51.9935H70.6125L66.8511 47.8012V50.8105C66.8511 51.4463 66.9758 51.6643 67.5369 51.6643H67.6621V51.8838C67.3478 51.8838 67.0344 51.8553 66.7204 51.8553C66.3915 51.8553 66.0553 51.8838 65.7267 51.8838V51.6643H65.8292C66.334 51.6643 66.4863 51.321 66.4863 50.7386V47.6619C66.4863 47.2534 66.1515 47.0057 65.8212 47.0057H65.7267V46.7865C66.0042 46.7865 66.2886 46.8156 66.5667 46.8156C66.7853 46.8156 66.996 46.7865 67.216 46.7865L70.466 50.4445" fill="#1A1919"/>
<path fill-rule="evenodd" clip-rule="evenodd" d="M70.8905 52.0242L70.5884 52.014L66.8826 47.8842V50.8105C66.8911 51.4463 66.9876 51.6251 67.536 51.6315H67.6933V51.9151H67.6623C67.3461 51.9151 67.0326 51.8858 66.7203 51.8858C66.393 51.8858 66.0569 51.9151 65.7258 51.9151H65.6959V51.6315H65.8289C66.3101 51.6301 66.4489 51.32 66.4547 50.7384V47.6619C66.4544 47.2728 66.1351 47.0375 65.8214 47.0375H65.6959V46.7548H65.7258C66.0058 46.7548 66.2905 46.7832 66.5663 46.7832C66.783 46.7832 66.9928 46.7548 67.2405 46.7661L70.4491 50.3785V47.6926C70.4466 47.1127 70.0577 47.0422 69.8446 47.0375H69.6522V46.7548H69.6856C70.0287 46.7548 70.3656 46.7832 70.7059 46.7832C71.0047 46.7832 71.3026 46.7548 71.6061 46.7548H71.6368V47.0375H71.4958C71.1948 47.0453 70.8841 47.0729 70.8781 47.9331V51.2556C70.8781 51.5112 70.8839 51.7661 70.9193 51.9883L70.9256 52.0242H70.8905V52.0242ZM70.6124 51.9607H70.8518C70.8208 51.7409 70.8137 51.4985 70.8137 51.2556V47.9331C70.8137 47.0552 71.1824 46.9753 71.4958 46.9734H71.5749V46.8181C71.2849 46.8203 70.9978 46.8468 70.7059 46.8468C70.3733 46.8468 70.0469 46.8203 69.7163 46.8181V46.9734H69.8446C70.0701 46.9753 70.511 47.0751 70.511 47.6926L70.5033 50.4531L70.4892 50.4672L70.4659 50.4913L67.2162 46.8181C67 46.8181 66.7875 46.8468 66.5663 46.8468C66.2971 46.8468 66.0229 46.8203 65.7573 46.8181V46.9734H65.8214C66.1647 46.9753 66.5174 47.2343 66.5174 47.6619V50.7384C66.5174 51.3227 66.3543 51.6959 65.8289 51.6978L65.7573 51.6973V51.8523C66.0743 51.8501 66.3994 51.8233 66.7203 51.8233C67.0249 51.8233 67.3276 51.8501 67.6302 51.8523V51.6978H67.536C66.963 51.6973 66.8193 51.4463 66.8193 50.8105V47.7194L70.6124 51.9607V51.9607ZM70.4659 50.4446L70.4892 50.4236L70.4659 50.4446V50.4446ZM70.4491 50.4302V50.4283L70.4433 50.4227L70.4491 50.4302V50.4302Z" fill="#1A1919"/>
<path fill-rule="evenodd" clip-rule="evenodd" d="M72.779 50.8398C72.7074 51.0872 72.6192 51.279 72.6192 51.4087C72.6192 51.6284 72.9269 51.6646 73.1662 51.6646H73.2478V51.8838C72.9553 51.8681 72.6557 51.8556 72.3633 51.8556C72.1004 51.8556 71.8378 51.8681 71.576 51.8838V51.6646H71.6175C71.9039 51.6646 72.1457 51.4963 72.2524 51.1895L73.4233 47.8388C73.5176 47.5679 73.6497 47.2031 73.6917 46.9322C73.9264 46.8523 74.2177 46.7072 74.3584 46.6185C74.3789 46.611 74.3935 46.6035 74.4162 46.6035C74.4375 46.6035 74.4513 46.6035 74.4662 46.6265C74.4883 46.6843 74.5101 46.75 74.5323 46.8084L75.8759 50.6281C75.963 50.8829 76.0511 51.153 76.1465 51.3733C76.2341 51.5781 76.3872 51.6646 76.628 51.6646H76.6731V51.8838C76.3439 51.8681 76.0149 51.8556 75.6642 51.8556C75.307 51.8556 74.9413 51.8681 74.5685 51.8838V51.6646H74.6495C74.8164 51.6646 75.1028 51.6356 75.1028 51.4529C75.1028 51.3586 75.0373 51.1613 74.9557 50.9266L74.671 50.08H73.0137L72.779 50.8398V50.8398ZM73.8468 47.6047H73.8321L73.1513 49.6714H74.519L73.8468 47.6047V47.6047Z" fill="#1A1919"/>
<path fill-rule="evenodd" clip-rule="evenodd" d="M76.6698 51.9151C76.3406 51.9021 76.0128 51.8858 75.6645 51.8858C75.3082 51.8858 74.9422 51.9021 74.5702 51.9151L74.5378 51.9167V51.6328H74.649C74.8187 51.6328 75.0702 51.5936 75.0705 51.4529C75.0724 51.3697 75.0064 51.1704 74.9243 50.9374L74.6473 50.1112H73.0353L72.8097 50.8492C72.7362 51.0994 72.65 51.2904 72.6508 51.4087C72.6508 51.5875 72.9247 51.6328 73.166 51.6328H73.2777V51.9167L73.2448 51.9151C72.9532 51.9021 72.6541 51.8858 72.3633 51.8858C72.1016 51.8858 71.8395 51.9021 71.5761 51.9151L71.5443 51.9167V51.6328H71.6176C71.8898 51.6315 72.1176 51.4756 72.2246 51.1793L73.3924 47.8275C73.4861 47.5572 73.6179 47.194 73.6821 46.9032C73.9115 46.8236 74.2048 46.6771 74.3468 46.5889C74.3656 46.5817 74.3861 46.5729 74.4159 46.5729C74.4347 46.5712 74.4732 46.5759 74.4955 46.6157C74.5177 46.6732 74.5392 46.7396 74.563 46.7984L75.9058 50.6176C75.9937 50.8733 76.0808 51.143 76.1756 51.3609C76.2615 51.5541 76.3937 51.6309 76.6272 51.6328H76.7027V51.9167L76.6698 51.9151V51.9151ZM74.5998 51.8507C74.961 51.8374 75.3162 51.8233 75.6645 51.8233C76.0039 51.8233 76.3215 51.8374 76.6402 51.8501L76.6394 51.6973H76.6272C76.3798 51.6978 76.2076 51.6005 76.1164 51.3852C76.0202 51.1646 75.9334 50.8935 75.8458 50.6386L74.5022 46.8183C74.4806 46.76 74.4574 46.6948 74.4403 46.6442C74.4342 46.6356 74.4347 46.6356 74.4303 46.6356H74.4159C74.4002 46.6356 74.3922 46.6406 74.3748 46.6456C74.2318 46.7349 73.9397 46.8814 73.7241 46.9369C73.6788 47.2136 73.5461 47.5779 73.4521 47.8491L72.2826 51.2C72.1715 51.5173 71.9164 51.6978 71.6176 51.6973H71.6068V51.8501C71.8583 51.8374 72.1093 51.8233 72.3633 51.8233C72.6461 51.8233 72.9349 51.8374 73.2155 51.8501V51.6973H73.166C72.9286 51.6939 72.5958 51.6688 72.5864 51.4087C72.5883 51.2644 72.6781 51.0781 72.7497 50.8307L72.779 50.8398L72.7497 50.8299L72.9899 50.0496H74.6921L74.9853 50.9167C75.0658 51.1516 75.1324 51.3462 75.1324 51.4529C75.1219 51.6765 74.8148 51.6931 74.649 51.6973H74.5998V51.8507V51.8507ZM73.1077 49.7027L73.8089 47.5724H73.8468V47.6047L73.8385 47.6069L73.8468 47.6047V47.5724H73.8689L74.5594 49.7027H73.1077V49.7027ZM73.1959 49.6391H74.4734L73.8382 47.6835L73.1959 49.6391V49.6391ZM73.8164 47.6141L73.8308 47.6089L73.8164 47.6141V47.6141Z" fill="#1A1919"/>
<path fill-rule="evenodd" clip-rule="evenodd" d="M78.5123 51.1676C78.5123 51.4612 78.7152 51.5477 78.9496 51.5781C79.2484 51.5999 79.5773 51.5999 79.9143 51.5626C80.2206 51.5259 80.4834 51.3517 80.6144 51.1676C80.7305 51.0073 80.7963 50.8028 80.8411 50.6425H81.0523C80.9718 51.0587 80.8698 51.4681 80.7822 51.8838C80.1409 51.8838 79.4964 51.8556 78.8548 51.8556C78.2116 51.8556 77.5695 51.8838 76.9271 51.8838V51.6643H77.0283C77.2917 51.6643 77.5775 51.6284 77.5775 51.1757V47.4228C77.5775 47.0422 77.2917 47.0057 77.0283 47.0057H76.9271V46.7865C77.3135 46.7865 77.6939 46.8156 78.0803 46.8156C78.4535 46.8156 78.8178 46.7865 79.1912 46.7865V47.0057H79.0077C78.7301 47.0057 78.5123 47.0135 78.5123 47.4004V51.1676" fill="#1A1919"/>
<path fill-rule="evenodd" clip-rule="evenodd" d="M80.7825 51.9151C80.1384 51.9151 79.4952 51.8858 78.8548 51.8858C78.2124 51.8858 77.5697 51.9151 76.9257 51.9151H76.895V51.6329H77.0282C77.2922 51.6265 77.5429 51.608 77.546 51.1757V47.4215C77.5429 47.066 77.2933 47.0422 77.0282 47.0375H76.895V46.7548H76.9257C77.3146 46.7548 77.6947 46.7832 78.0797 46.7832C78.4515 46.7832 78.8152 46.7548 79.1912 46.7548H79.2205V47.0375H79.0076C78.7243 47.0447 78.5485 47.032 78.5421 47.4005V51.1677C78.5441 51.4407 78.7229 51.5137 78.9512 51.5463C79.0798 51.5552 79.2158 51.5599 79.3562 51.5599C79.5347 51.5599 79.7202 51.5516 79.909 51.5317C80.2064 51.4963 80.4624 51.3244 80.5887 51.1502C80.7015 50.9941 80.765 50.7939 80.8093 50.635L80.8153 50.611H81.0907L81.0843 50.6494C81.0016 51.0668 80.901 51.4742 80.8126 51.8905L80.8068 51.9151H80.7825V51.9151ZM80.7556 51.852C80.8402 51.4554 80.9356 51.0676 81.0146 50.6737H80.864C80.8192 50.8326 80.754 51.0286 80.6396 51.1876C80.503 51.3766 80.2327 51.5552 79.9159 51.5944C79.7249 51.6138 79.535 51.6237 79.3562 51.6237C79.2147 51.6237 79.0781 51.6174 78.9452 51.608C78.7077 51.582 78.478 51.48 78.4783 51.1677V47.4005C78.4783 46.9944 78.7351 46.9734 79.0076 46.9734H79.158V46.8181C78.7984 46.8203 78.4432 46.8476 78.0797 46.8476C77.7024 46.8476 77.3323 46.8203 76.9586 46.8181V46.9734H77.0282C77.2886 46.9734 77.6073 47.019 77.6073 47.4215V51.1757C77.6073 51.6483 77.29 51.6973 77.0282 51.6973H76.9586V51.852C77.5894 51.8507 78.2207 51.8233 78.8548 51.8233C79.4897 51.8233 80.1235 51.8507 80.7556 51.852V51.852Z" fill="#1A1919"/>
<path fill-rule="evenodd" clip-rule="evenodd" d="M80.9633 46.5795C81.4039 46.5795 81.7325 46.9178 81.7325 47.3501C81.7325 47.7822 81.4039 48.1169 80.9633 48.1169C80.5238 48.1169 80.1946 47.7822 80.1946 47.3501C80.1946 46.9178 80.5238 46.5795 80.9633 46.5795V46.5795ZM80.9633 47.974C81.3082 47.974 81.5717 47.6807 81.5717 47.3501C81.5717 47.019 81.3113 46.7235 80.9633 46.7235C80.6172 46.7235 80.3541 47.019 80.3541 47.3501C80.3541 47.6807 80.6172 47.974 80.9633 47.974V47.974ZM80.581 47.7556V47.7183C80.675 47.7048 80.6927 47.7073 80.6927 47.6498V47.0798C80.6927 46.9996 80.6847 46.972 80.584 46.9764V46.9372H80.9777C81.1128 46.9372 81.2375 47.0019 81.2375 47.1417C81.2375 47.2559 81.1623 47.3407 81.0556 47.3736L81.1822 47.55C81.2411 47.6296 81.3082 47.7048 81.3514 47.7313V47.7556H81.2018C81.13 47.7556 81.0664 47.6047 80.9254 47.4021H80.8403V47.6569C80.8403 47.7073 80.858 47.7048 80.9525 47.7183V47.7556H80.581V47.7556ZM80.8403 47.3501H80.9309C81.0302 47.3501 81.0761 47.2752 81.0761 47.1539C81.0761 47.0317 81.0053 46.9883 80.926 46.9883H80.8403V47.3501V47.3501Z" fill="#1A1919"/>
<path fill-rule="evenodd" clip-rule="evenodd" d="M35.3539 21.0066C35.3539 14.1762 40.8909 8.63916 47.721 8.63916C54.5514 8.63916 60.0885 14.1762 60.0885 21.0066C60.0885 27.837 54.5514 33.3743 47.721 33.3743C40.8909 33.3743 35.3539 27.837 35.3539 21.0066" fill="#FFFFFE"/>
<path fill-rule="evenodd" clip-rule="evenodd" d="M55.2004 20.7631C55.1955 17.596 53.2158 14.8949 50.4263 13.8252V27.7004C53.2158 26.6293 55.1955 23.9307 55.2004 20.7631V20.7631ZM45.1048 27.6977V13.8265C42.3178 14.8996 40.3412 17.5968 40.3337 20.7631C40.3412 23.9285 42.3178 26.6255 45.1048 27.6977V27.6977ZM47.7669 9.03525C41.2901 9.03774 36.0427 14.2862 36.0416 20.7631C36.0427 27.2391 41.2901 32.4867 47.7669 32.4878C54.2438 32.4867 59.4923 27.2391 59.4939 20.7631C59.4923 14.2862 54.2438 9.03774 47.7669 9.03525V9.03525ZM47.7382 33.5946C40.6507 33.6283 34.8174 27.8864 34.8174 20.8969C34.8174 13.258 40.6507 7.97439 47.7382 7.97577H51.0595C58.0632 7.97439 64.4552 13.2555 64.4552 20.8969C64.4552 27.884 58.0632 33.5946 51.0595 33.5946H47.7382V33.5946Z" fill="#0069AA"/>
</svg>
