<svg width="100" height="60" viewBox="0 0 100 60" fill="none" xmlns="http://www.w3.org/2000/svg">
<rect width="100" height="60" rx="5" fill="white"/>
<path fill-rule="evenodd" clip-rule="evenodd" d="M47.7913 22.9632H51.6663C51.6663 22.9632 55.5022 22.8856 55.4635 26.3845C55.4248 28.989 51.7436 29.378 51.7436 29.378H47.7913V22.9632V22.9632ZM59.3832 35.5211C59.4916 36.0303 59.8584 36.5907 61.0818 36.6478C62.7094 36.6866 63.6395 36.0644 63.6395 36.0644V37.2696C63.6395 37.2696 61.8567 37.6974 61.0044 37.6974C60.1134 37.6974 57.4784 37.5029 57.4784 35.0536C57.4784 33.0713 59.6484 32.4491 60.8879 32.4491C63.058 32.5267 64.1041 33.3042 64.0654 35.5202C64.0654 35.553 60.4952 35.5287 59.3832 35.5211V35.5211ZM59.3878 34.5482H62.3604C62.3604 34.5482 62.3604 33.421 60.927 33.421C59.8482 33.421 59.4954 34.0045 59.3878 34.5482V34.5482ZM68.7927 33.3311C69.2225 32.8632 69.9447 32.4879 71.1566 32.4879C73.5587 32.4879 73.9464 34.5094 73.9077 35.0536C73.869 35.5982 73.6752 37.6586 70.8854 37.6586C69.832 37.6586 69.1872 37.2978 68.7927 36.8496V37.5029H66.8943V30.5052H68.7927V33.3311V33.3311ZM70.4203 36.5702C71.5438 36.531 72.0475 35.5594 72.0475 35.0929C72.0475 34.6263 71.7763 33.6543 70.343 33.6543C69.2301 33.6543 68.8917 34.4975 68.7927 34.9099V35.417C68.89 35.8367 69.231 36.5702 70.4203 36.5702V36.5702ZM86.8109 36.3757L86.8496 37.4641C86.8496 37.4641 85.9582 37.6586 85.3771 37.6586C84.7961 37.6586 83.2845 37.3084 83.2845 35.8315C83.2845 35.2298 83.2845 34.3764 83.2845 33.5763H81.696V32.5655H83.2845C83.2845 31.8669 83.2845 31.3607 83.2845 31.3607H85.222V32.5655H86.8109V33.5763H85.222V35.5202C85.222 35.5202 85.222 36.4922 85.9969 36.4922C86.7718 36.4922 86.8109 36.3757 86.8109 36.3757V36.3757ZM80.921 24.0128H83.1684V29.4168H85.0673V24.0128H87.3533V22.8856H80.921V24.0128V24.0128ZM80.1461 24.2849L80.3786 23.1577C80.3786 23.1577 79.4099 22.7299 77.7049 22.7299C76.0386 22.7299 73.3653 23.6631 73.3653 26.19C73.3653 28.6781 76.1937 29.5332 77.9374 29.5332C79.6811 29.5332 80.2622 29.2611 80.2622 29.2611L80.0688 28.0171C80.0688 28.0171 79.2934 28.2503 77.9761 28.2503C76.6975 28.2115 75.3801 27.2008 75.3801 26.0731C75.4188 25.0624 76.5814 23.9352 78.0926 23.9352C79.2547 23.9352 80.1461 24.2849 80.1461 24.2849V24.2849ZM63.0193 22.9244C63.0193 22.9244 66.1967 22.7687 66.1967 24.635C66.1967 26.2288 64.3757 26.3457 64.3757 26.3457C64.3757 26.3457 64.879 26.4233 65.1119 26.773C65.3054 27.0843 66.584 29.4168 66.584 29.4168H64.6469C64.6469 29.4168 64.3366 29.0278 64.1819 28.7557C64.0654 28.4836 63.7168 27.9006 63.7168 27.9006C63.7168 27.9006 63.4456 26.9287 62.5156 26.9287C62.4922 26.9287 62.113 26.9142 61.818 26.9031V29.4168H59.9583V22.9244H63.0193V22.9244ZM61.818 25.8399H62.8254C62.8254 25.8399 64.2206 25.7622 64.2979 24.9071C64.3366 24.0904 62.9419 23.974 62.9419 23.974H61.818V25.8399V25.8399ZM69.6067 26.8506H72.7064V25.6458H69.6067V24.1685H72.9776V22.9244H67.7079V29.4168H73.0163V28.2503H69.6067V26.8506V26.8506ZM77.1625 31.8268H79.0613V30.5052H77.1625V31.8268ZM77.1625 37.5029H79.0613V32.5655H77.1625V37.5029ZM56.4709 29.4168H58.3311V22.9244H56.4709V29.4168ZM47.7913 31.0494H51.6663C51.6663 31.0494 55.5022 30.9717 55.4635 34.4706C55.4248 37.0752 51.7436 37.4641 51.7436 37.4641H47.7913V31.0494V31.0494ZM49.6897 36.2589H50.93C50.93 36.2589 53.4873 36.1036 53.4873 34.1209C53.4873 32.1382 50.7749 31.9437 50.7749 31.9437H49.6897V36.2589V36.2589ZM49.6897 28.1727H50.93C50.93 28.1727 53.4873 27.9783 53.4873 26.0343C53.4873 24.0128 50.7749 23.8576 50.7749 23.8576H49.6897V28.1727V28.1727Z" fill="#141413"/>
<path fill-rule="evenodd" clip-rule="evenodd" d="M30.3932 26.828V39.8358C30.3932 39.8358 22.8761 38.4749 22.8761 33.3042C22.8761 29.1805 28.4408 27.3633 30.3932 26.828V26.828ZM30.3932 26.5854C25.8751 26.2574 15.6302 28.3821 15.6302 33.0321C15.6302 36.0644 21.0547 40.4964 29.8895 40.6133C30.2381 40.6133 40.2742 40.2243 40.119 29.4168C39.9889 20.3395 33.2174 18.7496 31.0521 18.4728V17.9196C39.6846 18.4694 46.4739 23.678 46.4739 29.9998C46.4739 36.6866 38.8791 42.1294 29.5409 42.1294C20.2024 42.1294 12.6466 36.6866 12.6466 29.9998C12.6466 23.3129 20.2024 17.8706 29.5409 17.8706C29.8266 17.8706 30.111 17.8753 30.3932 17.8859V26.5854V26.5854Z" fill="#141413"/>
</svg>
