<svg width="100" height="60" viewBox="0 0 100 60" fill="none" xmlns="http://www.w3.org/2000/svg">
<g clip-path="url(#clip0_0:895)">
<rect width="100" height="60" rx="4" fill="white"/>
<path fill-rule="evenodd" clip-rule="evenodd" d="M24.1155 60H96.0001C98.2092 60 100 58.2091 100 56V33.6981C100 33.6981 73.1996 51.868 24.1155 60Z" fill="#E6772F"/>
<mask id="mask0_0:895" style="mask-type:alpha" maskUnits="userSpaceOnUse" x="24" y="33" width="76" height="27">
<path fill-rule="evenodd" clip-rule="evenodd" d="M24.1155 60H96.0001C98.2092 60 100 58.2091 100 56V33.6981C100 33.6981 73.1996 51.868 24.1155 60Z" fill="white"/>
</mask>
<g mask="url(#mask0_0:895)">
</g>
</g>
<path fill-rule="evenodd" clip-rule="evenodd" d="M18.2886 29.822C17.5379 30.4639 16.5822 30.7446 15.054 30.7446H14.4199V23.0846H15.054C16.5822 23.0846 17.5012 23.3464 18.2886 24.0202C19.1014 24.7166 19.5898 25.7907 19.5898 26.9018C19.5898 28.0183 19.1014 29.1307 18.2886 29.822V29.822ZM15.5274 21.1225H12.0577V32.7076H15.5062C17.3414 32.7076 18.6661 32.2898 19.8272 31.3676C21.2064 30.2755 22.0248 28.6264 22.0248 26.918C22.0248 23.498 19.3547 21.1225 15.5274 21.1225V21.1225Z" fill="#1A1919"/>
<path fill-rule="evenodd" clip-rule="evenodd" d="M23.1139 21.1225H25.4666V32.7076H23.1139V21.1225Z" fill="#1A1919"/>
<path fill-rule="evenodd" clip-rule="evenodd" d="M31.2443 25.5627C29.8242 25.0643 29.4092 24.7323 29.4092 24.1061C29.4092 23.3783 30.1509 22.8264 31.171 22.8264C31.878 22.8264 32.4604 23.0972 33.0809 23.7589L34.3092 22.2169C33.2943 21.3622 32.0797 20.9295 30.7555 20.9295C28.6128 20.9295 26.9798 22.3559 26.9798 24.242C26.9798 25.8433 27.739 26.6557 29.9544 27.4272C30.8805 27.7353 31.351 27.9458 31.5894 28.0884C32.0613 28.3803 32.2964 28.7987 32.2964 29.2822C32.2964 30.2246 31.516 30.9173 30.4612 30.9173C29.3382 30.9173 28.4295 30.3793 27.8856 29.369L26.3635 30.7797C27.4518 32.3055 28.7562 32.9874 30.5533 32.9874C33.0043 32.9874 34.7314 31.4171 34.7314 29.1806C34.7314 27.3377 33.9304 26.5023 31.2443 25.5627" fill="#1A1919"/>
<path fill-rule="evenodd" clip-rule="evenodd" d="M35.4731 26.9179C35.4731 30.3249 38.2678 32.9649 41.8653 32.9649C42.8797 32.9649 43.7493 32.7733 44.8202 32.2897V29.6272C43.8739 30.5372 43.0433 30.8962 41.9687 30.8962C39.5915 30.8962 37.9077 29.2503 37.9077 26.9018C37.9077 24.6828 39.646 22.9249 41.8653 22.9249C42.985 22.9249 43.8405 23.3045 44.8202 24.228V21.5687C43.7855 21.068 42.9366 20.8607 41.9137 20.8607C38.3369 20.8607 35.4731 23.5524 35.4731 26.9179" fill="#1A1919"/>
<path fill-rule="evenodd" clip-rule="evenodd" d="M63.9486 28.9004L60.7201 21.1225H58.146L63.2783 33H64.5442L69.7762 21.1225H67.2222L63.9486 28.9004" fill="#1A1919"/>
<path fill-rule="evenodd" clip-rule="evenodd" d="M70.8474 32.7076H77.5427V30.7446H73.2096V27.6175H77.3782V25.6549H73.2096V23.0846H77.5427V21.1225H70.8474V32.7076" fill="#1A1919"/>
<path fill-rule="evenodd" clip-rule="evenodd" d="M82.1542 26.4497H81.4689V22.9456H82.1928C83.6679 22.9456 84.4581 23.538 84.4581 24.6666C84.4581 25.8263 83.6679 26.4497 82.1542 26.4497V26.4497ZM86.8893 24.5407C86.8893 22.3712 85.3343 21.1225 82.6083 21.1225H79.1016V32.7076H81.4689V28.0497H81.7758L85.0377 32.7076H87.9423L84.1333 27.8248C85.9135 27.4767 86.8893 26.3134 86.8893 24.5407V24.5407Z" fill="#1A1919"/>
<path fill-rule="evenodd" clip-rule="evenodd" d="M58.4787 26.945C58.4787 30.2804 55.6545 32.9838 52.1675 32.9838C48.6814 32.9838 45.8567 30.2804 45.8567 26.945C45.8567 23.6091 48.6814 20.9052 52.1675 20.9052C55.6545 20.9052 58.4787 23.6091 58.4787 26.945" fill="#E6772F"/>
<defs>
<clipPath id="clip0_0:895">
<rect width="100" height="60" fill="white"/>
</clipPath>
</defs>
</svg>
