<svg width="100" height="60" viewBox="0 0 100 60" fill="none" xmlns="http://www.w3.org/2000/svg">
<rect width="100" height="60" rx="4" fill="white"/>
<path fill-rule="evenodd" clip-rule="evenodd" d="M26.2915 22.653C21.7804 22.653 18.0214 24.5807 18.0214 30.3964C18.0214 35.0037 20.5491 37.9051 26.408 37.9051C33.3043 37.9051 33.7463 33.3295 33.7463 33.3295H30.4048C30.4048 33.3295 29.6883 35.7933 26.2042 35.7933C23.3664 35.7933 21.3254 33.8624 21.3254 31.1561H34.0958V29.4578C34.0958 26.7804 32.4083 22.653 26.2915 22.653V22.653ZM26.1751 24.8235C28.8763 24.8235 30.7178 26.4903 30.7178 28.9885H21.3993C21.3993 26.3364 23.803 24.8235 26.1751 24.8235V24.8235Z" fill="#E53238"/>
<path fill-rule="evenodd" clip-rule="evenodd" d="M34.0934 17.0215V34.9845C34.0934 36.0041 34.0211 37.4358 34.0211 37.4358H37.2083C37.2083 37.4358 37.3227 36.4076 37.3227 35.4678C37.3227 35.4678 38.8973 37.9491 43.1789 37.9491C47.6876 37.9491 50.7502 34.7962 50.7502 30.2791C50.7502 26.0768 47.9371 22.697 43.1862 22.697C38.7373 22.697 37.3548 25.1168 37.3548 25.1168V17.0215H34.0934ZM42.3635 24.9188C45.4253 24.9188 47.3722 27.2076 47.3722 30.2791C47.3722 33.5726 45.1236 35.7273 42.3854 35.7273C39.1176 35.7273 37.3548 33.1574 37.3548 30.3084C37.3548 27.6537 38.9366 24.9188 42.3635 24.9188V24.9188Z" fill="#0064D2"/>
<path fill-rule="evenodd" clip-rule="evenodd" d="M58.6709 22.653C51.8843 22.653 51.4491 26.3959 51.4491 26.994H54.827C54.827 26.994 55.0042 24.8089 58.438 24.8089C60.6693 24.8089 62.3983 25.8376 62.3983 27.8153V28.5192H58.438C53.1803 28.5192 50.4008 30.0684 50.4008 33.2122C50.4008 36.3061 52.969 37.9894 56.4396 37.9894C61.1695 37.9894 62.6932 35.357 62.6932 35.357C62.6932 36.404 62.7733 37.4358 62.7733 37.4358H65.7763C65.7763 37.4358 65.6598 36.1569 65.6598 35.3387V28.2662C65.6598 23.629 61.9462 22.653 58.6709 22.653V22.653ZM62.3983 30.631V31.5696C62.3983 32.7938 61.6484 35.8373 57.2331 35.8373C54.8153 35.8373 53.7787 34.6219 53.7787 33.2122C53.7787 30.6476 57.2697 30.631 62.3983 30.631V30.631Z" fill="#F5AF02"/>
<path fill-rule="evenodd" clip-rule="evenodd" d="M63.8408 23.2402H67.641L73.0948 34.2456L78.5362 23.2402H81.9786L72.0673 42.8333H68.4564L71.3164 37.3715L63.8408 23.2402Z" fill="#86B817"/>
</svg>
