<svg width="100" height="60" viewBox="0 0 100 60" fill="none" xmlns="http://www.w3.org/2000/svg">
<rect width="100" height="60" rx="4" fill="white"/>
<path fill-rule="evenodd" clip-rule="evenodd" d="M30.9873 14.0506C31.3519 14.1671 31.7417 14.1722 32.1164 14.238C34.2835 14.643 36.2177 15.5494 37.8936 16.9823C39.9645 18.7494 41.3569 20.957 41.9341 23.6203C42.8253 27.7215 41.8987 31.3975 39.1443 34.5722C37.3215 36.6734 35.0126 37.9949 32.2784 38.5165C28.8202 39.1747 25.6202 38.4962 22.7443 36.4608C20.1924 34.6532 18.5417 32.2025 17.8531 29.1494C17.0936 25.7924 17.6556 22.6329 19.4987 19.7215C20.6987 17.8279 22.324 16.3848 24.3189 15.362C25.681 14.6633 27.1341 14.243 28.6582 14.0911C28.7139 14.0861 28.7797 14.1114 28.8101 14.0405C29.5341 14.0506 30.2632 14.0506 30.9873 14.0506V14.0506ZM29.9037 16.3747C24.567 16.319 19.9493 20.6633 19.8582 26.2228C19.762 31.9139 24.3797 36.4203 29.8531 36.4405C35.3215 36.4608 39.8987 32.0557 39.9392 26.4962C39.9696 20.876 35.4784 16.3747 29.9037 16.3747V16.3747Z" fill="#FCB922"/>
<path fill-rule="evenodd" clip-rule="evenodd" d="M47.4937 45.9494C46.9519 45.8785 46.4 45.9139 45.8583 45.8937C44.157 45.8228 42.4557 45.7468 40.7595 45.6152C39.4076 45.5139 38.0557 45.3924 36.7089 45.2456C35.1848 45.0785 33.6659 44.881 32.1469 44.6532C30.3241 44.3797 28.5064 44.0557 26.7038 43.6759C21.838 42.6481 17.0836 41.2709 12.5418 39.2051C12.5064 39.1899 12.4709 39.1646 12.4203 39.1392C12.5519 39.0835 12.6583 39.1241 12.7697 39.1544C16.1064 40.0456 19.4785 40.7899 22.881 41.3873C25.438 41.838 28.0051 42.2177 30.5823 42.5215C32.3899 42.7342 34.1975 42.9215 36.0152 43.0785C38.1317 43.2608 40.2481 43.3975 42.3697 43.4937C44.1367 43.5747 45.9089 43.6152 47.676 43.6506C49.0532 43.6759 50.4254 43.681 51.8026 43.6658C54.0355 43.6405 56.2684 43.5797 58.5013 43.4633C60.6633 43.3519 62.8254 43.2051 64.9823 43.0076C67.1697 42.8051 69.357 42.562 71.5393 42.2684C75.3823 41.7519 79.195 41.0835 82.9772 40.2278C84.5317 39.8785 86.076 39.4937 87.6102 39.0734C87.6405 39.0633 87.676 39.0684 87.7823 39.0582C87.6557 39.1291 87.595 39.1696 87.5241 39.2C84.7494 40.4759 81.8735 41.4785 78.9367 42.3139C76.5621 42.9873 74.157 43.5443 71.7317 44.0101C69.7874 44.3848 67.8329 44.6886 65.8684 44.9468C63.6304 45.2456 61.3823 45.4684 59.1292 45.6354C57.6507 45.7468 56.1671 45.8228 54.6886 45.8785C54.3342 45.8937 53.9747 45.843 53.6254 45.9544C51.5798 45.9494 49.5342 45.9494 47.4937 45.9494V45.9494Z" fill="#FCB922"/>
<path fill-rule="evenodd" clip-rule="evenodd" d="M49.6354 22.2987C49.2506 23.5443 48.8709 24.7848 48.486 26.0304C47.9341 27.8329 47.3772 29.6354 46.8354 31.438C46.7696 31.6557 46.6379 31.6101 46.4962 31.6202C46.3392 31.6354 46.2633 31.5949 46.2126 31.4228C45.4785 28.7646 44.7342 26.1114 43.9949 23.4532C43.8228 22.8253 43.6455 22.2025 43.4633 21.5797C43.4126 21.4127 43.4531 21.3772 43.6202 21.3772C44.1215 21.3721 44.1164 21.3671 44.2531 21.8785C44.9873 24.6785 45.7215 27.4785 46.4557 30.2835C46.4709 30.3342 46.486 30.3848 46.5266 30.5114C46.6582 30.0709 46.7747 29.6962 46.886 29.3215C47.6658 26.7595 48.4405 24.1975 49.2101 21.6354C49.2709 21.438 49.3468 21.3721 49.5493 21.3772C50.0253 21.3924 50.0304 21.3823 50.1671 21.838C51.0126 24.638 51.8633 27.443 52.7088 30.243C52.7291 30.3139 52.7544 30.3797 52.8 30.5114C52.962 29.9038 53.1088 29.3519 53.2557 28.8C53.8886 26.3899 54.5215 23.9797 55.1493 21.5696C55.1898 21.4127 55.2557 21.3671 55.4076 21.3772C55.5645 21.3873 55.7266 21.3823 55.9088 21.3823C55.6759 22.2278 55.4481 23.043 55.2202 23.8633C54.5215 26.3747 53.8177 28.8861 53.1139 31.3975C53.0785 31.5342 53.0481 31.6506 52.8607 31.6202C52.7038 31.6 52.5569 31.6608 52.486 31.4127C51.5898 28.4608 50.6785 25.5139 49.7721 22.562C49.7468 22.4759 49.7114 22.3899 49.686 22.3038C49.6658 22.3038 49.6506 22.2987 49.6354 22.2987V22.2987Z" fill="#424143"/>
<path fill-rule="evenodd" clip-rule="evenodd" d="M58.243 22.2481C58.2177 21.5696 58.1316 21.7063 58.6987 21.5696C60.1164 21.2405 61.5494 21.119 62.9772 21.4937C64.0861 21.7823 64.6785 22.5063 64.8101 23.6456C64.8456 23.9544 64.8607 24.2684 64.8607 24.5772C64.8607 26.8051 64.8607 29.0329 64.8557 31.2557C64.8557 31.3418 64.9519 31.4835 64.7645 31.5139C64.5823 31.5494 64.5114 31.4582 64.4607 31.3013C64.4101 31.124 64.3797 30.8709 64.2582 30.8051C64.1266 30.7291 63.9494 30.9418 63.7772 31.0127C62.3645 31.5899 60.9063 31.8278 59.4076 31.4278C58.1367 31.0886 57.3823 30.1114 57.3164 28.7949C57.2759 27.9494 57.3924 27.1443 58 26.4911C58.5266 25.9291 59.2101 25.6759 59.9392 25.5494C61.0177 25.362 62.1063 25.3772 63.1899 25.2911C63.4734 25.2658 63.762 25.2557 64.0456 25.2405C64.1215 25.2354 64.2025 25.2405 64.2025 25.1291C64.2025 24.4405 64.2481 23.7418 63.9949 23.0785C63.7266 22.3696 63.1443 22.0608 62.4405 21.9494C61.0734 21.7266 59.7215 21.8481 58.3899 22.2127C58.3392 22.2278 58.2937 22.238 58.243 22.2481V22.2481ZM64.2025 27.9797C64.2025 27.3063 64.1975 26.6329 64.2025 25.9544C64.2025 25.8177 64.1823 25.7671 64.0253 25.7823C63.4126 25.8329 62.8 25.8532 62.1873 25.9038C61.443 25.9646 60.6886 25.9595 59.9494 26.1013C59.1392 26.2582 58.4709 26.6228 58.1418 27.4278C57.9595 27.8734 57.9392 28.3443 57.9696 28.8202C58.0304 29.9038 58.6076 30.6582 59.6607 30.9114C61.2354 31.2911 62.7139 30.962 64.1114 30.1924C64.2177 30.1316 64.2025 30.0456 64.2025 29.9544C64.2025 29.2962 64.2025 28.638 64.2025 27.9797V27.9797Z" fill="#424143"/>
<path fill-rule="evenodd" clip-rule="evenodd" d="M68.1873 36.5823C68.724 35.3114 69.2405 34.081 69.757 32.8456C69.9342 32.4253 70.1013 32.0051 70.2835 31.5899C70.3392 31.4633 70.3392 31.357 70.2886 31.2304C69.3924 28.9367 68.5013 26.638 67.6101 24.3392C67.2354 23.3671 66.8608 22.3949 66.4658 21.3823C66.7038 21.3823 66.9165 21.3772 67.1291 21.3823C67.2557 21.3873 67.2506 21.5038 67.281 21.5848C67.7468 22.8152 68.2025 24.0456 68.6582 25.2759C69.3013 27.0127 69.9443 28.7443 70.5873 30.481C70.6025 30.5215 70.6278 30.5519 70.6582 30.6076C71.1038 29.4177 71.5443 28.243 71.9797 27.0734C72.6582 25.2557 73.3418 23.4329 74.0101 21.6101C74.081 21.4228 74.162 21.3722 74.3494 21.3772C74.8253 21.3873 74.8253 21.3823 74.6532 21.8278C72.9772 26.1266 71.3013 30.4304 69.6203 34.7291C69.4076 35.2759 69.1848 35.8228 68.9823 36.3747C68.9215 36.5316 68.8557 36.6076 68.6785 36.5873C68.5266 36.5671 68.3747 36.5823 68.1873 36.5823V36.5823Z" fill="#424143"/>
<path fill-rule="evenodd" clip-rule="evenodd" d="M77.8177 24.4962C77.6658 24.4861 77.5139 24.4962 77.362 24.4709C76.3341 24.3089 76.0253 23.6202 76.0708 22.557C76.0759 22.4152 76.1063 22.2734 76.1367 22.1367C76.2582 21.5646 76.6227 21.2253 77.1797 21.1038C77.6455 21.0025 78.1164 21.0076 78.5822 21.1392C79.0582 21.2759 79.362 21.5899 79.4886 22.0658C79.6101 22.5266 79.6101 22.9975 79.4936 23.4633C79.3417 24.0608 78.8607 24.4304 78.1721 24.4861C78.0556 24.4962 77.9341 24.4861 77.8177 24.4861C77.8177 24.4861 77.8177 24.4911 77.8177 24.4962V24.4962ZM77.8177 24.1671C77.9291 24.1671 78.0354 24.1772 78.1468 24.1671C78.7189 24.1164 79.0227 23.8835 79.1544 23.3772C79.2658 22.957 79.2607 22.5266 79.1392 22.1063C79.0227 21.7114 78.7544 21.4835 78.3594 21.4076C78.1215 21.362 77.8734 21.3468 77.6303 21.362C76.7999 21.4127 76.4405 21.7873 76.4101 22.6228C76.4101 22.6734 76.4101 22.724 76.4101 22.7747C76.4101 23.7873 76.7999 24.1772 77.8177 24.1671V24.1671Z" fill="#424143"/>
<path fill-rule="evenodd" clip-rule="evenodd" d="M34.6836 29.7165C34.6836 30.5367 34.6785 31.362 34.6886 32.1873C34.6886 32.3342 34.5924 32.3443 34.5013 32.3797C33.281 32.9063 32 33.1544 30.6734 33.2C29.6912 33.2354 28.719 33.2 27.7772 32.9165C26.0051 32.3848 24.9519 31.1544 24.4608 29.4127C24.0203 27.8582 23.995 26.2684 24.1317 24.6734C24.2076 23.7722 24.3899 22.8911 24.7545 22.0557C25.4279 20.5114 26.6076 19.5949 28.2481 19.2506C29.3924 19.0076 30.5418 18.9873 31.6861 19.2253C33.4076 19.5797 34.4861 20.643 34.9874 22.3089C35.2912 23.3266 35.3874 24.3747 35.4076 25.4278C35.4178 26.0203 35.4076 26.6076 35.4228 27.2C35.4279 27.3823 35.3823 27.443 35.1848 27.443C32.5165 27.438 29.8481 27.443 27.1747 27.438C26.9621 27.438 26.9114 27.4937 26.9519 27.6911C27.0178 28.0101 27.0785 28.3342 27.1848 28.6481C27.6203 29.9443 28.5469 30.6228 29.9038 30.6481C31.4937 30.6785 33.0228 30.4101 34.481 29.762C34.5367 29.7367 34.5924 29.6911 34.6836 29.7165V29.7165ZM29.6962 25.038C30.5823 25.038 31.4684 25.0329 32.3545 25.043C32.5064 25.043 32.557 25.0076 32.5519 24.8506C32.5317 24.3089 32.4962 23.7722 32.3494 23.2506C32.1772 22.6532 31.8734 22.162 31.2861 21.8835C30.7038 21.6051 30.0912 21.6051 29.4785 21.6759C28.6988 21.7671 28.0405 22.0861 27.5899 22.7544C27.1798 23.3671 27.0329 24.0608 26.9266 24.7747C26.8912 25.0177 26.9519 25.0481 27.1696 25.0481C28.0102 25.0329 28.8507 25.038 29.6962 25.038V25.038Z" fill="#424143"/>
<path fill-rule="evenodd" clip-rule="evenodd" d="M78.6835 23.7063C78.405 23.7975 78.2531 23.6911 78.1671 23.443C78.1367 23.357 78.0709 23.281 78.0455 23.1949C77.9696 22.9013 77.7417 22.9722 77.5392 22.9671C77.4531 22.9671 77.4531 23.0278 77.4531 23.0886C77.4531 23.2304 77.4481 23.3722 77.4531 23.519C77.4582 23.6506 77.4531 23.7367 77.2759 23.7367C77.1088 23.7316 77.1088 23.6557 77.1088 23.5342C77.1139 23.0228 77.119 22.5063 77.1088 21.9949C77.1038 21.8329 77.1595 21.7924 77.3114 21.7975C77.5696 21.8127 77.8329 21.8025 78.0911 21.8228C78.2987 21.838 78.4658 21.9494 78.5114 22.162C78.562 22.3949 78.6025 22.6532 78.3949 22.8203C78.2531 22.9367 78.2936 23.0076 78.3595 23.1241C78.4759 23.3165 78.5823 23.5139 78.6835 23.7063V23.7063ZM77.8177 22.1165C77.4683 22.1165 77.3721 22.2633 77.4582 22.5671C77.4785 22.6329 77.5088 22.643 77.5645 22.643C77.7164 22.638 77.8633 22.638 78.0152 22.6278C78.1519 22.6177 78.2228 22.5367 78.2278 22.4C78.2329 22.2532 78.1671 22.157 78.0202 22.1367C77.9342 22.1215 77.8531 22.1215 77.8177 22.1165V22.1165Z" fill="#424143"/>
</svg>
