<svg width="100" height="60" viewBox="0 0 100 60" fill="none" xmlns="http://www.w3.org/2000/svg">
<rect width="100" height="60" rx="4" fill="white"/>
<g clip-path="url(#clip0_0:629)">
<path fill-rule="evenodd" clip-rule="evenodd" d="M52.6031 50.7579C52.5103 50.8142 52.4175 50.8704 52.3061 50.9267C52.0092 51.0579 51.7122 51.0954 51.4523 51.0954C51.1739 51.0954 50.7284 51.0767 50.2829 50.7392C49.6518 50.2891 49.3734 49.5203 49.3734 48.8453C49.3734 47.4576 50.4871 46.7826 51.3966 46.7826C51.7122 46.7826 52.0463 46.8576 52.3061 47.0264C52.7516 47.3264 52.863 47.7014 52.9187 47.9077L50.8398 48.7515L50.153 48.8078C50.3757 49.9516 51.1368 50.6079 51.972 50.6079C52.4175 50.6079 52.7516 50.4391 53.0486 50.2891L52.6031 50.7579V50.7579ZM51.7679 48.0952C51.9349 48.0389 52.0277 47.9827 52.0277 47.8514C52.0277 47.4951 51.6379 47.0826 51.1553 47.0826C50.8027 47.0826 50.1344 47.3639 50.1344 48.3202C50.1344 48.4702 50.153 48.639 50.153 48.789L51.7679 48.0952V48.0952Z" fill="#1476C6"/>
<path fill-rule="evenodd" clip-rule="evenodd" d="M49.1692 50.9454H47.61C47.8142 50.6829 47.8513 50.6454 47.8513 50.4766V49.014C47.8513 48.3202 47.8699 47.3264 47.8884 46.3888C47.8884 45.9388 47.9255 45.3575 47.9441 44.9449H47.2573L47.9255 44.6262H49.1877C48.9093 44.7949 48.8165 44.8324 48.7979 45.1512C48.7237 45.845 48.7237 46.9326 48.7237 48.2077V50.2704C48.7237 50.6266 48.7794 50.6829 49.0764 50.7017C49.2249 50.7204 49.3733 50.7392 49.5218 50.7392L49.1692 50.9454" fill="#1476C6"/>
<path fill-rule="evenodd" clip-rule="evenodd" d="M46.255 47.2139C46.4592 47.3826 46.8861 47.7389 46.8861 48.4327C46.8861 49.089 46.5149 49.4078 46.1437 49.7078C46.0323 49.8203 45.9024 49.9516 45.9024 50.1391C45.9024 50.3266 46.0323 50.4391 46.1251 50.5141L46.4406 50.7579C46.8304 51.0954 47.1831 51.3955 47.1831 52.0143C47.1831 52.8581 46.385 53.7019 44.8443 53.7019C43.5636 53.7019 42.9325 53.0831 42.9325 52.4268C42.9325 52.108 43.0995 51.6392 43.6193 51.3392C44.1761 51.0017 44.9186 50.9454 45.3084 50.9267C45.1785 50.7579 45.0485 50.5891 45.0485 50.3266C45.0485 50.1766 45.0856 50.0829 45.1413 49.9703C45.0485 49.9703 44.9371 49.9891 44.8629 49.9891C43.9163 49.9891 43.3965 49.2765 43.3965 48.5827C43.3965 48.1702 43.5822 47.7202 43.9719 47.3826C44.4731 46.9701 45.0856 46.8951 45.5497 46.8951H47.3687L46.7933 47.2139H46.255V47.2139ZM45.6239 51.1892C45.5497 51.1892 45.5126 51.1892 45.4198 51.1892C45.3455 51.1892 44.8629 51.2079 44.4917 51.3392C44.2875 51.4142 43.7306 51.6205 43.7306 52.258C43.7306 52.8956 44.3432 53.3456 45.2898 53.3456C46.1437 53.3456 46.5891 52.9331 46.5891 52.3705C46.5891 51.9205 46.2921 51.6767 45.6239 51.1892V51.1892ZM45.8838 49.5016C46.088 49.2953 46.1065 49.014 46.1065 48.8453C46.1065 48.2077 45.7167 47.1951 44.9928 47.1951C44.7701 47.1951 44.5102 47.3076 44.3803 47.4951C44.2318 47.6827 44.1761 47.9264 44.1761 48.1514C44.1761 48.7515 44.5288 49.7453 45.2898 49.7453C45.494 49.7453 45.7353 49.6328 45.8838 49.5016V49.5016Z" fill="#1476C6"/>
<path fill-rule="evenodd" clip-rule="evenodd" d="M40.7794 51.0767C39.3687 51.0767 38.6262 49.9703 38.6262 48.9578C38.6262 47.7764 39.5729 46.7826 40.9279 46.7826C42.2272 46.7826 43.0439 47.8139 43.0439 48.9015C43.0253 49.9516 42.2086 51.0767 40.7794 51.0767M41.8745 50.3454C42.0787 50.0641 42.1344 49.7078 42.1344 49.3515C42.1344 48.564 41.7631 47.0639 40.668 47.0639C40.371 47.0639 40.0926 47.1764 39.8698 47.3639C39.5172 47.6827 39.4615 48.0764 39.4615 48.4515C39.4615 49.3328 39.8884 50.7954 40.965 50.7954C41.3177 50.7954 41.6703 50.6267 41.8745 50.3454" fill="#1476C6"/>
<path fill-rule="evenodd" clip-rule="evenodd" d="M36.0648 51.0767C34.6541 51.0767 33.9116 49.9703 33.9116 48.9578C33.9116 47.7764 34.8583 46.7826 36.2133 46.7826C37.5126 46.7826 38.3293 47.8139 38.3293 48.9015C38.3107 49.9516 37.494 51.0767 36.0648 51.0767M37.1599 50.3454C37.3641 50.0641 37.4198 49.7078 37.4198 49.3515C37.4198 48.564 37.0485 47.0639 35.9534 47.0639C35.6564 47.0639 35.3594 47.1764 35.1552 47.3639C34.8026 47.6827 34.7469 48.0764 34.7469 48.4515C34.7469 49.3328 35.1738 50.7954 36.2504 50.7954C36.6031 50.7954 36.9557 50.6267 37.1599 50.3454" fill="#1476C6"/>
<path fill-rule="evenodd" clip-rule="evenodd" d="M33.3176 50.7579L32.1296 51.0392C31.647 51.1142 31.2201 51.1892 30.7561 51.1892C28.4544 51.1892 27.582 49.4828 27.582 48.1515C27.582 46.5201 28.8257 45.02 30.9417 45.02C31.3872 45.02 31.8141 45.095 32.2039 45.1887C32.835 45.3575 33.1134 45.5825 33.299 45.7138L32.6122 46.3701L32.3152 46.4451L32.5194 46.1075C32.241 45.8263 31.7213 45.32 30.7375 45.32C29.4196 45.32 28.4359 46.3326 28.4359 47.7952C28.4359 49.3703 29.5681 50.8517 31.3686 50.8517C31.9069 50.8517 32.1668 50.7392 32.4266 50.6454V49.2953L31.1644 49.3703L31.8326 49.014H33.596L33.3733 49.2203C33.3176 49.2765 33.299 49.2953 33.299 49.3515C33.299 49.4266 33.2804 49.6703 33.2804 49.7453V50.7579" fill="#1476C6"/>
<path fill-rule="evenodd" clip-rule="evenodd" d="M56.4083 50.9454H55.7772L54.8491 46.8951H55.3503L56.1113 50.5329L56.8909 46.8951H57.522L58.3387 50.5329L59.0812 46.8951H59.5638L58.6543 50.9454H58.0232L57.225 47.3451L56.4083 50.9454" fill="#1476C6"/>
<path fill-rule="evenodd" clip-rule="evenodd" d="M62.4965 48.1327C62.4965 47.4764 62.1995 47.2139 61.5498 47.2139C61.0301 47.2139 60.7331 47.4951 60.6589 47.9639L60.1949 47.9077C60.2877 47.2514 60.8074 46.8013 61.5498 46.8013C62.4408 46.8013 62.942 47.1951 62.942 48.0764V50.1391C62.942 50.4954 62.9605 50.7392 63.0162 50.9267H62.5522C62.5151 50.8142 62.4965 50.6079 62.4965 50.4954C62.3109 50.7767 61.8654 51.0204 61.4385 51.0204C60.696 51.0204 60.1206 50.5704 60.1206 49.6703C60.1206 48.8453 60.7146 48.3765 61.5498 48.3765C61.9582 48.3765 62.2923 48.4515 62.4965 48.5452V48.1327V48.1327ZM62.4965 49.014C62.2738 48.9015 61.9582 48.8077 61.5313 48.8077C60.9744 48.8077 60.5661 49.089 60.5661 49.6891C60.5661 50.3079 60.9373 50.6266 61.457 50.6266C61.9211 50.6266 62.3294 50.2891 62.4965 49.9328V49.014V49.014Z" fill="#1476C6"/>
<path fill-rule="evenodd" clip-rule="evenodd" d="M63.8514 50.9454H64.3514V45.17H63.8514V50.9454V50.9454Z" fill="#1476C6"/>
<path fill-rule="evenodd" clip-rule="evenodd" d="M65.2806 50.9454H65.7806V45.17H65.2806V50.9454V50.9454Z" fill="#1476C6"/>
<path fill-rule="evenodd" clip-rule="evenodd" d="M67.9907 50.6079C68.4733 50.6079 68.8445 50.3079 68.9188 49.5578L69.3828 49.6328C69.2714 50.6079 68.7146 51.0579 67.9907 51.0579C67.044 51.0579 66.4686 50.3454 66.4686 48.9015C66.4686 47.6077 66.9512 46.8201 67.935 46.8201C68.9744 46.8201 69.3828 47.6827 69.3828 48.864V49.014H66.9327C66.9512 50.1204 67.3596 50.6079 67.9907 50.6079M68.9002 48.6015V48.6015C68.8816 47.8327 68.5847 47.2514 67.935 47.2514C67.3039 47.2514 66.9698 47.7764 66.9327 48.6015H68.9002" fill="#1476C6"/>
<path fill-rule="evenodd" clip-rule="evenodd" d="M71.5174 50.9267C71.4246 50.9642 71.239 51.0017 71.0348 51.0017C70.4408 51.0017 70.2552 50.7017 70.2552 50.1204V47.3076H69.7355V46.8951H70.2552V45.5825L70.7192 45.395V46.8951H71.5174V47.3076H70.7192V50.0454C70.7192 50.4391 70.7935 50.5329 71.109 50.5329C71.2761 50.5329 71.406 50.4954 71.5174 50.4391V50.9267" fill="#1476C6"/>
</g>
<path fill-rule="evenodd" clip-rule="evenodd" d="M44.2503 21.5806C42.2828 18.8429 39.5542 16.4427 36.4544 14.7738C35.9904 14.5113 35.4521 14.38 34.9138 14.38C33.7073 14.38 32.6122 15.0363 32.0368 16.1239C31.1829 17.7178 31.7955 19.7242 33.3732 20.568C38.1436 23.1557 41.2248 28.0686 41.596 33.7691V33.7503C41.5403 33.1127 41.6517 32.4939 41.9301 31.9127C41.9672 31.8376 42.0229 31.7439 42.0786 31.6501C43.5635 29.1749 44.3617 26.3247 44.3617 23.3995C44.3617 22.7807 44.306 22.1806 44.2503 21.5806" fill="#1476C6"/>
<path fill-rule="evenodd" clip-rule="evenodd" d="M63.146 15.3926C62.5706 12.8424 61.7168 10.3672 60.6031 8.00449C60.0091 6.74814 58.7284 5.92307 57.3548 5.92307C56.8165 5.92307 56.2968 6.03558 55.8142 6.27935C54.0137 7.14192 53.2527 9.31709 54.1065 11.1172C55.9256 15.0176 56.8351 19.1241 56.8351 23.3995C56.8351 27.6748 55.9256 31.7814 54.1436 35.6067C54.1251 35.663 53.8095 36.338 53.8095 37.1256C53.8095 37.3506 53.8281 37.6694 53.9023 37.9694C54.1436 39.0007 54.7933 39.9383 55.8699 40.4446C56.3525 40.6696 56.8722 40.8009 57.4105 40.8009C58.7284 40.8009 59.9349 40.0696 60.566 38.907C61.2899 37.5381 62.0138 35.7567 62.6449 33.4503C62.849 32.7565 63.0161 32.1002 63.1646 31.4064C63.74 28.7999 64.0555 26.1372 64.0555 23.3995C64.037 20.6993 63.7214 17.9803 63.146 15.3926" fill="#47AE33"/>
<path fill-rule="evenodd" clip-rule="evenodd" d="M47.9441 11.586C47.8884 11.4735 47.8141 11.3798 47.7399 11.286C47.4986 10.9672 47.2202 10.7047 46.8861 10.4984C46.3478 10.1422 45.6981 9.93589 45.0299 9.93589C44.4731 9.93589 44.1946 10.0109 43.8048 10.1609C43.3965 10.3297 42.9696 10.5547 42.5798 10.9672C42.19 11.3798 41.9672 11.7923 41.8002 12.2423C41.4661 13.1236 41.5218 14.2675 42.0786 15.2051C43.2666 17.1365 43.9719 19.3491 44.2318 21.6181C44.306 22.2181 44.3431 22.8369 44.3431 23.437C44.3431 26.3622 43.5635 29.2124 42.06 31.6876C42.0044 31.7814 41.9672 31.8564 41.9116 31.9502C41.6146 32.5315 41.5218 33.1878 41.5774 33.8066C41.6703 34.8566 42.2457 35.8505 43.2109 36.4505C43.4522 36.6005 43.7306 36.713 43.9905 36.8068C44.306 36.9006 44.6401 36.9568 44.9742 36.9568C46.1807 36.9568 47.2759 36.338 47.907 35.2879C49.8002 32.1564 50.8954 28.5936 51.1367 24.9371C51.1738 24.4496 51.1924 23.9433 51.1924 23.4557C51.2109 19.2179 50.0787 15.1301 47.9441 11.586" fill="#ED114C"/>
<path fill-rule="evenodd" clip-rule="evenodd" d="M54.1251 35.6067C55.9256 31.7814 56.8351 27.6748 56.8351 23.3995C56.8351 21.9369 56.7423 20.868 56.6681 20.1742C54.3108 16.3677 50.8954 12.9549 46.8861 10.4797C46.8861 10.4797 46.9789 10.5359 46.9789 10.5547C47.2573 10.761 47.4801 10.9672 47.7399 11.286C47.7956 11.361 47.8884 11.4735 47.9441 11.586C50.0787 15.1488 51.1924 19.2179 51.1924 23.3995C51.1924 23.9058 51.1738 24.3933 51.1367 24.8808C52.8444 28.1624 53.7725 31.8939 53.7725 35.813C53.7725 36.1317 53.7725 36.6193 53.7725 36.9943C53.791 36.5818 53.8838 36.1505 54.0323 35.7755C54.088 35.7192 54.1066 35.663 54.1251 35.6067" fill="#FBBF16"/>
<defs>
<clipPath id="clip0_0:629">
<rect width="44" height="10" fill="white" transform="translate(27.5264 44.5324)"/>
</clipPath>
</defs>
</svg>
