<svg width="100" height="60" viewBox="0 0 100 60" fill="none" xmlns="http://www.w3.org/2000/svg">
<rect width="100" height="60" rx="4" fill="white"/>
<path fill-rule="evenodd" clip-rule="evenodd" d="M63.4868 30.8108H63.5201H63.5845H63.6488H63.7132H63.7776H63.8419H63.9063H63.9707H64.0351H64.0994H64.1637H64.2282H64.2925H64.3568H64.4212H64.4856H64.5499H64.6143H64.6787H64.743H64.8074H64.8718H64.9361H65.0005H65.0649H65.1292H65.1936H65.258H65.3223H65.3867H65.4511H65.5155H65.5798H65.6442H65.7086H65.7729H65.8373H65.9017H65.966H66.0304H66.0948H66.1591H66.2235H66.2879H66.3522H66.4166H66.481H66.5453H66.6097H66.6741H66.7384H66.8028H66.8672H66.9315H66.9959H67.0603H67.1246H67.189H67.2534H67.3177H67.3713L67.3821 30.811C67.402 30.8115 67.4236 30.8124 67.4465 30.8136C67.4671 30.8148 67.4887 30.8162 67.5108 30.8179C67.532 30.8194 67.5536 30.8212 67.5752 30.8232C67.5969 30.8252 67.6184 30.8274 67.6396 30.8297C67.6617 30.8322 67.6834 30.8348 67.7039 30.8375C67.727 30.8406 67.7487 30.8438 67.7683 30.8472C67.7825 30.8496 67.7955 30.8521 67.8072 30.8546L67.8327 30.8603C67.8542 30.8653 67.8757 30.8708 67.897 30.8767C67.9186 30.8827 67.9401 30.889 67.9614 30.8958C67.983 30.9027 68.0045 30.91 68.0258 30.9177C68.0474 30.9256 68.0688 30.9339 68.0901 30.9425C68.1118 30.9514 68.1332 30.9607 68.1545 30.9705C68.1762 30.9804 68.1976 30.9907 68.2189 31.0015C68.2405 31.0125 68.262 31.024 68.2832 31.036C68.3049 31.0482 68.3264 31.061 68.3476 31.0742C68.3693 31.0877 68.3908 31.1017 68.412 31.1162C68.4337 31.1311 68.4552 31.1465 68.4763 31.1624C68.4981 31.1789 68.5196 31.1959 68.5407 31.2134C68.5626 31.2317 68.584 31.2505 68.6051 31.2698C68.627 31.2901 68.6485 31.3107 68.6695 31.332C68.6915 31.3545 68.7129 31.3777 68.7338 31.4015C68.7559 31.4267 68.7774 31.4526 68.7981 31.4793C68.8205 31.5079 68.842 31.5373 68.8626 31.5675C68.8851 31.6006 68.9066 31.6345 68.9269 31.6694C68.9498 31.7086 68.9713 31.7491 68.9912 31.7906C69.0149 31.8398 69.0365 31.8905 69.0556 31.9426C69.0814 32.0127 69.103 32.0853 69.12 32.1602C69.1494 32.2902 69.1653 32.427 69.1653 32.5699C69.1653 32.7135 69.1495 32.8509 69.12 32.9813C69.103 33.0565 69.0814 33.1293 69.0556 33.1995C69.0364 33.2518 69.0149 33.3025 68.9912 33.3519C68.9713 33.3934 68.9498 33.4339 68.9269 33.4732C68.9066 33.5081 68.8851 33.542 68.8626 33.5751C68.842 33.6053 68.8205 33.6348 68.7981 33.6634C68.7774 33.69 68.7559 33.7159 68.7338 33.7411C68.7129 33.7649 68.6915 33.7881 68.6695 33.8105C68.6485 33.8319 68.627 33.8525 68.6051 33.8727C68.584 33.8919 68.5626 33.9106 68.5407 33.9288C68.5196 33.9463 68.4982 33.9633 68.4763 33.9798C68.4552 33.9956 68.4337 34.0109 68.412 34.0258C68.3908 34.0403 68.3693 34.0542 68.3476 34.0676C68.3264 34.0808 68.3049 34.0935 68.2832 34.1056C68.262 34.1175 68.2406 34.1289 68.2189 34.1399C68.1976 34.1506 68.1762 34.1609 68.1545 34.1708C68.1332 34.1804 68.1118 34.1896 68.0901 34.1984C68.0688 34.207 68.0474 34.2153 68.0258 34.223C68.0045 34.2306 67.983 34.2378 67.9614 34.2446C67.9401 34.2513 67.9186 34.2576 67.897 34.2635C67.8757 34.2692 67.8542 34.2746 67.8327 34.2796L67.8072 34.2853C67.7955 34.2879 67.7825 34.2906 67.7683 34.2931C67.7487 34.2965 67.727 34.2998 67.7039 34.303C67.6834 34.3058 67.6617 34.3084 67.6396 34.3109C67.6184 34.3132 67.5969 34.3154 67.5752 34.3173C67.5536 34.3193 67.532 34.321 67.5108 34.3225C67.4887 34.3241 67.4671 34.3255 67.4465 34.3266C67.4236 34.3278 67.402 34.3286 67.3821 34.3291L67.3476 34.3295H67.3177H67.2534H67.189H67.1246H67.0603H66.9959H66.9315H66.8672H66.8028H66.7384H66.6741H66.6097H66.5453H66.481H66.4166H66.3522H66.2879H66.2235H66.1591H66.0948H66.0304H65.966H65.9017H65.8373H65.7729H65.7086H65.6442H65.5798H65.5155H65.4511H65.3867H65.3223H65.258H65.1936H65.1292H65.0649H65.0005H64.9361H64.8718H64.8074H64.743H64.6787H64.6143H64.5499H64.4856H64.4212H64.3568H64.2925H64.2282H64.1637H64.0994H64.0351H63.9707H63.9063H63.8419H63.7776H63.7132H63.6488H63.5845H63.5201H63.4868V30.8108V30.8108ZM68.6697 26.8283C68.6955 26.9464 68.7094 27.0715 68.7094 27.2032C68.7094 27.3347 68.6955 27.4598 68.6697 27.5778C68.653 27.6536 68.6314 27.7265 68.6053 27.7964C68.5862 27.8474 68.5647 27.8967 68.5409 27.9444C68.521 27.9844 68.4995 28.0231 68.4766 28.0607C68.4562 28.0938 68.4347 28.1261 68.4122 28.1573C68.3916 28.1858 68.3701 28.2135 68.3478 28.2403C68.3271 28.2653 68.3057 28.2895 68.2835 28.313C68.2626 28.3351 68.2412 28.3565 68.2191 28.3773C68.1982 28.397 68.1767 28.4162 68.1547 28.4347C68.1337 28.4524 68.1122 28.4695 68.0904 28.4861C68.0693 28.5021 68.0478 28.5175 68.026 28.5325C68.0049 28.5469 67.9834 28.5608 67.9616 28.5742C67.9404 28.5872 67.919 28.5997 67.8973 28.6117C67.8761 28.6235 67.8546 28.6348 67.8329 28.6455C67.8117 28.6561 67.7902 28.6662 67.7685 28.6759C67.7473 28.6853 67.7258 28.6943 67.7042 28.7028C67.6829 28.7112 67.6614 28.7191 67.6398 28.7267C67.6185 28.7341 67.5971 28.7411 67.5755 28.7476C67.5541 28.754 67.5327 28.7601 67.5111 28.7657C67.4898 28.7713 67.4683 28.7764 67.4467 28.7811C67.4254 28.7858 67.4039 28.7899 67.3824 28.7938L67.3668 28.7966C67.3542 28.7988 67.3376 28.8012 67.318 28.8037C67.299 28.8061 67.2772 28.8086 67.2536 28.811C67.2333 28.813 67.2116 28.8151 67.1893 28.8169C67.1682 28.8187 67.1465 28.8202 67.1249 28.8216C67.1033 28.823 67.0816 28.8242 67.0605 28.825C67.0382 28.8259 67.0166 28.8265 66.9962 28.8266L66.986 28.8267H66.9318H66.8674H66.8031H66.7387H66.6743H66.61H66.5456H66.4813H66.4169H66.3525H66.2882H66.2238H66.1594H66.0951H66.0307H65.9664H65.902H65.8377H65.7733H65.7089H65.6446H65.5802H65.5158H65.4515H65.3871H65.3227H65.2584H65.194H65.1296H65.0653H65.0009H64.9365H64.8722H64.8078H64.7435H64.6791H64.6147H64.5504H64.486H64.4216H64.3573H64.2929H64.2285H64.1642H64.0998H64.0354H63.9711H63.9067H63.8423H63.778H63.7136H63.6492H63.5849H63.5205H63.4868V25.5796H63.5205H63.5849H63.6492H63.7136H63.778H63.8423H63.9067H63.9711H64.0354H64.0998H64.1642H64.2285H64.2929H64.3573H64.4216H64.486H64.5504H64.6147H64.6791H64.7435H64.8078H64.8722H64.9365H65.0009H65.0653H65.1296H65.194H65.2584H65.3227H65.3871H65.4515H65.5158H65.5802H65.6446H65.7089H65.7733H65.8377H65.902H65.9664H66.0307H66.0951H66.1594H66.2238H66.2882H66.3525H66.4169H66.4813H66.5456H66.61H66.6743H66.7387H66.8031H66.8674H66.9318H66.9962H67.0233L67.0605 25.5808C67.0816 25.5817 67.1033 25.5829 67.1249 25.5843C67.1465 25.5857 67.1682 25.5873 67.1893 25.589C67.2116 25.5908 67.2333 25.5929 67.2536 25.5948C67.2772 25.5971 67.299 25.5994 67.318 25.6016C67.3376 25.6039 67.3542 25.606 67.3668 25.6077L67.3824 25.6106C67.4039 25.6145 67.4254 25.6188 67.4467 25.6235C67.4683 25.6283 67.4898 25.6335 67.5111 25.6391C67.5327 25.6448 67.5541 25.6508 67.5755 25.6573C67.5971 25.6639 67.6185 25.671 67.6398 25.6784C67.6614 25.686 67.6829 25.694 67.7042 25.7024C67.7258 25.711 67.7473 25.7201 67.7685 25.7295C67.7902 25.7392 67.8117 25.7493 67.8329 25.7599C67.8546 25.7707 67.8761 25.782 67.8973 25.7937C67.919 25.8058 67.9404 25.8183 67.9616 25.8314C67.9834 25.8448 68.0049 25.8586 68.026 25.8731C68.0478 25.888 68.0693 25.9036 68.0904 25.9196C68.1122 25.9362 68.1337 25.9533 68.1547 25.971C68.1767 25.9896 68.1982 26.0087 68.2191 26.0285C68.2412 26.0492 68.2626 26.0706 68.2835 26.0927C68.3057 26.1162 68.3271 26.1405 68.3478 26.1654C68.3701 26.1923 68.3916 26.22 68.4122 26.2485C68.4347 26.2797 68.4562 26.3119 68.4766 26.3451C68.4995 26.3826 68.521 26.4214 68.5409 26.4614C68.5647 26.509 68.5862 26.5585 68.6053 26.6095C68.6314 26.6794 68.653 26.7524 68.6697 26.8283V26.8283ZM76.652 9.99072H76.6784L76.6783 43.3396C76.6783 43.5388 76.6691 43.7359 76.652 43.9307C76.6369 44.1021 76.6154 44.2717 76.5876 44.4392C76.5689 44.5517 76.5475 44.6632 76.5232 44.7738C76.5035 44.8637 76.4821 44.953 76.4588 45.0415C76.4387 45.1179 76.4172 45.1938 76.3945 45.269C76.3739 45.3371 76.3527 45.4049 76.3301 45.4721C76.3095 45.5329 76.2879 45.5933 76.2657 45.6535C76.245 45.7094 76.2235 45.765 76.2013 45.8203C76.1805 45.8722 76.1591 45.9238 76.137 45.9751C76.1161 46.0236 76.0946 46.0719 76.0726 46.1199C76.0516 46.1655 76.0302 46.211 76.0082 46.2561C75.9872 46.2993 75.9658 46.3424 75.9438 46.385C75.9228 46.426 75.9013 46.4667 75.8795 46.5071C75.8585 46.546 75.8369 46.5845 75.8151 46.6229C75.794 46.6601 75.7725 46.697 75.7507 46.7337C75.7296 46.7695 75.7081 46.805 75.6863 46.8403C75.6651 46.8747 75.6438 46.909 75.6219 46.943C75.6008 46.9759 75.5792 47.0085 75.5575 47.0409C75.5364 47.0725 75.5148 47.1038 75.4932 47.1351C75.4719 47.1658 75.4505 47.1963 75.4288 47.2266C75.4075 47.2562 75.3861 47.2856 75.3644 47.3149C75.3433 47.3434 75.3216 47.3715 75.3 47.3996C75.2787 47.4273 75.2573 47.4549 75.2357 47.4823C75.2144 47.5091 75.193 47.5357 75.1713 47.5622C75.15 47.5881 75.1285 47.6137 75.1069 47.6393C75.0855 47.6646 75.0643 47.69 75.0425 47.715C75.0213 47.7393 74.9997 47.7634 74.9782 47.7875C74.9569 47.8113 74.9354 47.8349 74.9138 47.8584C74.8924 47.8815 74.8711 47.9046 74.8494 47.9275C74.8282 47.9499 74.8066 47.9719 74.785 47.9941C74.7636 48.016 74.7423 48.0381 74.7206 48.0598C74.6994 48.081 74.6778 48.1017 74.6563 48.1227C74.6349 48.1434 74.6135 48.1642 74.5919 48.1847C74.5706 48.2048 74.5491 48.2247 74.5275 48.2446C74.5062 48.2643 74.4847 48.2838 74.4631 48.3032C74.4418 48.3224 74.4204 48.3414 74.3988 48.3603C74.3774 48.379 74.3559 48.3974 74.3344 48.4158C74.313 48.4341 74.2916 48.4523 74.27 48.4703C74.2487 48.488 74.2272 48.5054 74.2056 48.5229C74.1842 48.5402 74.1629 48.5576 74.1413 48.5747C74.12 48.5915 74.0984 48.608 74.0769 48.6246C74.0555 48.6411 74.0341 48.6577 74.0125 48.6739C73.9912 48.6899 73.9696 48.7056 73.9481 48.7214C73.9267 48.7371 73.9053 48.753 73.8837 48.7684C73.8624 48.7837 73.8409 48.7985 73.8194 48.8135C73.7979 48.8285 73.7766 48.8435 73.755 48.8582C73.7336 48.8727 73.7121 48.8868 73.6906 48.9011C73.6692 48.9153 73.6478 48.9296 73.6262 48.9435C73.6049 48.9574 73.5834 48.9709 73.5619 48.9845C73.5405 48.998 73.519 49.0115 73.4975 49.0247C73.4761 49.0378 73.4547 49.0508 73.4331 49.0637L73.3687 49.1018C73.3473 49.1143 73.3259 49.1268 73.3044 49.139C73.283 49.1512 73.2615 49.1631 73.24 49.1751C73.2185 49.187 73.1972 49.199 73.1756 49.2106C73.1543 49.2221 73.1327 49.2333 73.1112 49.2446C73.0897 49.2559 73.0684 49.2675 73.0468 49.2786C73.0255 49.2895 73.0039 49.2999 72.9825 49.3106C72.961 49.3214 72.9397 49.3321 72.9181 49.3426C72.8967 49.3529 72.8752 49.3631 72.8537 49.3732L72.7893 49.4033L72.725 49.4325C72.7036 49.442 72.6821 49.4513 72.6606 49.4607C72.6391 49.47 72.6178 49.4795 72.5962 49.4886C72.5749 49.4976 72.5533 49.5061 72.5318 49.5149C72.5104 49.5236 72.489 49.5327 72.4675 49.5412C72.4461 49.5497 72.4246 49.5577 72.4031 49.566C72.3817 49.5742 72.3603 49.5824 72.3387 49.5904L72.2743 49.6142C72.2529 49.6219 72.2314 49.6294 72.2099 49.6369C72.1885 49.6444 72.1672 49.6522 72.1456 49.6595C72.1242 49.6667 72.1026 49.6734 72.0812 49.6804L72.0168 49.7013C71.9954 49.708 71.9739 49.7145 71.9524 49.7211L71.8881 49.7403C71.8666 49.7466 71.8452 49.753 71.8237 49.7591C71.8023 49.7651 71.7808 49.7707 71.7593 49.7765C71.7379 49.7824 71.7165 49.7883 71.6949 49.7939L71.6306 49.8102L71.5662 49.8259L71.5018 49.8412C71.4804 49.8461 71.4589 49.8505 71.4374 49.8552C71.416 49.8599 71.3946 49.8648 71.373 49.8693L71.3087 49.8821L71.2443 49.8945C71.2228 49.8985 71.2014 49.9028 71.1799 49.9066C71.1585 49.9104 71.137 49.9137 71.1155 49.9172L71.0512 49.9279L70.9868 49.9376L70.9224 49.9466C70.9009 49.9495 70.8796 49.9528 70.858 49.9556C70.8366 49.9583 70.8151 49.9605 70.7937 49.963C70.7722 49.9655 70.7508 49.968 70.7293 49.9703C70.7078 49.9726 70.6864 49.975 70.6649 49.9771C70.6435 49.9791 70.622 49.9809 70.6005 49.9828C70.579 49.9846 70.5576 49.9868 70.5361 49.9885C70.5147 49.9901 70.4932 49.9915 70.4718 49.993L70.4074 49.997C70.3859 49.9983 70.3645 49.9998 70.343 50.0009C70.3216 50.002 70.3001 50.0025 70.2786 50.0034L70.2143 50.0058L70.1499 50.0075C70.1285 50.0079 70.107 50.008 70.0855 50.0083L70.0211 50.0091L70.0079 50.0093H69.9568H69.8924H69.828H69.7636H69.6992H69.6349H69.5705H69.5061H69.4417H69.3774H69.313H69.2486H69.1842H69.1199H69.0555H68.9911H68.9267H68.8623H68.798H68.7336H68.6692H68.6048H68.5405H68.4761H68.4117H68.3473H68.283H68.2186H68.1542H68.0898H68.0254H67.9611H67.8967H67.8323H67.7679H67.7036H67.6392H67.5748H67.5104H67.4461H67.3817H67.3173H67.2529H67.1885H67.1242H67.0598H66.9954H66.931H66.8667H66.8023H66.7379H66.6735H66.6092H66.5448H66.4804H66.416H66.3516H66.2873H66.2229H66.1585H66.0941H66.0298H65.9654H65.901H65.8366H65.7723H65.7079H65.6435H65.5791H65.5147H65.4504H65.386H65.3216H65.2572H65.1929H65.1285H65.0641H64.9997H64.9354H64.871H64.8066H64.7422H64.6778H64.6135H64.5491H64.4847H64.4203H64.356H64.2916H64.2272H64.1628H64.0985H64.0341H63.9697H63.9053H63.8409H63.7766H63.7122H63.6478H63.5834H63.5191H63.4547H63.3903H63.3259H63.2616H63.1972H63.1328H63.0684H63.004H62.9397H62.8753H62.8109H62.7465H62.6822H62.6178H62.5534H62.489H62.4247H62.3603H62.2959H62.2315H62.1671H62.1028H62.0384H61.974H61.9096H61.8453H61.7809H61.7165H61.6521H61.5878H61.5234H61.459H61.3946H61.3302H61.2659H61.2015H61.1371H61.0727H61.0084H60.944H60.8796H60.8152H60.7509H60.6865H60.6221H60.5577H60.4933H60.429H60.3646H60.2257V36.4118H60.3646H60.429H60.4933H60.5577H60.6221H60.6865H60.7509H60.8152H60.8796H60.944H61.0084H61.0727H61.1371H61.2015H61.2659H61.3302H61.3946H61.459H61.5234H61.5878H61.6521H61.7165H61.7809H61.8453H61.9096H61.974H62.0384H62.1028H62.1671H62.2315H62.2959H62.3603H62.4247H62.489H62.5534H62.6178H62.6822H62.7465H62.8109H62.8753H62.9397H63.004H63.0684H63.1328H63.1972H63.2616H63.3259H63.3903H63.4547H63.5191H63.5834H63.6478H63.7122H63.7766H63.8409H63.9053H63.9697H64.0341H64.0985H64.1628H64.2272H64.2916H64.356H64.4203H64.4847H64.5491H64.6135H64.6778H64.7422H64.8066H64.871H64.9354H64.9997H65.0641H65.1285H65.1929H65.2572H65.3216H65.386H65.4504H65.5147H65.5791H65.6435H65.7079H65.7723H65.8366H65.901H65.9654H66.0298H66.0941H66.1585H66.2229H66.2873H66.3516H66.416H66.4804H66.5448H66.6092H66.6735H66.7379H66.8023H66.8667H66.931H66.9954H67.0598H67.1242H67.1885H67.2529H67.3173H67.3817H67.4461H67.5104H67.5748H67.6392H67.7036H67.7679H67.8323H67.8967H67.9611H68.0254H68.0898H68.1542H68.2186H68.283H68.3473H68.4117H68.4761H68.5405H68.6048H68.6692H68.7336H68.798H68.8623H68.9267H68.9911H69.0555H69.1199H69.1842H69.2486H69.313H69.3774H69.4417H69.5061H69.5705H69.6349H69.6992H69.7636H69.828H69.8924H69.9568H70.0211H70.0855H70.1499H70.2143H70.2786H70.343H70.4074H70.4718H70.5361H70.5703L70.6005 36.4115L70.6649 36.411L70.7293 36.4097C70.7508 36.4091 70.7723 36.4088 70.7937 36.4081C70.8152 36.4073 70.8366 36.4063 70.858 36.4053L70.9224 36.4024L70.9868 36.3985L71.0512 36.394L71.1155 36.389L71.1799 36.3831C71.2014 36.3811 71.2229 36.3791 71.2443 36.3769C71.2658 36.3746 71.2872 36.3721 71.3087 36.3695L71.373 36.3617C71.3946 36.3589 71.416 36.3563 71.4374 36.3533C71.459 36.3503 71.4804 36.347 71.5018 36.3438C71.5233 36.3405 71.5448 36.3373 71.5662 36.3338L71.6306 36.323L71.6949 36.3114C71.7164 36.3074 71.738 36.3035 71.7593 36.2993C71.7809 36.2951 71.8023 36.2905 71.8237 36.286L71.8881 36.2721C71.9096 36.2673 71.9311 36.2625 71.9524 36.2574C71.974 36.2524 71.9954 36.247 72.0168 36.2416C72.0383 36.2363 72.0598 36.2309 72.0812 36.2253C72.1027 36.2196 72.1242 36.2139 72.1456 36.208C72.1671 36.2021 72.1885 36.1959 72.2099 36.1896C72.2315 36.1834 72.253 36.177 72.2743 36.1705L72.3387 36.1504C72.3603 36.1435 72.3817 36.1363 72.4031 36.1291C72.4246 36.1219 72.4461 36.1146 72.4675 36.1071C72.489 36.0995 72.5105 36.0919 72.5318 36.0841C72.5535 36.0761 72.5748 36.0678 72.5962 36.0596C72.6178 36.0513 72.6392 36.0428 72.6606 36.0343C72.6821 36.0256 72.7037 36.0169 72.725 36.0079C72.7466 35.9989 72.768 35.9896 72.7893 35.9802C72.8109 35.9707 72.8324 35.961 72.8537 35.9512C72.8753 35.9413 72.8968 35.9313 72.9181 35.9211C72.9396 35.9108 72.9612 35.9004 72.9825 35.8898C73.0041 35.8789 73.0255 35.8679 73.0468 35.8568C73.0684 35.8455 73.0899 35.834 73.1112 35.8223C73.1329 35.8105 73.1543 35.7986 73.1756 35.7865C73.1972 35.7742 73.2187 35.7618 73.24 35.7492C73.2616 35.7364 73.2832 35.7235 73.3044 35.7103C73.326 35.6968 73.3474 35.6831 73.3687 35.6693C73.3905 35.6552 73.4118 35.6409 73.4331 35.6264C73.4548 35.6118 73.4762 35.5968 73.4975 35.5817C73.5192 35.5663 73.5406 35.5507 73.5619 35.5349C73.5836 35.5188 73.6051 35.5025 73.6262 35.486C73.6479 35.469 73.6695 35.4519 73.6906 35.4346C73.7124 35.4168 73.7338 35.3988 73.755 35.3806C73.7768 35.362 73.7982 35.343 73.8194 35.3238C73.8412 35.3041 73.8626 35.2841 73.8837 35.2639C73.9056 35.2431 73.927 35.2221 73.9481 35.2007C73.97 35.1786 73.9914 35.1563 74.0125 35.1337C74.0344 35.1103 74.0558 35.0866 74.0769 35.0626C74.0988 35.0377 74.1203 35.0125 74.1413 34.9869C74.1632 34.9603 74.1847 34.9333 74.2056 34.9061C74.2276 34.8775 74.2492 34.8487 74.27 34.8194C74.2922 34.7883 74.3135 34.7567 74.3344 34.7248C74.3565 34.6909 74.378 34.6567 74.3988 34.622C74.4211 34.5847 74.4425 34.5469 74.4631 34.5086C74.4855 34.4669 74.5072 34.4248 74.5275 34.3819C74.5503 34.334 74.5717 34.2854 74.5919 34.2361C74.615 34.1795 74.6366 34.1222 74.6563 34.0639C74.6805 33.9919 74.7019 33.9186 74.7206 33.8439C74.7481 33.7348 74.7697 33.6228 74.785 33.5081C74.8037 33.3689 74.8135 33.2258 74.8135 33.0788C74.8135 32.9357 74.8038 32.7966 74.785 32.6616C74.7696 32.5507 74.7481 32.4425 74.7206 32.3372C74.7019 32.2655 74.6804 32.1951 74.6563 32.126C74.6365 32.0694 74.6151 32.0136 74.5919 31.9589C74.5718 31.9114 74.5503 31.8647 74.5275 31.8187C74.5071 31.7773 74.4856 31.7365 74.4631 31.6963C74.4425 31.6592 74.4211 31.6226 74.3988 31.5866C74.3781 31.5532 74.3565 31.5202 74.3344 31.4876C74.3135 31.4569 74.2921 31.4264 74.27 31.3965C74.2492 31.3682 74.2276 31.3404 74.2056 31.3128C74.1847 31.2865 74.1632 31.2605 74.1413 31.2348C74.1202 31.2101 74.0988 31.1857 74.0769 31.1616C74.0558 31.1385 74.0344 31.1156 74.0125 31.093C73.9915 31.0712 73.97 31.0498 73.9481 31.0286C73.927 31.008 73.9055 30.9876 73.8837 30.9676C73.8626 30.9481 73.8411 30.9289 73.8194 30.9099C73.7982 30.8914 73.7768 30.8731 73.755 30.855C73.7338 30.8374 73.7124 30.82 73.6906 30.8029C73.6694 30.7861 73.6479 30.7695 73.6262 30.7532C73.605 30.7372 73.5835 30.7214 73.5619 30.7058C73.5406 30.6905 73.5191 30.6754 73.4975 30.6606C73.4762 30.646 73.4548 30.6315 73.4331 30.6173C73.4118 30.6033 73.3904 30.5895 73.3687 30.5759C73.3474 30.5625 73.326 30.5493 73.3044 30.5363C73.2832 30.5235 73.2616 30.5109 73.24 30.4985C73.2187 30.4863 73.1972 30.4742 73.1756 30.4623C73.1543 30.4506 73.1329 30.4391 73.1112 30.4277C73.0899 30.4165 73.0684 30.4054 73.0468 30.3944C73.0255 30.3836 73.0041 30.3729 72.9825 30.3623C72.9611 30.352 72.9397 30.3417 72.9181 30.3316C72.8968 30.3217 72.8753 30.312 72.8537 30.3024C72.8324 30.2929 72.8109 30.2836 72.7893 30.2744C72.768 30.2652 72.7465 30.2563 72.725 30.2474C72.7036 30.2387 72.6822 30.2299 72.6606 30.2214C72.6392 30.2131 72.6178 30.2048 72.5962 30.1967C72.5749 30.1887 72.5534 30.1809 72.5318 30.1731C72.5105 30.1655 72.489 30.158 72.4675 30.1505C72.4461 30.1432 72.4247 30.1359 72.4031 30.1287C72.3817 30.1217 72.3603 30.1148 72.3387 30.108C72.3174 30.1013 72.2958 30.0948 72.2743 30.0883L72.2099 30.0694C72.1885 30.0633 72.1671 30.0571 72.1456 30.0513C72.1242 30.0455 72.1027 30.0399 72.0812 30.0343C72.0598 30.0288 72.0384 30.0234 72.0168 30.0181C71.9954 30.0128 71.974 30.0076 71.9524 30.0026C71.9311 29.9975 71.9096 29.9927 71.8881 29.9879C71.8667 29.9832 71.8452 29.9787 71.8237 29.9742C71.8023 29.9697 71.7809 29.9652 71.7593 29.961L71.6949 29.9487L71.6306 29.9372C71.6092 29.9335 71.5877 29.9297 71.5662 29.9263L71.5018 29.9161C71.4804 29.9129 71.4589 29.9098 71.4374 29.9068L71.373 29.898L71.3087 29.8899L71.2443 29.8827L71.1799 29.8759L71.1155 29.8699L71.0512 29.8645L70.9917 29.8599L70.9917 29.7828L71.0512 29.7736L71.1155 29.7629C71.1371 29.7593 71.1586 29.7556 71.1799 29.7517L71.2443 29.7393C71.2659 29.735 71.2873 29.7306 71.3087 29.7261L71.373 29.712C71.3946 29.7072 71.4161 29.7023 71.4374 29.6972C71.459 29.6919 71.4804 29.6865 71.5018 29.681C71.5234 29.6755 71.5448 29.6698 71.5662 29.664C71.5877 29.6581 71.6092 29.6522 71.6306 29.646C71.6521 29.6398 71.6736 29.6336 71.6949 29.6271C71.7165 29.6206 71.738 29.6139 71.7593 29.6071C71.7809 29.6001 71.8023 29.593 71.8237 29.5858C71.8453 29.5785 71.8667 29.571 71.8881 29.5634C71.9097 29.5557 71.9311 29.5479 71.9524 29.5399C71.974 29.5318 71.9955 29.5236 72.0168 29.5152C72.0384 29.5067 72.0599 29.498 72.0812 29.4892C72.1028 29.4803 72.1243 29.4712 72.1456 29.4619C72.1672 29.4525 72.1886 29.4429 72.2099 29.4331C72.2316 29.4232 72.253 29.4131 72.2743 29.4028C72.296 29.3924 72.3174 29.3818 72.3387 29.3711C72.3603 29.3602 72.3818 29.3491 72.4031 29.3378C72.4247 29.3263 72.4463 29.3146 72.4675 29.3028C72.4891 29.2908 72.5106 29.2786 72.5318 29.2662C72.5535 29.2535 72.575 29.2407 72.5962 29.2277C72.618 29.2144 72.6393 29.2009 72.6606 29.1873C72.6823 29.1734 72.7038 29.1591 72.725 29.1448C72.7467 29.1301 72.7682 29.1152 72.7893 29.1001C72.8111 29.0846 72.8326 29.069 72.8537 29.0531C72.8755 29.0369 72.897 29.0204 72.9181 29.0037C72.9399 28.9865 72.9614 28.9693 72.9825 28.9517C73.0043 28.9335 73.0257 28.9151 73.0468 28.8965C73.0687 28.8773 73.0901 28.8578 73.1112 28.8381C73.1331 28.8178 73.1546 28.7972 73.1756 28.7764C73.1975 28.7548 73.219 28.7331 73.24 28.711C73.2619 28.688 73.2834 28.6647 73.3044 28.6411C73.3263 28.6166 73.3478 28.5917 73.3687 28.5665C73.3907 28.5402 73.4122 28.5135 73.4331 28.4866C73.4552 28.4582 73.4766 28.4293 73.4975 28.4002C73.5196 28.3693 73.5411 28.3381 73.5619 28.3065C73.5841 28.2727 73.6056 28.2387 73.6262 28.2042C73.6486 28.1668 73.6701 28.129 73.6906 28.0907C73.7132 28.0486 73.7347 28.006 73.755 27.963C73.7779 27.9145 73.7993 27.8654 73.8194 27.8157C73.8428 27.7579 73.8642 27.6993 73.8837 27.6399C73.9083 27.5652 73.9298 27.4894 73.9481 27.4125C73.9779 27.2879 73.9993 27.1606 74.0125 27.0312C74.023 26.9291 74.0284 26.8256 74.0284 26.721C74.0284 26.6106 74.0229 26.503 74.0125 26.3981C73.9992 26.2639 73.9776 26.1344 73.9481 26.0093C73.9297 25.9312 73.9082 25.8548 73.8837 25.7804C73.8642 25.7208 73.8427 25.6623 73.8194 25.605C73.7993 25.5557 73.7778 25.5072 73.755 25.4596C73.7346 25.4171 73.7131 25.3753 73.6906 25.3342C73.67 25.2966 73.6485 25.2596 73.6262 25.2231C73.6055 25.1892 73.5841 25.1558 73.5619 25.123C73.5411 25.0922 73.5196 25.0619 73.4975 25.032C73.4766 25.0037 73.4552 24.9758 73.4331 24.9483C73.4121 24.9221 73.3908 24.8961 73.3687 24.8705C73.3478 24.8462 73.3263 24.8224 73.3044 24.7988C73.2834 24.776 73.2619 24.7536 73.24 24.7315C73.2189 24.7101 73.1975 24.6891 73.1756 24.6684C73.1545 24.6482 73.1331 24.6283 73.1112 24.6088C73.0901 24.5899 73.0686 24.5711 73.0468 24.5527C73.0257 24.5347 73.0043 24.517 72.9825 24.4996C72.9613 24.4826 72.9399 24.4658 72.9181 24.4493C72.8969 24.4332 72.8755 24.4174 72.8537 24.4017C72.8325 24.3864 72.8111 24.3714 72.7893 24.3565C72.7681 24.342 72.7467 24.3277 72.725 24.3135C72.7038 24.2997 72.6822 24.286 72.6606 24.2726C72.6393 24.2594 72.6178 24.2464 72.5962 24.2336C72.5749 24.221 72.5535 24.2086 72.5318 24.1964C72.5106 24.1844 72.4891 24.1726 72.4675 24.1609C72.4462 24.1495 72.4247 24.1383 72.4031 24.1271C72.3818 24.1162 72.3603 24.1054 72.3387 24.0948C72.3174 24.0843 72.296 24.0739 72.2743 24.0638C72.253 24.0538 72.2315 24.044 72.2099 24.0344C72.1886 24.0249 72.1672 24.0157 72.1456 24.0065C72.1243 23.9974 72.1027 23.9885 72.0812 23.9797C72.0599 23.971 72.0384 23.9625 72.0168 23.9541C71.9955 23.9459 71.974 23.9376 71.9524 23.9296C71.9311 23.9217 71.9097 23.914 71.8881 23.9064C71.8667 23.8988 71.8453 23.8915 71.8237 23.8843C71.8023 23.8771 71.7809 23.8701 71.7593 23.8633C71.738 23.8564 71.7165 23.8497 71.6949 23.8431C71.6735 23.8366 71.6522 23.8301 71.6306 23.8239C71.6092 23.8177 71.5877 23.8118 71.5662 23.806C71.5448 23.8001 71.5234 23.7944 71.5018 23.7888L71.4374 23.7724C71.416 23.7672 71.3946 23.762 71.373 23.757C71.3517 23.752 71.3302 23.7472 71.3087 23.7425L71.2443 23.7288C71.2229 23.7244 71.2015 23.7199 71.1799 23.7157C71.1586 23.7116 71.137 23.7077 71.1155 23.7038L71.0512 23.6925C71.0298 23.6888 71.0084 23.6852 70.9868 23.6817L70.9224 23.672L70.858 23.6629L70.7937 23.6544L70.7293 23.6467L70.6649 23.6398L70.6005 23.6333L70.5361 23.6277L70.4718 23.6227L70.4074 23.6181L70.343 23.6145L70.3175 23.613L70.2786 23.6106L70.2143 23.6068L70.1499 23.6033L70.0855 23.5999L70.0211 23.5968L69.9568 23.594L69.8924 23.5917L69.828 23.5897L69.7636 23.5883L69.6992 23.5874L69.6638 23.5873H69.6349H69.5705H69.5061H69.4417H69.3774H69.313H69.2486H69.1842H69.1199H69.0555H68.9911H68.9267H68.8623H68.798H68.7336H68.6692H68.6048H68.5405H68.4761H68.4117H68.3473H68.283H68.2186H68.1542H68.0898H68.0254H67.9611H67.8967H67.8323H67.7679H67.7036H67.6392H67.5748H67.5104H67.4461H67.3817H67.3173H67.2529H67.1885H67.1242H67.0598H66.9954H66.931H66.8667H66.8023H66.7379H66.6735H66.6092H66.5448H66.4804H66.416H66.3516H66.2873H66.2229H66.1585H66.0941H66.0298H65.9654H65.901H65.8366H65.7723H65.7079H65.6435H65.5791H65.5147H65.4504H65.386H65.3216H65.2572H65.1929H65.1285H65.0641H64.9997H64.9354H64.871H64.8066H64.7422H64.6778H64.6135H64.5491H64.4847H64.4203H64.356H64.2916H64.2272H64.1628H64.0985H64.0341H63.9697H63.9053H63.8409H63.7766H63.7122H63.6478H63.5834H63.5191H63.4547H63.3903H63.3259H63.2616H63.1972H63.1328H63.0684H63.004H62.9397H62.8753H62.8109H62.7465H62.6822H62.6178H62.5534H62.489H62.4247H62.3603H62.2959H62.2315H62.1671H62.1028H62.0384H61.974H61.9096H61.8453H61.7809H61.7165H61.6521H61.5878H61.5234H61.459H61.3946H61.3302H61.2659H61.2015H61.1371H61.0727H61.0084H60.944H60.8796H60.8152H60.7509H60.6865H60.6221H60.5577H60.4933H60.429H60.3646H60.2257V16.661C60.2257 16.1951 60.2737 15.7404 60.3646 15.3014C60.3841 15.2073 60.4056 15.1141 60.429 15.0217C60.449 14.9425 60.4706 14.864 60.4933 14.786C60.5137 14.7164 60.5352 14.6473 60.5577 14.5786C60.5783 14.5158 60.5997 14.4534 60.6221 14.3915C60.6429 14.3341 60.6642 14.277 60.6865 14.2203C60.7074 14.1674 60.7288 14.1148 60.7509 14.0625C60.7718 14.0132 60.7932 13.9641 60.8152 13.9154C60.8362 13.8692 60.8577 13.8232 60.8796 13.7775C60.9006 13.7339 60.9221 13.6907 60.944 13.6476C60.965 13.6062 60.9866 13.5651 61.0084 13.5242C61.0294 13.4848 61.0509 13.4456 61.0727 13.4067C61.0939 13.3689 61.1153 13.3314 61.1371 13.2941C61.1583 13.258 61.1797 13.2219 61.2015 13.1862C61.2227 13.1516 61.2441 13.1173 61.2659 13.0831C61.287 13.0499 61.3086 13.0171 61.3302 12.9844C61.3515 12.9524 61.3729 12.9205 61.3946 12.8888C61.4159 12.8578 61.4372 12.8268 61.459 12.7962C61.4802 12.7665 61.5018 12.7372 61.5234 12.708C61.5446 12.6791 61.5661 12.6505 61.5878 12.6221C61.6091 12.5941 61.6304 12.566 61.6521 12.5383C61.6733 12.5114 61.695 12.485 61.7165 12.4584C61.7378 12.4322 61.7592 12.4062 61.7809 12.3804C61.8022 12.3549 61.8236 12.3294 61.8453 12.3042C61.8665 12.2797 61.8881 12.2555 61.9096 12.2313C61.931 12.2073 61.9523 12.1832 61.974 12.1596C61.9953 12.1363 62.0168 12.1134 62.0384 12.0904C62.0597 12.0678 62.0812 12.0453 62.1028 12.023C62.1241 12.0009 62.1455 11.9789 62.1671 11.9571C62.1884 11.9357 62.21 11.9147 62.2315 11.8936C62.2529 11.8726 62.2742 11.8514 62.2959 11.8308C62.3171 11.8106 62.3388 11.7908 62.3603 11.7709C62.3817 11.751 62.403 11.7311 62.4247 11.7115C62.446 11.6923 62.4675 11.6734 62.489 11.6544C62.5104 11.6356 62.5318 11.6168 62.5534 11.5982C62.5748 11.5799 62.5962 11.5619 62.6178 11.5438C62.6392 11.5259 62.6606 11.5081 62.6822 11.4905C62.7035 11.4731 62.725 11.4558 62.7465 11.4387L62.8109 11.3881L62.8753 11.3388C62.8967 11.3226 62.9181 11.3065 62.9397 11.2906C62.961 11.2749 62.9825 11.2592 63.004 11.2437L63.0684 11.198C63.0898 11.183 63.1112 11.1681 63.1328 11.1534L63.1972 11.1098L63.2616 11.0674C63.283 11.0534 63.3044 11.0396 63.3259 11.0259L63.3903 10.9857C63.4118 10.9724 63.4331 10.9591 63.4547 10.9461C63.476 10.9332 63.4976 10.9206 63.5191 10.908C63.5405 10.8953 63.5618 10.8826 63.5834 10.8702C63.6047 10.858 63.6264 10.8462 63.6478 10.8342C63.6693 10.8222 63.6906 10.81 63.7122 10.7982C63.7335 10.7866 63.7551 10.7754 63.7766 10.7641C63.798 10.7527 63.8194 10.7413 63.8409 10.7301C63.8623 10.7191 63.8838 10.7084 63.9053 10.6976C63.9267 10.6869 63.9482 10.6761 63.9697 10.6656L64.0341 10.6345C64.0555 10.6243 64.077 10.6144 64.0985 10.6044C64.1199 10.5945 64.1413 10.5844 64.1628 10.5747C64.1842 10.5651 64.2058 10.5559 64.2272 10.5465C64.2487 10.5371 64.27 10.5275 64.2916 10.5184C64.3129 10.5093 64.3345 10.5007 64.356 10.4918C64.3774 10.483 64.3988 10.4741 64.4203 10.4655L64.4847 10.4401L64.5491 10.4157C64.5706 10.4075 64.5919 10.3993 64.6135 10.3915C64.6348 10.3837 64.6564 10.3764 64.6778 10.3688C64.6993 10.3612 64.7207 10.3535 64.7422 10.3461C64.7636 10.3388 64.7851 10.3319 64.8066 10.3248L64.871 10.304C64.8924 10.2971 64.9138 10.2903 64.9354 10.2836C64.9567 10.2771 64.9783 10.2709 64.9997 10.2645C65.0212 10.2581 65.0426 10.2515 65.0641 10.2454C65.0855 10.2393 65.107 10.2337 65.1285 10.2278C65.1499 10.2219 65.1713 10.216 65.1929 10.2103L65.2572 10.1937C65.2786 10.1883 65.3001 10.1832 65.3216 10.178C65.3431 10.1728 65.3644 10.1673 65.386 10.1623C65.4073 10.1574 65.4289 10.1529 65.4504 10.1482L65.5147 10.1341L65.5791 10.1209C65.6005 10.1166 65.622 10.1126 65.6435 10.1085C65.665 10.1044 65.6863 10.1001 65.7079 10.0962C65.7293 10.0923 65.7508 10.089 65.7723 10.0853L65.8366 10.0747C65.8581 10.0712 65.8795 10.0677 65.901 10.0645C65.9224 10.0613 65.9439 10.0585 65.9654 10.0555C65.9869 10.0525 66.0082 10.0493 66.0298 10.0465C66.0512 10.0437 66.0727 10.0413 66.0941 10.0387L66.1585 10.0313C66.18 10.029 66.2014 10.0264 66.2229 10.0242C66.2443 10.0221 66.2658 10.0204 66.2873 10.0185L66.3516 10.0128L66.416 10.008C66.4374 10.0064 66.4589 10.0052 66.4804 10.0038C66.5018 10.0026 66.5232 10.0009 66.5448 9.99979C66.5662 9.99867 66.5877 9.99803 66.6092 9.99713L66.6735 9.99472C66.695 9.99403 66.7164 9.99312 66.7379 9.99264C66.7593 9.99216 66.7808 9.99211 66.8023 9.99179C66.8237 9.99147 66.8452 9.9911 66.8667 9.99099L66.8829 9.99078H66.931H66.9954H67.0598H67.1242H67.1885H67.2529H67.3173H67.3817H67.4461H67.5104H67.5748H67.6392H67.7036H67.7679H67.8323H67.8967H67.9611H68.0254H68.0898H68.1542H68.2186H68.283H68.3473H68.4117H68.4761H68.5405H68.6048H68.6692H68.7336H68.798H68.8623H68.9267H68.9911H69.0555H69.1199H69.1842H69.2486H69.313H69.3774H69.4417H69.5061H69.5705H69.6349H69.6992H69.7636H69.828H69.8924H69.9568H70.0211H70.0855H70.1499H70.2143H70.2786H70.343H70.4074H70.4718H70.5361H70.6005H70.6649H70.7293H70.7937H70.858H70.9224H70.9868H71.0512H71.1155H71.1799H71.2443H71.3087H71.373H71.4374H71.5018H71.5662H71.6306H71.6949H71.7593H71.8237H71.8881H71.9524H72.0168H72.0812H72.1456H72.2099H72.2743H72.3387H72.4031H72.4675H72.5318H72.5962H72.6606H72.725H72.7893H72.8537H72.9181H72.9825H73.0468H73.1112H73.1756H73.24H73.3044H73.3687H73.4331H73.4975H73.5619H73.6262H73.6906H73.755H73.8194H73.8837H73.9481H74.0125H74.0769H74.1413H74.2056H74.27H74.3344H74.3988H74.4631H74.5275H74.5919H74.6563H74.7206H74.785H74.8494H74.9138H74.9782H75.0425H75.1069H75.1713H75.2357H75.3H75.3644H75.4288H75.4932H75.5575H75.6219H75.6863H75.7507H75.8151H75.8795H75.9438H76.0082H76.0726H76.137H76.2013H76.2657H76.3301H76.3945H76.4588H76.5232H76.5876H76.652V9.99072V9.99072Z" fill="#54B230"/>
<path fill-rule="evenodd" clip-rule="evenodd" d="M23.3217 33.1332V16.661C23.3217 16.1964 23.3692 15.7428 23.4597 15.305C23.4791 15.211 23.5007 15.1178 23.524 15.0253C23.5439 14.946 23.5654 14.8675 23.5882 14.7894C23.6086 14.7198 23.63 14.6508 23.6525 14.5822C23.6731 14.5194 23.6944 14.4568 23.7168 14.3948C23.7375 14.3375 23.7588 14.2804 23.781 14.2238C23.8018 14.1709 23.8232 14.1181 23.8453 14.0658C23.8662 14.0165 23.8876 13.9675 23.9095 13.9189C23.9305 13.8726 23.9519 13.8267 23.9738 13.7811C23.9947 13.7374 24.0163 13.6941 24.0381 13.651C24.059 13.6096 24.0805 13.5685 24.1023 13.5276C24.1233 13.4882 24.1448 13.449 24.1666 13.4101C24.1876 13.3724 24.209 13.3348 24.2309 13.2976C24.252 13.2614 24.2733 13.2254 24.2951 13.1896C24.3162 13.155 24.3377 13.1207 24.3594 13.0866C24.3804 13.0535 24.402 13.0206 24.4236 12.9879C24.4448 12.9559 24.4662 12.924 24.4879 12.8924C24.5092 12.8613 24.5303 12.8303 24.5522 12.7996C24.5732 12.77 24.5949 12.7408 24.6164 12.7115C24.6376 12.6827 24.659 12.6541 24.6807 12.6256C24.702 12.5977 24.7232 12.5695 24.7449 12.5419C24.7661 12.515 24.7877 12.4886 24.8092 12.4621C24.8304 12.4359 24.8518 12.4098 24.8735 12.3839C24.8948 12.3585 24.9161 12.3331 24.9377 12.3079C24.9589 12.2833 24.9805 12.2592 25.002 12.2349C25.0233 12.2108 25.0446 12.1868 25.0663 12.1631C25.0874 12.1399 25.109 12.117 25.1305 12.0941C25.1518 12.0715 25.1732 12.049 25.1948 12.0266C25.2161 12.0046 25.2374 11.9826 25.259 11.9608C25.2803 11.9394 25.3018 11.9183 25.3233 11.8973C25.3447 11.8763 25.3659 11.8552 25.3876 11.8345C25.4088 11.8143 25.4304 11.7945 25.4518 11.7746C25.4732 11.7547 25.4944 11.7347 25.5161 11.7152C25.5373 11.6959 25.5589 11.6771 25.5803 11.6582C25.6017 11.6393 25.623 11.6204 25.6446 11.6019C25.6659 11.5836 25.6874 11.5656 25.7089 11.5476C25.7302 11.5297 25.7516 11.5118 25.7731 11.4942C25.7944 11.4768 25.8159 11.4596 25.8374 11.4424C25.8588 11.4254 25.8801 11.4085 25.9017 11.3918C25.923 11.3752 25.9445 11.3588 25.966 11.3425C25.9873 11.3263 26.0087 11.3102 26.0302 11.2943L26.0944 11.2474C26.1158 11.232 26.1372 11.2167 26.1587 11.2015C26.18 11.1865 26.2015 11.1717 26.223 11.157C26.2443 11.1423 26.2657 11.1278 26.2872 11.1133C26.3086 11.0991 26.33 11.0851 26.3515 11.071C26.3729 11.0571 26.3942 11.0431 26.4158 11.0294C26.437 11.0158 26.4585 11.0026 26.48 10.9892C26.5014 10.976 26.5227 10.9625 26.5443 10.9495C26.5655 10.9366 26.5871 10.9241 26.6085 10.9115C26.63 10.8989 26.6512 10.886 26.6728 10.8736C26.6941 10.8613 26.7157 10.8497 26.7371 10.8377C26.7585 10.8256 26.7798 10.8135 26.8014 10.8017C26.8227 10.7901 26.8442 10.7789 26.8656 10.7675C26.887 10.7561 26.9083 10.7447 26.9298 10.7336C26.9512 10.7225 26.9726 10.7117 26.9941 10.7008L27.0584 10.6689C27.0798 10.6584 27.1012 10.6479 27.1227 10.6377C27.144 10.6275 27.1655 10.6176 27.1869 10.6076C27.2084 10.5977 27.2296 10.5875 27.2512 10.5778C27.2724 10.5681 27.294 10.559 27.3155 10.5496C27.3369 10.5402 27.3582 10.5307 27.3797 10.5215C27.401 10.5124 27.4225 10.5037 27.444 10.4948L27.5082 10.4686L27.5725 10.4431L27.6368 10.4186C27.6582 10.4105 27.6795 10.4022 27.701 10.3943C27.7223 10.3865 27.7439 10.3792 27.7653 10.3716C27.7867 10.3641 27.808 10.3564 27.8295 10.349L27.8938 10.3275L27.9581 10.3066C27.9795 10.2998 28.0008 10.2928 28.0223 10.2862C28.0436 10.2796 28.0652 10.2734 28.0866 10.2671C28.108 10.2607 28.1294 10.2541 28.1509 10.248C28.1722 10.2418 28.1937 10.2361 28.2151 10.2302L28.2794 10.2127C28.3008 10.2071 28.3221 10.2013 28.3436 10.1959C28.365 10.1904 28.3865 10.1855 28.4079 10.1802C28.4293 10.175 28.4507 10.1696 28.4722 10.1646C28.4935 10.1596 28.515 10.155 28.5364 10.1502L28.6007 10.1362C28.6221 10.1316 28.6434 10.127 28.665 10.1227C28.6863 10.1184 28.7078 10.1145 28.7292 10.1103C28.7506 10.1062 28.772 10.102 28.7935 10.0981C28.8149 10.0942 28.8363 10.0907 28.8577 10.087L28.922 10.0763C28.9434 10.0729 28.9648 10.0692 28.9863 10.066C29.0076 10.0627 29.0291 10.06 29.0505 10.0569C29.0719 10.054 29.0933 10.0507 29.1148 10.0479L29.179 10.0399L29.2433 10.0326C29.2648 10.0302 29.2861 10.0274 29.3076 10.0252C29.3289 10.023 29.3504 10.0214 29.3718 10.0194L29.4361 10.0138C29.4575 10.012 29.4789 10.0102 29.5004 10.0087C29.5218 10.0071 29.5432 10.0059 29.5647 10.0045C29.5861 10.0032 29.6074 10.0017 29.6289 10.0005C29.6502 9.99931 29.6717 9.99851 29.6931 9.99755L29.7574 9.9951C29.7788 9.99435 29.8002 9.99323 29.8217 9.9927C29.843 9.99216 29.8645 9.99222 29.8859 9.9919C29.9073 9.99158 29.9288 9.9912 29.9502 9.9911L30.0144 9.99072H30.0787H30.143H30.2072H30.2715H30.3358H30.4001H30.4643H30.5285H30.5928H30.6571H30.7214H30.7856H30.8499H30.9141H30.9784H31.0427H31.1069H31.1712H31.2355H31.2997H31.364H31.4282H31.4925H31.5568H31.621H31.6853H31.7496H31.8138H31.8781H31.9423H32.0066H32.0709H32.1351H32.1994H32.2636H32.3279H32.3922H32.4564H32.5207H32.585H32.6492H32.7135H32.7777H32.842H32.9063H32.9705H33.0348H33.099H33.1633H33.2276H33.2918H33.3561H33.4204H33.4847H33.5489H33.6131H33.6774H33.7417H33.8059H33.8702H33.9345H33.9987H34.063H34.1273H34.1915H34.2558H34.3201H34.3843H34.4485H34.5128H34.5771H34.6414H34.7056H34.7699H34.8342H34.8984H34.9627H35.0269H35.0912H35.1555H35.2197H35.284H35.3482H35.4125H35.4768H35.541H35.6053H35.6696H35.7338H35.7981H35.8623H35.9266H35.9909H36.0551H36.1194H36.1837H36.2479H36.3122H36.3764H36.4407H36.505H36.5692H36.6335H36.6977H36.762H36.8263H36.8906H36.9548H37.0191H37.0834H37.1476H37.2118H37.2761H37.3404H37.4047H37.4689H37.5331H37.5974H37.6617H37.7259H37.7902H37.8545H37.9188H37.983H38.0473H38.1115H38.1758H38.2401H38.3043H38.3686H38.4328H38.4971H38.5614H38.6256H38.6899H38.7542H38.8184H38.8827H38.9469H39.0112H39.0755H39.1397H39.204H39.2683H39.3325H39.3968H39.461H39.5253H39.5896H39.6538H39.7181H39.7726V43.3396C39.7726 43.6297 39.754 43.9154 39.7181 44.1958C39.7008 44.3308 39.679 44.4643 39.6538 44.5966C39.6346 44.6973 39.6133 44.7972 39.5896 44.8961C39.5696 44.9795 39.5483 45.0623 39.5253 45.1445C39.5051 45.2166 39.4835 45.2881 39.461 45.3592C39.4406 45.4235 39.4191 45.4874 39.3968 45.5509C39.3761 45.6096 39.3547 45.668 39.3325 45.726C39.3117 45.7802 39.2903 45.834 39.2683 45.8874C39.2474 45.9378 39.226 45.9879 39.204 46.0375C39.1831 46.0847 39.1616 46.1315 39.1397 46.1782C39.1188 46.2226 39.0974 46.2668 39.0755 46.3107C39.0545 46.3528 39.0331 46.3947 39.0112 46.4363C38.9902 46.4764 38.9688 46.5162 38.9469 46.5558C38.9258 46.5941 38.9046 46.6323 38.8827 46.6701C38.8616 46.7066 38.8402 46.7429 38.8184 46.779C38.7974 46.8139 38.7758 46.8484 38.7542 46.8829C38.733 46.9165 38.7116 46.95 38.6899 46.9832C38.6686 47.0157 38.6474 47.0482 38.6256 47.0802C38.6045 47.1113 38.583 47.1422 38.5614 47.173C38.5403 47.203 38.5188 47.2328 38.4971 47.2625C38.4759 47.2917 38.4545 47.3208 38.4328 47.3496C38.4117 47.3777 38.3902 47.4057 38.3686 47.4335C38.3474 47.4607 38.3259 47.4876 38.3043 47.5144C38.283 47.5409 38.2617 47.5674 38.2401 47.5936C38.2189 47.6191 38.1973 47.6444 38.1758 47.6696C38.1545 47.6945 38.1331 47.7191 38.1115 47.7437C38.0902 47.7679 38.069 47.7922 38.0473 47.8161C38.0261 47.8395 38.0045 47.8624 37.983 47.8855C37.9617 47.9084 37.9404 47.9314 37.9188 47.9539C37.8975 47.9761 37.876 47.9979 37.8545 48.0198C37.8332 48.0414 37.8118 48.0628 37.7902 48.0842C37.7689 48.1053 37.7475 48.1262 37.7259 48.147C37.7047 48.1674 37.6832 48.1876 37.6617 48.2078C37.6403 48.2278 37.6191 48.2478 37.5974 48.2676C37.5762 48.2869 37.5547 48.3059 37.5331 48.325C37.5118 48.3441 37.4906 48.3633 37.4689 48.382C37.4477 48.4004 37.4261 48.4182 37.4047 48.4364C37.3833 48.4545 37.362 48.4727 37.3404 48.4905C37.3191 48.508 37.2976 48.5252 37.2761 48.5424C37.2547 48.5595 37.2334 48.5769 37.2118 48.5938C37.1906 48.6104 37.169 48.6267 37.1476 48.643C37.1262 48.6594 37.105 48.6758 37.0834 48.6919C37.0621 48.7077 37.0405 48.7231 37.0191 48.7388C36.9977 48.7543 36.9764 48.77 36.9548 48.7853C36.9336 48.8003 36.912 48.8151 36.8906 48.8298C36.8691 48.8447 36.8479 48.8597 36.8263 48.8742C36.805 48.8885 36.7835 48.9025 36.762 48.9165C36.7406 48.9306 36.7194 48.945 36.6977 48.9589C36.6765 48.9725 36.6549 48.9855 36.6335 48.9989C36.6121 49.0123 36.5908 49.0259 36.5692 49.0391C36.5479 49.052 36.5264 49.0646 36.505 49.0773C36.4836 49.09 36.4623 49.1028 36.4407 49.1153C36.4194 49.1276 36.3979 49.1397 36.3764 49.1518C36.3551 49.1638 36.3337 49.1759 36.3122 49.1877C36.2908 49.1994 36.2694 49.2111 36.2479 49.2225L36.1837 49.2565C36.1623 49.2676 36.1409 49.2788 36.1194 49.2897C36.0981 49.3006 36.0766 49.3111 36.0551 49.3217C36.0337 49.3322 36.0124 49.3431 35.9909 49.3535C35.9696 49.3637 35.948 49.3735 35.9266 49.3835C35.9052 49.3935 35.8839 49.4037 35.8623 49.4136C35.841 49.4233 35.8195 49.4326 35.7981 49.4421L35.7338 49.4702L35.6696 49.4974C35.6482 49.5063 35.6267 49.515 35.6053 49.5237C35.5839 49.5324 35.5625 49.5412 35.541 49.5497C35.5197 49.5581 35.4982 49.5659 35.4768 49.5741C35.4553 49.5823 35.434 49.5906 35.4125 49.5985C35.3911 49.6064 35.3697 49.614 35.3482 49.6217L35.284 49.6443L35.2197 49.6663C35.1984 49.6735 35.1769 49.6803 35.1555 49.6872C35.134 49.6941 35.1127 49.7013 35.0912 49.708C35.0699 49.7147 35.0483 49.7208 35.0269 49.7273L34.9627 49.7464L34.8984 49.7647C34.8771 49.7707 34.8556 49.7763 34.8342 49.7821C34.8127 49.7879 34.7914 49.7939 34.7699 49.7994C34.7486 49.8049 34.727 49.8098 34.7056 49.8151C34.6842 49.8204 34.6628 49.8257 34.6414 49.8308L34.5771 49.8456L34.5128 49.8596C34.4914 49.8643 34.4701 49.8692 34.4485 49.8737C34.4272 49.878 34.4057 49.8818 34.3843 49.8859C34.3629 49.8901 34.3415 49.8943 34.3201 49.8983L34.2558 49.9098C34.2344 49.9136 34.213 49.9169 34.1915 49.9204C34.1701 49.924 34.1487 49.9278 34.1273 49.9311C34.1059 49.9344 34.0844 49.9372 34.063 49.9403L33.9987 49.9493C33.9774 49.9522 33.956 49.9551 33.9345 49.9578C33.9131 49.9605 33.8916 49.9627 33.8702 49.9652C33.8488 49.9676 33.8274 49.9703 33.8059 49.9725C33.7846 49.9748 33.7631 49.9767 33.7417 49.9787L33.6774 49.9844C33.656 49.9862 33.6346 49.9885 33.6131 49.9901C33.5918 49.9917 33.5703 49.9927 33.5489 49.9941L33.4847 49.9982L33.4204 50.0016C33.399 50.0026 33.3775 50.0033 33.3561 50.0041C33.3347 50.0049 33.3133 50.0059 33.2918 50.0065C33.2705 50.0071 33.249 50.0073 33.2276 50.0077L33.1633 50.0085C33.1435 50.0087 33.1237 50.0093 33.1037 50.0093H33.0348H32.9705H32.9063H32.842H32.7777H32.7135H32.6492H32.585H32.5207H32.4564H32.3922H32.3279H32.2636H32.1994H32.1351H32.0709H32.0066H31.9423H31.8781H31.8138H31.7496H31.6853H31.621H31.5568H31.4925H31.4282H31.364H31.2997H31.2355H31.1712H31.1069H31.0427H30.9784H30.9141H30.8499H30.7856H30.7214H30.6571H30.5928H30.5285H30.4643H30.4001H30.3358H30.2715H30.2072H30.143H30.0787H30.0144H29.9502H29.8859H29.8217H29.7574H29.6931H29.6289H29.5647H29.5004H29.4361H29.3718H29.3076H29.2433H29.179H29.1148H29.0505H28.9863H28.922H28.8577H28.7935H28.7292H28.665H28.6007H28.5364H28.4722H28.4079H28.3436H28.2794H28.2151H28.1509H28.0866H28.0223H27.9581H27.8938H27.8295H27.7653H27.701H27.6368H27.5725H27.5082H27.444H27.3797H27.3155H27.2512H27.1869H27.1227H27.0584H26.9941H26.9298H26.8656H26.8014H26.7371H26.6728H26.6085H26.5443H26.48H26.4158H26.3515H26.2872H26.223H26.1587H26.0944H26.0302H25.966H25.9017H25.8374H25.7731H25.7089H25.6446H25.5803H25.5161H25.4518H25.3876H25.3233H25.259H25.1948H25.1305H25.0663H25.002H24.9377H24.8735H24.8092H24.7449H24.6807H24.6164H24.5522H24.4879H24.4236H24.3594H24.2951H24.2309H24.1666H24.1023H24.0381H23.9738H23.9095H23.8453H23.781H23.7168H23.6525H23.5882H23.524H23.4597H23.3217V35.9531C23.3217 35.9531 23.3691 35.9662 23.4597 35.989L23.524 36.0051L23.5882 36.0208L23.6525 36.0362L23.7168 36.0514L23.781 36.0663L23.8453 36.081L23.9095 36.0956L23.9738 36.1099L24.0381 36.1239L24.1023 36.1379L24.1666 36.1516L24.2309 36.1651L24.2951 36.1785L24.3594 36.1917L24.4236 36.2047L24.4879 36.2175L24.5522 36.2302L24.6164 36.2427L24.6807 36.2551L24.7449 36.2674L24.8092 36.2794L24.8735 36.2913L24.9377 36.303L25.002 36.3146L25.0663 36.3261L25.1305 36.3373L25.1948 36.3485L25.259 36.3594L25.3233 36.3702L25.3876 36.3809L25.4518 36.3915L25.5161 36.4019L25.5803 36.4121L25.6446 36.4223L25.7089 36.4322L25.7731 36.4421L25.8374 36.4518L25.9017 36.4613L25.966 36.4707L26.0302 36.48L26.0944 36.4891L26.1587 36.4981L26.223 36.5069L26.2872 36.5157L26.3515 36.5242L26.4158 36.5327L26.48 36.541L26.5443 36.5491L26.6085 36.5571L26.6728 36.565L26.7371 36.5728L26.8014 36.5803L26.8656 36.5878L26.9298 36.5951L26.9941 36.6023L27.0584 36.6094L27.1227 36.6163L27.1869 36.6231L27.2512 36.6297L27.3155 36.6362L27.3797 36.6425L27.444 36.6488L27.5082 36.6549L27.5725 36.6608L27.6368 36.6667L27.701 36.6722L27.7653 36.6778L27.8295 36.6832L27.8938 36.6884L27.9581 36.6936L28.0223 36.6984L28.0866 36.7033L28.1509 36.708L28.2151 36.7125L28.2794 36.717L28.3436 36.7212L28.4079 36.7253L28.4722 36.7293L28.5364 36.7331L28.6007 36.7369L28.665 36.7404L28.7292 36.7438L28.7935 36.7471L28.8577 36.7501L28.922 36.7532L28.9863 36.756L29.0505 36.7586L29.1148 36.7613L29.179 36.7635L29.2433 36.7658L29.3076 36.768L29.3718 36.7698L29.4361 36.7717L29.5004 36.7733L29.5647 36.7748L29.6289 36.7763L29.6931 36.7773L29.7574 36.7784L29.8217 36.7794L29.8859 36.78L29.9502 36.7807L30.0144 36.7812L30.0787 36.7814L30.143 36.7816L30.2072 36.7815L30.2715 36.781L30.3358 36.7807L30.4001 36.7803L30.4643 36.7799L30.5285 36.7787L30.5928 36.7776L30.6571 36.7764L30.7214 36.7752L30.7856 36.7736L30.8499 36.7716L30.9141 36.7696L30.9784 36.7676L31.0427 36.7655L31.1069 36.7627L31.1712 36.7598L31.2355 36.757L31.2997 36.7541L31.364 36.7506L31.4282 36.7469L31.4925 36.7431L31.5568 36.7394L31.621 36.7351L31.6853 36.7305L31.7496 36.7259L31.8138 36.7213L31.8781 36.7161L31.9423 36.7106L32.0066 36.7051L32.0709 36.6994L32.1351 36.6934L32.1994 36.6869L32.2636 36.6803L32.3279 36.6738L32.3922 36.6666L32.4564 36.6591L32.5207 36.6515L32.585 36.644L32.6492 36.6356L32.7135 36.627L32.7777 36.6185L32.842 36.6097C32.8637 36.6066 32.8848 36.6032 32.9063 36.6L32.9705 36.5904L33.0348 36.5807L33.099 36.5705C33.1207 36.567 33.1418 36.5632 33.1633 36.5597L33.2276 36.5489C33.2489 36.5452 33.2707 36.5418 33.2918 36.538C33.3135 36.5342 33.3346 36.5301 33.3561 36.5261L33.4204 36.5141L33.4847 36.5021L33.5489 36.4895C33.5705 36.4853 33.5917 36.4807 33.6131 36.4763L33.6774 36.4631L33.7417 36.4496C33.7634 36.445 33.7844 36.44 33.8059 36.4352L33.8702 36.4207C33.8915 36.4158 33.9133 36.4112 33.9345 36.4062C33.9562 36.4011 33.9772 36.3957 33.9987 36.3905L34.063 36.3747C34.0843 36.3694 34.1061 36.3643 34.1273 36.3589C34.1489 36.3534 34.1701 36.3476 34.1915 36.342L34.2558 36.3248C34.2772 36.3191 34.2989 36.3135 34.3201 36.3076C34.3417 36.3017 34.3629 36.2955 34.3843 36.2894L34.4485 36.2708C34.4699 36.2645 34.4917 36.2585 34.5128 36.2521L34.5771 36.2324L34.6414 36.2122C34.6627 36.2055 34.6845 36.199 34.7056 36.1921L34.7699 36.1707L34.8342 36.1489C34.8555 36.1416 34.8773 36.1346 34.8984 36.1271C34.9201 36.1195 34.9412 36.1116 34.9627 36.1038L35.0269 36.0804C35.0483 36.0725 35.07 36.0647 35.0912 36.0566C35.1129 36.0484 35.134 36.0399 35.1555 36.0315C35.1769 36.0231 35.1985 36.0148 35.2197 36.0063L35.284 35.9801L35.3482 35.9531C35.3696 35.9441 35.3914 35.9354 35.4125 35.9262C35.4343 35.9168 35.4553 35.9069 35.4768 35.8973L35.541 35.8684L35.6053 35.8385C35.6269 35.8283 35.6482 35.8179 35.6696 35.8076C35.691 35.7972 35.7127 35.787 35.7338 35.7765C35.7556 35.7656 35.7766 35.7544 35.7981 35.7434C35.8195 35.7324 35.8412 35.7215 35.8623 35.7104C35.8841 35.699 35.9052 35.6873 35.9266 35.6756C35.9482 35.664 35.9696 35.6522 35.9909 35.6404C36.0125 35.6283 36.0339 35.6162 36.0551 35.6039C36.0768 35.5915 36.0981 35.5789 36.1194 35.5662C36.1409 35.5535 36.1625 35.5407 36.1837 35.5278C36.2054 35.5145 36.2266 35.5011 36.2479 35.4876C36.2694 35.4741 36.2911 35.4606 36.3122 35.4469C36.3339 35.4328 36.3551 35.4184 36.3764 35.4041C36.3979 35.3896 36.4196 35.3753 36.4407 35.3607C36.4625 35.3456 36.4836 35.3303 36.505 35.3151C36.5265 35.2997 36.5481 35.2843 36.5692 35.2687C36.591 35.2526 36.6122 35.2364 36.6335 35.2201C36.6551 35.2036 36.6766 35.187 36.6977 35.1703C36.7194 35.1532 36.7408 35.1358 36.762 35.1184C36.7837 35.1007 36.8051 35.0827 36.8263 35.0647C36.8479 35.0464 36.8695 35.0281 36.8906 35.0095C36.9124 34.9903 36.9335 34.9707 36.9548 34.9512C36.9764 34.9315 36.998 34.9118 37.0191 34.8918C37.0409 34.871 37.0622 34.8501 37.0834 34.829C37.1051 34.8075 37.1265 34.7857 37.1476 34.7639C37.1692 34.7416 37.1909 34.7193 37.2118 34.6968C37.2337 34.6731 37.2549 34.6492 37.2761 34.6253C37.298 34.6007 37.3193 34.5759 37.3404 34.5509C37.3621 34.5253 37.3837 34.4996 37.4047 34.4735C37.4264 34.4465 37.4479 34.4194 37.4689 34.392C37.4908 34.3634 37.5121 34.3345 37.5331 34.3054C37.5551 34.2752 37.5764 34.2448 37.5974 34.2142C37.6194 34.1823 37.6408 34.1501 37.6617 34.1177C37.6836 34.0838 37.7051 34.0496 37.7259 34.0151C37.7479 33.9787 37.7694 33.9422 37.7902 33.9053C37.8123 33.8662 37.8337 33.8268 37.8545 33.7871C37.8767 33.7446 37.8981 33.7019 37.9188 33.6588C37.9411 33.6125 37.9624 33.5658 37.983 33.5188C38.0054 33.4676 38.0269 33.4162 38.0473 33.3643C38.0698 33.307 38.0913 33.2493 38.1115 33.1911C38.1345 33.125 38.1558 33.0583 38.1758 32.991C38.1991 32.9124 38.2205 32.8329 38.2401 32.7527C38.2643 32.6532 38.2858 32.5526 38.3043 32.4508C38.3318 32.2993 38.3531 32.1455 38.3686 31.9896C38.3902 31.7721 38.4007 31.5508 38.4007 31.326V23.5874H38.3043H38.2401H38.1758H38.1115H38.0473H37.983H37.9188H37.8545H37.7902H37.7259H37.6617H37.5974H37.5331H37.4689H37.4047H37.3404H37.2761H37.2118H37.1476H37.0834H37.0191H36.9548H36.8906H36.8263H36.762H36.6977H36.6335H36.5692H36.505H36.4407H36.3764H36.3122H36.2479H36.1837H36.1194H36.0551H35.9909H35.9266H35.8623H35.7981H35.7338H35.6696H35.6053H35.541H35.4768H35.4125H35.3482H35.284H35.2197H35.1555H35.0912H35.0269H34.9627H34.8984H34.8342H34.7699H34.7056H34.6414H34.5771H34.5128H34.4485H34.3843H34.3201H34.2558H34.1915H34.1273H34.063H33.9987H33.9345H33.8702H33.8059H33.7417H33.6774H33.6131H33.5489H33.4847H33.4204H33.3561H33.2918H33.2276H33.1633H33.099H33.0348H32.9705H32.9063H32.842H32.7777H32.7135L32.6648 31.326C32.6648 31.4471 32.6595 31.5663 32.6492 31.6832C32.6361 31.8322 32.6146 31.9773 32.585 32.1185C32.5667 32.2057 32.5452 32.2913 32.5207 32.3753C32.5012 32.4422 32.4798 32.508 32.4564 32.5727C32.4365 32.6279 32.415 32.6821 32.3922 32.7355C32.3719 32.7832 32.3505 32.8302 32.3279 32.8765C32.3073 32.9187 32.2861 32.9603 32.2636 33.0013C32.243 33.0389 32.2215 33.0758 32.1994 33.1124C32.1786 33.1469 32.1573 33.1809 32.1351 33.2143C32.1143 33.2457 32.0928 33.2766 32.0709 33.3071C32.05 33.3362 32.0287 33.3651 32.0066 33.3934C31.9857 33.4203 31.9642 33.4467 31.9423 33.4728C31.9214 33.4978 31.9 33.5225 31.8781 33.5469C31.8571 33.5704 31.8357 33.5936 31.8138 33.6163C31.7927 33.6383 31.7714 33.6601 31.7496 33.6815C31.7285 33.7021 31.7071 33.7226 31.6853 33.7427C31.6642 33.7621 31.6427 33.7812 31.621 33.8001C31.5999 33.8184 31.5785 33.8364 31.5568 33.8542C31.5356 33.8715 31.5141 33.8885 31.4925 33.9053C31.4714 33.9217 31.4499 33.9378 31.4282 33.9537C31.4071 33.9691 31.3857 33.9844 31.364 33.9994C31.3428 34.0141 31.3214 34.0285 31.2997 34.0427C31.2785 34.0566 31.2571 34.0703 31.2355 34.0837C31.2143 34.0968 31.1928 34.1097 31.1712 34.1224C31.15 34.1349 31.1285 34.147 31.1069 34.1591C31.0857 34.1709 31.0643 34.1824 31.0427 34.1938C31.0214 34.205 31.0001 34.2159 30.9784 34.2267C30.9572 34.2373 30.9358 34.2477 30.9141 34.2579C30.8929 34.2679 30.8715 34.2779 30.8499 34.2876C30.8286 34.2971 30.8072 34.3065 30.7856 34.3156C30.7644 34.3245 30.7429 34.3332 30.7214 34.3418C30.7001 34.3503 30.6786 34.3585 30.6571 34.3666C30.6358 34.3747 30.6144 34.3825 30.5928 34.3902C30.5715 34.3978 30.5501 34.4053 30.5285 34.4125C30.5073 34.4196 30.4859 34.4265 30.4643 34.4333C30.4431 34.44 30.4216 34.4464 30.4001 34.4527C30.3788 34.459 30.3573 34.4652 30.3358 34.4711C30.3144 34.477 30.2931 34.4829 30.2715 34.4885C30.2502 34.494 30.2288 34.4992 30.2072 34.5044C30.186 34.5095 30.1645 34.5144 30.143 34.5192C30.1217 34.524 30.1003 34.5287 30.0787 34.5332C30.0574 34.5376 30.0361 34.5419 30.0144 34.546C29.9932 34.5501 29.9717 34.5539 29.9502 34.5577C29.9289 34.5614 29.9075 34.5651 29.8859 34.5686L29.8217 34.5784C29.8004 34.5815 29.7789 34.5843 29.7574 34.5872C29.7361 34.59 29.7147 34.5928 29.6931 34.5953L29.6289 34.6024C29.6076 34.6046 29.5862 34.6065 29.5647 34.6085C29.5433 34.6104 29.5219 34.6124 29.5004 34.6141C29.4791 34.6157 29.4576 34.6172 29.4361 34.6185C29.4148 34.6199 29.3933 34.6211 29.3718 34.6222C29.3504 34.6233 29.3291 34.6245 29.3076 34.6253C29.2863 34.6262 29.2648 34.6267 29.2433 34.6273L29.179 34.6288C29.1578 34.6292 29.1363 34.6293 29.1148 34.6294L29.0505 34.6295L28.9863 34.6291L28.922 34.6281L28.8577 34.6268L28.7935 34.6251L28.7292 34.623L28.665 34.6204L28.6007 34.6174L28.5364 34.6142L28.4722 34.6103L28.4079 34.6062L28.3436 34.6016L28.2794 34.5966L28.2151 34.5912L28.1509 34.5855L28.0866 34.5793L28.0223 34.5727L27.9581 34.5658L27.8938 34.5585L27.8295 34.5507L27.7653 34.5425L27.701 34.5341L27.6368 34.5251L27.5725 34.5158L27.5082 34.5062L27.444 34.4961L27.3797 34.4857L27.3155 34.4749L27.2512 34.4638L27.1869 34.4521L27.1227 34.4402L27.0584 34.428L26.9941 34.4153L26.9298 34.4022L26.8656 34.3888L26.8014 34.3751L26.7371 34.361L26.6728 34.3465L26.6085 34.3317L26.5443 34.3165L26.48 34.3009L26.4158 34.285L26.3515 34.2688L26.2872 34.2521L26.223 34.2351L26.1587 34.2179L26.0944 34.2002L26.0302 34.1822L25.966 34.1639L25.9017 34.1453L25.8374 34.1262L25.7731 34.1068L25.7089 34.0872L25.6446 34.0671L25.5803 34.0467L25.5161 34.0261L25.4518 34.0051L25.3876 33.9837L25.3233 33.962L25.259 33.94L25.1948 33.9178L25.1305 33.895L25.0663 33.8721L25.002 33.8489L24.9377 33.8252L24.8735 33.8013L24.8092 33.7771L24.7449 33.7526L24.6807 33.7278L24.6164 33.7026L24.5522 33.6772L24.4879 33.6514L24.4236 33.6254L24.3594 33.599L24.2951 33.5724L24.2309 33.5454L24.1666 33.5181L24.1023 33.4906L24.0381 33.4628L23.9738 33.4346L23.9095 33.4062L23.8453 33.3775L23.781 33.3486L23.7168 33.3193L23.6525 33.2897L23.5882 33.2599L23.524 33.2297L23.4597 33.1994C23.4136 33.1774 23.3676 33.1554 23.3217 33.1332Z" fill="#006CB9"/>
<path fill-rule="evenodd" clip-rule="evenodd" d="M41.912 25.2783C41.8652 25.3162 41.8191 25.3544 41.774 25.393V16.661C41.774 16.1966 41.8217 15.7434 41.912 15.3057C41.9315 15.2117 41.953 15.1186 41.9763 15.0261C41.9963 14.9468 42.0178 14.8681 42.0406 14.7899C42.0609 14.7203 42.0823 14.6511 42.1049 14.5825C42.1254 14.5197 42.1467 14.4573 42.1691 14.3954C42.1898 14.3381 42.2111 14.281 42.2334 14.2243C42.2542 14.1714 42.2755 14.1188 42.2976 14.0665C42.3185 14.0172 42.3399 13.9682 42.3619 13.9195C42.3827 13.8732 42.4043 13.8273 42.4262 13.7816C42.4471 13.738 42.4686 13.6947 42.4904 13.6516C42.5114 13.6102 42.5329 13.5691 42.5547 13.5282C42.5757 13.4888 42.5972 13.4496 42.619 13.4107C42.64 13.3729 42.6614 13.3354 42.6832 13.2981C42.7044 13.262 42.7257 13.2259 42.7475 13.1902C42.7686 13.1557 42.79 13.1214 42.8117 13.0873C42.8329 13.0541 42.8544 13.0213 42.876 12.9885C42.8972 12.9564 42.9185 12.9246 42.9403 12.8929C42.9616 12.8619 42.9828 12.8308 43.0046 12.8002C43.0256 12.7705 43.0472 12.7414 43.0688 12.7121C43.09 12.6833 43.1114 12.6547 43.1331 12.6262C43.1544 12.5982 43.1756 12.5701 43.1973 12.5425C43.2184 12.5157 43.2401 12.4892 43.2616 12.4627C43.2829 12.4365 43.3043 12.4104 43.3259 12.3846C43.3472 12.3591 43.3685 12.3337 43.3902 12.3085C43.4114 12.284 43.4329 12.2598 43.4544 12.2355C43.4757 12.2115 43.497 12.1874 43.5187 12.1637C43.5399 12.1405 43.5614 12.1175 43.5829 12.0946C43.6041 12.072 43.6256 12.0495 43.6471 12.0272C43.6685 12.0051 43.6898 11.9831 43.7114 11.9613C43.7327 11.94 43.7542 11.9189 43.7757 11.8978C43.7971 11.8769 43.8183 11.8557 43.84 11.835C43.8611 11.8148 43.8828 11.7951 43.9042 11.7751C43.9255 11.7552 43.9468 11.7353 43.9685 11.7157C43.9897 11.6965 44.0113 11.6776 44.0327 11.6586C44.0541 11.6398 44.0754 11.6209 44.097 11.6024C44.1183 11.5841 44.1398 11.5661 44.1613 11.548C44.1826 11.5302 44.204 11.5123 44.2256 11.4946C44.2469 11.4772 44.2683 11.46 44.2898 11.4429C44.3112 11.4259 44.3326 11.4089 44.3541 11.3922C44.3754 11.3756 44.3968 11.3593 44.4184 11.3429C44.4397 11.3268 44.4611 11.3107 44.4826 11.2948C44.5039 11.279 44.5254 11.2634 44.5469 11.2479C44.5682 11.2325 44.5896 11.2171 44.6111 11.202C44.6325 11.187 44.6539 11.1722 44.6754 11.1574C44.6968 11.1427 44.7182 11.1281 44.7397 11.1137C44.761 11.0995 44.7825 11.0854 44.804 11.0714C44.8253 11.0574 44.8466 11.0434 44.8682 11.0297C44.8895 11.0162 44.911 11.0029 44.9325 10.9896C44.9539 10.9763 44.9752 10.9629 44.9967 10.9499C45.018 10.9369 45.0396 10.9245 45.061 10.9118C45.0825 10.8992 45.1037 10.8863 45.1253 10.8739C45.1465 10.8617 45.1682 10.8499 45.1896 10.8379C45.211 10.8259 45.2323 10.8138 45.2538 10.8021C45.2751 10.7904 45.2966 10.7792 45.3181 10.7678C45.3394 10.7564 45.3608 10.745 45.3823 10.7339L45.4466 10.7012L45.5109 10.6692C45.5322 10.6587 45.5536 10.6482 45.5751 10.6379C45.5965 10.6277 45.618 10.6179 45.6394 10.6079C45.6609 10.598 45.6821 10.5877 45.7037 10.578C45.7249 10.5684 45.7465 10.5593 45.768 10.5499C45.7893 10.5405 45.8107 10.531 45.8322 10.5218C45.8535 10.5127 45.875 10.5039 45.8964 10.495L45.9607 10.4688C45.9821 10.4602 46.0035 10.4516 46.025 10.4432C46.0463 10.4349 46.0678 10.4269 46.0893 10.4188C46.1107 10.4107 46.132 10.4023 46.1535 10.3944C46.1748 10.3866 46.1964 10.3794 46.2178 10.3718C46.2392 10.3642 46.2605 10.3565 46.282 10.3492C46.3034 10.3418 46.3249 10.3348 46.3463 10.3277L46.4106 10.3068C46.432 10.3 46.4534 10.293 46.4749 10.2863C46.4962 10.2798 46.5177 10.2736 46.5391 10.2672C46.5605 10.2608 46.5819 10.2543 46.6034 10.2481C46.6248 10.2419 46.6462 10.2362 46.6677 10.2303L46.7319 10.2128C46.7533 10.2072 46.7747 10.2014 46.7962 10.196C46.8175 10.1906 46.839 10.1855 46.8604 10.1803C46.8818 10.1751 46.9032 10.1696 46.9247 10.1646C46.9461 10.1596 46.9676 10.155 46.989 10.1503L47.0533 10.1363C47.0747 10.1317 47.096 10.127 47.1175 10.1227C47.1388 10.1184 47.1603 10.1145 47.1818 10.1104C47.2032 10.1063 47.2245 10.102 47.246 10.0981L47.3103 10.087L47.3746 10.0764C47.396 10.0729 47.4174 10.0692 47.4389 10.066C47.4602 10.0627 47.4817 10.06 47.5031 10.0569C47.5245 10.054 47.5459 10.0508 47.5674 10.048L47.6316 10.0399L47.6959 10.0326C47.7173 10.0302 47.7387 10.0274 47.7602 10.0252C47.7815 10.023 47.803 10.0214 47.8244 10.0194L47.8887 10.0138C47.9101 10.012 47.9315 10.0102 47.953 10.0087C47.9744 10.0071 47.9958 10.0059 48.0172 10.0045C48.0387 10.0032 48.06 10.0017 48.0815 10.0005C48.1029 9.99931 48.1243 9.99851 48.1458 9.99755L48.21 9.9951C48.2315 9.99435 48.2528 9.99323 48.2743 9.9927C48.2957 9.99216 48.3172 9.99222 48.3386 9.9919C48.36 9.99158 48.3814 9.9912 48.4029 9.9911L48.4312 9.99072H48.4671H48.5314H48.5956H48.6599H48.7242H48.7884H48.8527H48.917H48.9813H49.0455H49.1098H49.174H49.2383H49.3026H49.3668H49.4311H49.4953H49.5596H49.6239H49.6881H49.7524H49.8167H49.881H49.9452H50.0095H50.0738H50.138H50.2023H50.2666H50.3308H50.3951H50.4593H50.5236H50.5879H50.6522H50.7164H50.7807H50.8449H50.9092H50.9735H51.0377H51.102H51.1663H51.2306H51.2948H51.359H51.4233H51.4876H51.5519H51.6161H51.6804H51.7446H51.8089H51.8732H51.9374H52.0017H52.066H52.1303H52.1946H52.2588H52.3231H52.3873H52.4516H52.5159H52.5801H52.6444H52.7086H52.7729H52.8372H52.9015H52.9657H53.03H53.0942H53.1585H53.2228H53.287H53.3513H53.4156H53.4799H53.5441H53.6083H53.6726H53.7369H53.8012H53.8654H53.9297H53.9939H54.0582H54.1225H54.1868H54.251H54.3153H54.3796H54.4439H54.5081H54.5724H54.6366H54.7009H54.7652H54.8294H54.8937H54.9579H55.0222H55.0865H55.1508H55.215H55.2793H55.3436H55.4078H55.4721H55.5363H55.6006H55.6649H55.7292H55.7934H55.8576H55.9219H55.9862H56.0505H56.1148H56.179H56.2433H56.3075H56.3718H56.4361H56.5003H56.5646H56.6289H56.6932H56.7574H56.8217H56.8859H56.9502H57.0145H57.0787H57.143H57.2072H57.2715H57.3358H57.4H57.4643H57.5286H57.5929H57.6571H57.7214H57.7856H57.8499H57.9142H57.9784H58.0427H58.107H58.1712H58.2257V43.3396C58.2257 43.6296 58.2072 43.9151 58.1712 44.1953C58.154 44.3303 58.1322 44.4638 58.107 44.5961C58.0878 44.6967 58.0664 44.7967 58.0427 44.8957C58.0228 44.9791 58.0015 45.062 57.9784 45.1441C57.9582 45.2162 57.9367 45.2878 57.9142 45.3588C57.8937 45.4232 57.8722 45.487 57.8499 45.5505C57.8293 45.6092 57.8078 45.6677 57.7856 45.7257C57.7649 45.7798 57.7435 45.8335 57.7214 45.887C57.7005 45.9373 57.6791 45.9874 57.6571 46.0372C57.6362 46.0843 57.6148 46.1311 57.5929 46.1777C57.5719 46.2222 57.5505 46.2664 57.5286 46.3103C57.5076 46.3524 57.4861 46.3943 57.4643 46.4359C57.4432 46.4761 57.4219 46.5159 57.4 46.5556C57.3789 46.5939 57.3577 46.632 57.3358 46.6699C57.3148 46.7063 57.2933 46.7425 57.2715 46.7785C57.2505 46.8135 57.229 46.848 57.2072 46.8825C57.1861 46.9162 57.1647 46.9496 57.143 46.9828C57.1218 47.0153 57.1005 47.0478 57.0787 47.0799C57.0576 47.111 57.0361 47.1419 57.0145 47.1726C56.9933 47.2026 56.9718 47.2324 56.9502 47.2621C56.9289 47.2913 56.9076 47.3204 56.8859 47.3493C56.8648 47.3774 56.8433 47.4052 56.8217 47.433C56.8005 47.4602 56.779 47.4872 56.7574 47.514C56.7361 47.5405 56.7149 47.567 56.6932 47.5932C56.672 47.6188 56.6504 47.644 56.6289 47.6693C56.6076 47.6941 56.5862 47.7187 56.5646 47.7433C56.5433 47.7675 56.522 47.7918 56.5003 47.8157C56.4791 47.8391 56.4575 47.8621 56.4361 47.8852C56.4147 47.9081 56.3935 47.931 56.3718 47.9537C56.3506 47.9758 56.3291 47.9976 56.3075 48.0194C56.2863 48.041 56.2649 48.0625 56.2433 48.0838C56.222 48.1049 56.2006 48.1258 56.179 48.1466C56.1578 48.167 56.1363 48.1872 56.1148 48.2074C56.0934 48.2274 56.0721 48.2476 56.0505 48.2673C56.0292 48.2867 56.0077 48.3057 55.9862 48.3248C55.9648 48.3438 55.9436 48.363 55.9219 48.3818C55.9007 48.4002 55.8791 48.4181 55.8576 48.4362C55.8362 48.4543 55.815 48.4725 55.7934 48.4903C55.7722 48.5078 55.7506 48.5248 55.7292 48.542C55.7078 48.5592 55.6865 48.5766 55.6649 48.5935C55.6436 48.6101 55.6221 48.6263 55.6006 48.6427C55.5792 48.659 55.5579 48.6755 55.5363 48.6916C55.5151 48.7074 55.4935 48.7229 55.4721 48.7385C55.4507 48.754 55.4294 48.7698 55.4078 48.785C55.3866 48.8001 55.365 48.8147 55.3436 48.8296C55.3222 48.8444 55.3009 48.8594 55.2793 48.874C55.258 48.8883 55.2365 48.9022 55.215 48.9163C55.1936 48.9304 55.1724 48.9447 55.1508 48.9585C55.1295 48.9722 55.1079 48.9853 55.0865 48.9987C55.0651 49.0121 55.0438 49.0257 55.0222 49.0388C55.001 49.0517 54.9794 49.0643 54.9579 49.077C54.9365 49.0897 54.9152 49.1025 54.8937 49.115C54.8724 49.1274 54.8509 49.1395 54.8294 49.1516L54.7652 49.1875L54.7009 49.2223L54.6366 49.2562C54.6152 49.2674 54.5939 49.2786 54.5724 49.2895C54.551 49.3003 54.5296 49.3108 54.5081 49.3215C54.4867 49.3321 54.4654 49.3429 54.4439 49.3533C54.4226 49.3635 54.401 49.3733 54.3796 49.3833C54.3582 49.3933 54.3368 49.4036 54.3153 49.4133C54.294 49.4231 54.2724 49.4324 54.251 49.4419L54.1868 49.47L54.1225 49.4972L54.0582 49.5235C54.0368 49.5322 54.0155 49.5411 53.9939 49.5496C53.9727 49.5579 53.9511 49.5658 53.9297 49.5739C53.9083 49.5821 53.887 49.5904 53.8654 49.5984C53.8441 49.6063 53.8226 49.6138 53.8012 49.6215L53.7369 49.6442L53.6726 49.6661C53.6513 49.6733 53.6298 49.6801 53.6083 49.687C53.5869 49.6939 53.5656 49.7012 53.5441 49.7079C53.5228 49.7145 53.5013 49.7207 53.4799 49.7271L53.4156 49.7462L53.3513 49.7645C53.3299 49.7705 53.3085 49.7762 53.287 49.7819C53.2656 49.7877 53.2443 49.7938 53.2228 49.7993C53.2014 49.8048 53.1799 49.8097 53.1585 49.815C53.1371 49.8203 53.1157 49.8256 53.0942 49.8307L53.03 49.8455L52.9657 49.8595C52.9443 49.8641 52.923 49.8691 52.9015 49.8735C52.8801 49.8779 52.8586 49.8817 52.8372 49.8859L52.7729 49.8981L52.7086 49.9097C52.6873 49.9135 52.6658 49.9169 52.6444 49.9204C52.623 49.9239 52.6016 49.9277 52.5801 49.931C52.5588 49.9343 52.5373 49.9371 52.5159 49.9402L52.4516 49.9493C52.4302 49.9521 52.4088 49.9551 52.3873 49.9577C52.366 49.9604 52.3445 49.9627 52.3231 49.9651C52.3016 49.9676 52.2803 49.9702 52.2588 49.9725C52.2374 49.9747 52.216 49.9766 52.1946 49.9787L52.1303 49.9844C52.1088 49.9862 52.0875 49.9884 52.066 49.99C52.0447 49.9916 52.0232 49.9927 52.0017 49.9941L51.9374 49.9982L51.8732 50.0016C51.8518 50.0026 51.8303 50.0032 51.8089 50.004C51.7875 50.0048 51.7661 50.0058 51.7446 50.0065C51.7233 50.007 51.7019 50.0073 51.6804 50.0077L51.6161 50.0085C51.5961 50.0087 51.5762 50.0093 51.5561 50.0093H51.5519H51.4876H51.4233H51.359H51.2948H51.2306H51.1663H51.102H51.0377H50.9735H50.9092H50.8449H50.7807H50.7164H50.6522H50.5879H50.5236H50.4593H50.3951H50.3308H50.2666H50.2023H50.138H50.0738H50.0095H49.9452H49.881H49.8167H49.7524H49.6881H49.6239H49.5596H49.4953H49.4311H49.3668H49.3026H49.2383H49.174H49.1098H49.0455H48.9813H48.917H48.8527H48.7884H48.7242H48.6599H48.5956H48.5314H48.4671H48.4029H48.3386H48.2743H48.21H48.1458H48.0815H48.0172H47.953H47.8887H47.8244H47.7602H47.6959H47.6316H47.5674H47.5031H47.4389H47.3746H47.3103H47.246H47.1818H47.1175H47.0533H46.989H46.9247H46.8604H46.7962H46.7319H46.6677H46.6034H46.5391H46.4749H46.4106H46.3463H46.282H46.2178H46.1535H46.0893H46.025H45.9607H45.8964H45.8322H45.768H45.7037H45.6394H45.5751H45.5109H45.4466H45.3823H45.3181H45.2538H45.1896H45.1253H45.061H44.9967H44.9325H44.8682H44.804H44.7397H44.6754H44.6111H44.5469H44.4826H44.4184H44.3541H44.2898H44.2256H44.1613H44.097H44.0327H43.9685H43.9042H43.84H43.7757H43.7114H43.6471H43.5829H43.5187H43.4544H43.3902H43.3259H43.2616H43.1973H43.1331H43.0688H43.0046H42.9403H42.876H42.8117H42.7475H42.6832H42.619H42.5547H42.4904H42.4262H42.3619H42.2976H42.2334H42.1691H42.1049H42.0406H41.9763H41.912H41.774V34.6096C41.8191 34.6483 41.8652 34.6864 41.912 34.7243C41.9333 34.7415 41.9547 34.7586 41.9763 34.7755C41.9976 34.7923 42.019 34.809 42.0406 34.8256C42.0619 34.8419 42.0832 34.8582 42.1049 34.8744C42.126 34.8903 42.1476 34.9059 42.1691 34.9216C42.1903 34.9371 42.2118 34.9525 42.2334 34.9678C42.2547 34.9829 42.276 34.998 42.2976 35.013L42.3619 35.057C42.3831 35.0714 42.4046 35.0856 42.4262 35.0998L42.4904 35.1418C42.5117 35.1555 42.5331 35.1692 42.5547 35.1828C42.5759 35.1962 42.5974 35.2094 42.619 35.2226L42.6832 35.2618C42.7046 35.2746 42.7259 35.2874 42.7475 35.3C42.7687 35.3125 42.7902 35.3248 42.8117 35.3371L42.876 35.3736L42.9403 35.4092L43.0046 35.444C43.0259 35.4554 43.0472 35.467 43.0688 35.4783C43.09 35.4894 43.1116 35.5004 43.1331 35.5114L43.1973 35.544L43.2616 35.576L43.3259 35.607C43.3473 35.6173 43.3686 35.6276 43.3902 35.6378L43.4544 35.6674L43.5187 35.6968L43.5829 35.7253L43.6471 35.7533L43.7114 35.7808L43.7757 35.8075L43.84 35.8339L43.9042 35.8595L43.9685 35.8849L44.0327 35.9093C44.0541 35.9175 44.0754 35.9257 44.097 35.9337L44.1613 35.9571C44.1827 35.9649 44.204 35.9728 44.2256 35.9805C44.2468 35.9881 44.2684 35.9954 44.2898 36.0029L44.3541 36.0253L44.4184 36.0468C44.4397 36.0539 44.461 36.0613 44.4826 36.0683C44.5038 36.0753 44.5254 36.082 44.5469 36.0889L44.6111 36.1095L44.6754 36.1292L44.7397 36.1489L44.804 36.1679L44.8682 36.1866L44.9325 36.2049L44.9967 36.2229L45.061 36.2404L45.1253 36.2575L45.1896 36.2744L45.2538 36.2907L45.3181 36.3069L45.3823 36.3224L45.4466 36.338L45.5109 36.3528L45.5751 36.3676L45.6394 36.3819L45.7037 36.3959L45.768 36.4097L45.8322 36.423L45.8964 36.4362L45.9607 36.4488L46.025 36.4614L46.0893 36.4735L46.1535 36.4854L46.2178 36.4971L46.282 36.5083L46.3463 36.5194L46.4106 36.5301L46.4749 36.5406L46.5391 36.5509L46.6034 36.5607L46.6677 36.5705L46.7319 36.5799L46.7962 36.589L46.8604 36.5981L46.9247 36.6066L46.989 36.615L47.0533 36.6233L47.1175 36.6311L47.1818 36.639L47.246 36.6464L47.3103 36.6536L47.3746 36.6608L47.4389 36.6674L47.5031 36.674L47.5674 36.6804L47.6316 36.6864L47.6959 36.6925L47.7602 36.6981L47.8244 36.7036L47.8887 36.709L47.953 36.714L48.0172 36.7188L48.0815 36.7237L48.1458 36.728L48.21 36.7324L48.2743 36.7366L48.3386 36.7404L48.4029 36.7441L48.4671 36.7478L48.5314 36.7509L48.5956 36.7541L48.6599 36.7573L48.7242 36.7599L48.7884 36.7626L48.8527 36.7651L48.917 36.7673L48.9813 36.7694L49.0455 36.7715L49.1098 36.7731L49.174 36.7747L49.2383 36.7763L49.3026 36.7774L49.3668 36.7785L49.4311 36.7796L49.4953 36.7802L49.5596 36.7808L49.6239 36.7814L49.6881 36.7817L49.7524 36.7818L49.8167 36.7819L49.881 36.7817L49.9452 36.7814L50.0095 36.781L50.0738 36.7804L50.138 36.7796L50.2023 36.7787L50.2666 36.7779L50.3308 36.7765L50.3951 36.7753L50.4593 36.7739L50.5236 36.7723L50.5879 36.7705L50.6522 36.7687L50.7164 36.7668L50.7807 36.7645L50.8449 36.7624L50.9092 36.7601L50.9735 36.7574L51.0377 36.7548L51.102 36.7521L51.1334 36.7508L51.1663 36.7492L51.2306 36.7461L51.2948 36.7427L51.359 36.7391L51.4233 36.7353L51.4876 36.7313L51.5519 36.727L51.6161 36.7226L51.6804 36.7179L51.7446 36.7131L51.8089 36.7079L51.8732 36.7027L51.9374 36.6972L52.0017 36.6916L52.066 36.6857L52.1303 36.6797L52.1946 36.6735L52.2588 36.6671L52.3231 36.6606L52.3873 36.6538L52.4516 36.6469L52.5159 36.6398L52.5801 36.6325L52.6444 36.6251L52.7086 36.6175L52.7729 36.6098L52.8372 36.6019L52.9015 36.5939L52.9657 36.5856L53.03 36.5774L53.0942 36.5688L53.1585 36.5601L53.2228 36.5513L53.287 36.5424L53.3513 36.5333L53.4156 36.524L53.4799 36.5147L53.5441 36.5051L53.6083 36.4954L53.6726 36.4856L53.7369 36.4757L53.8012 36.4656L53.8654 36.4553L53.9297 36.445L53.9939 36.4346L54.0582 36.4239L54.1225 36.4132L54.1868 36.4023L54.251 36.3913L54.3153 36.3802L54.3796 36.3689L54.4439 36.3575L54.5081 36.346L54.5724 36.3343L54.6366 36.3226L54.7009 36.3107L54.7652 36.2986L54.8294 36.2865L54.8937 36.2742L54.9579 36.2618L55.0222 36.2493L55.0865 36.2366L55.1508 36.2239L55.215 36.211L55.2793 36.198L55.3436 36.1848L55.4078 36.1714L55.4721 36.158L55.5363 36.1445L55.6006 36.1308L55.6649 36.117L55.7292 36.103L55.7934 36.0889L55.8576 36.0747L55.9219 36.0603L55.9862 36.0458L56.0505 36.0311L56.1148 36.0162L56.179 36.0011L56.2433 35.9858L56.3075 35.9703L56.3715 35.9545V33.1332L56.3075 33.165L56.2433 33.1967L56.179 33.2281L56.1148 33.2593L56.0505 33.2902L55.9862 33.3208L55.9219 33.351L55.8576 33.381L55.7934 33.4106L55.7292 33.44L55.6649 33.4689L55.6006 33.4976L55.5363 33.5259L55.4721 33.5539L55.4078 33.5816L55.3436 33.6089L55.2793 33.6359L55.215 33.6626L55.1508 33.6888L55.0865 33.7147L55.0222 33.7403L54.9579 33.7656L54.8937 33.7905L54.8294 33.815L54.7652 33.8391L54.7009 33.8629L54.6366 33.8863L54.5724 33.9094L54.5081 33.9322L54.4439 33.9545L54.3796 33.9765L54.3153 33.9981L54.251 34.0194L54.1868 34.0402L54.1225 34.0608L54.0582 34.0809L53.9939 34.1007L53.9297 34.1201L53.8654 34.1392L53.8012 34.1579L53.7369 34.1762L53.6726 34.1941L53.6083 34.2117L53.5441 34.2289L53.4799 34.2458L53.4156 34.2623L53.3513 34.2784L53.287 34.2941L53.2228 34.3096L53.1585 34.3247L53.0942 34.3393L53.03 34.3536L52.9657 34.3676L52.9015 34.3812L52.8372 34.3944L52.7729 34.4073L52.7086 34.4199L52.6444 34.432L52.5801 34.4438L52.5159 34.4553L52.4516 34.4664L52.3873 34.4771L52.3231 34.4875L52.2588 34.4976L52.1946 34.5073L52.1303 34.5166L52.066 34.5257L52.0017 34.5343L51.9374 34.5426L51.8732 34.5506L51.8089 34.5583L51.7446 34.5656L51.6804 34.5725L51.6161 34.5792L51.5519 34.5854L51.4876 34.5913L51.4233 34.597L51.359 34.6022L51.3201 34.6053L51.2948 34.607L51.2306 34.6113L51.1663 34.6156L51.102 34.6191L51.0377 34.6223L50.9735 34.6253L50.9092 34.6274L50.8449 34.6295L50.7807 34.6309L50.7164 34.6318L50.6522 34.6326C50.6306 34.6327 50.6093 34.6325 50.5879 34.6324L50.5236 34.6322L50.4593 34.6312L50.3951 34.6299L50.3308 34.6282C50.3092 34.6275 50.288 34.6264 50.2666 34.6256C50.2452 34.6247 50.2236 34.624 50.2023 34.623L50.138 34.6194L50.0738 34.6156L50.0095 34.6111L49.9452 34.606C49.9238 34.6042 49.9022 34.6028 49.881 34.6008C49.8594 34.5988 49.8381 34.5965 49.8167 34.5943L49.7524 34.5879L49.6881 34.5804L49.6239 34.5726L49.5596 34.5641L49.4953 34.555C49.4739 34.5518 49.4524 34.5488 49.4311 34.5454C49.4095 34.5421 49.3882 34.5384 49.3668 34.5348C49.3454 34.5313 49.3238 34.5279 49.3026 34.5242C49.281 34.5203 49.2597 34.5161 49.2383 34.5121C49.2169 34.5081 49.1953 34.5043 49.174 34.5001C49.1524 34.4958 49.1312 34.4911 49.1098 34.4866C49.0883 34.4822 49.0668 34.4778 49.0455 34.4731C49.0239 34.4684 49.0026 34.4633 48.9813 34.4584L48.917 34.4433C48.8954 34.438 48.8741 34.4325 48.8527 34.427C48.8312 34.4216 48.8097 34.4161 48.7884 34.4104C48.7669 34.4046 48.7455 34.3986 48.7242 34.3926C48.7027 34.3866 48.6812 34.3806 48.6599 34.3743C48.6383 34.3679 48.617 34.3614 48.5956 34.3548C48.5741 34.3482 48.5527 34.3416 48.5314 34.3347C48.5098 34.3278 48.4884 34.3207 48.4671 34.3135C48.4457 34.3063 48.4241 34.2991 48.4029 34.2917C48.3813 34.2842 48.36 34.2763 48.3386 34.2685C48.3171 34.2607 48.2956 34.2529 48.2743 34.2449C48.2527 34.2367 48.2314 34.2281 48.21 34.2197C48.1886 34.2112 48.167 34.2028 48.1458 34.1941C48.1241 34.1852 48.1029 34.1758 48.0815 34.1667C48.06 34.1574 48.0384 34.1483 48.0172 34.1388C47.9956 34.1292 47.9743 34.1191 47.953 34.1092C47.9315 34.0992 47.91 34.0891 47.8887 34.0789C47.8672 34.0684 47.8457 34.0578 47.8244 34.0471C47.8029 34.0362 47.7815 34.0252 47.7602 34.014C47.7387 34.0028 47.7171 33.9916 47.6959 33.98C47.6742 33.9682 47.653 33.9561 47.6316 33.944C47.6101 33.9317 47.5886 33.9196 47.5674 33.907C47.5457 33.8943 47.5244 33.8813 47.5031 33.8682C47.4815 33.855 47.4602 33.8415 47.4389 33.8279C47.4174 33.8142 47.3957 33.8005 47.3746 33.7865C47.3529 33.7721 47.3317 33.7572 47.3103 33.7424C47.2887 33.7275 47.2673 33.7123 47.246 33.697C47.2245 33.6815 47.2029 33.666 47.1818 33.6501C47.1601 33.6337 47.1388 33.617 47.1175 33.6003C47.0959 33.5834 47.0745 33.5663 47.0533 33.549C47.0317 33.5313 47.0101 33.5137 46.989 33.4957C46.9673 33.4771 46.946 33.4581 46.9247 33.4392C46.903 33.4198 46.8817 33.4001 46.8604 33.3803C46.8388 33.3601 46.8173 33.3397 46.7962 33.319C46.7746 33.2979 46.753 33.2768 46.7319 33.2552C46.7101 33.2329 46.6888 33.2101 46.6677 33.1873C46.6459 33.1638 46.6245 33.1401 46.6034 33.1161C46.5816 33.0915 46.5602 33.0666 46.5391 33.0414C46.5174 33.0154 46.496 32.9892 46.4749 32.9627C46.4531 32.9353 46.4316 32.9076 46.4106 32.8795C46.3888 32.8505 46.3673 32.8212 46.3463 32.7915C46.3245 32.7606 46.303 32.7294 46.282 32.6977C46.2602 32.6647 46.2388 32.6313 46.2178 32.5975C46.1958 32.5621 46.1744 32.5262 46.1535 32.4899C46.1315 32.4518 46.1101 32.4131 46.0893 32.3739C46.0671 32.3325 46.0458 32.2904 46.025 32.248C46.0028 32.2027 45.9814 32.1568 45.9607 32.1105C45.9385 32.0606 45.9169 32.0102 45.8964 31.959C45.8738 31.9024 45.8527 31.8446 45.8322 31.7864C45.8095 31.7218 45.788 31.6564 45.768 31.5898C45.7447 31.5126 45.7232 31.4341 45.7037 31.3542C45.6793 31.2549 45.6581 31.1535 45.6394 31.0502C45.6117 30.8971 45.5902 30.7397 45.5751 30.578C45.5578 30.3913 45.549 30.199 45.549 30.0011C45.549 29.8031 45.5578 29.6106 45.5751 29.4238C45.5902 29.262 45.6117 29.1046 45.6394 28.9513C45.6581 28.848 45.6793 28.7464 45.7037 28.6471C45.7232 28.5673 45.7447 28.4888 45.768 28.4115C45.788 28.3449 45.8095 28.2794 45.8322 28.2147C45.8527 28.1565 45.8738 28.0988 45.8964 28.0421C45.9169 27.9908 45.9385 27.9404 45.9607 27.8905C45.9814 27.8441 46.0028 27.7982 46.025 27.753C46.0458 27.7105 46.0671 27.6684 46.0893 27.6269C46.1101 27.5878 46.1315 27.5491 46.1535 27.5109C46.1744 27.4746 46.1958 27.4387 46.2178 27.4032C46.2388 27.3694 46.2602 27.336 46.282 27.303C46.303 27.2714 46.3245 27.2401 46.3463 27.2092C46.3673 27.1795 46.3888 27.1502 46.4106 27.1211C46.4316 27.093 46.4531 27.0653 46.4749 27.0379C46.496 27.0113 46.5174 26.9851 46.5391 26.9592C46.5602 26.934 46.5816 26.9091 46.6034 26.8844C46.6245 26.8605 46.6459 26.8366 46.6677 26.8132C46.6888 26.7904 46.7101 26.7676 46.7319 26.7453C46.753 26.7236 46.7746 26.7025 46.7962 26.6813C46.8173 26.6607 46.8388 26.6403 46.8604 26.6201C46.8817 26.6003 46.903 26.5805 46.9247 26.5612C46.946 26.5422 46.9673 26.5232 46.989 26.5047C47.0101 26.4866 47.0317 26.469 47.0533 26.4514C47.0745 26.434 47.0959 26.4169 47.1175 26.3999C47.1388 26.3832 47.1601 26.3665 47.1818 26.3502C47.2029 26.3343 47.2245 26.3187 47.246 26.3032C47.2673 26.2878 47.2887 26.2728 47.3103 26.2578C47.3317 26.243 47.3529 26.2281 47.3746 26.2137C47.3957 26.1996 47.4174 26.186 47.4389 26.1723C47.4602 26.1587 47.4815 26.1452 47.5031 26.1319C47.5244 26.1189 47.5457 26.1059 47.5674 26.0931C47.5886 26.0806 47.6101 26.0684 47.6316 26.0562C47.653 26.0441 47.6742 26.0319 47.6959 26.0201C47.7171 26.0086 47.7387 25.9974 47.7602 25.9861C47.7815 25.9749 47.8029 25.9639 47.8244 25.953C47.8457 25.9423 47.8672 25.9317 47.8887 25.9212C47.91 25.9109 47.9315 25.9009 47.953 25.8909C47.9743 25.8809 47.9956 25.8709 48.0172 25.8612C48.0384 25.8517 48.06 25.8426 48.0815 25.8334C48.1029 25.8242 48.1241 25.8149 48.1458 25.806C48.167 25.7972 48.1886 25.7888 48.21 25.7804C48.2314 25.7719 48.2527 25.7633 48.2743 25.7551C48.2956 25.7471 48.3171 25.7393 48.3386 25.7315C48.36 25.7237 48.3813 25.7158 48.4029 25.7083C48.4241 25.7009 48.4457 25.6937 48.4671 25.6864C48.4884 25.6793 48.5098 25.6721 48.5314 25.6652C48.5527 25.6584 48.5741 25.6518 48.5956 25.6452C48.617 25.6386 48.6383 25.6321 48.6599 25.6257L48.7242 25.6074C48.7455 25.6014 48.7669 25.5953 48.7884 25.5896C48.8097 25.5838 48.8312 25.5784 48.8527 25.5729C48.8741 25.5675 48.8954 25.5619 48.917 25.5567L48.9813 25.5416C49.0026 25.5366 49.0239 25.5316 49.0455 25.5268C49.0668 25.5221 49.0883 25.5177 49.1098 25.5133C49.1312 25.5088 49.1524 25.5041 49.174 25.4998C49.1953 25.4956 49.2169 25.4918 49.2383 25.4878C49.2597 25.4838 49.281 25.4796 49.3026 25.4757C49.3238 25.472 49.3454 25.4686 49.3668 25.4651C49.3882 25.4615 49.4095 25.4578 49.4311 25.4545L49.4953 25.4449L49.5596 25.4357L49.6239 25.4272L49.6881 25.4195L49.7524 25.412L49.8167 25.4055C49.8381 25.4034 49.8594 25.401 49.881 25.3991C49.9022 25.3971 49.9238 25.3956 49.9452 25.3938L50.0095 25.3887L50.0738 25.3843L50.138 25.3805L50.2023 25.3769C50.2236 25.3758 50.2452 25.3751 50.2666 25.3743C50.288 25.3734 50.3092 25.3723 50.3308 25.3716L50.3951 25.37L50.4593 25.3686L50.5236 25.3676L50.5879 25.3674C50.6093 25.3674 50.6306 25.3671 50.6522 25.3672L50.7164 25.368L50.7807 25.369L50.8449 25.3704L50.9092 25.3724L50.9735 25.3745L51.0377 25.3775L51.102 25.3808L51.1663 25.3842L51.2306 25.3885L51.2948 25.3928L51.3201 25.3945L51.359 25.3976L51.4233 25.4028L51.4876 25.4083L51.5519 25.4142L51.6161 25.4203L51.6804 25.4269L51.7446 25.4338L51.8089 25.4409L51.8732 25.4484L51.9374 25.4563L52.0017 25.4645L52.066 25.473L52.1303 25.482L52.1946 25.4912L52.2588 25.5007L52.3231 25.5107L52.3873 25.521L52.4516 25.5316L52.5159 25.5426L52.5801 25.554L52.6444 25.5656L52.7086 25.5777L52.7729 25.5901L52.8372 25.6028L52.9015 25.616L52.9657 25.6295L53.03 25.6433L53.0942 25.6576L53.1585 25.6721L53.2228 25.687L53.287 25.7024L53.3513 25.7181L53.4156 25.7341L53.4799 25.7505L53.5441 25.7673L53.6083 25.7845L53.6726 25.802L53.7369 25.8199L53.8012 25.8382L53.8654 25.8569L53.9297 25.8759L53.9939 25.8953L54.0582 25.9151L54.1225 25.9352L54.1868 25.9557L54.251 25.9767L54.3153 25.9979L54.3796 26.0196L54.4439 26.0416L54.5081 26.0639L54.5724 26.0868L54.6366 26.1099L54.7009 26.1334L54.7652 26.1573L54.8294 26.1816L54.8937 26.2062L54.9579 26.2312L55.0222 26.2566L55.0865 26.2823L55.1508 26.3084L55.215 26.3348L55.2793 26.3617L55.3436 26.3888L55.4078 26.4164L55.4721 26.4442L55.5363 26.4724L55.6006 26.5009L55.6649 26.5299L55.7292 26.5591L55.7934 26.5887L55.8576 26.6185L55.9219 26.6488L55.9862 26.6793L56.0505 26.7101L56.1148 26.7413L56.179 26.7728L56.2433 26.8045L56.3075 26.8366L56.3715 26.8687V24.0453L56.3075 24.0295L56.2433 24.014L56.179 23.9988L56.1148 23.9837L56.0505 23.9688L55.9862 23.9541L55.9219 23.9396L55.8576 23.9252L55.7934 23.911L55.7292 23.8968L55.6649 23.8829L55.6006 23.8691L55.5363 23.8554L55.4721 23.8419L55.4078 23.8285L55.3436 23.8152L55.2793 23.802L55.215 23.789L55.1508 23.7761L55.0865 23.7633L55.0222 23.7507L54.9579 23.7381L54.8937 23.7258L54.8294 23.7135L54.7652 23.7014L54.7009 23.6894L54.6366 23.6775L54.5724 23.6657L54.5081 23.6541L54.4439 23.6426L54.3796 23.6312L54.3153 23.62L54.251 23.6088L54.1868 23.5979L54.1225 23.587L54.0582 23.5763L53.9939 23.5656L53.9297 23.5552L53.8654 23.5449L53.8012 23.5346L53.7369 23.5246L53.6726 23.5146L53.6083 23.5049L53.5441 23.4952L53.4799 23.4857L53.4156 23.4763L53.3513 23.4671L53.287 23.458L53.2228 23.4491L53.1585 23.4403L53.0942 23.4317L53.03 23.4231L52.9657 23.4148L52.9015 23.4066L52.8372 23.3986L52.7729 23.3907L52.7086 23.383L52.6444 23.3755L52.5801 23.3681L52.5159 23.3609L52.4516 23.3538L52.3873 23.3469L52.3231 23.3401L52.2588 23.3337L52.1946 23.3273L52.1303 23.3211L52.066 23.3151L52.0017 23.3093L51.9374 23.3037L51.8732 23.2982L51.8089 23.293L51.7446 23.2879L51.6804 23.2832L51.6161 23.2784L51.5519 23.2741L51.4876 23.2698L51.4233 23.2659L51.359 23.262L51.2948 23.2585L51.2306 23.2552L51.1663 23.2521L51.1334 23.2505L51.102 23.2492L51.0377 23.2465L50.9735 23.2438L50.9092 23.2412L50.8449 23.2389L50.7807 23.2367L50.7164 23.2345L50.6522 23.2326L50.5879 23.2308L50.5236 23.229L50.4593 23.2274L50.3951 23.226L50.3308 23.2247L50.2666 23.2234L50.2023 23.2226L50.138 23.2217L50.0738 23.2208L50.0095 23.2203L49.9452 23.22L49.881 23.2196L49.8167 23.2195L49.7524 23.2196L49.6881 23.2197L49.6239 23.2199L49.5596 23.2205L49.4953 23.2211L49.4311 23.2218L49.3668 23.2229L49.3026 23.2239L49.2383 23.2251L49.174 23.2267L49.1098 23.2283L49.0455 23.2299L48.9813 23.2319L48.917 23.2341L48.8527 23.2362L48.7884 23.2388L48.7242 23.2415L48.6599 23.2441L48.5956 23.2473L48.5314 23.2505L48.4671 23.2536L48.4029 23.2573L48.3386 23.261L48.2743 23.2648L48.21 23.269L48.1458 23.2733L48.0815 23.2777L48.0172 23.2826L47.953 23.2874L47.8887 23.2924L47.8244 23.2979L47.7602 23.3033L47.6959 23.309L47.6316 23.315L47.5674 23.321L47.5031 23.3275L47.4389 23.3341L47.3746 23.3407L47.3103 23.3479L47.246 23.3551L47.1818 23.3625L47.1175 23.3704L47.0533 23.3782L46.989 23.3865L46.9247 23.395L46.8604 23.4035L46.7962 23.4126L46.7319 23.4217L46.6677 23.4311L46.6034 23.4409L46.5391 23.4507L46.4749 23.461L46.4106 23.4715L46.3463 23.4822L46.282 23.4933L46.2178 23.5045L46.1535 23.5162L46.0893 23.5281L46.025 23.5403L45.9607 23.5528L45.8964 23.5654L45.8322 23.5787L45.768 23.592L45.7037 23.6058L45.6394 23.6198L45.5751 23.6341L45.5109 23.6489L45.4466 23.6637L45.3823 23.6793L45.3181 23.6949L45.2538 23.711L45.1896 23.7274L45.1253 23.7443L45.061 23.7615L44.9967 23.779L44.9325 23.7969L44.8682 23.8152L44.804 23.834L44.7397 23.853L44.6754 23.8726L44.6111 23.8924L44.5469 23.913C44.5254 23.9199 44.5038 23.9266 44.4826 23.9336L44.4184 23.9551C44.397 23.9623 44.3753 23.9693 44.3541 23.9766L44.2898 23.999L44.2256 24.0215C44.204 24.0291 44.1827 24.0371 44.1613 24.0449C44.1398 24.0527 44.1183 24.0604 44.097 24.0683L44.0327 24.0927C44.0113 24.1009 43.9897 24.1089 43.9685 24.1171L43.9042 24.1425L43.84 24.1681L43.7757 24.1945L43.7114 24.2213L43.6471 24.2488L43.5829 24.2768L43.5187 24.3053L43.4544 24.3347L43.3902 24.3644C43.3686 24.3745 43.3473 24.3849 43.3259 24.3951L43.2616 24.4262L43.1973 24.4582L43.1331 24.4908C43.1116 24.5019 43.09 24.5128 43.0688 24.524C43.0472 24.5353 43.0259 24.5468 43.0046 24.5583L42.9403 24.5931L42.876 24.6287C42.8544 24.6408 42.8331 24.653 42.8117 24.6653C42.7902 24.6776 42.7687 24.6899 42.7475 24.7023C42.7259 24.715 42.7046 24.7278 42.6832 24.7406C42.6616 24.7536 42.6402 24.7666 42.619 24.7798C42.5974 24.793 42.5759 24.8062 42.5547 24.8196C42.5331 24.8332 42.5117 24.8469 42.4904 24.8607L42.4262 24.9026C42.4046 24.9169 42.3831 24.931 42.3619 24.9454L42.2976 24.9895C42.276 25.0045 42.2547 25.0196 42.2334 25.0347C42.2118 25.05 42.1903 25.0654 42.1691 25.081C42.1476 25.0966 42.126 25.1123 42.1049 25.1281C42.0832 25.1443 42.0619 25.1607 42.0406 25.1771C42.019 25.1936 41.9976 25.2103 41.9763 25.2271C41.9547 25.2441 41.9333 25.2611 41.912 25.2783V25.2783V25.2783Z" fill="#E10238"/>
</svg>
