<svg width="100" height="60" viewBox="0 0 100 60" fill="none" xmlns="http://www.w3.org/2000/svg">
<rect width="100" height="60" rx="4" fill="white"/>
<path fill-rule="evenodd" clip-rule="evenodd" d="M56.1286 30.4854C56.1286 41.2637 47.392 50 36.614 50C25.8358 50 17.0985 41.2637 17.0985 30.4854C17.0985 19.7075 25.8358 10.9702 36.614 10.9702C47.392 10.9702 56.1286 19.7075 56.1286 30.4854" fill="#CC0000"/>
<path fill-rule="evenodd" clip-rule="evenodd" d="M62.8142 10.9702C57.7706 10.9702 53.1767 12.8832 49.7127 16.0215C49.008 16.6611 48.3502 17.3519 47.743 18.0875H51.6859C52.2243 18.7431 52.7206 19.4324 53.1736 20.1544H46.255C45.8411 20.8177 45.4648 21.507 45.1305 22.2212H54.2974C54.6107 22.8902 54.8864 23.5791 55.1239 24.2872H44.304C44.0789 24.9601 43.8889 25.6497 43.7372 26.3529H55.6901C55.9763 27.6852 56.1287 29.0674 56.1287 30.4854C56.1287 32.6519 55.7756 34.7373 55.1239 36.6849H44.304C44.5415 37.3923 44.8172 38.0822 45.1299 38.7521H54.2974C53.9625 39.4645 53.5881 40.1544 53.1717 40.8187H46.255C46.7061 41.5385 47.2033 42.2287 47.743 42.8834H51.6846C51.0786 43.6195 50.4202 44.3104 49.7133 44.95C53.177 48.0883 57.7706 50 62.8142 50C73.5918 50 82.3288 41.2637 82.3288 30.4854C82.3288 19.7084 73.5918 10.9702 62.8142 10.9702" fill="#FF9900"/>
<path fill-rule="evenodd" clip-rule="evenodd" d="M32.0568 32.622C31.8344 32.5967 31.7364 32.5887 31.5837 32.5887C30.3828 32.5887 29.7756 33.0007 29.7756 33.8146C29.7756 34.3158 30.0719 34.6343 30.5345 34.6343C31.3978 34.6343 32.0198 33.8128 32.0568 32.622V32.622ZM33.5979 36.209C33.3154 36.209 31.8418 36.209 31.8418 36.209L31.8822 35.3748C31.3469 36.0335 30.6323 36.3481 29.6618 36.3481C28.5139 36.3481 27.7266 35.4519 27.7266 34.1495C27.7266 32.189 29.0955 31.0458 31.4459 31.0458C31.6867 31.0458 31.9945 31.068 32.3097 31.1078C32.3751 30.8419 32.3923 30.7291 32.3923 30.5857C32.3923 30.0527 32.0235 29.8529 31.0338 29.8529C29.9973 29.8424 29.1424 30.1005 28.7912 30.2159C28.8134 30.082 29.0851 28.4053 29.0851 28.4053C30.1404 28.095 30.8368 27.9791 31.6204 27.9791C33.44 27.9791 34.4037 28.7957 34.4016 30.3396C34.4053 30.7537 34.3365 31.2629 34.2301 31.9346C34.0463 33.1003 33.6515 35.6005 33.5979 36.209V36.209Z" fill="#000066"/>
<path fill-rule="evenodd" clip-rule="evenodd" d="M26.8399 36.209H24.7209L25.9354 28.6002L23.2248 36.209H21.7812L21.6027 28.6427L20.3271 36.209H18.3441L20.0005 26.3103H23.0472L23.2313 31.851L25.09 26.3103H28.4784L26.8399 36.209" fill="#000066"/>
<path fill-rule="evenodd" clip-rule="evenodd" d="M65.4318 32.622C65.2094 32.5967 65.1126 32.5887 64.9602 32.5887C63.7584 32.5887 63.1518 33.0007 63.1518 33.8146C63.1518 34.3158 63.4469 34.6343 63.9108 34.6343C64.7734 34.6343 65.3957 33.8128 65.4318 32.622V32.622ZM66.9738 36.209C66.6907 36.209 65.2184 36.209 65.2184 36.209L65.2582 35.3748C64.7228 36.0335 64.0085 36.3481 63.0386 36.3481C61.8892 36.3481 61.1028 35.4519 61.1028 34.1495C61.1028 32.189 62.4724 31.0458 64.8221 31.0458C65.0626 31.0458 65.3698 31.068 65.6853 31.1078C65.751 30.8419 65.7679 30.7291 65.7679 30.5857C65.7679 30.0527 65.3991 29.8529 64.4094 29.8529C63.3729 29.8424 62.5183 30.1005 62.1658 30.2159C62.1893 30.082 62.4616 28.4053 62.4616 28.4053C63.5163 28.095 64.2133 27.9791 64.9957 27.9791C66.8165 27.9791 67.779 28.7957 67.7772 30.3396C67.7809 30.7537 67.7127 31.2629 67.6057 31.9346C67.4225 33.1003 67.0268 35.6005 66.9738 36.209V36.209Z" fill="#000066"/>
<path fill-rule="evenodd" clip-rule="evenodd" d="M43.0134 36.0866C42.4333 36.2691 41.9814 36.3481 41.4911 36.3481C40.4083 36.3481 39.8171 35.7257 39.8171 34.5794C39.802 34.2235 39.9728 33.2875 40.1073 32.4339C40.23 31.6817 41.0263 26.9404 41.0263 26.9404H43.1318L42.886 28.1589H44.1581L43.871 30.0938H42.5945C42.35 31.6243 42.0012 33.5315 41.9972 33.7844C41.9972 34.1995 42.2186 34.3808 42.7228 34.3808C42.9643 34.3808 43.1512 34.3561 43.294 34.3049L43.0134 36.0866" fill="#000066"/>
<path fill-rule="evenodd" clip-rule="evenodd" d="M49.47 36.0215C48.7465 36.2426 48.0492 36.3506 47.3093 36.3481C44.9516 36.345 43.7227 35.1145 43.7227 32.7568C43.7227 30.0052 45.2859 27.9791 47.4086 27.9791C49.1446 27.9791 50.2539 29.1134 50.2539 30.8916C50.2539 31.4828 50.1781 32.0589 49.994 32.8718H45.8003C45.6588 34.0397 46.4057 34.5261 47.6316 34.5261C48.3844 34.5261 49.0648 34.3706 49.8206 34.02L49.47 36.0215V36.0215ZM48.2864 31.2493C48.2984 31.0813 48.5093 29.8122 47.3056 29.8122C46.6358 29.8122 46.1556 30.3235 45.961 31.2493H48.2864V31.2493Z" fill="#000066"/>
<path fill-rule="evenodd" clip-rule="evenodd" d="M34.8684 30.7041C34.8684 31.7215 35.3619 32.4237 36.4814 32.9514C37.339 33.3551 37.4726 33.4744 37.4726 33.8399C37.4726 34.341 37.0938 34.5686 36.2559 34.5686C35.6234 34.5686 35.0356 34.4693 34.3574 34.2501C34.3574 34.2501 34.0795 36.0252 34.0663 36.11C34.5477 36.2143 34.977 36.3114 36.271 36.3481C38.5063 36.3481 39.5388 35.4969 39.5388 33.6573C39.5388 32.5514 39.1071 31.9022 38.0456 31.4137C37.1577 31.0063 37.055 30.915 37.055 30.5394C37.055 30.1042 37.4075 29.8819 38.0918 29.8819C38.5079 29.8819 39.0756 29.9263 39.6144 30.0025L39.9157 28.1354C39.3674 28.0481 38.5353 27.9791 38.0511 27.9791C35.6814 27.9791 34.8607 29.2167 34.8684 30.7041" fill="#000066"/>
<path fill-rule="evenodd" clip-rule="evenodd" d="M59.7739 28.1915C60.3623 28.1915 60.9118 28.3445 61.6671 28.726L62.0141 26.5777C61.7026 26.4555 60.6105 25.7397 59.6853 25.7397C58.2679 25.7397 57.0683 26.4441 56.226 27.604C54.9961 27.1969 54.49 28.0197 53.8708 28.8401L53.3203 28.9684C53.3619 28.6985 53.3999 28.4305 53.3878 28.1588H51.4412C51.176 30.651 50.7051 33.1743 50.3365 35.6674L50.24 36.209H52.3596C52.7134 33.9102 52.9067 32.4388 53.0245 31.4421L53.8227 30.9998C53.9426 30.5554 54.3149 30.4061 55.0637 30.4243C54.9659 30.9492 54.9129 31.5022 54.9129 32.0743C54.9129 34.7083 56.3358 36.3481 58.6155 36.3481C59.203 36.3481 59.7075 36.271 60.4887 36.0582L60.86 33.8025C60.1575 34.1476 59.5823 34.3102 59.0608 34.3102C57.8291 34.3102 57.0837 33.4007 57.0837 31.8985C57.0837 29.7184 58.1915 28.1915 59.7739 28.1915" fill="#000066"/>
<path fill-rule="evenodd" clip-rule="evenodd" d="M77.711 26.3103L77.2401 29.1701C76.6618 28.408 76.0395 27.856 75.2179 27.856C74.149 27.856 73.176 28.6665 72.5388 29.86C71.6516 29.6759 70.7347 29.3628 70.7347 29.3628L70.7341 29.3706C70.8047 28.7035 70.8346 28.2976 70.8275 28.1588H68.8812C68.6169 30.651 68.1454 33.1744 67.7771 35.6675L67.6797 36.209H69.7999C70.0861 34.3512 70.3048 32.8067 70.4661 31.5836C71.1908 30.9286 71.5535 30.359 72.2841 30.396C71.96 31.1799 71.7709 32.0823 71.7709 33.0081C71.7709 35.0198 72.788 36.3481 74.3288 36.3481C75.1053 36.3481 75.7012 36.0801 76.2822 35.4596L76.1823 36.2084H78.1869L79.8007 26.3103H77.711V26.3103ZM75.0615 34.3494C74.3405 34.3494 73.9754 33.8146 73.9754 32.7623C73.9754 31.1799 74.6578 30.0583 75.6185 30.0583C76.3466 30.0583 76.7414 30.6122 76.7414 31.6348C76.7414 33.2308 76.0475 34.3494 75.0615 34.3494V34.3494Z" fill="#000066"/>
<path fill-rule="evenodd" clip-rule="evenodd" d="M27.4493 35.6215H25.3309L26.5451 28.0126L23.8352 35.6215H22.391L22.2127 28.0567L20.9369 35.6215H18.9539L20.6103 25.7237H23.657L23.7421 31.851L25.7979 25.7237H29.0882L27.4493 35.6215" fill="white"/>
<path fill-rule="evenodd" clip-rule="evenodd" d="M32.6665 32.0357C32.4444 32.0098 32.3464 32.0027 32.1937 32.0027C30.9928 32.0027 30.3852 32.4141 30.3852 33.2274C30.3852 33.7279 30.6819 34.0483 31.1448 34.0483C32.0077 34.0483 32.6298 33.2268 32.6665 32.0357V32.0357ZM34.2072 35.6215C33.9251 35.6215 32.4521 35.6215 32.4521 35.6215L32.4922 34.7879C31.9569 35.4463 31.2423 35.7612 30.2718 35.7612C29.1236 35.7612 28.3365 34.8638 28.3365 33.5617C28.3365 31.6009 29.7058 30.4592 32.0562 30.4592C32.2964 30.4592 32.6042 30.4811 32.9197 30.5218C32.9851 30.2553 33.0023 30.1422 33.0023 29.9981C33.0023 29.4655 32.6335 29.2672 31.6438 29.2672C30.607 29.2549 29.7524 29.513 29.4008 29.6281C29.4233 29.4948 29.6947 27.8181 29.6947 27.8181C30.7504 27.5084 31.4468 27.3915 32.2304 27.3915C34.0496 27.3915 35.0131 28.2091 35.0115 29.7523C35.0149 30.1659 34.9468 30.6775 34.8401 31.3474C34.656 32.5122 34.2612 35.0139 34.2072 35.6215V35.6215Z" fill="white"/>
<path fill-rule="evenodd" clip-rule="evenodd" d="M62.6235 25.9902L62.2765 28.1382C61.52 27.7579 60.972 27.604 60.3842 27.604C58.8024 27.604 57.6928 29.1328 57.6928 31.3132C57.6928 32.8154 58.4385 33.723 59.6702 33.723C60.1921 33.723 60.7685 33.5617 61.4694 33.2154L61.0972 35.471C60.3173 35.6835 59.8124 35.7612 59.2252 35.7612C56.944 35.7612 55.5232 34.1211 55.5232 31.4877C55.5232 27.9491 57.4874 25.4761 60.2951 25.4761C61.2203 25.4761 62.3129 25.8681 62.6235 25.9902" fill="white"/>
<path fill-rule="evenodd" clip-rule="evenodd" d="M66.0412 32.0357C65.8203 32.0098 65.722 32.0027 65.5696 32.0027C64.3693 32.0027 63.7615 32.4141 63.7615 33.2274C63.7615 33.7279 64.0578 34.0483 64.5204 34.0483C65.383 34.0483 66.0057 33.2268 66.0412 32.0357V32.0357ZM67.5832 35.6215C67.3013 35.6215 65.8281 35.6215 65.8281 35.6215L65.8678 34.7879C65.3325 35.4463 64.6179 35.7612 63.6483 35.7612C62.4989 35.7612 61.7128 34.8638 61.7128 33.5617C61.7128 31.6009 63.0808 30.4592 65.4318 30.4592C65.672 30.4592 65.9792 30.4811 66.2944 30.5218C66.36 30.2553 66.3773 30.1422 66.3773 29.9981C66.3773 29.4655 66.0094 29.2672 65.0191 29.2672C63.9832 29.2549 63.1289 29.513 62.7767 29.6281C62.799 29.4948 63.0707 27.8181 63.0707 27.8181C64.1263 27.5084 64.8221 27.3915 65.6057 27.3915C67.4249 27.3915 68.3893 28.2091 68.3868 29.7523C68.3912 30.1659 68.3224 30.6775 68.2157 31.3474C68.0322 32.5122 67.6374 35.0139 67.5832 35.6215V35.6215Z" fill="white"/>
<path fill-rule="evenodd" clip-rule="evenodd" d="M43.6227 35.4993C43.0432 35.6819 42.5908 35.7612 42.101 35.7612C41.0179 35.7612 40.4264 35.1385 40.4264 33.9934C40.4116 33.6363 40.5828 32.7019 40.7176 31.8473C40.8394 31.0945 41.636 26.3538 41.636 26.3538H43.742L43.4956 27.5719H44.5769L44.2888 29.5062H43.2042C42.9596 31.0383 42.6108 32.9443 42.6065 33.1971C42.6065 33.6135 42.8289 33.7936 43.3325 33.7936C43.574 33.7936 43.7605 33.7698 43.9039 33.7174L43.6227 35.4993" fill="white"/>
<path fill-rule="evenodd" clip-rule="evenodd" d="M50.0806 35.4355C49.3568 35.6573 48.658 35.7618 47.9191 35.7612C45.5611 35.7597 44.333 34.5276 44.333 32.1702C44.333 29.4177 45.896 27.3915 48.0171 27.3915C49.755 27.3915 50.8637 28.5258 50.8637 30.3062C50.8637 30.8962 50.7866 31.472 50.6046 32.2852H46.4104C46.2682 33.4531 47.0161 33.9404 48.2407 33.9404C48.9942 33.9404 49.6742 33.7844 50.431 33.4328L50.0806 35.4355V35.4355ZM48.8967 30.6618C48.9081 30.4934 49.12 29.225 47.9166 29.225C47.2462 29.225 46.766 29.7372 46.5708 30.6618H48.8967V30.6618Z" fill="white"/>
<path fill-rule="evenodd" clip-rule="evenodd" d="M35.4779 30.1166C35.4779 31.1358 35.972 31.8365 37.0918 32.3648C37.9494 32.7682 38.0824 32.8875 38.0824 33.2533C38.0824 33.7551 37.7039 33.9814 36.8654 33.9814C36.2335 33.9814 35.6454 33.8834 34.9669 33.6647C34.9669 33.6647 34.6893 35.4386 34.6764 35.5222C35.1575 35.6277 35.5871 35.7239 36.8805 35.7612C39.1164 35.7612 40.1489 34.9103 40.1489 33.0707C40.1489 31.9642 39.7166 31.3153 38.6554 30.828C37.7672 30.4194 37.6651 30.329 37.6651 29.9528C37.6651 29.5176 38.0173 29.2937 38.7022 29.2937C39.1173 29.2937 39.6857 29.34 40.2242 29.4159L40.5258 27.5491C39.9772 27.4625 39.1457 27.3915 38.6612 27.3915C36.2909 27.3915 35.4708 28.6295 35.4779 30.1166" fill="white"/>
<path fill-rule="evenodd" clip-rule="evenodd" d="M78.7966 35.6215H76.7926L76.8919 34.8724C76.3106 35.4932 75.7151 35.7612 74.9385 35.7612C73.399 35.7612 72.3804 34.4344 72.3804 32.4206C72.3804 29.7431 73.9597 27.4862 75.8277 27.4862C76.6492 27.4862 77.2713 27.8217 77.8508 28.5841L78.3208 25.7237H80.4102L78.7966 35.6215V35.6215ZM75.671 33.7615C76.6582 33.7615 77.3508 32.6436 77.3508 31.0491C77.3508 30.0262 76.9564 29.4704 76.2283 29.4704C75.2673 29.4704 74.5851 30.5924 74.5851 32.1754C74.5851 33.2289 74.9506 33.7615 75.671 33.7615V33.7615Z" fill="white"/>
<path fill-rule="evenodd" clip-rule="evenodd" d="M69.4916 27.572C69.2267 30.0635 68.7555 32.5868 68.3869 35.0803L68.2904 35.6215H70.4094C71.1675 30.6988 71.3497 29.7382 72.5389 29.8581C72.728 28.8506 73.0805 27.9682 73.3429 27.5235C72.4556 27.3385 71.9601 27.84 71.3106 28.7929C71.3624 28.3806 71.4558 27.9806 71.4382 27.572H69.4916" fill="white"/>
<path fill-rule="evenodd" clip-rule="evenodd" d="M52.0519 27.572C51.7857 30.0635 51.3139 32.5868 50.946 35.0803L50.8497 35.6215H52.9694C53.7277 30.6988 53.9094 29.7382 55.0967 29.8581C55.287 28.8506 55.6401 27.9682 55.9019 27.5235C55.0156 27.3385 54.5191 27.84 53.8708 28.7929C53.922 28.3806 54.0161 27.9806 53.9976 27.572H52.0519" fill="white"/>
</svg>
