<svg width="101" height="61" viewBox="0 0 101 61" fill="none" xmlns="http://www.w3.org/2000/svg">
<rect width="100" height="60" rx="4" transform="matrix(1 0 0 -1 0.1875 60.8472)" fill="white"/>
<path fill-rule="evenodd" clip-rule="evenodd" d="M61.5313 27.2496C61.2626 29.0136 59.9156 29.0136 58.6122 29.0136H57.8709L58.3911 25.7201C58.4222 25.5211 58.5939 25.3748 58.7953 25.3748H59.1356C60.0226 25.3748 60.8603 25.3748 61.2924 25.8798C61.5509 26.182 61.6288 26.6306 61.5313 27.2496M60.9642 22.6471H56.0499C55.7135 22.6471 55.4277 22.8917 55.3751 23.2237L53.3882 35.8248C53.3489 36.0732 53.5415 36.2981 53.7924 36.2981H56.3141C56.5492 36.2981 56.7494 36.1271 56.7862 35.8952L57.3501 32.3223C57.402 31.9902 57.6884 31.7457 58.0242 31.7457H59.5791C62.8162 31.7457 64.6847 30.1794 65.1726 27.0741C65.3924 25.7169 65.1814 24.6499 64.5459 23.9029C63.8471 23.0818 62.6084 22.6471 60.9642 22.6471" fill="#0079C1"/>
<path fill-rule="evenodd" clip-rule="evenodd" d="M26.4804 27.2496C26.2117 29.0136 24.8647 29.0136 23.5613 29.0136H22.82L23.3402 25.7201C23.3713 25.5211 23.543 25.3748 23.7445 25.3748H24.0847C24.9717 25.3748 25.8094 25.3748 26.2415 25.8798C26.5 26.182 26.5779 26.6306 26.4804 27.2496M25.9133 22.6471H20.999C20.6626 22.6471 20.3768 22.8917 20.3243 23.2237L18.3373 35.8248C18.298 36.0732 18.49 36.2981 18.7415 36.2981H21.0884C21.4242 36.2981 21.7099 36.0536 21.7625 35.7222L22.2992 32.3223C22.3512 31.9902 22.6375 31.7457 22.9734 31.7457H24.5282C27.7653 31.7457 29.6338 30.1794 30.1217 27.0741C30.3415 25.7169 30.1306 24.6499 29.4951 23.9029C28.7962 23.0818 27.5575 22.6471 25.9133 22.6471" fill="#00457C"/>
<path fill-rule="evenodd" clip-rule="evenodd" d="M37.3222 31.7734C37.0948 33.1179 36.0278 34.0208 34.6662 34.0208C33.9838 34.0208 33.437 33.801 33.086 33.3853C32.7381 32.9735 32.607 32.3861 32.7172 31.7329C32.9288 30.3998 34.0136 29.4684 35.3543 29.4684C36.0227 29.4684 36.5651 29.6901 36.9231 30.1096C37.2836 30.5322 37.4255 31.1227 37.3222 31.7734M40.6018 27.1931H38.2486C38.0471 27.1931 37.8754 27.3395 37.8437 27.5391L37.7404 28.1967L37.5763 27.9585C37.0663 27.2191 35.9302 26.9713 34.7961 26.9713C32.1964 26.9713 29.9756 28.9419 29.5435 31.705C29.3185 33.0837 29.6379 34.401 30.4198 35.3204C31.1376 36.165 32.1622 36.5166 33.3831 36.5166C35.4791 36.5166 36.6411 35.1708 36.6411 35.1708L36.5359 35.8247C36.4967 36.0731 36.6886 36.298 36.9408 36.298H39.0596C39.396 36.298 39.6818 36.0541 39.7344 35.7221L41.0067 27.6664C41.0459 27.418 40.8533 27.1931 40.6018 27.1931" fill="#00457C"/>
<path fill-rule="evenodd" clip-rule="evenodd" d="M72.3732 31.7734C72.1457 33.1179 71.0787 34.0208 69.7171 34.0208C69.0347 34.0208 68.4879 33.801 68.1369 33.3853C67.7884 32.9735 67.6579 32.3861 67.7681 31.7329C67.9797 30.3998 69.0645 29.4684 70.4052 29.4684C71.0736 29.4684 71.616 29.6901 71.974 30.1096C72.3345 30.5322 72.4764 31.1227 72.3732 31.7734M75.6527 27.1931H73.2995C73.098 27.1931 72.9263 27.3395 72.8946 27.5391L72.7913 28.1967L72.6266 27.9585C72.1172 27.2191 70.9811 26.9713 69.847 26.9713C67.2473 26.9713 65.0265 28.9419 64.5944 31.705C64.3695 33.0837 64.6888 34.401 65.4707 35.3204C66.1885 36.165 67.2131 36.5166 68.434 36.5166C70.53 36.5166 71.692 35.1708 71.692 35.1708L71.5868 35.8247C71.5476 36.0731 71.7395 36.298 71.9917 36.298H74.1105C74.4469 36.298 74.7327 36.0541 74.7853 35.7221L76.0576 27.6664C76.0968 27.418 75.9042 27.1931 75.6527 27.1931" fill="#0079C1"/>
<path fill-rule="evenodd" clip-rule="evenodd" d="M53.1349 27.1932H50.7696C50.5434 27.1932 50.3318 27.3053 50.2051 27.4929L46.942 32.2981L45.5595 27.6804C45.4727 27.3915 45.2066 27.1932 44.905 27.1932H42.5803C42.2996 27.1932 42.1019 27.4694 42.1925 27.7349L44.7966 35.38L42.3471 38.8363C42.1551 39.1075 42.349 39.4826 42.6817 39.4826H45.0444C45.268 39.4826 45.4778 39.373 45.6057 39.1892L53.4713 27.8363C53.6595 27.5645 53.4656 27.1932 53.1349 27.1932" fill="#00457C"/>
<path fill-rule="evenodd" clip-rule="evenodd" d="M78.4262 22.9934L76.4094 35.8252C76.3701 36.0735 76.5621 36.2985 76.8137 36.2985H78.8425C79.1783 36.2985 79.4647 36.0539 79.5166 35.7219L81.5055 23.1207C81.5448 22.8724 81.3528 22.6474 81.1006 22.6474H78.8311C78.6289 22.6474 78.4572 22.7938 78.4262 22.9934" fill="#0079C1"/>
</svg>
