<svg width="100" height="60" viewBox="0 0 100 60" fill="none" xmlns="http://www.w3.org/2000/svg">
<rect width="100" height="60" rx="4" fill="white"/>
<path fill-rule="evenodd" clip-rule="evenodd" d="M47.097 32.2708V31.0479H42.3827C40.0696 31.0479 38.9941 31.8437 38.9941 33.0666C38.9941 34.201 40.0253 35.188 42.6919 35.188C45.9773 35.1876 47.097 34.8931 47.097 32.2708V32.2708V32.2708ZM37.0196 24.0642L35.3548 25.7438C33.808 24.8158 32.2316 24.1822 30.1101 24.1822C27.5906 24.1822 26.751 25.0369 26.751 26.2004C26.751 26.9372 27.3551 27.6593 29.3296 27.792L32.5707 27.998C34.5742 28.1012 35.9888 28.6758 36.9021 29.5596C37.9628 28.6463 39.5539 28.0712 41.6459 28.0712H47.097V26.3474C47.097 24.7563 45.9036 24.1965 43.0753 24.1965C41.0275 24.1965 39.7014 24.8006 38.6702 25.7585L37.0196 24.0642V24.0642ZM66.3085 28.3223H75.4136C75.4136 25.4051 73.248 23.9615 70.8463 23.9615C68.4447 23.9615 66.3085 25.3904 66.3085 28.3223V28.3223V28.3223ZM52.6808 29.6042C52.725 32.3593 52.7693 32.7864 53.4761 33.5523C54.036 34.1568 55.2442 34.8636 56.8795 34.8636C58.4706 34.8636 59.5018 34.1563 60.0617 33.5523C60.769 32.7864 60.857 32.3146 60.857 29.6042C60.857 26.8639 60.769 26.3926 60.0617 25.6263C59.5018 25.0222 58.4701 24.3149 56.8795 24.3149C55.2442 24.3149 54.036 25.0222 53.4761 25.6263C52.7693 26.3921 52.6513 26.8345 52.6808 29.6042V29.6042V29.6042ZM50.2059 23.5634C50.3386 23.4016 50.4709 23.2394 50.6335 23.0625C51.5169 22.1054 53.2554 21 55.804 21C57.8075 21 59.3991 21.6631 60.8574 22.9892V21.2064H64.8059V23.0482C66.3675 21.5746 68.4599 21 70.4192 21C74.7358 21 78.4484 23.9615 78.4631 28.9117C78.4779 29.766 78.3751 31.2838 78.3751 31.2838H66.3085C66.3085 34.0241 68.1798 35.0553 70.8758 35.0553C72.3785 35.0553 74.2792 34.3775 75.4284 33.3463L78.0802 35.2761C76.1504 37.1915 73.5719 38.2228 70.9496 38.2228C68.7991 38.2228 66.4859 37.7219 64.8059 36.1893V37.6039C64.8059 42.6721 60.7842 45 56.3053 45C53.801 45 51.2519 43.8655 49.5134 42.186L52.5633 40.094C53.5208 40.9188 54.8764 41.6114 56.3791 41.6114C59.0161 41.6114 60.8574 40.3295 60.8574 37.9721V36.2483C59.635 37.4123 57.808 38.208 55.804 38.208C53.5941 38.208 52.003 37.3828 51.0307 36.5432V38.2375H47.097V36.5285H47.0233C46.2132 37.6924 44.8576 38.2228 42.191 38.2228C39.7009 38.2228 37.8007 37.5007 36.6367 36.3368C35.1636 37.545 32.821 38.1933 30.1396 38.1933C26.9722 38.1933 24.0402 37.2063 21.5354 35.1876L24.2757 32.8601C25.97 34.289 27.8265 35.0258 30.4488 35.0258C32.6882 35.0258 34.3088 34.289 34.3088 32.8601C34.3088 31.6667 33.2628 31.3133 31.922 31.2101L28.4449 30.9451C25.2042 30.7088 22.8026 29.0591 22.8026 26.1714C22.8026 22.7533 25.97 21 30.1101 21C33.0864 21 35.2221 21.6778 37.0049 22.768C38.449 21.4718 40.3345 21.0147 42.8836 21.0147C46.2869 21.0147 48.9388 21.7073 50.2059 23.5634V23.5634V23.5634Z" fill="#008469"/>
</svg>
