<svg width="100" height="60" viewBox="0 0 100 60" fill="none" xmlns="http://www.w3.org/2000/svg">
<rect width="100" height="60" rx="4" fill="white"/>
<path fill-rule="evenodd" clip-rule="evenodd" d="M20.698 19.7837C20.8155 19.7837 20.934 19.8241 21.0473 19.9032C20.1745 20.3193 19.2389 21.3674 18.8438 23.4603C18.2663 23.6415 17.7019 23.8185 17.1801 23.9823C17.6429 22.3859 18.7418 19.7837 20.698 19.7837V19.7837ZM21.5072 20.5598C21.6746 20.985 21.7835 21.5951 21.7835 22.4186C21.7835 22.4607 21.7832 22.4992 21.7829 22.5382C21.1199 22.7462 20.3999 22.972 19.6781 23.1986C20.0834 21.6139 20.843 20.8485 21.5072 20.5598V20.5598ZM23.5163 21.9947C23.2138 22.0896 22.8699 22.1974 22.4972 22.3143C22.4976 22.2416 22.4977 22.1699 22.4977 22.0917C22.4977 21.4093 22.4044 20.86 22.2543 20.4245C22.8569 20.5012 23.2581 21.1955 23.5163 21.9947V21.9947ZM28.4074 23.2094C28.3928 23.1018 28.2999 23.0423 28.223 23.0358C28.1463 23.0293 26.5232 22.9074 26.5232 22.9074C26.5232 22.9074 25.3959 21.7735 25.2722 21.6481C25.1484 21.5228 24.9067 21.5608 24.8128 21.5888C24.7989 21.5929 24.5665 21.6656 24.1819 21.7861C23.8053 20.6883 23.1408 19.6794 21.9717 19.6794C21.9394 19.6794 21.9062 19.6808 21.8729 19.6827C21.5404 19.2372 21.1285 19.0437 20.7728 19.0437C18.0494 19.0437 16.7482 22.493 16.3402 24.246C15.282 24.5782 14.5301 24.8144 14.4341 24.845C13.8432 25.0326 13.8247 25.0515 13.7472 25.6155C13.6887 26.0424 12.1431 38.1527 12.1431 38.1527L24.1869 40.439L30.7127 39.0087C30.7127 39.0087 28.4218 23.317 28.4074 23.2094V23.2094Z" fill="#8CB849"/>
<path fill-rule="evenodd" clip-rule="evenodd" d="M28.223 23.0358C28.1463 23.0293 26.5231 22.9074 26.5231 22.9074C26.5231 22.9074 25.3959 21.7735 25.2722 21.6482C25.2259 21.6013 25.1635 21.5774 25.0981 21.5671L24.1875 40.4388L30.7126 39.0087C30.7126 39.0087 28.4218 23.3172 28.4074 23.2094C28.3928 23.1018 28.2998 23.0423 28.223 23.0358" fill="#5A873E"/>
<path fill-rule="evenodd" clip-rule="evenodd" d="M21.9716 26.689L21.167 29.114C21.167 29.114 20.4619 28.7328 19.5978 28.7328C18.3309 28.7328 18.2671 29.5383 18.2671 29.7413C18.2671 30.8489 21.1166 31.2732 21.1166 33.8675C21.1166 35.9085 19.839 37.2229 18.1161 37.2229C16.0485 37.2229 14.9915 35.9192 14.9915 35.9192L15.545 34.0662C15.545 34.0662 16.6317 35.0115 17.5488 35.0115C18.1478 35.0115 18.3918 34.5335 18.3918 34.1843C18.3918 32.7395 16.0539 32.6751 16.0539 30.3011C16.0539 28.3031 17.4693 26.3695 20.3267 26.3695C21.4277 26.3695 21.9716 26.689 21.9716 26.689" fill="#FFFFFE"/>
<path fill-rule="evenodd" clip-rule="evenodd" d="M38.3199 31.2351C37.6691 30.8772 37.3344 30.5758 37.3344 30.1612C37.3344 29.6337 37.7992 29.2946 38.5245 29.2946C39.3691 29.2946 40.1235 29.6526 40.1235 29.6526L40.7186 27.8064C40.7186 27.8064 40.1715 27.3731 38.5616 27.3731C36.321 27.3731 34.7682 28.673 34.7682 30.5005C34.7682 31.5366 35.4934 32.3279 36.4604 32.893C37.2414 33.345 37.5203 33.6654 37.5203 34.1365C37.5203 34.6264 37.1298 35.0218 36.4046 35.0218C35.3243 35.0218 34.3034 34.4567 34.3034 34.4567L33.6711 36.303C33.6711 36.303 34.6138 36.9434 36.2 36.9434C38.506 36.9434 40.1608 35.7942 40.1608 33.722C40.1608 32.6104 39.324 31.8191 38.3199 31.2351" fill="black"/>
<path fill-rule="evenodd" clip-rule="evenodd" d="M47.5057 27.3542C46.3715 27.3542 45.479 27.9005 44.7909 28.7295L44.7538 28.7106L45.7393 23.4921H43.1732L40.6815 36.7739H43.2475L44.103 32.2337C44.4378 30.5192 45.3116 29.4643 46.1298 29.4643C46.7062 29.4643 46.9295 29.8598 46.9295 30.425C46.9295 30.7829 46.8921 31.2162 46.8178 31.5742L45.8509 36.7739H48.4171L49.421 31.4047C49.5326 30.8394 49.6071 30.1612 49.6071 29.7092C49.6071 28.2397 48.8446 27.3542 47.5057 27.3542" fill="black"/>
<path fill-rule="evenodd" clip-rule="evenodd" d="M54.1444 34.9653C53.2704 34.9653 52.8986 34.2118 52.8986 33.2699C52.8986 31.7815 53.6609 29.3512 55.0556 29.3512C55.9666 29.3512 56.2641 30.1425 56.2641 30.9149C56.2641 32.5163 55.5017 34.9653 54.1444 34.9653V34.9653ZM55.4088 27.3542C52.3221 27.3542 50.2767 30.1801 50.2767 33.3263C50.2767 35.3422 51.5039 36.9623 53.8097 36.9623C56.8406 36.9623 58.8859 34.2118 58.8859 30.9902C58.8859 29.1252 57.8075 27.3542 55.4088 27.3542V27.3542Z" fill="black"/>
<path fill-rule="evenodd" clip-rule="evenodd" d="M62.9957 35.0029C62.3293 35.0029 61.9357 34.6264 61.9357 34.6264L62.3634 32.1959C62.661 30.5758 63.4976 29.5019 64.3903 29.5019C65.1712 29.5019 65.4129 30.2367 65.4129 30.9336C65.4129 32.6104 64.4274 35.0029 62.9957 35.0029V35.0029ZM65.4502 27.3542C63.7183 27.3542 62.7353 28.899 62.7353 28.899H62.6981L62.8469 27.5049H60.5784C60.4668 28.4469 60.2622 29.8787 60.0576 30.9525L58.2725 40.4665H60.8386L61.5452 36.6232H61.601C61.601 36.6232 62.1279 36.9623 63.1073 36.9623C66.1196 36.9623 68.0905 33.835 68.0905 30.67C68.0905 28.9179 67.3282 27.3542 65.4502 27.3542V27.3542Z" fill="black"/>
<path fill-rule="evenodd" clip-rule="evenodd" d="M71.754 23.6239C70.936 23.6239 70.285 24.2833 70.285 25.1311C70.285 25.9035 70.7685 26.4312 71.4937 26.4312H71.5309C72.3304 26.4312 73.0185 25.8846 73.0372 24.924C73.0372 24.1703 72.535 23.6239 71.754 23.6239" fill="black"/>
<path fill-rule="evenodd" clip-rule="evenodd" d="M68.1652 36.7739H70.7313L72.4792 27.5614H69.8945L68.1652 36.7739" fill="black"/>
<path fill-rule="evenodd" clip-rule="evenodd" d="M79.0059 27.5425H77.2207L77.3137 27.1092C77.4625 26.2239 77.9831 25.4326 78.8386 25.4326C79.2953 25.4326 79.6566 25.5644 79.6566 25.5644L80.1588 23.5298C80.1588 23.5298 79.7124 23.3037 78.7641 23.3037C77.853 23.3037 76.9418 23.5676 76.2538 24.1703C75.3799 24.924 74.9708 26.0166 74.7663 27.1092L74.6919 27.5425H73.5018L73.13 29.5019H74.32L72.9625 36.7739H75.5285L76.886 29.5019H78.6525L79.0059 27.5425" fill="black"/>
<path fill-rule="evenodd" clip-rule="evenodd" d="M85.1794 27.5614C85.1794 27.5614 83.5754 31.6564 82.8551 33.8916H82.818C82.7686 33.1719 82.1857 27.5614 82.1857 27.5614H79.4894L81.0328 36.0204C81.07 36.2086 81.0515 36.3217 80.977 36.4537C80.6794 37.0378 80.1775 37.6029 79.5824 38.0173C79.099 38.3753 78.5597 38.6013 78.1321 38.752L78.8386 40.9563C79.3593 40.8432 80.4379 40.4099 81.3488 39.5434C82.5204 38.4318 83.5988 36.7174 84.7146 34.3813L87.857 27.5614H85.1794" fill="black"/>
</svg>
