<svg width="100" height="60" viewBox="0 0 100 60" fill="none" xmlns="http://www.w3.org/2000/svg">
<rect width="100" height="60" rx="4" fill="white"/>
<path fill-rule="evenodd" clip-rule="evenodd" d="M62.8082 24.7946C64.1386 24.7946 65.2164 23.7172 65.2164 22.3881C65.2164 21.0586 64.1386 19.9802 62.8082 19.9802C61.4801 19.9802 60.4023 21.0586 60.4023 22.3881C60.4023 23.7172 61.4801 24.7946 62.8082 24.7946V24.7946ZM44.3644 26.0938C44.2554 26.3671 43.4736 28.5764 41.5817 30.866V21.0758L36.5417 22.0718V39.8184H41.5817V34.3328C43.0418 36.5217 43.7624 39.8184 43.7624 39.8184H49.7994C49.2022 37.3358 46.5901 32.7582 46.5901 32.7582C48.9344 29.7862 49.9641 26.6191 50.1277 26.0938H44.3644V26.0938ZM57.6141 25.9089C53.1001 26.0539 50.8081 28.0792 50.8081 32.1054V39.8184H55.7336V33.5283C55.7336 31.118 56.0492 30.0842 58.9095 29.9859V25.9797C58.4282 25.8772 57.6141 25.9089 57.6141 25.9089V25.9089ZM28.0893 28.0483C27.4718 28.0081 26.0427 27.9156 26.0427 26.6288C26.0427 25.0762 28.1003 25.0762 28.8721 25.0762C30.229 25.0762 31.9865 25.4767 33.2417 25.8525C33.2417 25.8525 33.942 26.0993 34.5378 26.352L34.5931 26.3671V26.3108V22.1148L34.5171 22.0924C33.0357 21.5743 31.3133 21.0758 28.1202 21.0758C22.6144 21.0758 20.6637 24.2831 20.6637 27.0307C20.6637 28.6145 21.3423 32.3426 27.6482 32.7727C28.1824 32.8053 29.6009 32.8872 29.6009 34.2166C29.6009 35.3147 28.4396 35.9617 26.4865 35.9617C24.3461 35.9617 22.2689 35.4161 21.0078 34.8983V39.2776C22.8963 39.7723 25.0244 40.0198 27.5193 40.0198C32.9027 40.0198 35.3137 36.9852 35.3137 33.9777C35.3137 30.5676 32.6156 28.3515 28.0893 28.0483V28.0483ZM60.3669 39.8184H65.2518V26.1096H60.3669V39.8184V39.8184ZM74.4503 21.9494V39.8184H79.3363V21.0758L74.4503 21.9494V21.9494ZM67.3215 21.9494L72.2023 21.0758V39.8184H67.3215V21.9494V21.9494Z" fill="#862165"/>
</svg>
