<svg width="100" height="60" viewBox="0 0 100 60" fill="none" xmlns="http://www.w3.org/2000/svg">
<rect width="100" height="60" rx="4" fill="white"/>
<path fill-rule="evenodd" clip-rule="evenodd" d="M34.476 26.3856C34.476 17.5919 41.7367 10.4619 50.6945 10.4619C59.6515 10.4619 66.9131 17.5919 66.9131 26.3856C66.9131 35.1812 59.6515 42.3094 50.6945 42.3094C41.7367 42.3094 34.476 35.1812 34.476 26.3856V26.3856ZM50.6945 41.1961C59.0244 41.1961 65.7765 34.5646 65.7765 26.3856C65.7765 18.2067 59.0244 11.577 50.6945 11.577C42.3637 11.577 35.6116 18.2067 35.6116 26.3856C35.6116 34.5646 42.3637 41.1961 50.6945 41.1961V41.1961Z" fill="#992685"/>
<path fill-rule="evenodd" clip-rule="evenodd" d="M55.1661 23.6512C57.7419 27.482 56.6235 32.6105 52.6714 35.1037C48.7193 37.5986 43.4292 36.5172 40.8552 32.6865L43.308 31.0883C44.9805 33.5753 48.4158 34.2794 50.9825 32.6591C53.5483 31.0388 54.2747 27.7081 52.6031 25.2221L55.1661 23.6512" fill="#992685"/>
<path fill-rule="evenodd" clip-rule="evenodd" d="M60.8783 20.1368C58.2988 16.3078 53.006 15.2326 49.0584 17.7311C45.1091 20.2313 43.9989 25.3616 46.5783 29.1888L49.0748 27.6551C47.4014 25.1699 48.1223 21.8401 50.6863 20.2163C53.2502 18.5925 56.6855 19.2931 58.3626 21.7774L60.8783 20.1368" fill="black"/>
<path fill-rule="evenodd" clip-rule="evenodd" d="M56.1424 48.0215C56.3438 46.6477 57.6581 45.5319 59.0773 45.5319C60.4973 45.5319 61.4826 46.6477 61.2812 48.0215C61.0779 49.3988 59.7645 50.5147 58.3454 50.5147C56.9262 50.5147 55.9391 49.3988 56.1424 48.0215V48.0215ZM58.4739 49.6418C59.3963 49.6418 60.2494 48.9173 60.3816 48.0215C60.5137 47.1292 59.8721 46.403 58.9506 46.403C58.0264 46.403 57.1732 47.1292 57.0411 48.0215C56.9098 48.9173 57.5506 49.6418 58.4739 49.6418V49.6418Z" fill="#992685"/>
<path fill-rule="evenodd" clip-rule="evenodd" d="M52.5585 45.6968H53.5957L52.7399 49.469H55.5308L55.3357 50.3183H51.5076L52.5585 45.6968" fill="#992685"/>
<path fill-rule="evenodd" clip-rule="evenodd" d="M45.902 47.9852C46.1035 46.5935 47.4178 45.4632 48.836 45.4632C50.2561 45.4632 51.2423 46.5935 51.0399 47.9852C50.8385 49.3804 49.5233 50.5107 48.1032 50.5107C46.685 50.5107 45.6988 49.3804 45.902 47.9852V47.9852ZM48.2326 49.6265C49.156 49.6265 50.0091 48.8927 50.1412 47.9852C50.2725 47.0813 49.6317 46.3456 48.7084 46.3456C47.7869 46.3456 46.9329 47.0813 46.7998 47.9852C46.6695 48.8927 47.3102 49.6265 48.2326 49.6265V49.6265Z" fill="#992685"/>
<path fill-rule="evenodd" clip-rule="evenodd" d="M40.8717 48.9341C41.0776 49.3211 41.9289 49.7955 42.7648 49.769C43.6471 49.7434 43.9633 49.4987 44.0244 49.0896C44.0463 48.9271 44.1146 48.5569 43.3809 48.4721L42.1905 48.344C40.9254 48.1823 40.7213 47.6849 40.7504 47.0744C40.7896 46.2351 41.8724 45.5866 43.0346 45.5725C44.059 45.5593 44.9286 45.7784 45.3333 46.3129L44.6141 46.7343C44.0189 46.2766 43.483 46.2422 42.845 46.2802C42.4011 46.3076 41.8013 46.4807 41.7093 46.8977C41.6446 47.1928 41.6601 47.3783 42.2972 47.4499L43.8047 47.6416C44.4993 47.7193 45.079 48.3528 45.0252 48.8944C44.9432 49.6851 44.2313 50.6198 42.526 50.5394C41.2217 50.4784 40.4569 49.9855 40.1069 49.367L40.8717 48.9341" fill="#992685"/>
</svg>
