<svg width="100" height="60" viewBox="0 0 100 60" fill="none" xmlns="http://www.w3.org/2000/svg">
<rect width="100" height="60" rx="4" fill="white"/>
<path fill-rule="evenodd" clip-rule="evenodd" d="M41.49 39.5467L44.5647 20.4727H49.4796L46.4051 39.5467H41.49" fill="#26337A"/>
<path fill-rule="evenodd" clip-rule="evenodd" d="M64.2329 20.9408C63.2611 20.558 61.7327 20.1406 59.8288 20.1406C54.9696 20.1406 51.5491 22.729 51.5207 26.4355C51.4898 29.1772 53.9616 30.7062 55.825 31.6175C57.7402 32.5515 58.3836 33.1493 58.376 33.9845C58.3628 35.262 56.8474 35.8473 55.4343 35.8473C53.4665 35.8473 52.4211 35.5592 50.8047 34.847L50.1725 34.5434L49.4852 38.813C50.6313 39.3442 52.7559 39.8054 54.9609 39.8296C60.1251 39.8296 63.4807 37.2724 63.52 33.3144C63.5377 31.1403 62.228 29.4924 59.3917 28.1318C57.6741 27.2473 56.62 26.6614 56.6321 25.7662C56.6332 24.9735 57.5226 24.1248 59.4476 24.1248C61.0553 24.0989 62.219 24.4701 63.1259 24.8577L63.5672 25.0758L64.2329 20.9408" fill="#26337A"/>
<path fill-rule="evenodd" clip-rule="evenodd" d="M70.7773 32.7842C71.1846 31.6879 72.7352 27.4527 72.7352 27.4527C72.7065 27.5031 73.1403 26.3479 73.3885 25.633L73.7202 27.278C73.7202 27.278 74.6633 31.8307 74.8576 32.7842C74.0924 32.7842 71.737 32.7842 70.7773 32.7842V32.7842ZM76.8408 20.4921H73.0425C71.8643 20.4921 70.9825 20.8296 70.4664 22.0733L63.1675 39.5535H68.3297C68.3297 39.5535 69.1719 37.202 69.3631 36.6859C69.9261 36.6859 74.9422 36.6958 75.6581 36.6958C75.8054 37.3614 76.2566 39.5535 76.2566 39.5535H80.8184L76.8408 20.4921V20.4921Z" fill="#26337A"/>
<path fill-rule="evenodd" clip-rule="evenodd" d="M37.3668 20.4887L32.5562 33.4927L32.0409 30.8493C31.1445 27.8036 28.3539 24.5025 25.2325 22.8484L29.6335 39.5301L34.8351 39.527L42.5751 20.4887H37.3668" fill="#26337A"/>
<path fill-rule="evenodd" clip-rule="evenodd" d="M28.0905 20.4758H20.1647L20.0995 20.871C26.2667 22.451 30.3472 26.2648 32.0409 30.8493L30.3185 22.0851C30.0214 20.8763 29.1578 20.518 28.0905 20.4758" fill="#EC982D"/>
</svg>
