<svg width="100" height="60" viewBox="0 0 100 60" fill="none" xmlns="http://www.w3.org/2000/svg">
<rect width="100" height="60" rx="4" fill="white"/>
<path fill-rule="evenodd" clip-rule="evenodd" d="M35.4619 21.0047C33.1247 21.0047 31.7909 21.9504 31.7909 23.6122C31.7909 24.6424 32.2221 25.3883 33.4516 25.7536L35.6949 26.4092C35.9944 26.4977 36.2339 26.6638 36.2339 26.9627C36.2339 27.3176 35.9274 27.6183 35.4619 27.6183C35.1629 27.6183 34.9724 27.511 34.85 27.356C34.7283 27.19 34.6752 26.9656 34.6752 26.7442H31.6452C31.6452 28.8268 33.4178 29.4246 35.3453 29.4246C37.605 29.4246 39.1911 28.603 39.1911 26.6422C39.1911 25.6785 38.7564 24.9653 37.7489 24.5446C36.9402 24.2013 35.8237 23.9788 35.2142 23.8016C34.8815 23.702 34.6898 23.5796 34.6898 23.2918C34.6898 23.0476 34.9083 22.8256 35.4182 22.8256C35.8278 22.8256 36.1063 22.9969 36.1174 23.4957H38.958C38.958 21.6346 37.4558 21.0047 35.4619 21.0047V21.0047ZM79.1346 21.063V38.8205H80.1398V21.063H79.1346V21.063ZM89.2589 21.1212C88.6681 21.1212 88.1809 21.5996 88.1809 22.1847C88.1809 22.7755 88.6681 23.2481 89.2589 23.2481C89.8468 23.2481 90.3223 22.7755 90.3223 22.1847C90.3223 21.5996 89.8469 21.1212 89.2589 21.1212V21.1212ZM9.67773 21.2232L11.4112 29.2207H14.8491L15.5921 24.0347H15.6066L16.3496 29.2207H19.7874L21.521 21.2232H18.6803L18.0102 26.2489H17.9811L17.2382 21.2232H13.9605L13.2176 26.2489H13.203L12.5184 21.2232H9.67773V21.2232ZM23.4584 21.2232V29.2207H29.6349V27.1375H26.4884V26.2344H29.2999V24.1512H26.4884V23.3063H29.533V21.2232H23.4584V21.2232ZM40.9974 21.2232V23.3646H42.9786V29.2207H46.1397V23.3646H48.1208V21.2232H40.9974V21.2232ZM50.2622 21.2232V29.2207H56.4533V27.1375H53.3068V26.2344H56.1183V24.1512H53.3068V23.3063H56.3514V21.2232H50.2622V21.2232ZM58.7987 21.2232V29.2207H61.9015V26.3655H62.2657C62.775 26.3655 62.9713 26.5205 63.0378 26.919C63.1485 27.606 63.2429 28.6222 63.4311 29.2207H66.5339C66.1686 28.0127 66.2012 26.8771 66.0241 26.1907C65.8691 25.5812 65.4443 25.2374 64.6693 25.1709V25.1564C65.8656 24.8679 66.2571 24.1676 66.2571 23.2481C66.2571 21.7412 65.2503 21.2232 63.5331 21.2232H58.7987V21.2232ZM68.7481 21.2232V29.2207H71.312V24.3406H71.3411L73.0309 29.2207H76.833V21.2232H74.2546V26.0596H74.24L72.5502 21.2232H68.7482H68.7481ZM86.3018 21.2232V38.7914H87.3069V21.2232H86.3018V21.2232ZM89.2589 21.2523C89.7763 21.2523 90.1475 21.6672 90.1475 22.1847C90.1475 22.7079 89.7763 23.1024 89.2589 23.1024C88.7386 23.1024 88.3557 22.7079 88.3557 22.1847C88.3557 21.6672 88.7386 21.2523 89.2589 21.2523V21.2523ZM88.8656 21.5874V22.7819H89.0113V22.2284H89.2735L89.6085 22.7819H89.7833L89.4337 22.2284C89.6447 22.2225 89.7979 22.1415 89.7979 21.9079C89.7979 21.7115 89.6907 21.5874 89.3754 21.5874H88.8656V21.5874ZM89.0113 21.6894H89.3463C89.4926 21.6894 89.6377 21.708 89.6377 21.8933C89.6377 22.1357 89.3982 22.1118 89.2298 22.1118H89.0113V21.6894V21.6894ZM61.9015 23.0441H62.1929C62.8134 23.0441 63.2126 23.1566 63.2126 23.7434C63.2126 24.3418 62.7732 24.5591 62.1637 24.5591H61.9015V23.0441V23.0441ZM62.222 30.5754C59.4635 30.5754 58.0849 32.2932 58.0849 34.7854C58.0849 37.2781 59.4635 38.9953 62.222 38.9953C64.9805 38.9953 66.3446 37.2781 66.3445 34.7854C66.3445 32.2932 64.9804 30.5754 62.222 30.5754V30.5754ZM31.5287 30.7794V36.0964C31.5287 38.024 32.9155 38.9953 35.3308 38.9953C37.7454 38.9953 39.1328 38.024 39.1328 36.0964V30.7794H35.9571V35.9653C35.9571 36.5964 35.6629 36.8394 35.3308 36.8394C34.9986 36.8394 34.7044 36.5964 34.7044 35.9653V30.7794H31.5287V30.7794ZM41.7549 30.7794V38.7768H44.3333V33.9113H44.3479L46.0377 38.7768H49.8398V30.7794H47.2759V35.6303H47.2468L45.557 30.7794H41.7549V30.7794ZM52.5202 30.7794V38.7768H55.6958V30.7794H52.5202V30.7794ZM68.7481 30.7794V38.7768H71.312V33.9113H71.3411L73.0309 38.7768H76.833V30.7794H74.2546V35.6303H74.24L72.5502 30.7794H68.7482H68.7481ZM62.222 32.6585C62.7319 32.6585 63.0669 32.9802 63.0669 34.7854C63.0669 36.6354 62.7091 36.9122 62.222 36.9122C61.7349 36.9122 61.3625 36.6354 61.3625 34.7854C61.3625 32.9802 61.7127 32.6585 62.222 32.6585V32.6585Z" fill="black"/>
</svg>
