<svg width="542" height="532" viewBox="0 0 542 532" xmlns="http://www.w3.org/2000/svg" xmlns:xlink="http://www.w3.org/1999/xlink">
    <svg width="24" height="24" fill="none" viewBox="-2 -2 24 24" id="aave" x="277" y="121"
         xmlns="http://www.w3.org/2000/svg">
        <mask id="aaa" maskUnits="userSpaceOnUse" x="0" y="0" width="20" height="20">
            <path fill-rule="evenodd" clip-rule="evenodd" d="M0 0h20v20H0V0z" fill="#fff"/>
        </mask>
        <g mask="url(#aaa)">
            <path fill-rule="evenodd" clip-rule="evenodd"
                  d="M10 20C4.5 20 0 15.5 0 9.95.05 4.45 4.5-.05 10.05 0 15.55.05 20 4.5 20 10.1c-.05 5.45-4.5 9.9-10 9.9z"
                  fill="url(#aapaint0_linear)"/>
            <path d="M15.95 14.93L11.749 4.78A1.124 1.124 0 0010.69 4h-.37a1.133 1.133 0 00-1.053.78L7.44 9.203H6.053a.761.761 0 00-.751.752v.008a.754.754 0 00.751.752h.744l-1.744 4.216a.888.888 0 00-.052.288.793.793 0 00.205.564.722.722 0 00.558.216.758.758 0 00.434-.144.916.916 0 00.297-.38l1.925-4.76h1.33a.76.76 0 00.756-.752v-.02a.754.754 0 00-.756-.752h-.71l1.466-3.647 3.998 9.93c.064.152.166.283.298.38a.758.758 0 00.434.145.728.728 0 00.562-.216.794.794 0 00.201-.564.677.677 0 00-.048-.288z"
                  fill="#fff"/>
        </g>
        <defs>
            <linearGradient id="aapaint0_linear" x1="16" y1="2" x2="10" y2="20" gradientUnits="userSpaceOnUse">
                <stop stop-color="#A8589A"/>
                <stop offset=".505" stop-color="#7692B3"/>
                <stop offset="1" stop-color="#5CB0C0"/>
            </linearGradient>
        </defs>
    </svg>
    <svg width="24" height="24" fill="none" viewBox="-2 -2 24 24" id="ach" x="277" y="145"
         xmlns="http://www.w3.org/2000/svg">
        <circle cx="10" cy="10" r="10" fill="#050F66"/>
        <path fill-rule="evenodd" clip-rule="evenodd"
              d="M9.11 5.407l-.834 1.417.012 1.974.012 1.974.123-.092c.197-.15.733-.387 1.094-.486a4.228 4.228 0 011.671-.068c.206.04.405.084.443.098.06.022.069-.18.069-1.687V6.826l-.84-1.408c-.463-.774-.858-1.412-.88-1.418-.02-.006-.412.627-.87 1.407zm-3.622 6.079L4 13.978l1.484.012a38.88 38.88 0 001.5-.004c.009-.009.01-1.136.004-2.504l-.011-2.489-1.489 2.493zm7.49.013V14H16l-.066-.098c-.037-.054-.7-1.161-1.473-2.46a168.12 168.12 0 00-1.445-2.403c-.021-.023-.038 1.08-.038 2.46zm-3.035-.237c-.767.18-1.453.856-1.615 1.592-.065.297-.065.704 0 .952L8.38 14h3.32v-2.453l-.285-.128a2.316 2.316 0 00-1.471-.157z"
              fill="#fff"/>
    </svg>
</svg>