<svg width="44" height="29" viewBox="0 0 44 29" fill="none" xmlns="http://www.w3.org/2000/svg">
<path d="M1.14095 1.39151C1.18692 1.34814 1.24116 1.31448 1.30042 1.29253C1.35969 1.27058 1.42276 1.2608 1.48589 1.26376C4.9695 1.48224 8.42664 2.01146 11.8161 2.84511C11.8787 2.8594 11.9376 2.88647 11.9892 2.92463C12.0408 2.96279 12.084 3.01121 12.116 3.06684C12.148 3.12248 12.1682 3.18414 12.1753 3.24794C12.1823 3.31175 12.1761 3.37632 12.1571 3.43761L11.7658 4.69908C15.2186 3.49162 18.8661 2.93829 22.5215 3.06743C24.058 3.18327 25.5259 3.75134 26.7403 4.70008H32.2081L31.8169 3.43661C31.798 3.37531 31.7919 3.31078 31.799 3.24702C31.8061 3.18327 31.8263 3.12167 31.8583 3.06607C31.8903 3.01048 31.9334 2.96207 31.9849 2.92388C32.0365 2.88569 32.0953 2.85853 32.1578 2.8441C35.547 2.01082 39.0038 1.48194 42.487 1.26376C42.5502 1.26062 42.6134 1.27037 42.6727 1.29242C42.732 1.31447 42.7862 1.34835 42.8321 1.39201C42.8779 1.43567 42.9143 1.48819 42.9392 1.54639C42.9641 1.60458 42.9769 1.66722 42.9768 1.73052V17.7523C42.9768 17.8761 42.9276 17.9948 42.8401 18.0823C42.7526 18.1699 42.6339 18.219 42.5102 18.219H36.7417C36.642 18.2191 36.5449 18.1872 36.4647 18.128C36.3845 18.0688 36.3254 17.9854 36.2961 17.8901L36.0759 17.1799C31.3241 22.7187 26.4929 27.8057 22.7206 27.8057C21.9922 27.8094 21.2786 27.5996 20.668 27.2022L20.5675 27.3028C20.3504 27.5231 20.0918 27.6982 19.8066 27.8179C19.5215 27.9376 19.2154 27.9994 18.9061 27.9999H18.891C18.3185 28.0035 17.7648 27.7957 17.3359 27.4163C16.9071 27.0369 16.6333 26.5126 16.5669 25.9437C16.2125 26.2428 15.7771 26.4294 15.3161 26.4799C14.8552 26.5304 14.3897 26.4425 13.979 26.2273C13.5683 26.0121 13.2309 25.6794 13.0099 25.2717C12.789 24.8639 12.6944 24.3996 12.7383 23.9379C12.5327 23.992 12.3214 24.021 12.1088 24.0244C11.511 24.0357 10.9329 23.8109 10.4997 23.3987C10.2794 23.1816 10.1044 22.9229 9.98473 22.6376C9.86509 22.3524 9.80325 22.0462 9.80278 21.7369C9.79356 21.1275 10.0261 20.5394 10.4494 20.1012C10.6214 19.8899 10.7984 19.6867 10.9724 19.4785L7.79345 17.543L7.68584 17.8891C7.65643 17.9843 7.59731 18.0676 7.51714 18.1268C7.43697 18.186 7.33997 18.218 7.24033 18.218H1.46678C1.40547 18.2182 1.34473 18.2062 1.28806 18.1828C1.23138 18.1594 1.17989 18.125 1.13653 18.0816C1.09317 18.0383 1.05881 17.9867 1.0354 17.9301C1.012 17.8734 1.00002 17.8126 1.00015 17.7513V1.73052C0.999435 1.66742 1.01155 1.60483 1.03575 1.54655C1.05996 1.48828 1.09575 1.43553 1.14095 1.39151ZM37.0806 17.2855H42.0435V2.22343C38.9479 2.44945 35.8754 2.92412 32.8557 3.64283L37.0806 17.2855ZM11.1544 22.7348C11.4587 22.986 11.8466 23.1131 12.2405 23.0907C12.6345 23.0683 13.0054 22.8981 13.2794 22.614C13.2874 22.606 13.2975 22.603 13.3055 22.5959C13.3367 22.5597 13.3608 22.5195 13.395 22.4853L18.5018 17.3127C18.5895 17.228 18.7068 17.181 18.8286 17.1817C18.9505 17.1824 19.0672 17.2308 19.1539 17.3164C19.2406 17.4021 19.2903 17.5182 19.2925 17.6401C19.2947 17.762 19.2491 17.8799 19.1656 17.9686L14.0588 23.1412C13.7939 23.4094 13.6465 23.7719 13.6488 24.149C13.6512 24.526 13.8032 24.8866 14.0713 25.1516C14.3395 25.4165 14.7019 25.564 15.0789 25.5616C15.4558 25.5593 15.8163 25.4072 16.0812 25.139L17.2126 23.9942L22.3193 18.8226C22.362 18.7773 22.4133 18.741 22.4702 18.7159C22.5271 18.6907 22.5884 18.6771 22.6506 18.676C22.7128 18.6749 22.7746 18.6863 22.8323 18.7094C22.8901 18.7325 22.9426 18.7669 22.9869 18.8107C23.0312 18.8544 23.0662 18.9065 23.09 18.964C23.1138 19.0215 23.1259 19.0832 23.1256 19.1454C23.1252 19.2076 23.1124 19.2691 23.088 19.3263C23.0635 19.3835 23.0278 19.4353 22.9831 19.4785L17.8763 24.6511C17.7451 24.7839 17.6413 24.9413 17.5709 25.1142C17.5005 25.2872 17.4649 25.4723 17.466 25.659C17.4671 25.8458 17.505 26.0304 17.5774 26.2025C17.6499 26.3746 17.7556 26.5307 17.8884 26.662C18.0212 26.7932 18.1785 26.897 18.3514 26.9674C18.5243 27.0379 18.7094 27.0735 18.896 27.0724C19.0827 27.0713 19.2673 27.0334 19.4394 26.9609C19.6114 26.8884 19.7675 26.7827 19.8987 26.6499L26.1419 20.3275C26.2296 20.2429 26.3468 20.1958 26.4687 20.1965C26.5905 20.1972 26.7073 20.2456 26.794 20.3312C26.8806 20.4169 26.9304 20.5331 26.9326 20.6549C26.9348 20.7768 26.8892 20.8947 26.8056 20.9834L21.3438 26.5161C24.8114 28.3701 30.5558 22.2056 35.745 16.1267L32.4967 5.63562H27.9189C29.1228 6.65717 30.0919 7.9268 30.7599 9.35763C31.4106 10.937 30.9872 11.8252 30.5166 12.293C30.5045 12.3051 30.4917 12.3165 30.4783 12.3272C28.6862 13.7486 26.9203 14.1067 24.1708 11.2619C23.3349 11.3389 22.495 11.1663 21.7572 10.766C17.7745 13.5759 14.2031 16.9278 11.1464 20.7249C10.8813 20.9926 10.7332 21.3546 10.7347 21.7315C10.7362 22.1083 10.8872 22.4691 11.1544 22.7348ZM11.5788 18.7572C14.4853 15.3718 17.8106 12.3701 21.4746 9.82439C21.5523 9.77071 21.6446 9.74196 21.7391 9.74196C21.8336 9.74196 21.9258 9.77071 22.0036 9.82439C22.6871 10.2627 23.5067 10.4376 24.3096 10.3163C24.3808 10.3088 24.4527 10.3179 24.5198 10.3431C24.5868 10.3682 24.6471 10.4087 24.6957 10.4612C27.3004 13.2336 28.5877 12.633 29.877 11.615C30.3416 11.1301 30.1465 10.3163 29.8981 9.71474C28.8612 7.19987 25.1815 4.00095 22.5074 4.00095C18.7215 3.85088 14.9452 4.48091 11.4129 5.85189L8.08007 16.6246L11.5788 18.7572ZM1.93241 17.2855H6.89539L11.1192 3.64283C8.09958 2.92415 5.02708 2.44949 1.9314 2.22343V17.2855H1.93241Z" fill="#A93618" stroke="#A93618" stroke-width="0.6"/>
</svg>
