<svg width="41" height="38" viewBox="0 0 41 38" fill="none" xmlns="http://www.w3.org/2000/svg">
<path d="M2.41312 7.08444H11.1081C11.0914 6.99688 11.0823 6.90802 11.081 6.81887V2.54258C11.081 2.26833 11.1537 1.99899 11.2917 1.76203C11.4298 1.52508 11.6282 1.32899 11.8667 1.19379C12.1052 1.05858 12.3754 0.989099 12.6495 0.992424C12.9237 0.995748 13.192 1.07176 13.4272 1.21271L20.5675 5.48901C20.6037 5.51114 20.6348 5.53729 20.668 5.56144C20.7022 5.53729 20.7334 5.51114 20.7686 5.48901L27.9089 1.21271C28.1439 1.07304 28.4118 0.998056 28.6852 0.995383C28.9586 0.992709 29.2278 1.06244 29.4656 1.19749C29.7033 1.33255 29.9011 1.52812 30.0389 1.76435C30.1767 2.00059 30.2495 2.26908 30.2501 2.54258V6.81887C30.2487 6.90802 30.2397 6.99688 30.2229 7.08444H38.9189C39.2432 7.08497 39.554 7.21399 39.7834 7.44325C40.0128 7.6725 40.142 7.98333 40.1428 8.30768V12.6453C40.1423 12.9699 40.0132 13.2809 39.7838 13.5104C39.5544 13.7399 39.2434 13.869 38.9189 13.8696H37.8298V35.0649C37.8293 35.5304 37.6442 35.9767 37.3153 36.3059C36.9863 36.6352 36.5402 36.8205 36.0749 36.8213H5.25514C4.78978 36.8205 4.34373 36.6352 4.01477 36.3059C3.68581 35.9767 3.50078 35.5304 3.50024 35.0649V13.8706H2.41211C2.08759 13.8703 1.77644 13.7412 1.54698 13.5117C1.31751 13.2822 1.18848 12.9709 1.18821 12.6463V8.30768C1.18901 7.98315 1.31838 7.67218 1.54798 7.44289C1.77758 7.21361 2.08868 7.08471 2.41312 7.08444V7.08444ZM19.9047 6.59052L12.7645 2.31423C12.7237 2.28889 12.6767 2.27531 12.6287 2.275C12.5824 2.27564 12.5371 2.28811 12.497 2.31121C12.4555 2.33371 12.4209 2.36719 12.3972 2.408C12.3734 2.4488 12.3613 2.49536 12.3622 2.54258V6.81887C12.3622 6.88931 12.3902 6.95685 12.44 7.00666C12.4898 7.05646 12.5573 7.08444 12.6277 7.08444H19.768C19.8245 7.08792 19.8804 7.07167 19.9263 7.03846C19.9721 7.00525 20.005 6.95715 20.0194 6.90237C20.0159 6.84105 20.0159 6.77959 20.0194 6.71828C19.9975 6.66342 19.9569 6.61813 19.9047 6.59052V6.59052ZM16.231 12.586H25.101V8.36904H16.23V12.586H16.231ZM28.9668 6.81887V2.54258C28.9677 2.49536 28.9556 2.4488 28.9319 2.408C28.9081 2.36719 28.8736 2.33371 28.8321 2.31121C28.7919 2.28815 28.7466 2.27568 28.7003 2.275C28.6527 2.27565 28.6061 2.2892 28.5656 2.31423L21.4253 6.59052C21.3747 6.619 21.3356 6.66416 21.3147 6.71828C21.3181 6.77926 21.3181 6.84038 21.3147 6.90136C21.3288 6.95633 21.3616 7.00466 21.4075 7.03807C21.4534 7.07147 21.5095 7.08787 21.5661 7.08444H28.7063C28.7758 7.08287 28.8419 7.05423 28.8906 7.00462C28.9392 6.95502 28.9666 6.88837 28.9668 6.81887V6.81887ZM38.8586 12.586V8.36904H26.3883V12.586H38.8586ZM36.0759 35.5367C36.2006 35.5365 36.3202 35.4868 36.4084 35.3985C36.4966 35.3103 36.5463 35.1907 36.5465 35.0659V13.8706H23.6438V35.5367H36.0759ZM22.3606 35.5367V13.8706H18.9715V35.5367H22.3606ZM4.78448 35.0659C4.78475 35.1907 4.83442 35.3103 4.92263 35.3985C5.01084 35.4868 5.13039 35.5365 5.25514 35.5367H17.6872V13.8706H4.78448V35.0659ZM2.47145 12.586H14.9417V8.36904H2.47145V12.586V12.586Z" fill="#A93618" stroke="#A93618" stroke-width="0.4"/>
</svg>
