<svg width="42" height="35" viewBox="0 0 42 35" fill="none" xmlns="http://www.w3.org/2000/svg">
<path d="M21.0108 35C21.2258 34.9998 21.4377 34.9524 21.6284 34.8619C21.8192 34.7713 21.9833 34.6403 22.107 34.4797L41.1614 9.76728C41.333 9.54525 41.4185 9.27735 41.4045 9.00597C41.3905 8.73459 41.2777 8.47523 41.084 8.26891L33.8431 0.550451C33.7169 0.416018 33.5601 0.308232 33.3837 0.23456C33.2073 0.160888 33.0154 0.123091 32.8214 0.123789H9.38424C9.19386 0.123892 9.0057 0.161018 8.83228 0.23269C8.65887 0.304363 8.5042 0.408936 8.37857 0.539441L0.94968 8.25698C0.750889 8.46273 0.633923 8.72361 0.617683 8.99749C0.60144 9.27137 0.686874 9.54225 0.860176 9.76636L7.60722 18.518C7.67569 18.6068 7.76267 18.6824 7.86318 18.7406C7.96369 18.7987 8.07577 18.8382 8.19302 18.8568C8.31026 18.8754 8.43037 18.8728 8.5465 18.8491C8.66263 18.8253 8.7725 18.7809 8.86983 18.7185C8.96717 18.656 9.05006 18.5766 9.11378 18.4849C9.1775 18.3932 9.2208 18.291 9.2412 18.184C9.26161 18.077 9.25872 17.9674 9.2327 17.8615C9.20669 17.7555 9.15805 17.6553 9.08957 17.5665L2.55272 9.09288L9.59241 1.77814H32.6041L39.4678 9.0892L21.0098 33.0273L15.5993 26.0107C15.461 25.8314 15.2503 25.7095 15.0135 25.6719C14.7767 25.6343 14.5332 25.6841 14.3367 25.8102C14.1401 25.9364 14.0065 26.1287 13.9653 26.3447C13.9241 26.5608 13.9786 26.7829 14.1169 26.9622L19.9146 34.4807C20.0384 34.641 20.2025 34.7719 20.3933 34.8623C20.5841 34.9527 20.7958 34.9999 21.0108 35Z" fill="#A93618"/>
<path d="M11.7694 26.9915C11.9463 26.9916 12.1194 26.9443 12.2672 26.8556C12.415 26.7669 12.5311 26.6406 12.6011 26.4924C13.3476 24.9131 14.7283 23.6543 16.4598 22.9745C16.6228 22.9109 16.7617 22.805 16.8594 22.6701C16.957 22.5351 17.009 22.3769 17.009 22.2152C17.009 22.0535 16.957 21.8953 16.8594 21.7604C16.7617 21.6254 16.6228 21.5195 16.4598 21.4559C14.728 20.7751 13.3473 19.5154 12.6011 17.9353C12.5311 17.7871 12.415 17.6608 12.2672 17.572C12.1194 17.4833 11.9463 17.4361 11.7694 17.4362C11.5925 17.4361 11.4194 17.4833 11.2716 17.572C11.1238 17.6608 11.0077 17.7871 10.9377 17.9353C10.1917 19.5155 8.81095 20.7753 7.07895 21.4559C6.91598 21.5195 6.77706 21.6254 6.67943 21.7604C6.5818 21.8953 6.52975 22.0535 6.52975 22.2152C6.52975 22.3769 6.5818 22.5351 6.67943 22.6701C6.77706 22.805 6.91598 22.9109 7.07895 22.9745C8.81124 23.6548 10.1921 24.9146 10.9377 26.4951C11.0081 26.6429 11.1244 26.7686 11.2722 26.8568C11.42 26.945 11.5928 26.9918 11.7694 26.9915ZM14.2222 22.2129C13.2558 22.8095 12.4233 23.5691 11.7694 24.4508C11.1156 23.569 10.2831 22.8094 9.31656 22.2129C10.2828 21.6162 11.1154 20.8566 11.7694 19.975C12.4239 20.8563 13.2563 21.6157 14.2222 22.2129Z" fill="#A93618"/>
</svg>
