<svg width="43" height="35" viewBox="0 0 43 35" fill="none" xmlns="http://www.w3.org/2000/svg">
<path d="M4.65515 32.4043H22.3823C22.6279 32.4043 22.8634 32.3067 23.037 32.133C23.2107 31.9593 23.3082 31.7238 23.3082 31.4781C23.3082 31.2325 23.2107 30.9969 23.037 30.8232C22.8634 30.6495 22.6279 30.552 22.3823 30.552H4.65515C4.01771 30.5514 3.40653 30.2979 2.95578 29.847C2.50504 29.3962 2.25158 28.7848 2.25104 28.1472V5.04289C2.25158 4.40527 2.50504 3.79392 2.95578 3.34305C3.40653 2.89219 4.01771 2.63865 4.65515 2.63811H37.8136C38.4509 2.63892 39.062 2.89254 39.5127 3.34335C39.9633 3.79416 40.2169 4.40536 40.2177 5.04289V16.736C40.2177 16.9817 40.3153 17.2174 40.489 17.3912C40.6628 17.565 40.8984 17.6626 41.1441 17.6626C41.3898 17.6626 41.6255 17.565 41.7992 17.3912C41.973 17.2174 42.0706 16.9817 42.0706 16.736V5.04289C42.0692 3.91407 41.6202 2.83189 40.8222 2.03378C40.0241 1.23568 38.9421 0.786848 37.8136 0.785767H4.65515C3.52682 0.787118 2.44509 1.23607 1.64724 2.03414C0.849384 2.83222 0.400555 3.91425 0.399204 5.04289V28.1462C0.400284 29.275 0.848991 30.3573 1.64687 31.1556C2.44476 31.9539 3.52664 32.403 4.65515 32.4043Z" fill="#A93618"/>
<path d="M1.32533 21.1675H7.48007C8.68051 21.1496 9.82571 20.6599 10.6683 19.8045C11.5109 18.949 11.9832 17.7963 11.9832 16.5953C11.9832 15.3944 11.5109 14.2417 10.6683 13.3862C9.82571 12.5307 8.68051 12.0411 7.48007 12.0232H1.32533C1.20374 12.0232 1.08332 12.0472 0.970987 12.0937C0.858649 12.1402 0.756578 12.2085 0.6706 12.2945C0.58462 12.3805 0.516421 12.4826 0.46989 12.5949C0.423358 12.7073 0.399404 12.8277 0.399404 12.9494V20.2413C0.399404 20.363 0.423358 20.4834 0.46989 20.5958C0.516421 20.7081 0.58462 20.8102 0.6706 20.8962C0.756578 20.9822 0.858649 21.0504 0.970987 21.097C1.08332 21.1435 1.20374 21.1675 1.32533 21.1675ZM7.48007 13.8755C8.19208 13.8893 8.87028 14.182 9.36894 14.6905C9.8676 15.1991 10.1469 15.883 10.1469 16.5953C10.1469 17.3077 9.8676 17.9916 9.36894 18.5002C8.87028 19.0087 8.19208 19.3013 7.48007 19.3151H2.25125V13.8755H7.48007Z" fill="#A93618"/>
<path d="M33.0299 34.9999C34.8179 34.9999 36.5658 34.4695 38.0525 33.4759C39.5392 32.4822 40.698 31.0699 41.3823 29.4176C42.0666 27.7652 42.2457 25.947 41.8969 24.1928C41.5482 22.4386 40.6872 20.8273 39.423 19.5625C38.1587 18.2978 36.5479 17.4364 34.7942 17.0873C33.0406 16.7383 31.2228 16.9172 29.5708 17.6015C27.9188 18.2858 26.5068 19.4448 25.5133 20.9318C24.5197 22.4188 23.9894 24.1671 23.9891 25.9556C23.9916 28.3534 24.9448 30.6523 26.6397 32.3478C28.3346 34.0434 30.6328 34.9972 33.0299 34.9999ZM33.0299 18.7638C34.4515 18.7642 35.8411 19.1862 37.023 19.9765C38.2049 20.7668 39.126 21.8899 39.6698 23.2037C40.2137 24.5176 40.3559 25.9633 40.0784 27.358C39.801 28.7527 39.1164 30.0338 38.1111 31.0393C37.1058 32.0449 35.8251 32.7297 34.4308 33.0072C33.0365 33.2847 31.5912 33.1425 30.2777 32.5985C28.9642 32.0545 27.8414 31.1331 27.0513 29.9509C26.2613 28.7687 25.8393 27.3787 25.8389 25.9567C25.8422 24.0505 26.601 22.2235 27.9491 20.8763C29.2971 19.529 31.1243 18.7715 33.0299 18.7699V18.7638Z" fill="#A93618"/>
<path d="M6.61937 17.5211H8.23742C8.48298 17.5211 8.71849 17.4235 8.89213 17.2498C9.06578 17.0761 9.16333 16.8405 9.16333 16.5949C9.16333 16.3492 9.06578 16.1137 8.89213 15.94C8.71849 15.7663 8.48298 15.6687 8.23742 15.6687H6.61937C6.3738 15.6687 6.13828 15.7663 5.96464 15.94C5.79099 16.1137 5.69344 16.3492 5.69344 16.5949C5.69344 16.8405 5.79099 17.0761 5.96464 17.2498C6.13828 17.4235 6.3738 17.5211 6.61937 17.5211Z" fill="#A93618"/>
<path d="M32.4628 30.0107H34.5045C34.75 30.0107 34.9856 29.9131 35.1592 29.7394C35.3328 29.5658 35.4304 29.3302 35.4304 29.0845C35.4304 28.8389 35.3328 28.6033 35.1592 28.4296C34.9856 28.256 34.75 28.1584 34.5045 28.1584H32.4628C32.4206 28.1573 32.3804 28.1401 32.3506 28.1103C32.3207 28.0804 32.3035 28.0402 32.3025 27.9981V27.0433C32.3035 27.0011 32.3207 26.9609 32.3506 26.9311C32.3804 26.9012 32.4206 26.884 32.4628 26.883H33.599C34.1325 26.8824 34.6439 26.6702 35.0212 26.2929C35.3984 25.9155 35.6105 25.4039 35.6111 24.8703V23.9145C35.6103 23.381 35.398 22.8695 35.0209 22.4922C34.6437 22.115 34.1324 21.9027 33.599 21.9019H31.5573C31.4357 21.9019 31.3153 21.9258 31.2029 21.9724C31.0906 22.0189 30.9885 22.0871 30.9025 22.1731C30.8166 22.2591 30.7484 22.3612 30.7018 22.4736C30.6553 22.586 30.6313 22.7064 30.6313 22.828C30.6313 22.9497 30.6553 23.0701 30.7018 23.1825C30.7484 23.2948 30.8166 23.3969 30.9025 23.4829C30.9885 23.5689 31.0906 23.6372 31.2029 23.6837C31.3153 23.7302 31.4357 23.7542 31.5573 23.7542H33.599C33.6412 23.7552 33.6813 23.7725 33.7112 23.8023C33.741 23.8321 33.7582 23.8723 33.7593 23.9145V24.8703C33.7582 24.9125 33.741 24.9527 33.7112 24.9825C33.6813 25.0124 33.6412 25.0296 33.599 25.0306H32.4628C31.9293 25.0312 31.4178 25.2434 31.0406 25.6207C30.6634 25.998 30.4512 26.5097 30.4507 27.0433V27.9981C30.4515 28.5316 30.6637 29.0431 31.0409 29.4203C31.4181 29.7976 31.9294 30.0099 32.4628 30.0107Z" fill="#A93618"/>
<path d="M33.0292 23.7552C33.2747 23.7552 33.5102 23.6576 33.6839 23.4839C33.8575 23.3102 33.9551 23.0747 33.9551 22.829V21.4811C33.9551 21.2355 33.8575 20.9999 33.6839 20.8262C33.5102 20.6525 33.2747 20.5549 33.0292 20.5549C32.7836 20.5549 32.5481 20.6525 32.3744 20.8262C32.2008 20.9999 32.1032 21.2355 32.1032 21.4811V22.828C32.1031 22.9497 32.127 23.0703 32.1734 23.1828C32.2199 23.2952 32.2881 23.3975 32.3741 23.4836C32.4601 23.5697 32.5622 23.638 32.6746 23.6846C32.787 23.7312 32.9075 23.7552 33.0292 23.7552Z" fill="#A93618"/>
<path d="M33.0292 31.3585C33.2747 31.3585 33.5102 31.261 33.6839 31.0873C33.8575 30.9136 33.9551 30.678 33.9551 30.4324V29.0855C33.9551 28.8398 33.8575 28.6043 33.6839 28.4306C33.5102 28.2569 33.2747 28.1593 33.0292 28.1593C32.7836 28.1593 32.5481 28.2569 32.3744 28.4306C32.2008 28.6043 32.1032 28.8398 32.1032 29.0855V30.4324C32.1032 30.678 32.2008 30.9136 32.3744 31.0873C32.5481 31.261 32.7836 31.3585 33.0292 31.3585Z" fill="#A93618"/>
<path d="M1.32539 7.07267H37.2054C37.451 7.07267 37.6865 6.97509 37.8602 6.8014C38.0338 6.62771 38.1313 6.39214 38.1313 6.1465C38.1313 5.90087 38.0338 5.66529 37.8602 5.4916C37.6865 5.31791 37.451 5.22034 37.2054 5.22034H1.32539C1.07983 5.22034 0.844315 5.31791 0.670673 5.4916C0.497028 5.66529 0.399483 5.90087 0.399483 6.1465C0.399483 6.39214 0.497028 6.62771 0.670673 6.8014C0.844315 6.97509 1.07983 7.07267 1.32539 7.07267Z" fill="#A93618"/>
<path d="M1.32524 27.9704H20.8124C21.0579 27.9704 21.2934 27.8728 21.4671 27.6991C21.6407 27.5254 21.7383 27.2899 21.7383 27.0442C21.7383 26.7986 21.6407 26.563 21.4671 26.3893C21.2934 26.2156 21.0579 26.118 20.8124 26.118H1.32524C1.07967 26.118 0.844162 26.2156 0.670519 26.3893C0.496876 26.563 0.399323 26.7986 0.399323 27.0442C0.399323 27.2899 0.496876 27.5254 0.670519 27.6991C0.844162 27.8728 1.07967 27.9704 1.32524 27.9704Z" fill="#A93618"/>
</svg>
