<svg width="99" height="65" viewBox="0 0 99 65" fill="none" xmlns="http://www.w3.org/2000/svg">
<path d="M99 10.7359C99.0013 9.33918 98.7209 7.95658 98.1755 6.67077C97.6301 5.38496 96.831 4.22236 95.8259 3.25252L95.7512 3.17781C93.818 1.33604 91.2496 0.309615 88.5795 0.311652H10.4224C7.75188 0.308655 5.18283 1.33445 3.24881 3.17599L3.1741 3.2507C2.16882 4.22075 1.36956 5.38364 0.824175 6.66978C0.278786 7.95592 -0.00152821 9.33887 6.26601e-06 10.7359V54.1382C-0.00172207 56.677 0.926491 59.1285 2.60925 61.0294C2.6384 61.0659 2.66756 61.1023 2.70035 61.1369C4.46947 63.0861 6.90903 64.2958 9.5314 64.5242H9.57513C9.85573 64.5461 10.1382 64.5588 10.4206 64.5588H88.5795C88.8619 64.5588 89.1443 64.5479 89.4249 64.5242H89.4686C92.091 64.2958 94.5306 63.0861 96.2997 61.1369C96.3307 61.1023 96.3616 61.0659 96.3908 61.0294C98.0731 59.1289 99.0013 56.6782 99 54.1401V10.7359ZM91.8447 59.8214L91.821 59.8341L91.7955 59.8487C91.046 60.2714 90.2207 60.5426 89.3666 60.6468H89.3156C89.0736 60.6742 88.8303 60.6882 88.5867 60.6887H10.4224C10.1789 60.6882 9.93555 60.6742 9.69357 60.6468H9.64072C8.78318 60.5416 7.95476 60.2686 7.20276 59.8432L7.16267 59.8214C7.03877 59.7485 6.91669 59.6738 6.79825 59.5936L15.3913 48.661C15.708 48.2577 15.8516 47.7451 15.7905 47.236C15.7293 46.7269 15.4684 46.2629 15.0651 45.9461C14.6618 45.6293 14.1492 45.4857 13.6401 45.5469C13.1309 45.608 12.667 45.869 12.3502 46.2722L4.3038 56.4906C4.01519 55.7399 3.86756 54.9425 3.86832 54.1382V10.7359C3.86723 9.54507 4.1924 8.37673 4.80852 7.3577L27.3552 27.2368L21.9508 34.097C21.793 34.2964 21.6761 34.5249 21.6067 34.7695C21.5374 35.0142 21.5169 35.2701 21.5466 35.5226C21.5763 35.7751 21.6555 36.0193 21.7797 36.2412C21.9039 36.463 22.0707 36.6582 22.2704 36.8156C22.4702 36.9729 22.699 37.0893 22.9438 37.158C23.1886 37.2268 23.4446 37.2466 23.697 37.2163C23.9495 37.186 24.1935 37.1062 24.415 36.9815C24.6366 36.8567 24.8314 36.6895 24.9883 36.4894L30.2596 29.7987L42.0267 40.1737C44.0937 41.9899 46.7512 42.9916 49.5028 42.9916C52.2543 42.9916 54.9118 41.9899 56.9788 40.1737L68.7459 29.7987L92.2127 59.5918C92.0925 59.6719 91.9704 59.7485 91.8483 59.8214H91.8447ZM10.4224 4.17997H88.5776C89.5117 4.17855 90.4351 4.37802 91.2853 4.76486L67.742 25.524L67.6855 25.5732L54.4188 37.2711C53.0588 38.4668 51.31 39.1263 49.4991 39.1263C47.6883 39.1263 45.9394 38.4668 44.5794 37.2711L31.3128 25.5732L31.2544 25.5222L7.71477 4.76486C8.56499 4.37819 9.48838 4.17872 10.4224 4.17997ZM71.6449 27.2368L94.2025 7.35588C94.8186 8.3749 95.1437 9.54325 95.1427 10.734V54.1364C95.1436 54.942 94.9953 55.7408 94.7054 56.4924L71.6449 27.2368Z" fill="white"/>
<path d="M20.7044 40.3248C20.6546 40.2086 20.5936 40.0975 20.5222 39.9932C20.3805 39.7812 20.1985 39.5992 19.9865 39.4575C19.8822 39.3861 19.7711 39.3251 19.6549 39.2753C19.5373 39.2267 19.4152 39.1895 19.2905 39.1641C19.0416 39.1136 18.785 39.1136 18.5361 39.1641C18.4113 39.1891 18.2892 39.2263 18.1717 39.2753C18.0542 39.3247 17.9418 39.3857 17.8364 39.4575C17.7311 39.5287 17.6329 39.6099 17.5431 39.6998C17.4529 39.7896 17.3723 39.8886 17.3026 39.995C17.2312 40.0994 17.1702 40.2104 17.1204 40.3266C17.0712 40.4441 17.034 40.5662 17.0092 40.691C16.9841 40.8158 16.9713 40.9428 16.9709 41.07C16.9713 41.1967 16.9841 41.323 17.0092 41.4472C17.0334 41.5722 17.0707 41.6944 17.1204 41.8116C17.1698 41.9292 17.2308 42.0415 17.3026 42.1469C17.3724 42.2527 17.453 42.351 17.5431 42.4403C17.6321 42.5305 17.7305 42.6111 17.8364 42.6808C17.9419 42.7525 18.0542 42.8136 18.1717 42.863C18.5237 43.0117 18.9124 43.0505 19.2868 42.9741C19.4116 42.9488 19.5336 42.9115 19.6513 42.863C19.7674 42.8132 19.8785 42.7521 19.9829 42.6808C20.0893 42.611 20.1882 42.5304 20.278 42.4403C20.3678 42.3503 20.449 42.2521 20.5204 42.1469C20.5922 42.0415 20.6532 41.9292 20.7026 41.8116C20.7521 41.6942 20.79 41.5721 20.8156 41.4472C20.8401 41.323 20.8523 41.1967 20.852 41.07C20.8523 40.9428 20.8401 40.8159 20.8156 40.691C20.7902 40.5657 20.753 40.4431 20.7044 40.3248Z" fill="white"/>
</svg>
