<svg width="92" height="92" viewBox="0 0 92 92" fill="none" xmlns="http://www.w3.org/2000/svg">
<path d="M22.7691 34.1315C21.6441 34.1315 20.5444 34.4651 19.609 35.0901C18.6737 35.7151 17.9446 36.6035 17.5141 37.6428C17.0836 38.6822 16.971 39.8258 17.1904 40.9292C17.4099 42.0325 17.9516 43.046 18.7471 43.8415C19.5426 44.637 20.5561 45.1787 21.6594 45.3982C22.7628 45.6176 23.9065 45.505 24.9458 45.0745C25.9851 44.644 26.8735 43.9149 27.4985 42.9796C28.1235 42.0442 28.4571 40.9445 28.4571 39.8195C28.4571 38.311 27.8578 36.8642 26.7911 35.7975C25.7244 34.7308 24.2776 34.1315 22.7691 34.1315ZM45.5228 34.1315C44.3979 34.1315 43.2981 34.4651 42.3628 35.0901C41.4274 35.7151 40.6984 36.6035 40.2678 37.6428C39.8373 38.6822 39.7247 39.8258 39.9442 40.9292C40.1636 42.0325 40.7054 43.046 41.5008 43.8415C42.2963 44.637 43.3098 45.1787 44.4132 45.3982C45.5165 45.6176 46.6602 45.505 47.6995 45.0745C48.7388 44.644 49.6272 43.9149 50.2522 42.9796C50.8772 42.0442 51.2108 40.9445 51.2108 39.8195C51.2108 38.3113 50.6118 36.8648 49.5455 35.7982C48.4792 34.7315 47.033 34.1321 45.5247 34.1315H45.5228ZM68.2766 34.1315C67.1516 34.1315 66.0519 34.4651 65.1165 35.0901C64.1811 35.7151 63.4521 36.6035 63.0216 37.6428C62.5911 38.6822 62.4784 39.8258 62.6979 40.9292C62.9174 42.0325 63.4591 43.046 64.2546 43.8415C65.05 44.637 66.0635 45.1787 67.1669 45.3982C68.2702 45.6176 69.4139 45.505 70.4532 45.0745C71.4926 44.644 72.3809 43.9149 73.0059 42.9796C73.6309 42.0442 73.9645 40.9445 73.9645 39.8195C73.9645 38.3113 73.3655 36.8648 72.2992 35.7982C71.2329 34.7315 69.7867 34.1321 68.2785 34.1315H68.2766ZM45.5247 0C20.3982 0 0.0153809 17.8272 0.0153809 39.8195C0.0153809 52.3876 6.68593 63.577 17.0812 70.8763V91.0168L37.0159 78.9198C39.8271 79.3915 42.6723 79.632 45.5228 79.639C70.6571 79.639 91.0322 61.8118 91.0322 39.8195C91.0322 17.8272 70.659 0 45.5247 0ZM45.5247 73.951C42.2921 73.9416 39.0695 73.5916 35.9102 72.9069L22.5134 80.9543L22.6922 67.7631C12.4335 61.5906 5.70333 51.3858 5.70333 39.8195C5.70333 20.975 23.5306 5.68795 45.5228 5.68795C67.5151 5.68795 85.3423 20.9712 85.3423 39.8195C85.3423 58.6678 67.5093 73.951 45.5247 73.951Z" fill="#FDFDFD"/>
</svg>
