<svg width="36" height="39" viewBox="0 0 36 39" fill="none" xmlns="http://www.w3.org/2000/svg">
<path d="M18.0253 26.9494C25.1655 26.9494 30.7671 15.4906 30.7671 0.862098C30.7668 0.633537 30.6759 0.414414 30.5144 0.252797C30.3528 0.0911796 30.1337 0.000266233 29.9052 0L6.14528 0C5.91679 0.000266233 5.69772 0.0911796 5.53615 0.252797C5.37458 0.414414 5.28369 0.633537 5.28342 0.862098C5.28242 15.4916 10.88 26.9494 18.0253 26.9494ZM29.0353 1.7252C28.8211 14.551 23.8672 25.2252 18.0253 25.2252C12.1833 25.2252 7.22839 14.55 7.01921 1.7252H29.0353Z" fill="#A93618"/>
<path d="M10.6978 21.5826C10.9011 21.5817 11.0975 21.509 11.2524 21.3775C11.4073 21.2459 11.5109 21.0639 11.5448 20.8634C11.5787 20.663 11.5408 20.457 11.4377 20.2818C11.3346 20.1066 11.1731 19.9734 10.9814 19.9057C5.81026 18.105 2.13856 11.9174 1.86703 4.68968H6.14515C6.37387 4.68968 6.5932 4.5988 6.75493 4.43703C6.91665 4.27526 7.00751 4.05585 7.00751 3.82708C7.00751 3.5983 6.91665 3.3789 6.75493 3.21713C6.5932 3.05536 6.37387 2.96448 6.14515 2.96448H0.989085C0.760588 2.96474 0.541518 3.05566 0.379946 3.21727C0.218374 3.37889 0.12749 3.59801 0.127224 3.82657C0.127224 12.1438 4.35807 19.4248 10.4152 21.5313C10.5058 21.5643 10.6014 21.5816 10.6978 21.5826Z" fill="#A93618"/>
<path d="M25.3505 21.5826C25.4471 21.5826 25.543 21.5662 25.6341 21.5343C31.6923 19.4268 35.9221 12.1458 35.9221 3.82758C35.9221 3.59902 35.8315 3.37979 35.6701 3.21799C35.5087 3.05618 35.2898 2.96501 35.0613 2.96448H29.9052C29.6765 2.96448 29.4571 3.05536 29.2954 3.21713C29.1337 3.3789 29.0428 3.5983 29.0428 3.82708C29.0428 4.05585 29.1337 4.27526 29.2954 4.43703C29.4571 4.5988 29.6765 4.68968 29.9052 4.68968H34.1823C33.9108 11.9174 30.2401 18.106 25.0669 19.9057C24.8753 19.9734 24.7137 20.1066 24.6106 20.2818C24.5076 20.457 24.4696 20.663 24.5035 20.8634C24.5374 21.0639 24.641 21.2459 24.7959 21.3775C24.9509 21.509 25.1473 21.5817 25.3505 21.5826Z" fill="#A93618"/>
<path d="M15.4106 33.7365H20.6401C20.8686 33.7362 21.0877 33.6453 21.2492 33.4837C21.4108 33.3221 21.5017 33.1029 21.502 32.8744V25.4716C21.502 25.2428 21.4111 25.0234 21.2494 24.8617C21.0876 24.6999 20.8683 24.609 20.6396 24.609C20.4109 24.609 20.1915 24.6999 20.0298 24.8617C19.8681 25.0234 19.7772 25.2428 19.7772 25.4716V32.0103H16.2745V25.4716C16.2745 25.2428 16.1836 25.0234 16.0219 24.8617C15.8602 24.6999 15.6408 24.609 15.4121 24.609C15.1834 24.609 14.9641 24.6999 14.8023 24.8617C14.6406 25.0234 14.5498 25.2428 14.5498 25.4716V32.8754C14.55 33.1037 14.6408 33.3226 14.8022 33.484C14.9636 33.6454 15.1824 33.7362 15.4106 33.7365Z" fill="#A93618"/>
<path d="M11.0488 38.8075H25.0004C25.2289 38.8072 25.448 38.7163 25.6096 38.5547C25.7711 38.3931 25.862 38.174 25.8623 37.9454V35.5533C25.8612 34.6145 25.4879 33.7144 24.8243 33.0506C24.1607 32.3868 23.2609 32.0134 22.3223 32.0123H13.7259C12.7874 32.0134 11.8876 32.3868 11.2239 33.0506C10.5603 33.7144 10.187 34.6145 10.1859 35.5533V37.9454C10.1859 38.0587 10.2083 38.1709 10.2516 38.2755C10.295 38.3802 10.3586 38.4753 10.4387 38.5554C10.5189 38.6354 10.614 38.6989 10.7187 38.7422C10.8233 38.7854 10.9355 38.8076 11.0488 38.8075ZM24.1376 37.0833H11.9106V35.5543C11.9114 35.0729 12.103 34.6116 12.4432 34.2712C12.7835 33.9309 13.2447 33.7393 13.7259 33.7385H22.3274C22.8075 33.7407 23.2673 33.9327 23.6065 34.2726C23.9456 34.6126 24.1365 35.073 24.1376 35.5533V37.0833Z" fill="#A93618"/>
<path d="M9.2306 38.8045H26.8198C27.0485 38.8045 27.2678 38.7137 27.4295 38.5519C27.5913 38.3901 27.6821 38.1707 27.6821 37.9419C27.6821 37.7132 27.5913 37.4938 27.4295 37.332C27.2678 37.1702 27.0485 37.0793 26.8198 37.0793H9.2306C9.00189 37.0793 8.78255 37.1702 8.62082 37.332C8.4591 37.4938 8.36824 37.7132 8.36824 37.9419C8.36824 38.1707 8.4591 38.3901 8.62082 38.5519C8.78255 38.7137 9.00189 38.8045 9.2306 38.8045Z" fill="#A93618"/>
</svg>
