<svg width="40" height="40" viewBox="0 0 40 40" fill="none" xmlns="http://www.w3.org/2000/svg">
<path d="M4.58617 32.6478C2.19732 29.7673 0.677689 26.2661 0.204979 22.5535C-0.267731 18.8409 0.326015 15.0704 1.91679 11.683C3.50756 8.29549 6.02962 5.43106 9.18802 3.42462C12.3464 1.41818 16.0106 0.352661 19.7522 0.352661C23.4937 0.352661 27.1579 1.41818 30.3163 3.42462C33.4747 5.43106 35.9968 8.29549 37.5876 11.683C39.1783 15.0704 39.7721 18.8409 39.2994 22.5535C38.8267 26.2661 37.307 29.7673 34.9182 32.6478C34.8723 32.7209 34.8157 32.7867 34.7502 32.8429C32.9041 35.0192 30.6066 36.7676 28.0172 37.9667C25.4278 39.1658 22.6086 39.7869 19.7552 39.7869C16.9018 39.7869 14.0826 39.1658 11.4932 37.9667C8.9038 36.7676 6.6063 35.0192 4.76015 32.8429C4.69275 32.7869 4.6341 32.7211 4.58617 32.6478ZM19.7517 2.12125C16.423 2.12063 13.1597 3.04617 10.3267 4.79438C7.49379 6.5426 5.2028 9.04457 3.70995 12.0206C2.2171 14.9966 1.58123 18.3292 1.87343 21.646C2.16563 24.9628 3.37439 28.1329 5.36456 30.8018C8.00264 27.9773 11.4146 25.9934 15.1739 25.0981C13.3711 24.0845 11.955 22.5017 11.1471 20.5975C10.3392 18.6932 10.1851 16.5748 10.7089 14.5736C11.2326 12.5724 12.4047 10.8012 14.0418 9.53722C15.6789 8.27319 17.6886 7.58755 19.7567 7.58755C21.8248 7.58755 23.8345 8.27319 25.4716 9.53722C27.1087 10.8012 28.2808 12.5724 28.8045 14.5736C29.3283 16.5748 29.1742 18.6932 28.3663 20.5975C27.5584 22.5017 26.1423 24.0845 24.3395 25.0981C28.0988 25.9934 31.5107 27.9773 34.1488 30.8018C36.1395 28.1322 37.3484 24.9612 37.6402 21.6435C37.932 18.3258 37.2953 14.9924 35.8012 12.0161C34.3071 9.03973 32.0147 6.53789 29.1802 4.79042C26.3458 3.04294 23.0812 2.11876 19.7517 2.12125ZM19.7517 24.5539C21.2558 24.5539 22.7261 24.1078 23.9767 23.2719C25.2273 22.436 26.2021 21.248 26.7777 19.858C27.3533 18.468 27.5039 16.9385 27.2104 15.4629C26.917 13.9873 26.1927 12.6318 25.1291 11.568C24.0656 10.5041 22.7105 9.77962 21.2353 9.4861C19.7601 9.19258 18.231 9.34323 16.8414 9.91898C15.4518 10.4947 14.2641 11.4697 13.4284 12.7207C12.5928 13.9717 12.1468 15.4424 12.1468 16.9469C12.1492 18.9637 12.9512 20.8971 14.3769 22.3232C15.8025 23.7493 17.7355 24.5515 19.7517 24.5539ZM19.7517 38.0336C22.2501 38.0358 24.7212 37.515 27.0064 36.5048C29.2916 35.4946 31.3402 34.0173 33.0205 32.1679C31.3393 30.3213 29.2912 28.8462 27.0073 27.8368C24.7235 26.8274 22.2541 26.306 19.7572 26.306C17.2603 26.306 14.7909 26.8274 12.5071 27.8368C10.2232 28.8462 8.17513 30.3213 6.49392 32.1679C8.17263 34.0167 10.2193 35.4939 12.5024 36.5047C14.7856 37.5156 17.2549 38.0377 19.7517 38.0376V38.0336Z" fill="#A93618"/>
</svg>
