<svg width="87" height="88" viewBox="0 0 87 88" fill="none" xmlns="http://www.w3.org/2000/svg">
<path d="M68.6456 54.1048C67.8619 53.2299 66.9064 52.5256 65.8387 52.036C64.771 51.5464 63.6139 51.2818 62.4395 51.2588C61.2571 51.2865 60.0922 51.551 59.0137 52.0366C57.9353 52.5222 56.9651 53.2192 56.1607 54.0862L50.3587 59.8696C49.8818 59.6125 49.4033 59.3741 48.945 59.1357C48.2838 58.7975 47.6598 58.4931 47.1271 58.1633C41.373 54.4246 36.2677 49.7717 32.0126 44.3881C30.0407 41.9978 28.3751 39.3704 27.0545 36.5671C28.5595 35.1906 29.9547 33.7583 31.3142 32.3818C31.8216 31.8744 32.3424 31.335 32.8565 30.8209C33.7645 30.0303 34.4925 29.0542 34.9913 27.9584C35.4901 26.8626 35.7482 25.6725 35.7482 24.4685C35.7482 23.2645 35.4901 22.0745 34.9913 20.9787C34.4925 19.8829 33.7645 18.9068 32.8565 18.1162L27.8442 13.1039C27.2744 12.534 26.6876 11.9473 26.1363 11.3605C25.0354 10.2224 23.8788 9.04713 22.6849 7.94626C21.8906 7.10963 20.9377 6.43951 19.8818 5.97498C18.8259 5.51044 17.688 5.2608 16.5346 5.2406C14.1822 5.2895 11.9426 6.25842 10.2963 7.9395L10.2591 7.9767L4.01752 14.2775C1.70104 16.5504 0.285792 19.5851 0.0334382 22.8206C-0.179031 27.4783 0.62298 32.1265 2.38398 36.4436C5.67106 45.0087 10.4239 52.9362 16.4297 59.8713C24.3054 69.3443 34.1157 77.0236 45.2027 82.3942C50.2385 84.9924 55.7213 86.6123 61.3606 87.168C61.7462 87.1866 62.1503 87.2052 62.5173 87.2052C64.5057 87.2518 66.4808 86.8692 68.3079 86.0833C70.135 85.2974 71.7712 84.1268 73.1049 82.6512C73.1235 82.614 73.1607 82.5954 73.1776 82.5599C74.1864 81.3938 75.259 80.2845 76.3905 79.237C77.1803 78.4845 77.9886 77.6948 78.7766 76.8696C80.5035 75.1966 81.5033 72.9116 81.5601 70.5079C81.5362 69.3221 81.2735 68.1532 80.7877 67.0712C80.3019 65.9892 79.603 65.0162 78.7326 64.2105L68.6456 54.1048ZM75.2187 73.4351C75.2001 73.4351 75.2001 73.4537 75.2187 73.4351C74.5033 74.2062 73.7678 74.9046 72.978 75.6757C71.7304 76.8359 70.545 78.0614 69.4269 79.3469C68.5598 80.3088 67.4923 81.0687 66.2996 81.573C65.1069 82.0773 63.8181 82.3138 62.524 82.2657C62.2484 82.2657 61.9542 82.2657 61.6785 82.2471C56.6796 81.7301 51.8237 80.2715 47.3673 77.9485C36.9268 72.8828 27.6875 65.6475 20.2667 56.7259C14.6202 50.2079 10.1475 42.7594 7.04786 34.712C5.50615 31.0825 4.80326 27.1519 4.99156 23.213C5.13758 21.145 6.04065 19.2034 7.52812 17.7594L13.785 11.5025C14.5148 10.7281 15.5129 10.2617 16.5752 10.1987C17.6025 10.2593 18.565 10.7208 19.2555 11.4839L19.3113 11.5397C20.4307 12.5865 21.4961 13.6687 22.6156 14.8254C23.1854 15.4122 23.7722 16.0007 24.359 16.6061L29.3713 21.6183C29.823 21.9427 30.1911 22.3701 30.445 22.865C30.6989 23.3599 30.8313 23.9081 30.8313 24.4643C30.8313 25.0205 30.6989 25.5688 30.445 26.0637C30.1911 26.5585 29.823 26.9859 29.3713 27.3103C28.8386 27.843 28.3245 28.3757 27.7918 28.8898C26.2496 30.4692 24.7801 31.9336 23.1837 33.3693C23.1465 33.4065 23.111 33.4251 23.0924 33.4606C22.5268 33.9749 22.1321 34.65 21.9613 35.3951C21.7906 36.1402 21.8518 36.9198 22.137 37.629L22.1928 37.7982C23.7028 41.2869 25.6995 44.544 28.1233 47.4726L28.1419 47.4912C32.7252 53.2976 38.2333 58.3098 44.4452 62.3266C45.1761 62.7748 45.9296 63.1851 46.7027 63.556C47.3639 63.8942 47.9879 64.1986 48.5206 64.5284C48.5933 64.5656 48.6677 64.6197 48.7404 64.6569C49.3012 64.9522 49.9245 65.1093 50.5583 65.1152C51.0845 65.102 51.6027 64.983 52.0821 64.7654C52.5614 64.5478 52.9921 64.236 53.3485 63.8486L59.6273 57.5698C60.3393 56.771 61.3322 56.2779 62.3989 56.1933C62.9076 56.2248 63.4045 56.3601 63.859 56.5907C64.3135 56.8213 64.7161 57.1424 65.042 57.5342L65.0792 57.5714L75.195 67.6872C75.6358 68.0246 75.9934 68.4586 76.2402 68.9558C76.4871 69.453 76.6166 70.0002 76.6189 70.5553C76.6212 71.1105 76.4961 71.6587 76.2534 72.1579C76.0107 72.6571 75.6567 73.0941 75.2187 73.4351Z" fill="white"/>
<path d="M46.9073 20.9047C51.707 21.7374 56.1321 24.0332 59.5767 27.4777C63.0212 30.9223 65.317 35.3474 66.1497 40.1471C66.2464 40.7239 66.5452 41.2474 66.9925 41.6242C67.4399 42.0009 68.0067 42.2062 68.5915 42.2034C68.7331 42.2001 68.8743 42.1877 69.0143 42.1662C69.3365 42.1125 69.6449 41.9957 69.9218 41.8225C70.1988 41.6494 70.4388 41.4232 70.6281 41.1571C70.8174 40.8909 70.9524 40.59 71.0251 40.2716C71.0979 39.9532 71.107 39.6235 71.052 39.3015C70.0459 33.494 67.2687 28.1397 63.101 23.972C58.9333 19.8043 53.579 17.0272 47.7715 16.021C47.1243 15.9124 46.4604 16.0635 45.924 16.4416C45.3876 16.8196 45.0221 17.3941 44.9068 18.0401C44.8475 18.3598 44.8524 18.6881 44.9212 19.0059C44.99 19.3237 45.1212 19.6246 45.3074 19.8912C45.4936 20.1578 45.7309 20.3847 46.0056 20.5587C46.2802 20.7327 46.5868 20.8503 46.9073 20.9047Z" fill="white"/>
<path d="M86.7853 38.5862C85.1302 29.0223 80.5576 20.2045 73.6944 13.3413C66.8312 6.4781 58.0133 1.90553 48.4495 0.250363C48.1255 0.189378 47.7926 0.193725 47.4702 0.26315C47.1479 0.332575 46.8427 0.465679 46.5726 0.65465C46.3024 0.843622 46.0727 1.08465 45.897 1.3636C45.7212 1.64255 45.6029 1.95379 45.5491 2.27906C45.4953 2.60434 45.5069 2.93709 45.5834 3.25779C45.6599 3.57849 45.7997 3.88067 45.9946 4.14662C46.1895 4.41256 46.4355 4.6369 46.7183 4.80647C47.001 4.97603 47.3148 5.08742 47.6412 5.13408C56.1897 6.60996 64.072 10.6953 70.2062 16.8295C76.3403 22.9637 80.4257 30.846 81.9016 39.3945C81.9983 39.9713 82.2971 40.4949 82.7444 40.8716C83.1918 41.2483 83.7586 41.4536 84.3435 41.4508C84.485 41.4476 84.6263 41.4351 84.7662 41.4136C85.0859 41.3637 85.3924 41.2505 85.6678 41.0806C85.9432 40.9107 86.1819 40.6875 86.3699 40.4242C86.5579 40.1609 86.6915 39.8627 86.7629 39.5471C86.8342 39.2315 86.8419 38.9048 86.7853 38.5862Z" fill="white"/>
</svg>
