<svg width="40" height="40" viewBox="0 0 40 40" fill="none" xmlns="http://www.w3.org/2000/svg">
<path d="M19.9186 39.3041C23.7845 39.3041 27.5636 38.1575 30.7779 36.0091C33.9923 33.8607 36.4976 30.8072 37.977 27.2346C39.4564 23.662 39.8435 19.7308 39.0893 15.9382C38.3351 12.1456 36.4735 8.66181 33.7399 5.92747C31.0063 3.19313 27.5235 1.33102 23.7319 0.576615C19.9403 -0.177788 16.0102 0.209399 12.4386 1.68921C8.86703 3.16903 5.81433 5.675 3.66657 8.89025C1.51881 12.1055 0.37244 15.8856 0.37244 19.7525C0.378296 24.9361 2.4395 29.9058 6.10386 33.5711C9.76821 37.2365 14.7365 39.2983 19.9186 39.3041ZM19.9186 1.93921C23.4408 1.93921 26.8839 2.98395 29.8125 4.9413C32.741 6.89865 35.0236 9.68071 36.3715 12.9357C37.7193 16.1906 38.072 19.7723 37.3849 23.2277C36.6977 26.6832 35.0016 29.8572 32.5111 32.3485C30.0205 34.8397 26.8474 36.5362 23.3929 37.2236C19.9384 37.9109 16.3577 37.5581 13.1037 36.2099C9.8496 34.8616 7.06831 32.5785 5.1115 29.6491C3.15469 26.7197 2.11024 23.2757 2.11024 19.7525C2.11583 15.0299 3.99386 10.5022 7.33237 7.16279C10.6709 3.82336 15.1973 1.9448 19.9186 1.93921Z" fill="#A93618"/>
<path d="M24.6735 28.6791C25.1936 28.6775 25.6919 28.4699 26.0594 28.1018C26.427 27.7336 26.6337 27.2348 26.6345 26.7145V12.7902C26.6344 12.4459 26.5437 12.1077 26.3715 11.8097C26.1993 11.5116 25.9518 11.264 25.6537 11.092C25.3556 10.9199 25.0175 10.8293 24.6733 10.8293C24.3291 10.8294 23.991 10.92 23.6929 11.0921L11.637 18.0543C11.3387 18.2264 11.0911 18.4741 10.9189 18.7723C10.7467 19.0706 10.656 19.4089 10.656 19.7534C10.656 20.0978 10.7467 20.4361 10.9189 20.7344C11.0911 21.0326 11.3387 21.2803 11.637 21.4524L23.6929 28.4135C23.9908 28.5867 24.329 28.6783 24.6735 28.6791ZM24.6735 12.5649C24.7129 12.5655 24.7514 12.5766 24.7851 12.597C24.8197 12.6158 24.8485 12.6438 24.8682 12.6779C24.8879 12.7119 24.8978 12.7508 24.8967 12.7902V26.7145C24.8978 26.7539 24.8879 26.7928 24.8682 26.8268C24.8485 26.8609 24.8197 26.8889 24.7851 26.9076C24.7516 26.9286 24.713 26.9398 24.6735 26.9398C24.634 26.9398 24.5953 26.9286 24.5618 26.9076L12.5059 19.9455C12.4721 19.9257 12.444 19.8974 12.4245 19.8635C12.4051 19.8295 12.3948 19.791 12.3948 19.7518C12.3948 19.7127 12.4051 19.6742 12.4245 19.6402C12.444 19.6062 12.4721 19.578 12.5059 19.5582L24.5618 12.597C24.5955 12.5765 24.634 12.5654 24.6735 12.5649Z" fill="#A93618"/>
</svg>
