<svg width="36" height="41" viewBox="0 0 36 41" fill="none" xmlns="http://www.w3.org/2000/svg">
<path d="M17.7501 41C18.1874 41.0003 18.622 40.9382 19.0374 40.8161C28.8859 37.8985 35.2498 30.9339 35.2498 23.0716V8.81335C35.2507 8.22387 35.0198 7.65277 34.5971 7.19958C34.1744 6.7464 33.5868 6.43985 32.9367 6.33338C28.0443 5.60886 23.4228 3.83399 19.4708 1.16178C18.9788 0.820675 18.3733 0.635498 17.7501 0.635498C17.1269 0.635498 16.5214 0.820675 16.0294 1.16178C12.0781 3.83407 7.45733 5.60925 2.56549 6.33428C1.91532 6.44059 1.32762 6.74708 0.9049 7.20031C0.482182 7.65353 0.251274 8.22472 0.252449 8.81425V23.0698C0.252449 30.9312 6.61532 37.8967 16.4628 40.8143C16.8781 40.937 17.3127 40.9996 17.7501 41ZM32.5747 8.09941C32.7621 8.13041 32.9313 8.21934 33.0525 8.35057C33.1737 8.4818 33.2392 8.64693 33.2374 8.81694V23.0698C33.2374 30.1447 27.4146 36.4419 18.4038 39.112C17.9792 39.2366 17.521 39.2366 17.0964 39.112C8.08561 36.4428 2.26379 30.1429 2.26379 23.0707V8.81335C2.26201 8.64334 2.32748 8.47821 2.44869 8.34698C2.5699 8.21575 2.73909 8.12682 2.92653 8.09582C8.13594 7.32052 13.0559 5.42716 17.2623 2.5789C17.4018 2.48254 17.5732 2.43024 17.7496 2.43024C17.926 2.43024 18.0974 2.48254 18.2368 2.5789C22.4435 5.42865 27.3642 7.32325 32.5747 8.09941Z" fill="#A93618"/>
<path d="M18.6682 25.6574C18.9279 25.6578 19.185 25.6125 19.4249 25.524C19.6648 25.4355 19.8827 25.3056 20.0661 25.1417L23.8132 21.7998C23.9969 21.6361 24.1426 21.4418 24.242 21.2278C24.3414 21.0139 24.3926 20.7846 24.3926 20.5531C24.3926 20.3215 24.3414 20.0922 24.242 19.8783C24.1426 19.6644 23.9969 19.47 23.8132 19.3064L22.707 18.3198C22.336 17.9896 21.8332 17.8042 21.3091 17.8042C20.785 17.8042 20.2823 17.9896 19.9112 18.3198L18.6682 19.4265L15.5919 16.6829C15.2153 16.3623 14.7147 16.1833 14.194 16.1833C13.6734 16.1833 13.1727 16.3623 12.7961 16.6829L11.6899 17.6695C11.5064 17.8332 11.3608 18.0274 11.2615 18.2413C11.1622 18.4551 11.1111 18.6843 11.1111 18.9158C11.1111 19.1472 11.1622 19.3764 11.2615 19.5902C11.3608 19.8041 11.5064 19.9984 11.6899 20.162L17.2744 25.1426C17.4574 25.3058 17.6747 25.4353 17.9139 25.5236C18.1531 25.612 18.4094 25.6574 18.6682 25.6574ZM21.3343 19.5889L22.3912 20.5755L18.6441 23.8735L13.134 18.9153L14.2151 17.9511L17.9582 21.3325C18.1468 21.5006 18.4026 21.5951 18.6692 21.5951C18.9359 21.5951 19.1917 21.5006 19.3803 21.3325L21.3343 19.5889Z" fill="#A93618"/>
<path d="M17.7471 30.2603C19.9385 30.2607 22.0808 29.6814 23.9031 28.5959C25.7254 27.5103 27.1458 25.9672 27.9847 24.1617C28.8235 22.3561 29.0432 20.3693 28.616 18.4524C28.1887 16.5354 27.1336 14.7746 25.5842 13.3925C24.0348 12.0104 22.0606 11.0691 19.9114 10.6877C17.7621 10.3063 15.5343 10.5018 13.5097 11.2497C11.4851 11.9975 9.75456 13.264 8.53705 14.8891C7.31953 16.5141 6.66968 18.4246 6.66968 20.379C6.67314 22.9984 7.84127 25.5097 9.91789 27.3621C11.9945 29.2145 14.8101 30.2568 17.7471 30.2603ZM17.7471 12.2906C19.5406 12.2906 21.2939 12.7649 22.7851 13.6536C24.2764 14.5423 25.4386 15.8054 26.125 17.2832C26.8113 18.761 26.9909 20.3871 26.641 21.9559C26.2911 23.5247 25.4275 24.9658 24.1593 26.0968C22.8911 27.2279 21.2753 27.9981 19.5162 28.3102C17.7572 28.6223 15.9339 28.4621 14.2769 27.85C12.6199 27.2378 11.2037 26.2013 10.2073 24.8713C9.21085 23.5413 8.67901 21.9777 8.67901 20.3781C8.68194 18.2341 9.6383 16.1786 11.3383 14.6626C13.0383 13.1466 15.3431 12.2939 17.7471 12.2915V12.2906Z" fill="#A93618"/>
</svg>
