<svg width="7" height="12" viewBox="0 0 7 12" fill="none" xmlns="http://www.w3.org/2000/svg">
<path d="M6.14247 12C5.86792 11.9831 5.66 11.8804 5.48178 11.7022C3.79834 10.0171 2.11169 8.3369 0.433074 6.64785C0.0324855 6.24485 0.0260639 5.768 0.423441 5.36821C2.11089 3.66952 3.80396 1.97645 5.50265 0.289002C5.8912 -0.0963335 6.40739 -0.0899105 6.75339 0.269736C7.10019 0.630186 7.08413 1.12069 6.68676 1.52047C5.29955 2.9141 3.91073 4.30693 2.50827 5.68451C2.26663 5.92213 2.23291 6.04656 2.49703 6.30426C3.90351 7.67862 5.2867 9.07626 6.67953 10.4651C6.94686 10.7316 7.07209 11.0367 6.94445 11.41C6.83527 11.7287 6.60567 11.9141 6.27894 11.9823C6.22676 11.9928 6.17378 11.996 6.14247 12Z" fill="white"/>
</svg>
