<svg width="11" height="17" viewBox="0 0 11 17" fill="none" xmlns="http://www.w3.org/2000/svg">
<path d="M8.97186 16.5807C8.60579 16.5582 8.32856 16.4212 8.09094 16.1836C5.84636 13.9369 3.59749 11.6966 1.35933 9.44448C0.825216 8.90715 0.816653 8.27135 1.34649 7.7383C3.59642 5.47338 5.85385 3.21596 8.11877 0.966025C8.63683 0.452244 9.32508 0.460808 9.78642 0.940337C10.2488 1.42094 10.2274 2.07494 9.69757 2.60798C7.84796 4.46616 5.99621 6.32326 4.12626 8.16003C3.80408 8.47686 3.75912 8.64277 4.11127 8.98636C5.98658 10.8188 7.83084 12.6824 9.68794 14.5341C10.0444 14.8895 10.2114 15.2962 10.0412 15.794C9.89559 16.2189 9.58947 16.4662 9.15382 16.5571C9.08425 16.5711 9.0136 16.5753 8.97186 16.5807Z" fill="white"/>
</svg>
