<svg width="7" height="12" viewBox="0 0 7 12" fill="none" xmlns="http://www.w3.org/2000/svg">
<path d="M0.857532 0C1.13208 0.0168584 1.34 0.119615 1.51822 0.297832C3.20166 1.98287 4.88831 3.6631 6.56693 5.35215C6.96751 5.75515 6.97394 6.232 6.57656 6.63179C4.88911 8.33048 3.19604 10.0235 1.49735 11.711C1.1088 12.0963 0.592613 12.0899 0.246614 11.7303C-0.100189 11.3698 -0.0841329 10.8793 0.313245 10.4795C1.70045 9.0859 3.08927 7.69307 4.49173 6.31549C4.73337 6.07787 4.76709 5.95344 4.50297 5.69574C3.09649 4.32138 1.7133 2.92374 0.32047 1.53492C0.053143 1.2684 -0.0720912 0.96334 0.0555513 0.590045C0.16473 0.271341 0.394326 0.0858978 0.721058 0.0176612C0.773239 0.00722505 0.826223 0.00401391 0.857532 0Z" fill="white"/>
</svg>
