<svg width="28" height="24" viewBox="0 0 28 24" fill="none" xmlns="http://www.w3.org/2000/svg">
<path d="M11.8391 0.0120057C15.0542 0.0120057 18.2688 0.0103659 21.484 0.013099C22.5526 0.0141922 23.343 0.601796 23.5933 1.56601C23.6507 1.78794 23.665 2.01478 23.665 2.24271C23.665 5.93123 23.6666 9.61974 23.6644 13.3082C23.6639 14.648 22.8035 15.5226 21.4638 15.5237C15.0433 15.528 8.6223 15.5286 2.20184 15.5237C0.863193 15.5226 0.0126711 14.6474 0.0126711 13.3022C0.0115779 9.62247 0.0328956 5.9427 9.91129e-05 2.26403C-0.010833 1.02487 0.883418 -0.0158713 2.27618 -1.96387e-05C5.46345 0.0371497 8.65127 0.0120057 11.8391 0.0120057ZM11.8462 0.886579C11.8462 0.883299 11.8462 0.88002 11.8462 0.87674C8.64033 0.87674 5.43448 0.876193 2.22917 0.877286C1.35077 0.877833 0.887244 1.34682 0.887244 2.23014C0.887244 5.91865 0.887244 9.60717 0.888337 13.2957C0.888337 13.4312 0.887791 13.5712 0.916761 13.7024C1.05013 14.3129 1.51694 14.6496 2.2319 14.6507C4.69109 14.6529 7.14973 14.6513 9.60892 14.6513C13.5341 14.6513 17.4593 14.6507 21.3845 14.6518C21.6983 14.6518 22.0033 14.6267 22.2706 14.437C22.6641 14.1571 22.7926 13.7625 22.792 13.2973C22.7887 9.62684 22.78 5.95692 22.7986 2.28644C22.8029 1.47036 22.3143 0.868541 21.3818 0.87674C18.2032 0.903524 15.0247 0.886579 11.8462 0.886579Z" fill="white"/>
<path d="M16.17 23.6528C12.9636 23.6528 9.75773 23.6539 6.55133 23.6517C5.46303 23.6512 4.66881 23.068 4.41573 22.0955C4.36052 21.8824 4.34576 21.6648 4.34576 21.4456C4.34576 19.9064 4.34522 18.3671 4.3474 16.8273C4.3474 16.7191 4.35014 16.6054 4.38239 16.5043C4.44798 16.2977 4.6054 16.1922 4.82022 16.2102C5.0323 16.2282 5.17388 16.3507 5.20886 16.5677C5.22471 16.6655 5.22034 16.7672 5.22034 16.8672C5.22088 18.3791 5.23892 19.8916 5.21323 21.403C5.19957 22.2213 5.7336 22.7892 6.59888 22.7865C12.9838 22.7684 19.3693 22.7766 25.7542 22.7766C26.6714 22.7766 27.1246 22.3207 27.1246 21.3992C27.1246 19.1767 27.1202 16.9541 27.1311 14.7316C27.1322 14.4835 27.0606 14.4299 26.8272 14.4354C26.1811 14.4512 25.5339 14.4408 24.8873 14.4408C24.8146 14.4408 24.7414 14.4441 24.6687 14.4392C24.374 14.4195 24.186 14.2348 24.198 13.98C24.21 13.7335 24.3899 13.5701 24.6807 13.5679C25.4 13.5624 26.1199 13.557 26.8392 13.5706C27.0623 13.575 27.1404 13.5198 27.1295 13.2875C27.1109 12.8874 27.1136 12.4856 27.1289 12.0855C27.1366 11.8876 27.0907 11.8199 26.878 11.8242C26.168 11.839 25.4574 11.8308 24.7468 11.8291C24.4025 11.8286 24.2008 11.6673 24.1975 11.3968C24.1942 11.1251 24.397 10.9568 24.7375 10.9557C25.4569 10.954 26.1767 10.9502 26.8961 10.9584C27.0683 10.9606 27.1437 10.9218 27.1273 10.7354C27.1109 10.5457 27.1284 10.3528 27.1207 10.162C27.0961 9.564 26.6605 9.08244 26.0647 9.0316C25.6755 8.99881 25.2819 9.01794 24.8906 9.01029C24.7911 9.00865 24.6861 9.01138 24.5932 8.98186C24.3861 8.91518 24.2817 8.75393 24.2997 8.54239C24.3177 8.33304 24.4396 8.16632 24.6588 8.15703C25.2579 8.13134 25.8635 8.06903 26.4533 8.21497C27.358 8.43908 27.992 9.23276 27.9937 10.1664C28.0013 13.9828 28.0035 17.7992 27.9937 21.6156C27.9904 22.7903 27.0748 23.6457 25.8433 23.6485C23.1562 23.6545 20.4691 23.6506 17.7825 23.6506C17.2452 23.6528 16.7073 23.6528 16.17 23.6528Z" fill="white"/>
<path d="M23.6141 18.3409C23.2867 18.3409 22.9598 18.3463 22.6324 18.3392C22.3547 18.3332 22.1678 18.155 22.1651 17.9102C22.1623 17.6696 22.3526 17.4734 22.6248 17.4701C23.2883 17.4625 23.9519 17.4619 24.615 17.4701C24.8937 17.474 25.0665 17.6614 25.0621 17.9156C25.0577 18.1671 24.8812 18.3338 24.5953 18.3392C24.2684 18.3458 23.941 18.3409 23.6141 18.3409Z" fill="white"/>
<path d="M20.0242 18.3403C19.7963 18.3403 19.5683 18.3463 19.3409 18.3387C19.066 18.3294 18.8785 18.1435 18.8829 17.8992C18.8867 17.668 19.0704 17.4767 19.3278 17.4712C19.7919 17.4608 20.2571 17.4603 20.7211 17.4712C20.983 17.4772 21.1595 17.6636 21.1633 17.8998C21.1672 18.1496 20.9857 18.3267 20.7069 18.3398C20.5889 18.3452 20.4702 18.3414 20.3516 18.3414C20.2423 18.3414 20.133 18.3414 20.0237 18.3414C20.0242 18.3409 20.0242 18.3409 20.0242 18.3403Z" fill="white"/>
<path d="M5.4994 5.05447C5.93614 5.05447 6.37342 5.05065 6.81016 5.05557C7.35021 5.06158 7.71371 5.42617 7.71808 5.96949C7.72354 6.64292 7.723 7.31688 7.71808 7.9903C7.71425 8.52325 7.36661 8.89276 6.83749 8.90041C5.94543 8.91243 5.05336 8.91189 4.1613 8.9015C3.62125 8.89494 3.27907 8.54784 3.27033 8.00397C3.25885 7.32126 3.25885 6.63854 3.27033 5.95583C3.27962 5.40157 3.63656 5.06103 4.18863 5.05611C4.62537 5.05119 5.06266 5.05447 5.4994 5.05447ZM5.49338 5.92905C5.1113 5.92905 4.72868 5.93451 4.3466 5.92631C4.19792 5.92303 4.13615 5.9613 4.13834 6.122C4.14599 6.6861 4.14545 7.2502 4.13889 7.81484C4.13725 7.975 4.18207 8.04169 4.35425 8.04005C5.11841 8.03294 5.88311 8.03349 6.64727 8.0395C6.80142 8.04059 6.85006 7.99085 6.84788 7.83616C6.84023 7.26277 6.83859 6.68938 6.84842 6.11653C6.85116 5.94982 6.78338 5.92358 6.63962 5.92631C6.25809 5.93451 5.87546 5.92905 5.49338 5.92905Z" fill="white"/>
<path d="M7.63633 11.3951C8.90064 11.3951 10.1655 11.3951 11.4298 11.3951C11.5118 11.3951 11.596 11.3864 11.6747 11.4022C11.9081 11.4487 12.0475 11.5886 12.0458 11.8352C12.0442 12.0822 11.9026 12.2178 11.6692 12.2637C11.6074 12.2757 11.5424 12.2697 11.4784 12.2697C8.92196 12.2697 6.36547 12.2697 3.80898 12.2697C3.73629 12.2697 3.6614 12.2768 3.59143 12.2626C3.35749 12.2156 3.2181 12.0746 3.21974 11.8297C3.22138 11.5848 3.36186 11.4443 3.5969 11.4022C3.67616 11.388 3.76034 11.3957 3.84178 11.3957C5.10718 11.3951 6.37148 11.3951 7.63633 11.3951Z" fill="white"/>
<path d="M14.3725 11.3951C14.7906 11.3951 15.2082 11.394 15.6264 11.3957C15.968 11.3973 16.1741 11.5586 16.179 11.8248C16.1839 12.0926 15.9762 12.2681 15.6406 12.2692C14.7956 12.2713 13.951 12.2713 13.106 12.2692C12.7605 12.2686 12.572 12.1074 12.5752 11.8259C12.5785 11.5465 12.7655 11.3973 13.1191 11.3957C13.5367 11.394 13.9549 11.3951 14.3725 11.3951Z" fill="white"/>
</svg>
