<svg width="180" height="180" viewBox="0 0 180 180" fill="none" xmlns="http://www.w3.org/2000/svg">
<path d="M0.00041261 89.9685C0.0910272 38.85 42.0771 -0.405794 90.5086 0.00394113C140.154 0.425496 180.276 40.4377 180 90.3782C179.721 140.5 138.948 180.52 89.3188 179.988C38.3501 179.441 -0.145359 137.695 0.00041261 89.9685ZM90.1226 172.184C135.678 172.01 172.428 135.067 172.148 89.7163C171.869 44.3421 135.264 7.91499 90.1226 7.84407C44.8231 7.77316 7.89176 44.6297 7.86024 90.0906C7.83267 133.889 43.2984 172.077 90.1226 172.184Z" fill="#452119"/>
<path d="M42.4868 87.124C43.7829 87.0452 44.823 87.904 45.8277 88.9087C54.5464 97.6431 63.3005 106.338 71.968 115.124C73.15 116.322 73.7094 116.223 74.8362 115.092C94.3538 95.5314 113.923 76.0138 133.48 56.4884C133.992 55.9801 134.48 55.4443 135.028 54.9755C136.635 53.6084 138.905 53.6478 140.406 55.0346C141.899 56.4135 142.049 58.6631 140.654 60.3769C139.87 61.3421 138.94 62.1892 138.058 63.0678C117.724 83.3969 97.3913 103.722 77.0543 124.047C74.4067 126.695 72.4723 126.695 69.8366 124.063C59.9478 114.178 50.059 104.293 40.1781 94.4047C38.3421 92.5687 37.9757 91.1189 38.8228 89.3224C39.5004 87.8765 40.6784 87.124 42.4868 87.124Z" fill="#452119"/>
</svg>
