<svg width="12" height="9" viewBox="0 0 12 9" fill="none" xmlns="http://www.w3.org/2000/svg">
<path d="M4.40663 8.24803C4.20526 8.24404 4.02193 8.1566 3.86463 8.00024C2.80899 6.95093 1.75171 5.90349 0.694904 4.85536C0.547917 4.70954 0.40046 4.5642 0.254176 4.41768C-0.0676963 4.0958 -0.085513 3.65414 0.210103 3.35219C0.509705 3.0465 0.974579 3.05423 1.29786 3.37446C2.30544 4.3722 3.31302 5.37017 4.31638 6.37235C4.40476 6.4605 4.44696 6.45253 4.53041 6.36954C6.58355 4.32883 8.6395 2.29116 10.6955 0.253264C11.0701 -0.118073 11.6222 -0.0744694 11.8847 0.344691C12.0718 0.643121 12.0298 1.00461 11.7684 1.26647C11.3104 1.72548 10.8481 2.18028 10.3876 2.63695C8.59566 4.41393 6.80321 6.1902 5.01287 7.96882C4.8476 8.13245 4.66498 8.24334 4.40663 8.24803Z" fill="#FCFCFC"/>
</svg>
