<svg width="15" height="15" viewBox="0 0 15 15" fill="none" xmlns="http://www.w3.org/2000/svg">
<path d="M14.9928 13.9324C14.9723 14.3834 14.7553 14.7062 14.3456 14.8935C13.9138 15.0908 13.5201 14.9959 13.1907 14.6801C12.677 14.1885 12.1809 13.6784 11.6783 13.1752C10.3412 11.8381 9.00148 10.5029 7.67085 9.15924C7.52373 9.01061 7.45293 9.03823 7.32237 9.16928C5.50368 10.9955 3.68146 12.8182 1.85724 14.6384C1.28532 15.2088 0.446266 15.0758 0.105825 14.3683C-0.0854853 13.9706 -0.0146856 13.5302 0.315713 13.1893C0.734988 12.757 1.16531 12.3347 1.59111 11.9089C2.99907 10.5004 4.40452 9.08894 5.82001 7.68851C5.9817 7.52834 5.96613 7.45452 5.81449 7.30338C3.99178 5.49222 2.17609 3.67502 0.361909 1.85632C-0.209008 1.2844 -0.0739364 0.439326 0.634061 0.102902C1.03928 -0.0899139 1.47864 -0.0115823 1.83063 0.334382C2.3915 0.885716 2.94535 1.44458 3.5012 2.00094C4.77358 3.27282 6.04798 4.5427 7.31434 5.82061C7.45795 5.96572 7.53025 5.97777 7.68139 5.82513C9.47398 4.02049 11.2761 2.22438 13.0727 0.423761C13.3042 0.191779 13.5522 0.00699632 13.8977 0.00599207C14.3662 0.00448569 14.6991 0.230442 14.8939 0.641683C15.0837 1.04288 15.0144 1.426 14.7252 1.76142C14.5942 1.91307 14.446 2.04964 14.3039 2.19174C12.6057 3.88993 10.9116 5.59214 9.20434 7.28079C9.01404 7.46909 9.04517 7.55244 9.21438 7.72065C11.0075 9.50119 12.791 11.2913 14.5801 13.0768C14.8191 13.3158 15.0024 13.5749 14.9928 13.9324Z" fill="white"/>
</svg>
