<svg width="22" height="22" viewBox="0 0 22 22" fill="none" xmlns="http://www.w3.org/2000/svg">
<path d="M13.8553 16.2825C11.858 16.2825 9.86105 16.2834 7.86371 16.2821C6.57096 16.2812 5.71943 15.4387 5.71857 14.1494C5.71599 10.1405 5.71642 6.13209 5.71857 2.12323C5.71943 0.862266 6.57525 0.00257896 7.83449 0.00171971C11.8502 -0.000858066 15.866 -0.000858066 19.8821 0.00171971C21.1375 0.00257896 21.9976 0.866562 21.9985 2.1258C22.0006 6.13467 22.0006 10.1431 21.9985 14.152C21.9976 15.4254 21.144 16.2791 19.8684 16.2812C17.8637 16.2851 15.8595 16.2825 13.8553 16.2825ZM13.8613 14.9154C15.8372 14.9154 17.8126 14.9154 19.7885 14.9154C20.4145 14.9154 20.6306 14.701 20.6306 14.0819C20.6306 10.1233 20.6306 6.16474 20.6306 2.20615C20.6306 1.58748 20.4123 1.37009 19.7898 1.37009C15.8239 1.37009 11.858 1.37009 7.89249 1.37009C7.31293 1.37009 7.08522 1.59564 7.08522 2.17263C7.08479 6.14541 7.08479 10.1186 7.08522 14.0914C7.08522 14.7002 7.30175 14.9154 7.91269 14.9154C9.89542 14.9154 11.8782 14.9154 13.8613 14.9154Z" fill="#FCFCFC"/>
<path d="M8.16771 21.9918C6.20646 21.9918 4.24477 21.9923 2.28351 21.9918C0.915577 21.9914 0.00863028 21.0862 0.00863028 19.72C0.00820065 15.7828 0.022808 11.8453 3.77069e-05 7.90818C-0.00726598 6.63476 1.04747 5.6363 2.27535 5.63501C2.46138 5.63501 2.64784 5.62943 2.83387 5.63716C3.25748 5.65521 3.51698 5.93017 3.50581 6.34004C3.49464 6.74389 3.236 6.99393 2.81754 7.0008C2.59585 7.00467 2.37374 6.99694 2.15162 7.00295C1.70309 7.01498 1.37872 7.33634 1.37872 7.78187C1.37657 11.8049 1.37657 15.8284 1.37915 19.8514C1.37958 20.2974 1.70824 20.6209 2.15806 20.6209C6.15275 20.623 10.147 20.623 14.1417 20.6209C14.5941 20.6205 14.9116 20.303 14.9219 19.8536C14.9266 19.6534 14.9219 19.4527 14.9236 19.2521C14.9271 18.7971 15.1273 18.5462 15.5204 18.5002C15.9238 18.4534 16.2727 18.6738 16.3307 19.0927C16.4265 19.7818 16.4088 20.4688 15.9784 21.0694C15.5337 21.6898 14.9219 21.9906 14.1602 21.9906C12.1624 21.9914 10.1651 21.9918 8.16771 21.9918Z" fill="#FCFCFC"/>
</svg>
