<svg width="22" height="22" viewBox="0 0 22 22" fill="none" xmlns="http://www.w3.org/2000/svg">
<g clip-path="url(#clip0_32_189)">
<path d="M2.46993 9.95613C1.84904 9.55733 1.61664 8.98664 1.64071 8.27911C1.65996 7.72973 1.64071 7.17966 1.64483 6.62959C1.65308 5.64084 2.34754 4.94982 3.33698 4.94294C3.76947 4.94019 4.20265 4.94225 4.66952 4.94225C4.66952 4.5187 4.66815 4.12128 4.67021 3.72385C4.67227 3.3443 4.72384 3.2948 5.11233 3.29205C5.30691 3.29067 5.5015 3.29136 5.69677 3.29067C5.71947 3.29067 5.74216 3.28448 5.77172 3.27967C5.87555 3.20472 5.90305 3.07546 5.95737 2.96613C6.33348 2.20841 6.70271 1.44725 7.07401 0.687471C7.09876 0.635902 7.12214 0.583646 7.14827 0.532764C7.44943 -0.0585597 7.62477 -0.126631 8.1769 0.233664C9.10651 0.840115 10.0196 1.47201 10.9334 2.10252C11.148 2.25035 11.3453 2.36174 11.6245 2.2868C11.8211 2.23385 12.0349 2.26411 12.2378 2.31292C12.4386 2.36106 12.607 2.31636 12.783 2.19672C13.7202 1.56002 14.6656 0.93569 15.6097 0.309299C15.7431 0.221288 15.8806 0.137402 16.0236 0.0672686C16.2492 -0.0427452 16.3344 -0.0228052 16.5111 0.152529C16.6514 0.292109 16.7373 0.467444 16.8219 0.643466C17.242 1.51945 17.6621 2.39544 18.0802 3.26867C18.272 3.31336 18.4556 3.28036 18.6371 3.29136C18.8881 3.30717 18.9644 3.37456 18.9692 3.6269C18.9768 4.04977 18.9713 4.47263 18.9713 4.88175C19.0607 4.97457 19.1576 4.93882 19.2443 4.94019C19.6108 4.94432 19.9772 4.93675 20.3437 4.94294C21.2782 4.95876 21.985 5.67041 21.9953 6.60896C22.0022 7.18172 21.9967 7.75448 21.996 8.32724C21.9946 9.10077 21.809 9.47826 21.197 9.94444C21.1461 10.0723 21.1723 10.2112 21.1723 10.346C21.1702 13.2442 21.1675 16.1423 21.1736 19.0405C21.175 19.583 21.1785 20.118 20.7583 20.6185C20.9866 20.6185 21.1413 20.6158 21.2954 20.6199C21.3744 20.622 21.4604 20.6172 21.5312 20.646C21.657 20.6962 21.7361 20.7966 21.7134 20.9424C21.6935 21.0689 21.6116 21.1487 21.4844 21.1624C21.371 21.1741 21.2555 21.17 21.1413 21.17C14.2682 21.17 7.39511 21.17 0.522003 21.17C0.430554 21.17 0.337042 21.1762 0.247656 21.1624C0.0943243 21.1383 -0.00400053 21.0462 0.000124986 20.8839C0.0042505 20.7217 0.103263 20.635 0.262095 20.6227C0.353544 20.6158 0.444993 20.6199 0.53713 20.6199C1.2921 20.6199 2.04707 20.6199 2.79929 20.6199C2.82473 20.4941 2.73534 20.4377 2.6934 20.3614C2.52425 20.052 2.46718 19.7212 2.46787 19.3699C2.472 16.3686 2.47062 13.3672 2.47062 10.3659C2.46993 10.2401 2.46993 10.1143 2.46993 9.95613ZM6.71922 2.66634C6.61126 2.85749 6.48544 3.04177 6.45518 3.29273C7.41505 3.29273 8.35154 3.29205 9.28872 3.29411C9.38636 3.29411 9.4675 3.27211 9.53213 3.19647C9.68202 3.02183 9.8828 2.90631 10.0547 2.75642C10.206 2.68078 10.3572 2.60584 10.5422 2.51301C9.58164 1.86668 8.65271 1.24167 7.69077 0.594647C7.35592 1.30974 7.03757 1.98838 6.71922 2.66634ZM13.4706 2.7461C13.6226 2.86574 13.7917 2.96888 13.9224 3.10846C14.0723 3.26798 14.24 3.29686 14.4436 3.29549C15.3347 3.28861 16.2258 3.29342 17.1169 3.29067C17.2159 3.29067 17.3197 3.31611 17.4284 3.25698C17.3603 3.07546 17.2798 2.90219 17.1746 2.73923C16.87 2.0207 16.5091 1.32899 16.1646 0.600148C15.16 1.27398 14.185 1.92719 13.1722 2.60584C13.309 2.67047 13.3902 2.70829 13.4706 2.7461ZM14.0021 20.6082C14.5405 20.6123 15.0789 20.6185 15.6173 20.6192C16.912 20.6206 18.2067 20.6233 19.5014 20.6178C20.1306 20.6151 20.6105 20.1372 20.6208 19.5136C20.625 19.2846 20.6112 19.0563 20.6057 18.8274C20.6112 18.3811 20.6215 17.9349 20.6208 17.4886C20.6195 15.5998 20.6153 13.7104 20.6126 11.8216C20.616 11.5465 20.6277 11.2715 20.6195 10.9971C20.6112 10.7276 20.6641 10.4533 20.5748 10.1686C20.451 10.1686 20.3375 10.1686 20.2241 10.1686C18.8262 10.1686 17.4284 10.1672 16.0305 10.1693C15.3546 10.17 14.6787 10.1768 14.0028 10.181C12.6352 10.1583 11.2676 10.1638 9.89999 10.1782C9.86561 10.1755 9.83192 10.1707 9.79754 10.1707C7.61308 10.17 5.4293 10.17 3.24484 10.1707C3.17815 10.1707 3.10595 10.1583 3.02 10.2484C3.02 10.7496 3.02 11.2839 3.02 11.8181C3.01656 13.1355 3.01038 14.4536 3.01106 15.771C3.01175 16.768 3.02069 17.7644 3.0255 18.7614C3.02138 19.013 3.01106 19.2647 3.01381 19.5163C3.02069 20.14 3.46968 20.6137 4.09195 20.6158C6.0275 20.622 7.96375 20.6137 9.8993 20.611C11.2669 20.6103 12.6345 20.6096 14.0021 20.6082ZM14.5701 9.60821C16.5043 9.61096 18.4391 9.6199 20.3733 9.61371C20.9646 9.61165 21.4336 9.12897 21.4439 8.5342C21.4556 7.88168 21.4556 7.22917 21.4452 6.57665C21.4356 5.98395 20.9639 5.51433 20.374 5.49576C20.0879 5.48682 19.8019 5.49232 19.5152 5.49301C17.867 5.49645 16.2189 5.49989 14.5708 5.50332C14.5254 5.49989 14.4793 5.49301 14.4339 5.49301C12.6469 5.49576 10.8599 5.49989 9.07282 5.50332C7.12627 5.49989 5.17902 5.48957 3.23247 5.49714C2.64939 5.50057 2.1949 5.97776 2.18665 6.55877C2.17771 7.21129 2.17977 7.86449 2.18665 8.51701C2.19352 9.15784 2.65146 9.60615 3.30054 9.61715C3.59826 9.62196 3.89599 9.61853 4.19371 9.61784C5.81985 9.6144 7.44599 9.61096 9.07213 9.60752C9.24403 9.61096 9.41524 9.61715 9.58714 9.61715C11.2483 9.61509 12.9089 9.61165 14.5701 9.60821ZM9.19109 4.92163C10.9321 4.92163 12.6723 4.92163 14.4161 4.92163C14.2084 3.86962 13.1873 2.76673 11.6678 2.82793C10.4521 2.87606 9.34304 3.82561 9.19109 4.92163ZM18.4109 3.85449C17.1217 3.85449 15.8682 3.85449 14.5914 3.85449C14.766 4.2086 14.8946 4.55996 14.9854 4.92025C16.135 4.92025 17.2709 4.92025 18.4109 4.92025C18.4109 4.55789 18.4109 4.21891 18.4109 3.85449ZM5.23265 4.92988C6.36855 4.92988 7.47556 4.92988 8.60045 4.92988C8.67058 4.55033 8.82323 4.20791 8.99169 3.86137C7.72928 3.86137 6.4875 3.86137 5.23334 3.86137C5.23265 4.2196 5.23265 4.55927 5.23265 4.92988Z" fill="#0E518D"/>
<path d="M3.02426 18.7615C3.01876 17.7645 3.00982 16.7682 3.00982 15.7712C3.00913 14.4537 3.01532 13.1356 3.01876 11.8182C5.30567 11.8196 7.59258 11.821 9.87949 11.8217L9.90699 11.8175C9.90287 12.776 9.89599 13.7345 9.89599 14.6923C9.89668 16.2098 9.90218 17.7273 9.90631 19.2448L9.8788 19.2407C7.97144 19.2414 6.06339 19.2421 4.15602 19.2442C3.80948 19.2442 3.51038 19.1238 3.2546 18.8935C3.18653 18.8337 3.12602 18.7628 3.02426 18.7615Z" fill="#00B1F7"/>
<path d="M20.6125 11.8217C20.6159 13.7105 20.62 15.6 20.6207 17.4888C20.6207 17.935 20.6111 18.3812 20.6056 18.8275C20.5196 18.8337 20.4612 18.8907 20.3979 18.9396C20.0961 19.1733 19.7578 19.2524 19.3748 19.2497C17.5919 19.2373 15.8083 19.2442 14.0254 19.2435C14.0096 19.2359 13.9931 19.2359 13.9779 19.2448C13.9855 19.1658 13.9999 19.0867 13.9999 19.0076C14.0013 16.7015 14.0013 14.396 13.9999 12.0898C13.9999 11.9998 13.9848 11.909 13.9766 11.8189L14.0006 11.8251L14.0247 11.8196C16.2202 11.821 18.4163 11.8217 20.6125 11.8217ZM20.0631 15.0128C20.0624 15.0128 20.0624 15.0128 20.0631 15.0128C20.0624 14.2468 20.0631 13.4808 20.0617 12.7148C20.0617 12.6234 20.0686 12.5292 20.0473 12.4426C20.017 12.3215 19.9297 12.2466 19.7984 12.2459C19.6677 12.2452 19.5783 12.3181 19.5474 12.4391C19.5254 12.5258 19.5316 12.6206 19.5316 12.7114C19.5309 14.255 19.5316 15.798 19.5316 17.3416C19.5316 17.3987 19.5274 17.4564 19.5336 17.5128C19.5536 17.6998 19.6567 17.8037 19.8121 17.7906C19.9764 17.7768 20.0507 17.6723 20.0603 17.5163C20.0651 17.4365 20.0624 17.356 20.0624 17.2763C20.0631 16.522 20.0631 15.7677 20.0631 15.0128Z" fill="#00B1F7"/>
<path d="M9.07238 9.60833C7.44624 9.61177 5.8201 9.6152 4.19396 9.61864C3.89623 9.61933 3.59851 9.62277 3.30078 9.61796C2.6517 9.60695 2.19377 9.15796 2.18689 8.51782C2.18002 7.8653 2.17727 7.21209 2.18689 6.55957C2.19515 5.97856 2.64964 5.50069 3.23271 5.49863C5.17927 5.49038 7.12651 5.50138 9.07307 5.50482C9.07307 6.87242 9.07238 8.24003 9.07238 9.60833ZM5.90949 6.32717C5.17721 6.32717 4.44493 6.32717 3.71265 6.32717C3.63289 6.32717 3.55175 6.32236 3.47268 6.33336C3.33241 6.3533 3.24096 6.43306 3.23753 6.58158C3.2334 6.74728 3.32829 6.83392 3.48506 6.85317C3.56413 6.8628 3.64526 6.8573 3.72502 6.8573C4.34316 6.8573 4.96062 6.8573 5.57876 6.8573C6.42586 6.8573 7.27228 6.85799 8.11939 6.85661C8.42261 6.85592 8.55944 6.77547 8.56769 6.60083C8.57663 6.41105 8.43911 6.32854 8.10701 6.32648C8.08432 6.32648 8.06094 6.32648 8.03825 6.32648C7.32798 6.32717 6.61907 6.32717 5.90949 6.32717Z" fill="#00B1F7"/>
<path d="M14.57 5.50344C16.2182 5.5 17.8663 5.49587 19.5145 5.49312C19.8005 5.49244 20.0872 5.48694 20.3732 5.49587C20.9632 5.51444 21.4349 5.98406 21.4445 6.57676C21.4548 7.22928 21.4548 7.8818 21.4431 8.53432C21.4328 9.12908 20.9639 9.61176 20.3726 9.61383C18.4384 9.6207 16.5035 9.61176 14.5693 9.60833C14.57 8.24003 14.57 6.87173 14.57 5.50344ZM17.7377 6.32785V6.32717C17.165 6.32717 16.5929 6.32717 16.0201 6.32717C15.9404 6.32717 15.8586 6.32167 15.7802 6.33404C15.6399 6.35673 15.5512 6.44268 15.5491 6.58845C15.5471 6.7349 15.6337 6.82498 15.7726 6.84904C15.862 6.86486 15.9548 6.8573 16.047 6.8573C17.1808 6.85798 18.3139 6.85454 19.4478 6.85936C19.8747 6.86073 20.0735 7.06632 20.0803 7.494C20.0845 7.76903 20.0755 8.04407 20.0845 8.31842C20.0913 8.51094 20.1938 8.61545 20.3471 8.61545C20.5005 8.61545 20.6029 8.51094 20.6098 8.31842C20.6187 8.04407 20.6146 7.76903 20.6125 7.494C20.6063 6.78029 20.1649 6.33335 19.4553 6.32785C18.8833 6.32442 18.3105 6.32785 17.7377 6.32785Z" fill="#00B1F7"/>
<path d="M14.5702 5.50344C14.5702 6.87173 14.5702 8.24003 14.5702 9.60833C12.909 9.61177 11.2485 9.6152 9.58727 9.61795C9.41537 9.61795 9.24416 9.61177 9.07227 9.60833C9.07227 8.24003 9.07227 6.87173 9.07227 5.50413C10.8593 5.50069 12.6463 5.49725 14.4334 5.49381C14.4794 5.49381 14.5248 5.5 14.5702 5.50344Z" fill="#FDFDFC"/>
<path d="M9.88026 11.8224C7.59335 11.821 5.30644 11.8196 3.01953 11.8189C3.01953 11.2847 3.01953 10.7497 3.01953 10.2492C3.10617 10.1584 3.17768 10.1715 3.24437 10.1715C5.42883 10.1708 7.61261 10.1708 9.79707 10.1715C9.83145 10.1715 9.86514 10.1763 9.89952 10.179C9.89264 10.7263 9.88645 11.2743 9.88026 11.8224Z" fill="#0797E6"/>
<path d="M20.6124 11.8217C18.4163 11.821 16.2208 11.821 14.0246 11.8203C14.0171 11.2737 14.0095 10.7277 14.002 10.1811C14.6779 10.177 15.3537 10.1701 16.0296 10.1694C17.4275 10.1673 18.8254 10.1687 20.2232 10.1687C20.3367 10.1687 20.4501 10.1687 20.5739 10.1687C20.6633 10.4534 20.611 10.7277 20.6186 10.9972C20.6275 11.2716 20.6152 11.5466 20.6124 11.8217Z" fill="#0797E6"/>
<path d="M3.02484 18.7615C3.12661 18.7628 3.18711 18.833 3.25519 18.8942C3.51097 19.1238 3.81007 19.2448 4.15661 19.2448C6.06397 19.2435 7.97202 19.2428 9.87939 19.2414C9.88558 19.698 9.89245 20.1545 9.89864 20.6111C7.96309 20.6138 6.02684 20.6221 4.09129 20.6159C3.46902 20.6138 3.02003 20.1401 3.01316 19.5164C3.0104 19.2655 3.02072 19.0138 3.02484 18.7615Z" fill="#0797E6"/>
<path d="M14.0253 19.2442C15.8082 19.2442 17.5918 19.238 19.3748 19.2503C19.7577 19.2531 20.096 19.174 20.3979 18.9402C20.4604 18.8914 20.5196 18.8344 20.6055 18.8282C20.611 19.0571 20.6241 19.2861 20.6207 19.5144C20.6103 20.138 20.1304 20.6159 19.5013 20.6186C18.2065 20.6241 16.9118 20.6214 15.6171 20.62C15.0787 20.6193 14.5403 20.6125 14.002 20.609C14.0095 20.1538 14.0178 19.6987 14.0253 19.2442Z" fill="#0797E6"/>
<path d="M9.19141 4.92174C9.34336 3.82573 10.4531 2.87686 11.6681 2.82804C13.1877 2.76685 14.2087 3.86974 14.4164 4.92174C12.672 4.92174 10.9324 4.92174 9.19141 4.92174ZM11.9081 3.31073C11.7843 3.32242 11.6523 3.36161 11.6172 3.52182C11.5794 3.69303 11.6949 3.76935 11.8345 3.81748C11.8771 3.83192 11.9232 3.83604 11.9679 3.84429C12.4739 3.94124 12.9298 4.12277 13.2207 4.58482C13.2385 4.61302 13.264 4.63777 13.288 4.66115C13.4008 4.76979 13.5177 4.73197 13.6332 4.66802C13.7522 4.60201 13.7804 4.49269 13.7384 4.37511C13.7088 4.29123 13.6607 4.20803 13.6023 4.14064C13.1595 3.63596 12.5785 3.40286 11.9081 3.31073Z" fill="#FDFDFC"/>
<path d="M14.0022 10.1811C14.0098 10.7277 14.0174 11.2737 14.0249 11.8203L14.0009 11.8258L13.9768 11.8196C12.6209 11.8189 11.265 11.8189 9.90836 11.8182L9.88086 11.8224C9.88705 11.2743 9.89324 10.7263 9.90011 10.1783C11.267 10.1639 12.6346 10.1584 14.0022 10.1811Z" fill="#AEE4FA"/>
<path d="M14.025 19.2442C14.0168 19.6987 14.0092 20.1538 14.001 20.6083C12.6334 20.609 11.2658 20.6104 9.89816 20.6111C9.89197 20.1545 9.88509 19.698 9.87891 19.2414L9.90641 19.2455C11.263 19.2455 12.6203 19.2448 13.9769 19.2448C13.9934 19.2366 14.0092 19.2366 14.025 19.2442Z" fill="#AEE4FA"/>
<path d="M13.4706 2.74622C13.3901 2.7084 13.309 2.67058 13.1729 2.60664C14.185 1.92799 15.16 1.27409 16.1652 0.600948C16.5097 1.32979 16.8707 2.0215 17.1753 2.74003C15.9404 2.74209 14.7055 2.74415 13.4706 2.74622Z" fill="#FDFDFC"/>
<path d="M6.71875 2.66646C7.0371 1.98781 7.35477 1.30916 7.69031 0.594074C8.65224 1.24109 9.58117 1.86611 10.5417 2.51244C10.3561 2.60458 10.2048 2.68021 10.0542 2.75584C9.07167 2.75172 8.08911 2.74897 7.10655 2.74072C6.97522 2.74003 6.82876 2.79091 6.71875 2.66646Z" fill="#FDFDFC"/>
<path d="M18.4104 3.85461C18.4104 4.21971 18.4104 4.55869 18.4104 4.92036C17.2703 4.92036 16.1345 4.92036 14.9848 4.92036C14.894 4.55938 14.7655 4.20871 14.5908 3.85461C15.867 3.85461 17.1211 3.85461 18.4104 3.85461Z" fill="#FDFDFC"/>
<path d="M5.23242 4.92999C5.23242 4.55938 5.23242 4.21972 5.23242 3.86148C6.48658 3.86148 7.72905 3.86148 8.99077 3.86148C8.82231 4.20734 8.67035 4.55045 8.59953 4.92999C7.47533 4.92999 6.36831 4.92999 5.23242 4.92999Z" fill="#FDFDFC"/>
<path d="M13.4707 2.74622C14.7056 2.74415 15.9405 2.74209 17.1754 2.73934C17.2799 2.9023 17.3611 3.07626 17.4291 3.25709C17.3205 3.31623 17.2174 3.2901 17.1177 3.29079C16.2265 3.29285 15.3354 3.28804 14.4443 3.2956C14.2408 3.29697 14.073 3.2681 13.9231 3.10858C13.7918 2.969 13.6233 2.86586 13.4707 2.74622Z" fill="#AEE4FA"/>
<path d="M6.71882 2.66646C6.82815 2.79022 6.97529 2.74003 7.10593 2.74141C8.08849 2.74966 9.07105 2.75241 10.0536 2.75653C9.8824 2.90643 9.68163 3.02125 9.53105 3.19659C9.46573 3.27222 9.38459 3.29491 9.28764 3.29422C8.35115 3.29216 7.41397 3.29285 6.4541 3.29285C6.48573 3.04188 6.61087 2.85761 6.71882 2.66646Z" fill="#AEE4FA"/>
<path d="M13.9783 19.2455C12.6217 19.2455 11.2644 19.2462 9.90782 19.2462C9.90438 17.7287 9.89819 16.2112 9.8975 14.6937C9.89682 13.7352 9.90438 12.7767 9.90851 11.8189C11.2644 11.8196 12.6203 11.8196 13.977 11.8203C13.9852 11.9104 14.0003 12.0011 14.0003 12.0912C14.0017 14.3974 14.0017 16.7028 14.0003 19.009C14.0003 19.0874 13.9859 19.1665 13.9783 19.2455Z" fill="#FDFDFC"/>
<path d="M20.0634 15.0128C20.0634 15.767 20.0634 16.522 20.0634 17.2763C20.0634 17.356 20.0662 17.4365 20.0614 17.5163C20.0517 17.6723 19.9775 17.7762 19.8131 17.7906C19.6577 17.8037 19.5546 17.6998 19.5347 17.5128C19.5285 17.4564 19.5326 17.3987 19.5326 17.3416C19.5326 15.798 19.5319 14.255 19.5326 12.7114C19.5326 12.6206 19.5264 12.5258 19.5484 12.4391C19.5794 12.3181 19.6687 12.2452 19.7994 12.2459C19.93 12.2466 20.018 12.3215 20.0483 12.4426C20.0696 12.5292 20.0627 12.6241 20.0627 12.7148C20.0627 13.4808 20.0627 14.2468 20.0634 15.0128C20.0627 15.0128 20.0627 15.0128 20.0634 15.0128Z" fill="#AEE4FA"/>
<path d="M5.90944 6.32717C6.61903 6.32717 7.32861 6.32717 8.0382 6.32717C8.06089 6.32717 8.08427 6.32717 8.10696 6.32717C8.43907 6.32992 8.57727 6.41174 8.56764 6.60151C8.55939 6.77616 8.42256 6.85729 8.11934 6.85729C7.27223 6.85867 6.42581 6.85798 5.57871 6.85798C4.96057 6.85798 4.34312 6.85798 3.72498 6.85798C3.64522 6.85798 3.56408 6.86348 3.48501 6.85386C3.32824 6.8346 3.23267 6.74728 3.23748 6.58226C3.2416 6.43374 3.33305 6.35398 3.47263 6.33404C3.55102 6.32304 3.63215 6.32785 3.7126 6.32785C4.44419 6.32717 5.17716 6.32717 5.90944 6.32717Z" fill="#AEE4FA"/>
<path d="M17.7375 6.32785C18.3102 6.32785 18.8823 6.32442 19.4551 6.32854C20.1647 6.33404 20.6061 6.78097 20.6123 7.49469C20.6143 7.76972 20.6185 8.04476 20.6095 8.3191C20.6033 8.51163 20.5009 8.61614 20.3469 8.61614C20.1935 8.61614 20.0904 8.51163 20.0842 8.3191C20.0746 8.04476 20.0842 7.76972 20.0801 7.49469C20.0732 7.06701 19.8745 6.86142 19.4475 6.86005C18.3137 6.85592 17.1805 6.85867 16.0467 6.85798C15.9553 6.85798 15.8617 6.86486 15.7724 6.84973C15.6328 6.82498 15.5461 6.73491 15.5489 6.58914C15.551 6.44337 15.6397 6.35742 15.7799 6.33473C15.8583 6.32235 15.9394 6.32785 16.0199 6.32785C16.5926 6.32717 17.1647 6.32785 17.7375 6.32785Z" fill="#AEE4FA"/>
<path d="M11.9075 3.31073C12.5785 3.40286 13.1589 3.63595 13.6017 4.14202C13.6601 4.20871 13.7082 4.2926 13.7378 4.37648C13.7791 4.49406 13.7509 4.60339 13.6326 4.6694C13.5171 4.73334 13.4002 4.77116 13.2874 4.66252C13.2627 4.63914 13.2379 4.61439 13.2201 4.5862C12.9292 4.12414 12.4733 3.94262 11.9673 3.84567C11.9226 3.83742 11.8765 3.83329 11.8339 3.81885C11.695 3.77072 11.5788 3.6944 11.6166 3.52319C11.6517 3.36161 11.7837 3.32242 11.9075 3.31073Z" fill="#AEE4FA"/>
</g>
<defs>
<clipPath id="clip0_32_189">
<rect width="22" height="21.1715" fill="white"/>
</clipPath>
</defs>
</svg>
