<svg width="17" height="20" viewBox="0 0 17 20" fill="none" xmlns="http://www.w3.org/2000/svg">
<path d="M8.17911 19.9921C5.55673 19.9921 2.93435 19.9887 0.311394 19.9983C0.0642137 19.9995 -0.000564534 19.9432 3.69628e-06 19.6903C0.00966361 15.9503 0.0102318 12.2107 3.69628e-06 8.47121C-0.000564534 8.20926 0.0761466 8.15698 0.31594 8.16778C0.740976 8.1871 1.16829 8.1638 1.59389 8.17744C1.78197 8.18369 1.828 8.12346 1.83027 7.93992C1.83937 7.15519 1.7905 6.36933 1.87403 5.5846C2.16155 2.88608 4.34015 0.562584 7.02901 0.100045C10.4793 -0.493756 13.6387 1.61154 14.412 5.01751C14.6115 5.89599 14.5433 6.78811 14.5529 7.67626C14.5586 8.17289 14.5541 8.17289 15.0615 8.17289C15.4309 8.17289 15.8002 8.18028 16.169 8.16948C16.3321 8.16437 16.3952 8.21835 16.373 8.37802C16.3667 8.42462 16.3719 8.47235 16.3719 8.52008C16.3719 12.2221 16.3684 15.9236 16.3781 19.6256C16.3787 19.908 16.3264 20.0017 16.0178 20.0006C13.4051 19.9858 10.7924 19.9921 8.17911 19.9921ZM8.18309 18.1737C10.2185 18.1737 12.2539 18.1709 14.2899 18.1783C14.4967 18.1789 14.5603 18.1345 14.5592 17.9163C14.5507 15.3599 14.5507 12.804 14.5592 10.2475C14.5598 10.027 14.4933 9.98611 14.2887 9.98668C10.227 9.99293 6.16587 9.99293 2.10416 9.98668C1.88823 9.98611 1.81948 10.0327 1.82005 10.2628C1.82914 12.8097 1.82914 15.3565 1.82005 17.9033C1.81948 18.1351 1.89107 18.1794 2.1053 18.1783C4.13104 18.1709 6.15678 18.1737 8.18309 18.1737ZM8.18707 8.17289C8.98202 8.17289 9.77697 8.17289 10.5719 8.17289C11.2248 8.17289 11.8777 8.17062 12.5306 8.1746C12.6596 8.17516 12.7443 8.16664 12.738 7.99788C12.7102 7.24213 12.7852 6.48411 12.6874 5.7295C12.4113 3.5975 10.5714 1.90361 8.43368 1.81212C6.19542 1.71666 4.21855 3.21906 3.75373 5.36129C3.57247 6.19545 3.67873 7.03984 3.63952 7.87912C3.62872 8.11039 3.68555 8.18085 3.92875 8.17914C5.34762 8.16664 6.76763 8.17289 8.18707 8.17289Z" fill="#A68D87"/>
<path d="M7.28051 15.2195C7.28051 15.0587 7.27369 14.8973 7.28221 14.737C7.29926 14.4217 7.24641 14.154 7.04412 13.8756C6.63727 13.3153 6.80092 12.534 7.35154 12.101C7.88795 11.6788 8.64938 11.7209 9.14033 12.1999C9.6398 12.688 9.6989 13.467 9.25624 14.0035C9.13748 14.1472 9.09316 14.2836 9.096 14.462C9.10396 15.0206 9.09203 15.5792 9.10282 16.1372C9.10623 16.3116 9.05793 16.365 8.88121 16.3599C8.4272 16.3474 7.97261 16.3485 7.5186 16.3593C7.34131 16.3639 7.26573 16.3241 7.27653 16.1286C7.29301 15.8263 7.28051 15.5223 7.28051 15.2195Z" fill="#A68D87"/>
</svg>
