<svg width="26" height="26" viewBox="0 0 26 26" fill="none" xmlns="http://www.w3.org/2000/svg">
<path d="M12.998 26C5.81882 25.9977 -0.0144822 20.1557 2.70083e-05 12.9829C0.0145363 5.80892 5.83391 -0.00174072 13.0021 3.91178e-07C20.1824 0.0017415 26.0157 5.84259 26 13.016C25.9849 20.1905 20.165 26.0023 12.998 26ZM21.1371 21.4714C21.2068 21.4058 21.2578 21.3617 21.3043 21.3129C24.2322 18.2544 25.3523 14.6329 24.4771 10.4919C23.0529 3.75325 16.0896 -0.276256 9.51752 1.75968C4.85947 3.20306 1.556 7.38927 1.2722 12.2621C1.06733 15.7762 2.242 18.7872 4.68826 21.3106C4.82232 21.4487 4.89777 21.4696 4.99585 21.2845C5.06782 21.1487 5.17925 21.0344 5.25412 20.8997C5.80605 19.9038 6.71375 19.3855 7.74797 19.0396C8.63419 18.7431 9.55118 18.6148 10.4815 18.573C10.8953 18.5544 11.0793 18.3867 11.1182 17.9752C11.135 17.793 11.1147 17.6073 11.1304 17.4245C11.1501 17.1888 11.0491 17.0675 10.8379 16.9602C10.1298 16.6009 9.45542 16.1836 8.86054 15.652C8.48852 15.3195 8.16467 14.944 8.07123 14.4332C7.93601 13.6921 7.81297 12.9486 7.69167 12.2052C7.4897 10.9626 7.31385 9.72062 7.54426 8.45831C7.89538 6.53555 8.90349 5.1711 10.8332 4.62033C12.2377 4.21929 13.6637 4.22219 15.074 4.59711C16.4274 4.95752 17.4367 5.76366 18.0199 7.05556C18.5005 8.11996 18.6386 9.24646 18.544 10.3997C18.45 11.5465 18.1894 12.6724 18.0495 13.8122C17.9427 14.6799 17.5678 15.3456 16.89 15.8644C16.4291 16.2167 15.9834 16.6131 15.4477 16.8284C14.9184 17.0408 14.8198 17.3861 14.8697 17.8841C14.9184 18.3751 15.078 18.5504 15.5725 18.5759C16.4924 18.6241 17.3995 18.7523 18.277 19.046C19.3026 19.389 20.1986 19.9044 20.7436 20.8939C20.8539 21.0941 21.0013 21.274 21.1371 21.4714ZM13.4693 24.7714C15.2603 24.7899 17.6189 24.0656 19.5887 22.7302C20.2172 22.3042 20.1754 22.3286 19.7999 21.6849C19.2921 20.815 18.5162 20.3855 17.5939 20.1267C16.8534 19.9189 16.0954 19.8458 15.3328 19.7982C14.5191 19.7471 13.8651 19.1946 13.6979 18.3972C13.5877 17.8725 13.6358 17.338 13.626 16.8069C13.6248 16.7477 13.6376 16.6932 13.6846 16.6497C13.9457 16.4094 14.1628 16.1273 14.4942 15.9579C15.175 15.6085 15.8105 15.1842 16.3746 14.6631C16.5272 14.522 16.6862 14.3816 16.7234 14.1477C16.84 13.4135 16.9782 12.6822 17.0954 11.9481C17.2678 10.8686 17.4343 9.78968 17.2393 8.6922C16.9706 7.18034 16.1616 6.1467 14.6404 5.7625C13.5348 5.48334 12.4153 5.49088 11.3097 5.76714C10.0758 6.07531 9.25925 6.84547 8.90058 8.07469C8.70094 8.75837 8.63361 9.46061 8.68468 10.1698C8.77696 11.4443 9.04161 12.6933 9.24532 13.9521C9.29698 14.273 9.43743 14.5098 9.66783 14.713C10.2296 15.2074 10.8675 15.5905 11.5117 15.9625C12.0746 16.2875 12.5134 16.6769 12.3787 17.4216C12.3428 17.6189 12.3683 17.8266 12.3584 18.0298C12.3085 19.0454 11.6231 19.739 10.6127 19.8028C10.0143 19.8405 9.41827 19.8933 8.83094 20.0239C7.70154 20.2746 6.6946 20.7082 6.12699 21.8103C6.07882 21.9037 6.0173 21.9954 5.94476 22.0709C5.7869 22.2351 5.84493 22.3268 6.01092 22.4487C8.07994 23.9617 10.3956 24.7302 13.4693 24.7714Z" fill="white"/>
</svg>
