<svg width="24" height="20" viewBox="0 0 24 20" fill="none" xmlns="http://www.w3.org/2000/svg">
<path d="M11.0824 19.6273C8.13868 19.6273 5.19499 19.6273 2.25131 19.6273C1.00908 19.6273 0.32383 19.0604 0.0915282 17.8227C0.0368161 17.5303 0.00452708 17.2298 0.00363017 16.9329C-0.000854427 12.1963 -0.000854427 7.45877 0.00183633 2.72215C0.00183633 1.99295 0.132786 1.29605 0.580349 0.690627C0.912209 0.241271 1.3499 0 1.91586 0C8.05706 0.000896918 14.1983 0 20.3395 0.000896918C21.0453 0.000896918 21.5153 0.38119 21.8391 0.967775C22.0956 1.43238 22.2203 1.93824 22.2212 2.47101C22.2239 3.92043 22.2355 5.36985 22.2176 6.81927C22.2131 7.17266 22.3118 7.30899 22.6688 7.26504C23.6168 7.14934 24.0105 7.81664 23.9998 8.59427C23.9881 9.41585 23.9899 10.2383 23.9989 11.0599C24.007 11.7918 23.641 12.477 22.693 12.3667C22.3181 12.3228 22.2122 12.4654 22.2176 12.8376C22.2373 14.2718 22.2266 15.7059 22.2212 17.141C22.2185 17.7662 22.0633 18.3501 21.7082 18.8739C21.3628 19.3815 20.8964 19.6326 20.2731 19.6309C17.2083 19.6228 14.1453 19.6273 11.0824 19.6273ZM11.1191 1.44404C8.32524 1.44404 5.53134 1.44404 2.73654 1.44404C1.61898 1.44404 1.48534 1.57678 1.45933 2.71677C1.45754 2.79121 1.45753 2.86655 1.45753 2.941C1.45753 7.52784 1.45664 12.1156 1.45933 16.7024C1.45933 16.9858 1.46561 17.2729 1.51494 17.5509C1.61001 18.0837 1.7589 18.1931 2.29346 18.1931C8.16559 18.1931 14.0377 18.1931 19.9098 18.1931C20.5 18.1931 20.5924 18.1195 20.718 17.5392C20.7494 17.3939 20.7816 17.245 20.7816 17.0971C20.787 15.6324 20.7825 14.1686 20.7915 12.704C20.7933 12.4528 20.7054 12.3613 20.4543 12.3658C19.7825 12.3775 19.1098 12.3757 18.4371 12.3667C17.8272 12.3586 17.403 11.9918 17.3859 11.3828C17.3563 10.3379 17.3563 9.29118 17.3868 8.24716C17.4047 7.63905 17.8335 7.27221 18.4425 7.26504C19.0847 7.25697 19.7278 7.24441 20.37 7.27042C20.7117 7.28387 20.7996 7.16907 20.796 6.83811C20.779 5.44878 20.7915 4.05945 20.7852 2.66923C20.7843 2.46204 20.7476 2.25396 20.7108 2.04856C20.6363 1.62611 20.4256 1.43058 19.9493 1.43417C17.0065 1.4548 14.0628 1.44404 11.1191 1.44404ZM20.6534 10.9316C21.1754 10.9316 21.6983 10.9245 22.2194 10.9352C22.4508 10.9397 22.5369 10.8527 22.5333 10.6222C22.5235 10.0849 22.5244 9.5477 22.5333 9.01134C22.5369 8.78532 22.4562 8.69204 22.2221 8.69383C21.1781 8.7019 20.1332 8.701 19.0892 8.69473C18.8757 8.69383 18.8012 8.77635 18.8048 8.98623C18.8138 9.50823 18.8219 10.0311 18.8012 10.5522C18.7896 10.8411 18.8757 10.9505 19.1753 10.9379C19.6677 10.9173 20.161 10.9325 20.6534 10.9316Z" fill="white"/>
</svg>
