<svg width="26" height="21" viewBox="0 0 26 21" fill="none" xmlns="http://www.w3.org/2000/svg">
<path d="M25.9583 8.60736L15.0732 19.5818C14.9823 19.6764 14.8732 19.762 14.7741 19.8521C13.0895 21.3839 12.6477 21.4046 11.0549 19.7819C7.53199 16.1922 4.05456 12.562 0.521677 8.98129C-0.0928955 8.35688 -0.211992 7.8469 0.421673 7.22339C1.18443 6.47374 1.9472 5.72229 2.71632 4.97804C3.29089 4.42121 3.78092 4.51221 4.35276 5.06814C7.05288 7.73157 9.78482 10.3608 12.5068 13.0026C12.6986 13.1882 12.8959 13.363 13.1359 13.5927C14.625 12.1141 16.0842 10.6392 17.5734 9.19393C18.8734 7.9325 20.2253 6.72242 21.519 5.45469C22.0545 4.92939 22.5372 4.8501 23.0645 5.38801C24.0355 6.37283 24.9955 7.37026 25.9601 8.36139C25.9863 8.3972 26.0003 8.44041 26 8.48467C25.9997 8.52894 25.985 8.57193 25.9583 8.60736Z" fill="#481500"/>
<path d="M20.8108 2.01548C20.8747 2.08264 20.9095 2.17191 20.9078 2.26419C20.9061 2.35648 20.868 2.44443 20.8017 2.50924C18.4598 4.79604 16.2224 7.00264 13.9541 9.17681C13.185 9.91385 12.6431 9.17681 12.174 8.71729C10.5921 7.16753 9.05115 5.57632 7.5029 3.99323C7.01106 3.48865 6.49286 2.99489 6.09375 2.42364C5.92919 2.18847 5.77191 1.79292 6.04465 1.4208C6.09193 1.35503 6.1592 1.26132 6.22648 1.18563C7.57381 -0.365026 7.73109 -0.379442 9.17843 1.05318C10.5594 2.42004 11.9204 3.80671 13.3286 5.22312C14.9523 3.65804 16.5197 2.19929 18.0306 0.684666C18.5761 0.135042 18.9989 0.0674648 19.5225 0.651329C19.9144 1.09013 20.3344 1.51631 20.8108 2.01548Z" fill="#481500"/>
</svg>
