<svg width="26" height="21" viewBox="0 0 26 21" fill="none" xmlns="http://www.w3.org/2000/svg">
<path d="M0.041722 12.3926L10.9268 1.41817C11.0177 1.32356 11.1268 1.23797 11.2259 1.14786C12.9105 -0.383875 13.3523 -0.404599 14.9451 1.21814C18.468 4.80782 21.9454 8.43804 25.4783 12.0187C26.0929 12.6431 26.212 13.1531 25.5783 13.7766C24.8156 14.5263 24.0528 15.2777 23.2837 16.022C22.7091 16.5788 22.2191 16.4878 21.6472 15.9319C18.9471 13.2684 16.2152 10.6392 13.4932 7.99744C13.3014 7.81183 13.1041 7.63703 12.8641 7.40727C11.375 8.88585 9.9158 10.3608 8.42664 11.8061C7.12659 13.0675 5.77471 14.2776 4.48101 15.5453C3.94553 16.0706 3.46279 16.1499 2.93549 15.612C1.96454 14.6272 1.00449 13.6297 0.0399038 12.6386C0.0136604 12.6028 -0.00032158 12.5596 5.6143e-06 12.5153C0.000332809 12.4711 0.014952 12.4281 0.041722 12.3926Z" fill="#481500"/>
<path d="M5.18923 18.9845C5.12535 18.9174 5.09053 18.8281 5.09223 18.7358C5.09393 18.6435 5.13201 18.5556 5.19832 18.4908C7.54024 16.204 9.77761 13.9974 12.0459 11.8232C12.815 11.0862 13.3569 11.8232 13.826 12.2827C15.4079 13.8325 16.9488 15.4237 18.4971 17.0068C18.9889 17.5113 19.5071 18.0051 19.9063 18.5764C20.0708 18.8115 20.2281 19.2071 19.9553 19.5792C19.9081 19.645 19.8408 19.7387 19.7735 19.8144C18.4262 21.365 18.2689 21.3794 16.8216 19.9468C15.4406 18.58 14.0796 17.1933 12.6714 15.7769C11.0477 17.342 9.48033 18.8007 7.96935 20.3153C7.42387 20.865 7.00113 20.9325 6.47747 20.3487C6.08563 19.9099 5.66561 19.4837 5.18923 18.9845Z" fill="#481500"/>
</svg>
