<svg width="22" height="15" viewBox="0 0 22 15" fill="none" xmlns="http://www.w3.org/2000/svg">
<g clip-path="url(#clip0_4_26)">
<path d="M19.8062 0.30368H2.05747C0.969076 0.30368 0.0867615 1.18599 0.0867615 2.27438V12.8964C0.0867615 13.9847 0.969076 14.8671 2.05747 14.8671H19.8062C20.8946 14.8671 21.7769 13.9847 21.7769 12.8964V2.27438C21.7769 1.18599 20.8946 0.30368 19.8062 0.30368Z" fill="#ED5565"/>
<path d="M3.78958 8.16171C3.5355 8.34452 3.38676 8.24227 3.45803 7.93551L3.73381 6.79523C3.79362 6.45296 3.67716 6.10358 3.42395 5.86565L2.59043 5.14368C2.35183 4.93917 2.41381 4.76255 2.72676 4.75326L3.89493 4.71917C4.23834 4.70213 4.53666 4.47747 4.64789 4.15213L5.01352 2.91269C5.10338 2.60283 5.26141 2.60283 5.36676 2.91269L5.80676 4.15213C5.93546 4.46487 6.23147 4.67665 6.56902 4.69748H7.75888C8.06874 4.69748 8.13381 4.8741 7.89831 5.07861L6.99043 5.87185C6.74409 6.11318 6.64185 6.46574 6.72085 6.80142L7.00902 7.80537C7.09578 8.11523 6.95014 8.22058 6.68366 8.05635L5.70761 7.43664C5.40967 7.27277 5.04604 7.28466 4.75944 7.46762L3.78958 8.16171Z" fill="#F6D660"/>
<path d="M9.10057 3.3403C9.0138 3.40227 8.96423 3.36818 8.98902 3.25973L9.08197 2.86311C9.09923 2.75 9.06253 2.63534 8.98282 2.55325L8.70085 2.30227C8.62028 2.231 8.64197 2.16903 8.74733 2.16593H9.14085C9.25604 2.15621 9.35396 2.07787 9.38873 1.96762L9.51268 1.53382C9.54366 1.42847 9.59634 1.42847 9.63352 1.53382L9.78225 1.96142C9.82645 2.06713 9.92536 2.13983 10.0394 2.15044H10.4423C10.5476 2.15044 10.5693 2.21241 10.4887 2.28368L10.1789 2.55945C10.0987 2.6411 10.0639 2.75702 10.0859 2.86931L10.1851 3.21945C10.2161 3.3248 10.1665 3.36509 10.0766 3.30621L9.74817 3.09861C9.6523 3.04326 9.53418 3.04326 9.43831 3.09861L9.10057 3.3403Z" fill="#F6D660"/>
<path d="M9.10057 9.46003C9.0138 9.522 8.96423 9.48792 8.98902 9.37947L9.08197 8.98285C9.09923 8.86974 9.06253 8.75507 8.98282 8.67299L8.70085 8.422C8.62028 8.35074 8.64197 8.28876 8.74733 8.28567H9.14085C9.25524 8.27642 9.35293 8.19949 9.38873 8.09045L9.51268 7.65665C9.54366 7.5513 9.59634 7.5513 9.63352 7.65665L9.78225 8.08426C9.82645 8.18996 9.92536 8.26266 10.0394 8.27327H10.4423C10.5476 8.27327 10.5693 8.33524 10.4887 8.40651L10.1789 8.68229C10.0987 8.76393 10.0639 8.87985 10.0859 8.99214L10.1851 9.34229C10.2161 9.44764 10.1665 9.48792 10.0766 9.42905L9.75127 9.22144C9.6554 9.16609 9.53728 9.16609 9.44141 9.22144L9.10057 9.46003Z" fill="#F6D660"/>
<path d="M11.2479 7.81777C11.1611 7.87974 11.1116 7.84566 11.1363 7.74031L11.2293 7.34369C11.2465 7.23058 11.2099 7.11591 11.1301 7.03383L10.8482 6.78284C10.7676 6.71158 10.7893 6.6496 10.8946 6.64651H11.2882C11.4026 6.63726 11.5003 6.56033 11.5361 6.45129L11.66 6.01749C11.691 5.91214 11.7437 5.91214 11.7808 6.01749L11.9296 6.4451C11.9738 6.5508 12.0727 6.6235 12.1868 6.63411H12.5896C12.6949 6.63411 12.7166 6.69608 12.6361 6.76735L12.3262 7.04312C12.2471 7.12536 12.2135 7.24121 12.2363 7.35298L12.3355 7.70312C12.3665 7.80848 12.3138 7.84876 12.227 7.78989L11.9017 7.58228C11.8058 7.52693 11.6877 7.52693 11.5918 7.58228L11.2479 7.81777Z" fill="#F6D660"/>
<path d="M11.2479 4.98564C11.1611 5.04761 11.1116 5.01353 11.1363 4.90508L11.2293 4.50846C11.2466 4.39535 11.2099 4.28068 11.1301 4.1986L10.8451 3.93522C10.7645 3.86395 10.7862 3.80198 10.8916 3.79888H11.2851C11.3995 3.78964 11.4972 3.7127 11.533 3.60367L11.6569 3.16986C11.6879 3.06451 11.7406 3.06451 11.7777 3.16986L11.9265 3.59747C11.9707 3.70318 12.0696 3.77587 12.1837 3.78648H12.5865C12.6918 3.78648 12.7135 3.84846 12.633 3.91972L12.3231 4.1955C12.2445 4.27801 12.211 4.3936 12.2332 4.50536L12.3324 4.8555C12.3634 4.96085 12.3107 5.00113 12.2239 4.94226L11.8986 4.73465C11.8027 4.6793 11.6846 4.6793 11.5887 4.73465L11.2479 4.98564Z" fill="#F6D660"/>
</g>
<defs>
<clipPath id="clip0_4_26">
<rect width="22" height="14.8732" fill="white"/>
</clipPath>
</defs>
</svg>
