<svg width="22" height="15" viewBox="0 0 22 15" fill="none" xmlns="http://www.w3.org/2000/svg">
<g clip-path="url(#clip0_4_96)">
<path d="M2.01718 0.0340739C0.928793 0.0340739 0.0464783 0.916388 0.0464783 2.00478V12.6237C0.0464783 13.712 0.928793 14.5944 2.01718 14.5944H7.28479C7.28479 9.7399 7.28479 4.88544 7.28479 0.0309753L2.01718 0.0340739Z" fill="#4758A9"/>
<path d="M7.27859 0.0340729C7.27859 4.88853 7.27859 9.74299 7.27859 14.5975H14.5138C14.5138 9.74299 14.5138 4.88853 14.5138 0.0340729H7.27859Z" fill="white"/>
<path d="M19.7628 0.0340729H14.5107C14.5107 4.88853 14.5107 9.74299 14.5107 14.5975H19.7628C20.8512 14.5975 21.7335 13.7151 21.7335 12.6267V2.00788C21.7344 1.48468 21.5271 0.982623 21.1574 0.612374C20.7878 0.242125 20.286 0.0340722 19.7628 0.0340729Z" fill="#ED5565"/>
</g>
<defs>
<clipPath id="clip0_4_96">
<rect width="22" height="14.8732" fill="white"/>
</clipPath>
</defs>
</svg>
