<svg width="22" height="15" viewBox="0 0 22 15" fill="none" xmlns="http://www.w3.org/2000/svg">
<g clip-path="url(#clip0_4_127)">
<path d="M2.06056 0.164231C0.972173 0.164231 0.089859 1.04655 0.089859 2.13494V12.7538C0.089859 13.8422 0.972173 14.7245 2.06056 14.7245H7.32817C7.32817 9.87005 7.32817 5.01559 7.32817 0.161133L2.06056 0.164231Z" fill="#57A863"/>
<path d="M7.32198 0.16423C7.32198 5.01869 7.32198 9.87315 7.32198 14.7276H14.5634C14.5634 9.87315 14.5634 5.01869 14.5634 0.16423H7.32198Z" fill="white"/>
<path d="M19.8062 0.16423H14.5634C14.5634 5.01869 14.5634 9.87315 14.5634 14.7276H19.8062C20.8946 14.7276 21.7769 13.8453 21.7769 12.7569V2.13493C21.7769 1.04654 20.8946 0.16423 19.8062 0.16423Z" fill="#ED5565"/>
</g>
<defs>
<clipPath id="clip0_4_127">
<rect width="22" height="14.8732" fill="white"/>
</clipPath>
</defs>
</svg>
