<svg width="22" height="15" viewBox="0 0 22 15" fill="none" xmlns="http://www.w3.org/2000/svg">
<g clip-path="url(#clip0_4_82)">
<path d="M2.09155 0.130143C1.00316 0.130143 0.12085 1.01246 0.12085 2.10085V12.7197C0.12085 13.8081 1.00316 14.6904 2.09155 14.6904H8.83099V0.127045L2.09155 0.130143Z" fill="#57A863"/>
<path d="M21.811 12.7197V2.10085C21.811 1.01246 20.9287 0.130142 19.8403 0.130142H8.83099V14.6935L19.831 14.6935C20.3558 14.696 20.8599 14.489 21.2316 14.1185C21.6033 13.748 21.8118 13.2445 21.811 12.7197Z" fill="#ED5565"/>
<path d="M8.831 10.9535C10.787 10.9535 12.3727 9.36786 12.3727 7.41184C12.3727 5.45582 10.787 3.87015 8.831 3.87015C6.87498 3.87015 5.28931 5.45582 5.28931 7.41184C5.28931 9.36786 6.87498 10.9535 8.831 10.9535Z" fill="#FFCE54"/>
<path d="M10.6654 5.62704H6.99353V7.90761C6.97894 8.84553 7.65658 9.6513 8.58311 9.79775C9.10781 9.86725 9.63704 9.70751 10.0357 9.35931C10.4343 9.01111 10.6637 8.50816 10.6654 7.97888V5.63014V5.62704Z" fill="#ED5565"/>
<path d="M9.88141 6.41409V7.96339C9.88141 8.54352 9.41112 9.01381 8.83099 9.01381C8.25085 9.01381 7.78056 8.54352 7.78056 7.96339V6.41409H9.88141Z" fill="white"/>
<path d="M8.83099 7.37774C9.00212 7.37774 9.14085 7.23902 9.14085 7.06789C9.14085 6.89675 9.00212 6.75803 8.83099 6.75803C8.65986 6.75803 8.52113 6.89675 8.52113 7.06789C8.52113 7.23902 8.65986 7.37774 8.83099 7.37774Z" fill="#4758A9"/>
<path d="M8.83099 8.68225C9.00212 8.68225 9.14085 8.54352 9.14085 8.37239C9.14085 8.20126 9.00212 8.06253 8.83099 8.06253C8.65986 8.06253 8.52113 8.20126 8.52113 8.37239C8.52113 8.54352 8.65986 8.68225 8.83099 8.68225Z" fill="#4758A9"/>
<path d="M8.83099 8.03155C9.00212 8.03155 9.14085 7.89282 9.14085 7.72169C9.14085 7.55056 9.00212 7.41183 8.83099 7.41183C8.65986 7.41183 8.52113 7.55056 8.52113 7.72169C8.52113 7.89282 8.65986 8.03155 8.83099 8.03155Z" fill="#4758A9"/>
<path d="M8.18028 8.02846C8.35141 8.02846 8.49014 7.88973 8.49014 7.7186C8.49014 7.54747 8.35141 7.40874 8.18028 7.40874C8.00915 7.40874 7.87042 7.54747 7.87042 7.7186C7.87042 7.88973 8.00915 8.02846 8.18028 8.02846Z" fill="#4758A9"/>
<path d="M9.4817 8.03155C9.65283 8.03155 9.79156 7.89282 9.79156 7.72169C9.79156 7.55056 9.65283 7.41183 9.4817 7.41183C9.31057 7.41183 9.17184 7.55056 9.17184 7.72169C9.17184 7.89282 9.31057 8.03155 9.4817 8.03155Z" fill="#4758A9"/>
</g>
<defs>
<clipPath id="clip0_4_82">
<rect width="22" height="14.8732" fill="white"/>
</clipPath>
</defs>
</svg>
