<svg width="22" height="15" viewBox="0 0 22 15" fill="none" xmlns="http://www.w3.org/2000/svg">
<g clip-path="url(#clip0_4_171)">
<path d="M19.6358 0.0309753H2.06056C0.924256 0.0309753 0.00309753 0.952134 0.00309753 2.08844V12.5369C0.00309753 13.6732 0.924256 14.5944 2.06056 14.5944H19.6358C20.7721 14.5944 21.6932 13.6732 21.6932 12.5369V2.08844C21.6932 0.952134 20.7721 0.0309753 19.6358 0.0309753Z" fill="white"/>
<path d="M3.21944 4.44958L5.23662 1.42535L5.74169 1.76L3.72451 4.78423L3.21944 4.44958Z" fill="#434A54"/>
<path d="M15.8276 1.76L16.3327 1.42535L17.2623 2.81042L16.7572 3.14507L15.8276 1.76Z" fill="#434A54"/>
<path d="M3.97549 4.95776C4.64686 3.94968 5.31925 2.94161 5.99268 1.93353L6.49465 2.26818L4.47747 5.29241L3.97549 4.95776Z" fill="#434A54"/>
<path d="M15.0685 2.27126C15.2327 2.15042 15.4062 2.04507 15.5735 1.93042C16.2449 2.9385 16.9173 3.94657 17.5907 4.95465L17.0856 5.28929C16.4225 4.28225 15.747 3.27211 15.0685 2.27126Z" fill="#434A54"/>
<path d="M6.74874 2.4324L7.25381 2.76705L5.23662 5.79128L4.73155 5.45663L6.74874 2.4324Z" fill="#434A54"/>
<path d="M14.3124 2.77013L14.8175 2.43549L15.747 3.82366L15.2451 4.1583C14.929 3.69351 14.6223 3.23182 14.3124 2.77013Z" fill="#434A54"/>
<path d="M16.9183 3.40845C17.0856 3.2969 17.2499 3.18536 17.4172 3.0769L18.3468 4.45578L17.8417 4.79043L16.9183 3.40845Z" fill="#434A54"/>
<path d="M15.4062 4.40621L15.9113 4.07156L16.8409 5.45663L16.3358 5.79438L15.4062 4.40621Z" fill="#434A54"/>
<path d="M4.73155 9.15633L5.23662 8.82169L7.25381 11.8459L6.74874 12.1837L4.73155 9.15633Z" fill="#434A54"/>
<path d="M16.3296 8.8186L16.8346 9.15325L15.9051 10.5383L15.4 10.2037L16.3296 8.8186Z" fill="#434A54"/>
<path d="M3.97549 9.65832L4.48056 9.32367L5.41014 10.7087L4.90507 11.0434L3.97549 9.65832Z" fill="#434A54"/>
<path d="M17.0856 9.32367L17.5907 9.65832L16.6611 11.0434L16.1561 10.7056L17.0856 9.32367Z" fill="#434A54"/>
<path d="M3.21944 10.1634L3.72451 9.82874L5.74169 12.853L5.23662 13.1907L3.21944 10.1634Z" fill="#434A54"/>
<path d="M17.8417 9.82874C18.0121 9.93719 18.1794 10.0518 18.3468 10.1634L17.4172 11.5485L16.9121 11.2107L17.8417 9.82874Z" fill="#434A54"/>
<path d="M15.2389 10.4578L15.7439 10.7924L14.8144 12.1775L14.3093 11.8428L15.2389 10.4578Z" fill="#434A54"/>
<path d="M5.06929 11.3006L5.57126 10.9628C5.88112 11.4214 6.19098 11.8924 6.50084 12.3479L5.99577 12.6856L5.06929 11.3006Z" fill="#434A54"/>
<path d="M15.0685 12.3479C15.3783 11.8862 15.6882 11.4183 15.998 10.9628C16.1654 11.0775 16.3358 11.1859 16.5 11.3006L15.5704 12.6856L15.0685 12.3479Z" fill="#434A54"/>
<path d="M16.7479 11.4648C16.9183 11.5732 17.0856 11.6879 17.253 11.7994L16.3234 13.1845L15.8183 12.8468L16.7479 11.4648Z" fill="#434A54"/>
<path d="M8.94253 4.17069C10.0491 3.52002 11.4168 3.50133 12.5408 4.1215C13.6647 4.74167 14.3782 5.90873 14.4177 7.19181C14.4419 7.90473 14.2543 8.60882 13.8786 9.21519C14.2759 8.51832 14.1698 7.64342 13.6174 7.06175C13.065 6.48007 12.1967 6.32897 11.4803 6.68984C11.1989 6.8325 10.9597 7.04611 10.7862 7.30956C10.3402 7.98138 9.50511 8.27935 8.73457 8.0416C7.96404 7.80385 7.44202 7.08715 7.45211 6.28083C7.45785 6.00497 7.52229 5.7335 7.64112 5.48449C7.95349 4.94099 8.40201 4.48819 8.94253 4.17069Z" fill="#EC5565"/>
<path d="M7.14845 7.18871C7.16589 6.58476 7.33649 5.99515 7.64422 5.47519C7.52538 5.7242 7.46095 5.99567 7.45521 6.27153C7.44512 7.07784 7.96714 7.79455 8.73767 8.0323C9.50821 8.27005 10.3433 7.97208 10.7893 7.30026C11.2274 6.65057 12.0324 6.35452 12.7871 6.56551C13.5417 6.77651 14.0764 7.44713 14.1141 8.22984C14.1318 8.57803 14.0502 8.92408 13.8786 9.22758C13.4931 9.858 12.923 10.3545 12.2456 10.6498C11.1017 11.1516 9.78035 11.0314 8.74578 10.3314C7.7112 9.63144 7.10813 8.44958 7.14845 7.2011V7.18871Z" fill="#4658A9"/>
</g>
<defs>
<clipPath id="clip0_4_171">
<rect width="22" height="14.8732" fill="white"/>
</clipPath>
</defs>
</svg>
