<svg width="22" height="15" viewBox="0 0 22 15" fill="none" xmlns="http://www.w3.org/2000/svg">
<g clip-path="url(#clip0_4_44)">
<path d="M21.8853 3.25662H0.195206V11.6228H21.8853V3.25662Z" fill="#FFCE54"/>
<path d="M19.9146 0.173525H2.16901C1.64634 0.173525 1.14509 0.381152 0.775509 0.750731C0.40593 1.12031 0.198303 1.62157 0.198303 2.14423V3.27211H21.8884V2.14423C21.8884 1.62103 21.6804 1.1193 21.3101 0.749634C20.9399 0.379967 20.4378 0.172703 19.9146 0.173525Z" fill="#ED5565"/>
<path d="M0.195207 12.7662C0.195207 13.2889 0.402834 13.7901 0.772413 14.1597C1.14199 14.5293 1.64325 14.7369 2.16591 14.7369H19.9115C20.4342 14.7369 20.9355 14.5293 21.305 14.1597C21.6746 13.7901 21.8822 13.2889 21.8822 12.7662V11.6383H0.192108L0.195207 12.7662Z" fill="#ED5565"/>
<path d="M3.62845 8.40649V9.29579C3.62845 9.80918 4.04463 10.2254 4.55803 10.2254H5.08479V8.41889L3.62845 8.40649Z" fill="#F6D660"/>
<path d="M4.09323 8.40649V10.0859C4.14258 10.1144 4.19444 10.1382 4.24816 10.1572V8.40649H4.09323Z" fill="#ED5565"/>
<path d="M3.75859 8.40649V9.75438C3.80077 9.82829 3.8529 9.89606 3.91352 9.95579V8.40649H3.75859Z" fill="#ED5565"/>
<path d="M4.43098 8.4065V10.2006C4.47225 10.2033 4.51366 10.2033 4.55493 10.2006H4.58591V8.3941L4.43098 8.4065Z" fill="#ED5565"/>
<path d="M5.07548 8.40649H4.76562V10.213H5.07548V8.40649Z" fill="#ED5565"/>
<path d="M5.08169 6.76422H3.62845V8.40338H5.08169V6.76422Z" fill="#ED5565"/>
<path d="M6.53492 9.29577V8.41577H5.08168V10.2253H5.60844C6.12062 10.2236 6.53492 9.80796 6.53492 9.29577Z" fill="#ED5565"/>
<path d="M6.53492 6.76422H5.08168V8.40338H6.53492V6.76422Z" fill="white"/>
<path d="M5.08169 8.87746C5.34181 8.87746 5.55267 8.66659 5.55267 8.40647C5.55267 8.14635 5.34181 7.93549 5.08169 7.93549C4.82157 7.93549 4.6107 8.14635 4.6107 8.40647C4.6107 8.66659 4.82157 8.87746 5.08169 8.87746Z" fill="#4A89DC" stroke="#ED5565" stroke-width="0.5"/>
<path d="M3.15126 6.98422C3.15126 6.86272 3.05276 6.76422 2.93126 6.76422C2.80976 6.76422 2.71126 6.86272 2.71126 6.98422V9.55295C2.71126 9.67446 2.80976 9.77295 2.93126 9.77295C3.05276 9.77295 3.15126 9.67446 3.15126 9.55295V6.98422Z" fill="white"/>
<path d="M7.45212 6.98422C7.45212 6.86272 7.35362 6.76422 7.23212 6.76422C7.11061 6.76422 7.01212 6.86272 7.01212 6.98422V9.55295C7.01212 9.67446 7.11061 9.77295 7.23212 9.77295C7.35362 9.77295 7.45212 9.67446 7.45212 9.55295V6.98422Z" fill="white"/>
<path d="M6.48534 5.69833C6.48534 5.69833 6.48534 5.68283 6.48534 5.67354C6.48534 5.42565 5.86562 5.22424 5.06928 5.22424C4.27295 5.22424 3.65323 5.42565 3.65323 5.67354C3.65221 5.68384 3.65221 5.69422 3.65323 5.70452L3.96309 6.06086L4.07464 6.02988C4.12007 6.02642 4.16486 6.01704 4.20787 6.00199C4.26833 5.97533 4.33043 5.95256 4.39379 5.93382L4.5983 5.96791L4.74083 5.87185L4.90816 5.93692L5.06618 5.83776L5.21492 5.94002L5.39464 5.85945C5.4472 5.89974 5.50204 5.93699 5.55886 5.971L5.71379 5.89664L5.82224 6.01129L5.98027 5.95241L6.10421 6.08875L6.48534 5.69833Z" fill="#ED5565"/>
<path d="M5.88732 6.01126L5.77577 5.89661C5.77577 5.89661 5.62704 5.97098 5.61465 5.97098C5.55582 5.93698 5.49892 5.89974 5.44423 5.85943L5.25521 5.93999L5.09718 5.83774L4.92986 5.93689L4.75324 5.87182L4.60451 5.96788L4.38761 5.93379C4.32121 5.95253 4.25602 5.9753 4.19239 6.00196C4.14724 6.01698 4.10041 6.02635 4.05296 6.02985L3.93521 6.06084L4.02507 6.1414L4.14901 6.3583H6.00817L6.13211 6.1414L6.19408 6.08872L6.06394 5.95239L5.88732 6.01126Z" fill="white"/>
<path d="M5.07858 6.66507C5.54234 6.66507 5.9183 6.52634 5.9183 6.35521C5.9183 6.18408 5.54234 6.04535 5.07858 6.04535C4.61482 6.04535 4.23886 6.18408 4.23886 6.35521C4.23886 6.52634 4.61482 6.66507 5.07858 6.66507Z" stroke="white" stroke-linecap="round" stroke-linejoin="round"/>
<path d="M4.04985 6.13831C4.18309 6.04535 4.47436 5.99887 5.08168 5.99887" stroke="white" stroke-width="0.51" stroke-linecap="round" stroke-linejoin="round"/>
<path d="M5.07858 5.99887C5.6983 5.99887 5.97717 6.04535 6.11041 6.13831" stroke="white" stroke-width="0.51" stroke-linecap="round" stroke-linejoin="round"/>
<path d="M5.07858 6.66507C5.54234 6.66507 5.9183 6.52634 5.9183 6.35521C5.9183 6.18408 5.54234 6.04535 5.07858 6.04535C4.61482 6.04535 4.23886 6.18408 4.23886 6.35521C4.23886 6.52634 4.61482 6.66507 5.07858 6.66507Z" stroke="white" stroke-width="0.5" stroke-linecap="round" stroke-linejoin="round"/>
<path d="M5.07858 6.66507C5.54234 6.66507 5.9183 6.52634 5.9183 6.35521C5.9183 6.18408 5.54234 6.04535 5.07858 6.04535C4.61482 6.04535 4.23886 6.18408 4.23886 6.35521C4.23886 6.52634 4.61482 6.66507 5.07858 6.66507Z" fill="#ED5565"/>
<path d="M4.4031 5.44733C4.34075 5.38557 4.31033 5.29854 4.32062 5.21139C4.33091 5.12423 4.38076 5.04668 4.45578 5.00113C4.62287 4.91327 4.82443 4.92275 4.98254 5.02592L5.07859 5.08789L5.17465 5.02592" stroke="white" stroke-width="0.5" stroke-linecap="round" stroke-linejoin="round"/>
<path d="M3.7183 5.67352C3.65501 5.60721 3.62262 5.51727 3.62911 5.42584C3.6356 5.3344 3.68036 5.24994 3.75239 5.19323C3.91982 5.08802 4.12547 5.06303 4.31323 5.12507" stroke="white" stroke-width="0.5" stroke-linecap="round" stroke-linejoin="round"/>
<path d="M5.75717 5.44733C5.81952 5.38557 5.84994 5.29854 5.83965 5.21139C5.82936 5.12423 5.77951 5.04668 5.7045 5.00113C5.5374 4.91327 5.33584 4.92275 5.17773 5.02592" stroke="white" stroke-width="0.5" stroke-linecap="round" stroke-linejoin="round"/>
<path d="M6.43886 5.67352C6.50216 5.60721 6.53454 5.51727 6.52805 5.42584C6.52156 5.3344 6.4768 5.24994 6.40478 5.19323C6.23735 5.08802 6.03169 5.06303 5.84393 5.12507" stroke="white" stroke-width="0.5" stroke-linecap="round" stroke-linejoin="round"/>
<path d="M5.07858 5.38227V5.091" stroke="white" stroke-width="0.5" stroke-linecap="round" stroke-linejoin="round"/>
<path d="M6.25915 5.97409C6.17239 6.11972 5.94929 6.07324 6.05774 5.88423C6.05774 5.88423 5.98957 6.03606 5.85323 6.01127C5.76957 6.01127 5.72619 5.91831 5.74788 5.80676C5.73965 5.90361 5.65592 5.97637 5.55887 5.97099C5.40394 5.97099 5.41943 5.76338 5.41943 5.76338C5.41943 5.76338 5.41943 5.9462 5.24901 5.94C5.20298 5.93839 5.15948 5.91854 5.12809 5.88483C5.09671 5.85112 5.08001 5.80631 5.08169 5.76028C5.08508 5.80735 5.06916 5.85378 5.03759 5.88885C5.00602 5.92393 4.96153 5.94464 4.91436 5.9462C4.74704 5.9462 4.74394 5.76958 4.74394 5.76958C4.74394 5.76958 4.74394 5.96479 4.6045 5.97719C4.50745 5.98256 4.42372 5.90981 4.41549 5.81296C4.43408 5.92451 4.3938 6.00197 4.31014 6.01747C4.1738 6.04226 4.10563 5.89043 4.10563 5.89043C4.20478 6.08254 3.99098 6.12592 3.90422 5.98028" stroke="white" stroke-width="0.3" stroke-linecap="round" stroke-linejoin="round"/>
<path d="M5.07858 5.18084C5.24971 5.18084 5.38844 5.04212 5.38844 4.87099C5.38844 4.69986 5.24971 4.56113 5.07858 4.56113C4.90745 4.56113 4.76872 4.69986 4.76872 4.87099C4.76872 5.04212 4.90745 5.18084 5.07858 5.18084Z" fill="#4A89DC"/>
</g>
<defs>
<clipPath id="clip0_4_44">
<rect width="22" height="14.8732" fill="white"/>
</clipPath>
</defs>
</svg>
