<svg width="22" height="15" viewBox="0 0 22 15" fill="none" xmlns="http://www.w3.org/2000/svg">
<g clip-path="url(#clip0_4_151)">
<path d="M19.7969 0.108442H2.04817C0.959783 0.108442 0.0774689 0.990757 0.0774689 2.07915V12.7011C0.0774689 13.7895 0.959783 14.6718 2.04817 14.6718H19.7969C20.8853 14.6718 21.7676 13.7895 21.7676 12.7011V2.07915C21.7676 0.990757 20.8853 0.108442 19.7969 0.108442Z" fill="#ED5565"/>
<path d="M12.7042 9.10675C12.5276 9.2245 12.4285 9.15013 12.4873 8.94563L12.7042 8.17408C12.7552 7.94368 12.6878 7.70304 12.5245 7.53267L11.9792 7.0214C11.8242 6.87577 11.8676 6.75802 12.0814 6.75802H12.8747C13.1026 6.74785 13.3025 6.6028 13.3828 6.38929L13.6648 5.54957C13.7299 5.34506 13.8383 5.34506 13.9034 5.54957L14.1699 6.39858C14.2484 6.61428 14.4435 6.76599 14.6718 6.78901L15.493 6.81689C15.7037 6.81689 15.744 6.94394 15.5766 7.08027L14.9414 7.60084C14.7709 7.75827 14.6935 7.99253 14.7369 8.22056L14.9073 8.91154C14.9569 9.11915 14.8547 9.19351 14.678 9.07577L14.0397 8.67605C13.8418 8.55555 13.5932 8.55555 13.3952 8.67605L12.7042 9.10675ZM13.0141 10.529H12.9986C12.824 10.6142 12.6427 10.6847 12.4563 10.7397C10.669 11.2705 8.78959 10.2524 8.25776 8.46534L8.23917 8.40337C7.87541 7.17025 8.21735 5.83697 9.12967 4.93111C10.042 4.02526 11.3777 3.69282 12.6082 4.06534C12.7909 4.12546 12.9682 4.20113 13.138 4.29154H13.1535C13.2088 4.30976 13.2691 4.28488 13.2954 4.233C13.3217 4.18111 13.3062 4.11778 13.2589 4.08394C12.8316 3.70691 12.3318 3.42116 11.7902 3.24422C10.4847 2.83947 9.06493 3.07083 7.95549 3.86911C6.84606 4.66739 6.17556 5.94004 6.14452 7.30647C6.13574 7.73759 6.19002 8.16768 6.30565 8.58309C6.6926 9.96894 7.75428 11.065 9.12709 11.4959C10.4999 11.9269 11.9975 11.6341 13.1071 10.718C13.1521 10.6855 13.1682 10.6259 13.1458 10.5751C13.1234 10.5242 13.0685 10.496 13.0141 10.5073V10.529Z" fill="white"/>
</g>
<defs>
<clipPath id="clip0_4_151">
<rect width="22" height="14.8732" fill="white"/>
</clipPath>
</defs>
</svg>
