<svg width="22" height="15" viewBox="0 0 22 15" fill="none" xmlns="http://www.w3.org/2000/svg">
<g clip-path="url(#clip0_4_5)">
<path d="M9.4724 0.210724H8.50254V4.64791L0.756059 0.774668C0.396146 1.12235 0.175743 1.5896 0.13634 2.08847L6.08564 5.06312H3.91662L0.127045 3.16988V3.71833L2.83211 5.06932H0.127045V6.03918H9.48169L9.4724 0.210724Z" fill="white"/>
<path d="M21.1417 14.2195C21.512 13.8815 21.7456 13.4196 21.7986 12.9211L15.7811 9.91551H17.9502L21.811 11.8459V11.3037L19.0223 9.91551H21.811V8.94565H12.3944V14.7679H13.3642V10.3307L21.1417 14.2195Z" fill="white"/>
<path d="M13.3549 0.210724H12.3944V6.03298H21.8203V5.06312H19.0316L21.8203 3.67495V2.25889C21.8203 2.18763 21.8203 2.11946 21.8203 2.05129L15.7997 5.06002H13.6307L21.4918 1.12791C21.4041 0.989016 21.3 0.861073 21.182 0.74678L13.3549 4.64791V0.210724Z" fill="white"/>
<path d="M0.12085 8.94257V9.91552H2.82592L0.12085 11.2665V12.7043C0.12085 12.7662 0.12085 12.8251 0.12085 12.8871L6.07015 9.91242H8.23916L0.436906 13.8136C0.524448 13.9536 0.628479 14.0826 0.746765 14.1978L8.49324 10.3276V14.7648H9.4631V8.94257H0.12085Z" fill="white"/>
<path d="M21.811 8.94256V6.03298H12.3851V0.210724H9.4724V6.03298H0.12085V8.94256H9.4724V14.7648H12.3851V8.94256H21.811Z" fill="#EC5565"/>
<path d="M6.07634 5.06312L0.127045 2.08847C0.127045 2.14425 0.127045 2.20312 0.127045 2.25889V3.16678L3.91662 5.06002L6.07634 5.06312Z" fill="#EC5565"/>
<path d="M15.7811 5.06313L21.8017 2.05439C21.7697 1.72239 21.6569 1.40325 21.4732 1.12482L13.6121 5.05693L15.7811 5.06313Z" fill="#EC5565"/>
<path d="M15.7811 9.91553L21.7986 12.9243C21.8024 12.852 21.8024 12.7796 21.7986 12.7074V11.8459L17.9501 9.91553H15.7811Z" fill="#EC5565"/>
<path d="M6.07634 9.91553L0.127045 12.8902C0.153476 13.2206 0.259815 13.5396 0.436904 13.8198L8.24845 9.91553H6.07634Z" fill="#EC5565"/>
<path d="M13.3549 4.64791L21.151 0.749879C20.8239 0.445106 20.406 0.255753 19.9611 0.210724H13.3549V4.64791Z" fill="#4658A9"/>
<path d="M21.811 11.3006V9.91241H19.0347L21.811 11.3006Z" fill="#4658A9"/>
<path d="M21.811 5.06313V3.67496L19.0347 5.06313H21.811Z" fill="#4658A9"/>
<path d="M0.762253 14.1978C1.14366 14.5621 1.65089 14.7652 2.17831 14.7648H8.50253V10.3276L0.762253 14.1978Z" fill="#4658A9"/>
<path d="M13.3549 10.3276V14.7648H19.7535C20.2679 14.7648 20.7635 14.5712 21.1417 14.2226L13.3549 10.3276Z" fill="#4658A9"/>
<path d="M8.50254 0.210724H1.97071C1.51407 0.257291 1.08631 0.455893 0.756058 0.774668L8.50254 4.64791V0.210724Z" fill="#4658A9"/>
<path d="M0.12085 9.91241V11.2634L2.82282 9.91241H0.12085Z" fill="#4658A9"/>
<path d="M0.12085 3.70905V5.06313H2.82282L0.12085 3.70905Z" fill="#4658A9"/>
</g>
<defs>
<clipPath id="clip0_4_5">
<rect width="22" height="14.8732" fill="white"/>
</clipPath>
</defs>
</svg>
