<svg width="22" height="15" viewBox="0 0 22 15" fill="none" xmlns="http://www.w3.org/2000/svg">
<g clip-path="url(#clip0_4_105)">
<path d="M19.8403 0.0774689H2.09155C1.00316 0.0774689 0.12085 0.959783 0.12085 2.04817V12.6701C0.12085 13.7585 1.00316 14.6408 2.09155 14.6408H19.8403C20.9287 14.6408 21.811 13.7585 21.811 12.6701V2.04817C21.811 0.959783 20.9287 0.0774689 19.8403 0.0774689Z" fill="#ED5565"/>
<path d="M9.60563 9.6924C9.37634 9.84423 9.24929 9.75127 9.32366 9.48789L9.59324 8.50254C9.65685 8.20707 9.56713 7.89945 9.35465 7.68451L8.64197 7.03381C8.43746 6.84789 8.49634 6.69916 8.77211 6.69916H9.79774C10.0911 6.68671 10.3485 6.50003 10.4515 6.22507L10.8048 5.14986C10.8915 4.88958 11.031 4.88958 11.1146 5.14986L11.4648 6.22817C11.5722 6.50402 11.8268 6.69501 12.1217 6.72085L13.1659 6.76113C13.4417 6.76113 13.4913 6.92226 13.2775 7.09578L12.4625 7.76507C12.2423 7.96791 12.1436 8.27087 12.2023 8.56451L12.4315 9.44451C12.4997 9.71099 12.3696 9.80395 12.1403 9.65521L11.3037 9.10986C11.0463 8.95902 10.7275 8.95902 10.4701 9.10986L9.60563 9.6924Z" fill="#F6D660"/>
</g>
<defs>
<clipPath id="clip0_4_105">
<rect width="22" height="14.8732" fill="white"/>
</clipPath>
</defs>
</svg>
