<svg version="1.2" baseProfile="tiny-ps" xmlns="http://www.w3.org/2000/svg" viewBox="0 0 100 100" width="20" height="20">
	<title>1486348525-music-forward-front-next-arrow_80457-svg</title>
	<style>
		tspan { white-space:pre }
		.shp0 { fill: #000000 } 
		.shp1 { fill: none;stroke: #000000 } 
	</style>
	<g id="Layer_8_copy_4_3_">
		<path id="Layer" class="shp0" d="M72.23 28.69L63.94 28.69C63.37 28.69 62.84 29 62.55 29.49L50.88 49.71C50.27 50.77 48.73 50.77 48.11 49.71L36.44 29.49C36.16 29 35.63 28.69 35.06 28.69L26.77 28.69C25.53 28.69 24.76 30.03 25.38 31.09L48.11 70.47C48.73 71.53 50.27 71.53 50.88 70.47L73.62 31.09C74.23 30.03 73.46 28.69 72.23 28.69Z" />
		<path id="Layer" class="shp0" d="M50.88 70.47L73.62 31.09C73.73 30.9 73.78 30.7 73.81 30.5L51.89 68.47C51.27 69.53 49.73 69.53 49.11 68.47L26.38 29.09C26.32 28.99 26.29 28.89 26.25 28.79C25.34 29.09 24.86 30.19 25.38 31.09L48.11 70.47C48.73 71.54 50.27 71.54 50.88 70.47Z" />
		<path id="Layer" class="shp1" d="M72.23 28.69L63.94 28.69C63.37 28.69 62.84 29 62.55 29.49L50.88 49.71C50.27 50.77 48.73 50.77 48.11 49.71L36.44 29.49C36.16 29 35.63 28.69 35.06 28.69L26.77 28.69C25.53 28.69 24.76 30.03 25.38 31.09L48.11 70.47C48.73 71.53 50.27 71.53 50.88 70.47L73.62 31.09C74.23 30.03 73.46 28.69 72.23 28.69Z" />
	</g>
</svg>