<svg version="1.2" baseProfile="tiny-ps" xmlns="http://www.w3.org/2000/svg" viewBox="0 0 100 100" width="20" height="20">
	<title>1486348525-music-forward-front-next-arrow_80457-svg</title>
	<style>
		tspan { white-space:pre }
		.shp0 { fill: #000000 } 
		.shp1 { fill: none;stroke: #000000 } 
	</style>
	<g id="Layer_8_copy_4_3_">
		<path id="Layer" class="shp0" d="M26.77 71.28L35.06 71.28C35.63 71.28 36.16 70.98 36.45 70.48L48.11 50.27C48.73 49.21 50.27 49.21 50.89 50.27L62.55 70.48C62.84 70.98 63.37 71.28 63.94 71.28L72.23 71.28C73.46 71.28 74.23 69.95 73.62 68.88L50.89 29.51C50.27 28.44 48.73 28.44 48.11 29.51L25.38 68.88C24.77 69.95 25.53 71.28 26.77 71.28Z" />
		<path id="Layer" class="shp0" d="M48.11 29.51L25.38 68.88C25.27 69.08 25.22 69.28 25.19 69.48L47.11 31.51C47.73 30.44 49.27 30.44 49.88 31.51L72.62 70.88C72.68 70.98 72.71 71.09 72.74 71.19C73.66 70.88 74.14 69.79 73.62 68.88L50.89 29.51C50.27 28.44 48.73 28.44 48.11 29.51Z" />
		<path id="Layer" class="shp1" d="M26.77 71.28L35.06 71.28C35.63 71.28 36.16 70.98 36.45 70.48L48.11 50.27C48.73 49.21 50.27 49.21 50.89 50.27L62.55 70.48C62.84 70.98 63.37 71.28 63.94 71.28L72.23 71.28C73.46 71.28 74.23 69.95 73.62 68.88L50.89 29.51C50.27 28.44 48.73 28.44 48.11 29.51L25.38 68.88C24.77 69.95 25.53 71.28 26.77 71.28Z" />
	</g>
</svg>