<svg version="1.2" baseProfile="tiny-ps" xmlns="http://www.w3.org/2000/svg" viewBox="0 0 32 24" width="32" height="24">
	<title>iPhone 12 Pro Max – 1</title>
	<style>
		tspan { white-space:pre }
		.shp0 { fill: #7e7e7e } 
	</style>
	<g id="iPhone 12 Pro Max – 1">
		<g id="Header">
			<g id="list-symbol-of-three-items-with-dots_icon-icons.com_72994">
				<g id="_x33__32_">
					<g id="Group 1">
						<path id="Path 1" class="shp0" d="M3.07 0.75C1.37 0.75 0 2.12 0 3.82C0 5.51 1.37 6.89 3.07 6.89C4.76 6.89 6.14 5.51 6.14 3.82C6.14 2.12 4.76 0.75 3.07 0.75ZM3.07 8.93C1.37 8.93 0 10.31 0 12C0 13.69 1.37 15.07 3.07 15.07C4.76 15.07 6.14 13.69 6.14 12C6.14 10.31 4.76 8.93 3.07 8.93ZM3.07 17.11C1.37 17.11 0 18.49 0 20.18C0 21.88 1.37 23.25 3.07 23.25C4.76 23.25 6.14 21.88 6.14 20.18C6.14 18.49 4.76 17.11 3.07 17.11ZM10.23 5.86L29.66 5.86C30.79 5.86 31.7 4.95 31.7 3.82C31.7 2.69 30.79 1.77 29.66 1.77L10.23 1.77C9.1 1.77 8.18 2.69 8.18 3.82C8.18 4.95 9.1 5.86 10.23 5.86ZM29.66 9.95L10.23 9.95C9.1 9.95 8.18 10.87 8.18 12C8.18 13.13 9.1 14.05 10.23 14.05L29.66 14.05C30.79 14.05 31.7 13.13 31.7 12C31.7 10.87 30.79 9.95 29.66 9.95ZM29.66 18.14L10.23 18.14C9.1 18.14 8.18 19.05 8.18 20.18C8.18 21.31 9.1 22.23 10.23 22.23L29.66 22.23C30.79 22.23 31.7 21.31 31.7 20.18C31.7 19.05 30.79 18.14 29.66 18.14Z" />
					</g>
				</g>
			</g>
		</g>
	</g>
</svg>