<svg width="30" height="30" viewBox="0 0 30 30" fill="none" xmlns="http://www.w3.org/2000/svg">
<path d="M14.6456 29.9964C6.33702 29.8275 -0.245484 22.9412 0.00651264 14.5416C0.256325 6.23662 7.12287 -0.244647 15.4992 0.00735C23.3213 0.242596 30.2403 6.77922 29.9788 15.4848C29.7319 23.698 22.9084 30.1843 14.6456 29.9964ZM28.5368 14.9837C28.536 7.53812 22.4517 1.46252 15.0011 1.46616C7.52417 1.47053 1.45513 7.51336 1.44639 14.9618C1.43765 22.4744 7.49723 28.5558 14.9828 28.5464C22.5092 28.5369 28.5375 22.505 28.5368 14.9837Z" fill="white"/>
<path d="M9.79581 19.4227C9.78634 19.2035 9.94802 19.0127 10.1337 18.8277C11.3202 17.6449 12.4964 16.4526 13.6937 15.2822C13.9304 15.0506 13.9093 14.9363 13.6865 14.7185C12.5 13.5539 11.3296 12.3726 10.1541 11.1971C10.0172 11.0602 9.86572 10.9284 9.82275 10.7288C9.75284 10.4047 9.82567 10.1141 10.109 9.92475C10.3887 9.73757 10.696 9.75068 10.956 9.96044C11.2007 10.1578 11.417 10.3909 11.6399 10.6137C12.6785 11.6516 13.7207 12.6865 14.7491 13.7346C14.937 13.9261 15.0375 13.9385 15.2327 13.7397C16.4155 12.5372 17.6135 11.3493 18.8058 10.1564C18.9347 10.0274 19.0585 9.88542 19.2428 9.84172C19.5647 9.76452 19.856 9.83225 20.0541 10.109C20.2515 10.385 20.2391 10.6888 20.0395 10.956C19.8888 11.1585 19.6987 11.3333 19.5188 11.5139C18.438 12.5955 17.3608 13.6814 16.2683 14.7506C16.0586 14.9559 16.0746 15.0637 16.2742 15.2597C17.4591 16.4264 18.6303 17.6063 19.805 18.7825C19.942 18.9194 20.0883 19.052 20.1503 19.2443C20.2471 19.548 20.1284 19.923 19.8655 20.0826C19.5785 20.2573 19.277 20.2493 19.017 20.0367C18.7737 19.8371 18.556 19.6062 18.3331 19.3834C17.312 18.3623 16.2865 17.3448 15.2778 16.3113C15.0637 16.0914 14.9494 16.0601 14.7141 16.3004C13.5444 17.4985 12.3507 18.674 11.1687 19.8604C10.964 20.0658 10.7506 20.2253 10.4382 20.1911C10.0587 20.1496 9.79362 19.8641 9.79581 19.4227Z" fill="white"/>
</svg>
