<svg width="20" height="20" viewBox="0 0 20 20" fill="none" xmlns="http://www.w3.org/2000/svg">
<path d="M17.2757 19.8708C17.1849 19.9558 17.0643 20.0022 16.9395 19.9999C16.8148 19.9977 16.6959 19.947 16.6083 19.8587C13.5173 16.7403 10.5346 13.7612 7.59585 10.741C6.59961 9.71687 7.59585 8.99539 8.21698 8.37076C10.3118 6.26444 12.4626 4.2126 14.6024 2.15107C15.2844 1.49618 15.9519 0.806176 16.724 0.274755C17.0419 0.0556497 17.5765 -0.153771 18.0795 0.209387C18.1684 0.272335 18.2951 0.361914 18.3974 0.451493C20.4934 2.24549 20.5129 2.45492 18.5764 4.38207C16.7289 6.22087 14.8545 8.03302 12.94 9.90813C15.0555 12.0701 17.0273 14.1571 19.0745 16.169C19.8175 16.8953 19.9088 17.4582 19.1196 18.1555C18.5265 18.6772 17.9504 19.2365 17.2757 19.8708Z" fill="#FFC353"/>
<path d="M2.72429 0.129231C2.81507 0.0441746 2.93574 -0.00218333 3.06048 7.90818e-05C3.18521 0.00234149 3.3041 0.0530447 3.3917 0.141336C6.48273 3.25965 9.46536 6.23876 12.4042 9.25903C13.4004 10.2831 12.4042 11.0046 11.783 11.6292C9.68824 13.7356 7.53743 15.7874 5.39758 17.8489C4.71556 18.5038 4.04815 19.1938 3.276 19.7252C2.95813 19.9444 2.42347 20.1538 1.92048 19.7906C1.83157 19.7277 1.70491 19.6381 1.60261 19.5485C-0.493398 17.7545 -0.512885 17.5451 1.42357 15.6179C3.27113 13.7791 5.14547 11.967 7.06001 10.0919C4.94452 7.92987 2.97274 5.84292 0.925454 3.83102C0.182536 3.10471 0.0911941 2.54181 0.880392 1.84455C1.47351 1.32281 2.04958 0.763547 2.72429 0.129231Z" fill="#FFC353"/>
</svg>
