<svg width="40" height="40" viewBox="0 0 40 40" fill="none" xmlns="http://www.w3.org/2000/svg">
<circle cx="20" cy="20" r="20" fill="#95CC30"/>
<g clip-path="url(#clip0_123_71)">
<path d="M27.3705 17.8449C27.3076 17.5673 27.1859 17.324 27.0704 17.0807C24.5922 11.8406 17.4234 11.0349 13.8528 15.5995C13.4682 16.0916 13.0385 16.4376 12.3801 16.2995C11.432 16.1008 11.0243 15.0292 11.6019 14.2449C12.61 12.875 13.8742 11.8003 15.4098 11.0673C20.8345 8.47724 27.0618 10.7562 29.5492 16.231C29.5737 16.2854 29.603 16.338 29.6293 16.3912C29.743 16.3765 29.7479 16.2799 29.7809 16.2139C30.0291 15.7126 30.2669 15.2059 30.5194 14.707C30.8635 14.0267 31.6209 13.765 32.2769 14.0896C32.9181 14.4075 33.1859 15.1637 32.8637 15.8337C32.0256 17.5753 31.1796 19.3126 30.325 21.0463C29.9735 21.7591 29.1647 22.003 28.4837 21.5977C26.8393 20.6196 25.201 19.6311 23.567 18.6371C22.9153 18.2404 22.732 17.4591 23.1177 16.8313C23.4936 16.22 24.2663 16.0311 24.9076 16.4083C25.6357 16.8368 26.3552 17.2794 27.0796 17.7134C27.1627 17.7636 27.2367 17.8388 27.3705 17.8449Z" fill="white"/>
<path d="M10.3115 24.4561C10.0346 25.0222 9.76437 25.5864 9.48317 26.1452C9.19708 26.7149 8.62062 27.0053 8.04783 26.8812C7.18772 26.6953 6.75553 25.8175 7.1431 25.0094C7.84304 23.5514 8.55643 22.1002 9.26432 20.6459C9.40248 20.3622 9.53391 20.0755 9.68001 19.7962C10.0407 19.1078 10.8366 18.8615 11.5048 19.2582C13.1583 20.2406 14.8052 21.2333 16.4484 22.2328C17.0811 22.6179 17.2608 23.4016 16.8867 24.0197C16.5144 24.6346 15.738 24.8327 15.0998 24.4573C14.2856 23.9781 13.4805 23.4835 12.6668 22.9933C12.61 23.096 12.6656 23.1663 12.6937 23.2341C13.8528 26.0131 15.908 27.7278 18.8856 28.1582C21.7991 28.5794 24.2266 27.5622 26.1192 25.2973C26.1907 25.2111 26.2568 25.1206 26.3283 25.0344C26.8045 24.458 27.5778 24.3608 28.1536 24.8046C28.7228 25.2429 28.8279 26.0315 28.3853 26.6299C27.3926 27.9717 26.1541 29.0305 24.6557 29.7641C19.2714 32.4019 12.9474 30.1266 10.4631 24.6713C10.4313 24.601 10.4227 24.5142 10.3115 24.4561Z" fill="white"/>
</g>
<defs>
<clipPath id="clip0_123_71">
<rect width="26" height="20.8626" fill="white" transform="translate(7 10)"/>
</clipPath>
</defs>
</svg>
