<svg width="50" height="50" viewBox="0 0 50 50" fill="none" xmlns="http://www.w3.org/2000/svg">
<path d="M5.74418e-07 24.9794C0.00293026 11.2098 11.2441 -0.0137853 25.0186 -0.000113408C38.7998 0.0135585 50.0098 11.2401 50 25.0184C49.9902 38.7929 38.752 50.0136 24.9805 49.9999C11.2012 49.9852 -0.00292911 38.7626 5.74418e-07 24.9794ZM3.12402 25.6854C3.18164 30.2411 4.85254 34.9032 8.18262 38.9696C8.41797 39.2567 8.53516 39.2694 8.80371 39.0009C18.8643 28.9257 28.9326 18.8573 39.0078 8.79774C39.2881 8.51844 39.2412 8.3993 38.9619 8.1786C32.4561 3.05164 25.249 1.73426 17.4502 4.50086C8.8252 7.56043 3.13379 15.8466 3.12402 25.6854ZM46.877 24.4862C46.8271 19.8124 45.1709 15.1454 41.8516 11.0702C41.5918 10.7518 41.4639 10.7284 41.1641 11.0302C38.4268 13.7919 35.6719 16.537 32.9219 19.287C25.627 26.5819 18.334 33.8768 11.0342 41.1669C10.7881 41.413 10.6904 41.5477 11.0332 41.8202C17.1289 46.6503 23.9404 48.1054 31.3936 45.8915C40.5908 43.161 46.8223 34.662 46.877 24.4862Z" fill="#FBFBFB"/>
</svg>
