<svg width="298" height="275" viewBox="0 0 298 275" fill="none" xmlns="http://www.w3.org/2000/svg">
<path d="M60.1834 275.694C62.7828 264.257 65.321 252.819 67.584 241.352C69.1436 233.553 70.2445 225.664 71.4066 217.774C72.1711 212.667 72.6604 207.498 73.2415 202.361C74.954 187.712 78.532 173.554 84.6176 160.037C88.8072 150.74 93.9448 141.994 100.122 133.89C101.437 132.177 101.712 131.505 101.957 129.823C101.559 129.731 101.131 129.578 100.703 129.517C96.2995 129.18 91.8959 128.814 87.4922 128.538C84.006 128.294 80.4892 128.049 77.0029 128.018C71.7736 127.988 66.6054 128.691 61.529 130.098C57.3394 131.229 54.0366 133.492 51.4678 137.04C44.6788 146.398 40.0611 156.673 37.6146 167.957C36.7584 171.963 36.0856 176.031 35.5963 180.098C34.8929 185.602 36.7889 190.404 40.0611 194.716C40.9785 195.939 42.0183 197.07 42.9969 198.232C44.1284 199.547 44.6788 201.046 44.6788 202.82C44.6788 206.52 44.9541 210.22 44.8929 213.92C44.8012 219.853 44.5259 225.786 44.2813 231.719C44.2201 233.401 43.9143 235.052 43.7308 236.703C43.7002 237.04 43.6085 237.407 43.4862 237.743C43.0886 238.997 42.4158 239.945 41.0091 240.098C39.5106 240.251 38.1039 239.578 37.4923 238.202C37.1559 237.498 36.9418 236.642 36.9113 235.878C36.7889 230.954 36.7278 226.031 36.6666 221.107C36.6666 219.731 36.7889 218.385 36.8195 217.009C36.8195 216.52 36.7278 216.061 36.636 215.48C35.8103 215.694 35.7186 216.306 35.4739 216.764C34.0978 219.333 33.3944 222.147 32.844 224.991C32.0489 229.18 31.2232 233.339 30.4281 237.529C29.7553 241.015 29.1437 244.501 28.4709 247.988C28.3792 248.477 28.2568 248.997 28.0733 249.456C27.4617 251.107 26.2997 251.871 24.7094 251.657C22.844 251.413 21.4373 250.281 21.4067 248.63C21.3761 246.459 21.4984 244.257 21.8654 242.116C22.9663 235.725 24.1896 229.333 25.4128 222.972C25.6575 221.688 25.6575 220.465 25.2905 219.211C25.1987 218.905 24.9541 218.63 24.6483 218.11C24.3119 218.752 24.0367 219.15 23.8532 219.578C21.8348 224.104 20.6727 228.875 19.633 233.706C19.2049 235.694 18.7461 237.651 18.3792 239.67C18.1039 241.657 17.8593 243.676 17.5841 245.664C17.5229 246.214 17.5229 246.795 17.37 247.315C17.0336 248.538 16.2079 249.18 14.9541 249.241C11.8043 249.394 9.8165 247.712 9.75534 244.654C9.66359 240.098 10.3058 235.664 11.529 231.29C12.6911 227.101 13.8226 222.881 14.8929 218.66C15.1682 217.59 15.2905 216.459 15.4434 215.358C15.5657 214.349 15.2599 213.768 14.6483 213.584C13.9755 213.401 13.3027 213.829 12.9663 214.777C12.7523 215.388 12.7217 216.061 12.5382 216.703C10.8563 221.963 9.1743 227.254 7.49234 232.514C7.27828 233.186 6.94188 233.829 6.57491 234.44C5.84097 235.664 4.74005 236.092 3.33333 235.939C1.98776 235.786 1.1315 235.082 0.703363 233.767C0.581039 233.37 0.244648 233.034 0 232.667C0 232.055 0 231.443 0 230.832C0.214067 230.404 0.61162 229.975 0.61162 229.517C0.795106 225.572 1.65137 221.78 2.84403 218.049C5.29051 210.342 6.97247 202.453 8.89907 194.624C10.1835 189.333 11.7737 184.165 13.9755 179.18C15.107 176.612 15.6269 173.859 15.6575 171.046C15.688 168.355 15.7186 165.664 15.6575 163.003C15.5046 155.541 16.6055 148.232 18.1651 140.985C19.266 135.969 20.7339 131.077 22.3853 126.214C25.1987 117.927 30.5198 111.81 38.1651 107.621C45.0458 103.859 52.4464 101.627 60.1528 100.22C69.5106 98.5078 78.9295 98.5078 88.3791 98.6912C94.4647 98.8136 100.55 99.0888 106.636 99.3335C111.468 99.5475 116.238 100.037 120.948 101.138C122.14 101.413 123.303 101.78 124.434 102.239C128.838 104.012 131.529 107.315 132.783 111.872C133.394 114.073 133.914 116.306 134.801 118.385C137.706 125.205 142.966 129.67 149.694 132.422C152.232 133.462 154.893 134.135 157.462 135.083C167.706 138.814 175.932 145.205 182.079 154.196C184.679 157.988 186.88 162.086 189.296 166.031C194.281 174.104 199.235 182.208 204.281 190.251C207.278 195.083 210.367 199.853 213.486 204.624C214.495 206.153 215.565 207.651 216.819 208.966C218.807 211.076 220.764 211.382 223.272 209.975C224.77 209.15 226.177 208.11 227.461 206.979C236.758 198.844 244.312 189.242 250.734 178.752C254.097 173.248 257.064 167.529 260.244 161.933C262.018 158.813 262.018 155.755 260.152 152.697C259.296 151.321 258.44 149.945 257.523 148.599C255.871 146.184 254.617 143.615 254.587 140.587C254.587 139.486 254.128 138.416 253.945 137.315C253.486 134.379 253.608 131.443 253.853 128.508C254.281 123.615 254.984 118.722 254.831 113.798C254.801 113.248 254.862 112.667 254.893 112.116C255.045 110.159 255.963 109.058 257.737 108.63C259.449 108.233 261.162 108.905 262.079 110.404C262.997 111.902 263.486 113.584 263.486 115.327C263.486 117.896 263.425 120.495 263.058 123.064C262.446 127.59 262.079 132.147 262.324 136.734C262.415 138.385 262.721 140.067 262.935 141.719C262.966 141.933 263.149 142.147 263.394 142.606C263.822 141.933 264.189 141.474 264.464 140.985C266.208 137.621 267.278 134.012 267.675 130.251C268.287 124.746 268.776 119.242 269.235 113.737C269.602 109.456 269.816 105.144 270.152 100.832C270.214 99.9756 270.305 99.0888 270.642 98.2937C270.978 97.468 271.437 96.6117 272.079 96.0307C273.761 94.5017 275.749 94.8686 276.972 96.7341C277.798 97.9573 278.042 99.2417 277.981 100.771C277.828 106.245 277.92 111.749 277.737 117.223C277.614 121.321 277.828 125.45 276.972 129.517C276.819 130.19 276.666 131.015 277.461 131.78C277.828 131.229 278.195 130.771 278.44 130.22C279.143 128.691 279.449 127.07 279.602 125.358C279.785 123.095 280.275 120.862 280.519 118.599C280.764 116.428 280.917 114.257 281.07 112.086C281.223 109.853 281.284 107.621 281.467 105.419C281.681 102.789 281.987 100.159 282.293 97.5598C282.415 96.52 282.599 95.4497 282.935 94.4405C283.425 93.0643 284.495 92.3916 285.963 92.3304C287.492 92.2998 288.837 92.6668 289.51 94.1653C289.908 95.0215 290.183 96.0001 290.214 96.9481C290.275 101.321 290.336 105.694 290.183 110.037C290.122 111.688 289.541 113.309 289.174 114.93C287.951 120.71 287.156 126.52 287.247 132.422C287.247 132.973 287.308 133.523 287.37 134.073C287.4 134.318 287.553 134.532 287.645 134.777C288.44 134.716 288.532 134.104 288.746 133.615C289.877 131.046 290.519 128.324 290.764 125.541C291.131 121.719 291.315 117.866 291.743 114.012C291.957 112.055 292.538 110.159 293.027 108.233C293.211 107.529 293.608 106.918 294.373 106.703C295.626 106.337 296.574 106.918 296.911 108.202C297.033 108.691 297.217 109.119 297.37 109.609C297.37 113.37 297.37 117.132 297.37 120.893C297.217 121.474 297.003 122.025 296.941 122.636C296.544 126.826 296.177 131.015 295.81 135.205C295.657 136.765 295.504 138.324 295.29 139.884C294.617 144.807 292.263 148.875 288.837 152.391C286.789 154.502 284.74 156.612 282.782 158.844C277.186 165.174 272.415 172.147 267.798 179.211C261.773 188.416 255.81 197.713 249.266 206.581C242.201 216.153 234.862 225.48 226.238 233.737C222.568 237.254 218.562 240.373 213.883 242.544C212.171 243.339 210.397 243.859 208.471 243.982C205.046 244.196 202.14 243.034 199.786 240.648C198.257 239.089 196.88 237.407 195.627 235.602C189.205 226.397 182.905 217.101 176.391 207.957C172.966 203.125 169.205 198.508 165.535 193.829C164.128 192.024 162.354 190.557 160.397 189.333C156.728 187.04 153.302 187.284 150.03 190.098C148.073 191.78 146.575 193.798 145.229 195.969C140.428 203.737 137.278 212.177 135.382 221.076C134.067 227.223 133.211 233.462 133.18 239.792C133.15 244.196 134.954 247.743 138.226 250.587C140.428 252.514 142.997 253.829 145.749 254.807C152.416 257.162 159.266 258.783 166.238 259.945C171.131 260.771 176.055 261.413 181.009 262.024C184.74 262.483 188.501 262.636 192.232 263.064C197.186 263.615 202.171 263.584 207.125 263.706C211.192 263.798 215.229 264.196 219.143 265.358C229.633 269.15 227.938 266.153 236.348 275.694H60.1834ZM101.957 144.685C101.59 144.93 101.407 144.991 101.254 145.113C101.04 145.327 100.826 145.541 100.642 145.786C98.9907 148.049 99.0212 150.465 100.428 152.789C101.498 154.563 102.783 156.214 104.067 157.865C108.44 163.339 113.608 167.835 119.847 171.046C125.229 173.829 130.978 175.358 137.033 175.847C140.764 176.153 144.434 176.031 148.104 175.541C150.917 175.174 153.731 174.685 156.544 174.44C159.449 174.196 162.293 174.746 164.434 176.887C165.565 178.018 166.452 179.425 167.309 180.801C168.929 183.431 170.397 186.183 172.018 188.813C176.513 196.092 181.59 202.911 186.666 209.792C192.263 217.345 197.798 224.93 202.721 232.942C203.119 233.584 203.578 234.226 204.067 234.777C205.504 236.397 207.247 237.07 209.388 236.459C210.917 236.03 212.324 235.358 213.547 234.318C214.801 233.278 215.627 231.933 215.81 230.312C215.932 229.211 215.963 228.049 215.779 226.979C215.046 222.208 213.425 217.743 210.489 213.859C210.03 213.248 209.633 212.605 209.266 211.933C207.156 207.865 204.801 203.951 201.804 200.465C201.498 200.128 201.253 199.731 201.009 199.333C192.171 185.052 183.027 170.954 174.832 156.275C174.434 155.572 173.945 154.899 173.364 154.349C172.507 153.492 171.559 153.462 170.642 154.257C170 154.807 169.419 155.48 168.929 156.184C165.902 160.74 161.773 163.921 156.728 165.878C149.786 168.569 142.599 169.425 135.199 168.661C128.134 167.957 121.835 165.358 116.177 161.168C110.764 157.132 106.575 152.025 102.997 146.336C102.722 145.755 102.355 145.266 101.957 144.685ZM86.0243 178.049C85.8714 178.538 85.7797 178.783 85.7491 179.028C85.535 181.076 84.7399 182.942 83.7308 184.716C82.6298 186.673 81.8347 188.783 81.4678 190.985C80.9785 193.829 80.5809 196.673 80.1834 199.547C79.7552 202.544 80.5197 205.174 82.7827 207.284C83.4861 207.957 84.22 208.569 84.9846 209.15C90.3057 213.339 96.2995 216.275 102.446 218.966C105.137 220.128 107.737 221.413 110.764 221.688C114.189 221.994 117.553 222.819 120.978 223.186C125.137 223.645 128.287 222.514 129.663 217.927C130.825 214.043 132.049 210.159 133.18 206.275C133.853 203.982 133.333 203.064 131.009 202.33C130.764 202.238 130.52 202.177 130.275 202.116C128.012 201.566 125.749 201.046 123.486 200.495C120.275 199.7 117.125 198.936 114.159 197.376C110.856 195.633 107.4 194.135 104.006 192.514C102.446 191.78 100.764 191.168 99.4188 190.128C95.1375 186.795 90.8255 183.492 87.3087 179.303C86.9723 178.875 86.5442 178.538 86.0243 178.049ZM107.706 136.489C107.645 137.07 107.492 137.499 107.523 137.927C107.584 138.875 107.706 139.853 107.859 140.801C108.96 147.009 112.11 151.933 117.186 155.602C121.529 158.722 126.422 160.679 131.529 162.086C135.841 163.278 140.244 163.615 144.648 163.156C151.437 162.453 157.431 159.67 162.66 155.297C163.731 154.41 164.74 153.309 165.474 152.116C167.033 149.609 166.33 146.795 163.7 145.511C161.773 144.563 159.602 144.043 157.553 143.37C157.492 143.339 157.37 143.462 157.186 143.523C157.156 143.798 157.095 144.165 157.125 144.502C157.247 145.572 157.431 146.612 157.553 147.682C157.737 149.303 157.89 150.893 158.012 152.514C158.073 153.309 157.859 154.012 157.186 154.532C155.443 155.878 153.211 155.113 152.721 152.973C152.63 152.575 152.569 152.177 152.477 151.78C151.926 149.15 151.437 146.52 150.795 143.921C150.367 142.116 149.296 140.71 147.614 139.853C147.278 139.7 146.911 139.67 146.361 139.517C146.33 140.373 146.269 141.015 146.269 141.658C146.238 146.184 146.269 150.679 146.177 155.205C146.116 157.59 144.954 158.477 142.599 158.171C141.468 158.018 140.764 157.376 140.581 156.214C140.489 155.602 140.489 154.991 140.489 154.379C140.489 149.058 140.489 143.706 140.52 138.385C140.52 137.927 140.52 137.468 140.489 137.009C140.458 136.367 140.214 135.969 139.51 135.878C138.838 135.786 138.287 135.847 138.043 136.581C137.92 136.917 137.767 137.254 137.645 137.56C135.78 142.483 133.914 147.437 132.049 152.361C131.804 153.034 131.498 153.676 131.131 154.287C130.764 154.93 130.183 155.327 129.419 155.388C127.095 155.602 125.566 153.706 126.299 151.535C126.361 151.352 126.452 151.168 126.514 150.954C127.431 148.691 128.348 146.428 129.235 144.165C130.489 140.954 131.682 137.713 132.171 134.257C132.385 132.667 132.355 131.077 132.263 129.425C131.345 129.395 131.131 130.006 130.887 130.434C128.073 135.205 125.29 139.976 122.477 144.746C122.049 145.48 121.621 146.245 121.101 146.917C120.183 148.11 119.205 148.294 117.89 147.59C116.789 147.009 115.718 145.847 116.422 144.379C116.666 143.89 116.85 143.34 117.125 142.85C118.654 140.098 120.306 137.407 121.712 134.593C123.241 131.566 124.587 128.447 125.994 125.327C126.208 124.807 126.269 124.226 126.391 123.676C126.269 123.584 126.177 123.523 126.055 123.431C125.474 123.768 124.832 124.043 124.312 124.471C122.905 125.541 121.957 126.979 121.07 128.477C120.03 130.22 119.052 132.025 117.92 133.706C116.238 136.245 113.853 137.468 110.764 137.009C110.214 136.917 109.663 136.765 109.144 136.673C108.715 136.673 108.287 136.581 107.706 136.489ZM89.9999 169.731C89.8775 172.33 90.2751 174.196 91.7736 175.847C95.168 179.517 98.8683 182.82 102.997 185.602C110.092 190.404 117.92 193.553 126.208 195.572C128.165 196.061 130.122 196.581 132.202 196.52C136.575 196.367 139.755 192.33 138.899 188.018C138.471 185.969 137.125 184.93 135.229 184.379C128.715 182.514 122.416 180.19 116.514 176.856C110.856 173.676 105.78 169.761 101.498 164.838C100.397 163.584 99.3882 162.239 98.2567 160.985C96.5136 159.058 94.0977 159.211 92.5687 161.321C92.0794 162.024 91.6512 162.789 91.3454 163.584C90.4892 165.725 89.9693 167.927 89.9999 169.731ZM74.1589 105.144C72.1711 105.022 70.214 105.052 68.3179 105.878C67.3699 106.275 66.8195 106.826 66.9112 107.927C67.0641 109.731 67.0335 111.566 67.2782 113.37C67.5228 115.297 68.1344 117.132 69.6635 118.508C70.9479 119.67 72.5075 120.312 74.1895 120.526C76.6054 120.832 79.0213 120.985 81.4678 121.138C84.4035 121.291 87.3393 121.352 90.2751 121.413C94.6482 121.505 98.9601 122.025 103.241 122.911C104.618 123.187 106.055 123.187 107.186 122.239C108.96 120.74 110.611 119.089 112.293 117.468C112.446 117.346 112.569 117.162 112.63 116.979C113.639 114.96 115.107 113.278 116.636 111.658C117.217 111.015 117.553 110.098 117.92 109.272C118.196 108.661 117.92 108.171 117.278 107.957C116.422 107.682 115.535 107.407 114.648 107.223C111.345 106.551 108.012 106.367 104.679 106.306C103.884 106.275 103.058 106.245 102.263 106.061C99.2353 105.388 96.1772 104.96 93.058 105.052C90.1222 105.144 87.1864 105.327 84.2506 105.327C80.8256 105.388 77.4922 105.236 74.1589 105.144ZM126.147 230.587C125.26 230.251 124.648 229.945 124.006 229.792C120.55 229.027 117.064 228.232 113.578 227.621C106.33 226.367 99.3882 224.165 92.9356 220.587C89.0824 218.446 85.3821 216 81.6207 213.706C81.0702 213.37 80.5197 213.034 79.847 212.605C78.8072 214.501 78.532 216.336 78.9907 218.294C79.5106 220.434 81.009 221.78 82.7522 222.911C87.2781 225.816 91.957 228.508 96.9417 230.526C101.774 232.514 106.789 233.737 112.018 233.798C116.514 233.859 120.887 233.034 125.076 231.321C125.382 231.229 125.627 230.985 126.147 230.587ZM28.1651 173.645C28.5321 173.003 28.7767 172.636 28.9602 172.239C31.4678 166.52 33.9143 160.801 36.4831 155.113C37.4617 152.942 37.4617 150.801 36.9113 148.599C36.5137 147.009 34.9235 145.817 33.1804 145.725C31.5596 145.633 30.5198 146.52 29.8165 147.865C29.6636 148.141 29.5412 148.416 29.4189 148.691C27.7675 152.575 26.422 156.52 25.9633 160.771C25.5351 164.746 26.0856 168.538 27.4006 172.269C27.5535 172.667 27.8287 173.003 28.1651 173.645ZM89.3577 235.602C89.4188 233.89 88.8989 232.789 87.7063 232.238C86.5748 231.719 85.3515 231.321 84.1283 231.076C82.9662 230.832 82.2934 231.474 82.1711 232.636C82.11 233.339 82.1405 234.073 82.0488 234.746C81.2231 240.067 80.3668 245.358 79.6023 250.679C79.48 251.443 79.6329 252.3 79.847 253.064C80.2751 254.44 82.0488 255.388 83.8225 255.297C85.1681 255.235 85.7185 254.624 86.1161 252.728C86.9112 248.905 87.7063 245.082 88.4402 241.26C88.8072 239.272 89.0824 237.254 89.3577 235.602ZM26.8195 208.079C28.5321 207.957 29.9082 207.896 31.2538 207.712C32.4158 207.56 33.5168 207.193 34.3425 206.214C36.0244 204.257 35.2905 201.841 32.844 201.138C31.9266 200.862 31.0091 200.618 30.1223 200.22C28.0428 199.272 26.0244 198.263 23.9449 197.315C23.0581 196.917 22.1712 196.581 21.2232 196.367C19.633 195.969 18.3792 196.55 17.6758 197.988C16.1468 201.138 16.5443 204.746 20.214 206.703C20.8257 207.04 21.4984 207.346 22.2018 207.437C23.8226 207.743 25.5045 207.896 26.8195 208.079ZM35.1987 124.777C35.1987 128.171 36.7278 130.098 39.6635 130.985C42.4464 131.81 46.8807 129.976 47.8287 126.153C48.1651 124.838 48.2874 123.431 48.1956 122.116C48.0122 119.792 46.9112 117.896 44.5259 117.254C41.7431 116.489 39.1742 117.04 37.1253 119.211C35.6574 120.71 35.1681 122.697 35.1987 124.777ZM94.5258 257.743C97.2781 257.774 98.2567 256.856 98.5625 254.287C98.9601 251.076 99.48 247.865 99.8775 244.654C100.092 242.942 100.244 241.229 100.306 239.517C100.367 238.324 99.6634 237.498 98.5625 237.101C97.4005 236.673 96.1772 236.459 95.0763 237.315C94.7399 237.59 94.4647 238.018 94.3424 238.446C94.1589 239.058 94.0977 239.731 94.0365 240.404C93.9754 240.954 94.006 241.535 93.9142 242.055C93.3943 244.777 92.8133 247.529 92.324 250.251C92.0182 251.841 91.743 253.431 91.5901 255.052C91.4372 256.703 92.1711 257.498 93.7919 257.743C94.0977 257.743 94.4341 257.743 94.5258 257.743ZM108.593 239.425C106.758 239.364 106.116 239.914 105.871 241.688C105.474 244.654 105.321 247.651 104.465 250.526C104.312 251.046 104.22 251.627 104.189 252.177C104.128 253.034 104.312 253.798 104.954 254.41C106.758 256.122 110.122 255.174 110.703 252.758C110.887 252.024 110.948 251.26 111.009 250.495C111.223 247.712 111.376 244.96 111.59 242.177C111.712 240.679 111.009 239.761 109.511 239.517C109.205 239.456 108.899 239.456 108.593 239.425ZM117.767 249.425C120.367 248.477 122.569 247.468 124.251 245.664C125.627 244.165 126.177 242.361 125.688 240.342C125.413 239.241 124.954 238.783 123.853 238.936C122.202 239.15 120.581 239.517 118.991 239.975C117.92 240.312 117.248 241.199 117.125 242.361C117.033 243.156 117.064 243.951 117.156 244.746C117.339 246.183 117.553 247.682 117.767 249.425Z" fill="#FFCF6E"/>
<path d="M150.245 49.0278C148.624 48.4774 147.462 48.9361 146.789 50.3122C146.422 51.0767 146.177 51.933 145.872 52.7281C144.587 56.1532 143.18 59.5171 142.018 62.9727C140.734 66.8565 139.664 70.8321 138.502 74.777C138.226 75.7556 137.951 76.7342 137.554 77.6516C137.003 78.9972 135.963 79.7617 134.465 79.7005C132.508 79.6394 130.52 79.5782 128.563 79.3336C126.942 79.1195 125.719 78.1103 124.771 76.7342C123.395 74.7158 124.067 72.0859 125.994 70.4651C126.3 70.2204 126.85 70.1593 127.278 70.1287C128.196 70.0675 129.113 70.1287 130.031 70.0981C130.52 70.0675 130.979 69.9758 131.682 69.884C131.437 69.3336 131.376 68.936 131.162 68.6302C130.52 67.7128 129.572 67.2235 128.502 67.0094C127.339 66.7648 126.453 66.1226 125.719 65.2663C124.495 63.8596 124.465 62.6975 125.78 61.0461C126.575 60.0675 127.706 60.1593 128.746 60.4651C130.092 60.8932 131.376 61.5354 132.661 62.0859C133.119 62.3 133.547 62.6058 134.006 62.8198C135.138 63.3091 135.933 63.0951 136.514 62.1776C137.187 61.1379 137.125 59.7923 136.239 59.1501C135.566 58.6608 134.71 58.3856 133.945 58.0186C131.651 56.9483 129.327 55.9391 127.064 54.777C126.147 54.2877 125.352 53.5232 124.618 52.7281C123.547 51.566 123.272 50.1593 123.853 48.6303C124.618 46.6119 126.116 45.9391 128.073 46.826C128.777 47.1318 129.419 47.5599 130.061 47.9575C131.896 49.0584 133.67 50.1899 135.505 51.2908C136.85 52.0859 137.768 51.9636 138.593 50.8932C139.541 49.6394 139.511 48.355 138.349 47.3764C137.737 46.8566 137.003 46.459 136.33 46.0614C134.465 44.93 132.538 43.9208 130.703 42.6975C128.716 41.3826 128.41 39.3031 129.755 37.407C130.306 36.6425 130.979 36.245 131.927 36.245C133.395 36.245 134.74 36.6731 136.024 37.2847C136.82 37.6517 137.554 38.1104 138.349 38.4468C139.083 38.7526 139.878 39.0278 140.642 39.2113C141.376 39.3948 142.232 39.5171 142.752 38.7832C143.303 37.9881 143.089 37.0706 142.569 36.3673C142.141 35.7862 141.498 35.2969 140.856 34.93C139.969 34.4407 138.991 34.1349 138.104 33.6762C135.994 32.5447 134.985 31.2297 135.933 28.0492C136.33 26.7648 137.064 25.5416 137.829 24.4407C138.869 22.9116 140.214 22.6976 141.774 23.7985C143.15 24.7465 144.465 25.8168 145.719 26.8872C147.706 28.5691 149.358 28.1104 150.092 25.6028C150.367 24.7159 150.153 23.9514 149.541 23.3704C148.899 22.7587 148.073 22.3 147.37 21.7496C146.391 21.0156 145.352 20.3734 144.495 19.5477C143.395 18.4162 143.395 17.1318 144.22 15.7863C144.373 15.5416 144.557 15.2664 144.771 15.0523C147.584 12.1166 148.96 12.4529 151.193 14.8994C152.324 16.1227 153.456 17.3459 154.587 18.5997C155.749 19.8841 156.728 20.0982 157.92 19.3337C159.388 18.3857 160.031 16.9483 159.297 15.5722C158.563 14.1349 157.523 12.8505 156.605 11.5355C156.177 10.9239 155.627 10.3429 155.199 9.73123C154.404 8.56916 154.373 7.3765 155.199 6.18384C157.278 3.1869 160 2.63645 163.089 3.24807C164.465 3.52329 165.382 4.59363 165.872 5.87803C166.483 7.5294 166.942 9.24194 167.462 10.9545C167.645 11.5355 167.737 12.1471 167.951 12.6976C168.44 13.9208 169.45 14.5325 170.55 14.3184C171.743 14.1043 172.508 13.3092 172.508 11.9636C172.508 10.7404 172.263 9.54775 172.11 8.35509C171.957 6.94836 171.682 5.54164 171.651 4.13491C171.621 1.87192 172.538 0.740424 174.74 0.251128C176.33 -0.115844 177.982 -0.0852628 179.572 0.373452C181.407 0.893329 182.171 1.78018 182.11 3.64562C182.049 5.57222 181.804 7.46824 181.651 9.39484C181.59 10.0982 181.59 10.8322 181.712 11.5049C181.988 12.8505 182.844 13.4927 184.19 13.4927C185.443 13.4927 186.3 12.8811 186.544 11.5661C186.85 10.037 186.942 8.44683 187.217 6.8872C187.431 5.6028 187.645 4.28782 188.043 3.034C188.654 1.19914 190 0.220547 191.988 0.31229C193.027 0.373452 194.128 0.465195 195.138 0.740424C196.819 1.19914 197.339 1.93308 196.972 3.6762C196.605 5.51106 195.933 7.25417 195.321 9.02787C194.985 10.037 194.434 10.9851 194.159 11.9942C193.639 13.7679 194.281 14.9606 195.994 15.6028C197.584 16.1838 198.868 15.6945 199.572 14.0126C200.03 12.9422 200.245 11.7802 200.581 10.6792C200.979 9.33368 201.284 7.92696 201.835 6.61197C202.569 4.86886 203.608 4.3184 205.474 4.62421C206.3 4.74653 207.156 5.08292 207.89 5.48048C208.96 6.03094 209.541 7.00953 209.48 8.23277C209.449 9.08903 209.358 9.97588 209.052 10.771C207.829 13.7068 207.186 16.7649 206.391 19.823C206.024 21.2908 205.443 22.7282 204.709 24.0431C203.272 26.6425 200.795 27.5905 197.951 26.7648C196.636 26.3979 195.352 25.878 194.128 25.297C191.743 24.196 189.235 23.6456 186.636 23.5844C184.342 23.5233 182.079 23.2786 179.786 23.3704C173.394 23.5538 167.492 25.3275 162.446 29.456C161.346 30.3734 160.367 31.2908 160.703 32.9116C160.734 33.0951 160.856 33.2786 160.917 33.4315C161.651 33.6456 161.988 33.1257 162.416 32.8199C164.924 30.985 167.584 29.3948 170.52 28.3551C177.339 25.9086 184.098 26.2756 190.734 28.9361C199.327 32.3918 206.575 37.774 212.691 44.6853C219.602 52.514 224.037 61.6883 226.789 71.7189C227.584 74.6547 228.257 77.621 228.777 80.618C229.021 82.147 228.96 83.7678 228.715 85.2969C228.165 88.5079 226.208 90.6485 223.211 91.8718C222.324 92.2387 221.468 92.6975 220.673 93.2173C219.021 94.3183 218.104 95.9696 217.982 97.9574C217.89 99.5782 218.012 101.199 217.982 102.82C217.951 104.288 217.951 105.786 217.676 107.193C216.911 111.168 214.037 112.392 210.581 111.872C207.584 111.413 204.801 110.251 202.202 108.722C197.982 106.275 193.823 103.737 189.664 101.199C188.104 100.251 186.514 99.3335 184.679 98.9971C184.312 98.936 183.914 98.9971 183.303 98.9971C183.425 99.6699 183.425 100.251 183.608 100.801C184.19 102.483 185.107 103.951 186.514 105.022C188.134 106.245 189.816 107.407 191.59 108.386C194.923 110.22 198.349 111.872 201.743 113.615C202.049 113.768 202.385 113.921 202.691 114.135C204.404 115.236 204.923 116.581 204.434 118.569C203.7 121.444 201.865 123.34 199.235 124.563C196.208 125.97 192.966 126.275 189.694 125.939C180.581 124.991 172.477 121.444 165.29 115.786C162.752 113.798 160.52 111.505 158.868 108.722C157.462 106.367 156.544 103.86 156.422 101.107C156.239 97.9268 157.339 95.0828 159.113 92.5446C160.398 90.7097 161.896 89.0583 163.364 87.3764C167.156 83.0645 169.113 78.0797 168.868 72.3305C168.746 69.3642 167.859 66.6425 166.055 64.2571C163.945 61.4437 161.04 60.3428 157.615 60.8626C156.391 61.0461 155.138 61.4743 154.006 61.9941C151.407 63.1868 150.031 65.6027 150.428 68.5996C150.673 70.3733 151.315 72.147 151.927 73.829C152.202 74.5323 152.813 75.1746 153.425 75.6944C154.404 76.5813 155.627 76.7036 156.85 76.2143C157.951 75.7862 158.104 74.6853 157.217 73.9513C157.095 73.8596 156.972 73.7984 156.82 73.7067C154.832 72.3917 154.251 70.7097 155.046 68.4773C155.138 68.2021 155.26 67.9269 155.413 67.6516C157.401 63.8596 161.468 63.7373 163.761 67.3764C164.924 69.1807 165.168 71.1684 164.893 73.248C164.587 75.3275 163.792 77.2541 162.508 78.936C160.734 81.2602 158.287 82.0859 155.505 81.7189C150.52 81.0767 146.789 77.5293 145.719 72.5752C145.107 69.8229 145.321 67.0094 145.505 64.2266C145.566 63.3091 145.719 62.4223 145.78 61.5049C145.963 58.9361 146.972 56.5813 147.921 54.2572C148.41 53.0339 149.021 51.8718 149.541 50.6486C149.847 50.1593 150 49.6394 150.245 49.0278ZM193.119 41.8107C192.263 41.9024 191.407 41.9024 190.55 42.0859C184.832 43.248 181.131 46.7954 178.868 51.9942C177.278 55.725 176.789 59.6088 177.553 63.6149C178.716 69.7311 181.712 74.7158 187.034 78.0798C189.664 79.7311 192.538 80.3427 195.627 79.67C199.205 78.9054 202.079 77.04 204.526 74.4406C208.226 70.5262 210.459 65.9085 210.275 60.4651C210.061 55.0217 208.012 50.3122 204.037 46.4896C201.009 43.5844 197.431 41.8413 193.119 41.8107Z" fill="#FFCF6E"/>
<path d="M147.767 83.5842C151.59 83.6148 154.434 86.0919 154.587 89.1194C154.648 90.1286 154.22 91.1989 153.822 92.1469C152.691 94.7769 151.804 97.468 151.651 100.343C151.406 104.471 152.538 108.294 154.77 111.749C155.902 113.492 157.278 115.052 158.531 116.734C159.816 118.477 161.161 120.22 162.293 122.055C163.7 124.318 163.272 126.734 161.376 128.905C159.694 130.862 157.247 131.596 154.923 130.587C146.88 127.101 140.825 121.658 137.95 113.156C135.382 105.541 136.36 98.2325 140.366 91.3518C141.498 89.3946 142.874 87.5598 144.189 85.6943C145.229 84.2264 146.758 83.6148 147.767 83.5842Z" fill="#FFCF6E"/>
<path d="M176.513 182.116C176.544 180.648 178.043 179.395 179.877 178.477C181.498 177.682 183.058 177.927 184.373 179.15C185.26 179.976 186.085 180.893 186.789 181.872C191.039 187.988 195.26 194.135 199.48 200.281C199.633 200.495 199.786 200.679 199.877 200.924C201.039 203.89 203.027 206.336 204.77 208.966C205.902 210.679 206.636 212.544 206.972 214.593C207.125 215.633 207.003 216.489 206.146 217.193C205.779 217.468 205.474 217.835 205.107 218.11C202.874 219.823 200.703 219.761 198.654 217.835C197.951 217.193 197.37 216.398 196.819 215.602C190.611 206.275 184.403 196.948 178.195 187.59C177.309 186.184 176.483 184.716 176.513 182.116Z" fill="#FFCF6E"/>
<path d="M80.9174 106.245C84.0367 106.673 87.1865 107.101 90.3669 107.499C92.9357 107.804 95.474 108.141 98.0733 107.774C99.2354 107.621 100.489 107.866 101.682 107.988C103.853 108.202 106.024 108.386 108.073 109.181C110.764 110.22 111.223 111.077 110.52 113.921C110.489 114.074 110.459 114.227 110.428 114.379C109.786 116.673 109.205 117.04 106.85 116.795C105.688 116.673 104.526 116.612 103.364 116.581C97.6452 116.337 91.9266 116.184 86.2079 115.908C82.2018 115.694 78.2263 115.389 74.2507 114.991C73.2416 114.899 72.2018 114.441 71.2538 113.982C70.3975 113.584 69.9388 112.728 69.8777 111.749C69.7553 109.884 71.1926 107.59 72.9969 107.254C75.5963 106.795 78.2263 106.581 80.9174 106.245Z" fill="#FFCF6E"/>
<path d="M194.159 75.4498C190.428 76.0614 187.706 74.1348 185.229 71.7801C182.507 69.1807 180.826 66.0308 180.428 62.2082C180 57.7128 181.101 53.6455 183.792 50.0676C187.859 44.6547 196.575 43.9513 201.529 48.5997C204.281 51.199 205.902 54.4406 206.666 58.0798C207.981 64.5018 205.566 69.5782 200.734 73.7067C199.205 74.9911 197.431 75.6333 195.382 75.4804C194.985 75.4498 194.556 75.4498 194.159 75.4498ZM193.639 51.6272C191.59 51.5354 189.847 52.2388 188.226 53.4009C183.853 56.6425 182.936 63.3091 186.238 67.6822C188.104 70.1593 190.611 71.5354 193.639 71.5966C196.881 71.6577 199.541 70.1898 201.407 67.5293C203.7 64.2571 204.036 60.7709 202.202 57.1929C200.459 53.7067 197.615 51.7801 193.639 51.6272Z" fill="#FFCF6E"/>
</svg>
