<svg width="234" height="234" viewBox="0 0 234 234" fill="none" xmlns="http://www.w3.org/2000/svg">
<path d="M206.805 188.104C204.914 184.213 202.447 180.645 203.667 176.424C204.626 173.655 206.014 171.053 207.781 168.713C210.728 164.466 213.482 160.106 214.641 155.058C215.722 150.094 216.549 145.077 217.117 140.028C217.334 138.288 217.988 137.574 219.557 137.217C221.928 136.695 224.246 135.964 227.01 135.207C226.635 155.302 217.796 171.925 206.805 188.104Z" fill="#FFCF6E"/>
<path d="M6.00821 134.058C8.9979 135.128 11.7697 136.042 14.4717 137.139C14.8106 137.302 15.1091 137.538 15.3457 137.83C15.5823 138.122 15.7512 138.462 15.8402 138.827C16.684 145.389 18.3866 151.811 20.9043 157.93C21.4186 159.246 22.0214 160.525 22.7086 161.76C25.0794 165.719 27.5984 169.592 29.9083 173.587C30.3586 174.527 30.4784 175.591 30.2482 176.607C29.5247 179.958 28.5921 183.265 27.7379 186.624C21.7585 181.837 7.79505 156.573 6.00821 134.058Z" fill="#FFCF6E"/>
<path d="M27.5549 50.8482C28.0426 53.1081 28.6448 55.3418 29.3591 57.5408C30.5271 60.6565 30.0128 63.3196 28.4003 66.2438C25.0438 71.9401 22.0539 77.844 19.4487 83.9197C17.6096 88.5062 16.8338 93.5626 15.9622 98.4624C15.6659 100.038 15.2475 100.925 13.7221 101.3C11.1944 101.909 8.67539 102.57 6.13896 103.206C6.34815 88.9152 20.791 53.6767 27.5549 50.8482Z" fill="#FFCF6E"/>
<path d="M101.425 8.86475C99.6124 12.0327 98.4444 15.4007 96.1956 17.62C94.4523 19.2649 91.4103 19.8045 88.8478 20.17C80.5709 21.3031 72.6213 24.1456 65.5056 28.5162C63.0214 30.0392 60.5983 31.6406 58.0531 33.0331C57.6721 33.2257 57.2527 33.3304 56.8257 33.3395C56.3988 33.3485 55.9752 33.2617 55.5864 33.0853C53.573 31.7276 51.8297 30.1263 49.9208 28.5945C54.584 21.6147 91.7416 7.16766 101.425 8.86475Z" fill="#FFCF6E"/>
<path d="M49.2148 208.303C51.0313 207.209 52.778 206.003 54.4446 204.692C55.9612 203.343 57.2338 203.595 58.7417 204.509C61.8883 206.432 65.0959 208.277 68.2425 210.192C74.8802 214.215 82.3163 216.745 90.0332 217.607C95.8556 218.321 100.632 223.473 100.571 229.312C82.0665 225.718 64.2678 220.844 49.2148 208.303Z" fill="#FFCF6E"/>
<path d="M206.038 49.2729C217.544 65.4344 225.589 82.1269 227.053 101.987C223.785 101.361 220.83 101.117 218.189 100.09C217.317 99.7505 216.907 97.3398 216.881 95.8689C216.681 86.783 214.449 78.3846 209.289 70.8042C207.267 67.8365 205.515 64.7121 203.789 61.5442C203.334 60.6693 203.189 59.6659 203.38 58.6983C204.068 55.7306 204.984 52.9195 206.038 49.2729Z" fill="#FFCF6E"/>
<path d="M131.592 7.63762C151.178 10.2485 167.965 18.3075 183.977 28.7512C182.129 30.396 180.412 32.0409 178.547 33.4943C178.224 33.6862 177.86 33.8002 177.485 33.8274C177.11 33.8546 176.733 33.7942 176.385 33.651C172.82 31.6406 169.343 29.4735 165.821 27.3761C160.899 24.2989 155.496 22.0661 149.836 20.7705C146.149 20.0046 142.444 19.4041 138.757 18.647C138.039 18.5312 137.39 18.1528 136.935 17.5852C135.122 14.3999 133.44 11.1275 131.592 7.63762Z" fill="#FFCF6E"/>
<path d="M131.069 229.791C133.118 226.467 134.722 223.394 136.796 220.688C137.862 219.347 139.398 218.461 141.093 218.207C151.021 217.607 159.79 214.03 168.026 208.704C170.616 207.136 173.293 205.718 176.045 204.457C176.364 204.311 176.71 204.235 177.061 204.235C177.411 204.235 177.758 204.311 178.076 204.457C179.898 205.649 181.563 207.068 183.306 208.356C177.675 213.691 153.183 227.18 131.069 229.791Z" fill="#FFCF6E"/>
<path d="M105.714 11.5105C106.437 3.18167 116.557 -2.71028 123.46 1.27571C125.831 2.65079 127.818 7.36783 126.947 10.7272C125.904 14.0633 124.687 17.3429 123.303 20.5529C123.155 20.852 122.909 21.0915 122.606 21.2318C119.433 22.7026 111.222 21.8062 109.157 19.1517C107.553 16.976 106.847 14.0779 105.714 11.5105Z" fill="#FFCF6E"/>
<path d="M234 115.869C233.425 122.831 226.33 128.453 219.784 126.617C216.001 125.555 213.395 119.654 213.351 116.582C213.351 115.233 213.482 113.876 213.578 112.518C214.075 105.225 219.88 104.119 225.092 105.251C229.781 106.278 233.895 111.308 234 115.869Z" fill="#FFCF6E"/>
<path d="M41.867 202.951C39.592 202.62 37.7529 202.385 35.9225 202.081C35.4692 202.011 34.8242 201.794 34.6761 201.463C33.4558 198.774 31.6428 196.119 31.329 193.317C30.6404 187.129 33.1507 184.692 39.6792 182.508C44.3163 180.95 49.4676 183.265 50.6792 186.859C52.2481 191.472 51.6118 195.98 50.13 200.436C49.974 200.72 49.7599 200.968 49.5017 201.165C49.2434 201.361 48.9467 201.501 48.6308 201.576C46.2687 202.081 43.9153 202.525 41.867 202.951Z" fill="#FFCF6E"/>
<path d="M41.7973 54.1292C37.6396 53.8507 35.2688 51.0135 32.8631 48.568C31.8718 47.3516 31.1098 45.9657 30.6143 44.4776C28.7141 39.9259 32.5057 34.2428 37.7703 32.946C41.6317 32.0061 45.1182 33.1288 48.6657 33.9817C51.4898 34.6605 51.1498 37.576 51.2021 39.482C51.359 44.5907 50.7663 49.6733 45.6063 52.6062C44.3737 53.2018 43.1009 53.7107 41.7973 54.1292Z" fill="#FFCF6E"/>
<path d="M115.11 213.316H115.615C122.449 213.316 125.386 215.405 126.947 222.072C127.339 223.751 126.598 225.84 125.944 227.581C125.291 229.321 124.114 230.557 123.233 232.071C121.769 234.604 119.215 233.934 117.132 233.882C114.965 233.693 112.834 233.201 110.804 232.419C109.064 231.951 107.581 230.811 106.682 229.251C105.783 227.69 105.541 225.837 106.01 224.099C106.071 223.872 106.144 223.649 106.228 223.429C107.268 220.509 108.479 217.653 109.854 214.874C110.22 214.126 111.414 213.638 112.321 213.369C113.244 213.229 114.182 213.212 115.11 213.316Z" fill="#FFCF6E"/>
<path d="M181.328 192.873C181.807 185.98 186.026 181.019 193.53 182.621C194.916 182.917 196.398 182.856 197.74 183.265C198.682 183.561 199.972 184.213 200.233 185.005C201.105 187.616 202.116 190.323 201.976 192.96C201.819 196.92 200.582 200.593 196.546 202.803C191.717 205.414 183.393 200.749 182.4 196.929C182.007 195.336 181.589 193.804 181.328 192.873Z" fill="#FFCF6E"/>
<path d="M192.092 32.1889C197.069 31.9713 202.604 35.4873 202.979 43.1634C203.214 48.0023 198.35 52.7367 193.321 52.8934C187.812 53.0239 181.833 48.6202 181.85 44.4427C181.885 36.6187 185.659 32.1628 192.092 32.1889Z" fill="#FFCF6E"/>
<path d="M7.77762 128.618C7.35947 128.555 6.93673 128.525 6.51376 128.531C2.15562 128.906 1.96386 127.174 0.9702 124.049C0.329078 121.574 0.00688097 119.026 0.0114096 116.469C-0.284944 110.716 5.24118 106.8 10.837 108.166C15.8315 109.385 18.7427 112.292 19.9455 117.052C21.5406 123.388 16.6508 128.296 10.5755 128.723C9.65162 128.792 8.71026 128.723 7.77762 128.723V128.618Z" fill="#FFCF6E"/>
</svg>
