<svg width="254" height="228" viewBox="0 0 254 228" fill="none" xmlns="http://www.w3.org/2000/svg">
    <path d="M200.483 2.5L250.77 58.3389L127.263 223.826L3.20101 58.2927L50.8826 2.5H200.483Z" stroke="white" stroke-width="5"/>
    <path d="M19 59.0916L58.2667 13H194.667L236 59.0916L127.5 203L19 59.0916Z" fill="white"/>
    <path d="M166.473 107.271C166.136 107.272 165.807 107.174 165.525 106.99C165.243 106.807 165.02 106.545 164.884 106.237C164.748 105.93 164.704 105.589 164.758 105.257C164.812 104.925 164.961 104.615 165.188 104.366C166.192 103.272 167.116 102.108 167.952 100.881C168.077 100.685 168.24 100.516 168.431 100.384C168.622 100.252 168.837 100.16 169.064 100.113C169.292 100.065 169.526 100.064 169.754 100.109C169.982 100.154 170.198 100.244 170.391 100.374C170.583 100.504 170.747 100.672 170.874 100.866C171.001 101.061 171.087 101.279 171.127 101.508C171.168 101.736 171.163 101.971 171.111 102.197C171.06 102.424 170.964 102.638 170.828 102.826C169.898 104.191 168.872 105.488 167.756 106.705C167.593 106.884 167.395 107.026 167.174 107.124C166.953 107.221 166.714 107.272 166.473 107.271Z" fill="#FAA9B2"/>
    <path d="M156.74 115.22C156.445 115.222 156.154 115.149 155.894 115.007C155.635 114.866 155.417 114.66 155.259 114.411C155.137 114.219 155.054 114.005 155.015 113.782C154.976 113.558 154.982 113.329 155.032 113.108C155.082 112.886 155.176 112.677 155.308 112.492C155.439 112.307 155.606 112.15 155.799 112.03C156.308 111.714 156.778 111.424 157.228 111.117C157.621 110.875 158.093 110.8 158.542 110.908C158.99 111.015 159.377 111.296 159.618 111.689C159.859 112.082 159.934 112.554 159.827 113.002C159.72 113.451 159.439 113.838 159.046 114.079C158.596 114.379 158.136 114.668 157.672 114.956C157.392 115.129 157.069 115.22 156.74 115.22Z" fill="#FAA9B2"/>
    <path d="M174.358 92.286C174.236 92.2862 174.115 92.2734 173.995 92.2478C173.772 92.2005 173.56 92.1097 173.372 91.9807C173.184 91.8516 173.024 91.6867 172.899 91.4954C172.775 91.3042 172.689 91.0903 172.648 90.866C172.606 90.6418 172.609 90.4115 172.656 90.1883C173.051 88.3202 173.248 86.4159 173.245 84.5066C173.245 73.5078 166.749 63.3895 155.419 56.7457C155.021 56.5127 154.733 56.1313 154.616 55.6855C154.5 55.2397 154.566 54.766 154.799 54.3685C155.032 53.9711 155.413 53.6825 155.859 53.5662C156.305 53.45 156.778 53.5156 157.176 53.7486C169.413 60.9254 176.718 72.4243 176.718 84.5066C176.72 86.6586 176.498 88.8049 176.055 90.9107C175.972 91.2995 175.758 91.6481 175.45 91.8984C175.141 92.1487 174.756 92.2855 174.358 92.286Z" fill="#FAA9B2"/>
    <path d="M156.714 131.982H143.934C143.473 131.982 143.031 131.799 142.706 131.474C142.38 131.148 142.197 130.706 142.197 130.246V121.18C133.126 123.281 123.694 123.281 114.622 121.18V130.246C114.622 130.706 114.439 131.148 114.113 131.474C113.788 131.799 113.346 131.982 112.886 131.982H100.105C99.6447 131.982 99.203 131.799 98.8774 131.474C98.5517 131.148 98.3688 130.706 98.3688 130.246V114.444C91.4952 110.323 86.0333 104.213 82.7041 96.9231H77.618C76.1904 96.9231 74.8212 96.356 73.8116 95.3465C72.8021 94.337 72.235 92.9678 72.235 91.5401V77.4747C72.2345 76.0453 72.801 74.6741 73.8101 73.6617C74.8192 72.6493 76.1886 72.0785 77.618 72.0743H82.7059C84.8915 67.1629 88.1099 62.7801 92.1418 59.2245L89.2523 41.4431C89.2018 41.1319 89.2368 40.8128 89.3538 40.5201C89.4708 40.2273 89.6653 39.9719 89.9164 39.7813C90.1675 39.5907 90.4658 39.472 90.7792 39.4381C91.0927 39.4041 91.4094 39.4561 91.6955 39.5885L111.358 48.6876C113.365 48.0918 115.402 47.602 117.461 47.2203C117.914 47.1362 118.382 47.2356 118.762 47.4964C119.141 47.7573 119.402 48.1583 119.486 48.6112C119.57 49.0641 119.471 49.5319 119.21 49.9116C118.949 50.2913 118.548 50.5519 118.095 50.6359C115.951 51.0318 113.831 51.5537 111.748 52.1987C111.337 52.3277 110.893 52.2992 110.501 52.1189L93.2028 44.1138L95.7189 59.6239C95.7663 59.9177 95.7374 60.2188 95.6349 60.4983C95.5325 60.7777 95.3599 61.0261 95.1337 61.2197C90.8834 64.7708 87.5694 69.3107 85.4825 74.4411C85.3555 74.767 85.1331 75.047 84.8443 75.2444C84.5555 75.4418 84.2139 75.5473 83.8641 75.5472H77.618C77.1093 75.55 76.6224 75.7545 76.2643 76.1159C75.9062 76.4773 75.7061 76.966 75.7079 77.4747V91.5401C75.7079 92.0467 75.9092 92.5325 76.2674 92.8907C76.6256 93.249 77.1114 93.4502 77.618 93.4502H83.8693C84.2191 93.4501 84.5607 93.5557 84.8495 93.7531C85.1383 93.9504 85.3607 94.2304 85.4877 94.5563C88.6114 101.982 94.1251 108.151 101.154 112.086C101.522 112.304 101.796 112.651 101.924 113.058C102.052 113.466 102.025 113.907 101.849 114.296V128.509H111.156V118.942C111.156 118.674 111.218 118.409 111.337 118.169C111.456 117.93 111.629 117.72 111.843 117.558C112.056 117.397 112.304 117.286 112.567 117.236C112.83 117.186 113.102 117.197 113.36 117.269C123.219 119.95 133.614 119.95 143.473 117.269C143.731 117.197 144.003 117.186 144.266 117.236C144.529 117.286 144.777 117.397 144.99 117.558C145.204 117.72 145.377 117.93 145.496 118.169C145.615 118.409 145.677 118.674 145.677 118.942V128.509H154.984V113.883C154.898 113.513 154.939 113.125 155.101 112.781C155.262 112.437 155.535 112.158 155.875 111.989C156.145 111.853 156.444 111.788 156.745 111.798C157.046 111.808 157.34 111.893 157.6 112.046C157.855 112.196 158.068 112.409 158.219 112.665C158.369 112.92 158.451 113.21 158.457 113.506V130.246C158.457 130.475 158.412 130.701 158.325 130.912C158.237 131.123 158.108 131.315 157.946 131.476C157.784 131.638 157.592 131.765 157.381 131.852C157.169 131.939 156.943 131.983 156.714 131.982Z" fill="#FAA9B2"/>
    <path d="M176.916 86.3402C176.192 86.3461 175.469 86.3061 174.751 86.2204C174.294 86.1585 173.881 85.9178 173.602 85.5512C173.323 85.1847 173.201 84.7224 173.263 84.266C173.325 83.8096 173.566 83.3965 173.933 83.1176C174.299 82.8387 174.761 82.7168 175.218 82.7787C179.003 83.1878 182.812 82.2583 185.984 80.1515C187.239 79.1174 188.27 77.8392 189.017 76.3946C189.763 74.9499 190.208 73.3688 190.325 71.747C190.392 71.2985 190.631 70.894 190.993 70.6199C191.354 70.3458 191.808 70.2238 192.258 70.28C192.708 70.3363 193.118 70.5663 193.4 70.9208C193.683 71.2754 193.816 71.7265 193.77 72.1776C193.605 74.2608 193.016 76.2883 192.039 78.1355C191.062 79.9828 189.718 81.6107 188.088 82.9194C184.828 85.2301 180.911 86.4296 176.916 86.3402Z" fill="#FAA9B2"/>
    <path d="M99.1501 79.6277C97.9481 79.6277 96.773 79.2712 95.7736 78.6034C94.7741 77.9356 93.9951 76.9864 93.5351 75.8759C93.0751 74.7653 92.9548 73.5433 93.1893 72.3644C93.4238 71.1854 94.0026 70.1025 94.8526 69.2525C95.7026 68.4025 96.7855 67.8237 97.9645 67.5892C99.1434 67.3547 100.365 67.475 101.476 67.935C102.586 68.395 103.536 69.174 104.203 70.1735C104.871 71.173 105.228 72.348 105.228 73.55C105.228 75.1619 104.587 76.7078 103.448 77.8476C102.308 78.9874 100.762 79.6277 99.1501 79.6277ZM99.1501 70.9453C98.635 70.9453 98.1314 71.0981 97.703 71.3843C97.2747 71.6705 96.9409 72.0773 96.7437 72.5533C96.5466 73.0292 96.495 73.5529 96.5955 74.0582C96.696 74.5635 96.9441 75.0276 97.3083 75.3918C97.6726 75.7561 98.1367 76.0042 98.642 76.1047C99.1472 76.2052 99.671 76.1536 100.147 75.9565C100.623 75.7593 101.03 75.4255 101.316 74.9971C101.602 74.5688 101.755 74.0652 101.755 73.55C101.755 72.8592 101.48 72.1967 100.992 71.7082C100.503 71.2198 99.8409 70.9453 99.1501 70.9453Z" fill="#FAA9B2"/>
    <path d="M148.138 64.9717C147.751 64.9722 147.376 64.8437 147.071 64.6068C146.765 64.3698 146.548 64.0378 146.453 63.6633C146.357 63.2889 146.39 62.8934 146.545 62.5394C146.699 62.1854 146.968 61.8931 147.308 61.7089C151.046 59.6869 154.003 56.4758 155.712 52.5838C157.42 48.6918 157.781 44.3413 156.738 40.221C155.695 36.1006 153.308 32.4458 149.954 29.835C146.6 27.2242 142.471 25.8066 138.221 25.8066C133.97 25.8066 129.841 27.2242 126.488 29.835C123.134 32.4458 120.746 36.1006 119.703 40.221C118.661 44.3413 119.022 48.6918 120.73 52.5838C122.438 56.4758 125.395 59.6869 129.134 61.7089C129.539 61.9286 129.84 62.3001 129.97 62.7416C130.101 63.1832 130.051 63.6587 129.832 64.0635C129.612 64.4683 129.241 64.7693 128.799 64.9002C128.357 65.0311 127.882 64.9813 127.477 64.7616C123.06 62.3712 119.566 58.5759 117.548 53.9763C115.53 49.3768 115.104 44.2357 116.337 39.3667C117.57 34.4978 120.392 30.179 124.355 27.094C128.319 24.009 133.198 22.334 138.221 22.334C143.243 22.334 148.123 24.009 152.086 27.094C156.05 30.179 158.871 34.4978 160.104 39.3667C161.337 44.2357 160.911 49.3768 158.893 53.9763C156.876 58.5759 153.382 62.3712 148.964 64.7616C148.71 64.8993 148.426 64.9715 148.138 64.9717Z" fill="#FAA9B2"/>
    <path d="M138.221 46.6346C136.847 46.6346 135.504 46.2273 134.362 45.4641C133.219 44.7008 132.329 43.616 131.804 42.3468C131.278 41.0777 131.14 39.6811 131.408 38.3337C131.676 36.9863 132.338 35.7487 133.309 34.7773C134.281 33.8059 135.518 33.1444 136.866 32.8764C138.213 32.6084 139.61 32.7459 140.879 33.2716C142.148 33.7974 143.233 34.6876 143.996 35.8299C144.759 36.9721 145.167 38.315 145.167 39.6888C145.167 40.1493 144.984 40.591 144.658 40.9166C144.332 41.2423 143.891 41.4252 143.43 41.4252C142.969 41.4252 142.528 41.2423 142.202 40.9166C141.877 40.591 141.694 40.1493 141.694 39.6888C141.694 39.0019 141.49 38.3304 141.108 37.7593C140.727 37.1882 140.184 36.7431 139.55 36.4802C138.915 36.2174 138.217 36.1486 137.543 36.2826C136.869 36.4166 136.251 36.7474 135.765 37.233C135.279 37.7187 134.948 38.3376 134.814 39.0112C134.68 39.6849 134.749 40.3832 135.012 41.0178C135.275 41.6524 135.72 42.1948 136.291 42.5764C136.862 42.958 137.534 43.1617 138.221 43.1617C138.681 43.1617 139.123 43.3447 139.449 43.6703C139.774 43.996 139.957 44.4376 139.957 44.8982C139.957 45.3587 139.774 45.8004 139.449 46.126C139.123 46.4517 138.681 46.6346 138.221 46.6346Z" fill="#FAA9B2"/>
    <path d="M138.221 57.0533C136.378 57.0533 134.612 56.3215 133.309 55.0189C132.007 53.7163 131.275 51.9496 131.275 50.1075C131.275 49.6469 131.458 49.2053 131.783 48.8796C132.109 48.554 132.551 48.371 133.011 48.371C133.472 48.371 133.913 48.554 134.239 48.8796C134.565 49.2053 134.748 49.6469 134.748 50.1075C134.748 50.7944 134.951 51.4658 135.333 52.0369C135.715 52.6081 136.257 53.0532 136.892 53.316C137.526 53.5789 138.224 53.6477 138.898 53.5137C139.572 53.3797 140.191 53.0489 140.676 52.5632C141.162 52.0775 141.493 51.4587 141.627 50.785C141.761 50.1113 141.692 49.413 141.429 48.7784C141.166 48.1439 140.721 47.6015 140.15 47.2198C139.579 46.8382 138.908 46.6346 138.221 46.6346C137.76 46.6346 137.318 46.4516 136.993 46.126C136.667 45.8003 136.484 45.3586 136.484 44.8981C136.484 44.4375 136.667 43.9959 136.993 43.6702C137.318 43.3446 137.76 43.1616 138.221 43.1616C140.063 43.1616 141.83 43.8934 143.132 45.196C144.435 46.4986 145.166 48.2653 145.166 50.1075C145.166 51.9496 144.435 53.7163 143.132 55.0189C141.83 56.3215 140.063 57.0533 138.221 57.0533Z" fill="#FAA9B2"/>
    <path d="M138.221 58.7895C137.76 58.7895 137.318 58.6065 136.993 58.2809C136.667 57.9552 136.484 57.5135 136.484 57.053V55.3165C136.484 54.856 136.667 54.4143 136.993 54.0887C137.318 53.763 137.76 53.5801 138.221 53.5801C138.681 53.5801 139.123 53.763 139.448 54.0887C139.774 54.4143 139.957 54.856 139.957 55.3165V57.053C139.957 57.5135 139.774 57.9552 139.448 58.2809C139.123 58.6065 138.681 58.7895 138.221 58.7895Z" fill="#FAA9B2"/>
    <path d="M138.221 36.2157C137.76 36.2157 137.318 36.0328 136.993 35.7071C136.667 35.3815 136.484 34.9398 136.484 34.4793V32.7428C136.484 32.2823 136.667 31.8406 136.993 31.5149C137.318 31.1893 137.76 31.0063 138.221 31.0063C138.681 31.0063 139.123 31.1893 139.448 31.5149C139.774 31.8406 139.957 32.2823 139.957 32.7428V34.4793C139.957 34.9398 139.774 35.3815 139.448 35.7071C139.123 36.0328 138.681 36.2157 138.221 36.2157Z" fill="#FAA9B2"/>
    <path d="M155.585 64.9751H120.856C120.395 64.9751 119.954 64.7922 119.628 64.4665C119.302 64.1409 119.12 63.6992 119.12 63.2387C119.12 62.7781 119.302 62.3364 119.628 62.0108C119.954 61.6851 120.395 61.5022 120.856 61.5022H155.585C156.046 61.5022 156.487 61.6851 156.813 62.0108C157.139 62.3364 157.322 62.7781 157.322 63.2387C157.322 63.6992 157.139 64.1409 156.813 64.4665C156.487 64.7922 156.046 64.9751 155.585 64.9751Z" fill="#FAA9B2"/>
</svg>
