<svg width="254" height="229" viewBox="0 0 254 229" fill="none" xmlns="http://www.w3.org/2000/svg">
    <path d="M127.263 224.814L3.19557 58.5477L50.8858 2.5H200.48L250.775 58.5938L127.263 224.814Z" stroke="white" stroke-width="5"/>
    <path d="M19 60.0916L58.2667 14H194.667L236 60.0916L127.5 204L19 60.0916Z" fill="white"/>
    <path d="M97.6643 99.9692C89.1226 91.9164 83.7812 80.5041 83.7812 67.8665C83.7812 57.8076 87.0776 48.3335 93.3142 40.4683C99.3638 32.8389 107.872 27.3555 117.27 25.0281C118.473 24.7307 119.691 25.4641 119.989 26.6675C120.287 27.8709 119.553 29.088 118.35 29.3858C100.64 33.7714 88.271 49.5952 88.271 67.8663C88.271 89.7244 106.054 107.507 127.912 107.507C149.77 107.507 167.553 89.7246 167.553 67.8665C167.553 49.5955 155.184 33.7716 137.474 29.3861C136.271 29.0882 135.537 27.8711 135.835 26.6677C136.133 25.4643 137.35 24.73 138.553 25.0284C147.952 27.3559 156.46 32.8394 162.509 40.4688C168.746 48.3339 172.042 57.808 172.042 67.8667C172.042 80.5044 166.701 91.9168 158.159 99.9694L169.911 122.445C170.484 123.541 170.063 124.895 168.969 125.471L168.888 125.514C168.386 125.778 167.802 125.843 167.255 125.695L150.967 121.285L145.292 137.177C144.992 138.017 144.223 138.599 143.334 138.661C143.281 138.665 143.229 138.667 143.177 138.667C142.346 138.667 141.578 138.206 141.189 137.462L127.912 112.069L114.635 137.462C114.245 138.206 113.477 138.667 112.646 138.666C112.594 138.666 112.542 138.665 112.49 138.661C111.6 138.599 110.831 138.016 110.531 137.177L104.856 121.285L88.5688 125.695C88.0211 125.843 87.4375 125.778 86.9356 125.514L86.8547 125.471C85.7607 124.894 85.3393 123.541 85.9122 122.445L97.6643 99.9692ZM142.79 130.835L147.437 117.821C147.831 116.718 149.007 116.103 150.138 116.41L163.594 120.053L154.651 102.949C148.447 107.689 140.954 110.822 132.798 111.725L142.79 130.835ZM105.686 116.41C106.816 116.104 107.993 116.718 108.387 117.821L113.034 130.835L123.026 111.725C114.869 110.822 107.377 107.689 101.173 102.949L92.2295 120.053L105.686 116.41Z" fill="#FAA9B2"/>
    <path d="M160.818 67.8667C160.818 86.0114 146.057 100.773 127.912 100.773C109.767 100.773 95.0049 86.0116 95.0049 67.8667C95.0049 49.7218 109.767 34.96 127.912 34.96C146.056 34.96 160.818 49.7218 160.818 67.8667ZM99.4944 67.8667C99.4944 83.5361 112.242 96.284 127.912 96.284C143.581 96.284 156.329 83.5361 156.329 67.8667C156.329 52.1973 143.581 39.4494 127.912 39.4494C112.242 39.4494 99.4944 52.1973 99.4944 67.8667Z" fill="#FAA9B2"/>
    <path d="M131.301 53.6189L134.078 58.9847C134.402 59.611 135.011 60.0532 135.706 60.1679L141.668 61.1509C143.081 61.3839 144.233 62.3747 144.676 63.7368C145.119 65.0989 144.769 66.5782 143.762 67.5973L139.517 71.8965C139.022 72.3982 138.789 73.1138 138.895 73.8108L139.803 79.7842C140.018 81.2002 139.431 82.6027 138.273 83.4447C137.114 84.2865 135.599 84.4104 134.319 83.7684L128.918 81.0597C128.288 80.7436 127.536 80.7434 126.905 81.0597L121.505 83.7684C120.961 84.0412 120.375 84.1756 119.792 84.1756C119.002 84.1756 118.217 83.9289 117.551 83.4447C116.392 82.6027 115.806 81.2002 116.021 79.7845L116.928 73.811C117.034 73.114 116.802 72.3982 116.306 71.8967L112.061 67.5976C111.055 66.5784 110.705 65.0992 111.147 63.7371C111.59 62.375 112.743 61.3841 114.156 61.1511L120.117 60.1681C120.813 60.0534 121.421 59.6112 121.746 58.9849L124.523 53.6191C125.181 52.347 126.48 51.5569 127.912 51.5569C129.344 51.5567 130.643 52.3468 131.301 53.6189ZM120.847 64.5977L116.17 65.369L119.501 68.7424C120.987 70.2475 121.685 72.3943 121.367 74.4851L120.655 79.1721L124.893 77.0468C125.838 76.5725 126.875 76.3354 127.912 76.3354C128.949 76.3354 129.986 76.5727 130.931 77.0468L135.169 79.1721L134.457 74.4853C134.139 72.3943 134.837 70.2475 136.323 68.7422L139.654 65.369L134.976 64.5977C132.89 64.2536 131.064 62.9267 130.091 61.0483L127.912 56.8381L125.733 61.0483C124.761 62.9265 122.934 64.2536 120.847 64.5977Z" fill="#FAA9B2"/>
    <path d="M127.912 28.2258C126.672 28.2258 125.667 27.2208 125.667 25.9811C125.667 24.7413 126.672 23.7363 127.912 23.7363C129.151 23.7363 130.156 24.7413 130.156 25.9811C130.156 27.2208 129.151 28.2258 127.912 28.2258Z" fill="#FAA9B2"/>
</svg>
