<svg width="254" height="229" viewBox="0 0 254 229" fill="none" xmlns="http://www.w3.org/2000/svg">
    <path d="M127.263 224.814L3.19557 58.5477L50.8858 2.5H200.48L250.775 58.5938L127.263 224.814Z" stroke="white" stroke-width="5"/>
    <path d="M18 60.0916L57.2667 14H193.667L235 60.0916L126.5 204L18 60.0916Z" fill="white"/>
    <path fill-rule="evenodd" clip-rule="evenodd" d="M132.565 38.7622C122.364 38.766 112.616 42.5384 105.088 49.1922C104.838 49.4026 104.632 49.661 104.483 49.9523C104.334 50.2436 104.244 50.5618 104.22 50.8883C104.195 51.2148 104.236 51.5429 104.34 51.8533C104.444 52.1637 104.609 52.4501 104.825 52.6957C105.041 52.9413 105.303 53.1411 105.598 53.2833C105.892 53.4255 106.211 53.5074 106.538 53.5239C106.864 53.5405 107.19 53.4914 107.497 53.3797C107.804 53.268 108.086 53.0959 108.325 52.8734C114.969 47.0009 123.567 43.6738 132.565 43.6704C152.876 43.6611 169.291 60.1227 169.291 80.4825C169.291 100.842 152.877 117.296 132.565 117.295C123.553 117.294 114.939 113.972 108.287 108.092C108.047 107.869 107.766 107.697 107.459 107.585C107.152 107.473 106.826 107.424 106.499 107.441C106.173 107.458 105.854 107.539 105.559 107.682C105.265 107.824 105.002 108.024 104.786 108.269C104.57 108.515 104.406 108.801 104.302 109.112C104.198 109.422 104.157 109.75 104.181 110.076C104.206 110.403 104.295 110.721 104.445 111.013C104.594 111.304 104.799 111.562 105.05 111.773C112.588 118.436 122.352 122.202 132.565 122.203C155.524 122.205 174.188 103.495 174.188 80.4825C174.188 57.4701 155.525 38.7536 132.565 38.7622Z" fill="#FAA9B2"/>
    <path d="M73.8067 78.0315C73.1571 78.0315 72.5342 78.2901 72.075 78.7505C71.6157 79.2108 71.3577 79.8352 71.3577 80.4862C71.3577 81.1373 71.6157 81.7616 72.075 82.222C72.5342 82.6823 73.1571 82.941 73.8067 82.941H98.2874C98.9369 82.941 99.5598 82.6823 100.019 82.222C100.478 81.7616 100.736 81.1373 100.736 80.4862C100.736 79.8352 100.478 79.2108 100.019 78.7505C99.5598 78.2901 98.9369 78.0315 98.2874 78.0315H73.8067Z" fill="#FAA9B2"/>
    <path d="M78.7046 68.2124C78.0551 68.2124 77.4322 68.471 76.9729 68.9314C76.5136 69.3917 76.2556 70.0161 76.2556 70.6671C76.2556 71.3182 76.5136 71.9425 76.9729 72.4029C77.4322 72.8633 78.0551 73.1219 78.7046 73.1219H98.2874C98.9369 73.1219 99.5598 72.8633 100.019 72.4029C100.478 71.9425 100.736 71.3182 100.736 70.6671C100.736 70.0161 100.478 69.3917 100.019 68.9314C99.5598 68.471 98.9369 68.2124 98.2874 68.2124H78.7046Z" fill="#FAA9B2"/>
    <path d="M78.7046 87.8413C78.383 87.8413 78.0645 87.9048 77.7674 88.0281C77.4703 88.1515 77.2003 88.3324 76.9729 88.5603C76.7455 88.7882 76.5651 89.0589 76.442 89.3567C76.319 89.6545 76.2556 89.9737 76.2556 90.2961C76.2556 90.6184 76.319 90.9376 76.442 91.2354C76.5651 91.5332 76.7455 91.8039 76.9729 92.0318C77.2003 92.2598 77.4703 92.4406 77.7674 92.564C78.0645 92.6873 78.383 92.7508 78.7046 92.7508H98.2874C98.609 92.7508 98.9274 92.6873 99.2246 92.564C99.5217 92.4406 99.7916 92.2598 100.019 92.0318C100.246 91.8039 100.427 91.5332 100.55 91.2354C100.673 90.9376 100.736 90.6184 100.736 90.2961C100.736 89.9737 100.673 89.6545 100.55 89.3567C100.427 89.0589 100.246 88.7882 100.019 88.5603C99.7916 88.3324 99.5217 88.1515 99.2246 88.0281C98.9274 87.9048 98.609 87.8413 98.2874 87.8413H78.7046Z" fill="#FAA9B2"/>
    <path d="M83.5935 58.3928C83.2719 58.3928 82.9534 58.4563 82.6563 58.5796C82.3592 58.703 82.0892 58.8839 81.8618 59.1118C81.6344 59.3398 81.454 59.6104 81.3309 59.9082C81.2079 60.206 81.1445 60.5252 81.1445 60.8476C81.1445 61.1699 81.2079 61.4891 81.3309 61.7869C81.454 62.0847 81.6344 62.3554 81.8618 62.5833C82.0892 62.8113 82.3592 62.9921 82.6563 63.1155C82.9534 63.2388 83.2719 63.3023 83.5935 63.3023H103.185C103.507 63.3023 103.825 63.2388 104.123 63.1155C104.42 62.9921 104.69 62.8113 104.917 62.5833C105.144 62.3554 105.325 62.0847 105.448 61.7869C105.571 61.4891 105.634 61.1699 105.634 60.8476C105.634 60.5252 105.571 60.206 105.448 59.9082C105.325 59.6104 105.144 59.3398 104.917 59.1118C104.69 58.8839 104.42 58.703 104.123 58.5796C103.825 58.4563 103.507 58.3928 103.185 58.3928H83.5935Z" fill="#FAA9B2"/>
    <path d="M83.5935 97.6604C83.2719 97.6604 82.9534 97.7239 82.6563 97.8472C82.3592 97.9706 82.0892 98.1514 81.8618 98.3794C81.6344 98.6073 81.454 98.878 81.3309 99.1758C81.2079 99.4736 81.1445 99.7928 81.1445 100.115C81.1445 100.438 81.2079 100.757 81.3309 101.054C81.454 101.352 81.6344 101.623 81.8618 101.851C82.0892 102.079 82.3592 102.26 82.6563 102.383C82.9534 102.506 83.2719 102.57 83.5935 102.57H103.185C103.507 102.57 103.825 102.506 104.123 102.383C104.42 102.26 104.69 102.079 104.917 101.851C105.144 101.623 105.325 101.352 105.448 101.054C105.571 100.757 105.634 100.438 105.634 100.115C105.634 99.7928 105.571 99.4736 105.448 99.1758C105.325 98.878 105.144 98.6073 104.917 98.3794C104.69 98.1514 104.42 97.9706 104.123 97.8472C103.825 97.7239 103.507 97.6604 103.185 97.6604H83.5935Z" fill="#FAA9B2"/>
    <path d="M132.528 53.4566C131.88 53.466 131.262 53.7326 130.81 54.1978C130.357 54.663 130.108 55.289 130.115 55.9385V80.4859C130.118 81.1358 130.378 81.758 130.838 82.216L145.523 96.9444C145.747 97.1843 146.018 97.3765 146.318 97.5096C146.618 97.6427 146.941 97.7141 147.269 97.7193C147.598 97.7246 147.923 97.6636 148.227 97.5401C148.532 97.4167 148.808 97.2333 149.04 97.0008C149.272 96.7682 149.455 96.4912 149.578 96.1864C149.701 95.8815 149.762 95.5549 149.757 95.2261C149.752 94.8972 149.68 94.5726 149.548 94.2719C149.415 93.9711 149.223 93.7002 148.984 93.4752L135.013 79.4623V55.9385C135.017 55.6108 134.955 55.2855 134.831 54.9822C134.707 54.6788 134.524 54.4033 134.293 54.172C134.061 53.9407 133.786 53.7582 133.482 53.6353C133.179 53.5125 132.855 53.4517 132.528 53.4566Z" fill="#FAA9B2"/>
    <path fill-rule="evenodd" clip-rule="evenodd" d="M135.014 48.5784C135.014 49.2293 134.756 49.8535 134.296 50.3138C133.837 50.774 133.215 51.0326 132.565 51.0326C131.916 51.0326 131.293 50.774 130.834 50.3138C130.375 49.8535 130.117 49.2293 130.117 48.5784C130.117 48.2562 130.18 47.937 130.303 47.6392C130.426 47.3415 130.607 47.071 130.834 46.8431C131.061 46.6152 131.331 46.4344 131.628 46.3111C131.925 46.1878 132.244 46.1243 132.565 46.1243C132.887 46.1243 133.205 46.1878 133.502 46.3111C133.799 46.4344 134.069 46.6152 134.296 46.8431C134.524 47.071 134.704 47.3415 134.827 47.6392C134.95 47.937 135.014 48.2562 135.014 48.5784Z" fill="#FAA9B2"/>
    <path fill-rule="evenodd" clip-rule="evenodd" d="M135.014 112.386C135.014 113.037 134.756 113.661 134.296 114.121C133.837 114.582 133.215 114.84 132.565 114.84C131.916 114.84 131.293 114.582 130.834 114.121C130.375 113.661 130.117 113.037 130.117 112.386C130.117 112.064 130.18 111.745 130.303 111.447C130.426 111.149 130.607 110.879 130.834 110.651C131.061 110.423 131.331 110.242 131.628 110.119C131.925 109.995 132.244 109.932 132.565 109.932C132.887 109.932 133.205 109.995 133.502 110.119C133.799 110.242 134.069 110.423 134.296 110.651C134.524 110.879 134.704 111.149 134.827 111.447C134.95 111.745 135.014 112.064 135.014 112.386Z" fill="#FAA9B2"/>
    <path fill-rule="evenodd" clip-rule="evenodd" d="M164.394 78.0291C165.044 78.0291 165.666 78.2877 166.126 78.7479C166.585 79.2081 166.843 79.8324 166.843 80.4832C166.843 81.1341 166.585 81.7583 166.126 82.2186C165.666 82.6788 165.044 82.9374 164.394 82.9374C164.073 82.9374 163.754 82.8739 163.457 82.7506C163.16 82.6272 162.89 82.4464 162.663 82.2186C162.436 81.9907 162.255 81.72 162.132 81.4223C162.009 81.1245 161.946 80.8055 161.946 80.4832C161.946 79.8324 162.204 79.2081 162.663 78.7479C163.122 78.2877 163.745 78.029 164.394 78.0291Z" fill="#FAA9B2"/>
    <path fill-rule="evenodd" clip-rule="evenodd" d="M153.341 56.1887C153.8 55.7284 154.423 55.47 155.072 55.47C155.721 55.47 156.344 55.7284 156.803 56.1887C157.262 56.6489 157.52 57.2731 157.52 57.924C157.52 58.5749 157.262 59.1991 156.803 59.6593C156.576 59.8872 156.306 60.068 156.009 60.1914C155.712 60.3147 155.393 60.3782 155.072 60.3782C154.75 60.3782 154.432 60.3147 154.135 60.1914C153.838 60.068 153.568 59.8872 153.341 59.6593C152.881 59.1991 152.624 58.5749 152.624 57.924C152.624 57.2731 152.881 56.6489 153.341 56.1887Z" fill="#FAA9B2"/>
    <path fill-rule="evenodd" clip-rule="evenodd" d="M156.803 101.307C157.262 101.767 157.52 102.391 157.52 103.042C157.52 103.693 157.262 104.317 156.803 104.777C156.344 105.238 155.721 105.496 155.072 105.496C154.423 105.496 153.8 105.238 153.341 104.778C153.113 104.55 152.933 104.279 152.81 103.981C152.687 103.684 152.624 103.364 152.624 103.042C152.624 102.72 152.687 102.401 152.81 102.103C152.933 101.805 153.113 101.535 153.341 101.307C153.8 100.847 154.423 100.588 155.072 100.588C155.721 100.588 156.344 100.847 156.803 101.307Z" fill="#FAA9B2"/>
</svg>
