<svg width="254" height="228" viewBox="0 0 254 228" fill="none" xmlns="http://www.w3.org/2000/svg">
    <path d="M127.263 223.826L3.20101 58.2927L50.8826 2.5H200.483L250.77 58.3389L127.263 223.826Z" stroke="white" stroke-width="5"/>
    <path d="M18 59.0916L57.2667 13H193.667L235 59.0916L126.5 203L18 59.0916Z" fill="white"/>
    <path d="M183.406 100.574C181.968 97.0259 177.83 94.0128 171.838 94.9721C172.958 92.323 173.601 89.1351 173.601 85.2633C173.601 71.2576 163.694 49.567 150.106 39.6331C153.018 36.8739 157.776 31.8033 157.95 27.9507C158.02 26.6573 157.591 25.5113 156.744 24.6322C155.79 23.6586 154.426 23.1604 152.7 23.1604C151.383 23.1604 149.983 23.4347 148.633 23.6993C147.491 23.9221 146.315 24.1532 145.437 24.1532C145.074 24.1532 144.848 24.1113 144.733 24.0778C143.85 23.8299 142.861 23.164 141.814 22.4586C140.095 21.3066 138.156 20 135.815 20C133.468 20 131.528 21.3066 129.813 22.4586C128.76 23.164 127.774 23.8299 126.891 24.0778C126.763 24.1113 126.553 24.1532 126.187 24.1532C125.309 24.1532 124.134 23.9233 122.996 23.6993C121.637 23.4275 120.248 23.1604 118.927 23.1604C117.198 23.1604 115.832 23.6586 114.885 24.6322C114.032 25.5077 113.613 26.6538 113.674 27.9507C113.853 31.8045 118.613 36.8751 121.517 39.6331C107.937 49.567 98.0221 71.2492 98.0221 85.2633C98.0221 86.2513 98.0775 87.1842 98.1612 88.0824C88.5619 91.7123 77.7192 98.0738 76.0657 99.0534C75.0168 99.6774 74.6856 101.009 75.3271 102.022C75.9672 103.045 77.34 103.365 78.3791 102.746C84.4068 99.1672 101.589 89.88 108.643 89.88C114.517 89.88 134.218 96.6738 141.42 99.3336C144.854 100.898 145.808 103.601 145.219 105.604C144.68 107.476 142.659 109.302 138.633 108.823L113.985 105.844C112.769 105.693 111.655 106.537 111.503 107.724C111.352 108.905 112.217 109.993 113.434 110.141L138.079 113.121C138.699 113.197 139.295 113.233 139.87 113.233C145.203 113.233 148.516 110.142 149.495 106.796C149.498 106.795 149.498 106.792 149.498 106.791L171.159 99.5528C175.496 98.2738 178.353 99.9432 179.255 102.17C180.044 104.116 179.469 107.104 175.251 109.126L168.77 112.228C145.219 123.509 134.474 128.658 128.558 128.658C123.709 128.658 116.221 124.655 110.207 121.443C104.672 118.482 101.425 116.814 99.1215 116.814C95.9143 116.814 87.1929 120.182 85.4754 120.858C84.3329 121.307 83.7851 122.569 84.2467 123.677C84.7084 124.788 86.0048 125.322 87.1449 124.873C91.0808 123.325 97.3979 121.149 99.1227 121.149C100.397 121.149 104.648 123.419 108.066 125.246C114.865 128.878 122.575 133 128.562 133C135.512 133 145.823 128.06 170.744 116.124L177.219 113.024C183.678 109.914 184.952 104.395 183.406 100.574ZM117.885 27.7639C117.876 27.5376 117.926 27.4885 117.948 27.4621C118.034 27.3675 118.34 27.2669 118.925 27.2669C119.822 27.2669 121.004 27.498 122.154 27.7244C124.217 28.1364 126.443 28.4765 128.065 28.0226C129.604 27.5962 130.928 26.7005 132.21 25.8442C133.53 24.9544 134.781 24.1149 135.812 24.1149C136.839 24.1149 138.087 24.9544 139.407 25.843C140.689 26.704 142.011 27.595 143.552 28.0214C145.17 28.4825 147.4 28.134 149.466 27.7232C150.616 27.498 151.799 27.2657 152.697 27.2657C153.277 27.2657 153.585 27.3663 153.676 27.4609C153.693 27.4861 153.744 27.5364 153.734 27.7627C153.628 30.0477 149.297 34.8236 145.948 37.8092H125.677C122.32 34.8165 117.991 30.0489 117.885 27.7639ZM165.793 96.7648L149.511 102.204C148.805 99.5863 146.847 96.99 143.211 95.3673C143.166 95.3457 143.12 95.329 143.075 95.311C140.37 94.3122 116.415 85.5519 108.641 85.5519C106.847 85.5519 104.665 85.9759 102.286 86.6752C102.261 86.2094 102.24 85.7507 102.24 85.2525C102.24 71.7247 112.145 50.5083 125.485 41.9145H146.133C159.474 50.5131 169.381 71.7295 169.381 85.2525C169.376 90.3961 168.102 94.0942 165.793 96.7648ZM143.772 71.084C143.07 70.3786 142.208 69.757 141.181 69.2097C140.152 68.6624 138.741 68.0637 136.937 67.4206C135.131 66.7775 133.85 66.096 133.102 65.3763C132.35 64.653 131.972 63.7009 131.972 62.5069C131.972 61.1836 132.353 60.1572 133.112 59.4435C133.872 58.7297 134.933 58.3704 136.281 58.3704C137.644 58.3704 138.729 58.8686 139.528 59.8578C140.323 60.853 140.723 62.2171 140.723 63.938H145.837C145.837 61.2518 145.167 59.0722 143.827 57.3908C142.488 55.7142 140.593 54.7023 138.143 54.3586V49.8413H134.762V54.3178C132.326 54.5921 130.393 55.4627 128.972 56.9346C127.551 58.4004 126.842 60.271 126.842 62.5476C126.842 65.908 128.482 68.4397 131.767 70.157C132.753 70.6792 134.133 71.2384 135.905 71.8528C137.679 72.4636 138.949 73.1462 139.711 73.909C140.468 74.6695 140.854 75.6312 140.854 76.7952C140.854 78.0431 140.433 79.0431 139.598 79.7987C138.756 80.5508 137.537 80.9269 135.929 80.9269C134.304 80.9269 133.031 80.4526 132.135 79.5041C131.24 78.558 130.793 77.2227 130.793 75.4946H125.659C125.659 78.2095 126.409 80.3856 127.907 82.031C129.408 83.6765 131.552 84.6501 134.345 84.9507V88.9375H137.706V84.9268C140.31 84.6669 142.347 83.8118 143.799 82.3795C145.261 80.9412 145.986 79.061 145.986 76.7497C145.986 75.515 145.799 74.4348 145.414 73.521C145.026 72.6073 144.478 71.7881 143.772 71.084Z" fill="#FAA9B2"/>
</svg>
