<svg width="33" height="44" viewBox="0 0 33 44" fill="none" xmlns="http://www.w3.org/2000/svg">
<path d="M32.7446 25.657L32.7144 25.2397C32.221 18.81 29.2273 14.7794 26.5861 11.2244C24.14 7.93238 22.0277 5.0899 22.0277 0.895538C22.0268 0.731073 21.9808 0.570004 21.8947 0.429858C21.8087 0.289712 21.6858 0.175858 21.5395 0.100686C21.3929 0.0242807 21.2278 -0.00975076 21.0629 0.00240985C20.898 0.0145705 20.7398 0.072442 20.6059 0.169531C16.5189 3.18182 13.5519 7.46979 12.1734 12.3562C11.516 15.3474 11.2063 18.4045 11.2502 21.4668C7.58682 20.6844 6.75755 15.2081 6.7492 15.1455C6.72927 15.0054 6.6765 14.872 6.59522 14.7561C6.51393 14.6403 6.40642 14.5453 6.28144 14.4789C6.15647 14.4125 6.01757 14.3766 5.87607 14.374C5.73457 14.3715 5.59448 14.4025 5.46722 14.4644C5.27529 14.5572 0.752341 16.8552 0.489477 26.0325C0.470701 26.3381 0.470703 26.6427 0.470703 26.9494C0.470703 31.2375 2.17414 35.3499 5.20627 38.3821C8.23841 41.4142 12.3509 43.1176 16.639 43.1176C20.9271 43.1176 25.0395 41.4142 28.0716 38.3821C31.1038 35.3499 32.8072 31.2375 32.8072 26.9494C32.8062 26.4915 32.7749 26.0742 32.7446 25.657ZM16.6379 41.3141C15.1638 41.2643 13.7694 40.6327 12.7596 39.5576C11.7497 38.4825 11.2067 37.0513 11.2492 35.577C11.2492 35.4727 11.2492 35.36 11.2565 35.2275C11.2519 34.2481 11.4449 33.2777 11.8239 32.3746C12.0486 32.987 12.4507 33.5186 12.979 33.9014C13.5072 34.2841 14.1376 34.5007 14.7895 34.5234C15.0277 34.5234 15.2562 34.4288 15.4246 34.2604C15.593 34.0919 15.6876 33.8635 15.6876 33.6253C15.6461 32.2547 15.7616 30.8838 16.0319 29.5394C16.3695 28.2692 16.9912 27.0921 17.85 26.0972C18.2723 27.3255 18.8982 28.474 19.7015 29.4946C21.0178 31.0887 21.8204 33.0442 22.0037 35.1034C22.0152 35.2578 22.0266 35.4163 22.0266 35.5801C22.0683 37.0539 21.5249 38.4843 20.5152 39.5587C19.5054 40.6332 18.1115 41.2642 16.6379 41.3141ZM22.3145 40.1406C23.2937 38.819 23.8238 37.2186 23.8271 35.5738C23.8271 35.3652 23.8135 35.166 23.7874 34.7988C23.5662 32.4717 22.6565 30.2633 21.1744 28.4556C20.2158 27.0944 19.3886 25.9177 19.3886 24.2498C19.3886 24.0827 19.342 23.919 19.2541 23.777C19.1661 23.6349 19.0403 23.5202 18.8907 23.4458C18.7412 23.3713 18.5738 23.3401 18.4075 23.3555C18.2412 23.371 18.0824 23.4325 17.9491 23.5332C16.153 24.9464 14.8674 26.9073 14.2878 29.118C14.0583 30.1657 13.9318 31.2334 13.9102 32.3058C13.4815 31.7408 13.2004 31.0779 13.0924 30.3771C13.0726 30.235 13.0191 30.0998 12.9364 29.9826C12.8538 29.8654 12.7443 29.7696 12.6172 29.7033C12.49 29.6369 12.3488 29.6019 12.2054 29.6012C12.062 29.6005 11.9205 29.634 11.7927 29.699C11.5663 29.8148 9.57812 30.9508 9.46338 35.1493C9.45504 35.2912 9.45504 35.433 9.45504 35.5749C9.45721 37.2196 9.98618 38.8205 10.9644 40.1427C8.38593 39.0307 6.18898 37.1887 4.64416 34.8438C3.09934 32.4989 2.2741 29.7533 2.27007 26.9452C2.27007 26.6761 2.27007 26.408 2.2878 26.1107C2.44218 20.7272 4.16541 18.0568 5.28988 16.8792C6.0743 19.6862 8.1282 23.3548 12.1504 23.3548C12.3886 23.3548 12.6171 23.2602 12.7855 23.0918C12.9539 22.9233 13.0486 22.6949 13.0486 22.4567C12.947 19.2132 13.2394 15.9694 13.9196 12.7964C15.0482 8.87446 17.2792 5.35899 20.3472 2.66779C20.8479 6.51479 22.9435 9.33641 25.1456 12.2999C27.7638 15.8246 30.4706 19.4692 30.9244 25.3701L30.9547 25.7999C30.9828 26.1733 31.012 26.5467 31.012 26.9473C31.0069 29.755 30.1808 32.4999 28.6355 34.8441C27.0901 37.1883 24.893 39.0293 22.3145 40.1406Z" fill="white"/>
</svg>
