<svg width="37" height="40" viewBox="0 0 37 40" fill="none" xmlns="http://www.w3.org/2000/svg">
<path d="M18.8126 27.3147C11.6989 27.3147 6.12646 15.9097 6.12646 1.34975C6.12646 0.875939 6.51101 0.491394 6.98483 0.491394H30.6404C31.1142 0.491394 31.4987 0.875939 31.4987 1.34975C31.4987 15.9097 25.9263 27.3147 18.8126 27.3147ZM7.85048 2.20811C8.06336 14.9736 12.9964 25.598 18.8126 25.598C24.6289 25.598 29.5619 14.9736 29.7747 2.20811H7.85048Z" fill="white"/>
<path d="M26.1071 21.974C25.7517 21.974 25.4195 21.7517 25.2963 21.3972C25.1406 20.9496 25.377 20.4599 25.8247 20.3045C30.9735 18.5127 34.6284 12.3557 34.8992 5.16002H30.6401C30.1662 5.16002 29.7817 4.77547 29.7817 4.30166C29.7817 3.82784 30.1662 3.4433 30.6401 3.4433H35.7739C36.2477 3.4433 36.6323 3.82784 36.6323 4.30166C36.6323 12.5801 32.4203 19.8273 26.3895 21.9255C26.2959 21.9586 26.2006 21.974 26.1071 21.974Z" fill="white"/>
<path d="M11.5191 21.974C11.4256 21.974 11.3307 21.9586 11.2371 21.9259C5.20545 19.8281 0.993042 12.5805 0.993042 4.30166C0.993042 3.82784 1.37759 3.4433 1.8514 3.4433H6.98483C7.45864 3.4433 7.84319 3.82784 7.84319 4.30166C7.84319 4.77547 7.45864 5.16002 6.98483 5.16002H2.72607C2.99646 12.3561 6.65178 18.5131 11.8015 20.3045C12.2492 20.4599 12.4861 20.9491 12.3303 21.3972C12.2062 21.7513 11.874 21.974 11.5191 21.974Z" fill="white"/>
<path d="M21.4146 34.0709H16.2104C15.7366 34.0709 15.3521 33.6863 15.3521 33.2125V25.8444C15.3521 25.3705 15.7366 24.986 16.2104 24.986C16.6842 24.986 17.0688 25.3705 17.0688 25.8444V32.3542H20.5563V25.8435C20.5563 25.3697 20.9408 24.9851 21.4146 24.9851C21.8885 24.9851 22.273 25.3697 22.273 25.8435V33.2125C22.273 33.6868 21.8889 34.0709 21.4146 34.0709Z" fill="white"/>
<path d="M25.758 39.1176H11.8671C11.3933 39.1176 11.0088 38.7331 11.0088 38.2593V35.8786C11.0088 33.9353 12.5899 32.3542 14.5332 32.3542H23.0915C25.0348 32.3542 26.6159 33.9353 26.6159 35.8786V38.2593C26.6164 38.7331 26.2318 39.1176 25.758 39.1176ZM12.7255 37.4009H24.8992V35.8786C24.8992 34.882 24.0881 34.0709 23.0915 34.0709H14.5332C13.5367 34.0709 12.7255 34.882 12.7255 35.8786V37.4009Z" fill="white"/>
<path d="M27.5688 39.1176H10.0565C9.58267 39.1176 9.19812 38.7331 9.19812 38.2593C9.19812 37.7855 9.58267 37.4009 10.0565 37.4009H27.5688C28.0426 37.4009 28.4271 37.7855 28.4271 38.2593C28.4271 38.7331 28.043 39.1176 27.5688 39.1176Z" fill="white"/>
</svg>
