<svg width="40" height="40" viewBox="0 0 40 40" fill="none" xmlns="http://www.w3.org/2000/svg">
<path fill-rule="evenodd" clip-rule="evenodd" d="M7.02272 0.0653367C6.70564 0.191928 6.40075 0.534663 6.31202 0.864191C6.26019 1.05666 6.24979 1.48926 6.28419 2.02055L6.33923 2.86941H3.61134C0.532443 2.86941 0.50813 2.87356 0.157978 3.46361C-0.0167463 3.75805 -0.0211242 3.80908 0.0245308 5.01834C0.178147 9.07982 1.02597 12.6046 2.61381 15.7828C4.99491 20.5485 8.5291 23.466 12.5158 23.9566L13.1227 24.0313L13.799 24.6711C14.1709 25.023 14.7508 25.504 15.0877 25.7399L15.7003 26.169V28.7803V31.3915L14.3908 31.3925C13.497 31.3931 12.9461 31.4294 12.6549 31.5068C11.1675 31.9025 9.95184 33.1036 9.56205 34.5627C9.48684 34.8443 9.42016 35.5347 9.39155 36.3276L9.34464 37.63L9.06875 37.6817C8.72071 37.747 8.31467 38.146 8.20975 38.5258C8.0638 39.0542 8.36321 39.6677 8.8705 39.8795C9.25505 40.0402 30.745 40.0402 31.1295 39.8795C31.6368 39.6677 31.9362 39.0542 31.7902 38.5258C31.6853 38.146 31.2793 37.747 30.9312 37.6817L30.6554 37.63L30.6085 36.3276C30.5798 35.5347 30.5132 34.8443 30.438 34.5627C30.0482 33.1036 28.8325 31.9025 27.3451 31.5068C27.0539 31.4294 26.503 31.3931 25.6092 31.3925L24.2997 31.3915V28.7803V26.169L24.9123 25.7399C25.2492 25.504 25.8291 25.023 26.201 24.6711L26.8773 24.0313L27.4842 23.9566C31.4709 23.466 35.0051 20.5485 37.3862 15.7828C38.974 12.6046 39.8219 9.07982 39.9755 5.01834C40.0211 3.80908 40.0167 3.75805 39.842 3.46361C39.492 2.87387 39.4664 2.86941 36.3987 2.86941H33.6807L33.7003 1.82113C33.7218 0.672897 33.684 0.553182 33.1817 0.178331C32.9659 0.0172788 32.961 0.0172007 20.092 0.00227543C11.6685 -0.00749243 7.15062 0.0143094 7.02272 0.0653367ZM31.3078 3.59224C31.0105 10.8154 28.8644 17.7881 25.7259 21.7282C22.5186 25.7546 18.5833 26.1558 15.2297 22.7982C11.5947 19.1589 9.02185 11.6002 8.69218 3.59224L8.63988 2.32241H20H31.3601L31.3078 3.59224ZM6.49417 5.87791C6.87098 9.95509 7.76094 13.8615 9.05781 17.1305C9.47222 18.175 10.2992 19.9192 10.7344 20.6664C10.8908 20.9351 10.9903 21.1548 10.9556 21.1548C10.9209 21.1548 10.5715 20.9936 10.1793 20.7963C6.1029 18.747 2.92065 12.8127 2.45175 6.38584C2.42509 6.02052 2.38561 5.60676 2.36396 5.46634L2.32456 5.21112L4.38052 5.23191L6.4364 5.25277L6.49417 5.87791ZM37.6358 5.46766C37.6143 5.6073 37.5749 6.02052 37.5483 6.38584C37.1347 12.0539 34.6216 17.3705 31.1106 20.005C30.6057 20.3839 29.2202 21.1549 29.0444 21.1548C29.0097 21.1548 29.1092 20.9351 29.2656 20.6664C29.7008 19.9192 30.5278 18.175 30.9422 17.1305C32.2223 13.9035 33.1905 9.67284 33.4903 5.99513C33.5201 5.62981 33.5596 5.3045 33.5782 5.27231C33.5967 5.24011 34.5261 5.2137 35.6434 5.2137H37.675L37.6358 5.46766ZM18.7492 27.3255C18.9427 27.3678 19.5055 27.4024 20 27.4024C20.4945 27.4024 21.0573 27.3678 21.2508 27.3255C21.4443 27.2833 21.6817 27.2308 21.7785 27.2088L21.9544 27.1689V29.2802V31.3915H20H18.0456V29.2802V27.1689L18.2215 27.2088C18.3183 27.2308 18.5557 27.2833 18.7492 27.3255ZM27.1531 33.9049C27.5086 34.102 27.9029 34.5201 28.0623 34.8689C28.181 35.1288 28.2054 35.3889 28.2068 36.4122L28.2085 37.643H20H11.7915L11.7932 36.4122C11.7952 34.9401 11.8679 34.7096 12.5095 34.1394C12.9687 33.7313 12.8014 33.7397 20.1173 33.7579C26.2949 33.7733 26.9401 33.7869 27.1531 33.9049Z" fill="#FDA3A2"/>
</svg>
