<svg width="401" height="288" viewBox="0 0 401 288" fill="none" xmlns="http://www.w3.org/2000/svg">
<path fill-rule="evenodd" clip-rule="evenodd" d="M184.994 0.673699C180.837 2.0367 177.462 3.9467 124 35.1957L72.5 65.2987L42 65.7987C12.149 66.2877 11.42 66.3487 7.719 68.6497C5.639 69.9427 3.052 72.7367 1.969 74.8597C0.0700017 78.5817 0 81.0357 0 143.873V209.027L2.212 212.962C3.428 215.127 6.016 217.888 7.962 219.098C11.353 221.208 12.765 221.32 42 221.799L72.5 222.299L127 253.954C156.975 271.364 183.525 286.151 186 286.815C199.616 290.466 215 282.682 221.363 268.921L223.5 264.299V143.799V23.2987L220.72 17.6377C217.637 11.3597 212.311 6.0237 205.795 2.6837C201.153 0.304701 189.541 -0.817301 184.994 0.673699ZM191.758 200.184L191.5 255.415L145 228.08C119.425 213.045 94.196 198.282 88.936 195.272L79.373 189.799H55.686H32V144.378V98.9577L55.75 98.6277L79.5 98.2987L135.5 65.6907L191.5 33.0817L191.758 89.0177C191.9 119.782 191.9 169.807 191.758 200.184ZM281.45 81.2057C274.762 84.1187 271.03 91.7407 272.468 99.5487C273.054 102.727 276.228 106.385 293.297 123.549L313.436 143.799L293.297 164.049C271.614 185.853 270.872 186.973 272.472 195.5C273.395 200.422 279.377 206.404 284.299 207.327C292.826 208.927 293.946 208.185 315.75 186.502L336 166.363L356.25 186.502C378.054 208.185 379.174 208.927 387.701 207.327C392.623 206.404 398.605 200.422 399.528 195.5C401.128 186.973 400.386 185.853 378.703 164.049L358.564 143.799L378.703 123.549C400.386 101.745 401.128 100.625 399.528 92.0977C398.605 87.1757 392.623 81.1937 387.701 80.2707C379.174 78.6707 378.055 79.4117 356.239 101.108L335.977 121.257L316.239 101.576C305.382 90.7517 295.233 81.4227 293.685 80.8467C289.921 79.4457 285.171 79.5847 281.45 81.2057Z" fill="white"/>
</svg>
