<svg width="228" height="581" viewBox="0 0 228 581" fill="none" xmlns="http://www.w3.org/2000/svg">
<g clip-path="url(#clip0_13_229)">
<path fill-rule="evenodd" clip-rule="evenodd" d="M141.703 56.837C139.495 68.4287 136.731 87.0835 149.467 87.5544C158.232 87.8729 155.093 84.923 164.913 85.6571C174.733 86.3772 179.775 92.9002 187.025 103.467C201.887 115.945 214.416 134.101 222.736 144.973C225.917 149.128 227.778 149.543 228 151.925C228.097 153.006 227.181 154.501 226.555 156.953C224.305 167.672 215.235 194.47 204.985 207.308L199.262 202.586C204.832 192.573 204.971 178.71 207.429 170.178C209.902 161.647 211.846 158.005 213.444 153.92C205.36 146.995 194.304 139.239 186.942 132.135C180.025 125.46 171.594 114.048 165.774 113.342C165.566 116.471 171.885 119.463 171.663 127.371C172.274 132.329 171.149 140.403 166.135 144.488C168.691 153.753 163.607 161.495 164.024 174.79L146.328 179.582L132.286 184.18L120.549 186.867L93.4501 147.84C88.6026 130.653 81.0605 115.183 81.1716 102.692C81.2272 97.1519 81.8383 91.5291 86.4497 87.7483C95.5614 80.2836 109.646 95.6146 115.813 87.4159C120.063 81.7654 118.604 65.4234 118.341 55.2166L141.703 56.837Z" fill="#F4CFBA"/>
<path fill-rule="evenodd" clip-rule="evenodd" d="M165.066 166.439C165.107 171.314 165.677 174.943 166.455 176.175C171.316 183.848 178.344 190.371 184.053 198.098C192.192 209.108 198.554 221.503 199.846 233.885C200.679 241.876 199.179 250.49 196.595 260.6C188.261 293.242 176.83 332.92 177.344 366.947C177.594 384.023 179.719 395.172 179.053 409.921C178.441 423.424 175.636 434.67 171.997 448.768C167.177 467.492 160.885 489.097 156.301 506.367C155.496 510.743 154.204 515.438 153.648 519.551C152.94 524.717 153.523 530.035 153.482 535.395C153.412 543.275 151.468 551.861 152.245 559.063C152.815 564.326 155.579 567.165 154.718 569.727C153.871 572.247 151.44 575.156 147.537 577.676C143.259 580.432 142.578 580.543 138.189 578.507C134.342 576.721 130.564 574.602 129.577 570.212C128.869 567.04 130.314 563.869 132.383 558.924C134.814 553.122 135.967 547.582 135.828 541.89C135.758 538.912 135.328 535.893 134.536 532.805C133.203 527.556 133.189 524.094 134.453 521.393C136.217 517.626 139.509 514.469 141.217 510.342C143.425 505.01 145.148 499.262 145.814 493.903C148.62 471.55 146.787 450.278 148.065 427.787C148.954 411.999 154.468 401.764 154.968 387.86C155.079 384.647 153.482 380.159 153.148 376.6C152.37 368.318 153.954 356.671 153.968 346.811C153.982 332.865 152.87 318.614 151.94 303.754C150.829 285.999 150.968 268.604 155.343 249.783H149.19L126.883 188.418L165.066 166.439Z" fill="#F4CFBA"/>
<path fill-rule="evenodd" clip-rule="evenodd" d="M116.118 183.418L118.285 190.8L118.479 193.584L110.923 224.453L107.076 247.277C103.729 258.107 100.159 264.519 97.4087 275.377C92.9085 293.131 90.2555 314.293 86.672 333.557C84.6163 344.581 82.6023 354.885 78.5881 364.205C73.1434 376.836 63.2678 385.118 56.4201 396.308C39.7247 423.604 35.7383 461.08 29.6546 494.304C28.1823 502.309 27.1961 510.425 24.5432 518.526C22.9875 523.263 24.4182 529.453 22.807 532.223C21.1957 534.993 18.4317 536.267 17.3622 541.682L26.0155 554.936C28.0573 548.842 30.1269 543.178 32.5576 537.528C33.8632 534.481 35.2244 532.528 35.8911 529.675C37.2801 523.803 37.3773 517.155 39.2246 510.757C46.6556 485.039 61.7677 461.136 71.4349 436.387C76.6158 423.12 80.3105 408.467 85.6025 395.518C88.8388 387.583 93.7835 385.865 98.1449 379.245C103.173 371.642 103.548 362.834 107.687 354.082C111.826 345.315 117.396 333.46 121.132 324.472C131.772 298.893 140.231 273.258 149.565 248.606L151.87 239.023L150.329 175.732L116.118 183.418Z" fill="#F4CFBA"/>
<path fill-rule="evenodd" clip-rule="evenodd" d="M165.066 166.439C165.107 171.314 165.677 174.943 166.455 176.175C171.316 183.848 178.344 190.371 184.053 198.098C192.192 209.108 198.554 221.503 199.846 233.885C201.04 245.421 200.276 262.525 198.179 276.997C191.526 276.692 185.706 279.905 183.775 280.487C172.83 283.714 161.621 284.711 151.12 285.196C148.981 285.293 93.1585 288.381 93.1446 281.304C96.3392 271.056 102.715 261.237 105.354 251.639C107.645 243.316 109.187 234.702 110.91 224.467L118.466 193.597L118.202 190.897L116.104 183.432L147.94 176.3L165.066 166.439Z" fill="#85296C"/>
<path fill-rule="evenodd" clip-rule="evenodd" d="M27.1406 508.375C25.9599 512.654 24.2515 517.876 22.9597 521.836C21.3485 526.794 18.0706 530.991 15.7649 535.838C12.3897 542.956 9.91728 551.349 6.08371 557.498C3.27798 561.999 0.611155 564.118 0.263911 566.791C-0.0694423 569.422 -0.500024 572.233 1.93068 576.194C4.58362 580.529 5.1531 580.931 9.98673 580.986C14.237 581.042 20.2929 580.1 23.0847 576.582C25.0988 574.034 24.2237 571.513 24.5154 566.168C24.8626 559.894 26.2377 554.396 28.8351 549.341C30.1963 546.696 31.8908 544.161 33.9604 541.71C37.4467 537.555 38.9607 534.453 39.0024 531.462C39.0579 527.307 37.4745 523.027 37.7384 518.582C38.0857 512.821 39.808 508.818 41.5303 503.708L27.1406 508.375Z" fill="#F4CFBA"/>
<path fill-rule="evenodd" clip-rule="evenodd" d="M153.398 563.73C154.315 566.251 155.301 568.051 154.746 569.727C153.898 572.247 151.468 575.156 147.565 577.676C143.287 580.432 142.606 580.543 138.217 578.507C134.369 576.721 130.591 574.602 129.605 570.212C129.147 568.162 129.591 566.098 130.522 563.564L130.55 563.578C129.966 566.084 129.313 568.093 131.786 569.187C138.12 571.97 147.565 571.943 153.412 567.054C153.745 566.791 153.704 565.461 153.398 563.73Z" fill="#572B22"/>
<path fill-rule="evenodd" clip-rule="evenodd" d="M135.855 543.067C135.855 542.679 135.855 542.278 135.842 541.89C135.772 538.912 135.342 535.893 134.55 532.805C133.216 527.556 133.203 524.094 134.466 521.393C135.119 519.995 135.994 518.679 136.911 517.363C135.23 522.335 134.897 526.379 135.244 531.157C135.55 535.492 136.314 538.954 135.855 543.067Z" fill="#572B22"/>
<path fill-rule="evenodd" clip-rule="evenodd" d="M28.4323 550.075C30.1407 546.973 32.2381 544.037 34.4882 541.198C37.8495 536.946 39.1552 534.038 39.1135 531.046C39.0857 529.495 38.794 527.681 38.4884 526.102C37.9884 531.323 36.3217 535.229 34.0576 539.452C32.0019 543.303 29.6962 546.128 28.4323 550.075Z" fill="#572B22"/>
<path fill-rule="evenodd" clip-rule="evenodd" d="M128.383 131.221C111.201 130.03 117.896 105.531 99.9505 87.1389C95.353 84.8954 90.0055 84.8677 86.7275 86.7373C97.8115 101.902 103.326 118.521 102.076 128.229C94.478 145.195 112.451 176.743 119.104 190.855C135.869 192.226 155.565 186.382 165.58 173.059C167.038 168.669 167.399 168.974 167.552 162.146C167.691 156.108 169.621 150.582 171.983 143.934C175.469 134.143 174.636 126.789 169.608 119.477C150.718 114.865 153.968 132.993 128.383 131.221Z" fill="#85296C"/>
<path fill-rule="evenodd" clip-rule="evenodd" d="M166.482 169.015C165.399 171.688 165.996 172.824 164.982 174.389C163.579 176.521 160.496 178.793 156.579 180.247C154.343 181.078 154.426 181.853 151.704 183.64C146.62 186.978 139.8 186.327 134.786 187.698C131.564 188.584 128.438 189.872 124.494 189.235L123.049 173.682C133.703 171.827 149.662 169.043 154.996 168.115C160.301 167.173 166.58 169.209 166.482 169.015Z" fill="#85296C"/>
<path fill-rule="evenodd" clip-rule="evenodd" d="M184.636 205.632C185.789 209.219 189.914 211.366 191.831 212.363C199.179 216.199 203.012 208.998 208.777 202.129L201.568 196.464C198.429 202.212 196.276 204.123 193.553 202.586C191.637 201.505 188.414 197.641 184.872 194.595L182.622 193.348L184.608 201.533L184.636 205.632Z" fill="#F4CFBA"/>
<path fill-rule="evenodd" clip-rule="evenodd" d="M178.191 192.753C176.261 192.67 174.663 192.503 172.747 192.226C170.302 191.866 170.997 191.7 169.094 193.265C167.857 194.276 166.732 195.135 165.427 195.966C164.399 196.617 164.191 197.074 163.677 198.112L161.857 201.768C164.454 202.198 165.51 201.381 166.802 199.206C168.232 198.209 169.608 197.212 170.997 196.173C173.802 196.949 173.705 197.115 176.677 197.115L171.191 199.954C169.941 202.17 168.677 204.358 167.399 206.56C166.691 209.579 166.274 212.197 165.843 215.257C168.705 215.895 169.816 213.706 169.566 210.673C170.649 209.108 171.427 207.724 172.413 206.089C171.538 208.748 170.816 211.061 170.177 213.776L168.788 218.055C170.677 218.706 172.955 217.543 173.247 214.44C174.525 212.031 175.025 210.369 175.858 207.765L179.65 205.065L177.414 207.156C177.164 208.638 176.677 211.075 176.427 212.557L176.664 217.418C177.608 217.833 178.844 217.363 179.358 216.49C180.428 214.69 179.65 211.684 180.719 209.926C182.247 209.095 183.497 207.737 184.983 206.823L188.97 208.984C189.206 206.02 189.317 205.674 188.567 202.807C188.373 202.073 187.692 201.339 187.484 200.674C187.234 199.899 187.359 199.04 187.109 198.666C186.748 198.112 186.095 197.891 185.734 197.378C185.303 196.797 185.261 196.104 184.9 195.592C184.497 195.01 183.539 194.761 183.011 194.318C182.594 193.971 182.636 193.404 182.178 193.182C181.247 192.697 179.817 192.822 178.191 192.753Z" fill="#F4CFBA"/>
<path fill-rule="evenodd" clip-rule="evenodd" d="M4.4864 559.742C1.01396 564.132 -0.0555456 565.323 0.0555722 569.851C0.0972414 571.596 0.486154 573.826 1.93069 576.18C4.58363 580.515 5.1531 580.917 9.98673 580.972C14.237 581.028 20.529 579.906 23.3209 576.374C25.2516 573.937 24.5293 567.857 24.7237 562.941C24.3348 566.264 23.9459 570.904 22.0291 572.455C19.154 574.782 9.84784 572.58 3.27799 568.702C0.527823 567.082 2.40294 562.774 4.4864 559.742Z" fill="#572B22"/>
<path fill-rule="evenodd" clip-rule="evenodd" d="M107.979 270.46C120.202 274.338 137.633 279.559 146.884 282.287C154.746 284.614 157.76 285.279 159.968 282.495C161.732 280.293 164.941 264.533 166.385 255.171C166.857 252.138 168.288 249.936 168.066 248.676C167.719 246.695 163.441 247.152 158.746 246.418C154.537 245.767 150.565 245.116 148.842 244.77C140.911 243.164 125.008 239.535 118.993 238.372C109.521 236.544 100.978 235.048 98.5338 237.458C95.3808 240.56 92.589 255.78 91.9917 261.943C91.5889 266.333 96.6031 266.846 107.979 270.46Z" fill="#BD6D86"/>
<path fill-rule="evenodd" clip-rule="evenodd" d="M114.104 257.581C112.785 260.807 111.854 262.871 112.91 269.2C113.562 272.191 113.326 274.366 116.604 274.934C117.757 276.388 119.063 277.011 120.188 276.845C120.841 278.493 122.827 279.379 124.813 279.559C125.855 280.515 127.466 281.443 130.05 281.276C130.647 281.498 132.036 282.758 133.758 282.911C134.73 282.994 135.467 282.287 136.244 281.844C136.953 281.443 139.314 280.709 139.62 280.085C139.05 280.016 138.217 279.781 137.842 279.684C136.092 279.268 135.133 278.507 133.994 277.856C133.564 276.831 132.869 274.961 132.258 273.895C133.008 272.205 133.23 271.097 133.716 270.71C134.772 269.865 137.842 273.341 138.467 274.269C139.397 275.64 140.092 276.928 141.481 277.62C142.995 278.382 145.62 279.047 146.551 277.856C148.231 275.709 145.814 274.283 142.661 270.557C141.786 269.519 140.828 268.743 139.925 267.621C139.383 266.956 138.786 266.278 137.606 264.297C137.008 263.286 136.272 262.871 134.772 261.029C133.453 259.409 132.828 257.691 131.23 256.099C128.424 253.301 125.591 253.564 123.758 251.044C121.438 247.831 121.896 243.718 118.327 238.026L110.146 241.128C111.757 246.944 112.965 251.681 114.104 257.581Z" fill="#F4CFBA"/>
<path fill-rule="evenodd" clip-rule="evenodd" d="M121.466 246.612C120.632 239.646 117.993 223.29 117.007 216.365C113.993 195.079 112.41 201.311 108.562 184.706C104.201 151.357 104.951 138.921 100.673 116.693C98.8255 109.298 94.1446 93.9943 86.8525 86.9035C82.8662 87.5821 81.1577 94.1604 80.6438 98.5229C79.491 108.217 80.6716 123.659 82.8106 136.151C85.6858 152.895 88.5471 162.811 91.0194 176.341C91.8528 180.856 90.9639 184.346 91.3945 187.31C91.8111 188.916 93.2279 190.426 93.9085 193.016C96.7142 203.569 97.7143 211.643 99.7422 216.587C103.02 224.578 109.84 241.862 112.562 250.019L121.466 246.612Z" fill="#F4CFBA"/>
<path fill-rule="evenodd" clip-rule="evenodd" d="M136.217 62.9998C133.314 66.2821 131.147 67.7639 127.994 67.7639C124.841 67.7639 122.827 65.8666 119.41 62.252C116.132 58.8035 112.173 54.6626 110.812 49.1784C109.784 45.0375 111.41 43.0155 110.409 37.3789C109.396 31.6176 108.465 25.524 109.896 19.6935C111.493 13.1844 120.132 9.44512 128.688 9.65286C136.731 9.84675 144.717 13.586 146.217 19.6935C147.648 25.524 146.731 31.6038 145.703 37.3789C144.703 43.0155 146.328 45.0375 145.314 49.1784C143.967 54.6765 139.884 58.8312 136.217 62.9998Z" fill="#F4CFBA"/>
<path fill-rule="evenodd" clip-rule="evenodd" d="M137.008 13.7522C125.424 9.79135 123.202 26.2996 111.854 39.8163C106.451 46.2423 104.618 54.3995 107.104 60.507C109.229 65.742 114.479 62.2658 116.521 74.9932L116.507 78.5109C113.771 68.6918 105.006 70.1045 99.5616 65.6589C94.7697 61.7257 90.575 54.1225 92.7418 42.9185C94.8252 31.9916 102.895 24.9285 103.895 18.6548C106.465 2.4513 124.271 -4.12705 137.231 2.64519C138.022 4.0024 138.328 5.04109 138.356 6.57835C138.37 7.63088 137.467 8.76652 137.495 10.1791C137.508 11.8964 136.939 11.7995 137.008 13.7522Z" fill="url(#paint0_linear_13_229)"/>
<path fill-rule="evenodd" clip-rule="evenodd" d="M111.118 39.2901C110.771 40.5226 110.798 41.7275 110.673 43.0155C110.479 45.0098 110.298 47.101 110.798 49.0814C111.687 52.613 113.826 55.9506 116.077 58.6096C117.215 60.3962 120.007 64.5094 118.841 74.7993C116.965 59.316 98.1032 60.3131 111.118 39.2901Z" fill="#030000"/>
<path fill-rule="evenodd" clip-rule="evenodd" d="M137.231 2.64518C139.05 2.06352 142.203 1.70344 144.356 2.38205C148.37 3.62847 151.329 6.66144 153.662 10.8993C155.857 14.8601 158.329 19.5827 159.635 24.693C161.357 31.4376 159.468 37.5312 159.788 44.1927C160.038 49.5107 162.052 53.1254 162.232 57.3355C162.302 58.8312 164.691 62.0581 162.482 66.2544C163.26 70.049 163.274 73.8437 161.954 75.7965C159.968 78.7325 158.024 80.4775 155.579 82.1809C157.968 84.0921 158.44 86.7096 157.676 88.967C157.273 90.1303 156.593 91.1552 155.912 92.5262L157.607 94.756L157.468 99.0492L155.982 101.237L153.954 103.162L154.426 107.691L152.468 112.76L149.801 116.167L150.009 117.344L154.884 121.291L155.121 124.933L152.509 135.763L151.731 142.757L150.009 141.068L144.898 133.603L144.564 122.233L148.787 117.136L148.148 116.568L144.801 113.189L144.425 109.339L145.842 107.109L145.537 106.195L144.078 102.013L144.926 98.7445L144.787 94.936L144.953 90.4766L145.787 89.6872C144.967 89.6872 144.495 89.6041 144.564 89.3963C142.731 88.6623 140.37 81.9316 142.05 78.6078C137.8 76.115 137.022 69.1073 138.258 66.0743C140.967 59.4544 145.176 60.2023 143.231 54.2056C144.912 51.5327 145.426 45.6607 145.412 40.3841C145.384 30.0942 143.162 17.7131 137.022 13.7522L136.981 9.98524L137.425 6.86918L137.231 2.64518Z" fill="url(#paint1_linear_13_229)"/>
<path d="M151.843 118.313C152.898 117.635 152.509 115.419 151.94 114.99C150.954 114.242 146.731 114.449 145.634 115.17C145.12 115.502 144.842 116.125 144.981 116.998C145.189 118.244 145.953 118.48 146.731 118.66C148.051 118.964 149.69 118.798 151.093 118.549C151.384 118.48 151.579 118.48 151.843 118.313Z" fill="#460404"/>
<path fill-rule="evenodd" clip-rule="evenodd" d="M149.551 114.297C150.065 115.267 150.301 117.773 149.426 119.629L149.342 119.74C148.801 117.524 148.815 116.25 148.926 113.868L145.509 114.602C145.176 115.793 145.134 117.524 145.676 119.851L147.815 122.482L151.259 120.183L152.287 116.762L151.204 114.283L149.551 114.297Z" fill="#460404"/>
<path fill-rule="evenodd" clip-rule="evenodd" d="M150.204 114.159C150.717 115.128 150.954 117.635 150.079 119.491L148.44 120.017C147.898 117.801 147.926 116.527 148.023 114.145L146.134 114.463C145.801 115.654 145.759 117.385 146.301 119.712L148.467 122.343L151.912 120.045L152.94 116.624L151.856 114.145L150.204 114.159Z" fill="#460404"/>
<path fill-rule="evenodd" clip-rule="evenodd" d="M151.051 114.422C151.565 115.391 151.801 117.385 150.926 119.241L147.828 120.197C147.287 117.981 147.315 116.707 147.412 114.325L146.787 114.394C146.453 115.585 146.412 117.316 146.953 119.643L149.037 122.177L152.482 119.878L153.509 116.458L152.426 114.491L151.051 114.422Z" fill="#460404"/>
<path fill-rule="evenodd" clip-rule="evenodd" d="M147.176 116.693C147.217 117.482 147.148 118.133 147.037 118.147C146.926 118.161 146.814 117.524 146.773 116.735C146.745 115.945 146.801 115.294 146.912 115.28C147.023 115.267 147.148 115.904 147.176 116.693Z" fill="#460404"/>
<path fill-rule="evenodd" clip-rule="evenodd" d="M152.19 116.582C152.231 117.372 152.162 118.023 152.051 118.036C151.94 118.05 151.829 117.413 151.787 116.624C151.759 115.834 151.815 115.183 151.926 115.17C152.051 115.156 152.162 115.793 152.19 116.582Z" fill="#460404"/>
<path fill-rule="evenodd" clip-rule="evenodd" d="M139.564 2.14662C144.467 2.5067 147.356 3.96086 149.37 6.6199C152.829 11.1763 154.287 19.5135 155.621 25.247C153.551 18.821 153.259 18.184 147.578 12.0765C145.495 9.83291 143.62 7.60319 141.786 5.06879C141.009 8.87731 141.495 10.3038 143.884 13.7661C147.481 18.9734 150.551 19.2642 151.759 27.2967C149.801 20.0951 146.384 18.2809 141.495 13.8076C140.231 12.6443 139.481 10.9962 138.772 9.47283L139.272 4.88876L139.564 2.14662Z" fill="#120406"/>
<path fill-rule="evenodd" clip-rule="evenodd" d="M175.15 197.905C177.289 197.032 178.636 196.713 180.9 196.215L180.955 195.966C178.941 196.243 177.316 196.672 175.15 197.905Z" fill="#DB9970"/>
<path fill-rule="evenodd" clip-rule="evenodd" d="M172.552 205.992C172.83 205.522 172.844 205.397 173.219 205.037C173.899 204.372 175.163 203.486 176.122 202.779C176.594 202.433 176.677 202.392 177.219 202.142L180.4 200.757L180.428 200.231L177.191 201.755C176.636 202.018 176.483 202.101 175.997 202.447C174.9 203.223 173.677 204.04 173.066 204.774C172.761 205.161 172.802 205.369 172.552 205.992Z" fill="#DB9970"/>
<g opacity="0.8" clip-path="url(#clip1_13_229)">
<path d="M126.501 138C132.311 138 137.007 142.706 137 148.521C136.993 154.309 132.292 159 126.499 159C120.689 159 115.993 154.294 115.999 148.479C116.006 142.692 120.707 138 126.501 138ZM126.51 139.643C121.636 139.638 117.657 143.6 117.643 148.469C117.629 153.361 121.601 157.351 126.49 157.356C131.364 157.361 135.344 153.399 135.358 148.53C135.371 143.637 131.4 139.648 126.51 139.643Z" fill="white"/>
<path d="M125.594 146.31C126.507 145.98 127.35 145.676 128.276 145.343C128.105 145.997 127.956 146.585 127.795 147.17C127.752 147.325 127.591 147.335 127.465 147.381C126.773 147.635 126.082 147.894 125.386 148.136C125.174 148.21 125.051 148.309 124.992 148.543C124.69 149.734 124.374 150.923 124.045 152.107C123.965 152.396 124.052 152.442 124.321 152.441C126.631 152.433 128.942 152.446 131.251 152.427C131.655 152.423 131.711 152.533 131.585 152.88C131.479 153.175 131.403 153.482 131.342 153.79C131.295 154.026 131.178 154.084 130.947 154.083C128.022 154.075 125.097 154.074 122.172 154.084C121.868 154.085 121.846 153.991 121.915 153.736C122.31 152.272 122.694 150.806 123.082 149.341C123.109 149.238 123.166 149.138 123.108 148.973C122.283 149.269 121.46 149.565 120.557 149.889C120.731 149.231 120.886 148.642 121.046 148.055C121.084 147.914 121.229 147.902 121.34 147.861C122.006 147.615 122.67 147.361 123.343 147.138C123.604 147.051 123.735 146.916 123.805 146.644C124.214 145.043 124.651 143.449 125.062 141.849C125.131 141.577 125.233 141.454 125.528 141.479C125.854 141.506 126.185 141.498 126.512 141.48C126.8 141.465 126.854 141.548 126.777 141.831C126.395 143.227 126.034 144.628 125.667 146.029C125.648 146.093 125.632 146.158 125.594 146.31Z" fill="white"/>
</g>
<g opacity="0.8" clip-path="url(#clip2_13_229)">
<path d="M151.99 158C157.527 157.997 162.003 162.473 162 168.009C161.997 173.524 157.524 177.997 152.01 177.999C146.475 178.003 141.998 173.525 142 167.99C142.002 162.475 146.476 158.003 151.99 158ZM143.252 167.978C143.241 172.8 147.159 176.736 151.979 176.748C156.8 176.759 160.737 172.842 160.748 168.022C160.759 163.2 156.842 159.263 152.021 159.253C147.2 159.241 143.262 163.158 143.252 167.978Z" fill="white"/>
<path d="M155.125 166.287C155.121 166.748 154.92 167.316 154.485 167.781C154.321 167.956 154.335 168.043 154.486 168.22C155.558 169.472 155.251 171.245 153.821 172.056C153.62 172.17 153.539 172.289 153.56 172.51C153.575 172.678 153.571 172.849 153.558 173.017C153.53 173.378 153.257 173.631 152.921 173.621C152.6 173.613 152.35 173.364 152.314 173.022C152.249 172.374 152.249 172.374 151.575 172.375C151.075 172.375 151.075 172.375 151.063 172.896C151.052 173.344 150.801 173.629 150.425 173.622C150.061 173.615 149.825 173.341 149.812 172.911C149.797 172.375 149.797 172.375 149.275 172.375C149.04 172.375 148.806 172.384 148.572 172.372C148.204 172.354 147.946 172.097 147.94 171.761C147.933 171.422 148.184 171.16 148.548 171.126C149.186 171.068 149.186 171.068 149.186 170.417C149.186 168.712 149.178 167.008 149.193 165.303C149.197 164.978 149.14 164.803 148.776 164.874C148.701 164.888 148.619 164.88 148.542 164.872C148.183 164.839 147.929 164.567 147.939 164.232C147.948 163.908 148.192 163.65 148.539 163.631C148.863 163.614 149.19 163.609 149.514 163.629C149.764 163.645 149.84 163.55 149.813 163.317C149.8 163.201 149.804 163.082 149.815 162.966C149.849 162.622 150.104 162.381 150.429 162.377C150.751 162.373 151.012 162.614 151.058 162.952C151.087 163.167 150.956 163.466 151.129 163.576C151.299 163.684 151.583 163.596 151.812 163.629C152.218 163.688 152.35 163.539 152.32 163.128C152.286 162.668 152.547 162.386 152.922 162.378C153.31 162.369 153.583 162.664 153.553 163.141C153.525 163.581 153.636 163.856 154.049 164.098C154.747 164.505 155.12 165.304 155.125 166.287ZM150.439 166.131C150.439 166.468 150.443 166.806 150.436 167.144C150.433 167.304 150.479 167.379 150.655 167.377C151.343 167.369 152.032 167.394 152.72 167.363C153.378 167.334 153.875 166.77 153.872 166.12C153.869 165.468 153.368 164.913 152.709 164.885C152.035 164.858 151.358 164.882 150.683 164.873C150.5 164.871 150.429 164.93 150.436 165.117C150.447 165.455 150.439 165.793 150.439 166.131ZM151.725 168.627C151.725 168.627 151.725 168.627 151.725 168.626C151.388 168.626 151.05 168.634 150.712 168.623C150.523 168.616 150.43 168.659 150.434 168.876C150.446 169.539 150.446 170.201 150.434 170.863C150.431 171.071 150.503 171.13 150.704 171.127C151.353 171.117 152.003 171.136 152.651 171.119C153.353 171.099 153.88 170.541 153.872 169.859C153.864 169.194 153.344 168.659 152.661 168.63C152.35 168.616 152.037 168.627 151.725 168.627Z" fill="white"/>
</g>
<g opacity="0.8" clip-path="url(#clip3_13_229)">
<path d="M130.99 179C136.527 178.997 141.003 183.473 141 189.009C140.997 194.524 136.524 198.997 131.01 198.999C125.475 199.003 120.998 194.525 121 188.99C121.002 183.475 125.476 179.003 130.99 179ZM122.252 188.978C122.241 193.8 126.159 197.736 130.979 197.748C135.8 197.759 139.737 193.842 139.748 189.022C139.759 184.2 135.842 180.263 131.021 180.253C126.2 180.241 122.262 184.158 122.252 188.978Z" fill="white"/>
<path d="M130.999 182.248C131.071 182.355 131.132 182.436 131.185 182.523C132.525 184.753 133.861 186.985 135.204 189.213C135.314 189.395 135.357 189.531 135.216 189.734C133.843 191.696 132.484 193.667 131.121 195.635C131.092 195.676 131.056 195.713 131.023 195.751C130.895 195.723 130.866 195.612 130.811 195.533C129.475 193.609 128.145 191.682 126.807 189.759C126.683 189.582 126.647 189.453 126.774 189.245C128.143 186.987 129.497 184.721 130.857 182.457C130.895 182.393 130.94 182.334 130.999 182.248ZM128.28 189.186C129.156 189.576 130.011 189.951 130.86 190.337C131.004 190.403 131.11 190.35 131.227 190.298C131.963 189.972 132.693 189.633 133.435 189.323C133.691 189.216 133.69 189.122 133.558 188.905C132.754 187.586 131.965 186.257 131.167 184.935C131.119 184.856 131.102 184.735 130.96 184.722C130.073 186.199 129.185 187.678 128.28 189.186ZM132.746 191.083C132.73 191.062 132.715 191.04 132.7 191.018C132.359 191.169 132.003 191.291 131.682 191.476C131.226 191.74 130.811 191.77 130.345 191.488C130.015 191.288 129.636 191.167 129.175 190.965C129.822 191.901 130.398 192.733 131.001 193.605C131.596 192.743 132.171 191.914 132.746 191.083Z" fill="white"/>
</g>
<g opacity="0.8" clip-path="url(#clip4_13_229)">
<path d="M148.49 207C154.303 206.997 159.003 211.697 159 217.51C158.997 223.3 154.301 227.997 148.51 227.999C142.699 228.003 137.998 223.302 138 217.489C138.002 211.699 142.699 207.003 148.49 207ZM139.315 217.477C139.303 222.54 143.417 226.673 148.477 226.685C153.54 226.697 157.674 222.584 157.685 217.523C157.697 212.46 153.585 208.326 148.523 208.316C143.46 208.303 139.326 212.416 139.315 217.477Z" fill="white"/>
<path d="M151.782 215.701C151.777 216.185 151.566 216.781 151.109 217.27C150.937 217.454 150.952 217.545 151.111 217.73C152.236 219.045 151.914 220.907 150.412 221.759C150.201 221.878 150.116 222.003 150.138 222.235C150.154 222.412 150.15 222.591 150.136 222.768C150.107 223.147 149.819 223.412 149.467 223.403C149.13 223.393 148.867 223.133 148.83 222.773C148.761 222.093 148.761 222.093 148.054 222.093C147.529 222.093 147.529 222.093 147.516 222.64C147.505 223.111 147.241 223.411 146.847 223.403C146.464 223.396 146.217 223.108 146.203 222.656C146.186 222.094 146.186 222.094 145.638 222.094C145.392 222.094 145.146 222.103 144.901 222.091C144.514 222.071 144.243 221.802 144.237 221.449C144.229 221.094 144.493 220.818 144.876 220.783C145.546 220.721 145.546 220.721 145.546 220.038C145.546 218.248 145.537 216.458 145.553 214.669C145.556 214.326 145.497 214.144 145.114 214.217C145.036 214.232 144.95 214.224 144.869 214.216C144.492 214.181 144.226 213.896 144.236 213.543C144.246 213.204 144.502 212.932 144.866 212.912C145.206 212.894 145.55 212.889 145.889 212.911C146.152 212.927 146.232 212.827 146.204 212.583C146.19 212.461 146.195 212.337 146.206 212.214C146.241 211.853 146.509 211.6 146.85 211.596C147.189 211.592 147.463 211.844 147.511 212.2C147.541 212.425 147.404 212.739 147.586 212.855C147.764 212.968 148.062 212.876 148.303 212.911C148.729 212.972 148.868 212.816 148.836 212.384C148.801 211.902 149.075 211.605 149.468 211.597C149.875 211.588 150.162 211.897 150.13 212.398C150.101 212.86 150.218 213.149 150.651 213.403C151.385 213.83 151.776 214.669 151.782 215.701ZM146.861 215.537C146.861 215.891 146.866 216.247 146.858 216.601C146.855 216.769 146.903 216.848 147.088 216.845C147.811 216.837 148.534 216.863 149.256 216.831C149.947 216.801 150.469 216.209 150.466 215.526C150.463 214.842 149.937 214.258 149.244 214.23C148.536 214.201 147.826 214.226 147.117 214.217C146.925 214.214 146.851 214.276 146.857 214.473C146.869 214.828 146.861 215.183 146.861 215.537ZM148.212 218.159C148.212 218.158 148.212 218.158 148.212 218.157C147.857 218.157 147.502 218.165 147.148 218.154C146.949 218.147 146.852 218.191 146.856 218.42C146.868 219.116 146.868 219.811 146.856 220.506C146.852 220.724 146.928 220.787 147.139 220.783C147.82 220.773 148.503 220.793 149.184 220.774C149.921 220.754 150.474 220.168 150.466 219.452C150.458 218.753 149.911 218.191 149.194 218.161C148.867 218.147 148.539 218.159 148.212 218.159Z" fill="white"/>
</g>
<g opacity="0.8" clip-path="url(#clip5_13_229)">
<path d="M180.49 230C186.303 229.997 191.003 234.473 191 240.009C190.997 245.524 186.301 249.997 180.51 249.999C174.699 250.003 169.998 245.525 170 239.99C170.002 234.475 174.699 230.003 180.49 230ZM171.315 239.978C171.303 244.8 175.417 248.736 180.477 248.748C185.54 248.759 189.674 244.842 189.685 240.022C189.697 235.2 185.585 231.263 180.523 231.253C175.46 231.241 171.326 235.158 171.315 239.978Z" fill="white"/>
<path d="M180.499 233.248C180.575 233.355 180.639 233.436 180.694 233.523C182.101 235.753 183.504 237.985 184.914 240.213C185.029 240.395 185.075 240.531 184.927 240.734C183.485 242.696 182.058 244.667 180.627 246.635C180.596 246.676 180.559 246.713 180.524 246.751C180.39 246.723 180.359 246.612 180.302 246.533C178.899 244.609 177.502 242.682 176.097 240.759C175.968 240.582 175.93 240.453 176.063 240.245C177.5 237.987 178.922 235.721 180.349 233.457C180.39 233.393 180.437 233.334 180.499 233.248ZM177.644 240.186C178.564 240.576 179.461 240.951 180.353 241.337C180.504 241.403 180.615 241.35 180.738 241.298C181.511 240.972 182.278 240.633 183.057 240.323C183.325 240.216 183.325 240.122 183.186 239.905C182.342 238.586 181.513 237.257 180.675 235.935C180.625 235.856 180.607 235.735 180.458 235.722C179.527 237.199 178.594 238.678 177.644 240.186ZM182.333 242.083C182.317 242.062 182.301 242.04 182.285 242.018C181.927 242.169 181.553 242.291 181.217 242.476C180.737 242.74 180.301 242.77 179.812 242.488C179.465 242.288 179.067 242.167 178.583 241.965C179.263 242.901 179.868 243.733 180.501 244.605C181.126 243.743 181.73 242.914 182.333 242.083Z" fill="white"/>
</g>
</g>
<defs>
<linearGradient id="paint0_linear_13_229" x1="85.8223" y1="40.485" x2="65.6698" y2="41.1907" gradientUnits="userSpaceOnUse">
<stop stop-color="#170000"/>
<stop offset="1" stop-color="#260000"/>
</linearGradient>
<linearGradient id="paint1_linear_13_229" x1="277.794" y1="-97.447" x2="155.255" y2="59.8549" gradientUnits="userSpaceOnUse">
<stop/>
<stop offset="1" stop-color="#170000"/>
</linearGradient>
<clipPath id="clip0_13_229">
<rect width="228" height="581" fill="white"/>
</clipPath>
<clipPath id="clip1_13_229">
<rect width="21" height="21" fill="white" transform="translate(116 138)"/>
</clipPath>
<clipPath id="clip2_13_229">
<rect width="20" height="20" fill="white" transform="translate(142 158)"/>
</clipPath>
<clipPath id="clip3_13_229">
<rect width="20" height="20" fill="white" transform="translate(121 179)"/>
</clipPath>
<clipPath id="clip4_13_229">
<rect width="21" height="21" fill="white" transform="translate(138 207)"/>
</clipPath>
<clipPath id="clip5_13_229">
<rect width="21" height="20" fill="white" transform="translate(170 230)"/>
</clipPath>
</defs>
</svg>
