<svg width="56" height="57" viewBox="0 0 56 57" fill="none" xmlns="http://www.w3.org/2000/svg">
<g clip-path="url(#clip0_1_521)">
<path d="M2.42705 26.8007C1.97662 26.7788 1.69018 26.7591 1.40374 26.7504C0.470078 26.7219 0.00215362 26.2431 0.00215362 25.3072C0.00215362 22.2439 -0.00877918 19.1805 0.0087133 16.1193C0.015273 14.991 0.435093 14.6106 1.66175 14.6062C5.99989 14.5931 10.338 14.6018 14.6762 14.6018C15.7476 14.6018 16.8212 14.6018 18.0478 14.6018C16.7862 13.6725 15.6208 12.9379 14.6018 12.0392C11.545 9.34316 11.3745 4.84103 14.1579 2.02474C16.9065 -0.756567 21.5879 -0.701903 24.179 2.38989C25.7227 4.23316 26.8444 6.43066 28.1672 8.48602C28.2022 8.40512 28.2962 8.08151 28.4646 7.806C29.6191 5.92119 30.5746 3.86363 32.0003 2.2106C34.5389 -0.732515 39.1919 -0.686598 41.8682 2.0466C44.5839 4.82135 44.468 9.27318 41.5381 11.9124C40.4929 12.8526 39.2903 13.6179 38.0571 14.5406C38.3807 14.5625 38.6671 14.5975 38.9514 14.5975C43.9826 14.6018 49.0117 14.5975 54.043 14.6018C55.7201 14.604 55.9978 14.8905 55.9978 16.5872C56 19.104 55.9978 21.6185 55.9978 24.1352C55.9978 26.5273 55.9978 26.5273 53.5729 26.8706C53.5729 27.273 53.5729 27.6971 53.5729 28.1213C53.5729 36.7276 53.5729 45.3318 53.5707 53.9381C53.5707 55.6698 53.2471 56 51.5503 56C35.8399 56.0022 20.1273 56.0022 4.41682 56C2.7769 56 2.42924 55.6545 2.42924 54.0146C2.42705 45.4083 2.42705 36.8042 2.42705 28.1979C2.42705 27.7693 2.42705 27.3385 2.42705 26.8007ZM4.9241 53.4811C10.642 53.4811 16.2352 53.4811 21.8306 53.4811C21.8306 44.5533 21.8306 35.7087 21.8306 26.8225C16.1674 26.8225 10.5764 26.8225 4.9241 26.8225C4.9241 35.7306 4.9241 44.5708 4.9241 53.4811ZM51.0736 26.8335C45.3624 26.8335 39.7691 26.8335 34.1672 26.8335C34.1672 35.759 34.1672 44.6036 34.1672 53.4964C39.826 53.4964 45.4192 53.4964 51.0736 53.4964C51.0736 44.5927 51.0736 35.7524 51.0736 26.8335ZM24.4085 26.8138C24.4085 35.783 24.4085 44.6167 24.4085 53.4679C26.8553 53.4679 29.2277 53.4679 31.5914 53.4679C31.5914 44.5358 31.5914 35.7043 31.5914 26.8138C29.1731 26.8138 26.8247 26.8138 24.4085 26.8138ZM21.8371 24.2883C21.8371 21.8415 21.8371 19.4932 21.8371 17.1273C15.3496 17.1273 8.92769 17.1273 2.5167 17.1273C2.5167 19.5631 2.5167 21.9115 2.5167 24.2883C8.9758 24.2883 15.3496 24.2883 21.8371 24.2883ZM53.492 24.2839C53.492 21.8175 53.492 19.4691 53.492 17.0989C47.0154 17.0989 40.6175 17.0989 34.1934 17.0989C34.1934 19.5325 34.1934 21.9049 34.1934 24.2839C40.6612 24.2839 47.0351 24.2839 53.492 24.2839ZM26.8772 14.6456C26.1447 10.3446 24.9617 6.52468 21.9399 3.57064C20.2103 1.88042 17.4793 2.07284 15.8482 3.79804C14.1842 5.55603 14.1623 8.2783 15.9772 9.98382C18.9465 12.7739 22.6221 14.0268 26.8772 14.6456ZM29.1424 14.6346C33.1439 14.088 36.5746 12.8788 39.4958 10.4845C41.8004 8.59754 41.9994 5.61507 40.0578 3.69308C38.1423 1.79733 35.2451 2.02692 33.3406 4.27689C31.5433 6.40004 30.4741 8.90366 29.7612 11.5647C29.5098 12.5005 29.3742 13.4648 29.1424 14.6346ZM31.6089 17.1164C29.1315 17.1164 26.7853 17.1164 24.4064 17.1164C24.4064 19.5347 24.4064 21.8787 24.4064 24.2249C26.8509 24.2249 29.2212 24.2249 31.6089 24.2249C31.6089 21.8153 31.6089 19.4997 31.6089 17.1164Z" fill="#6E2A67"/>
</g>
<defs>
<clipPath id="clip0_1_521">
<rect width="56" height="56.0044" fill="white"/>
</clipPath>
</defs>
</svg>
