<svg xmlns="http://www.w3.org/2000/svg" width="31.584" height="43" viewBox="0 0 31.584 43">
  <g id="Layer_2" transform="translate(-5.3 -5.1)">
    <g id="Layer_3" transform="translate(5.3 5.1)">
      <path id="Контур_39" data-name="Контур 39" d="M36.313,36.367l-3.235-4a2.58,2.58,0,0,1-.507-1.522V22.6a11.549,11.549,0,0,0-8.372-11.1V8.271A3.18,3.18,0,0,0,21.029,5.1a3.222,3.222,0,0,0-3.171,3.171v3.171A11.531,11.531,0,0,0,9.486,22.6v8.245a2.581,2.581,0,0,1-.507,1.522l-3.235,4A2,2,0,0,0,5.3,37.572v5.01H36.884v-5.01A3.536,3.536,0,0,0,36.313,36.367ZM19.7,8.271a1.268,1.268,0,1,1,2.537,0v2.854a8.932,8.932,0,0,0-2.6,0V8.271ZM34.855,40.616H7.076V37.572l3.235-4a4.2,4.2,0,0,0,.951-2.727V22.6a9.7,9.7,0,1,1,19.407,0v8.245a4.2,4.2,0,0,0,.951,2.727l3.235,4Z" transform="translate(-5.3 -5.1)" fill="#bfbfbf"/>
      <path id="Контур_40" data-name="Контур 40" d="M28,20.8v1.9a7.065,7.065,0,0,1,7.04,7.04h1.9A8.932,8.932,0,0,0,28,20.8Z" transform="translate(-13.603 -10.843)" fill="#bfbfbf"/>
      <path id="Контур_41" data-name="Контур 41" d="M27,68a3.275,3.275,0,0,1-3.3-3.3H21.8a5.2,5.2,0,1,0,10.4,0H30.3A3.275,3.275,0,0,1,27,68Z" transform="translate(-11.335 -26.901)" fill="#bfbfbf"/>
    </g>
  </g>
</svg>
