<svg xmlns="http://www.w3.org/2000/svg" width="34.961" height="37.892" viewBox="0 0 34.961 37.892">
  <g id="icon" transform="translate(-13.537)">
    <path id="Контур_22" data-name="Контур 22" d="M72.51,26.313c-6.978,0-12.445-11.188-12.445-25.471A.842.842,0,0,1,60.908,0H84.113a.842.842,0,0,1,.842.842C84.955,15.125,79.489,26.313,72.51,26.313ZM61.757,1.684C61.966,14.207,66.8,24.629,72.51,24.629S83.055,14.207,83.264,1.684Z" transform="translate(-41.492)" fill="#bfbfbf"/>
    <path id="Контур_23" data-name="Контур 23" d="M234.224,44.934a.842.842,0,0,1-.277-1.638c5.051-1.758,8.636-7.8,8.9-14.856h-4.178a.842.842,0,0,1,0-1.684h5.036a.842.842,0,0,1,.842.842c0,8.121-4.132,15.23-10.048,17.289A.83.83,0,0,1,234.224,44.934Z" transform="translate(-196.051 -23.86)" fill="#bfbfbf"/>
    <path id="Контур_24" data-name="Контур 24" d="M23.863,44.934a.838.838,0,0,1-.277-.047C17.669,42.829,13.537,35.719,13.537,27.6a.842.842,0,0,1,.842-.842h5.036a.842.842,0,1,1,0,1.684H15.237c.265,7.059,3.851,13.1,8.9,14.856a.842.842,0,0,1-.277,1.638Z" transform="translate(0 -23.86)" fill="#bfbfbf"/>
    <path id="Контур_25" data-name="Контур 25" d="M149.632,230.919h-5.105a.842.842,0,0,1-.842-.842v-7.228a.842.842,0,1,1,1.684,0v6.386h3.421v-6.387a.842.842,0,0,1,1.684,0v7.229A.842.842,0,0,1,149.632,230.919Z" transform="translate(-116.062 -197.978)" fill="#bfbfbf"/>
    <path id="Контур_26" data-name="Контур 26" d="M118.787,295.432H105.16a.842.842,0,0,1-.842-.842v-2.335a3.461,3.461,0,0,1,3.457-3.457h8.4a3.461,3.461,0,0,1,3.457,3.457v2.335A.842.842,0,0,1,118.787,295.432ZM106,293.748h11.942v-1.493a1.776,1.776,0,0,0-1.773-1.773h-8.4A1.776,1.776,0,0,0,106,292.255Z" transform="translate(-80.956 -257.541)" fill="#bfbfbf"/>
    <path id="Контур_27" data-name="Контур 27" d="M105.928,336.224H88.748a.842.842,0,0,1,0-1.684h17.179a.842.842,0,0,1,0,1.684Z" transform="translate(-66.32 -298.332)" fill="#bfbfbf"/>
  </g>
</svg>
