<svg xmlns="http://www.w3.org/2000/svg" width="33.594" height="43" viewBox="0 0 33.594 43">
  <g id="files" transform="translate(0)">
    <path id="Контур_63" data-name="Контур 63" d="M60.84,181.68a.84.84,0,1,0-.84-.84A.84.84,0,0,0,60.84,181.68Zm0,0" transform="translate(-54.961 -164.883)" fill="#bfbfbf"/>
    <path id="Контур_64" data-name="Контур 64" d="M31.074,5.039h-2.52V2.52A2.522,2.522,0,0,0,26.035,0H11.613A2.529,2.529,0,0,0,9.832.738L.738,9.832A2.53,2.53,0,0,0,0,11.613V34.938a2.522,2.522,0,0,0,2.52,2.52h2.52V40.48A2.522,2.522,0,0,0,7.559,43H31.074a2.522,2.522,0,0,0,2.52-2.52V7.559a2.522,2.522,0,0,0-2.52-2.52Zm-21-2.171v7.211H2.867ZM2.52,35.777a.841.841,0,0,1-.84-.84V11.758h9.238a.84.84,0,0,0,.84-.84V1.68H26.035a.841.841,0,0,1,.84.84V34.937a.841.841,0,0,1-.84.84Zm29.395,4.7a.841.841,0,0,1-.84.84H7.559a.841.841,0,0,1-.84-.84V37.457H26.035a2.522,2.522,0,0,0,2.52-2.52V6.719h2.52a.841.841,0,0,1,.84.84Zm0,0" fill="#bfbfbf"/>
    <path id="Контур_65" data-name="Контур 65" d="M187.559,60H180.84a.84.84,0,0,0-.84.84v5.039a.84.84,0,0,0,.84.84h6.719a.84.84,0,0,0,.84-.84V60.84A.84.84,0,0,0,187.559,60Zm-.84,5.039H181.68V61.68h5.039Zm0,0" transform="translate(-164.883 -54.961)" fill="#bfbfbf"/>
    <path id="Контур_66" data-name="Контур 66" d="M114.277,180H100.84a.84.84,0,0,0,0,1.68h13.438a.84.84,0,0,0,0-1.68Zm0,0" transform="translate(-91.602 -164.883)" fill="#bfbfbf"/>
    <path id="Контур_67" data-name="Контур 67" d="M77.637,240H60.84a.84.84,0,0,0,0,1.68h16.8a.84.84,0,0,0,0-1.68Zm0,0" transform="translate(-54.961 -219.844)" fill="#bfbfbf"/>
    <path id="Контур_68" data-name="Контур 68" d="M77.637,300H60.84a.84.84,0,0,0,0,1.68h16.8a.84.84,0,0,0,0-1.68Zm0,0" transform="translate(-54.961 -274.805)" fill="#bfbfbf"/>
    <path id="Контур_69" data-name="Контур 69" d="M77.637,360H60.84a.84.84,0,0,0,0,1.68h16.8a.84.84,0,0,0,0-1.68Zm0,0" transform="translate(-54.961 -329.766)" fill="#bfbfbf"/>
  </g>
</svg>
