<svg xmlns="http://www.w3.org/2000/svg" width="31.282" height="31.28" viewBox="0 0 31.282 31.28">
  <g id="gift" transform="translate(0 -0.013)">
    <path id="Контур_21" data-name="Контур 21" d="M28.471,5.388H21.38a3.421,3.421,0,0,0-5.226-4.374,2.731,2.731,0,0,0-.513.733,2.733,2.733,0,0,0-.513-.733A3.421,3.421,0,0,0,9.9,5.388H2.81A2.814,2.814,0,0,0,0,8.2v2.2a2.815,2.815,0,0,0,1.955,2.677V28.482a2.814,2.814,0,0,0,2.81,2.81h21.75a2.814,2.814,0,0,0,2.81-2.81V13.075A2.815,2.815,0,0,0,31.282,10.4V8.2A2.814,2.814,0,0,0,28.471,5.388ZM16.618,11.253H14.663V7.343h1.955Zm.23-6.693c.3-1.737.65-2.126.688-2.164A1.466,1.466,0,0,1,19.61,4.469c-.038.038-.425.384-2.149.686-.251.044-.5.081-.722.111C16.77,5.045,16.806,4.806,16.848,4.56ZM11.671,2.4a1.468,1.468,0,0,1,2.074,0c.038.038.384.425.686,2.149.044.251.081.5.111.722-.221-.03-.46-.066-.706-.108-1.737-.3-2.126-.65-2.164-.688a1.468,1.468,0,0,1,0-2.074ZM1.955,8.2a.856.856,0,0,1,.855-.855h9.9v3.91H2.81a.856.856,0,0,1-.855-.855ZM3.91,28.482V13.208h8.8v16.13H4.766A.856.856,0,0,1,3.91,28.482Zm10.753.855V13.208h1.955v16.13Zm12.708-.855a.856.856,0,0,1-.855.855H18.573V13.208h8.8ZM29.326,10.4a.856.856,0,0,1-.855.855h-9.9V7.343h9.9a.856.856,0,0,1,.855.855Z" fill="#bfbfbf"/>
  </g>
</svg>
