<svg version="1.2" baseProfile="tiny-ps" xmlns="http://www.w3.org/2000/svg" viewBox="0 0 36 36" width="36" height="36">
	<title>iPhone 12 Pro Max – 1</title>
	<style>
		tspan { white-space:pre }
		.shp0 { fill: #ffffff } 
	</style>
	<g id="iPhone 12 Pro Max – 1">
		<g id="Group 15">
			<g id="speech-bubble-oval-symbol-with-three-dots_icon-icons.com_73151">
				<g id="_x33__18_" style="opacity: 0.8">
					<g id="Group 2">
						<path id="Path 3" fill-rule="evenodd" class="shp0" d="M35.51 16.72C35.22 25.09 27.22 31.61 17.66 31.27C16.55 31.24 15.47 31.1 14.43 30.89L6.68 35.23L6.94 27.56C3.08 24.64 0.69 20.3 0.86 15.51C1.15 7.14 9.15 0.62 18.71 0.96C28.28 1.29 35.8 8.35 35.51 16.72ZM33.34 16.65C33.59 9.47 27.01 3.42 18.64 3.12C10.27 2.83 3.28 8.41 3.03 15.59C2.87 19.99 5.3 23.96 9.12 26.45L8.88 31.47L14.09 28.58C15.25 28.88 16.47 29.07 17.73 29.11C26.1 29.4 33.09 23.82 33.34 16.65ZM29.01 16.5C28.97 17.69 27.97 18.63 26.77 18.58C25.57 18.54 24.64 17.54 24.68 16.34C24.72 15.15 25.73 14.21 26.92 14.25C28.12 14.3 29.05 15.3 29.01 16.5ZM11.69 15.89C11.65 17.09 10.64 18.02 9.45 17.98C8.25 17.94 7.32 16.94 7.36 15.74C7.4 14.54 8.4 13.61 9.6 13.65C10.8 13.69 11.73 14.69 11.69 15.89ZM20.35 16.19C20.31 17.39 19.3 18.32 18.11 18.28C16.91 18.24 15.98 17.24 16.02 16.04C16.06 14.84 17.06 13.91 18.26 13.95C19.46 13.99 20.39 15 20.35 16.19Z" />
					</g>
				</g>
			</g>
		</g>
	</g>
</svg>