<svg xmlns="http://www.w3.org/2000/svg" width="36" height="31.28" viewBox="0 0 36 31.28">
  <g id="_3643769_building_home_house_main_menu_icon" data-name="3643769_building_home_house_main_menu_icon" transform="translate(-1.07 -3)">
    <path id="Контур_16" data-name="Контур 16" d="M35.875,17.436a1.2,1.2,0,0,1-.7-.229L19.032,5.682,2.887,17.207a1.2,1.2,0,0,1-1.4-1.949L18.334,3.228a1.2,1.2,0,0,1,1.4,0L36.573,15.258a1.2,1.2,0,0,1-.7,2.178Z" transform="translate(0 0.001)" fill="#bfbfbf"/>
    <path id="Контур_17" data-name="Контур 17" d="M5.2,10.218A1.2,1.2,0,0,1,4,9.015V4.2A1.2,1.2,0,0,1,5.2,3h4.812a1.2,1.2,0,0,1,0,2.406H6.406V9.015A1.2,1.2,0,0,1,5.2,10.218Z" transform="translate(0.595 0)" fill="#bfbfbf"/>
    <path id="Контур_18" data-name="Контур 18" d="M29.265,31.843H23.249a1.2,1.2,0,0,1-1.2-1.2V22.218H14.828V30.64a1.2,1.2,0,0,1-1.2,1.2H7.609A3.609,3.609,0,0,1,4,28.234V16.2a1.2,1.2,0,0,1,2.406,0V28.234a1.2,1.2,0,0,0,1.2,1.2h4.812V21.015a1.2,1.2,0,0,1,1.2-1.2h9.625a1.2,1.2,0,0,1,1.2,1.2v8.422h4.812a1.2,1.2,0,0,0,1.2-1.2V16.2a1.2,1.2,0,1,1,2.406,0V28.234a3.609,3.609,0,0,1-3.609,3.609Z" transform="translate(0.595 2.437)" fill="#bfbfbf"/>
  </g>
</svg>
