<svg id="information_1_" data-name="information (1)" xmlns="http://www.w3.org/2000/svg" width="37.892" height="37.892" viewBox="0 0 37.892 37.892">
  <g id="Сгруппировать_10" data-name="Сгруппировать 10">
    <g id="Сгруппировать_9" data-name="Сгруппировать 9">
      <path id="Контур_45" data-name="Контур 45" d="M18.946,0A18.946,18.946,0,1,0,37.892,18.946,18.935,18.935,0,0,0,18.946,0Zm0,35.366a16.42,16.42,0,1,1,16.42-16.42A16.439,16.439,0,0,1,18.946,35.366Z" fill="#bfbfbf"/>
    </g>
  </g>
  <g id="Сгруппировать_12" data-name="Сгруппировать 12" transform="translate(17.683 15.525)">
    <g id="Сгруппировать_11" data-name="Сгруппировать 11">
      <path id="Контур_46" data-name="Контур 46" d="M240.193,209.777a1.263,1.263,0,0,0-1.263,1.263v10.655a1.263,1.263,0,1,0,2.526,0V211.04A1.263,1.263,0,0,0,240.193,209.777Z" transform="translate(-238.93 -209.777)" fill="#bfbfbf"/>
    </g>
  </g>
  <g id="Сгруппировать_14" data-name="Сгруппировать 14" transform="translate(16.42 9.186)">
    <g id="Сгруппировать_13" data-name="Сгруппировать 13">
      <path id="Контур_47" data-name="Контур 47" d="M224.393,124.122a2.526,2.526,0,1,0,2.526,2.526A2.529,2.529,0,0,0,224.393,124.122Z" transform="translate(-221.867 -124.122)" fill="#bfbfbf"/>
    </g>
  </g>
</svg>
