<svg xmlns="http://www.w3.org/2000/svg" width="37.892" height="37.892" viewBox="0 0 37.892 37.892">
  <g id="Layer_2" transform="translate(-27.5 -27.5)">
    <g id="Сгруппировать_7" data-name="Сгруппировать 7" transform="translate(27.5 27.5)">
      <path id="Контур_36" data-name="Контур 36" d="M46.446,27.5a18.947,18.947,0,1,0,13.4,5.549A18.82,18.82,0,0,0,46.446,27.5Zm0,35.239A16.293,16.293,0,1,1,62.739,46.446,16.311,16.311,0,0,1,46.446,62.739Z" transform="translate(-27.5 -27.5)" fill="#bfbfbf"/>
      <path id="Контур_37" data-name="Контур 37" d="M174.089,107.516a7.9,7.9,0,0,0-13.5,5.587,1.327,1.327,0,0,0,2.653,0,5.257,5.257,0,0,1,5.385-5.255,5.311,5.311,0,0,1,5.128,5.128,5.255,5.255,0,0,1-2.695,4.72,7.531,7.531,0,0,0-3.888,6.549,1.327,1.327,0,1,0,2.653-.007,4.873,4.873,0,0,1,2.529-4.226,7.9,7.9,0,0,0,1.732-12.5Z" transform="translate(-149.555 -98.751)" fill="#bfbfbf"/>
      <path id="Контур_38" data-name="Контур 38" d="M242.628,375.875c-.009-.042-.02-.085-.032-.126a1.244,1.244,0,0,0-.044-.122c-.017-.04-.035-.08-.055-.118s-.043-.075-.067-.111-.05-.071-.077-.105-.057-.066-.088-.1-.063-.06-.1-.087a1.175,1.175,0,0,0-.105-.077c-.036-.024-.073-.046-.111-.067s-.078-.039-.118-.056-.081-.031-.122-.043a1.133,1.133,0,0,0-.126-.032c-.043-.008-.086-.015-.129-.019a1.233,1.233,0,0,0-.26,0c-.043,0-.086.011-.129.019a1.131,1.131,0,0,0-.126.032c-.041.012-.082.027-.122.043s-.08.036-.118.056-.075.043-.111.067a1.181,1.181,0,0,0-.105.077c-.033.027-.065.057-.1.087s-.061.064-.088.1-.053.069-.077.105-.046.073-.067.111a1.269,1.269,0,0,0-.055.118,1.248,1.248,0,0,0-.044.122c-.013.041-.023.084-.032.126s-.015.086-.019.129-.007.087-.007.131,0,.087.007.13.011.086.019.129.019.085.032.126a1.27,1.27,0,0,0,.044.123,1.153,1.153,0,0,0,.055.117,1.242,1.242,0,0,0,.067.112,1.3,1.3,0,0,0,.165.2c.031.031.063.06.1.088s.069.053.105.077a1.167,1.167,0,0,0,.111.066,1.268,1.268,0,0,0,.118.056c.04.017.081.032.122.044s.084.023.126.032.086.015.129.019.087.007.13.007.087,0,.13-.007.086-.011.129-.019.085-.02.126-.032.082-.027.122-.044a1.163,1.163,0,0,0,.117-.056,1.177,1.177,0,0,0,.112-.066,1.312,1.312,0,0,0,.367-.367,1.249,1.249,0,0,0,.067-.112c.02-.037.038-.077.055-.117a1.27,1.27,0,0,0,.044-.123c.012-.041.023-.084.032-.126s.015-.085.019-.129.007-.087.007-.13,0-.087-.007-.131S242.636,375.917,242.628,375.875Z" transform="translate(-222.381 -346.011)" fill="#bfbfbf"/>
    </g>
  </g>
</svg>
