<svg xmlns="http://www.w3.org/2000/svg" width="41" height="42" viewBox="0 0 41 42">
  <g id="icon" transform="translate(-0.5)">
    <ellipse id="Эллипс_8" data-name="Эллипс 8" cx="20" cy="20.5" rx="20" ry="20.5" transform="translate(1 0.5)" fill="none" stroke="#00d3ff" stroke-linecap="round" stroke-miterlimit="1" stroke-width="1"/>
    <g id="Сгруппировать_6" data-name="Сгруппировать 6" transform="translate(9.317 11.499)">
      <g id="Сгруппировать_4" data-name="Сгруппировать 4">
        <path id="Контур_16" data-name="Контур 16" d="M29.948,8.345a10.281,10.281,0,0,1-2.956.811,5.162,5.162,0,0,0,2.263-2.848,10.346,10.346,0,0,1-3.27,1.25,5.152,5.152,0,0,0-8.773,4.694A14.616,14.616,0,0,1,6.6,6.873,5.154,5.154,0,0,0,8.2,13.745,5.131,5.131,0,0,1,5.864,13.1v.064a5.154,5.154,0,0,0,4.129,5.048,5.147,5.147,0,0,1-1.357.18,5.2,5.2,0,0,1-.969-.093,5.155,5.155,0,0,0,4.808,3.576,10.332,10.332,0,0,1-6.394,2.2,10.6,10.6,0,0,1-1.228-.072A14.641,14.641,0,0,0,27.392,11.673c0-.223,0-.446-.016-.667A10.377,10.377,0,0,0,29.948,8.345Z" transform="translate(-4.854 -5.932)" fill="none" stroke="#00d3ff" stroke-linecap="round" stroke-linejoin="round" stroke-miterlimit="1" stroke-width="0.107"/>
      </g>
      <g id="Сгруппировать_5" data-name="Сгруппировать 5">
        <path id="Контур_17" data-name="Контур 17" d="M29.948,8.345a10.281,10.281,0,0,1-2.956.811,5.162,5.162,0,0,0,2.263-2.848,10.346,10.346,0,0,1-3.27,1.25,5.152,5.152,0,0,0-8.773,4.694A14.616,14.616,0,0,1,6.6,6.873,5.154,5.154,0,0,0,8.2,13.745,5.131,5.131,0,0,1,5.864,13.1v.064a5.154,5.154,0,0,0,4.129,5.048,5.147,5.147,0,0,1-1.357.18,5.2,5.2,0,0,1-.969-.093,5.155,5.155,0,0,0,4.808,3.576,10.332,10.332,0,0,1-6.394,2.2,10.6,10.6,0,0,1-1.228-.072A14.641,14.641,0,0,0,27.392,11.673c0-.223,0-.446-.016-.667A10.377,10.377,0,0,0,29.948,8.345Z" transform="translate(-4.854 -5.932)" fill="none" stroke="#00d3ff" stroke-linecap="round" stroke-linejoin="round" stroke-miterlimit="1" stroke-width="1"/>
      </g>
    </g>
  </g>
</svg>
