<svg xmlns="http://www.w3.org/2000/svg" width="36.63" height="36.63" viewBox="0 0 36.63 36.63">
  <g id="Layer_1" transform="translate(-0.5 -0.5)">
    <path id="Контур_20" data-name="Контур 20" d="M18.815,1A17.8,17.8,0,0,0,6.938,32.079v.013l.258.223c.045.039.1.072.141.111q.48.405.988.777c.091.067.183.131.275.2q.539.379,1.1.719c.063.038.128.073.191.11.413.24.836.467,1.269.674l.013.006a17.7,17.7,0,0,0,2.906,1.081L14.14,36q.714.195,1.45.329l.137.024c.474.083.953.149,1.439.194l.166.013c.489.041.982.067,1.482.067s.992-.026,1.482-.067c.056,0,.111-.007.166-.013.486-.045.966-.111,1.439-.194l.137-.024q.736-.135,1.45-.329l.056-.016a17.7,17.7,0,0,0,2.906-1.081l.013-.006c.433-.207.856-.434,1.269-.674.064-.037.128-.072.191-.11.378-.226.745-.467,1.1-.719.092-.065.184-.129.275-.2q.508-.372.988-.777c.046-.039.1-.071.141-.111l.258-.223v-.013A17.8,17.8,0,0,0,18.815,1Zm0,17.815a5.938,5.938,0,1,1,5.938-5.938A5.945,5.945,0,0,1,18.815,18.815ZM21.042,20.3a8.175,8.175,0,0,1,8.165,8.165V31.4c-.031.026-.064.05-.1.076q-.44.357-.9.681c-.068.048-.135.1-.2.145-.332.226-.673.439-1.019.64l-.191.11c-.364.2-.734.4-1.112.571l-.12.054A16.34,16.34,0,0,1,21.7,34.886l-.127.023q-.631.108-1.273.167l-.177.013c-.433.033-.868.056-1.3.056s-.872-.022-1.3-.057l-.177-.013q-.641-.059-1.273-.167l-.127-.023a16.34,16.34,0,0,1-3.869-1.207l-.12-.054c-.378-.175-.748-.367-1.112-.571l-.191-.11c-.347-.2-.687-.413-1.019-.64-.069-.047-.136-.1-.2-.145-.307-.217-.608-.442-.9-.681-.031-.025-.064-.05-.1-.076V28.465A8.175,8.175,0,0,1,16.588,20.3Zm9.65,9.706V28.465a9.667,9.667,0,0,0-7.7-9.453,7.423,7.423,0,1,0-8.343,0,9.667,9.667,0,0,0-7.7,9.453v1.541a16.33,16.33,0,1,1,23.753,0Z" transform="translate(0 0)" fill="#bfbfbf" stroke="#bfbfbf" stroke-width="1"/>
  </g>
</svg>
