<svg xmlns="http://www.w3.org/2000/svg" width="42" height="42" viewBox="0 0 42 42">
  <g id="icon" transform="translate(0.052 0.207)">
    <circle id="Эллипс_3" data-name="Эллипс 3" cx="20.5" cy="20.5" r="20.5" transform="translate(0.448 0.293)" fill="none" stroke="#00d3ff" stroke-linecap="round" stroke-linejoin="round" stroke-miterlimit="1" stroke-width="1"/>
    <path id="Контур_13" data-name="Контур 13" d="M14.769,22.983a52.568,52.568,0,0,1-7.285-.35,3.256,3.256,0,0,1-1.671-.828,3.3,3.3,0,0,1-.792-1.454,9.087,9.087,0,0,1-.338-2.134,48.284,48.284,0,0,1,0-6.919c.151-1.278.224-2.8,1.227-3.68a3.352,3.352,0,0,1,1.643-.791c.966-.175,5.082-.313,9.343-.313s8.376.138,9.343.313a3.247,3.247,0,0,1,1.923,1.086,8.75,8.75,0,0,1,1.024,4.407c.038.635.038,4.241,0,4.877a10.663,10.663,0,0,1-.589,3.625,2.659,2.659,0,0,1-.677,1.031,3.3,3.3,0,0,1-1.72.837c-4.063.291-7.514.354-11.43.294Zm6.22-8.258c-2.261-1.15-3.956-2.217-6.227-3.321V18.01C17.033,16.8,19.134,15.7,21,14.716l-.009.009Z" transform="translate(3.82 5.902)" fill="none" stroke="#00d3ff" stroke-linecap="round" stroke-linejoin="round" stroke-miterlimit="1" stroke-width="1"/>
  </g>
</svg>
