<svg width="35" height="35" viewBox="0 0 35 35" fill="none" xmlns="http://www.w3.org/2000/svg">
<path d="M17.3645 34.321C13.9704 34.3211 10.6525 33.3148 7.83044 31.4292C5.00834 29.5436 2.80877 26.8635 1.5099 23.7277C0.211034 20.592 -0.128799 17.1416 0.533382 13.8127C1.19556 10.4839 2.83002 7.42617 5.23004 5.02625C8.4483 1.808 12.8132 -3.39098e-08 17.3645 0C21.9158 3.39098e-08 26.2807 1.808 29.4989 5.02625C32.7172 8.24451 34.5252 12.6094 34.5252 17.1607C34.5252 21.712 32.7172 26.0769 29.4989 29.2952C27.9091 30.8936 26.018 32.1609 23.9352 33.0236C21.8523 33.8863 19.619 34.3273 17.3645 34.321ZM17.3645 2.1452C14.3947 2.1452 11.4916 3.02585 9.02233 4.67577C6.55304 6.3257 4.62847 8.6708 3.49198 11.4145C2.35549 14.1582 2.05813 17.1774 2.63751 20.0901C3.21689 23.0028 4.64697 25.6783 6.74693 27.7783C8.84688 29.8782 11.5224 31.3083 14.4351 31.8877C17.3478 32.4671 20.367 32.1697 23.1107 31.0332C25.8544 29.8967 28.1995 27.9722 29.8494 25.5029C31.4994 23.0336 32.38 20.1305 32.38 17.1607C32.3755 13.1797 30.7921 9.36307 27.9771 6.54809C25.1621 3.73311 21.3455 2.14968 17.3645 2.1452Z" fill="#FF5064"/>
<path d="M21.2705 17.1607C21.8199 16.678 22.2366 16.0628 22.4811 15.3735C22.7256 14.6842 22.7896 13.9439 22.667 13.2229C22.5445 12.5019 22.2396 11.8243 21.7811 11.2544C21.3227 10.6846 20.7261 10.2416 20.0481 9.96748V8.58055C20.0523 8.43705 20.0277 8.29415 19.9758 8.16033C19.9238 8.0265 19.8455 7.90448 19.7455 7.80147C19.6455 7.69846 19.5258 7.61657 19.3936 7.56065C19.2614 7.50473 19.1193 7.47592 18.9757 7.47592C18.8321 7.47592 18.69 7.50473 18.5578 7.56065C18.4256 7.61657 18.3059 7.69846 18.2059 7.80147C18.1059 7.90448 18.0276 8.0265 17.9756 8.16033C17.9236 8.29415 17.899 8.43705 17.9033 8.58055V9.65342H15.7528V8.58055C15.7446 8.30163 15.628 8.0369 15.4278 7.84253C15.2275 7.64816 14.9595 7.53944 14.6804 7.53944C14.4014 7.53944 14.1333 7.64816 13.9331 7.84253C13.7329 8.0369 13.6163 8.30163 13.608 8.58055V9.65342H11.4632C11.1843 9.66168 10.9196 9.77829 10.7252 9.9785C10.5308 10.1787 10.4221 10.4468 10.4221 10.7258C10.4221 11.0049 10.5308 11.2729 10.7252 11.4731C10.9196 11.6734 11.1843 11.79 11.4632 11.7982H12.5361V22.5232H11.4632C11.1843 22.5314 10.9196 22.6481 10.7252 22.8483C10.5308 23.0485 10.4221 23.3165 10.4221 23.5956C10.4221 23.8746 10.5308 24.1427 10.7252 24.3429C10.9196 24.5431 11.1843 24.6597 11.4632 24.668H13.608V25.7409C13.6163 26.0198 13.7329 26.2845 13.9331 26.4789C14.1333 26.6733 14.4014 26.782 14.6804 26.782C14.9595 26.782 15.2275 26.6733 15.4278 26.4789C15.628 26.2845 15.7446 26.0198 15.7528 25.7409V24.668H17.8976V25.7409C17.8934 25.8844 17.918 26.0273 17.97 26.1611C18.022 26.2949 18.1003 26.4169 18.2003 26.5199C18.3003 26.623 18.4199 26.7048 18.5521 26.7608C18.6844 26.8167 18.8265 26.8455 18.97 26.8455C19.1136 26.8455 19.2557 26.8167 19.3879 26.7608C19.5202 26.7048 19.6398 26.623 19.7398 26.5199C19.8398 26.4169 19.9181 26.2949 19.9701 26.1611C20.0221 26.0273 20.0467 25.8844 20.0424 25.7409V24.3539C20.7205 24.0798 21.3171 23.6368 21.7755 23.067C22.2339 22.4971 22.5389 21.8195 22.6614 21.0985C22.7839 20.3775 22.7199 19.6372 22.4755 18.9479C22.231 18.2586 21.8142 17.6434 21.2648 17.1607H21.2705ZM14.6837 11.801H18.4374C19.0063 11.801 19.552 12.0271 19.9543 12.4294C20.3566 12.8317 20.5826 13.3774 20.5826 13.9463C20.5826 14.5153 20.3566 15.0609 19.9543 15.4633C19.552 15.8656 19.0063 16.0916 18.4374 16.0916H14.6837V11.801ZM18.4374 22.526H14.6837V18.2364H18.4374C19.0063 18.2364 19.552 18.4624 19.9543 18.8647C20.3566 19.2671 20.5826 19.8127 20.5826 20.3817C20.5826 20.9506 20.3566 21.4963 19.9543 21.8986C19.552 22.3009 19.0063 22.5269 18.4374 22.5269V22.526Z" fill="#FF5064"/>
<path d="M21.2705 17.1607C21.8199 16.678 22.2366 16.0628 22.4811 15.3735C22.7256 14.6842 22.7896 13.9439 22.667 13.2229C22.5445 12.5019 22.2396 11.8243 21.7811 11.2544C21.3227 10.6846 20.7261 10.2416 20.0481 9.96748V8.58055C20.0523 8.43705 20.0277 8.29415 19.9758 8.16033C19.9238 8.0265 19.8455 7.90448 19.7455 7.80147C19.6455 7.69846 19.5258 7.61657 19.3936 7.56065C19.2614 7.50473 19.1193 7.47592 18.9757 7.47592C18.8321 7.47592 18.69 7.50473 18.5578 7.56065C18.4256 7.61657 18.3059 7.69846 18.2059 7.80147C18.1059 7.90448 18.0276 8.0265 17.9756 8.16033C17.9236 8.29415 17.899 8.43705 17.9033 8.58055V9.65342H15.7528V8.58055C15.7446 8.30163 15.628 8.0369 15.4278 7.84253C15.2275 7.64816 14.9595 7.53944 14.6804 7.53944C14.4014 7.53944 14.1333 7.64816 13.9331 7.84253C13.7329 8.0369 13.6163 8.30163 13.608 8.58055V9.65342H11.4632C11.1843 9.66168 10.9196 9.77829 10.7252 9.9785C10.5308 10.1787 10.4221 10.4468 10.4221 10.7258C10.4221 11.0049 10.5308 11.2729 10.7252 11.4731C10.9196 11.6734 11.1843 11.79 11.4632 11.7982H12.5361V22.5232H11.4632C11.1843 22.5314 10.9196 22.6481 10.7252 22.8483C10.5308 23.0485 10.4221 23.3165 10.4221 23.5956C10.4221 23.8746 10.5308 24.1427 10.7252 24.3429C10.9196 24.5431 11.1843 24.6597 11.4632 24.668H13.608V25.7409C13.6163 26.0198 13.7329 26.2845 13.9331 26.4789C14.1333 26.6733 14.4014 26.782 14.6804 26.782C14.9595 26.782 15.2275 26.6733 15.4278 26.4789C15.628 26.2845 15.7446 26.0198 15.7528 25.7409V24.668H17.8976V25.7409C17.8934 25.8844 17.918 26.0273 17.97 26.1611C18.022 26.2949 18.1003 26.4169 18.2003 26.5199C18.3003 26.623 18.4199 26.7048 18.5521 26.7608C18.6844 26.8167 18.8265 26.8455 18.97 26.8455C19.1136 26.8455 19.2557 26.8167 19.3879 26.7608C19.5202 26.7048 19.6398 26.623 19.7398 26.5199C19.8398 26.4169 19.9181 26.2949 19.9701 26.1611C20.0221 26.0273 20.0467 25.8844 20.0424 25.7409V24.3539C20.7205 24.0798 21.3171 23.6368 21.7755 23.067C22.2339 22.4971 22.5389 21.8195 22.6614 21.0985C22.7839 20.3775 22.7199 19.6372 22.4755 18.9479C22.231 18.2586 21.8142 17.6434 21.2648 17.1607H21.2705ZM14.6837 11.801H18.4374C19.0063 11.801 19.552 12.0271 19.9543 12.4294C20.3566 12.8317 20.5826 13.3774 20.5826 13.9463C20.5826 14.5153 20.3566 15.0609 19.9543 15.4633C19.552 15.8656 19.0063 16.0916 18.4374 16.0916H14.6837V11.801ZM18.4374 22.526H14.6837V18.2364H18.4374C19.0063 18.2364 19.552 18.4624 19.9543 18.8647C20.3566 19.2671 20.5826 19.8127 20.5826 20.3817C20.5826 20.9506 20.3566 21.4963 19.9543 21.8986C19.552 22.3009 19.0063 22.5269 18.4374 22.5269V22.526Z" stroke="none"/>
</svg>
