<svg width="40" height="41" viewBox="0 0 40 41" fill="none" xmlns="http://www.w3.org/2000/svg">
<path d="M7.67736 8.70889C7.48931 8.45137 7.16215 8.33596 6.85415 8.41848C6.54614 8.50101 6.3205 8.76447 6.28645 9.08159L5.79086 13.6897C5.74532 14.1136 6.05193 14.4942 6.47589 14.5398C6.50391 14.5428 6.53178 14.5443 6.55934 14.5443C6.94863 14.5443 7.28335 14.2506 7.32596 13.8548L7.60803 11.2318L9.16375 13.3624C9.41517 13.7067 9.89818 13.782 10.2425 13.5306C10.5868 13.2791 10.6621 12.7962 10.4107 12.4518L7.67736 8.70889Z" fill="#FF5064"/>
<path d="M37.6841 6.66391H24.6333L23.5213 2.5139C23.3612 1.91641 22.978 1.41704 22.4423 1.10772C21.9066 0.798395 21.2826 0.716259 20.6849 0.876362L2.1929 5.83128C1.59541 5.99139 1.09604 6.37458 0.786715 6.91032C0.477471 7.44597 0.395258 8.0701 0.555361 8.66766L8.06768 36.704C8.22778 37.3015 8.61098 37.8009 9.14671 38.1102C9.50359 38.3162 9.89952 38.4214 10.3009 38.4214C10.5019 38.4214 10.7045 38.395 10.904 38.3415L16.2239 36.9161V38.0051C16.2239 39.2821 17.2628 40.321 18.5397 40.321H37.6841C38.9611 40.321 40 39.2821 40 38.0051V26.9662C40 26.5399 39.6544 26.1943 39.228 26.1943C38.8017 26.1943 38.4561 26.5399 38.4561 26.9662V38.0051C38.4561 38.4308 38.1098 38.7771 37.6841 38.7771H18.5397C18.1141 38.7771 17.7678 38.4308 17.7678 38.0051V8.97976C17.7678 8.55411 18.1141 8.20781 18.5397 8.20781H37.6841C38.1098 8.20781 38.4561 8.55411 38.4561 8.97976V20.0187C38.4561 20.445 38.8017 20.7906 39.228 20.7906C39.6544 20.7906 40 20.445 40 20.0187V8.97976C40 7.7028 38.9611 6.66391 37.6841 6.66391ZM16.2239 22.7246C15.4719 23.4788 14.2722 23.6509 13.3329 23.1087C12.1908 22.4492 11.7981 20.9836 12.4575 19.8415L14.9715 15.4872L16.2239 16.2103V22.7246ZM16.2239 8.97976V14.4275L15.0749 13.7642C14.7056 13.5509 14.2336 13.6775 14.0204 14.0467L11.1205 19.0695C10.5949 19.9798 10.4552 21.0405 10.7274 22.0559C10.9994 23.0713 11.6507 23.92 12.5611 24.4456C13.1844 24.8055 13.8651 24.9793 14.5376 24.9793C15.1202 24.9793 15.6965 24.8484 16.2239 24.5956V35.3177L10.5044 36.8503C10.3053 36.9035 10.0972 36.8763 9.91866 36.7732C9.74011 36.6701 9.61235 36.5036 9.55901 36.3044L2.04669 8.26803C1.93654 7.85688 2.1814 7.43277 2.59254 7.32254L21.0846 2.36762C21.2837 2.31428 21.4918 2.34168 21.6704 2.44474C21.8489 2.54779 21.9767 2.7143 22.03 2.91346L23.035 6.66383H18.5397C17.2628 6.66391 16.2239 7.7028 16.2239 8.97976Z" fill="#FF5064"/>
<path d="M24.3222 16.1842C24.7199 16.0305 24.9176 15.5835 24.7639 15.1859L23.0925 10.8629C22.9775 10.5654 22.6914 10.3694 22.3725 10.3694C22.0536 10.3694 21.7675 10.5654 21.6525 10.8629L19.9812 15.1859C19.8275 15.5835 20.0252 16.0305 20.4229 16.1842C20.5144 16.2197 20.6084 16.2364 20.7011 16.2364C21.0107 16.2364 21.3029 16.0488 21.4212 15.7426L22.3725 13.282L23.3239 15.7426C23.4776 16.1402 23.9247 16.3382 24.3222 16.1842Z" fill="#FF5064"/>
<path d="M33.1313 36.1221C33.2464 36.4195 33.5325 36.6157 33.8513 36.6157C34.1702 36.6157 34.4563 36.4196 34.5713 36.1221L36.2426 31.7992C36.3964 31.4016 36.1986 30.9546 35.801 30.8008C35.4034 30.6472 34.9564 30.8448 34.8026 31.2425L33.8513 33.703L32.9 31.2425C32.7463 30.8448 32.2992 30.6469 31.9016 30.8008C31.504 30.9546 31.3062 31.4016 31.46 31.7992L33.1313 36.1221Z" fill="#FF5064"/>
<path d="M27.5661 29.3649C27.7168 29.5156 27.9144 29.591 28.1119 29.591C28.3095 29.591 28.5071 29.5156 28.6578 29.3649L32.7589 25.2637C34.2934 23.7292 34.2934 21.2324 32.7589 19.6979V19.6978C31.5065 18.4455 29.6261 18.1912 28.1119 19.0126C26.5978 18.1913 24.7173 18.4455 23.465 19.6978C21.9305 21.2323 21.9305 23.7292 23.465 25.2636L27.5661 29.3649ZM24.5566 20.7896C25.0168 20.3294 25.634 20.0933 26.2532 20.0933C26.7457 20.0933 27.2395 20.2427 27.6563 20.5474C27.9277 20.7457 28.2961 20.7457 28.5675 20.5474C29.5086 19.8595 30.8413 19.9636 31.6672 20.7895C32.5997 21.7221 32.5997 23.2394 31.6672 24.1719L28.1119 27.7272L24.5566 24.172C23.6241 23.2395 23.6241 21.7221 24.5566 20.7896Z" fill="#FF5064"/>
<path d="M39.228 22.7206C39.025 22.7206 38.8258 22.8032 38.6822 22.9468C38.5387 23.0904 38.4561 23.2895 38.4561 23.4925C38.4561 23.6956 38.5387 23.8947 38.6822 24.0383C38.8258 24.1819 39.025 24.2645 39.228 24.2645C39.431 24.2645 39.6302 24.1819 39.7738 24.0383C39.9174 23.8947 40 23.6956 40 23.4925C40 23.2895 39.9174 23.0904 39.7738 22.9468C39.6302 22.8032 39.431 22.7206 39.228 22.7206Z" fill="#FF5064"/>
</svg>
