<svg width="33" height="43" viewBox="0 0 33 43" fill="none" xmlns="http://www.w3.org/2000/svg">
<path d="M27.4956 28.2115C29.5704 26.2577 31.0806 23.7811 31.8677 21.042C32.6548 18.3029 32.6896 15.4023 31.9685 12.6451C31.2473 9.88791 29.7969 7.3758 27.7696 5.37275C25.7423 3.3697 23.2129 1.94965 20.4472 1.2618C20.3425 1.23117 20.2328 1.22205 20.1245 1.23498C20.0163 1.24792 19.9117 1.28265 19.8173 1.33708C19.7228 1.3915 19.6403 1.4645 19.5748 1.55167C19.5093 1.63883 19.4622 1.73836 19.4362 1.84425C19.4102 1.95014 19.4059 2.06019 19.4236 2.16777C19.4413 2.27536 19.4807 2.37824 19.5392 2.47022C19.5977 2.56219 19.6743 2.64136 19.7643 2.70294C19.8543 2.76453 19.9558 2.80725 20.0627 2.82854C23.4407 3.66816 26.3948 5.7147 28.3679 8.58222C30.341 11.4498 31.1967 14.9401 30.7738 18.3951C30.3508 21.8501 28.6784 25.0309 26.0719 27.3378C23.4653 29.6447 20.1048 30.9183 16.6241 30.9183C13.1433 30.9183 9.78278 29.6447 7.17625 27.3378C4.56972 25.0309 2.89729 21.8501 2.47435 18.3951C2.0514 14.9401 2.90716 11.4498 4.88025 8.58222C6.85335 5.7147 9.80743 3.66816 13.1854 2.82854C13.385 2.7701 13.5544 2.63691 13.6582 2.45672C13.762 2.27652 13.7923 2.06321 13.7427 1.86124C13.6931 1.65927 13.5675 1.48421 13.3921 1.37254C13.2167 1.26087 13.0049 1.2212 12.8009 1.2618C9.39655 2.1145 6.36843 4.06624 4.18584 6.81457C1.71813 9.92778 0.508653 13.8537 0.796635 17.8159C1.08462 21.7781 2.84909 25.4879 5.74104 28.2115L1.51182 36.2941C1.41293 36.4835 1.39311 36.7043 1.45671 36.9083C1.5203 37.1122 1.66213 37.2826 1.85112 37.3822L1.87996 37.3976C2.06043 37.4928 2.27025 37.5161 2.46724 37.4629L8.32663 35.8779L10.3672 41.5931C10.4201 41.7409 10.5149 41.8701 10.64 41.9648C10.7652 42.0596 10.9152 42.1158 11.0718 42.1266H11.1275C11.2749 42.1265 11.4195 42.0861 11.5456 42.0097C11.6716 41.9332 11.7744 41.8238 11.8426 41.6931L16.6178 32.5618L21.393 41.6931C21.4613 41.8238 21.564 41.9332 21.69 42.0097C21.8161 42.0861 21.9607 42.1265 22.1081 42.1266H22.1639C22.3204 42.1158 22.4705 42.0596 22.5956 41.9648C22.7207 41.8701 22.8155 41.7409 22.8684 41.5931L24.909 35.8779L30.7665 37.4639C30.9634 37.5172 31.1733 37.4938 31.3538 37.3985L31.3826 37.3832C31.5716 37.2836 31.7134 37.1131 31.777 36.9092C31.8406 36.7053 31.8208 36.4844 31.7219 36.2951L27.4956 28.2115ZM11.2669 39.3113L9.59635 34.6284C9.52798 34.4372 9.3901 34.2789 9.21019 34.1848C9.03028 34.0908 8.82154 34.0679 8.62555 34.1209L3.78599 35.431L7.00212 29.2794C9.2853 31.0277 12.0026 32.1191 14.8608 32.4359L11.2669 39.3113ZM24.6101 34.1209C24.4141 34.0679 24.2053 34.0908 24.0254 34.1848C23.8455 34.2789 23.7077 34.4372 23.6393 34.6284L21.9678 39.3084L18.3749 32.4359C21.233 32.1191 23.9503 31.0277 26.2335 29.2794L29.4496 35.431L24.6101 34.1209Z" fill="#FF5064"/>
<path d="M4.77893 16.6667C4.77893 19.0071 5.47287 21.2949 6.77301 23.2409C8.07314 25.1869 9.92109 26.7037 12.0832 27.5995C14.2453 28.4954 16.6245 28.73 18.92 28.2738C21.2155 27.8175 23.3241 26.6909 24.9793 25.0364C26.6346 23.3818 27.762 21.2736 28.2192 18.9784C28.6764 16.6831 28.4427 14.3038 27.5477 12.1413C26.6528 9.97882 25.1367 8.13025 23.1912 6.82933C21.2457 5.5284 18.9582 4.83353 16.6179 4.83258C13.4795 4.83487 10.4703 6.08226 8.2507 8.30095C6.0311 10.5196 4.78249 13.5284 4.77893 16.6667ZM26.8324 16.6667C26.8324 18.6881 26.2329 20.6641 25.1098 22.3448C23.9866 24.0254 22.3903 25.3352 20.5227 26.1086C18.6551 26.8819 16.6001 27.084 14.6176 26.6893C12.6351 26.2946 10.8142 25.3208 9.3852 23.8911C7.95619 22.4615 6.98327 20.6401 6.5895 18.6574C6.19573 16.6748 6.39879 14.6199 7.173 12.7526C7.94721 10.8853 9.2578 9.28964 10.939 8.1673C12.6202 7.04497 14.5965 6.44642 16.6179 6.44737C19.3273 6.45043 21.9248 7.52808 23.8406 9.44392C25.7565 11.3598 26.8341 13.9573 26.8372 16.6667H26.8324Z" fill="#FF5064"/>
<path d="M15.3991 11.5426L14.4004 13.4727C14.3425 13.5841 14.2595 13.6806 14.1579 13.7545C14.0563 13.8284 13.939 13.8777 13.8151 13.8985L11.6716 14.2522C11.4234 14.2931 11.1912 14.4015 11.0003 14.5656C10.8095 14.7296 10.6675 14.9429 10.5897 15.1822C10.5119 15.4215 10.5014 15.6775 10.5593 15.9224C10.6172 16.1673 10.7413 16.3915 10.9181 16.5706L12.4444 18.1162C12.5325 18.2057 12.5986 18.3144 12.6375 18.4339C12.6764 18.5533 12.687 18.6801 12.6684 18.8044L12.3425 20.9526C12.3047 21.2014 12.3361 21.4558 12.4331 21.688C12.5301 21.9203 12.6891 22.1213 12.8927 22.2692C13.0963 22.4172 13.3367 22.5063 13.5875 22.5268C13.8383 22.5474 14.0899 22.4986 14.3149 22.3857L16.2575 21.4121C16.3699 21.356 16.4937 21.3268 16.6193 21.3268C16.745 21.3268 16.8688 21.356 16.9812 21.4121L18.9238 22.3857C19.1487 22.4986 19.4004 22.5474 19.6512 22.5268C19.902 22.5063 20.1424 22.4172 20.346 22.2692C20.5496 22.1213 20.7086 21.9203 20.8056 21.688C20.9026 21.4558 20.9339 21.2014 20.8961 20.9526L20.5703 18.8044C20.5517 18.6801 20.5623 18.5533 20.6012 18.4339C20.64 18.3144 20.7061 18.2057 20.7942 18.1162L22.3206 16.5706C22.4974 16.3915 22.6215 16.1673 22.6794 15.9224C22.7373 15.6775 22.7268 15.4215 22.649 15.1822C22.5712 14.9429 22.4292 14.7296 22.2383 14.5656C22.0475 14.4015 21.8153 14.2931 21.567 14.2522L19.4236 13.8985C19.2997 13.8777 19.1823 13.8285 19.0807 13.7546C18.9791 13.6807 18.8961 13.5842 18.8382 13.4727L17.8396 11.5426C17.7239 11.3192 17.549 11.1319 17.334 11.0012C17.1191 10.8705 16.8724 10.8013 16.6208 10.8013C16.3692 10.8013 16.1225 10.8705 15.9075 11.0012C15.6926 11.1319 15.5177 11.3192 15.402 11.5426H15.3991ZM19.1583 15.4912L20.8404 15.7689L19.6427 16.982C19.3782 17.2506 19.1797 17.577 19.063 17.9355C18.9462 18.294 18.9143 18.6747 18.9699 19.0476L19.2256 20.7335L17.7021 19.9645C17.3649 19.7963 16.9933 19.7087 16.6165 19.7087C16.2396 19.7087 15.868 19.7963 15.5308 19.9645L14.0073 20.7335L14.263 19.0476C14.3186 18.6747 14.2867 18.294 14.1699 17.9355C14.0532 17.577 13.8547 17.2506 13.5902 16.982L12.3925 15.7689L14.0746 15.4912C14.446 15.4288 14.7978 15.281 15.1024 15.0595C15.407 14.838 15.6559 14.5488 15.8297 14.2147L16.6131 12.7008L17.3965 14.2147C17.5709 14.5496 17.8209 14.8393 18.1267 15.0609C18.4325 15.2824 18.7857 15.4297 19.1583 15.4912Z" fill="#FF5064"/>
<path d="M16.6178 2.41136C17.0637 2.41136 17.4252 2.04988 17.4252 1.60397C17.4252 1.15805 17.0637 0.79657 16.6178 0.79657C16.1719 0.79657 15.8104 1.15805 15.8104 1.60397C15.8104 2.04988 16.1719 2.41136 16.6178 2.41136Z" fill="#FF5064"/>
</svg>
