<svg width="43" height="43" viewBox="0 0 43 43" fill="none" xmlns="http://www.w3.org/2000/svg">
<path d="M43 21.5C43 9.62461 33.3754 0 21.5 0C9.62461 0 0 9.62461 0 21.5C0 33.3754 9.62461 43 21.5 43C21.626 43 21.752 43 21.8779 42.9916V26.2619H17.2588V20.8785H21.8779V16.9145C21.8779 12.3205 24.683 9.81777 28.7814 9.81777C30.7467 9.81777 32.4348 9.96055 32.9219 10.0277V14.8316H30.1C27.8744 14.8316 27.4377 15.8898 27.4377 17.4436V20.8701H32.7707L32.0736 26.2535H27.4377V42.1686C36.424 39.5902 43 31.3178 43 21.5Z" fill="white"/>
</svg>
