<svg version="1.2" baseProfile="tiny-ps" xmlns="http://www.w3.org/2000/svg" viewBox="0 0 42 43" width="42" height="43">
	<title>iPhone 12 Pro Max – 1</title>
	<defs>
		<clipPath clipPathUnits="userSpaceOnUse" id="cp1">
			<path d="m-188-6024h428v6080h-428z" />
		</clipPath>
	</defs>
	<style>
		tspan { white-space:pre }
		.s0 { fill: none;stroke: #00d3ff;stroke-linecap:round } 
		.s1 { fill: none;stroke: #00d3ff;stroke-linecap:round;stroke-width: .1 } 
	</style>
	<g id="iPhone 12 Pro Max – 1" clip-path="url(#cp1)">
		<g id="Footer">
			<g id="icon">
				<path id="Ellipse 8" class="s0" d="m21 42c-11.06 0-20-9.16-20-20.5c0-11.34 8.94-20.5 20-20.5c11.06 0 20 9.16 20 20.5c0 11.34-8.94 20.5-20 20.5z" />
				<g id="Group 6">
					<g id="Group 4">
						<path id="Path 16" class="s1" d="m31.84 17.07c0.01 0.22 0.02 0.44 0.02 0.67c0 6.8-5.18 14.65-14.65 14.65c-2.91 0-5.61-0.85-7.89-2.31c0.4 0.05 0.81 0.07 1.23 0.07c2.41 0 4.63-0.82 6.39-2.2c-2.25-0.04-4.15-1.53-4.81-3.58c0.32 0.06 0.64 0.09 0.97 0.09c0.47 0 0.93-0.06 1.36-0.18c-2.35-0.47-4.13-2.55-4.13-5.05c0-0.02 0-0.04 0-0.06c0.69 0.39 1.49 0.62 2.33 0.64c-1.38-0.92-2.29-2.5-2.29-4.28c0-0.94 0.25-1.83 0.7-2.59c2.54 3.11 6.33 5.16 10.61 5.38c-0.09-0.38-0.13-0.77-0.13-1.17c0-2.84 2.31-5.15 5.15-5.15c1.48 0 2.82 0.63 3.76 1.63c1.17-0.23 2.28-0.66 3.27-1.25c-0.38 1.2-1.2 2.21-2.26 2.85c1.04-0.12 2.03-0.4 2.96-0.81c-0.69 1.03-1.56 1.94-2.57 2.66z" />
					</g>
					<g id="Group 5">
						<path id="Path 17" class="s0" d="m31.84 17.07c0.01 0.22 0.02 0.44 0.02 0.67c0 6.8-5.18 14.65-14.65 14.65c-2.91 0-5.61-0.85-7.89-2.31c0.4 0.05 0.81 0.07 1.23 0.07c2.41 0 4.63-0.82 6.39-2.2c-2.25-0.04-4.15-1.53-4.81-3.58c0.32 0.06 0.64 0.09 0.97 0.09c0.47 0 0.93-0.06 1.36-0.18c-2.35-0.47-4.13-2.55-4.13-5.05c0-0.02 0-0.04 0-0.06c0.69 0.39 1.49 0.62 2.33 0.64c-1.38-0.92-2.29-2.5-2.29-4.28c0-0.94 0.25-1.83 0.7-2.59c2.54 3.11 6.33 5.16 10.61 5.38c-0.09-0.38-0.13-0.77-0.13-1.17c0-2.84 2.31-5.15 5.15-5.15c1.48 0 2.82 0.63 3.76 1.63c1.17-0.23 2.28-0.66 3.27-1.25c-0.38 1.2-1.2 2.21-2.26 2.85c1.04-0.12 2.03-0.4 2.96-0.81c-0.69 1.03-1.56 1.94-2.57 2.66z" />
					</g>
				</g>
			</g>
		</g>
	</g>
</svg>