<svg version="1.2" baseProfile="tiny-ps" xmlns="http://www.w3.org/2000/svg" viewBox="0 0 43 44" width="43" height="44">
	<title>iPhone 12 Pro Max – 1</title>
	<defs>
		<clipPath clipPathUnits="userSpaceOnUse" id="cp1">
			<path d="m-80-6024h428v6080h-428z" />
		</clipPath>
	</defs>
	<style>
		tspan { white-space:pre }
		.s0 { fill: none;stroke: #00d3ff;stroke-linecap:round } 
	</style>
	<g id="iPhone 12 Pro Max – 1" clip-path="url(#cp1)">
		<g id="Footer">
			<g id="icon">
				<path id="Ellipse 3" class="s0" d="m21.5 42c-11.34 0-20.5-9.16-20.5-20.5c0-11.34 9.16-20.5 20.5-20.5c11.34 0 20.5 9.16 20.5 20.5c0 11.34-9.16 20.5-20.5 20.5z" />
				<path id="Path 13" fill-rule="evenodd" class="s0" d="m11.86 29.24c-0.67-0.13-1.25-0.41-1.67-0.83c-0.33-0.31-0.59-0.79-0.79-1.45c-0.17-0.55-0.24-1.01-0.34-2.13c-0.15-2.53-0.18-4.6 0-6.92c0.15-1.28 0.22-2.8 1.23-3.68c0.47-0.41 1.02-0.68 1.64-0.79c0.97-0.17 5.08-0.31 9.34-0.31c4.25 0 8.38 0.14 9.34 0.31c0.77 0.14 1.5 0.55 1.92 1.09c0.91 1.37 0.93 3.07 1.02 4.41c0.04 0.63 0.04 4.24 0 4.88c-0.14 2.11-0.26 2.85-0.59 3.62c-0.2 0.49-0.38 0.75-0.68 1.03c-0.47 0.44-1.07 0.73-1.72 0.84c-4.06 0.29-7.51 0.35-11.43 0.29c-4.7-0.08-6.3-0.16-7.28-0.35zm7.28-11.23v6.61c2.27-1.2 4.36-2.3 6.22-3.29c-2.26-1.15-3.95-2.22-6.22-3.32zm6.22 3.32c0 0 0 0 0 0l0.01-0.01c0 0-0.01 0-0.01 0.01z" />
			</g>
		</g>
	</g>
</svg>