<svg version="1.2" baseProfile="tiny-ps" xmlns="http://www.w3.org/2000/svg" viewBox="0 0 43 44" width="43" height="44">
	<title>iPhone 12 Pro Max – 1</title>
	<defs>
		<clipPath clipPathUnits="userSpaceOnUse" id="cp1">
			<path d="m-134-6024h428v6080h-428z" />
		</clipPath>
	</defs>
	<style>
		tspan { white-space:pre }
		.s0 { fill: none;stroke: #00d3ff;stroke-linecap:round } 
		.s1 { fill: #00d3ff } 
	</style>
	<g id="iPhone 12 Pro Max – 1" clip-path="url(#cp1)">
		<g id="Footer">
			<g id="icon">
				<path id="Ellipse 4" class="s0" d="m21.5 42c-11.34 0-20.5-9.16-20.5-20.5c0-11.34 9.16-20.5 20.5-20.5c11.34 0 20.5 9.16 20.5 20.5c0 11.34-9.16 20.5-20.5 20.5z" />
				<path id="Path 14" class="s0" d="m28.9 33.74h-14.49c-2.84 0-5.14-2.3-5.14-5.14v-14.49c0-2.84 2.3-5.14 5.14-5.14h14.49c2.84 0 5.14 2.3 5.14 5.14v14.49c0 2.84-2.3 5.14-5.14 5.14z" />
				<path id="Ellipse 5" class="s0" d="m21.66 27.46c-3.38 0-6.11-2.73-6.11-6.11c0-3.38 2.73-6.11 6.11-6.11c3.38 0 6.11 2.73 6.11 6.11c0 3.38-2.73 6.11-6.11 6.11z" />
				<path id="Ellipse 6" class="s1" d="m28.84 16.11c-1.07 0-1.94-0.87-1.94-1.94c0-1.07 0.87-1.94 1.94-1.94c1.07 0 1.94 0.87 1.94 1.94c0 1.07-0.87 1.94-1.94 1.94z" />
			</g>
		</g>
	</g>
</svg>