<svg width="42" height="43" viewBox="0 0 42 43" fill="none" xmlns="http://www.w3.org/2000/svg">
<path d="M21 0C9.40379 0 0 9.62769 0 21.5C0 33.3723 9.40379 43 21 43C32.5962 43 42 33.3723 42 21.5C42 9.62769 32.5962 0 21 0ZM30.5884 16.7634C30.5977 16.975 30.6021 17.1876 30.6021 17.4012C30.6021 23.9221 25.754 31.4417 16.8879 31.442H16.8882H16.8879C14.1658 31.442 11.6327 30.6251 9.4996 29.2253C9.87675 29.2709 10.2606 29.2935 10.6493 29.2935C12.9077 29.2935 14.9861 28.5048 16.636 27.1811C14.5259 27.1411 12.7469 25.7143 12.1329 23.7535C12.4268 23.8112 12.7289 23.8427 13.0388 23.8427C13.4788 23.8427 13.9049 23.782 14.31 23.6688C12.1044 23.2168 10.443 21.2211 10.443 18.8315C10.443 18.8092 10.443 18.7892 10.4436 18.7685C11.0931 19.1383 11.8359 19.3607 12.6267 19.3856C11.3325 18.5015 10.4817 16.9901 10.4817 15.2779C10.4817 14.3738 10.7205 13.5267 11.1345 12.7974C13.5114 15.7835 17.0638 17.7473 21.0699 17.9536C20.9872 17.5921 20.9446 17.2155 20.9446 16.8284C20.9446 14.1041 23.1033 11.894 25.7652 11.894C27.1517 11.894 28.404 12.494 29.2836 13.4532C30.3817 13.2315 31.4128 12.8207 32.3443 12.2555C31.9839 13.4073 31.2199 14.3738 30.2247 14.985C31.1998 14.8656 32.129 14.6008 32.9926 14.2078C32.3475 15.1976 31.5295 16.0669 30.5884 16.7634V16.7634Z" fill="white"/>
</svg>
