<svg width="43" height="43" viewBox="0 0 43 43" fill="none" xmlns="http://www.w3.org/2000/svg">
<path d="M11.2249 23.0842H12.9139V32.2261H14.5119V23.0842H16.2324V21.5869H11.2249V23.0842Z" fill="white"/>
<path d="M24.7366 24.2018C24.2083 24.2018 23.7153 24.4903 23.2519 25.0613V21.5864H21.8157V32.2261H23.2519V31.458C23.7327 32.0513 24.2253 32.3355 24.7366 32.3355C25.308 32.3355 25.6925 32.0347 25.8843 31.4445C25.9806 31.1084 26.0299 30.5806 26.0299 29.847V26.6903C26.0299 25.9397 25.9806 25.4157 25.8843 25.0971C25.6929 24.5025 25.3076 24.2018 24.7366 24.2018ZM24.5927 29.9594C24.5927 30.676 24.3826 31.0291 23.9677 31.0291C23.7318 31.0291 23.4917 30.9162 23.2515 30.6756V25.8442C23.4917 25.6066 23.7318 25.4942 23.9677 25.4942C24.3822 25.4942 24.5927 25.8612 24.5927 26.5761V29.9594Z" fill="white"/>
<path d="M19.1354 30.3568C18.8168 30.807 18.5156 31.0289 18.227 31.0289C18.0352 31.0289 17.9258 30.916 17.8909 30.6928C17.8779 30.6466 17.8779 30.4714 17.8779 30.1349V24.2983H16.4412V30.566C16.4412 31.1261 16.4895 31.5045 16.568 31.7451C16.7123 32.147 17.0314 32.3353 17.4934 32.3353C18.0221 32.3353 18.5644 32.0162 19.1354 31.3615V32.2263H20.573V24.2983H19.1354V30.3568Z" fill="white"/>
<path d="M20.3686 16.9748C20.8363 16.9748 21.0608 16.6038 21.0608 15.8628V12.493C21.0608 11.7515 20.8363 11.3823 20.3686 11.3823C19.9005 11.3823 19.6755 11.752 19.6755 12.493V15.8628C19.6755 16.6043 19.9005 16.9748 20.3686 16.9748Z" fill="white"/>
<path d="M21.3371 0.20752C9.5711 0.20752 0.032959 9.74566 0.032959 21.5116C0.032959 33.2776 9.5711 42.8157 21.3371 42.8157C33.103 42.8157 42.6412 33.2776 42.6412 21.5116C42.6412 9.74566 33.103 0.20752 21.3371 0.20752ZM23.7066 10.172H25.1541V16.0704C25.1541 16.4108 25.1541 16.5874 25.1716 16.6349C25.2034 16.8598 25.3176 16.9749 25.512 16.9749C25.8023 16.9749 26.107 16.75 26.4291 16.2953V10.172H27.8806V18.1832H26.4291V17.3096C25.8511 17.9722 25.3002 18.2935 24.7706 18.2935C24.3033 18.2935 23.9807 18.1038 23.8351 17.6985C23.7549 17.4557 23.7066 17.0725 23.7066 16.5072V10.172ZM18.2239 12.7842C18.2239 11.9277 18.3695 11.3018 18.6781 10.8968C19.0796 10.3489 19.6449 10.0752 20.3685 10.0752C21.0956 10.0752 21.6605 10.3489 22.0619 10.8968C22.3662 11.3013 22.5118 11.9277 22.5118 12.7842V15.5896C22.5118 16.4414 22.3662 17.073 22.0619 17.4735C21.6605 18.0201 21.0956 18.2935 20.3685 18.2935C19.6449 18.2935 19.0796 18.0201 18.6781 17.4735C18.3695 17.073 18.2239 16.4409 18.2239 15.5896V12.7842ZM14.3419 7.43283L15.4848 11.6544L16.5828 7.43283H18.2109L16.2742 13.8295V18.1836H14.6649V13.8295C14.5189 13.058 14.1968 11.9277 13.6802 10.4283C13.3411 9.43051 12.9876 8.42971 12.6485 7.43283H14.3419ZM32.8058 32.9258C32.5146 34.1895 31.4811 35.1223 30.2366 35.2613C27.2887 35.5904 24.3068 35.5922 21.3358 35.5904C18.366 35.5922 15.3824 35.5904 12.4353 35.2613C11.1909 35.1223 10.1569 34.1899 9.86663 32.9258C9.4521 31.126 9.4521 29.1606 9.4521 27.3072C9.4521 25.4538 9.45733 23.4888 9.87142 21.6886C10.1622 20.4245 11.1952 19.4917 12.4397 19.3531C15.3872 19.024 18.3704 19.0223 21.341 19.024C24.3107 19.0223 27.2939 19.024 30.2414 19.3531C31.4859 19.4921 32.5198 20.4245 32.8114 21.6886C33.2246 23.4888 33.222 25.4538 33.222 27.3072C33.222 29.1606 33.2203 31.126 32.8058 32.9258Z" fill="white"/>
<path d="M29.3117 24.2017C28.5767 24.2017 28.0062 24.4715 27.5912 25.0142C27.2865 25.4152 27.1475 26.035 27.1475 26.8819V29.659C27.1475 30.5016 27.3031 31.1258 27.6091 31.5229C28.0236 32.0642 28.5959 32.3349 29.3474 32.3349C30.0976 32.3349 30.6864 32.0512 31.084 31.4754C31.2583 31.2208 31.3717 30.9327 31.4196 30.6145C31.4331 30.4706 31.4501 30.152 31.4501 29.6886V29.4798H29.9851C29.9851 30.0552 29.9664 30.3747 29.9537 30.4528C29.8718 30.8368 29.6652 31.0286 29.3117 31.0286C28.8182 31.0286 28.5767 30.6624 28.5767 29.9292V28.5231H31.4501V26.8811C31.4501 26.0341 31.3067 25.4143 31.0055 25.0133C30.6041 24.4719 30.0326 24.2017 29.3117 24.2017ZM30.0143 27.3279H28.5776V26.5943C28.5776 25.8611 28.8187 25.4945 29.2986 25.4945C29.7737 25.4945 30.0143 25.8615 30.0143 26.5943V27.3279Z" fill="white"/>
</svg>
