<svg width="45" height="45" viewBox="0 0 45 45" fill="none" xmlns="http://www.w3.org/2000/svg">
<path fill-rule="evenodd" clip-rule="evenodd" d="M18.9446 11.4119C19.0132 11.2592 19.1194 11.1522 19.3467 11.047C19.4169 11.0145 19.5769 10.9882 19.7765 11.0054C19.9794 11.0229 20.1179 11.0761 20.1633 11.11C20.379 11.271 20.4388 11.3482 20.4772 11.448C20.5286 11.5816 20.5551 11.7944 20.57 12.2763L20.6092 13.5399H23.9221L23.9613 12.2763C23.9763 11.7911 24.0027 11.5801 24.0546 11.4472C24.0936 11.3473 24.1551 11.2689 24.3799 11.1012C24.4332 11.0614 24.5972 11.0069 24.8314 11.0069C25.0656 11.0069 25.2296 11.0614 25.2829 11.1012C25.5208 11.2788 25.5732 11.3473 25.6101 11.4536C25.6638 11.6083 25.6856 11.8614 25.7002 12.4552L25.7318 13.7475L26.4715 14.1363C27.1876 14.5126 27.9913 15.3428 28.385 16.125C28.7983 16.9458 28.947 17.6521 28.8956 18.5262C28.8303 19.6392 28.4547 20.5468 27.6724 21.4532L27.1046 22.1111L27.7613 22.8846C29.3913 24.8053 29.2821 27.5271 27.5123 29.2855C27.1563 29.6393 26.7529 29.9478 26.4714 30.0958L25.7318 30.4845L25.7002 31.7768C25.6856 32.3707 25.6638 32.6237 25.6101 32.7784C25.5732 32.8847 25.5208 32.9533 25.2829 33.1308C25.2296 33.1706 25.0656 33.2252 24.8314 33.2252C24.5972 33.2252 24.4332 33.1706 24.3799 33.1308C24.1551 32.9631 24.0936 32.8847 24.0546 32.7849C24.0027 32.652 23.9763 32.4409 23.9613 31.9557L23.9221 30.6921H20.6092L20.57 31.9557C20.555 32.4409 20.5286 32.652 20.4767 32.7849C20.4377 32.8847 20.3762 32.9631 20.1514 33.1308C20.0981 33.1706 19.9341 33.2252 19.6999 33.2252C19.4657 33.2252 19.3017 33.1706 19.2484 33.1308C19.024 32.9634 18.9622 32.8847 18.9232 32.785C18.8713 32.6527 18.8449 32.4428 18.8299 31.9605L18.7911 30.708L16.8988 30.677C16.4838 30.6701 16.1779 30.6639 15.9423 30.6506C15.7042 30.6371 15.5621 30.6173 15.4669 30.5914C15.3838 30.5688 15.3415 30.5429 15.3026 30.509C15.2512 30.4642 15.1962 30.3973 15.0943 30.2609C15.0545 30.2076 15 30.0439 15 29.8098C15 29.5758 15.0546 29.412 15.0943 29.3587C15.2621 29.1341 15.3405 29.0726 15.4405 29.0336C15.5735 28.9817 15.7848 28.9553 16.2702 28.9403L17.5342 28.9011V15.3309L16.2702 15.2917C15.7847 15.2767 15.5735 15.2504 15.4405 15.1985C15.3405 15.1595 15.2621 15.0979 15.0943 14.8733C15.0545 14.82 15 14.6563 15 14.4222C15 14.1882 15.0546 14.0244 15.0943 13.9711C15.1963 13.8346 15.2513 13.7677 15.3026 13.723C15.3414 13.6891 15.3837 13.6632 15.4673 13.6406C15.5629 13.6146 15.7056 13.5948 15.9448 13.5814C16.1815 13.568 16.4888 13.5618 16.9058 13.555L18.817 13.5237V12.3789C18.817 11.8766 18.8635 11.5923 18.9446 11.4119ZM24.9722 21.1926L25.4674 20.9314C25.7861 20.7634 26.0379 20.6022 26.253 20.3939C26.4697 20.1842 26.6305 19.9448 26.7921 19.6451C26.9165 19.4146 27.0094 19.2312 27.0595 19.0117C27.108 18.7995 27.1115 18.5734 27.1108 18.268C27.11 17.9783 27.1022 17.7582 27.0632 17.5599C27.0219 17.3501 26.9497 17.1838 26.8511 16.994C26.686 16.6765 26.5261 16.4247 26.3177 16.2088C26.1082 15.9917 25.8679 15.8296 25.5672 15.6667L24.9746 15.3455L19.2998 15.2905V21.2475L24.9722 21.1926ZM24.9722 28.8864L25.4674 28.6252C25.7861 28.4572 26.0379 28.296 26.253 28.0877C26.4697 27.878 26.6305 27.6386 26.7921 27.3389C26.9165 27.1084 27.0094 26.925 27.0595 26.7055C27.108 26.4933 27.1115 26.2672 27.1108 25.9618C27.11 25.6721 27.1022 25.452 27.0632 25.2537C27.0219 25.0439 26.9497 24.8776 26.8511 24.6878C26.686 24.3703 26.5261 24.1185 26.3177 23.9026C26.1082 23.6855 25.8679 23.5235 25.5672 23.3605L24.9746 23.0393L19.2998 22.9843V28.9413L24.9722 28.8864Z" fill="white"/>
<path fill-rule="evenodd" clip-rule="evenodd" d="M23.0822 2.42756C22.1471 2.39494 21.2787 2.38916 21.0032 2.4211C20.8483 2.43912 20.3788 2.49294 19.96 2.54077C13.7485 3.24978 7.9973 7.1456 4.84085 12.7971C3.69249 14.8531 2.85514 17.4182 2.49979 19.9841C2.43493 20.4524 2.3999 21.4595 2.3999 22.4938C2.3999 23.528 2.43493 24.5352 2.49979 25.0035C3.32952 30.9942 6.52491 36.0793 11.515 39.357C18.1164 43.6929 26.8902 43.68 33.4999 39.3235C43.4529 32.7633 45.6041 19.1249 38.1487 9.88183C34.9328 5.89474 30.4905 3.36453 25.3065 2.57307C24.9338 2.51615 24.0106 2.45995 23.0822 2.42756ZM37.7773 12.3848C34.8834 8.05412 30.5374 5.24573 25.393 4.38166C24.8994 4.29878 24.0227 4.23195 23.1739 4.19525C22.3267 4.15862 21.4641 4.1501 21.0009 4.19234C16.5847 4.59508 12.6551 6.42716 9.52263 9.54448C6.69379 12.3597 4.9704 15.7648 4.31332 19.8251C4.2086 20.4724 4.15894 21.4928 4.15894 22.4936C4.15894 23.4944 4.20861 24.5149 4.31333 25.1622C4.74735 27.8441 5.67426 30.3019 7.05277 32.4099C10.0028 36.9211 14.4227 39.7748 19.8103 40.6517C20.4572 40.757 21.4773 40.8071 22.4783 40.8073C23.4793 40.8075 24.5007 40.7578 25.1501 40.6528C27.7101 40.2389 30.1132 39.3605 32.1146 38.1005C36.7697 35.1696 39.7657 30.6258 40.6478 25.162C40.7523 24.5151 40.8018 23.4945 40.8018 22.4936C40.8018 21.4927 40.7523 20.4721 40.6478 19.8252C40.2039 17.0756 39.2406 14.5747 37.7773 12.3848Z" fill="white"/>
</svg>
