<svg width="45" height="45" viewBox="0 0 45 45" fill="none" xmlns="http://www.w3.org/2000/svg">
<path fill-rule="evenodd" clip-rule="evenodd" d="M9.19829 2.06697C8.87328 2.19673 8.56077 2.54803 8.46982 2.8858C8.4167 3.08307 8.40604 3.52649 8.4413 4.07106L8.49771 4.94115H5.70162C2.54575 4.94115 2.52083 4.94539 2.16193 5.5502C1.98284 5.85201 1.97835 5.90431 2.02514 7.1438C2.1826 11.3068 3.05162 14.9197 4.67916 18.1773C7.11978 23.0622 10.7423 26.0526 14.8287 26.5555L15.4508 26.6321L16.1439 27.2879C16.5251 27.6486 17.1196 28.1416 17.4649 28.3834L18.0928 28.8232V31.4998V34.1763L16.7506 34.1773C15.8344 34.1779 15.2697 34.2151 14.9713 34.2945C13.4467 34.7001 12.2006 35.9312 11.8011 37.4267C11.724 37.7154 11.6557 38.4231 11.6263 39.2358L11.5783 40.5708L11.2955 40.6238C10.9387 40.6907 10.5225 41.0996 10.415 41.4889C10.2654 42.0305 10.5723 42.6594 11.0923 42.8765C11.4864 43.0412 33.5136 43.0412 33.9077 42.8765C34.4277 42.6594 34.7346 42.0305 34.585 41.4889C34.4775 41.0996 34.0613 40.6907 33.7045 40.6238L33.4217 40.5708L33.3737 39.2358C33.3443 38.4231 33.276 37.7154 33.1989 37.4267C32.7994 35.9312 31.5533 34.7001 30.0287 34.2945C29.7303 34.2151 29.1656 34.1779 28.2494 34.1773L26.9072 34.1763V31.4998V28.8232L27.5351 28.3834C27.8804 28.1416 28.4749 27.6486 28.8561 27.2879L29.5492 26.6321L30.1713 26.5555C34.2577 26.0526 37.8802 23.0622 40.3208 18.1773C41.9484 14.9197 42.8174 11.3068 42.9749 7.1438C43.0217 5.90431 43.0172 5.85201 42.8381 5.5502C42.4793 4.94572 42.453 4.94115 39.3086 4.94115H36.5227L36.5428 3.86666C36.5649 2.68972 36.5261 2.56701 36.0113 2.18279C35.7901 2.01771 35.785 2.01763 22.5943 2.00233C13.9602 1.99232 9.32938 2.01467 9.19829 2.06697ZM34.0905 5.68204C33.7858 13.0858 31.586 20.2328 28.369 24.2714C25.0816 28.3985 21.0479 28.8097 17.6104 25.3681C13.8846 21.6379 11.2474 13.8902 10.9095 5.68204L10.8559 4.38047H22.5H34.1441L34.0905 5.68204ZM8.65653 8.02486C9.04276 12.204 9.95497 16.208 11.2843 19.5587C11.709 20.6294 12.5567 22.4172 13.0027 23.1831C13.1631 23.4585 13.2651 23.6837 13.2295 23.6837C13.1939 23.6837 12.8358 23.5184 12.4338 23.3162C8.25547 21.2157 4.99367 15.133 4.51304 8.54549C4.48572 8.17104 4.44525 7.74693 4.42306 7.60299L4.38267 7.3414L6.49003 7.3627L8.59731 7.38409L8.65653 8.02486ZM40.5767 7.60435C40.5547 7.74749 40.5143 8.17104 40.487 8.54549C40.0631 14.3553 37.4872 19.8048 33.8883 22.5052C33.3709 22.8935 31.9507 23.6838 31.7705 23.6837C31.7349 23.6837 31.8369 23.4585 31.9973 23.1831C32.4433 22.4172 33.291 20.6294 33.7157 19.5587C35.0279 16.2511 36.0202 11.9147 36.3275 8.14501C36.3581 7.77056 36.3986 7.43711 36.4177 7.40411C36.4367 7.37111 37.3893 7.34404 38.5345 7.34404H40.6168L40.5767 7.60435ZM21.2179 30.0087C21.4162 30.052 21.9932 30.0875 22.5 30.0875C23.0068 30.0875 23.5838 30.052 23.7821 30.0087C23.9804 29.9654 24.2238 29.9115 24.323 29.889L24.5033 29.8481V32.0122V34.1763H22.5H20.4967V32.0122V29.8481L20.677 29.889C20.7762 29.9115 21.0196 29.9654 21.2179 30.0087ZM29.832 36.7526C30.1963 36.9546 30.6004 37.3831 30.7638 37.7406C30.8855 38.007 30.9105 38.2737 30.912 39.3225L30.9137 40.5841H22.5H14.0863L14.088 39.3225C14.0901 37.8136 14.1646 37.5773 14.8222 36.9929C15.2929 36.5746 15.1214 36.5832 22.6202 36.6019C28.9523 36.6177 29.6136 36.6315 29.832 36.7526Z" fill="#F90101"/>
</svg>
