<svg width="45" height="45" viewBox="0 0 45 45" fill="none" xmlns="http://www.w3.org/2000/svg">
<path fill-rule="evenodd" clip-rule="evenodd" d="M26.4108 2.06937C26.0656 2.27125 25.163 3.0147 24.3786 3.74322C22.3519 5.62561 20.7761 7.74308 19.5309 10.2576C18.1042 13.1387 17.5168 15.9988 17.3367 20.9414L17.2829 22.4165L16.9514 22.3168C16.4568 22.1681 16.0705 21.951 15.5852 21.5493C14.476 20.631 13.6831 19.1864 13.1436 17.101C12.8367 15.9146 12.679 15.6941 12.1373 15.6941C11.5194 15.6941 10.1749 16.8489 9.35303 18.0856C7.78075 20.4511 7.02192 23.4317 7.0008 27.3242C6.99028 29.2621 7.0801 30.06 7.47618 31.5497C8.75109 36.344 12.3612 40.3147 17.0099 42.0356C18.8961 42.7339 20.4073 43 22.4864 43C24.5656 43 26.0767 42.7339 27.963 42.0356C32.0746 40.5134 35.4685 37.1493 37.0041 33.0736C37.8325 30.8751 38.1314 28.7491 37.948 26.3617C37.6835 22.9192 36.9217 20.3968 35.2349 17.3785C34.6016 16.2452 33.6641 14.8667 31.8038 12.3332C30.1105 10.0271 29.5409 9.16011 28.9534 7.99421C28.1861 6.47147 27.8123 5.1122 27.6782 3.3563C27.6161 2.54276 27.5878 2.4271 27.4066 2.24743C27.174 2.017 26.6582 1.92468 26.4108 2.06937ZM26.2094 5.36124C26.4334 6.49177 26.7975 7.51361 27.4191 8.75618C28.1083 10.1341 28.6709 10.9928 30.5722 13.5686C32.8854 16.7026 33.7563 18.0736 34.6085 19.9232C35.5602 21.9884 36.0683 24.0765 36.2353 26.6074C36.4002 29.1062 35.9881 31.3087 34.9524 33.4649C33.8632 35.7326 32.2416 37.6121 30.1628 39.0166C29.7694 39.2823 28.1387 40.1574 28.0369 40.1574C28.0043 40.1574 28.055 40.0498 28.1494 39.9184C28.4356 39.52 29.0145 38.2273 29.1738 37.6308C29.2939 37.1814 29.3222 36.7972 29.3157 35.7059C29.3083 34.46 29.2864 34.2624 29.0626 33.4168C28.7204 32.1241 28.1825 31.057 26.9837 29.2922C25.5098 27.1225 25.3044 26.6836 25.1548 25.3828C25.0926 24.8433 25.0424 24.6917 24.8641 24.5072C24.575 24.2081 24.2668 24.1504 23.8944 24.3256C23.4195 24.5489 22.2515 25.7606 21.6561 26.6475C20.5385 28.3123 20.0798 29.7048 19.914 31.9361L19.8544 32.7382L19.6376 32.4174C19.4418 32.1276 19.1679 31.3902 19.0539 30.8459C18.9226 30.2187 18.1725 30.0149 17.575 30.4439C16.7653 31.0254 16.1554 32.119 15.7991 33.6283C15.5854 34.5336 15.5853 36.8311 15.799 37.6308C15.9584 38.2273 16.5372 39.52 16.8234 39.9184C16.9179 40.0498 16.9734 40.1574 16.9469 40.1574C16.7281 40.1574 14.9448 39.1367 14.2539 38.6161C11.5304 36.5638 9.6983 33.7223 8.98356 30.4419C8.34829 27.5266 8.79001 23.1915 9.99809 20.4848C10.3676 19.6567 11.3945 18.1003 11.5713 18.1003C11.5993 18.1003 11.6859 18.3259 11.7637 18.6016C11.9534 19.2748 12.5874 20.5735 13.0897 21.3179C14.2606 23.0531 15.918 24.0772 17.7142 24.1753L18.4875 24.2176L18.7382 23.969L18.9891 23.7204L19.0404 22.0533C19.2203 16.2111 19.6754 13.8074 21.1592 10.8619C21.8081 9.57374 22.476 8.52615 23.4477 7.27235C23.9774 6.58898 25.9631 4.51586 26.0272 4.57938C26.0459 4.59799 26.128 4.94986 26.2094 5.36124ZM24.2074 28.1687C24.3198 28.388 24.8765 29.2532 25.4445 30.0913C26.5817 31.7694 27.0837 32.7279 27.335 33.7007C27.8367 35.6426 27.7569 36.922 27.0423 38.3928C26.734 39.0274 26.5624 39.2627 26.0156 39.8002C24.9503 40.8472 23.8784 41.304 22.4864 41.304C21.0944 41.304 20.0225 40.8472 18.9573 39.8002C18.4109 39.2631 18.2385 39.0268 17.93 38.3928C17.4297 37.3642 17.2696 36.5555 17.3334 35.3769C17.3809 34.4987 17.555 33.5385 17.7502 33.0783L17.8499 32.8433L18.0562 33.1918C18.5998 34.1101 19.4422 34.7156 20.3286 34.8253C20.8355 34.8881 21.286 34.7362 21.4432 34.4494C21.5073 34.3326 21.568 33.7338 21.6047 32.8585C21.6679 31.3514 21.7602 30.6569 22.0154 29.7705C22.2103 29.0936 22.8135 27.9264 23.2953 27.2937L23.6472 26.8318L23.8251 27.3009C23.9229 27.5589 24.0949 27.9494 24.2074 28.1687Z" fill="white"/>
</svg>
