<svg version="1.1" xmlns="http://www.w3.org/2000/svg" width="24" height="24" viewBox="0 0 24 24" class="icon">
    <path d="M17.596 13.557c-.234 0-.462.019-.686.054l-2.983-6.628c1.026-.083 2.743-.337 3.522-1.12 1.085-1.09 1.149-4.006 1.153-4.335L18.608 1l-.525.006c-.328.004-3.228.069-4.313 1.16-.36.362-.608.928-.779 1.532-.17-.604-.417-1.17-.778-1.533C11.128 1.075 8.227 1.01 7.9 1.006L7.375 1l.006.528c.004.329.068 3.245 1.153 4.335.76.764 2.408 1.024 3.442 1.113L7.29 15.092c-.286-.059-.582-.09-.886-.09C3.976 15.002 2 16.988 2 19.43c0 2.441 1.976 4.427 4.404 4.427 2.429 0 4.404-1.986 4.404-4.427 0-1.396-.646-2.642-1.653-3.454l3.69-6.392 2.167 4.818c-1.102.806-1.82 2.111-1.82 3.583 0 2.44 1.975 4.427 4.404 4.427 2.428 0 4.404-1.986 4.404-4.427 0-2.442-1.976-4.428-4.404-4.428z"></path>
</svg>
