<svg version="1.1" xmlns="http://www.w3.org/2000/svg" width="24" height="24" viewBox="0 0 24 24" class="icon">
    <path d="M7.5 13c1.933 0 3.5 1.567 3.5 3.5S9.433 20 7.5 20 4 18.433 4 16.5 5.567 13 7.5 13zm9 0c1.933 0 3.5 1.567 3.5 3.5S18.433 20 16.5 20 13 18.433 13 16.5s1.567-3.5 3.5-3.5zm-9-9C9.433 4 11 5.567 11 7.5S9.433 11 7.5 11 4 9.433 4 7.5 5.567 4 7.5 4zm9.167 0c.552 0 1 .448 1 1l-.001 1.333H19c.552 0 1 .448 1 1v.334c0 .552-.448 1-1 1l-1.334-.001V10c0 .552-.447 1-1 1h-.333c-.552 0-1-.448-1-1V8.666H14c-.552 0-1-.447-1-1v-.333c0-.552.448-1 1-1h1.333V5c0-.552.448-1 1-1h.334z"></path>
</svg>
