<svg width="45" height="45" viewBox="0 0 45 45" fill="none" xmlns="http://www.w3.org/2000/svg">
<path fill-rule="evenodd" clip-rule="evenodd" d="M21.442 2.46239C20.4943 2.72078 16.0885 3.90589 11.6513 5.09583C7.21413 6.28584 3.44669 7.32444 3.27919 7.40399C2.86174 7.60224 2.3845 8.09856 2.19144 8.53522C1.80852 9.40141 1.57291 8.38285 5.88867 24.5151C8.05393 32.6088 9.87963 39.3788 9.94574 39.5596C10.1256 40.0512 10.5658 40.513 11.1181 40.7892C11.9044 41.1823 12.1603 41.1531 15.3191 40.3101C16.8134 39.9114 18.0951 39.5673 18.1673 39.5458C18.2819 39.5114 18.3027 39.6163 18.3312 40.3711C18.3802 41.6653 18.7457 42.3248 19.6643 42.7763L20.1197 43H30.6582H41.1968L41.6522 42.7763C42.1681 42.5228 42.5445 42.1342 42.7912 41.6007C42.9574 41.2412 42.9602 41.1451 42.982 35.1422C42.9982 30.6417 42.9795 28.9897 42.9106 28.8231C42.8106 28.5816 42.4735 28.3644 42.1986 28.3644C41.9336 28.3644 41.5976 28.5734 41.4929 28.8033C41.4215 28.9602 41.3972 30.5071 41.3972 34.9003C41.3972 39.2936 41.3729 40.8404 41.3014 40.9974C41.0913 41.4589 41.642 41.4362 30.6582 41.4362C19.6745 41.4362 20.2252 41.4589 20.0151 40.9974C19.8762 40.6924 19.8762 10.4228 20.0151 10.1179C20.2252 9.65635 19.6745 9.67904 30.6582 9.67904C41.642 9.67904 41.0913 9.65635 41.3014 10.1179C41.3729 10.2748 41.3972 11.8235 41.3972 16.2227C41.3972 22.6215 41.3855 22.4497 41.8357 22.655C42.2592 22.8481 42.7488 22.6827 42.9106 22.2922C42.9795 22.1255 42.9982 20.4735 42.982 15.9731C42.9602 9.97015 42.9574 9.87408 42.7912 9.51456C42.5445 8.98103 42.1681 8.59248 41.6522 8.33899L41.1968 8.11524L34.13 8.09351L27.0632 8.07178L26.982 7.81283C26.9375 7.6704 26.6603 6.65169 26.3662 5.54901C26.0722 4.44633 25.7653 3.41374 25.6844 3.25439C25.4641 2.82086 24.8087 2.27144 24.3255 2.1153C23.6858 1.90856 23.3046 1.95443 21.442 2.46239ZM23.9881 3.70862C24.0857 3.77702 24.2057 3.90798 24.2546 3.99956C24.3236 4.12844 25.3689 7.9186 25.3689 8.03962C25.3689 8.0547 24.1878 8.07787 22.7443 8.0911L20.1197 8.11524L19.6643 8.33899C19.1484 8.59248 18.772 8.98103 18.5253 9.51456C18.3643 9.86261 18.3554 10.0234 18.333 12.9871C18.32 14.6963 18.2972 16.0946 18.2821 16.0946C18.2671 16.0946 17.9712 15.9325 17.6245 15.7343C16.9317 15.3384 16.529 15.2739 16.2433 15.5132C16.0092 15.7093 12.8835 21.156 12.6915 21.7021C12.0549 23.5143 12.9003 25.6768 14.5975 26.5776C15.7214 27.1742 16.7491 27.2339 18.1768 26.7857C18.3103 26.7439 18.3165 27.0292 18.297 32.2982L18.2764 37.8549L15.3513 38.6412C13.7424 39.0737 12.3077 39.4284 12.1629 39.4295C11.7775 39.4322 11.5301 39.2311 11.393 38.8034C11.1315 37.9882 3.57051 9.62355 3.57051 9.45778C3.57051 9.36035 3.66964 9.17205 3.7909 9.03941C3.99413 8.81703 4.27928 8.72657 7.45736 7.8765C9.3527 7.36951 13.6984 6.20067 17.1144 5.27907C20.5304 4.35747 23.4345 3.59907 23.5679 3.59386C23.7014 3.58856 23.8905 3.64021 23.9881 3.70862ZM8.47988 9.95692C8.32385 10.0258 8.17294 10.1775 8.10201 10.3365C7.99535 10.5759 7.49743 14.8456 7.49743 15.521C7.49743 15.7072 7.56723 15.856 7.73168 16.0206C8.0484 16.3375 8.44109 16.3405 8.78995 16.0286C9.04183 15.8034 9.04399 15.7949 9.2066 14.3489C9.29644 13.5496 9.39413 12.9104 9.42354 12.9286C9.45296 12.9468 9.84132 13.463 10.2866 14.0758C11.1625 15.2813 11.379 15.4551 11.8396 15.3229C12.1713 15.2277 12.4199 14.8831 12.4099 14.5321C12.4034 14.3043 12.1554 13.9145 11.0517 12.3976C9.15419 9.79003 9.05986 9.70053 8.47988 9.95692ZM24.3644 12.0008C24.2747 12.0372 24.1578 12.1194 24.1047 12.1834C23.9655 12.3513 22.1633 17.0299 22.1633 17.2235C22.1633 17.631 22.5581 18.0193 22.9725 18.0193C23.2645 18.0193 23.5746 17.7941 23.7102 17.4835C23.7837 17.3151 24.036 16.6774 24.2708 16.0665L24.6977 14.9557L25.2017 16.267C25.7976 17.8175 25.987 18.065 26.5222 17.9932C26.9309 17.9383 27.2122 17.6415 27.2122 17.2651C27.2122 17.1198 26.812 15.958 26.3229 14.6833C25.6399 12.903 25.3793 12.3144 25.1997 12.145C24.9616 11.9206 24.6813 11.8723 24.3644 12.0008ZM17.9358 17.8159L18.3165 18.0345V21.3856V24.7367L18.0373 24.9497C17.6141 25.2727 17.1382 25.4196 16.5133 25.4201C15.5718 25.4208 14.8211 24.953 14.3953 24.1002C14.1873 23.6838 14.1492 23.5156 14.1492 23.0161C14.1492 22.6909 14.1987 22.3062 14.2593 22.1611C14.3519 21.9393 16.5691 18.0442 16.9272 17.4741L17.043 17.2899L17.299 17.4435C17.4399 17.528 17.7264 17.6956 17.9358 17.8159ZM27.702 20.5469C25.5354 21.1552 24.2595 23.2982 24.7711 25.47C25.0185 26.5207 25.2114 26.769 27.8099 29.3832C29.409 30.9921 30.2914 31.8231 30.4379 31.858C30.5591 31.8868 30.7575 31.8868 30.8786 31.858C31.0251 31.8231 31.9075 30.9921 33.5066 29.3832C35.4327 27.4455 35.9652 26.8633 36.1693 26.4724C37.4306 24.0565 36.1618 21.2109 33.5213 20.5334C32.8215 20.3539 31.8196 20.4183 31.1589 20.6853L30.6582 20.8877L30.1574 20.6842C29.5224 20.4263 28.3627 20.3614 27.702 20.5469ZM29.9609 22.3886C30.2606 22.5437 30.5744 22.6706 30.6582 22.6706C30.7421 22.6706 31.0687 22.5357 31.384 22.3709C31.9032 22.0995 32.0152 22.0716 32.57 22.0742C33.5848 22.0789 34.3635 22.5621 34.8021 23.4592C34.9844 23.8321 35.0239 24.0198 35.0239 24.5151C35.0239 25.5113 34.8995 25.6899 32.6244 27.9628L30.6582 29.927L28.6921 27.9628C26.5764 25.8492 26.379 25.5858 26.2829 24.7487C26.1526 23.6134 26.9448 22.455 28.0674 22.1392C28.6676 21.9704 29.3187 22.0562 29.9609 22.3886ZM41.8067 24.8676C41.112 25.253 41.4026 26.3596 42.1986 26.3596C42.6047 26.3596 43 25.9678 43 25.5654C43 24.9633 42.3351 24.5745 41.8067 24.8676ZM34.5336 33.1755C34.2896 33.274 34.1043 33.5709 34.1043 33.8636C34.1043 34.0014 34.5045 35.1573 34.9936 36.432C36.0022 39.0608 36.1155 39.2431 36.692 39.1657C36.8685 39.1421 37.0784 39.0567 37.1583 38.9762C37.3189 38.8146 39.1532 34.1465 39.1532 33.8996C39.1532 33.4881 38.7622 33.0959 38.3518 33.0959C38.0524 33.0959 37.7432 33.3182 37.6063 33.6317C37.5328 33.8001 37.2805 34.4378 37.0457 35.0488L36.6188 36.1595L36.1148 34.8483C35.756 33.9146 35.5436 33.4735 35.3772 33.3165C35.1376 33.0902 34.8597 33.0438 34.5336 33.1755Z" fill="white"/>
</svg>
