<svg version="1.1" xmlns="http://www.w3.org/2000/svg" width="24" height="24" viewBox="0 0 24 24" class="icon">
    <path d="M14.052 3.705l8.164 3.208c.656.26.954.925.686 1.532l-5.394 12.832c-.119.29-.357.52-.655.636-.15.058-.298.087-.477.087-.15 0-.298-.029-.447-.087l-6.556-2.6h2.325c1.31 0 2.383-1.041 2.383-2.313l-.03-13.295zM11.727 2c.656 0 1.192.52 1.192 1.156V17.03c0 .636-.536 1.156-1.192 1.156H2.192c-.656 0-1.192-.52-1.192-1.156V3.156C1 2.52 1.536 2 2.192 2h9.535zM6.675 5.27l-2.736 5c-.054.065-.052.146.006.208l2.735 4.616c.105.114.336.114.44 0l2.736-4.616c.057-.062.059-.143.005-.207l-2.735-5c-.104-.122-.348-.122-.451 0z"></path>
</svg>
