<svg width="45" height="45" viewBox="0 0 45 45" fill="none" xmlns="http://www.w3.org/2000/svg">
<path fill-rule="evenodd" clip-rule="evenodd" d="M22.1035 2.09965C21.3958 2.48457 21.6919 3.58998 22.5027 3.58998C22.9163 3.58998 23.319 3.19865 23.319 2.79667C23.319 2.19522 22.6417 1.80685 22.1035 2.09965ZM17.5751 2.78601C13.6854 4.04243 10.3848 6.88034 8.58083 10.5193C5.72334 16.2836 6.80302 23.0942 11.3071 27.7176C11.7177 28.139 12.0536 28.5029 12.0536 28.5262C12.0536 28.5496 10.9332 30.5079 9.56378 32.878C8.19438 35.2482 7.07396 37.2721 7.07396 37.3756C7.07396 37.679 7.29151 38.006 7.56833 38.1184C7.80074 38.2129 8.10303 38.1668 10.7176 37.6382C12.3083 37.3166 13.6233 37.0674 13.6399 37.0844C13.6564 37.1014 14.093 38.2874 14.6099 39.72C15.721 42.799 15.6969 42.7434 15.9838 42.889C16.3468 43.0732 16.6141 43.0306 16.9007 42.7428C17.0433 42.5996 18.353 40.419 19.811 37.8968C21.2689 35.3747 22.4802 33.3111 22.5027 33.3111C22.5251 33.3111 23.7364 35.3747 25.1943 37.8968C26.6523 40.419 27.962 42.5996 28.1046 42.7428C28.3912 43.0306 28.6585 43.0732 29.0215 42.889C29.3084 42.7434 29.2843 42.799 30.3955 39.72C30.9124 38.2874 31.3495 37.1007 31.3668 37.083C31.3841 37.0653 32.6988 37.3147 34.2883 37.6372C36.9052 38.1682 37.2027 38.2137 37.4362 38.1187C37.714 38.0058 37.9313 37.6792 37.9313 37.3745C37.9313 37.2704 36.8109 35.2482 35.4415 32.8806C34.0721 30.5131 32.9517 28.5494 32.9517 28.5167C32.9517 28.4842 33.1397 28.2787 33.3696 28.06C35.8353 25.7142 37.4844 22.4012 37.8936 18.9712C38.6633 12.5196 35.2058 6.34362 29.2374 3.50891C28.1527 2.99365 26.5843 2.46846 26.1306 2.46846C25.4819 2.46846 25.093 3.32122 25.5465 3.74955C25.6522 3.84929 26.2024 4.07736 26.8138 4.27482C28.9203 4.95494 30.7155 6.04177 32.2987 7.59539C33.4661 8.74101 34.1795 9.71625 34.9063 11.1602C36.5888 14.5028 36.8372 18.0622 35.633 21.5743C33.9134 26.5893 29.356 30.1671 23.9548 30.7423C18.8868 31.282 13.8482 28.9676 10.979 24.7819C8.63569 21.3637 8.01274 17.0319 9.29071 13.0427C9.62231 12.0075 10.5457 10.2012 11.2153 9.27766C11.9177 8.30899 13.4246 6.83115 14.4227 6.13229C15.401 5.44729 17.2266 4.55752 18.3394 4.22347C19.3202 3.92908 19.4376 3.87004 19.5581 3.61057C19.7154 3.27147 19.6626 2.95352 19.4069 2.70262C19.0827 2.38459 18.7745 2.39861 17.5751 2.78601ZM21.0333 5.27281C17.9536 5.68881 15.3623 7.04416 13.291 9.32204C11.8849 10.8684 10.8572 12.9541 10.4511 15.0855C10.2257 16.2685 10.2458 18.3904 10.4933 19.5315C11.0759 22.2185 12.3353 24.3589 14.419 26.2035C15.9673 27.5739 17.9291 28.532 20.1353 28.995C21.3711 29.2544 23.6342 29.2544 24.87 28.995C29.8253 27.955 33.4539 24.3942 34.5137 19.5315C34.6662 18.8318 34.697 18.4413 34.697 17.2084C34.697 15.9754 34.6662 15.585 34.5137 14.8852C33.4571 10.0371 29.8046 6.44239 24.9108 5.43431C23.9804 5.24261 21.8987 5.15593 21.0333 5.27281ZM24.7068 7.0255C26.816 7.49549 28.4136 8.35337 29.9424 9.83697C31.5017 11.3501 32.4459 13.0569 32.9228 15.2242C33.126 16.1476 33.126 18.2691 32.9228 19.1925C32.4458 21.3606 31.501 23.068 29.9424 24.5789C28.3918 26.082 26.7575 26.9461 24.5435 27.4335C23.6592 27.6282 21.3938 27.6287 20.4808 27.4345C18.3007 26.9706 16.6021 26.0695 15.0222 24.5387C13.4988 23.0627 12.5572 21.3532 12.0857 19.2079C11.8776 18.2612 11.8775 16.156 12.0854 15.2099C12.5592 13.0544 13.4458 11.4367 14.99 9.90995C16.5886 8.32958 18.5972 7.28665 20.6659 6.96293C20.9802 6.91375 21.3292 6.85799 21.4414 6.83908C21.9294 6.75681 24.0419 6.87738 24.7068 7.0255ZM22.0769 9.56236C21.9059 9.65344 21.6185 10.1435 20.8219 11.702C20.2537 12.814 19.7783 13.7354 19.7656 13.7496C19.7528 13.7639 18.7141 13.9276 17.4574 14.1135C16.0268 14.325 15.1188 14.495 15.029 14.5682C14.8243 14.7347 14.6664 15.1473 14.7209 15.3732C14.7465 15.4796 15.5153 16.3049 16.4345 17.2126L18.1016 18.8591L17.7274 21.0519C17.5216 22.258 17.3749 23.342 17.4015 23.4609C17.4281 23.5798 17.5419 23.7618 17.6543 23.8655C18.0333 24.2149 18.2785 24.1414 20.4382 23.0309C21.5253 22.4721 22.4576 22.0148 22.51 22.0148C22.5623 22.0148 23.4913 22.4722 24.5743 23.0312C26.7267 24.1421 26.9713 24.2156 27.351 23.8655C27.4634 23.7618 27.5772 23.5798 27.6038 23.4609C27.6305 23.342 27.4838 22.258 27.278 21.0519L26.9037 18.8591L28.5885 17.2043C30.1211 15.699 30.2741 15.524 30.2815 15.2672C30.291 14.9374 30.0827 14.5869 29.8188 14.4884C29.7168 14.4503 28.736 14.2883 27.6393 14.1283C26.5428 13.9683 25.543 13.8177 25.4178 13.7935C25.2124 13.7539 25.0864 13.5465 24.1401 11.6903C23.3056 10.0534 23.046 9.61123 22.8743 9.53448C22.5922 9.40831 22.3502 9.4168 22.0769 9.56236ZM23.2978 13.5604C23.7484 14.4464 24.1245 15.0862 24.2356 15.1562C24.3375 15.2205 25.0639 15.3664 25.8496 15.4805C26.6353 15.5946 27.3872 15.7102 27.5203 15.7373C27.7593 15.7861 27.7461 15.8022 26.5262 16.9611C25.8313 17.6214 25.2677 18.2227 25.2392 18.3344C25.2112 18.4438 25.3129 19.2625 25.4652 20.1539C25.6175 21.0452 25.7255 21.7745 25.7054 21.7745C25.6851 21.7745 24.9922 21.4321 24.1656 21.0135C23.339 20.5949 22.5922 20.2525 22.5061 20.2525C22.42 20.2525 21.672 20.5949 20.8439 21.0135C20.0159 21.4321 19.3214 21.7745 19.3008 21.7745C19.2801 21.7745 19.3878 21.0452 19.5401 20.1539C19.6924 19.2625 19.7938 18.4425 19.7654 18.3316C19.7359 18.2161 19.1862 17.6294 18.4787 16.9583C17.2633 15.8053 17.2474 15.7858 17.4853 15.7393C17.6183 15.7131 18.37 15.5972 19.1557 15.4816C19.9414 15.3659 20.6678 15.219 20.7697 15.1553C20.8814 15.0855 21.2546 14.4508 21.7075 13.5604C22.1213 12.747 22.4791 12.0814 22.5027 12.0814C22.5262 12.0814 22.884 12.747 23.2978 13.5604ZM14.5434 30.2571C16.293 31.2985 18.6804 32.1087 20.6079 32.3152C20.8902 32.3454 21.1106 32.3954 21.0977 32.4263C21.0042 32.6482 16.5844 40.1992 16.5484 40.1982C16.5233 40.1976 16.2303 39.4316 15.8974 38.4959C14.8701 35.6087 14.8483 35.5595 14.5351 35.4129C14.2689 35.2884 14.1809 35.3001 11.8914 35.7633C10.5888 36.0269 9.52296 36.232 9.52296 36.2191C9.52296 36.201 13.1553 29.8954 13.3355 29.6008C13.3571 29.5653 13.4725 29.6 13.5918 29.678C13.7111 29.7559 14.1393 30.0165 14.5434 30.2571ZM33.597 32.9304C34.6339 34.7262 35.4824 36.2058 35.4824 36.2184C35.4824 36.231 34.417 36.0257 33.1151 35.7621C30.8233 35.2984 30.739 35.2872 30.4714 35.4125C30.1568 35.5596 30.1359 35.6068 29.1079 38.4959C28.775 39.4316 28.4821 40.1976 28.4569 40.1982C28.4209 40.1992 24.0011 32.6482 23.9076 32.4263C23.8947 32.3954 24.1151 32.3454 24.3974 32.3152C26.4521 32.0951 28.931 31.2178 30.8293 30.0389C31.2558 29.774 31.6289 29.5815 31.6582 29.6112C31.6877 29.6409 32.5601 31.1345 33.597 32.9304Z" fill="#F90101"/>
</svg>
